	.include "MPlayDef.s"

	.equ	song06_grp, AllInstrument
	.equ	song06_pri, 0
	.equ	song06_rev, 0
	.equ	song06_mvl, 127
	.equ	song06_key, 0
	.equ	song06_tbs, 1
	.equ	song06_exg, 0
	.equ	song06_cmp, 1

	.section .content_data
	.global	Song_IndomitableWillV1_SurfingKyogre
	.align	2


@**************** Track 1 (Midi-Chn.0) ****************@

.align 2, 0
song06_001:
@  #01 @000   ----------------------------------------
 .byte   KEYSH , song06_key+0
Label_01162F7A:
 .byte   TEMPO , 224*song06_tbs/2
 .byte   VOICE , 60
 .byte   PAN , c_v-2
 .byte   VOL , 52*song06_mvl/mxv
 .byte   TIE ,Cs4 ,v064
 .byte   W96
@  #01 @001   ----------------------------------------
 .byte   W92
 .byte   W03
 .byte   EOT
 .byte   W01
@  #01 @002   ----------------------------------------
 .byte   TIE ,Cn4
 .byte   W96
@  #01 @003   ----------------------------------------
 .byte   W92
 .byte   W03
 .byte   EOT
 .byte   W01
@  #01 @004   ----------------------------------------
 .byte   TEMPO , 224*song06_tbs/2
 .byte   TIE ,As3
 .byte   W96
@  #01 @005   ----------------------------------------
 .byte   W68
 .byte   W03
 .byte   EOT
 .byte   W01
 .byte   N23 ,Gs3
 .byte   W24
@  #01 @006   ----------------------------------------
 .byte   W24
 .byte   N72 ,Fs3
 .byte   W72
@  #01 @007   ----------------------------------------
Label_01162FA1:
 .byte   N23 ,An3 ,v064
 .byte   W48
 .byte   N48 ,Cn4
 .byte   W48
 .byte   PEND 
@  #01 @008   ----------------------------------------
Label_01162FA9:
 .byte   TIE ,Fn3 ,v064
 .byte   TIE ,Cs4
 .byte   W96
 .byte   PEND 
@  #01 @009   ----------------------------------------
 .byte   W92
 .byte   W03
 .byte   EOT
 .byte   Fn3 ,v073
 .byte   N01 ,Fn3 ,v076
 .byte   W01
@  #01 @010   ----------------------------------------
Label_01162FB9:
 .byte   TIE ,Ds3 ,v064
 .byte   TIE ,Cn4
 .byte   W96
 .byte   PEND 
@  #01 @011   ----------------------------------------
 .byte   W92
 .byte   W03
 .byte   EOT
 .byte   Ds3 ,v072
 .byte   N01 ,Ds3 ,v072
 .byte   W01
@  #01 @012   ----------------------------------------
Label_01162FC9:
 .byte   TIE ,Cs3 ,v064
 .byte   TIE ,As3
 .byte   W96
 .byte   PEND 
@  #01 @013   ----------------------------------------
 .byte   W68
 .byte   W03
 .byte   EOT
 .byte   Cs3 ,v070
 .byte   N01 ,Cs3 ,v072
 .byte   W01
 .byte   N23 ,Gs3
 .byte   W24
@  #01 @014   ----------------------------------------
 .byte   W24
 .byte   N72 ,Fs3
 .byte   W72
@  #01 @015   ----------------------------------------
 .byte   PATT
  .word Label_01162FA1
@  #01 @016   ----------------------------------------
 .byte   W96
@  #01 @017   ----------------------------------------
 .byte   W96
@  #01 @018   ----------------------------------------
 .byte   W96
@  #01 @019   ----------------------------------------
 .byte   W96
@  #01 @020   ----------------------------------------
Label_01162FE9:
 .byte   W48
 .byte   N11 ,Fn3 ,v064
 .byte   W24
 .byte   N11
 .byte   W24
 .byte   PEND 
@  #01 @021   ----------------------------------------
Label_01162FF1:
 .byte   N11 ,Fn3 ,v064
 .byte   W24
 .byte   N11
 .byte   W24
 .byte   N11
 .byte   W24
 .byte   N24 ,Ds3
 .byte   W24
 .byte   PEND 
@  #01 @022   ----------------------------------------
Label_01162FFD:
 .byte   N11 ,Ds3 ,v064
 .byte   W24
 .byte   N11
 .byte   W24
 .byte   N11
 .byte   W24
 .byte   N11
 .byte   W24
 .byte   PEND 
@  #01 @023   ----------------------------------------
 .byte   PATT
  .word Label_01162FFD
@  #01 @024   ----------------------------------------
Label_0116300D:
 .byte   W48
 .byte   N11 ,Ds3 ,v064
 .byte   W24
 .byte   N11
 .byte   W24
 .byte   PEND 
@  #01 @025   ----------------------------------------
 .byte   PATT
  .word Label_01162FFD
@  #01 @026   ----------------------------------------
 .byte   PATT
  .word Label_01162FFD
@  #01 @027   ----------------------------------------
Label_0116301F:
 .byte   N11 ,Fn3 ,v064
 .byte   W24
 .byte   N11
 .byte   W24
 .byte   N11
 .byte   W24
 .byte   N11
 .byte   W24
 .byte   PEND 
@  #01 @028   ----------------------------------------
Label_0116302A:
 .byte   W48
 .byte   N11 ,Gs3 ,v064
 .byte   W24
 .byte   N11
 .byte   W24
 .byte   PEND 
@  #01 @029   ----------------------------------------
Label_01163032:
 .byte   N11 ,Gs3 ,v064
 .byte   W24
 .byte   N11
 .byte   W24
 .byte   N11
 .byte   W24
 .byte   N24 ,Fs3
 .byte   W24
 .byte   PEND 
@  #01 @030   ----------------------------------------
Label_0116303E:
 .byte   N11 ,Fs3 ,v064
 .byte   W24
 .byte   N11
 .byte   W24
 .byte   N11
 .byte   W24
 .byte   N11
 .byte   W24
 .byte   PEND 
@  #01 @031   ----------------------------------------
 .byte   PATT
  .word Label_0116303E
@  #01 @032   ----------------------------------------
 .byte   W96
@  #01 @033   ----------------------------------------
 .byte   W96
@  #01 @034   ----------------------------------------
 .byte   W96
@  #01 @035   ----------------------------------------
 .byte   W96
@  #01 @036   ----------------------------------------
 .byte   PATT
  .word Label_01162FE9
@  #01 @037   ----------------------------------------
 .byte   PATT
  .word Label_01162FF1
@  #01 @038   ----------------------------------------
 .byte   PATT
  .word Label_01162FFD
@  #01 @039   ----------------------------------------
 .byte   PATT
  .word Label_01162FFD
@  #01 @040   ----------------------------------------
Label_01163066:
 .byte   W48
 .byte   TIE ,Ds3 ,v064
 .byte   W48
 .byte   PEND 
@  #01 @041   ----------------------------------------
 .byte   W92
 .byte   W03
 .byte   EOT
 .byte   W01
@  #01 @042   ----------------------------------------
 .byte   PATT
  .word Label_01162FFD
@  #01 @043   ----------------------------------------
 .byte   PATT
  .word Label_0116301F
@  #01 @044   ----------------------------------------
 .byte   N92 ,Cs3 ,v064
 .byte   W96
@  #01 @045   ----------------------------------------
 .byte   N96 ,Fn3
 .byte   W96
@  #01 @046   ----------------------------------------
 .byte   Ds3
 .byte   W96
@  #01 @047   ----------------------------------------
 .byte   Cs4
 .byte   W96
@  #01 @048   ----------------------------------------
Label_01163085:
 .byte   N23 ,Cn4 ,v064
 .byte   W24
 .byte   TIE ,As3
 .byte   W72
 .byte   PEND 
@  #01 @049   ----------------------------------------
 .byte   W96
@  #01 @050   ----------------------------------------
 .byte   W96
@  #01 @051   ----------------------------------------
 .byte   W92
 .byte   W03
 .byte   EOT
 .byte   W01
@  #01 @052   ----------------------------------------
 .byte   W96
@  #01 @053   ----------------------------------------
 .byte   W96
@  #01 @054   ----------------------------------------
 .byte   W96
@  #01 @055   ----------------------------------------
 .byte   W96
@  #01 @056   ----------------------------------------
 .byte   W96
@  #01 @057   ----------------------------------------
 .byte   W96
@  #01 @058   ----------------------------------------
 .byte   W96
@  #01 @059   ----------------------------------------
 .byte   W48
 .byte   N44 ,Cs3 ,v096
 .byte   W48
@  #01 @060   ----------------------------------------
Label_0116309F:
 .byte   N68 ,Gs3 ,v096
 .byte   W72
 .byte   N23 ,Fs3
 .byte   W24
 .byte   PEND 
@  #01 @061   ----------------------------------------
Label_011630A7:
 .byte   N68 ,Fn3 ,v096
 .byte   W72
 .byte   N23 ,Fs3
 .byte   W24
 .byte   PEND 
@  #01 @062   ----------------------------------------
Label_011630AF:
 .byte   N23 ,Fn3 ,v096
 .byte   W24
 .byte   N44 ,Ds3
 .byte   W48
 .byte   N23 ,Fn3
 .byte   W24
 .byte   PEND 
@  #01 @063   ----------------------------------------
Label_011630BA:
 .byte   N23 ,Fs3 ,v096
 .byte   W24
 .byte   N24 ,Fn3
 .byte   W24
 .byte   Ds3
 .byte   W24
 .byte   Cs3
 .byte   W24
 .byte   PEND 
@  #01 @064   ----------------------------------------
Label_011630C6:
 .byte   N23 ,Ds3 ,v096
 .byte   W24
 .byte   TIE ,Fn3
 .byte   W72
 .byte   PEND 
@  #01 @065   ----------------------------------------
 .byte   W44
 .byte   W03
 .byte   EOT
 .byte   W01
 .byte   N44 ,Cn3
 .byte   W48
@  #01 @066   ----------------------------------------
Label_011630D5:
 .byte   N23 ,Cn3 ,v096
 .byte   W24
 .byte   TIE ,Cs3
 .byte   W72
 .byte   PEND 
@  #01 @067   ----------------------------------------
 .byte   W44
 .byte   W03
 .byte   EOT
 .byte   W01
 .byte   N23 ,Ds3
 .byte   W24
 .byte   N24 ,Fn3
 .byte   W24
@  #01 @068   ----------------------------------------
 .byte   TIE ,Fs3
 .byte   W96
@  #01 @069   ----------------------------------------
 .byte   W23
 .byte   EOT
 .byte   W01
 .byte   N23 ,Fn3
 .byte   W24
 .byte   N24 ,Ds3
 .byte   W24
 .byte   Cs3
 .byte   W24
@  #01 @070   ----------------------------------------
 .byte   TIE ,Ds3
 .byte   W96
@  #01 @071   ----------------------------------------
 .byte   W23
 .byte   EOT
 .byte   W01
 .byte   N23 ,Fn3
 .byte   W24
 .byte   N24 ,Fs3
 .byte   W24
 .byte   Gs3
 .byte   W24
@  #01 @072   ----------------------------------------
 .byte   N92 ,Fn3
 .byte   W96
@  #01 @073   ----------------------------------------
 .byte   N96 ,Ds3
 .byte   W96
@  #01 @074   ----------------------------------------
 .byte   Cn3
 .byte   W96
@  #01 @075   ----------------------------------------
Label_0116310B:
 .byte   N23 ,Cn3 ,v096
 .byte   W24
 .byte   N24 ,Cs3
 .byte   W24
 .byte   Fn3
 .byte   W24
 .byte   Gs3
 .byte   W24
 .byte   PEND 
@  #01 @076   ----------------------------------------
Label_01163117:
 .byte   N68 ,Cn4 ,v096
 .byte   W72
 .byte   N23 ,Cs4
 .byte   W24
 .byte   PEND 
@  #01 @077   ----------------------------------------
 .byte   TIE ,As3
 .byte   W96
@  #01 @078   ----------------------------------------
 .byte   W44
 .byte   W03
 .byte   EOT
 .byte   W01
 .byte   N23 ,Fn3
 .byte   W24
 .byte   N24 ,Fn4
 .byte   W24
@  #01 @079   ----------------------------------------
Label_0116312C:
 .byte   N11 ,Ds4 ,v096
 .byte   W12
 .byte   N12 ,Cs4
 .byte   W12
 .byte   N44 ,Cn4
 .byte   W48
 .byte   N23 ,Gs3
 .byte   W24
 .byte   PEND 
@  #01 @080   ----------------------------------------
Label_0116313A:
 .byte   N32 ,Cn4 ,v096
 .byte   W36
 .byte   N36 ,Cs4
 .byte   W36
 .byte   TIE ,As3
 .byte   W24
 .byte   PEND 
@  #01 @081   ----------------------------------------
 .byte   W96
@  #01 @082   ----------------------------------------
 .byte   W92
 .byte   W03
 .byte   EOT
 .byte   W01
@  #01 @083   ----------------------------------------
 .byte   PATT
  .word Label_0116310B
@  #01 @084   ----------------------------------------
 .byte   PATT
  .word Label_01163117
@  #01 @085   ----------------------------------------
 .byte   TIE ,As3 ,v096
 .byte   W96
@  #01 @086   ----------------------------------------
 .byte   W44
 .byte   W03
 .byte   EOT
 .byte   W01
 .byte   N23 ,Fn3
 .byte   W24
 .byte   N24 ,Fn4
 .byte   W24
@  #01 @087   ----------------------------------------
 .byte   PATT
  .word Label_0116312C
@  #01 @088   ----------------------------------------
Label_01163167:
 .byte   N32 ,Cn4 ,v096
 .byte   W36
 .byte   N36 ,Cs4
 .byte   W36
 .byte   TIE ,Gs4
 .byte   W24
 .byte   PEND 
@  #01 @089   ----------------------------------------
 .byte   W96
@  #01 @090   ----------------------------------------
 .byte   W92
 .byte   W03
 .byte   EOT
 .byte   W01
@  #01 @091   ----------------------------------------
 .byte   N92 ,Gs3
 .byte   W96
@  #01 @092   ----------------------------------------
 .byte   GOTO
  .word Label_01162F7A
@  #01 @093   ----------------------------------------
 .byte   TIE ,Cs4 ,v064
 .byte   W96
@  #01 @094   ----------------------------------------
 .byte   W92
 .byte   W03
 .byte   EOT
 .byte   W01
@  #01 @095   ----------------------------------------
 .byte   TIE ,Cn4
 .byte   W96
@  #01 @096   ----------------------------------------
 .byte   W92
 .byte   W03
 .byte   EOT
 .byte   W01
@  #01 @097   ----------------------------------------
 .byte   TIE ,As3
 .byte   W96
@  #01 @098   ----------------------------------------
 .byte   W68
 .byte   W03
 .byte   EOT
 .byte   W01
 .byte   N23 ,Gs3
 .byte   W24
@  #01 @099   ----------------------------------------
 .byte   W24
 .byte   N72 ,Fs3
 .byte   W72
@  #01 @100   ----------------------------------------
 .byte   PATT
  .word Label_01162FA1
@  #01 @101   ----------------------------------------
 .byte   PATT
  .word Label_01162FA9
@  #01 @102   ----------------------------------------
 .byte   W92
 .byte   W03
 .byte   EOT
 .byte   Fn3 ,v073
 .byte   N01 ,Fn3 ,v076
 .byte   W01
@  #01 @103   ----------------------------------------
 .byte   PATT
  .word Label_01162FB9
@  #01 @104   ----------------------------------------
 .byte   W92
 .byte   W03
 .byte   EOT
 .byte   Ds3 ,v072
 .byte   N01 ,Ds3 ,v072
 .byte   W01
@  #01 @105   ----------------------------------------
 .byte   PATT
  .word Label_01162FC9
@  #01 @106   ----------------------------------------
 .byte   W68
 .byte   W03
 .byte   EOT
 .byte   Cs3 ,v070
 .byte   N01 ,Cs3 ,v072
 .byte   W01
 .byte   N23 ,Gs3 ,v064
 .byte   W24
@  #01 @107   ----------------------------------------
 .byte   W24
 .byte   N72 ,Fs3
 .byte   W72
@  #01 @108   ----------------------------------------
 .byte   PATT
  .word Label_01162FA1
@  #01 @109   ----------------------------------------
 .byte   W96
@  #01 @110   ----------------------------------------
 .byte   W96
@  #01 @111   ----------------------------------------
 .byte   W96
@  #01 @112   ----------------------------------------
 .byte   W96
@  #01 @113   ----------------------------------------
 .byte   PATT
  .word Label_01162FE9
@  #01 @114   ----------------------------------------
 .byte   PATT
  .word Label_01162FF1
@  #01 @115   ----------------------------------------
 .byte   PATT
  .word Label_01162FFD
@  #01 @116   ----------------------------------------
 .byte   PATT
  .word Label_01162FFD
@  #01 @117   ----------------------------------------
 .byte   PATT
  .word Label_0116300D
@  #01 @118   ----------------------------------------
 .byte   PATT
  .word Label_01162FFD
@  #01 @119   ----------------------------------------
 .byte   PATT
  .word Label_01162FFD
@  #01 @120   ----------------------------------------
 .byte   PATT
  .word Label_0116301F
@  #01 @121   ----------------------------------------
 .byte   PATT
  .word Label_0116302A
@  #01 @122   ----------------------------------------
 .byte   PATT
  .word Label_01163032
@  #01 @123   ----------------------------------------
 .byte   PATT
  .word Label_0116303E
@  #01 @124   ----------------------------------------
 .byte   PATT
  .word Label_0116303E
@  #01 @125   ----------------------------------------
 .byte   W96
@  #01 @126   ----------------------------------------
 .byte   W96
@  #01 @127   ----------------------------------------
 .byte   W96
@  #01 @128   ----------------------------------------
 .byte   W96
@  #01 @129   ----------------------------------------
 .byte   PATT
  .word Label_01162FE9
@  #01 @130   ----------------------------------------
 .byte   PATT
  .word Label_01162FF1
@  #01 @131   ----------------------------------------
 .byte   PATT
  .word Label_01162FFD
@  #01 @132   ----------------------------------------
 .byte   PATT
  .word Label_01162FFD
@  #01 @133   ----------------------------------------
 .byte   PATT
  .word Label_01163066
@  #01 @134   ----------------------------------------
 .byte   W92
 .byte   W03
 .byte   EOT
 .byte   Ds3
 .byte   N01 ,Ds3 ,v064
 .byte   W01
@  #01 @135   ----------------------------------------
 .byte   PATT
  .word Label_01162FFD
@  #01 @136   ----------------------------------------
 .byte   PATT
  .word Label_0116301F
@  #01 @137   ----------------------------------------
 .byte   N92 ,Cs3 ,v064
 .byte   W96
@  #01 @138   ----------------------------------------
 .byte   N96 ,Fn3
 .byte   W96
@  #01 @139   ----------------------------------------
 .byte   Ds3
 .byte   W96
@  #01 @140   ----------------------------------------
 .byte   Cs4
 .byte   W96
@  #01 @141   ----------------------------------------
 .byte   PATT
  .word Label_01163085
@  #01 @142   ----------------------------------------
 .byte   W96
@  #01 @143   ----------------------------------------
 .byte   W96
@  #01 @144   ----------------------------------------
 .byte   W92
 .byte   W03
 .byte   EOT
 .byte   As3
 .byte   N01 ,As3 ,v064
 .byte   W01
@  #01 @145   ----------------------------------------
 .byte   W96
@  #01 @146   ----------------------------------------
 .byte   W96
@  #01 @147   ----------------------------------------
 .byte   W96
@  #01 @148   ----------------------------------------
 .byte   W96
@  #01 @149   ----------------------------------------
 .byte   W96
@  #01 @150   ----------------------------------------
 .byte   W96
@  #01 @151   ----------------------------------------
 .byte   W96
@  #01 @152   ----------------------------------------
 .byte   W48
 .byte   N44 ,Cs3 ,v096
 .byte   W48
@  #01 @153   ----------------------------------------
 .byte   PATT
  .word Label_0116309F
@  #01 @154   ----------------------------------------
 .byte   PATT
  .word Label_011630A7
@  #01 @155   ----------------------------------------
 .byte   PATT
  .word Label_011630AF
@  #01 @156   ----------------------------------------
 .byte   PATT
  .word Label_011630BA
@  #01 @157   ----------------------------------------
 .byte   PATT
  .word Label_011630C6
@  #01 @158   ----------------------------------------
 .byte   W44
 .byte   W03
 .byte   EOT
 .byte   Fn3
 .byte   N01 ,Fn3 ,v096
 .byte   W01
 .byte   N44 ,Cn3
 .byte   W48
@  #01 @159   ----------------------------------------
 .byte   PATT
  .word Label_011630D5
@  #01 @160   ----------------------------------------
 .byte   W44
 .byte   W03
 .byte   EOT
 .byte   Cs3
 .byte   N01 ,Cs3 ,v096
 .byte   W01
 .byte   N23 ,Ds3
 .byte   W24
 .byte   N24 ,Fn3
 .byte   W24
@  #01 @161   ----------------------------------------
 .byte   TIE ,Fs3
 .byte   W96
@  #01 @162   ----------------------------------------
 .byte   W23
 .byte   EOT
 .byte   W01
 .byte   N23 ,Fn3
 .byte   W24
 .byte   N24 ,Ds3
 .byte   W24
 .byte   Cs3
 .byte   W24
@  #01 @163   ----------------------------------------
 .byte   TIE ,Ds3
 .byte   W96
@  #01 @164   ----------------------------------------
 .byte   W23
 .byte   EOT
 .byte   W01
 .byte   N23 ,Fn3
 .byte   W24
 .byte   N24 ,Fs3
 .byte   W24
 .byte   Gs3
 .byte   W24
@  #01 @165   ----------------------------------------
 .byte   N92 ,Fn3
 .byte   W96
@  #01 @166   ----------------------------------------
 .byte   N96 ,Ds3
 .byte   W96
@  #01 @167   ----------------------------------------
 .byte   Cn3
 .byte   W96
@  #01 @168   ----------------------------------------
 .byte   PATT
  .word Label_0116310B
@  #01 @169   ----------------------------------------
 .byte   PATT
  .word Label_01163117
@  #01 @170   ----------------------------------------
 .byte   TIE ,As3 ,v096
 .byte   W96
@  #01 @171   ----------------------------------------
 .byte   W44
 .byte   W03
 .byte   EOT
 .byte   W01
 .byte   N23 ,Fn3
 .byte   W24
 .byte   N24 ,Fn4
 .byte   W24
@  #01 @172   ----------------------------------------
 .byte   PATT
  .word Label_0116312C
@  #01 @173   ----------------------------------------
 .byte   PATT
  .word Label_0116313A
@  #01 @174   ----------------------------------------
 .byte   W96
@  #01 @175   ----------------------------------------
 .byte   W92
 .byte   W03
 .byte   EOT
 .byte   As3
 .byte   N01 ,As3 ,v096
 .byte   W01
@  #01 @176   ----------------------------------------
 .byte   PATT
  .word Label_0116310B
@  #01 @177   ----------------------------------------
 .byte   PATT
  .word Label_01163117
@  #01 @178   ----------------------------------------
 .byte   TIE ,As3 ,v096
 .byte   W96
@  #01 @179   ----------------------------------------
 .byte   W44
 .byte   W03
 .byte   EOT
 .byte   W01
 .byte   N23 ,Fn3
 .byte   W24
 .byte   N24 ,Fn4
 .byte   W24
@  #01 @180   ----------------------------------------
 .byte   PATT
  .word Label_0116312C
@  #01 @181   ----------------------------------------
 .byte   PATT
  .word Label_01163167
@  #01 @182   ----------------------------------------
 .byte   W96
@  #01 @183   ----------------------------------------
 .byte   W92
 .byte   W03
 .byte   EOT
 .byte   Gs4
 .byte   N01 ,Gs4 ,v096
 .byte   W01
@  #01 @184   ----------------------------------------
 .byte   N92 ,Gs3
 .byte   W96
 .byte   FINE

@**************** Track 2 (Midi-Chn.1) ****************@

.align 2, 0
song06_002:
@  #02 @000   ----------------------------------------
 .byte   KEYSH , song06_key+0
Label_01162A02:
 .byte   VOICE , 60
 .byte   PAN , c_v+3
 .byte   VOL , 52*song06_mvl/mxv
 .byte   N23 ,Fn3 ,v096
 .byte   N23 ,As3
 .byte   W96
@  #02 @001   ----------------------------------------
Label_01162A0E:
 .byte   W72
 .byte   N23 ,Fn3 ,v096
 .byte   N23 ,As3
 .byte   W24
 .byte   PEND 
@  #02 @002   ----------------------------------------
Label_01162A16:
 .byte   W24
 .byte   N23 ,Ds3 ,v096
 .byte   N23 ,As3
 .byte   W72
 .byte   PEND 
@  #02 @003   ----------------------------------------
Label_01162A1E:
 .byte   W72
 .byte   N23 ,Ds3 ,v096
 .byte   N23 ,As3
 .byte   W24
 .byte   PEND 
@  #02 @004   ----------------------------------------
 .byte   N96 ,Fn3
 .byte   W96
@  #02 @005   ----------------------------------------
Label_01162A29:
 .byte   W72
 .byte   N23 ,Cs3 ,v096
 .byte   N23 ,Gs3
 .byte   W24
 .byte   PEND 
@  #02 @006   ----------------------------------------
Label_01162A31:
 .byte   W24
 .byte   N23 ,Cs3 ,v096
 .byte   N23 ,Fs3
 .byte   W72
 .byte   PEND 
@  #02 @007   ----------------------------------------
Label_01162A39:
 .byte   N23 ,Cn3 ,v096
 .byte   N23 ,Ds3
 .byte   W48
 .byte   N23
 .byte   N23 ,Fs3
 .byte   W48
 .byte   PEND 
@  #02 @008   ----------------------------------------
 .byte   Fn3
 .byte   N23 ,As3
 .byte   W96
@  #02 @009   ----------------------------------------
 .byte   PATT
  .word Label_01162A0E
@  #02 @010   ----------------------------------------
 .byte   PATT
  .word Label_01162A16
@  #02 @011   ----------------------------------------
 .byte   PATT
  .word Label_01162A1E
@  #02 @012   ----------------------------------------
 .byte   N23 ,Fn3 ,v096
 .byte   W96
@  #02 @013   ----------------------------------------
 .byte   PATT
  .word Label_01162A29
@  #02 @014   ----------------------------------------
 .byte   PATT
  .word Label_01162A31
@  #02 @015   ----------------------------------------
 .byte   PATT
  .word Label_01162A39
@  #02 @016   ----------------------------------------
 .byte   W96
@  #02 @017   ----------------------------------------
 .byte   W96
@  #02 @018   ----------------------------------------
 .byte   W96
@  #02 @019   ----------------------------------------
 .byte   W96
@  #02 @020   ----------------------------------------
Label_01162A6E:
 .byte   W48
 .byte   N11 ,As2 ,v064
 .byte   W24
 .byte   N11
 .byte   W24
 .byte   PEND 
@  #02 @021   ----------------------------------------
Label_01162A76:
 .byte   N11 ,As2 ,v064
 .byte   W24
 .byte   N11
 .byte   W24
 .byte   N11
 .byte   W24
 .byte   N24 ,An2
 .byte   W24
 .byte   PEND 
@  #02 @022   ----------------------------------------
Label_01162A82:
 .byte   N11 ,An2 ,v064
 .byte   W24
 .byte   N11
 .byte   W24
 .byte   N11
 .byte   W24
 .byte   N11
 .byte   W24
 .byte   PEND 
@  #02 @023   ----------------------------------------
 .byte   PATT
  .word Label_01162A82
@  #02 @024   ----------------------------------------
Label_01162A92:
 .byte   W48
 .byte   N11 ,An2 ,v064
 .byte   W24
 .byte   N11
 .byte   W24
 .byte   PEND 
@  #02 @025   ----------------------------------------
Label_01162A9A:
 .byte   N11 ,An2 ,v064
 .byte   W24
 .byte   N11
 .byte   W24
 .byte   N44 ,Cs3
 .byte   W48
 .byte   PEND 
@  #02 @026   ----------------------------------------
Label_01162AA4:
 .byte   N68 ,Cn3 ,v064
 .byte   W72
 .byte   N23 ,As2
 .byte   W24
 .byte   PEND 
@  #02 @027   ----------------------------------------
 .byte   N92 ,Fn2
 .byte   W96
@  #02 @028   ----------------------------------------
 .byte   PATT
  .word Label_01162A6E
@  #02 @029   ----------------------------------------
Label_01162AB4:
 .byte   N11 ,As2 ,v064
 .byte   W24
 .byte   N11
 .byte   W24
 .byte   N11
 .byte   W24
 .byte   N24 ,Ds3
 .byte   W24
 .byte   PEND 
@  #02 @030   ----------------------------------------
Label_01162AC0:
 .byte   N11 ,Ds3 ,v064
 .byte   W24
 .byte   N11
 .byte   W24
 .byte   N11
 .byte   W24
 .byte   N11
 .byte   W24
 .byte   PEND 
@  #02 @031   ----------------------------------------
 .byte   PATT
  .word Label_01162AC0
@  #02 @032   ----------------------------------------
 .byte   N92 ,Cn3 ,v064
 .byte   W96
@  #02 @033   ----------------------------------------
 .byte   N96 ,As2
 .byte   W96
@  #02 @034   ----------------------------------------
 .byte   Cn3
 .byte   W96
@  #02 @035   ----------------------------------------
 .byte   Cs3
 .byte   W96
@  #02 @036   ----------------------------------------
 .byte   PATT
  .word Label_01162A6E
@  #02 @037   ----------------------------------------
 .byte   PATT
  .word Label_01162A76
@  #02 @038   ----------------------------------------
 .byte   PATT
  .word Label_01162A82
@  #02 @039   ----------------------------------------
 .byte   PATT
  .word Label_01162A82
@  #02 @040   ----------------------------------------
Label_01162AEF:
 .byte   W48
 .byte   TIE ,Cn3 ,v064
 .byte   W48
 .byte   PEND 
@  #02 @041   ----------------------------------------
 .byte   W92
 .byte   W03
 .byte   EOT
 .byte   W01
@  #02 @042   ----------------------------------------
Label_01162AF9:
 .byte   N11 ,Cn3 ,v064
 .byte   W24
 .byte   N11
 .byte   W24
 .byte   N11
 .byte   W24
 .byte   N11
 .byte   W24
 .byte   PEND 
@  #02 @043   ----------------------------------------
Label_01162B04:
 .byte   N11 ,As2 ,v064
 .byte   W24
 .byte   N11
 .byte   W24
 .byte   N11
 .byte   W24
 .byte   N11
 .byte   W24
 .byte   PEND 
@  #02 @044   ----------------------------------------
 .byte   N92 ,Cs3
 .byte   W96
@  #02 @045   ----------------------------------------
 .byte   N96 ,Fn3
 .byte   W96
@  #02 @046   ----------------------------------------
 .byte   Ds3
 .byte   W96
@  #02 @047   ----------------------------------------
 .byte   Fn3
 .byte   W96
@  #02 @048   ----------------------------------------
Label_01162B19:
 .byte   N23 ,Ds3 ,v064
 .byte   W24
 .byte   TIE ,Cs3
 .byte   W72
 .byte   PEND 
@  #02 @049   ----------------------------------------
 .byte   W96
@  #02 @050   ----------------------------------------
 .byte   W96
@  #02 @051   ----------------------------------------
 .byte   W92
 .byte   W03
 .byte   EOT
 .byte   W01
@  #02 @052   ----------------------------------------
 .byte   N68 ,Cn3
 .byte   W96
@  #02 @053   ----------------------------------------
 .byte   N96 ,Cs3
 .byte   W96
@  #02 @054   ----------------------------------------
 .byte   Ds3
 .byte   W96
@  #02 @055   ----------------------------------------
 .byte   Fn3
 .byte   W96
@  #02 @056   ----------------------------------------
 .byte   Cn3
 .byte   W96
@  #02 @057   ----------------------------------------
 .byte   Cs3
 .byte   W96
@  #02 @058   ----------------------------------------
 .byte   Ds3
 .byte   W96
@  #02 @059   ----------------------------------------
 .byte   Fn3
 .byte   W96
@  #02 @060   ----------------------------------------
 .byte   Cn3
 .byte   W96
@  #02 @061   ----------------------------------------
 .byte   Cs3
 .byte   W96
@  #02 @062   ----------------------------------------
 .byte   Ds3
 .byte   W96
@  #02 @063   ----------------------------------------
 .byte   Fn3
 .byte   W96
@  #02 @064   ----------------------------------------
 .byte   N68
 .byte   W96
@  #02 @065   ----------------------------------------
 .byte   N96 ,As3
 .byte   W96
@  #02 @066   ----------------------------------------
 .byte   Ds3
 .byte   W96
@  #02 @067   ----------------------------------------
 .byte   Gs3
 .byte   W96
@  #02 @068   ----------------------------------------
 .byte   As3
 .byte   W96
@  #02 @069   ----------------------------------------
 .byte   Gs3
 .byte   W96
@  #02 @070   ----------------------------------------
 .byte   As3
 .byte   W96
@  #02 @071   ----------------------------------------
 .byte   Bn3
 .byte   W96
@  #02 @072   ----------------------------------------
 .byte   W96
@  #02 @073   ----------------------------------------
 .byte   W96
@  #02 @074   ----------------------------------------
 .byte   W96
@  #02 @075   ----------------------------------------
 .byte   W96
@  #02 @076   ----------------------------------------
 .byte   W48
 .byte   N44 ,As2
 .byte   W48
@  #02 @077   ----------------------------------------
Label_01162B5A:
 .byte   N68 ,Cn3 ,v064
 .byte   W72
 .byte   TIE ,Cs3
 .byte   W24
 .byte   PEND 
@  #02 @078   ----------------------------------------
 .byte   W92
 .byte   W03
 .byte   EOT
 .byte   W01
@  #02 @079   ----------------------------------------
 .byte   N92 ,Cn3
 .byte   W96
@  #02 @080   ----------------------------------------
 .byte   W48
 .byte   N44 ,Fn3
 .byte   W48
@  #02 @081   ----------------------------------------
Label_01162B6D:
 .byte   N32 ,Ds3 ,v064
 .byte   W36
 .byte   N36 ,Cs3
 .byte   W36
 .byte   TIE ,Cn3
 .byte   W24
 .byte   PEND 
@  #02 @082   ----------------------------------------
 .byte   W96
@  #02 @083   ----------------------------------------
 .byte   W92
 .byte   W03
 .byte   EOT
 .byte   W01
@  #02 @084   ----------------------------------------
 .byte   W48
 .byte   N44 ,Gs2
 .byte   W48
@  #02 @085   ----------------------------------------
 .byte   PATT
  .word Label_01162B5A
@  #02 @086   ----------------------------------------
 .byte   W92
 .byte   W03
 .byte   EOT
 .byte   Cs3
 .byte   N01 ,Cs3 ,v064
 .byte   W01
@  #02 @087   ----------------------------------------
Label_01162B8E:
 .byte   N44 ,Ds3 ,v064
 .byte   W48
 .byte   TIE ,Fn3
 .byte   W48
 .byte   PEND 
@  #02 @088   ----------------------------------------
 .byte   W92
 .byte   W03
 .byte   EOT
 .byte   W01
@  #02 @089   ----------------------------------------
 .byte   PATT
  .word Label_01162B6D
@  #02 @090   ----------------------------------------
 .byte   W92
 .byte   W03
 .byte   EOT
 .byte   Cn3
 .byte   N01 ,Cn3 ,v064
 .byte   W01
@  #02 @091   ----------------------------------------
 .byte   N92
 .byte   N92 ,Ds3
 .byte   W96
@  #02 @092   ----------------------------------------
 .byte   GOTO
  .word Label_01162A02
@  #02 @093   ----------------------------------------
 .byte   N23 ,Fn3 ,v096
 .byte   N23 ,As3
 .byte   W96
@  #02 @094   ----------------------------------------
 .byte   PATT
  .word Label_01162A0E
@  #02 @095   ----------------------------------------
 .byte   PATT
  .word Label_01162A16
@  #02 @096   ----------------------------------------
 .byte   PATT
  .word Label_01162A1E
@  #02 @097   ----------------------------------------
 .byte   N23 ,Fn3 ,v096
 .byte   W96
@  #02 @098   ----------------------------------------
 .byte   PATT
  .word Label_01162A29
@  #02 @099   ----------------------------------------
 .byte   PATT
  .word Label_01162A31
@  #02 @100   ----------------------------------------
 .byte   PATT
  .word Label_01162A39
@  #02 @101   ----------------------------------------
 .byte   N23 ,Fn3 ,v096
 .byte   N23 ,As3
 .byte   W96
@  #02 @102   ----------------------------------------
 .byte   PATT
  .word Label_01162A0E
@  #02 @103   ----------------------------------------
 .byte   PATT
  .word Label_01162A16
@  #02 @104   ----------------------------------------
 .byte   PATT
  .word Label_01162A1E
@  #02 @105   ----------------------------------------
 .byte   N23 ,Fn3 ,v096
 .byte   W96
@  #02 @106   ----------------------------------------
 .byte   PATT
  .word Label_01162A29
@  #02 @107   ----------------------------------------
 .byte   PATT
  .word Label_01162A31
@  #02 @108   ----------------------------------------
 .byte   PATT
  .word Label_01162A39
@  #02 @109   ----------------------------------------
 .byte   W96
@  #02 @110   ----------------------------------------
 .byte   W96
@  #02 @111   ----------------------------------------
 .byte   W96
@  #02 @112   ----------------------------------------
 .byte   W96
@  #02 @113   ----------------------------------------
 .byte   PATT
  .word Label_01162A6E
@  #02 @114   ----------------------------------------
 .byte   PATT
  .word Label_01162A76
@  #02 @115   ----------------------------------------
 .byte   PATT
  .word Label_01162A82
@  #02 @116   ----------------------------------------
 .byte   PATT
  .word Label_01162A82
@  #02 @117   ----------------------------------------
 .byte   PATT
  .word Label_01162A92
@  #02 @118   ----------------------------------------
 .byte   PATT
  .word Label_01162A9A
@  #02 @119   ----------------------------------------
 .byte   PATT
  .word Label_01162AA4
@  #02 @120   ----------------------------------------
 .byte   N92 ,Fn2 ,v064
 .byte   W96
@  #02 @121   ----------------------------------------
 .byte   PATT
  .word Label_01162A6E
@  #02 @122   ----------------------------------------
 .byte   PATT
  .word Label_01162AB4
@  #02 @123   ----------------------------------------
 .byte   PATT
  .word Label_01162AC0
@  #02 @124   ----------------------------------------
 .byte   PATT
  .word Label_01162AC0
@  #02 @125   ----------------------------------------
 .byte   N92 ,Cn3 ,v064
 .byte   W96
@  #02 @126   ----------------------------------------
 .byte   N96 ,As2
 .byte   W96
@  #02 @127   ----------------------------------------
 .byte   Cn3
 .byte   W96
@  #02 @128   ----------------------------------------
 .byte   Cs3
 .byte   W96
@  #02 @129   ----------------------------------------
 .byte   PATT
  .word Label_01162A6E
@  #02 @130   ----------------------------------------
 .byte   PATT
  .word Label_01162A76
@  #02 @131   ----------------------------------------
 .byte   PATT
  .word Label_01162A82
@  #02 @132   ----------------------------------------
 .byte   PATT
  .word Label_01162A82
@  #02 @133   ----------------------------------------
 .byte   PATT
  .word Label_01162AEF
@  #02 @134   ----------------------------------------
 .byte   W92
 .byte   W03
 .byte   EOT
 .byte   Cn3
 .byte   N01 ,Cn3 ,v064
 .byte   W01
@  #02 @135   ----------------------------------------
 .byte   PATT
  .word Label_01162AF9
@  #02 @136   ----------------------------------------
 .byte   PATT
  .word Label_01162B04
@  #02 @137   ----------------------------------------
 .byte   N92 ,Cs3 ,v064
 .byte   W96
@  #02 @138   ----------------------------------------
 .byte   N96 ,Fn3
 .byte   W96
@  #02 @139   ----------------------------------------
 .byte   Ds3
 .byte   W96
@  #02 @140   ----------------------------------------
 .byte   Fn3
 .byte   W96
@  #02 @141   ----------------------------------------
 .byte   PATT
  .word Label_01162B19
@  #02 @142   ----------------------------------------
 .byte   W96
@  #02 @143   ----------------------------------------
 .byte   W96
@  #02 @144   ----------------------------------------
 .byte   W92
 .byte   W03
 .byte   EOT
 .byte   Cs3
 .byte   N01 ,Cs3 ,v064
 .byte   W01
@  #02 @145   ----------------------------------------
 .byte   N68 ,Cn3
 .byte   W96
@  #02 @146   ----------------------------------------
 .byte   N96 ,Cs3
 .byte   W96
@  #02 @147   ----------------------------------------
 .byte   Ds3
 .byte   W96
@  #02 @148   ----------------------------------------
 .byte   Fn3
 .byte   W96
@  #02 @149   ----------------------------------------
 .byte   Cn3
 .byte   W96
@  #02 @150   ----------------------------------------
 .byte   Cs3
 .byte   W96
@  #02 @151   ----------------------------------------
 .byte   Ds3
 .byte   W96
@  #02 @152   ----------------------------------------
 .byte   Fn3
 .byte   W96
@  #02 @153   ----------------------------------------
 .byte   Cn3
 .byte   W96
@  #02 @154   ----------------------------------------
 .byte   Cs3
 .byte   W96
@  #02 @155   ----------------------------------------
 .byte   Ds3
 .byte   W96
@  #02 @156   ----------------------------------------
 .byte   Fn3
 .byte   W96
@  #02 @157   ----------------------------------------
 .byte   N68
 .byte   W96
@  #02 @158   ----------------------------------------
 .byte   N96 ,As3
 .byte   W96
@  #02 @159   ----------------------------------------
 .byte   Ds3
 .byte   W96
@  #02 @160   ----------------------------------------
 .byte   Gs3
 .byte   W96
@  #02 @161   ----------------------------------------
 .byte   As3
 .byte   W96
@  #02 @162   ----------------------------------------
 .byte   Gs3
 .byte   W96
@  #02 @163   ----------------------------------------
 .byte   As3
 .byte   W96
@  #02 @164   ----------------------------------------
 .byte   Bn3
 .byte   W96
@  #02 @165   ----------------------------------------
 .byte   W96
@  #02 @166   ----------------------------------------
 .byte   W96
@  #02 @167   ----------------------------------------
 .byte   W96
@  #02 @168   ----------------------------------------
 .byte   W96
@  #02 @169   ----------------------------------------
 .byte   W48
 .byte   N44 ,As2
 .byte   W48
@  #02 @170   ----------------------------------------
 .byte   PATT
  .word Label_01162B5A
@  #02 @171   ----------------------------------------
 .byte   W92
 .byte   W03
 .byte   EOT
 .byte   Cs3
 .byte   N01 ,Cs3 ,v064
 .byte   W01
@  #02 @172   ----------------------------------------
 .byte   N92 ,Cn3
 .byte   W96
@  #02 @173   ----------------------------------------
 .byte   W48
 .byte   N44 ,Fn3
 .byte   W48
@  #02 @174   ----------------------------------------
 .byte   PATT
  .word Label_01162B6D
@  #02 @175   ----------------------------------------
 .byte   W96
@  #02 @176   ----------------------------------------
 .byte   W92
 .byte   W03
 .byte   EOT
 .byte   Cn3
 .byte   N01 ,Cn3 ,v064
 .byte   W01
@  #02 @177   ----------------------------------------
 .byte   W48
 .byte   N44 ,Gs2
 .byte   W48
@  #02 @178   ----------------------------------------
 .byte   PATT
  .word Label_01162B5A
@  #02 @179   ----------------------------------------
 .byte   W92
 .byte   W03
 .byte   EOT
 .byte   Cs3
 .byte   N01 ,Cs3 ,v064
 .byte   W01
@  #02 @180   ----------------------------------------
 .byte   PATT
  .word Label_01162B8E
@  #02 @181   ----------------------------------------
 .byte   W92
 .byte   W03
 .byte   EOT
 .byte   Fn3
 .byte   N01 ,Fn3 ,v064
 .byte   W01
@  #02 @182   ----------------------------------------
 .byte   PATT
  .word Label_01162B6D
@  #02 @183   ----------------------------------------
 .byte   W92
 .byte   W03
 .byte   EOT
 .byte   Cn3
 .byte   N01 ,Cn3 ,v064
 .byte   W01
@  #02 @184   ----------------------------------------
 .byte   N92
 .byte   N92 ,Ds3
 .byte   W96
 .byte   FINE

@**************** Track 3 (Midi-Chn.2) ****************@

.align 2, 0
song06_003:
@  #03 @000   ----------------------------------------
 .byte   KEYSH , song06_key+0
Label_0115F232:
 .byte   VOICE , 57
 .byte   VOL , 52*song06_mvl/mxv
 .byte   PAN , c_v+0
 .byte   W96
@  #03 @001   ----------------------------------------
 .byte   W96
@  #03 @002   ----------------------------------------
 .byte   W96
@  #03 @003   ----------------------------------------
 .byte   W96
@  #03 @004   ----------------------------------------
 .byte   W96
@  #03 @005   ----------------------------------------
 .byte   W96
@  #03 @006   ----------------------------------------
 .byte   W96
@  #03 @007   ----------------------------------------
 .byte   W96
@  #03 @008   ----------------------------------------
 .byte   W96
@  #03 @009   ----------------------------------------
 .byte   W96
@  #03 @010   ----------------------------------------
 .byte   W96
@  #03 @011   ----------------------------------------
 .byte   W96
@  #03 @012   ----------------------------------------
 .byte   W96
@  #03 @013   ----------------------------------------
 .byte   W96
@  #03 @014   ----------------------------------------
 .byte   W96
@  #03 @015   ----------------------------------------
 .byte   W96
@  #03 @016   ----------------------------------------
 .byte   W96
@  #03 @017   ----------------------------------------
 .byte   W96
@  #03 @018   ----------------------------------------
 .byte   W96
@  #03 @019   ----------------------------------------
 .byte   W96
@  #03 @020   ----------------------------------------
 .byte   W96
@  #03 @021   ----------------------------------------
 .byte   W96
@  #03 @022   ----------------------------------------
 .byte   W96
@  #03 @023   ----------------------------------------
 .byte   W96
@  #03 @024   ----------------------------------------
 .byte   W96
@  #03 @025   ----------------------------------------
 .byte   W48
 .byte   N44 ,Cs4 ,v080
 .byte   W48
@  #03 @026   ----------------------------------------
Label_0115F256:
 .byte   N68 ,Cn4 ,v080
 .byte   W72
 .byte   N23 ,As3
 .byte   W24
 .byte   PEND 
@  #03 @027   ----------------------------------------
 .byte   N92 ,Fn3
 .byte   W96
@  #03 @028   ----------------------------------------
 .byte   W96
@  #03 @029   ----------------------------------------
 .byte   W96
@  #03 @030   ----------------------------------------
 .byte   W96
@  #03 @031   ----------------------------------------
 .byte   W96
@  #03 @032   ----------------------------------------
 .byte   W96
@  #03 @033   ----------------------------------------
 .byte   W96
@  #03 @034   ----------------------------------------
 .byte   W96
@  #03 @035   ----------------------------------------
 .byte   W96
@  #03 @036   ----------------------------------------
Label_0115F269:
 .byte   N68 ,Gs4 ,v096
 .byte   W72
 .byte   N23 ,Fs4
 .byte   W24
 .byte   PEND 
@  #03 @037   ----------------------------------------
Label_0115F271:
 .byte   N23 ,Cn4 ,v096
 .byte   W24
 .byte   N24 ,Cs4
 .byte   W24
 .byte   N68 ,Fs4
 .byte   W48
 .byte   PEND 
@  #03 @038   ----------------------------------------
Label_0115F27C:
 .byte   W24
 .byte   N23 ,Fn4 ,v096
 .byte   W24
 .byte   N24 ,Ds4
 .byte   W24
 .byte   Cs4
 .byte   W24
 .byte   PEND 
@  #03 @039   ----------------------------------------
Label_0115F287:
 .byte   N23 ,Cn4 ,v096
 .byte   W48
 .byte   N44 ,Cs5
 .byte   W48
 .byte   PEND 
@  #03 @040   ----------------------------------------
Label_0115F28F:
 .byte   N68 ,Cn5 ,v096
 .byte   W72
 .byte   N23 ,As4
 .byte   W24
 .byte   PEND 
@  #03 @041   ----------------------------------------
Label_0115F297:
 .byte   N68 ,Fn4 ,v096
 .byte   W72
 .byte   N23 ,Cs4
 .byte   W24
 .byte   PEND 
@  #03 @042   ----------------------------------------
Label_0115F29F:
 .byte   N23 ,Ds4 ,v096
 .byte   W24
 .byte   TIE ,Fn4
 .byte   W72
 .byte   PEND 
@  #03 @043   ----------------------------------------
 .byte   W92
 .byte   W03
 .byte   EOT
 .byte   W01
@  #03 @044   ----------------------------------------
 .byte   N92 ,Cs4
 .byte   W96
@  #03 @045   ----------------------------------------
 .byte   N96 ,Fn4
 .byte   W96
@  #03 @046   ----------------------------------------
 .byte   Ds4
 .byte   W96
@  #03 @047   ----------------------------------------
 .byte   Cs5
 .byte   W96
@  #03 @048   ----------------------------------------
Label_0115F2B5:
 .byte   N23 ,Cn5 ,v096
 .byte   W24
 .byte   TIE ,As4
 .byte   W72
 .byte   PEND 
@  #03 @049   ----------------------------------------
 .byte   W96
@  #03 @050   ----------------------------------------
 .byte   W96
@  #03 @051   ----------------------------------------
 .byte   W92
 .byte   W03
 .byte   EOT
 .byte   W01
@  #03 @052   ----------------------------------------
 .byte   W96
@  #03 @053   ----------------------------------------
 .byte   W96
@  #03 @054   ----------------------------------------
 .byte   W96
@  #03 @055   ----------------------------------------
 .byte   W96
@  #03 @056   ----------------------------------------
 .byte   W96
@  #03 @057   ----------------------------------------
 .byte   W96
@  #03 @058   ----------------------------------------
 .byte   W96
@  #03 @059   ----------------------------------------
 .byte   W96
@  #03 @060   ----------------------------------------
 .byte   W96
@  #03 @061   ----------------------------------------
 .byte   W96
@  #03 @062   ----------------------------------------
 .byte   W96
@  #03 @063   ----------------------------------------
 .byte   W96
@  #03 @064   ----------------------------------------
 .byte   W96
@  #03 @065   ----------------------------------------
 .byte   W96
@  #03 @066   ----------------------------------------
 .byte   W96
@  #03 @067   ----------------------------------------
Label_0115F2D2:
 .byte   W48
 .byte   N23 ,Ds4 ,v080
 .byte   W24
 .byte   N03 ,Fn4 ,v088
 .byte   W24
 .byte   PEND 
@  #03 @068   ----------------------------------------
 .byte   TIE ,Fs4 ,v096
 .byte   W96
@  #03 @069   ----------------------------------------
 .byte   W23
 .byte   EOT
 .byte   W01
 .byte   N23 ,Fn4
 .byte   W24
 .byte   N24 ,Ds4
 .byte   W24
 .byte   Cs4
 .byte   W24
@  #03 @070   ----------------------------------------
 .byte   TIE ,Ds4
 .byte   W96
@  #03 @071   ----------------------------------------
 .byte   W23
 .byte   EOT
 .byte   W01
 .byte   N23 ,Fn4
 .byte   W24
 .byte   N24 ,Fs4
 .byte   W24
 .byte   Gs4
 .byte   W24
@  #03 @072   ----------------------------------------
 .byte   N92 ,Fn4
 .byte   W96
@  #03 @073   ----------------------------------------
 .byte   N96 ,Ds4
 .byte   W96
@  #03 @074   ----------------------------------------
 .byte   Cn4
 .byte   W96
@  #03 @075   ----------------------------------------
Label_0115F301:
 .byte   N23 ,Cn4 ,v096
 .byte   W24
 .byte   N24 ,Cs4
 .byte   W24
 .byte   Fn4
 .byte   W24
 .byte   Gs4
 .byte   W24
 .byte   PEND 
@  #03 @076   ----------------------------------------
Label_0115F30D:
 .byte   N68 ,Cn5 ,v096
 .byte   W72
 .byte   N23 ,Cs5
 .byte   W24
 .byte   PEND 
@  #03 @077   ----------------------------------------
 .byte   TIE ,As4
 .byte   W96
@  #03 @078   ----------------------------------------
 .byte   W44
 .byte   W03
 .byte   EOT
 .byte   W01
 .byte   N23 ,Fn4
 .byte   W24
 .byte   N24 ,Fn5
 .byte   W24
@  #03 @079   ----------------------------------------
Label_0115F322:
 .byte   N11 ,Ds5 ,v096
 .byte   W12
 .byte   N12 ,Cs5
 .byte   W12
 .byte   N44 ,Cn5
 .byte   W48
 .byte   N23 ,Gs4
 .byte   W24
 .byte   PEND 
@  #03 @080   ----------------------------------------
Label_0115F330:
 .byte   N32 ,Cn5 ,v096
 .byte   W36
 .byte   N36 ,Cs5
 .byte   W36
 .byte   TIE ,As4
 .byte   W24
 .byte   PEND 
@  #03 @081   ----------------------------------------
 .byte   W96
@  #03 @082   ----------------------------------------
 .byte   W92
 .byte   W03
 .byte   EOT
 .byte   W01
@  #03 @083   ----------------------------------------
 .byte   PATT
  .word Label_0115F301
@  #03 @084   ----------------------------------------
 .byte   PATT
  .word Label_0115F30D
@  #03 @085   ----------------------------------------
 .byte   TIE ,As4 ,v096
 .byte   W96
@  #03 @086   ----------------------------------------
 .byte   W44
 .byte   W03
 .byte   EOT
 .byte   W01
 .byte   N23 ,Fn4
 .byte   W24
 .byte   N24 ,Fn5
 .byte   W24
@  #03 @087   ----------------------------------------
 .byte   PATT
  .word Label_0115F322
@  #03 @088   ----------------------------------------
Label_0115F35D:
 .byte   N32 ,Cn5 ,v096
 .byte   W36
 .byte   N36 ,Cs5
 .byte   W36
 .byte   TIE ,Gs4
 .byte   W24
 .byte   PEND 
@  #03 @089   ----------------------------------------
 .byte   W96
@  #03 @090   ----------------------------------------
 .byte   W96
@  #03 @091   ----------------------------------------
 .byte   W92
 .byte   W03
 .byte   EOT
 .byte   W01
@  #03 @092   ----------------------------------------
 .byte   GOTO
  .word Label_0115F232
@  #03 @093   ----------------------------------------
 .byte   W96
@  #03 @094   ----------------------------------------
 .byte   W96
@  #03 @095   ----------------------------------------
 .byte   W96
@  #03 @096   ----------------------------------------
 .byte   W96
@  #03 @097   ----------------------------------------
 .byte   W96
@  #03 @098   ----------------------------------------
 .byte   W96
@  #03 @099   ----------------------------------------
 .byte   W96
@  #03 @100   ----------------------------------------
 .byte   W96
@  #03 @101   ----------------------------------------
 .byte   W96
@  #03 @102   ----------------------------------------
 .byte   W96
@  #03 @103   ----------------------------------------
 .byte   W96
@  #03 @104   ----------------------------------------
 .byte   W96
@  #03 @105   ----------------------------------------
 .byte   W96
@  #03 @106   ----------------------------------------
 .byte   W96
@  #03 @107   ----------------------------------------
 .byte   W96
@  #03 @108   ----------------------------------------
 .byte   W96
@  #03 @109   ----------------------------------------
 .byte   W96
@  #03 @110   ----------------------------------------
 .byte   W96
@  #03 @111   ----------------------------------------
 .byte   W96
@  #03 @112   ----------------------------------------
 .byte   W96
@  #03 @113   ----------------------------------------
 .byte   W96
@  #03 @114   ----------------------------------------
 .byte   W96
@  #03 @115   ----------------------------------------
 .byte   W96
@  #03 @116   ----------------------------------------
 .byte   W96
@  #03 @117   ----------------------------------------
 .byte   W96
@  #03 @118   ----------------------------------------
 .byte   W48
 .byte   N44 ,Cs4 ,v080
 .byte   W48
@  #03 @119   ----------------------------------------
 .byte   PATT
  .word Label_0115F256
@  #03 @120   ----------------------------------------
 .byte   N92 ,Fn3 ,v080
 .byte   W96
@  #03 @121   ----------------------------------------
 .byte   W96
@  #03 @122   ----------------------------------------
 .byte   W96
@  #03 @123   ----------------------------------------
 .byte   W96
@  #03 @124   ----------------------------------------
 .byte   W96
@  #03 @125   ----------------------------------------
 .byte   W96
@  #03 @126   ----------------------------------------
 .byte   W96
@  #03 @127   ----------------------------------------
 .byte   W96
@  #03 @128   ----------------------------------------
 .byte   W96
@  #03 @129   ----------------------------------------
 .byte   PATT
  .word Label_0115F269
@  #03 @130   ----------------------------------------
 .byte   PATT
  .word Label_0115F271
@  #03 @131   ----------------------------------------
 .byte   PATT
  .word Label_0115F27C
@  #03 @132   ----------------------------------------
 .byte   PATT
  .word Label_0115F287
@  #03 @133   ----------------------------------------
 .byte   PATT
  .word Label_0115F28F
@  #03 @134   ----------------------------------------
 .byte   PATT
  .word Label_0115F297
@  #03 @135   ----------------------------------------
 .byte   PATT
  .word Label_0115F29F
@  #03 @136   ----------------------------------------
 .byte   W92
 .byte   W03
 .byte   EOT
 .byte   Fn4
 .byte   N01 ,Fn4 ,v096
 .byte   W01
@  #03 @137   ----------------------------------------
 .byte   N92 ,Cs4
 .byte   W96
@  #03 @138   ----------------------------------------
 .byte   N96 ,Fn4
 .byte   W96
@  #03 @139   ----------------------------------------
 .byte   Ds4
 .byte   W96
@  #03 @140   ----------------------------------------
 .byte   Cs5
 .byte   W96
@  #03 @141   ----------------------------------------
 .byte   PATT
  .word Label_0115F2B5
@  #03 @142   ----------------------------------------
 .byte   W96
@  #03 @143   ----------------------------------------
 .byte   W96
@  #03 @144   ----------------------------------------
 .byte   W92
 .byte   W03
 .byte   EOT
 .byte   As4
 .byte   N01 ,As4 ,v096
 .byte   W01
@  #03 @145   ----------------------------------------
 .byte   W96
@  #03 @146   ----------------------------------------
 .byte   W96
@  #03 @147   ----------------------------------------
 .byte   W96
@  #03 @148   ----------------------------------------
 .byte   W96
@  #03 @149   ----------------------------------------
 .byte   W96
@  #03 @150   ----------------------------------------
 .byte   W96
@  #03 @151   ----------------------------------------
 .byte   W96
@  #03 @152   ----------------------------------------
 .byte   W96
@  #03 @153   ----------------------------------------
 .byte   W96
@  #03 @154   ----------------------------------------
 .byte   W96
@  #03 @155   ----------------------------------------
 .byte   W96
@  #03 @156   ----------------------------------------
 .byte   W96
@  #03 @157   ----------------------------------------
 .byte   W96
@  #03 @158   ----------------------------------------
 .byte   W96
@  #03 @159   ----------------------------------------
 .byte   W96
@  #03 @160   ----------------------------------------
 .byte   PATT
  .word Label_0115F2D2
@  #03 @161   ----------------------------------------
 .byte   TIE ,Fs4 ,v096
 .byte   W96
@  #03 @162   ----------------------------------------
 .byte   W23
 .byte   EOT
 .byte   W01
 .byte   N23 ,Fn4
 .byte   W24
 .byte   N24 ,Ds4
 .byte   W24
 .byte   Cs4
 .byte   W24
@  #03 @163   ----------------------------------------
 .byte   TIE ,Ds4
 .byte   W96
@  #03 @164   ----------------------------------------
 .byte   W23
 .byte   EOT
 .byte   W01
 .byte   N23 ,Fn4
 .byte   W24
 .byte   N24 ,Fs4
 .byte   W24
 .byte   Gs4
 .byte   W24
@  #03 @165   ----------------------------------------
 .byte   N92 ,Fn4
 .byte   W96
@  #03 @166   ----------------------------------------
 .byte   N96 ,Ds4
 .byte   W96
@  #03 @167   ----------------------------------------
 .byte   Cn4
 .byte   W96
@  #03 @168   ----------------------------------------
 .byte   PATT
  .word Label_0115F301
@  #03 @169   ----------------------------------------
 .byte   PATT
  .word Label_0115F30D
@  #03 @170   ----------------------------------------
 .byte   TIE ,As4 ,v096
 .byte   W96
@  #03 @171   ----------------------------------------
 .byte   W44
 .byte   W03
 .byte   EOT
 .byte   W01
 .byte   N23 ,Fn4
 .byte   W24
 .byte   N24 ,Fn5
 .byte   W24
@  #03 @172   ----------------------------------------
 .byte   PATT
  .word Label_0115F322
@  #03 @173   ----------------------------------------
 .byte   PATT
  .word Label_0115F330
@  #03 @174   ----------------------------------------
 .byte   W96
@  #03 @175   ----------------------------------------
 .byte   W92
 .byte   W03
 .byte   EOT
 .byte   As4
 .byte   N01 ,As4 ,v096
 .byte   W01
@  #03 @176   ----------------------------------------
 .byte   PATT
  .word Label_0115F301
@  #03 @177   ----------------------------------------
 .byte   PATT
  .word Label_0115F30D
@  #03 @178   ----------------------------------------
 .byte   TIE ,As4 ,v096
 .byte   W96
@  #03 @179   ----------------------------------------
 .byte   W44
 .byte   W03
 .byte   EOT
 .byte   W01
 .byte   N23 ,Fn4
 .byte   W24
 .byte   N24 ,Fn5
 .byte   W24
@  #03 @180   ----------------------------------------
 .byte   PATT
  .word Label_0115F322
@  #03 @181   ----------------------------------------
 .byte   PATT
  .word Label_0115F35D
@  #03 @182   ----------------------------------------
 .byte   W96
@  #03 @183   ----------------------------------------
 .byte   W96
@  #03 @184   ----------------------------------------
 .byte   W92
 .byte   W03
 .byte   EOT
 .byte   Gs4
 .byte   N01 ,Gs4 ,v096
 .byte   W01
 .byte   FINE

@**************** Track 4 (Midi-Chn.3) ****************@

.align 2, 0
song06_004:
@  #04 @000   ----------------------------------------
 .byte   KEYSH , song06_key+0
Label_01162D22:
 .byte   VOICE , 59
 .byte   VOL , 52*song06_mvl/mxv
 .byte   PAN , c_v+0
 .byte   N23 ,As1 ,v096
 .byte   W96
@  #04 @001   ----------------------------------------
 .byte   W72
 .byte   N23
 .byte   W24
@  #04 @002   ----------------------------------------
 .byte   W24
 .byte   N23
 .byte   W72
@  #04 @003   ----------------------------------------
 .byte   W72
 .byte   N23
 .byte   W24
@  #04 @004   ----------------------------------------
 .byte   N96 ,Fs1
 .byte   W96
@  #04 @005   ----------------------------------------
 .byte   W72
 .byte   N24 ,Ds1
 .byte   W24
@  #04 @006   ----------------------------------------
 .byte   W24
 .byte   N23
 .byte   W72
@  #04 @007   ----------------------------------------
Label_01162D3F:
 .byte   N23 ,Fn1 ,v096
 .byte   W48
 .byte   N48 ,An1
 .byte   W48
 .byte   PEND 
@  #04 @008   ----------------------------------------
 .byte   N96 ,As1
 .byte   W96
@  #04 @009   ----------------------------------------
 .byte   W72
 .byte   N23
 .byte   W24
@  #04 @010   ----------------------------------------
 .byte   W24
 .byte   N23
 .byte   W72
@  #04 @011   ----------------------------------------
 .byte   W72
 .byte   N23
 .byte   W24
@  #04 @012   ----------------------------------------
 .byte   N96 ,Fs1
 .byte   W96
@  #04 @013   ----------------------------------------
 .byte   W72
 .byte   N24 ,Ds1
 .byte   W24
@  #04 @014   ----------------------------------------
 .byte   W24
 .byte   N23
 .byte   W72
@  #04 @015   ----------------------------------------
 .byte   PATT
  .word Label_01162D3F
@  #04 @016   ----------------------------------------
 .byte   W96
@  #04 @017   ----------------------------------------
 .byte   W96
@  #04 @018   ----------------------------------------
 .byte   W96
@  #04 @019   ----------------------------------------
 .byte   W96
@  #04 @020   ----------------------------------------
Label_01162D66:
 .byte   W48
 .byte   TIE ,Fs1 ,v080
 .byte   W48
 .byte   PEND 
@  #04 @021   ----------------------------------------
 .byte   W68
 .byte   W03
 .byte   EOT
 .byte   W01
 .byte   TIE ,An1
 .byte   W24
@  #04 @022   ----------------------------------------
 .byte   W96
@  #04 @023   ----------------------------------------
 .byte   W92
 .byte   W03
 .byte   EOT
 .byte   W01
@  #04 @024   ----------------------------------------
 .byte   TIE ,As1
 .byte   W96
@  #04 @025   ----------------------------------------
 .byte   W68
 .byte   W03
 .byte   EOT
 .byte   W01
 .byte   TIE ,Gn1
 .byte   W24
@  #04 @026   ----------------------------------------
 .byte   W96
@  #04 @027   ----------------------------------------
 .byte   W92
 .byte   W03
 .byte   EOT
 .byte   W01
@  #04 @028   ----------------------------------------
 .byte   PATT
  .word Label_01162D66
@  #04 @029   ----------------------------------------
 .byte   W68
 .byte   W03
 .byte   EOT
 .byte   Fs1
 .byte   N01 ,Fs1 ,v080
 .byte   W01
 .byte   TIE ,An1
 .byte   W24
@  #04 @030   ----------------------------------------
 .byte   W96
@  #04 @031   ----------------------------------------
 .byte   W92
 .byte   W03
 .byte   EOT
 .byte   W01
@  #04 @032   ----------------------------------------
 .byte   TIE ,As1
 .byte   W96
@  #04 @033   ----------------------------------------
 .byte   W96
@  #04 @034   ----------------------------------------
 .byte   W96
@  #04 @035   ----------------------------------------
 .byte   W92
 .byte   W03
 .byte   EOT
 .byte   W01
@  #04 @036   ----------------------------------------
 .byte   PATT
  .word Label_01162D66
@  #04 @037   ----------------------------------------
 .byte   W68
 .byte   W03
 .byte   EOT
 .byte   Fs1
 .byte   N01 ,Fs1 ,v080
 .byte   W01
 .byte   TIE ,An1
 .byte   W24
@  #04 @038   ----------------------------------------
 .byte   W96
@  #04 @039   ----------------------------------------
 .byte   W92
 .byte   W03
 .byte   EOT
 .byte   W01
@  #04 @040   ----------------------------------------
 .byte   TIE ,As1
 .byte   W96
@  #04 @041   ----------------------------------------
 .byte   W68
 .byte   W03
 .byte   EOT
 .byte   W01
 .byte   TIE ,Gn1
 .byte   W24
@  #04 @042   ----------------------------------------
 .byte   W96
@  #04 @043   ----------------------------------------
 .byte   W92
 .byte   W03
 .byte   EOT
 .byte   W01
@  #04 @044   ----------------------------------------
Label_01162DC9:
 .byte   W48
 .byte   TIE ,Ds0 ,v080
 .byte   W48
 .byte   PEND 
@  #04 @045   ----------------------------------------
 .byte   W68
 .byte   W03
 .byte   EOT
 .byte   W01
 .byte   TIE ,Fn0
 .byte   W24
@  #04 @046   ----------------------------------------
 .byte   W92
 .byte   W03
 .byte   EOT
 .byte   W01
@  #04 @047   ----------------------------------------
 .byte   N92 ,An0
 .byte   W96
@  #04 @048   ----------------------------------------
 .byte   TIE ,As0
 .byte   W96
@  #04 @049   ----------------------------------------
 .byte   W96
@  #04 @050   ----------------------------------------
 .byte   W96
@  #04 @051   ----------------------------------------
 .byte   W92
 .byte   W03
 .byte   EOT
 .byte   W01
@  #04 @052   ----------------------------------------
 .byte   W96
@  #04 @053   ----------------------------------------
 .byte   W96
@  #04 @054   ----------------------------------------
 .byte   W96
@  #04 @055   ----------------------------------------
 .byte   W96
@  #04 @056   ----------------------------------------
 .byte   W96
@  #04 @057   ----------------------------------------
 .byte   W96
@  #04 @058   ----------------------------------------
 .byte   W96
@  #04 @059   ----------------------------------------
 .byte   W96
@  #04 @060   ----------------------------------------
 .byte   W96
@  #04 @061   ----------------------------------------
 .byte   W96
@  #04 @062   ----------------------------------------
 .byte   W96
@  #04 @063   ----------------------------------------
 .byte   W96
@  #04 @064   ----------------------------------------
 .byte   W96
@  #04 @065   ----------------------------------------
 .byte   W96
@  #04 @066   ----------------------------------------
 .byte   W96
@  #04 @067   ----------------------------------------
 .byte   W96
@  #04 @068   ----------------------------------------
 .byte   W96
@  #04 @069   ----------------------------------------
 .byte   W96
@  #04 @070   ----------------------------------------
 .byte   W96
@  #04 @071   ----------------------------------------
 .byte   W96
@  #04 @072   ----------------------------------------
 .byte   W96
@  #04 @073   ----------------------------------------
 .byte   W96
@  #04 @074   ----------------------------------------
 .byte   W96
@  #04 @075   ----------------------------------------
 .byte   W96
@  #04 @076   ----------------------------------------
 .byte   W48
 .byte   N44 ,Fs0
 .byte   W48
@  #04 @077   ----------------------------------------
Label_01162E02:
 .byte   N68 ,Gs0 ,v080
 .byte   W72
 .byte   TIE ,As0
 .byte   W24
 .byte   PEND 
@  #04 @078   ----------------------------------------
 .byte   W96
@  #04 @079   ----------------------------------------
 .byte   W92
 .byte   W03
 .byte   EOT
 .byte   W01
@  #04 @080   ----------------------------------------
 .byte   W48
 .byte   N44 ,Ds0
 .byte   W48
@  #04 @081   ----------------------------------------
Label_01162E13:
 .byte   N68 ,Fn0 ,v080
 .byte   W72
 .byte   TIE ,As0
 .byte   W24
 .byte   PEND 
@  #04 @082   ----------------------------------------
 .byte   W96
@  #04 @083   ----------------------------------------
 .byte   W92
 .byte   W03
 .byte   EOT
 .byte   W01
@  #04 @084   ----------------------------------------
 .byte   W48
 .byte   N44 ,Fs0
 .byte   W48
@  #04 @085   ----------------------------------------
 .byte   PATT
  .word Label_01162E02
@  #04 @086   ----------------------------------------
 .byte   W96
@  #04 @087   ----------------------------------------
 .byte   W92
 .byte   W03
 .byte   EOT
 .byte   As0
 .byte   N01 ,As0 ,v080
 .byte   W01
@  #04 @088   ----------------------------------------
 .byte   W48
 .byte   N44 ,Ds0
 .byte   W48
@  #04 @089   ----------------------------------------
 .byte   PATT
  .word Label_01162E13
@  #04 @090   ----------------------------------------
 .byte   W96
@  #04 @091   ----------------------------------------
 .byte   W92
 .byte   W03
 .byte   EOT
 .byte   As0
 .byte   N01 ,As0 ,v080
 .byte   W01
@  #04 @092   ----------------------------------------
 .byte   GOTO
  .word Label_01162D22
@  #04 @093   ----------------------------------------
 .byte   N23 ,As1 ,v096
 .byte   W96
@  #04 @094   ----------------------------------------
 .byte   W72
 .byte   N23
 .byte   W24
@  #04 @095   ----------------------------------------
 .byte   W24
 .byte   N23
 .byte   W72
@  #04 @096   ----------------------------------------
 .byte   W72
 .byte   N23
 .byte   W24
@  #04 @097   ----------------------------------------
 .byte   N96 ,Fs1
 .byte   W96
@  #04 @098   ----------------------------------------
 .byte   W72
 .byte   N24 ,Ds1
 .byte   W24
@  #04 @099   ----------------------------------------
 .byte   W24
 .byte   N23
 .byte   W72
@  #04 @100   ----------------------------------------
 .byte   PATT
  .word Label_01162D3F
@  #04 @101   ----------------------------------------
 .byte   N23 ,As1 ,v096
 .byte   W96
@  #04 @102   ----------------------------------------
 .byte   W72
 .byte   N23
 .byte   W24
@  #04 @103   ----------------------------------------
 .byte   W24
 .byte   N23
 .byte   W72
@  #04 @104   ----------------------------------------
 .byte   W72
 .byte   N23
 .byte   W24
@  #04 @105   ----------------------------------------
 .byte   N96 ,Fs1
 .byte   W96
@  #04 @106   ----------------------------------------
 .byte   W72
 .byte   N24 ,Ds1
 .byte   W24
@  #04 @107   ----------------------------------------
 .byte   W24
 .byte   N23
 .byte   W72
@  #04 @108   ----------------------------------------
 .byte   PATT
  .word Label_01162D3F
@  #04 @109   ----------------------------------------
 .byte   W96
@  #04 @110   ----------------------------------------
 .byte   W96
@  #04 @111   ----------------------------------------
 .byte   W96
@  #04 @112   ----------------------------------------
 .byte   W96
@  #04 @113   ----------------------------------------
 .byte   PATT
  .word Label_01162D66
@  #04 @114   ----------------------------------------
 .byte   W68
 .byte   W03
 .byte   EOT
 .byte   Fs1
 .byte   N01 ,Fs1 ,v080
 .byte   W01
 .byte   TIE ,An1
 .byte   W24
@  #04 @115   ----------------------------------------
 .byte   W96
@  #04 @116   ----------------------------------------
 .byte   W92
 .byte   W03
 .byte   EOT
 .byte   W01
@  #04 @117   ----------------------------------------
 .byte   TIE ,As1
 .byte   W96
@  #04 @118   ----------------------------------------
 .byte   W68
 .byte   W03
 .byte   EOT
 .byte   W01
 .byte   TIE ,Gn1
 .byte   W24
@  #04 @119   ----------------------------------------
 .byte   W96
@  #04 @120   ----------------------------------------
 .byte   W92
 .byte   W03
 .byte   EOT
 .byte   W01
@  #04 @121   ----------------------------------------
 .byte   PATT
  .word Label_01162D66
@  #04 @122   ----------------------------------------
 .byte   W68
 .byte   W03
 .byte   EOT
 .byte   Fs1
 .byte   N01 ,Fs1 ,v080
 .byte   W01
 .byte   TIE ,An1
 .byte   W24
@  #04 @123   ----------------------------------------
 .byte   W96
@  #04 @124   ----------------------------------------
 .byte   W92
 .byte   W03
 .byte   EOT
 .byte   W01
@  #04 @125   ----------------------------------------
 .byte   TIE ,As1
 .byte   W96
@  #04 @126   ----------------------------------------
 .byte   W96
@  #04 @127   ----------------------------------------
 .byte   W96
@  #04 @128   ----------------------------------------
 .byte   W92
 .byte   W03
 .byte   EOT
 .byte   W01
@  #04 @129   ----------------------------------------
 .byte   PATT
  .word Label_01162D66
@  #04 @130   ----------------------------------------
 .byte   W68
 .byte   W03
 .byte   EOT
 .byte   Fs1
 .byte   N01 ,Fs1 ,v080
 .byte   W01
 .byte   TIE ,An1
 .byte   W24
@  #04 @131   ----------------------------------------
 .byte   W96
@  #04 @132   ----------------------------------------
 .byte   W92
 .byte   W03
 .byte   EOT
 .byte   W01
@  #04 @133   ----------------------------------------
 .byte   TIE ,As1
 .byte   W96
@  #04 @134   ----------------------------------------
 .byte   W68
 .byte   W03
 .byte   EOT
 .byte   W01
 .byte   TIE ,Gn1
 .byte   W24
@  #04 @135   ----------------------------------------
 .byte   W96
@  #04 @136   ----------------------------------------
 .byte   W92
 .byte   W03
 .byte   EOT
 .byte   W01
@  #04 @137   ----------------------------------------
 .byte   PATT
  .word Label_01162DC9
@  #04 @138   ----------------------------------------
 .byte   W68
 .byte   W03
 .byte   EOT
 .byte   Ds0
 .byte   N01 ,Ds0 ,v080
 .byte   W01
 .byte   TIE ,Fn0
 .byte   W24
@  #04 @139   ----------------------------------------
 .byte   W92
 .byte   W03
 .byte   EOT
 .byte   W01
@  #04 @140   ----------------------------------------
 .byte   N92 ,An0
 .byte   W96
@  #04 @141   ----------------------------------------
 .byte   TIE ,As0
 .byte   W96
@  #04 @142   ----------------------------------------
 .byte   W96
@  #04 @143   ----------------------------------------
 .byte   W96
@  #04 @144   ----------------------------------------
 .byte   W92
 .byte   W03
 .byte   EOT
 .byte   W01
@  #04 @145   ----------------------------------------
 .byte   W96
@  #04 @146   ----------------------------------------
 .byte   W96
@  #04 @147   ----------------------------------------
 .byte   W96
@  #04 @148   ----------------------------------------
 .byte   W96
@  #04 @149   ----------------------------------------
 .byte   W96
@  #04 @150   ----------------------------------------
 .byte   W96
@  #04 @151   ----------------------------------------
 .byte   W96
@  #04 @152   ----------------------------------------
 .byte   W96
@  #04 @153   ----------------------------------------
 .byte   W96
@  #04 @154   ----------------------------------------
 .byte   W96
@  #04 @155   ----------------------------------------
 .byte   W96
@  #04 @156   ----------------------------------------
 .byte   W96
@  #04 @157   ----------------------------------------
 .byte   W96
@  #04 @158   ----------------------------------------
 .byte   W96
@  #04 @159   ----------------------------------------
 .byte   W96
@  #04 @160   ----------------------------------------
 .byte   W96
@  #04 @161   ----------------------------------------
 .byte   W96
@  #04 @162   ----------------------------------------
 .byte   W96
@  #04 @163   ----------------------------------------
 .byte   W96
@  #04 @164   ----------------------------------------
 .byte   W96
@  #04 @165   ----------------------------------------
 .byte   W96
@  #04 @166   ----------------------------------------
 .byte   W96
@  #04 @167   ----------------------------------------
 .byte   W96
@  #04 @168   ----------------------------------------
 .byte   W96
@  #04 @169   ----------------------------------------
 .byte   W48
 .byte   N44 ,Fs0
 .byte   W48
@  #04 @170   ----------------------------------------
 .byte   PATT
  .word Label_01162E02
@  #04 @171   ----------------------------------------
 .byte   W96
@  #04 @172   ----------------------------------------
 .byte   W92
 .byte   W03
 .byte   EOT
 .byte   As0
 .byte   N01 ,As0 ,v080
 .byte   W01
@  #04 @173   ----------------------------------------
 .byte   W48
 .byte   N44 ,Ds0
 .byte   W48
@  #04 @174   ----------------------------------------
 .byte   PATT
  .word Label_01162E13
@  #04 @175   ----------------------------------------
 .byte   W96
@  #04 @176   ----------------------------------------
 .byte   W92
 .byte   W03
 .byte   EOT
 .byte   As0
 .byte   N01 ,As0 ,v080
 .byte   W01
@  #04 @177   ----------------------------------------
 .byte   W48
 .byte   N44 ,Fs0
 .byte   W48
@  #04 @178   ----------------------------------------
 .byte   PATT
  .word Label_01162E02
@  #04 @179   ----------------------------------------
 .byte   W96
@  #04 @180   ----------------------------------------
 .byte   W92
 .byte   W03
 .byte   EOT
 .byte   As0
 .byte   N01 ,As0 ,v080
 .byte   W01
@  #04 @181   ----------------------------------------
 .byte   W48
 .byte   N44 ,Ds0
 .byte   W48
@  #04 @182   ----------------------------------------
 .byte   PATT
  .word Label_01162E13
@  #04 @183   ----------------------------------------
 .byte   W96
@  #04 @184   ----------------------------------------
 .byte   W92
 .byte   W03
 .byte   EOT
 .byte   As0
 .byte   N01 ,As0 ,v080
 .byte   W01
 .byte   FINE

@**************** Track 5 (Midi-Chn.4) ****************@

.align 2, 0
song06_005:
@  #05 @000   ----------------------------------------
 .byte   KEYSH , song06_key+0
Label_01133556:
 .byte   VOICE , 32
 .byte   VOL , 52*song06_mvl/mxv
 .byte   PAN , c_v+3
 .byte   N16 ,Dn1 ,v060
 .byte   W24
 .byte   N07 ,Dn1 ,v036
 .byte   W08
 .byte   N07
 .byte   W08
 .byte   N07
 .byte   W08
 .byte   N17
 .byte   W18
 .byte   N05
 .byte   W06
 .byte   N07
 .byte   W08
 .byte   N07
 .byte   W08
 .byte   N07
 .byte   W08
@  #05 @001   ----------------------------------------
Label_01133572:
 .byte   N16 ,Dn1 ,v060
 .byte   W24
 .byte   N07 ,Dn1 ,v036
 .byte   W08
 .byte   N07
 .byte   W08
 .byte   N07
 .byte   W08
 .byte   N17
 .byte   W18
 .byte   N05
 .byte   W06
 .byte   N07
 .byte   W08
 .byte   N07
 .byte   W08
 .byte   N07
 .byte   W08
 .byte   PEND 
@  #05 @002   ----------------------------------------
Label_01133589:
 .byte   N23 ,Dn1 ,v036
 .byte   W24
 .byte   N07
 .byte   W08
 .byte   N07
 .byte   W08
 .byte   N07
 .byte   W08
 .byte   N17
 .byte   W18
 .byte   N05
 .byte   W06
 .byte   N08 ,Dn1 ,v060
 .byte   W08
 .byte   N05
 .byte   W08
 .byte   N05
 .byte   W08
 .byte   PEND 
@  #05 @003   ----------------------------------------
Label_011335A0:
 .byte   N12 ,Dn1 ,v060
 .byte   W18
 .byte   N12
 .byte   W18
 .byte   N11 ,Dn1 ,v036
 .byte   W12
 .byte   N17
 .byte   W18
 .byte   N05
 .byte   W06
 .byte   N07
 .byte   W08
 .byte   N07
 .byte   W08
 .byte   N07
 .byte   W08
 .byte   PEND 
@  #05 @004   ----------------------------------------
 .byte   PATT
  .word Label_01133589
@  #05 @005   ----------------------------------------
 .byte   PATT
  .word Label_01133572
@  #05 @006   ----------------------------------------
 .byte   PATT
  .word Label_01133589
@  #05 @007   ----------------------------------------
Label_011335C4:
 .byte   N16 ,Dn1 ,v060
 .byte   W48
 .byte   N16
 .byte   W48
 .byte   PEND 
@  #05 @008   ----------------------------------------
 .byte   PATT
  .word Label_01133572
@  #05 @009   ----------------------------------------
 .byte   PATT
  .word Label_01133572
@  #05 @010   ----------------------------------------
 .byte   PATT
  .word Label_01133589
@  #05 @011   ----------------------------------------
 .byte   PATT
  .word Label_011335A0
@  #05 @012   ----------------------------------------
 .byte   PATT
  .word Label_01133589
@  #05 @013   ----------------------------------------
 .byte   PATT
  .word Label_01133572
@  #05 @014   ----------------------------------------
 .byte   PATT
  .word Label_01133589
@  #05 @015   ----------------------------------------
 .byte   PATT
  .word Label_011335C4
@  #05 @016   ----------------------------------------
 .byte   W96
@  #05 @017   ----------------------------------------
 .byte   W96
@  #05 @018   ----------------------------------------
 .byte   W96
@  #05 @019   ----------------------------------------
 .byte   W96
@  #05 @020   ----------------------------------------
 .byte   W96
@  #05 @021   ----------------------------------------
Label_011335F8:
 .byte   N17 ,Dn1 ,v064
 .byte   W18
 .byte   N05
 .byte   W06
 .byte   N23
 .byte   W24
 .byte   N23
 .byte   W24
 .byte   N23
 .byte   W24
 .byte   PEND 
@  #05 @022   ----------------------------------------
Label_01133605:
 .byte   N11 ,Dn1 ,v064
 .byte   W12
 .byte   N11
 .byte   W48
 .byte   N17
 .byte   W24
 .byte   N11
 .byte   W12
 .byte   PEND 
@  #05 @023   ----------------------------------------
 .byte   PATT
  .word Label_01133605
@  #05 @024   ----------------------------------------
Label_01133615:
 .byte   W60
 .byte   N17 ,Dn1 ,v064
 .byte   W24
 .byte   N11
 .byte   W12
 .byte   PEND 
@  #05 @025   ----------------------------------------
 .byte   PATT
  .word Label_01133605
@  #05 @026   ----------------------------------------
Label_01133622:
 .byte   N23 ,Dn1 ,v064
 .byte   W24
 .byte   N23
 .byte   W24
 .byte   N23
 .byte   W24
 .byte   N17
 .byte   W18
 .byte   N05
 .byte   W06
 .byte   PEND 
@  #05 @027   ----------------------------------------
Label_0113362F:
 .byte   N23 ,Dn1 ,v064
 .byte   W24
 .byte   N23
 .byte   W24
 .byte   N23
 .byte   W24
 .byte   N07
 .byte   W08
 .byte   N07
 .byte   W08
 .byte   N07
 .byte   W08
 .byte   PEND 
@  #05 @028   ----------------------------------------
 .byte   W96
@  #05 @029   ----------------------------------------
 .byte   PATT
  .word Label_01133615
@  #05 @030   ----------------------------------------
 .byte   PATT
  .word Label_01133605
@  #05 @031   ----------------------------------------
 .byte   PATT
  .word Label_01133605
@  #05 @032   ----------------------------------------
 .byte   PATT
  .word Label_01133605
@  #05 @033   ----------------------------------------
 .byte   PATT
  .word Label_01133605
@  #05 @034   ----------------------------------------
 .byte   PATT
  .word Label_01133605
@  #05 @035   ----------------------------------------
 .byte   PATT
  .word Label_01133605
@  #05 @036   ----------------------------------------
 .byte   W96
@  #05 @037   ----------------------------------------
 .byte   PATT
  .word Label_011335F8
@  #05 @038   ----------------------------------------
 .byte   PATT
  .word Label_01133605
@  #05 @039   ----------------------------------------
 .byte   PATT
  .word Label_01133605
@  #05 @040   ----------------------------------------
 .byte   PATT
  .word Label_01133615
@  #05 @041   ----------------------------------------
 .byte   PATT
  .word Label_01133605
@  #05 @042   ----------------------------------------
 .byte   PATT
  .word Label_01133622
@  #05 @043   ----------------------------------------
 .byte   PATT
  .word Label_0113362F
@  #05 @044   ----------------------------------------
 .byte   W96
@  #05 @045   ----------------------------------------
Label_01133687:
 .byte   N11 ,Dn1 ,v064
 .byte   W12
 .byte   N11
 .byte   W36
 .byte   N11
 .byte   W12
 .byte   N11
 .byte   W24
 .byte   N11
 .byte   W12
 .byte   PEND 
@  #05 @046   ----------------------------------------
 .byte   PATT
  .word Label_01133687
@  #05 @047   ----------------------------------------
 .byte   PATT
  .word Label_01133687
@  #05 @048   ----------------------------------------
 .byte   PATT
  .word Label_01133687
@  #05 @049   ----------------------------------------
 .byte   PATT
  .word Label_01133687
@  #05 @050   ----------------------------------------
 .byte   PATT
  .word Label_01133687
@  #05 @051   ----------------------------------------
 .byte   PATT
  .word Label_01133687
@  #05 @052   ----------------------------------------
 .byte   PATT
  .word Label_0113362F
@  #05 @053   ----------------------------------------
 .byte   PATT
  .word Label_0113362F
@  #05 @054   ----------------------------------------
 .byte   PATT
  .word Label_0113362F
@  #05 @055   ----------------------------------------
 .byte   PATT
  .word Label_0113362F
@  #05 @056   ----------------------------------------
 .byte   PATT
  .word Label_0113362F
@  #05 @057   ----------------------------------------
 .byte   PATT
  .word Label_0113362F
@  #05 @058   ----------------------------------------
 .byte   PATT
  .word Label_0113362F
@  #05 @059   ----------------------------------------
 .byte   PATT
  .word Label_0113362F
@  #05 @060   ----------------------------------------
 .byte   PATT
  .word Label_0113362F
@  #05 @061   ----------------------------------------
 .byte   PATT
  .word Label_0113362F
@  #05 @062   ----------------------------------------
 .byte   PATT
  .word Label_0113362F
@  #05 @063   ----------------------------------------
 .byte   PATT
  .word Label_0113362F
@  #05 @064   ----------------------------------------
 .byte   PATT
  .word Label_0113362F
@  #05 @065   ----------------------------------------
 .byte   PATT
  .word Label_0113362F
@  #05 @066   ----------------------------------------
 .byte   PATT
  .word Label_0113362F
@  #05 @067   ----------------------------------------
 .byte   PATT
  .word Label_0113362F
@  #05 @068   ----------------------------------------
 .byte   PATT
  .word Label_0113362F
@  #05 @069   ----------------------------------------
 .byte   PATT
  .word Label_0113362F
@  #05 @070   ----------------------------------------
 .byte   PATT
  .word Label_0113362F
@  #05 @071   ----------------------------------------
 .byte   PATT
  .word Label_0113362F
@  #05 @072   ----------------------------------------
 .byte   PATT
  .word Label_0113362F
@  #05 @073   ----------------------------------------
 .byte   PATT
  .word Label_0113362F
@  #05 @074   ----------------------------------------
 .byte   PATT
  .word Label_0113362F
@  #05 @075   ----------------------------------------
Label_01133725:
 .byte   N23 ,Dn1 ,v064
 .byte   W24
 .byte   N23
 .byte   W24
 .byte   N07
 .byte   W08
 .byte   N07
 .byte   W08
 .byte   N07
 .byte   W08
 .byte   N07
 .byte   W08
 .byte   N07
 .byte   W08
 .byte   N07
 .byte   W08
 .byte   PEND 
@  #05 @076   ----------------------------------------
 .byte   PATT
  .word Label_01133687
@  #05 @077   ----------------------------------------
 .byte   PATT
  .word Label_01133687
@  #05 @078   ----------------------------------------
 .byte   PATT
  .word Label_01133687
@  #05 @079   ----------------------------------------
 .byte   PATT
  .word Label_01133687
@  #05 @080   ----------------------------------------
Label_0113374C:
 .byte   W48
 .byte   N11 ,Dn1 ,v064
 .byte   W12
 .byte   N11
 .byte   W24
 .byte   N11
 .byte   W12
 .byte   PEND 
@  #05 @081   ----------------------------------------
 .byte   PATT
  .word Label_01133687
@  #05 @082   ----------------------------------------
 .byte   PATT
  .word Label_01133687
@  #05 @083   ----------------------------------------
 .byte   PATT
  .word Label_01133687
@  #05 @084   ----------------------------------------
Label_01133765:
 .byte   N02 ,Dn1 ,v064
 .byte   W02
 .byte   N02
 .byte   W03
 .byte   N02
 .byte   W03
 .byte   N02
 .byte   W03
 .byte   N02
 .byte   W03
 .byte   N02
 .byte   W03
 .byte   N02
 .byte   W03
 .byte   N02
 .byte   W03
 .byte   N02
 .byte   W03
 .byte   N02
 .byte   W03
 .byte   N02
 .byte   W03
 .byte   N02
 .byte   W03
 .byte   N02
 .byte   W03
 .byte   N02
 .byte   W03
 .byte   N02
 .byte   W03
 .byte   N02
 .byte   W04
 .byte   N11
 .byte   W12
 .byte   N11
 .byte   W24
 .byte   N11
 .byte   W12
 .byte   PEND 
@  #05 @085   ----------------------------------------
 .byte   PATT
  .word Label_01133687
@  #05 @086   ----------------------------------------
 .byte   PATT
  .word Label_01133687
@  #05 @087   ----------------------------------------
 .byte   PATT
  .word Label_01133687
@  #05 @088   ----------------------------------------
 .byte   PATT
  .word Label_01133687
@  #05 @089   ----------------------------------------
 .byte   PATT
  .word Label_01133687
@  #05 @090   ----------------------------------------
 .byte   PATT
  .word Label_01133687
@  #05 @091   ----------------------------------------
 .byte   PATT
  .word Label_01133687
@  #05 @092   ----------------------------------------
 .byte   GOTO
  .word Label_01133556
@  #05 @093   ----------------------------------------
 .byte   PATT
  .word Label_01133572
@  #05 @094   ----------------------------------------
 .byte   PATT
  .word Label_01133572
@  #05 @095   ----------------------------------------
 .byte   PATT
  .word Label_01133589
@  #05 @096   ----------------------------------------
 .byte   PATT
  .word Label_011335A0
@  #05 @097   ----------------------------------------
 .byte   PATT
  .word Label_01133589
@  #05 @098   ----------------------------------------
 .byte   PATT
  .word Label_01133572
@  #05 @099   ----------------------------------------
 .byte   PATT
  .word Label_01133589
@  #05 @100   ----------------------------------------
 .byte   PATT
  .word Label_011335C4
@  #05 @101   ----------------------------------------
 .byte   PATT
  .word Label_01133572
@  #05 @102   ----------------------------------------
 .byte   PATT
  .word Label_01133572
@  #05 @103   ----------------------------------------
 .byte   PATT
  .word Label_01133589
@  #05 @104   ----------------------------------------
 .byte   PATT
  .word Label_011335A0
@  #05 @105   ----------------------------------------
 .byte   PATT
  .word Label_01133589
@  #05 @106   ----------------------------------------
 .byte   PATT
  .word Label_01133572
@  #05 @107   ----------------------------------------
 .byte   PATT
  .word Label_01133589
@  #05 @108   ----------------------------------------
 .byte   PATT
  .word Label_011335C4
@  #05 @109   ----------------------------------------
 .byte   W96
@  #05 @110   ----------------------------------------
 .byte   W96
@  #05 @111   ----------------------------------------
 .byte   W96
@  #05 @112   ----------------------------------------
 .byte   W96
@  #05 @113   ----------------------------------------
 .byte   W96
@  #05 @114   ----------------------------------------
 .byte   PATT
  .word Label_011335F8
@  #05 @115   ----------------------------------------
 .byte   PATT
  .word Label_01133605
@  #05 @116   ----------------------------------------
 .byte   PATT
  .word Label_01133605
@  #05 @117   ----------------------------------------
 .byte   PATT
  .word Label_01133615
@  #05 @118   ----------------------------------------
 .byte   PATT
  .word Label_01133605
@  #05 @119   ----------------------------------------
 .byte   PATT
  .word Label_01133622
@  #05 @120   ----------------------------------------
 .byte   PATT
  .word Label_0113362F
@  #05 @121   ----------------------------------------
 .byte   W96
@  #05 @122   ----------------------------------------
 .byte   PATT
  .word Label_01133615
@  #05 @123   ----------------------------------------
 .byte   PATT
  .word Label_01133605
@  #05 @124   ----------------------------------------
 .byte   PATT
  .word Label_01133605
@  #05 @125   ----------------------------------------
 .byte   PATT
  .word Label_01133605
@  #05 @126   ----------------------------------------
 .byte   PATT
  .word Label_01133605
@  #05 @127   ----------------------------------------
 .byte   PATT
  .word Label_01133605
@  #05 @128   ----------------------------------------
 .byte   PATT
  .word Label_01133605
@  #05 @129   ----------------------------------------
 .byte   W96
@  #05 @130   ----------------------------------------
 .byte   PATT
  .word Label_011335F8
@  #05 @131   ----------------------------------------
 .byte   PATT
  .word Label_01133605
@  #05 @132   ----------------------------------------
 .byte   PATT
  .word Label_01133605
@  #05 @133   ----------------------------------------
 .byte   PATT
  .word Label_01133615
@  #05 @134   ----------------------------------------
 .byte   PATT
  .word Label_01133605
@  #05 @135   ----------------------------------------
 .byte   PATT
  .word Label_01133622
@  #05 @136   ----------------------------------------
 .byte   PATT
  .word Label_0113362F
@  #05 @137   ----------------------------------------
 .byte   W96
@  #05 @138   ----------------------------------------
 .byte   PATT
  .word Label_01133687
@  #05 @139   ----------------------------------------
 .byte   PATT
  .word Label_01133687
@  #05 @140   ----------------------------------------
 .byte   PATT
  .word Label_01133687
@  #05 @141   ----------------------------------------
 .byte   PATT
  .word Label_01133687
@  #05 @142   ----------------------------------------
 .byte   PATT
  .word Label_01133687
@  #05 @143   ----------------------------------------
 .byte   PATT
  .word Label_01133687
@  #05 @144   ----------------------------------------
 .byte   PATT
  .word Label_01133687
@  #05 @145   ----------------------------------------
 .byte   PATT
  .word Label_0113362F
@  #05 @146   ----------------------------------------
 .byte   PATT
  .word Label_0113362F
@  #05 @147   ----------------------------------------
 .byte   PATT
  .word Label_0113362F
@  #05 @148   ----------------------------------------
 .byte   PATT
  .word Label_0113362F
@  #05 @149   ----------------------------------------
 .byte   PATT
  .word Label_0113362F
@  #05 @150   ----------------------------------------
 .byte   PATT
  .word Label_0113362F
@  #05 @151   ----------------------------------------
 .byte   PATT
  .word Label_0113362F
@  #05 @152   ----------------------------------------
 .byte   PATT
  .word Label_0113362F
@  #05 @153   ----------------------------------------
 .byte   PATT
  .word Label_0113362F
@  #05 @154   ----------------------------------------
 .byte   PATT
  .word Label_0113362F
@  #05 @155   ----------------------------------------
 .byte   PATT
  .word Label_0113362F
@  #05 @156   ----------------------------------------
 .byte   PATT
  .word Label_0113362F
@  #05 @157   ----------------------------------------
 .byte   PATT
  .word Label_0113362F
@  #05 @158   ----------------------------------------
 .byte   PATT
  .word Label_0113362F
@  #05 @159   ----------------------------------------
 .byte   PATT
  .word Label_0113362F
@  #05 @160   ----------------------------------------
 .byte   PATT
  .word Label_0113362F
@  #05 @161   ----------------------------------------
 .byte   PATT
  .word Label_0113362F
@  #05 @162   ----------------------------------------
 .byte   PATT
  .word Label_0113362F
@  #05 @163   ----------------------------------------
 .byte   PATT
  .word Label_0113362F
@  #05 @164   ----------------------------------------
 .byte   PATT
  .word Label_0113362F
@  #05 @165   ----------------------------------------
 .byte   PATT
  .word Label_0113362F
@  #05 @166   ----------------------------------------
 .byte   PATT
  .word Label_0113362F
@  #05 @167   ----------------------------------------
 .byte   PATT
  .word Label_0113362F
@  #05 @168   ----------------------------------------
 .byte   PATT
  .word Label_01133725
@  #05 @169   ----------------------------------------
 .byte   PATT
  .word Label_01133687
@  #05 @170   ----------------------------------------
 .byte   PATT
  .word Label_01133687
@  #05 @171   ----------------------------------------
 .byte   PATT
  .word Label_01133687
@  #05 @172   ----------------------------------------
 .byte   PATT
  .word Label_01133687
@  #05 @173   ----------------------------------------
 .byte   PATT
  .word Label_0113374C
@  #05 @174   ----------------------------------------
 .byte   PATT
  .word Label_01133687
@  #05 @175   ----------------------------------------
 .byte   PATT
  .word Label_01133687
@  #05 @176   ----------------------------------------
 .byte   PATT
  .word Label_01133687
@  #05 @177   ----------------------------------------
 .byte   PATT
  .word Label_01133765
@  #05 @178   ----------------------------------------
 .byte   PATT
  .word Label_01133687
@  #05 @179   ----------------------------------------
 .byte   PATT
  .word Label_01133687
@  #05 @180   ----------------------------------------
 .byte   PATT
  .word Label_01133687
@  #05 @181   ----------------------------------------
 .byte   PATT
  .word Label_01133687
@  #05 @182   ----------------------------------------
 .byte   PATT
  .word Label_01133687
@  #05 @183   ----------------------------------------
 .byte   PATT
  .word Label_01133687
@  #05 @184   ----------------------------------------
 .byte   PATT
  .word Label_01133687
 .byte   FINE

@**************** Track 6 (Midi-Chn.5) ****************@

.align 2, 0
song06_006:
@  #06 @000   ----------------------------------------
 .byte   KEYSH , song06_key+0
Label_011323AE:
 .byte   VOICE , 49
 .byte   PAN , c_v-5
 .byte   VOL , 60*song06_mvl/mxv
 .byte   N92 ,Bn0 ,v096
 .byte   W96
@  #06 @001   ----------------------------------------
 .byte   W72
 .byte   N23
 .byte   W24
@  #06 @002   ----------------------------------------
 .byte   W24
 .byte   N68
 .byte   W72
@  #06 @003   ----------------------------------------
 .byte   W72
 .byte   N23
 .byte   W24
@  #06 @004   ----------------------------------------
 .byte   N92
 .byte   W96
@  #06 @005   ----------------------------------------
 .byte   W72
 .byte   N23
 .byte   W24
@  #06 @006   ----------------------------------------
 .byte   W24
 .byte   N68
 .byte   W72
@  #06 @007   ----------------------------------------
Label_011323C9:
 .byte   N44 ,Bn0 ,v096
 .byte   W48
 .byte   N44
 .byte   W48
 .byte   PEND 
@  #06 @008   ----------------------------------------
 .byte   N92
 .byte   W96
@  #06 @009   ----------------------------------------
 .byte   W72
 .byte   N23
 .byte   W24
@  #06 @010   ----------------------------------------
 .byte   W24
 .byte   N68
 .byte   W72
@  #06 @011   ----------------------------------------
 .byte   W72
 .byte   N23
 .byte   W24
@  #06 @012   ----------------------------------------
 .byte   N92
 .byte   W96
@  #06 @013   ----------------------------------------
 .byte   W72
 .byte   N23
 .byte   W24
@  #06 @014   ----------------------------------------
 .byte   W24
 .byte   N68
 .byte   W72
@  #06 @015   ----------------------------------------
 .byte   PATT
  .word Label_011323C9
@  #06 @016   ----------------------------------------
 .byte   W96
@  #06 @017   ----------------------------------------
 .byte   W96
@  #06 @018   ----------------------------------------
 .byte   W96
@  #06 @019   ----------------------------------------
 .byte   W96
@  #06 @020   ----------------------------------------
 .byte   W48
 .byte   N44 ,Bn0 ,v096
 .byte   W48
@  #06 @021   ----------------------------------------
Label_011323F1:
 .byte   N44 ,Bn0 ,v096
 .byte   W72
 .byte   N23
 .byte   W24
 .byte   PEND 
@  #06 @022   ----------------------------------------
 .byte   W96
@  #06 @023   ----------------------------------------
 .byte   N92
 .byte   W96
@  #06 @024   ----------------------------------------
 .byte   W48
 .byte   N44
 .byte   W48
@  #06 @025   ----------------------------------------
 .byte   PATT
  .word Label_011323F1
@  #06 @026   ----------------------------------------
 .byte   W96
@  #06 @027   ----------------------------------------
 .byte   N92 ,Bn0 ,v096
 .byte   W96
@  #06 @028   ----------------------------------------
 .byte   W48
 .byte   N44
 .byte   W48
@  #06 @029   ----------------------------------------
 .byte   PATT
  .word Label_011323F1
@  #06 @030   ----------------------------------------
 .byte   W96
@  #06 @031   ----------------------------------------
 .byte   N92 ,Bn0 ,v096
 .byte   W96
@  #06 @032   ----------------------------------------
 .byte   W48
 .byte   N44
 .byte   W48
@  #06 @033   ----------------------------------------
 .byte   PATT
  .word Label_011323F1
@  #06 @034   ----------------------------------------
 .byte   W96
@  #06 @035   ----------------------------------------
 .byte   N92 ,Bn0 ,v096
 .byte   W96
@  #06 @036   ----------------------------------------
 .byte   W48
 .byte   N44
 .byte   W48
@  #06 @037   ----------------------------------------
 .byte   PATT
  .word Label_011323F1
@  #06 @038   ----------------------------------------
 .byte   W96
@  #06 @039   ----------------------------------------
 .byte   N92 ,Bn0 ,v096
 .byte   W96
@  #06 @040   ----------------------------------------
 .byte   W48
 .byte   N44
 .byte   W48
@  #06 @041   ----------------------------------------
 .byte   PATT
  .word Label_011323F1
@  #06 @042   ----------------------------------------
 .byte   W96
@  #06 @043   ----------------------------------------
Label_01132438:
 .byte   N23 ,Bn0 ,v096
 .byte   W24
 .byte   N68
 .byte   W72
 .byte   PEND 
@  #06 @044   ----------------------------------------
 .byte   W48
 .byte   N44
 .byte   W48
@  #06 @045   ----------------------------------------
 .byte   PATT
  .word Label_011323F1
@  #06 @046   ----------------------------------------
 .byte   W96
@  #06 @047   ----------------------------------------
Label_01132448:
 .byte   N68 ,Bn0 ,v096
 .byte   W84
 .byte   N05
 .byte   W06
 .byte   N05
 .byte   W06
 .byte   PEND 
@  #06 @048   ----------------------------------------
 .byte   N92
 .byte   W96
@  #06 @049   ----------------------------------------
 .byte   W96
@  #06 @050   ----------------------------------------
 .byte   N92
 .byte   W96
@  #06 @051   ----------------------------------------
 .byte   N92
 .byte   W96
@  #06 @052   ----------------------------------------
 .byte   PATT
  .word Label_01132438
@  #06 @053   ----------------------------------------
 .byte   PATT
  .word Label_01132438
@  #06 @054   ----------------------------------------
 .byte   PATT
  .word Label_01132438
@  #06 @055   ----------------------------------------
 .byte   PATT
  .word Label_01132438
@  #06 @056   ----------------------------------------
 .byte   PATT
  .word Label_01132438
@  #06 @057   ----------------------------------------
 .byte   PATT
  .word Label_01132438
@  #06 @058   ----------------------------------------
 .byte   PATT
  .word Label_01132438
@  #06 @059   ----------------------------------------
 .byte   PATT
  .word Label_01132438
@  #06 @060   ----------------------------------------
 .byte   PATT
  .word Label_01132438
@  #06 @061   ----------------------------------------
 .byte   PATT
  .word Label_01132438
@  #06 @062   ----------------------------------------
 .byte   PATT
  .word Label_01132438
@  #06 @063   ----------------------------------------
 .byte   PATT
  .word Label_01132438
@  #06 @064   ----------------------------------------
 .byte   PATT
  .word Label_01132438
@  #06 @065   ----------------------------------------
 .byte   PATT
  .word Label_01132438
@  #06 @066   ----------------------------------------
 .byte   PATT
  .word Label_01132438
@  #06 @067   ----------------------------------------
 .byte   PATT
  .word Label_01132438
@  #06 @068   ----------------------------------------
Label_011324A8:
 .byte   N23 ,Bn0 ,v096
 .byte   W24
 .byte   N44
 .byte   W48
 .byte   N23
 .byte   W24
 .byte   PEND 
@  #06 @069   ----------------------------------------
 .byte   W24
 .byte   N68
 .byte   W72
@  #06 @070   ----------------------------------------
 .byte   PATT
  .word Label_011324A8
@  #06 @071   ----------------------------------------
 .byte   W24
 .byte   N68 ,Bn0 ,v096
 .byte   W72
@  #06 @072   ----------------------------------------
 .byte   PATT
  .word Label_011324A8
@  #06 @073   ----------------------------------------
 .byte   W24
 .byte   N68 ,Bn0 ,v096
 .byte   W72
@  #06 @074   ----------------------------------------
 .byte   PATT
  .word Label_01132438
@  #06 @075   ----------------------------------------
 .byte   W96
@  #06 @076   ----------------------------------------
 .byte   W48
 .byte   N44 ,Bn0 ,v096
 .byte   W48
@  #06 @077   ----------------------------------------
 .byte   PATT
  .word Label_011323F1
@  #06 @078   ----------------------------------------
 .byte   W96
@  #06 @079   ----------------------------------------
 .byte   N92 ,Bn0 ,v096
 .byte   W96
@  #06 @080   ----------------------------------------
 .byte   W48
 .byte   N44
 .byte   W48
@  #06 @081   ----------------------------------------
 .byte   PATT
  .word Label_011323F1
@  #06 @082   ----------------------------------------
 .byte   W96
@  #06 @083   ----------------------------------------
 .byte   N92 ,Bn0 ,v096
 .byte   W96
@  #06 @084   ----------------------------------------
 .byte   W48
 .byte   N44
 .byte   W48
@  #06 @085   ----------------------------------------
 .byte   PATT
  .word Label_011323F1
@  #06 @086   ----------------------------------------
 .byte   W96
@  #06 @087   ----------------------------------------
 .byte   N92 ,Bn0 ,v096
 .byte   W96
@  #06 @088   ----------------------------------------
 .byte   W48
 .byte   N44
 .byte   W48
@  #06 @089   ----------------------------------------
 .byte   PATT
  .word Label_011323F1
@  #06 @090   ----------------------------------------
 .byte   W96
@  #06 @091   ----------------------------------------
 .byte   N92 ,Bn0 ,v096
 .byte   W96
@  #06 @092   ----------------------------------------
 .byte   GOTO
  .word Label_011323AE
@  #06 @093   ----------------------------------------
 .byte   N92 ,Bn0 ,v096
 .byte   W96
@  #06 @094   ----------------------------------------
 .byte   W72
 .byte   N23
 .byte   W24
@  #06 @095   ----------------------------------------
 .byte   W24
 .byte   N68
 .byte   W72
@  #06 @096   ----------------------------------------
 .byte   W72
 .byte   N23
 .byte   W24
@  #06 @097   ----------------------------------------
 .byte   N92
 .byte   W96
@  #06 @098   ----------------------------------------
 .byte   W72
 .byte   N23
 .byte   W24
@  #06 @099   ----------------------------------------
 .byte   W24
 .byte   N68
 .byte   W72
@  #06 @100   ----------------------------------------
 .byte   PATT
  .word Label_011323C9
@  #06 @101   ----------------------------------------
 .byte   N92 ,Bn0 ,v096
 .byte   W96
@  #06 @102   ----------------------------------------
 .byte   W72
 .byte   N23
 .byte   W24
@  #06 @103   ----------------------------------------
 .byte   W24
 .byte   N68
 .byte   W72
@  #06 @104   ----------------------------------------
 .byte   W72
 .byte   N23
 .byte   W24
@  #06 @105   ----------------------------------------
 .byte   N92
 .byte   W96
@  #06 @106   ----------------------------------------
 .byte   W72
 .byte   N23
 .byte   W24
@  #06 @107   ----------------------------------------
 .byte   W24
 .byte   N68
 .byte   W72
@  #06 @108   ----------------------------------------
 .byte   PATT
  .word Label_011323C9
@  #06 @109   ----------------------------------------
 .byte   W96
@  #06 @110   ----------------------------------------
 .byte   W96
@  #06 @111   ----------------------------------------
 .byte   W96
@  #06 @112   ----------------------------------------
 .byte   W96
@  #06 @113   ----------------------------------------
 .byte   W48
 .byte   N44 ,Bn0 ,v096
 .byte   W48
@  #06 @114   ----------------------------------------
 .byte   PATT
  .word Label_011323F1
@  #06 @115   ----------------------------------------
 .byte   W96
@  #06 @116   ----------------------------------------
 .byte   N92 ,Bn0 ,v096
 .byte   W96
@  #06 @117   ----------------------------------------
 .byte   W48
 .byte   N44
 .byte   W48
@  #06 @118   ----------------------------------------
 .byte   PATT
  .word Label_011323F1
@  #06 @119   ----------------------------------------
 .byte   W96
@  #06 @120   ----------------------------------------
 .byte   N92 ,Bn0 ,v096
 .byte   W96
@  #06 @121   ----------------------------------------
 .byte   W48
 .byte   N44
 .byte   W48
@  #06 @122   ----------------------------------------
 .byte   PATT
  .word Label_011323F1
@  #06 @123   ----------------------------------------
 .byte   W96
@  #06 @124   ----------------------------------------
 .byte   N92 ,Bn0 ,v096
 .byte   W96
@  #06 @125   ----------------------------------------
 .byte   W48
 .byte   N44
 .byte   W48
@  #06 @126   ----------------------------------------
 .byte   PATT
  .word Label_011323F1
@  #06 @127   ----------------------------------------
 .byte   W96
@  #06 @128   ----------------------------------------
 .byte   N92 ,Bn0 ,v096
 .byte   W96
@  #06 @129   ----------------------------------------
 .byte   W48
 .byte   N44
 .byte   W48
@  #06 @130   ----------------------------------------
 .byte   PATT
  .word Label_011323F1
@  #06 @131   ----------------------------------------
 .byte   W96
@  #06 @132   ----------------------------------------
 .byte   N92 ,Bn0 ,v096
 .byte   W96
@  #06 @133   ----------------------------------------
 .byte   W48
 .byte   N44
 .byte   W48
@  #06 @134   ----------------------------------------
 .byte   PATT
  .word Label_011323F1
@  #06 @135   ----------------------------------------
 .byte   W96
@  #06 @136   ----------------------------------------
 .byte   PATT
  .word Label_01132438
@  #06 @137   ----------------------------------------
 .byte   W48
 .byte   N44 ,Bn0 ,v096
 .byte   W48
@  #06 @138   ----------------------------------------
 .byte   PATT
  .word Label_011323F1
@  #06 @139   ----------------------------------------
 .byte   W96
@  #06 @140   ----------------------------------------
 .byte   PATT
  .word Label_01132448
@  #06 @141   ----------------------------------------
 .byte   N92 ,Bn0 ,v096
 .byte   W96
@  #06 @142   ----------------------------------------
 .byte   W96
@  #06 @143   ----------------------------------------
 .byte   N92
 .byte   W96
@  #06 @144   ----------------------------------------
 .byte   N92
 .byte   W96
@  #06 @145   ----------------------------------------
 .byte   PATT
  .word Label_01132438
@  #06 @146   ----------------------------------------
 .byte   PATT
  .word Label_01132438
@  #06 @147   ----------------------------------------
 .byte   PATT
  .word Label_01132438
@  #06 @148   ----------------------------------------
 .byte   PATT
  .word Label_01132438
@  #06 @149   ----------------------------------------
 .byte   PATT
  .word Label_01132438
@  #06 @150   ----------------------------------------
 .byte   PATT
  .word Label_01132438
@  #06 @151   ----------------------------------------
 .byte   PATT
  .word Label_01132438
@  #06 @152   ----------------------------------------
 .byte   PATT
  .word Label_01132438
@  #06 @153   ----------------------------------------
 .byte   PATT
  .word Label_01132438
@  #06 @154   ----------------------------------------
 .byte   PATT
  .word Label_01132438
@  #06 @155   ----------------------------------------
 .byte   PATT
  .word Label_01132438
@  #06 @156   ----------------------------------------
 .byte   PATT
  .word Label_01132438
@  #06 @157   ----------------------------------------
 .byte   PATT
  .word Label_01132438
@  #06 @158   ----------------------------------------
 .byte   PATT
  .word Label_01132438
@  #06 @159   ----------------------------------------
 .byte   PATT
  .word Label_01132438
@  #06 @160   ----------------------------------------
 .byte   PATT
  .word Label_01132438
@  #06 @161   ----------------------------------------
 .byte   PATT
  .word Label_011324A8
@  #06 @162   ----------------------------------------
 .byte   W24
 .byte   N68 ,Bn0 ,v096
 .byte   W72
@  #06 @163   ----------------------------------------
 .byte   PATT
  .word Label_011324A8
@  #06 @164   ----------------------------------------
 .byte   W24
 .byte   N68 ,Bn0 ,v096
 .byte   W72
@  #06 @165   ----------------------------------------
 .byte   PATT
  .word Label_011324A8
@  #06 @166   ----------------------------------------
 .byte   W24
 .byte   N68 ,Bn0 ,v096
 .byte   W72
@  #06 @167   ----------------------------------------
 .byte   PATT
  .word Label_01132438
@  #06 @168   ----------------------------------------
 .byte   W96
@  #06 @169   ----------------------------------------
 .byte   W48
 .byte   N44 ,Bn0 ,v096
 .byte   W48
@  #06 @170   ----------------------------------------
 .byte   PATT
  .word Label_011323F1
@  #06 @171   ----------------------------------------
 .byte   W96
@  #06 @172   ----------------------------------------
 .byte   N92 ,Bn0 ,v096
 .byte   W96
@  #06 @173   ----------------------------------------
 .byte   W48
 .byte   N44
 .byte   W48
@  #06 @174   ----------------------------------------
 .byte   PATT
  .word Label_011323F1
@  #06 @175   ----------------------------------------
 .byte   W96
@  #06 @176   ----------------------------------------
 .byte   N92 ,Bn0 ,v096
 .byte   W96
@  #06 @177   ----------------------------------------
 .byte   W48
 .byte   N44
 .byte   W48
@  #06 @178   ----------------------------------------
 .byte   PATT
  .word Label_011323F1
@  #06 @179   ----------------------------------------
 .byte   W96
@  #06 @180   ----------------------------------------
 .byte   N92 ,Bn0 ,v096
 .byte   W96
@  #06 @181   ----------------------------------------
 .byte   W48
 .byte   N44
 .byte   W48
@  #06 @182   ----------------------------------------
 .byte   PATT
  .word Label_011323F1
@  #06 @183   ----------------------------------------
 .byte   W96
@  #06 @184   ----------------------------------------
 .byte   N92 ,Bn0 ,v096
 .byte   W96
 .byte   FINE

@**************** Track 7 (Midi-Chn.6) ****************@

.align 2, 0
song06_007:
@  #07 @000   ----------------------------------------
 .byte   KEYSH , song06_key+0
Label_0113140A:
 .byte   VOICE , 1
 .byte   PAN , c_v+3
 .byte   VOL , 52*song06_mvl/mxv
 .byte   N92 ,An2 ,v064
 .byte   W96
@  #07 @001   ----------------------------------------
 .byte   W96
@  #07 @002   ----------------------------------------
 .byte   W96
@  #07 @003   ----------------------------------------
 .byte   W96
@  #07 @004   ----------------------------------------
 .byte   W96
@  #07 @005   ----------------------------------------
 .byte   W96
@  #07 @006   ----------------------------------------
 .byte   W96
@  #07 @007   ----------------------------------------
 .byte   W96
@  #07 @008   ----------------------------------------
 .byte   N92
 .byte   W96
@  #07 @009   ----------------------------------------
 .byte   W96
@  #07 @010   ----------------------------------------
 .byte   W96
@  #07 @011   ----------------------------------------
 .byte   W96
@  #07 @012   ----------------------------------------
 .byte   W96
@  #07 @013   ----------------------------------------
 .byte   W96
@  #07 @014   ----------------------------------------
 .byte   W96
@  #07 @015   ----------------------------------------
 .byte   W96
@  #07 @016   ----------------------------------------
 .byte   W96
@  #07 @017   ----------------------------------------
 .byte   W96
@  #07 @018   ----------------------------------------
 .byte   W96
@  #07 @019   ----------------------------------------
 .byte   W96
@  #07 @020   ----------------------------------------
 .byte   W48
 .byte   N44
 .byte   W48
@  #07 @021   ----------------------------------------
 .byte   W96
@  #07 @022   ----------------------------------------
 .byte   W96
@  #07 @023   ----------------------------------------
 .byte   W96
@  #07 @024   ----------------------------------------
 .byte   W48
 .byte   N44
 .byte   W48
@  #07 @025   ----------------------------------------
 .byte   W96
@  #07 @026   ----------------------------------------
 .byte   W96
@  #07 @027   ----------------------------------------
 .byte   W96
@  #07 @028   ----------------------------------------
 .byte   W48
 .byte   N44
 .byte   W48
@  #07 @029   ----------------------------------------
 .byte   W96
@  #07 @030   ----------------------------------------
 .byte   W96
@  #07 @031   ----------------------------------------
 .byte   W96
@  #07 @032   ----------------------------------------
 .byte   W96
@  #07 @033   ----------------------------------------
 .byte   W96
@  #07 @034   ----------------------------------------
 .byte   W96
@  #07 @035   ----------------------------------------
 .byte   W96
@  #07 @036   ----------------------------------------
 .byte   W48
 .byte   N48 ,An2 ,v052
 .byte   W48
@  #07 @037   ----------------------------------------
 .byte   W96
@  #07 @038   ----------------------------------------
 .byte   W96
@  #07 @039   ----------------------------------------
 .byte   W96
@  #07 @040   ----------------------------------------
 .byte   W48
 .byte   N44
 .byte   W48
@  #07 @041   ----------------------------------------
 .byte   W96
@  #07 @042   ----------------------------------------
 .byte   W96
@  #07 @043   ----------------------------------------
 .byte   W96
@  #07 @044   ----------------------------------------
 .byte   W48
 .byte   N48 ,An2 ,v064
 .byte   W48
@  #07 @045   ----------------------------------------
 .byte   W96
@  #07 @046   ----------------------------------------
 .byte   W96
@  #07 @047   ----------------------------------------
 .byte   W96
@  #07 @048   ----------------------------------------
 .byte   W96
@  #07 @049   ----------------------------------------
 .byte   W96
@  #07 @050   ----------------------------------------
 .byte   W96
@  #07 @051   ----------------------------------------
 .byte   W96
@  #07 @052   ----------------------------------------
 .byte   N92 ,An2 ,v052
 .byte   W96
@  #07 @053   ----------------------------------------
 .byte   W96
@  #07 @054   ----------------------------------------
 .byte   W96
@  #07 @055   ----------------------------------------
 .byte   W96
@  #07 @056   ----------------------------------------
 .byte   W96
@  #07 @057   ----------------------------------------
 .byte   W96
@  #07 @058   ----------------------------------------
 .byte   W96
@  #07 @059   ----------------------------------------
 .byte   W96
@  #07 @060   ----------------------------------------
 .byte   N92
 .byte   W96
@  #07 @061   ----------------------------------------
 .byte   W96
@  #07 @062   ----------------------------------------
 .byte   W96
@  #07 @063   ----------------------------------------
 .byte   W96
@  #07 @064   ----------------------------------------
 .byte   W96
@  #07 @065   ----------------------------------------
 .byte   W96
@  #07 @066   ----------------------------------------
 .byte   W96
@  #07 @067   ----------------------------------------
 .byte   W96
@  #07 @068   ----------------------------------------
 .byte   N92
 .byte   W96
@  #07 @069   ----------------------------------------
 .byte   W96
@  #07 @070   ----------------------------------------
 .byte   W96
@  #07 @071   ----------------------------------------
 .byte   W96
@  #07 @072   ----------------------------------------
 .byte   N92
 .byte   W96
@  #07 @073   ----------------------------------------
 .byte   W96
@  #07 @074   ----------------------------------------
 .byte   W96
@  #07 @075   ----------------------------------------
 .byte   W96
@  #07 @076   ----------------------------------------
 .byte   W48
 .byte   N44
 .byte   W48
@  #07 @077   ----------------------------------------
 .byte   W96
@  #07 @078   ----------------------------------------
 .byte   W96
@  #07 @079   ----------------------------------------
 .byte   W96
@  #07 @080   ----------------------------------------
 .byte   W96
@  #07 @081   ----------------------------------------
 .byte   W96
@  #07 @082   ----------------------------------------
 .byte   W96
@  #07 @083   ----------------------------------------
 .byte   W96
@  #07 @084   ----------------------------------------
 .byte   W48
 .byte   N44
 .byte   W48
@  #07 @085   ----------------------------------------
 .byte   W96
@  #07 @086   ----------------------------------------
 .byte   W96
@  #07 @087   ----------------------------------------
 .byte   W96
@  #07 @088   ----------------------------------------
 .byte   W48
 .byte   N44
 .byte   W48
@  #07 @089   ----------------------------------------
 .byte   W96
@  #07 @090   ----------------------------------------
 .byte   W96
@  #07 @091   ----------------------------------------
 .byte   W96
@  #07 @092   ----------------------------------------
 .byte   GOTO
  .word Label_0113140A
@  #07 @093   ----------------------------------------
 .byte   N92 ,An2 ,v064
 .byte   W96
@  #07 @094   ----------------------------------------
 .byte   W96
@  #07 @095   ----------------------------------------
 .byte   W96
@  #07 @096   ----------------------------------------
 .byte   W96
@  #07 @097   ----------------------------------------
 .byte   W96
@  #07 @098   ----------------------------------------
 .byte   W96
@  #07 @099   ----------------------------------------
 .byte   W96
@  #07 @100   ----------------------------------------
 .byte   W96
@  #07 @101   ----------------------------------------
 .byte   N92
 .byte   W96
@  #07 @102   ----------------------------------------
 .byte   W96
@  #07 @103   ----------------------------------------
 .byte   W96
@  #07 @104   ----------------------------------------
 .byte   W96
@  #07 @105   ----------------------------------------
 .byte   W96
@  #07 @106   ----------------------------------------
 .byte   W96
@  #07 @107   ----------------------------------------
 .byte   W96
@  #07 @108   ----------------------------------------
 .byte   W96
@  #07 @109   ----------------------------------------
 .byte   W96
@  #07 @110   ----------------------------------------
 .byte   W96
@  #07 @111   ----------------------------------------
 .byte   W96
@  #07 @112   ----------------------------------------
 .byte   W96
@  #07 @113   ----------------------------------------
 .byte   W48
 .byte   N44
 .byte   W48
@  #07 @114   ----------------------------------------
 .byte   W96
@  #07 @115   ----------------------------------------
 .byte   W96
@  #07 @116   ----------------------------------------
 .byte   W96
@  #07 @117   ----------------------------------------
 .byte   W48
 .byte   N44
 .byte   W48
@  #07 @118   ----------------------------------------
 .byte   W96
@  #07 @119   ----------------------------------------
 .byte   W96
@  #07 @120   ----------------------------------------
 .byte   W96
@  #07 @121   ----------------------------------------
 .byte   W48
 .byte   N44
 .byte   W48
@  #07 @122   ----------------------------------------
 .byte   W96
@  #07 @123   ----------------------------------------
 .byte   W96
@  #07 @124   ----------------------------------------
 .byte   W96
@  #07 @125   ----------------------------------------
 .byte   W96
@  #07 @126   ----------------------------------------
 .byte   W96
@  #07 @127   ----------------------------------------
 .byte   W96
@  #07 @128   ----------------------------------------
 .byte   W96
@  #07 @129   ----------------------------------------
 .byte   W48
 .byte   N48 ,An2 ,v052
 .byte   W48
@  #07 @130   ----------------------------------------
 .byte   W96
@  #07 @131   ----------------------------------------
 .byte   W96
@  #07 @132   ----------------------------------------
 .byte   W96
@  #07 @133   ----------------------------------------
 .byte   W48
 .byte   N44
 .byte   W48
@  #07 @134   ----------------------------------------
 .byte   W96
@  #07 @135   ----------------------------------------
 .byte   W96
@  #07 @136   ----------------------------------------
 .byte   W96
@  #07 @137   ----------------------------------------
 .byte   W48
 .byte   N48 ,An2 ,v064
 .byte   W48
@  #07 @138   ----------------------------------------
 .byte   W96
@  #07 @139   ----------------------------------------
 .byte   W96
@  #07 @140   ----------------------------------------
 .byte   W96
@  #07 @141   ----------------------------------------
 .byte   W96
@  #07 @142   ----------------------------------------
 .byte   W96
@  #07 @143   ----------------------------------------
 .byte   W96
@  #07 @144   ----------------------------------------
 .byte   W96
@  #07 @145   ----------------------------------------
 .byte   N92 ,An2 ,v052
 .byte   W96
@  #07 @146   ----------------------------------------
 .byte   W96
@  #07 @147   ----------------------------------------
 .byte   W96
@  #07 @148   ----------------------------------------
 .byte   W96
@  #07 @149   ----------------------------------------
 .byte   W96
@  #07 @150   ----------------------------------------
 .byte   W96
@  #07 @151   ----------------------------------------
 .byte   W96
@  #07 @152   ----------------------------------------
 .byte   W96
@  #07 @153   ----------------------------------------
 .byte   N92
 .byte   W96
@  #07 @154   ----------------------------------------
 .byte   W96
@  #07 @155   ----------------------------------------
 .byte   W96
@  #07 @156   ----------------------------------------
 .byte   W96
@  #07 @157   ----------------------------------------
 .byte   W96
@  #07 @158   ----------------------------------------
 .byte   W96
@  #07 @159   ----------------------------------------
 .byte   W96
@  #07 @160   ----------------------------------------
 .byte   W96
@  #07 @161   ----------------------------------------
 .byte   N92
 .byte   W96
@  #07 @162   ----------------------------------------
 .byte   W96
@  #07 @163   ----------------------------------------
 .byte   W96
@  #07 @164   ----------------------------------------
 .byte   W96
@  #07 @165   ----------------------------------------
 .byte   N92
 .byte   W96
@  #07 @166   ----------------------------------------
 .byte   W96
@  #07 @167   ----------------------------------------
 .byte   W96
@  #07 @168   ----------------------------------------
 .byte   W96
@  #07 @169   ----------------------------------------
 .byte   W48
 .byte   N44
 .byte   W48
@  #07 @170   ----------------------------------------
 .byte   W96
@  #07 @171   ----------------------------------------
 .byte   W96
@  #07 @172   ----------------------------------------
 .byte   W96
@  #07 @173   ----------------------------------------
 .byte   W96
@  #07 @174   ----------------------------------------
 .byte   W96
@  #07 @175   ----------------------------------------
 .byte   W96
@  #07 @176   ----------------------------------------
 .byte   W96
@  #07 @177   ----------------------------------------
 .byte   W48
 .byte   N44
 .byte   W48
@  #07 @178   ----------------------------------------
 .byte   W96
@  #07 @179   ----------------------------------------
 .byte   W96
@  #07 @180   ----------------------------------------
 .byte   W96
@  #07 @181   ----------------------------------------
 .byte   W48
 .byte   N44
 .byte   W48
@  #07 @182   ----------------------------------------
 .byte   W96
@  #07 @183   ----------------------------------------
 .byte   W96
@  #07 @184   ----------------------------------------
 .byte   W96
 .byte   FINE

@**************** Track 8 (Midi-Chn.7) ****************@

.align 2, 0
song06_008:
@  #08 @000   ----------------------------------------
 .byte   KEYSH , song06_key+0
Label_0115FA42:
 .byte   VOICE , 52
 .byte   VOL , 55*song06_mvl/mxv
 .byte   PAN , c_v+0
 .byte   N23 ,Cs4 ,v096
 .byte   W96
@  #08 @001   ----------------------------------------
 .byte   W72
 .byte   N23
 .byte   W24
@  #08 @002   ----------------------------------------
 .byte   W24
 .byte   N72 ,Cn4
 .byte   W72
@  #08 @003   ----------------------------------------
Label_0115FA53:
 .byte   W72
 .byte   N07 ,Cs4 ,v096
 .byte   W08
 .byte   N08 ,Cn4
 .byte   W08
 .byte   Bn3
 .byte   W08
 .byte   PEND 
@  #08 @004   ----------------------------------------
 .byte   N23 ,As3
 .byte   W96
@  #08 @005   ----------------------------------------
 .byte   W72
 .byte   N24 ,Gs3
 .byte   W24
@  #08 @006   ----------------------------------------
 .byte   W24
 .byte   N72 ,Fs3
 .byte   W72
@  #08 @007   ----------------------------------------
Label_0115FA69:
 .byte   N23 ,Ds3 ,v096
 .byte   N23 ,An3
 .byte   W48
 .byte   Fs3
 .byte   N23 ,Cn4
 .byte   W48
 .byte   PEND 
@  #08 @008   ----------------------------------------
 .byte   N96 ,Cs4
 .byte   W96
@  #08 @009   ----------------------------------------
 .byte   W72
 .byte   N23
 .byte   W24
@  #08 @010   ----------------------------------------
 .byte   W24
 .byte   N72 ,Cn4
 .byte   W72
@  #08 @011   ----------------------------------------
 .byte   PATT
  .word Label_0115FA53
@  #08 @012   ----------------------------------------
 .byte   N23 ,As3 ,v096
 .byte   W96
@  #08 @013   ----------------------------------------
 .byte   W72
 .byte   N24 ,Gs3
 .byte   W24
@  #08 @014   ----------------------------------------
 .byte   W24
 .byte   N72 ,Fs3
 .byte   W72
@  #08 @015   ----------------------------------------
 .byte   PATT
  .word Label_0115FA69
@  #08 @016   ----------------------------------------
 .byte   W96
@  #08 @017   ----------------------------------------
 .byte   W96
@  #08 @018   ----------------------------------------
 .byte   W96
@  #08 @019   ----------------------------------------
 .byte   W96
@  #08 @020   ----------------------------------------
Label_0115FA98:
 .byte   N68 ,Gs4 ,v096
 .byte   W72
 .byte   N23 ,Fs4
 .byte   W24
 .byte   PEND 
@  #08 @021   ----------------------------------------
Label_0115FAA0:
 .byte   N23 ,Cn4 ,v096
 .byte   W24
 .byte   N24 ,Cs4
 .byte   W24
 .byte   N68 ,Fs4
 .byte   W48
 .byte   PEND 
@  #08 @022   ----------------------------------------
Label_0115FAAB:
 .byte   W24
 .byte   N23 ,Fn4 ,v096
 .byte   W24
 .byte   N24 ,Ds4
 .byte   W24
 .byte   Cs4
 .byte   W24
 .byte   PEND 
@  #08 @023   ----------------------------------------
Label_0115FAB6:
 .byte   N23 ,Cn4 ,v096
 .byte   W48
 .byte   N44 ,Cs5
 .byte   W48
 .byte   PEND 
@  #08 @024   ----------------------------------------
Label_0115FABE:
 .byte   N68 ,Cn5 ,v096
 .byte   W72
 .byte   N23 ,As4
 .byte   W24
 .byte   PEND 
@  #08 @025   ----------------------------------------
 .byte   TIE ,Fn4
 .byte   W96
@  #08 @026   ----------------------------------------
 .byte   W92
 .byte   W03
 .byte   EOT
 .byte   W01
@  #08 @027   ----------------------------------------
 .byte   W96
@  #08 @028   ----------------------------------------
Label_0115FACE:
 .byte   N68 ,Ds4 ,v096
 .byte   W72
 .byte   N23 ,Cs4
 .byte   W24
 .byte   PEND 
@  #08 @029   ----------------------------------------
Label_0115FAD6:
 .byte   N23 ,Cn4 ,v096
 .byte   W24
 .byte   N24 ,As3
 .byte   W24
 .byte   TIE ,Fs4
 .byte   W48
 .byte   PEND 
@  #08 @030   ----------------------------------------
 .byte   PATT
  .word Label_0115FAAB
@  #08 @031   ----------------------------------------
 .byte   PATT
  .word Label_0115FAB6
@  #08 @032   ----------------------------------------
 .byte   EOT
 .byte   Fs4
 .byte   N92 ,Cn3 ,v096
 .byte   N92 ,Cn5
 .byte   W96
@  #08 @033   ----------------------------------------
 .byte   As2
 .byte   N92 ,As4
 .byte   W96
@  #08 @034   ----------------------------------------
 .byte   Cn3
 .byte   N92 ,Cn5
 .byte   W96
@  #08 @035   ----------------------------------------
 .byte   Cs3
 .byte   N92 ,Cs5
 .byte   W96
@  #08 @036   ----------------------------------------
 .byte   W96
@  #08 @037   ----------------------------------------
 .byte   W96
@  #08 @038   ----------------------------------------
 .byte   W96
@  #08 @039   ----------------------------------------
 .byte   W96
@  #08 @040   ----------------------------------------
 .byte   W96
@  #08 @041   ----------------------------------------
 .byte   W96
@  #08 @042   ----------------------------------------
 .byte   W96
@  #08 @043   ----------------------------------------
 .byte   W96
@  #08 @044   ----------------------------------------
 .byte   N96 ,Cs4
 .byte   W96
@  #08 @045   ----------------------------------------
 .byte   Fn4
 .byte   W96
@  #08 @046   ----------------------------------------
 .byte   Ds4
 .byte   W96
@  #08 @047   ----------------------------------------
 .byte   Cs5
 .byte   W96
@  #08 @048   ----------------------------------------
Label_0115FB10:
 .byte   N23 ,Cn5 ,v096
 .byte   W24
 .byte   TIE ,As4
 .byte   W72
 .byte   PEND 
@  #08 @049   ----------------------------------------
 .byte   W96
@  #08 @050   ----------------------------------------
 .byte   W96
@  #08 @051   ----------------------------------------
 .byte   W92
 .byte   W03
 .byte   EOT
 .byte   W01
@  #08 @052   ----------------------------------------
Label_0115FB1E:
 .byte   N23 ,Cn4 ,v064
 .byte   W24
 .byte   N23
 .byte   W24
 .byte   N23
 .byte   W24
 .byte   N07
 .byte   W08
 .byte   N08 ,As3
 .byte   W08
 .byte   Cn4
 .byte   W08
 .byte   PEND 
@  #08 @053   ----------------------------------------
Label_0115FB2E:
 .byte   N23 ,Cs4 ,v064
 .byte   W24
 .byte   N23
 .byte   W24
 .byte   N23
 .byte   W24
 .byte   N07
 .byte   W08
 .byte   N08 ,Cn4
 .byte   W08
 .byte   Cs4
 .byte   W08
 .byte   PEND 
@  #08 @054   ----------------------------------------
Label_0115FB3E:
 .byte   N23 ,Ds4 ,v064
 .byte   W24
 .byte   N23
 .byte   W24
 .byte   N23
 .byte   W24
 .byte   N07
 .byte   W08
 .byte   N08 ,Cs4
 .byte   W08
 .byte   Ds4
 .byte   W08
 .byte   PEND 
@  #08 @055   ----------------------------------------
Label_0115FB4E:
 .byte   N23 ,Fn4 ,v064
 .byte   W24
 .byte   N23
 .byte   W24
 .byte   N23
 .byte   W24
 .byte   N07
 .byte   W08
 .byte   N08 ,Ds4
 .byte   W08
 .byte   Cs4
 .byte   W08
 .byte   PEND 
@  #08 @056   ----------------------------------------
 .byte   PATT
  .word Label_0115FB1E
@  #08 @057   ----------------------------------------
 .byte   PATT
  .word Label_0115FB2E
@  #08 @058   ----------------------------------------
 .byte   PATT
  .word Label_0115FB3E
@  #08 @059   ----------------------------------------
 .byte   PATT
  .word Label_0115FB4E
@  #08 @060   ----------------------------------------
 .byte   PATT
  .word Label_0115FB1E
@  #08 @061   ----------------------------------------
 .byte   PATT
  .word Label_0115FB2E
@  #08 @062   ----------------------------------------
 .byte   PATT
  .word Label_0115FB3E
@  #08 @063   ----------------------------------------
 .byte   PATT
  .word Label_0115FB4E
@  #08 @064   ----------------------------------------
 .byte   PATT
  .word Label_0115FB1E
@  #08 @065   ----------------------------------------
 .byte   PATT
  .word Label_0115FB2E
@  #08 @066   ----------------------------------------
 .byte   PATT
  .word Label_0115FB3E
@  #08 @067   ----------------------------------------
 .byte   PATT
  .word Label_0115FB4E
@  #08 @068   ----------------------------------------
Label_0115FB9A:
 .byte   N68 ,Ds4 ,v064
 .byte   W72
 .byte   N07
 .byte   W08
 .byte   N08 ,Cs4
 .byte   W08
 .byte   Ds4
 .byte   W08
 .byte   PEND 
@  #08 @069   ----------------------------------------
Label_0115FBA6:
 .byte   N68 ,Fn4 ,v064
 .byte   W72
 .byte   N07
 .byte   W08
 .byte   N08 ,Ds4
 .byte   W08
 .byte   Fn4
 .byte   W08
 .byte   PEND 
@  #08 @070   ----------------------------------------
Label_0115FBB2:
 .byte   N68 ,Fs4 ,v064
 .byte   W72
 .byte   N07
 .byte   W08
 .byte   N08 ,Fn4
 .byte   W08
 .byte   Fs4
 .byte   W08
 .byte   PEND 
@  #08 @071   ----------------------------------------
 .byte   N92 ,Gs4
 .byte   W96
@  #08 @072   ----------------------------------------
 .byte   N96 ,Fn4
 .byte   W96
@  #08 @073   ----------------------------------------
 .byte   Ds4
 .byte   W96
@  #08 @074   ----------------------------------------
 .byte   Fn4
 .byte   W96
@  #08 @075   ----------------------------------------
Label_0115FBC8:
 .byte   N23 ,Fn4 ,v064
 .byte   W24
 .byte   N03 ,Ds4 ,v072
 .byte   W24
 .byte   Cn4 ,v080
 .byte   W24
 .byte   Fn3 ,v088
 .byte   W24
 .byte   PEND 
@  #08 @076   ----------------------------------------
Label_0115FBD7:
 .byte   N68 ,Cn5 ,v096
 .byte   W72
 .byte   N23 ,Cs5
 .byte   W24
 .byte   PEND 
@  #08 @077   ----------------------------------------
 .byte   TIE ,As4
 .byte   W96
@  #08 @078   ----------------------------------------
 .byte   W44
 .byte   W03
 .byte   EOT
 .byte   W01
 .byte   N23 ,Fn4
 .byte   W24
 .byte   N24 ,Fn5
 .byte   W24
@  #08 @079   ----------------------------------------
Label_0115FBEC:
 .byte   N11 ,Ds5 ,v096
 .byte   W12
 .byte   N12 ,Cs5
 .byte   W12
 .byte   N44 ,Cn5
 .byte   W48
 .byte   N23 ,Gs4
 .byte   W24
 .byte   PEND 
@  #08 @080   ----------------------------------------
Label_0115FBFA:
 .byte   N32 ,Cn5 ,v096
 .byte   W36
 .byte   N36 ,Cs5
 .byte   W36
 .byte   TIE ,As4
 .byte   W24
 .byte   PEND 
@  #08 @081   ----------------------------------------
 .byte   W96
@  #08 @082   ----------------------------------------
 .byte   W92
 .byte   W03
 .byte   EOT
 .byte   W01
@  #08 @083   ----------------------------------------
Label_0115FC0A:
 .byte   N23 ,Cn4 ,v096
 .byte   W24
 .byte   N24 ,Cs4
 .byte   W24
 .byte   Fn4
 .byte   W24
 .byte   Gs4
 .byte   W24
 .byte   PEND 
@  #08 @084   ----------------------------------------
 .byte   PATT
  .word Label_0115FBD7
@  #08 @085   ----------------------------------------
 .byte   TIE ,As4 ,v096
 .byte   W96
@  #08 @086   ----------------------------------------
 .byte   W44
 .byte   W03
 .byte   EOT
 .byte   W01
 .byte   N23 ,Fn4
 .byte   W24
 .byte   N24 ,Fn5
 .byte   W24
@  #08 @087   ----------------------------------------
 .byte   PATT
  .word Label_0115FBEC
@  #08 @088   ----------------------------------------
Label_0115FC2E:
 .byte   N32 ,Cn5 ,v096
 .byte   W36
 .byte   N36 ,Cs5
 .byte   W36
 .byte   TIE ,Gs5
 .byte   W24
 .byte   PEND 
@  #08 @089   ----------------------------------------
 .byte   W96
@  #08 @090   ----------------------------------------
 .byte   W96
@  #08 @091   ----------------------------------------
 .byte   W92
 .byte   W03
 .byte   EOT
 .byte   W01
@  #08 @092   ----------------------------------------
 .byte   GOTO
  .word Label_0115FA42
@  #08 @093   ----------------------------------------
 .byte   N23 ,Cs4 ,v096
 .byte   W96
@  #08 @094   ----------------------------------------
 .byte   W72
 .byte   N23
 .byte   W24
@  #08 @095   ----------------------------------------
 .byte   W24
 .byte   N72 ,Cn4
 .byte   W72
@  #08 @096   ----------------------------------------
 .byte   PATT
  .word Label_0115FA53
@  #08 @097   ----------------------------------------
 .byte   N23 ,As3 ,v096
 .byte   W96
@  #08 @098   ----------------------------------------
 .byte   W72
 .byte   N24 ,Gs3
 .byte   W24
@  #08 @099   ----------------------------------------
 .byte   W24
 .byte   N72 ,Fs3
 .byte   W72
@  #08 @100   ----------------------------------------
 .byte   PATT
  .word Label_0115FA69
@  #08 @101   ----------------------------------------
 .byte   N23 ,Cs4 ,v096
 .byte   W96
@  #08 @102   ----------------------------------------
 .byte   W72
 .byte   N23
 .byte   W24
@  #08 @103   ----------------------------------------
 .byte   W24
 .byte   N72 ,Cn4
 .byte   W72
@  #08 @104   ----------------------------------------
 .byte   PATT
  .word Label_0115FA53
@  #08 @105   ----------------------------------------
 .byte   N23 ,As3 ,v096
 .byte   W96
@  #08 @106   ----------------------------------------
 .byte   W72
 .byte   N24 ,Gs3
 .byte   W24
@  #08 @107   ----------------------------------------
 .byte   W24
 .byte   N72 ,Fs3
 .byte   W72
@  #08 @108   ----------------------------------------
 .byte   PATT
  .word Label_0115FA69
@  #08 @109   ----------------------------------------
 .byte   W96
@  #08 @110   ----------------------------------------
 .byte   W96
@  #08 @111   ----------------------------------------
 .byte   W96
@  #08 @112   ----------------------------------------
 .byte   W96
@  #08 @113   ----------------------------------------
 .byte   PATT
  .word Label_0115FA98
@  #08 @114   ----------------------------------------
 .byte   PATT
  .word Label_0115FAA0
@  #08 @115   ----------------------------------------
 .byte   PATT
  .word Label_0115FAAB
@  #08 @116   ----------------------------------------
 .byte   PATT
  .word Label_0115FAB6
@  #08 @117   ----------------------------------------
 .byte   PATT
  .word Label_0115FABE
@  #08 @118   ----------------------------------------
 .byte   TIE ,Fn4 ,v096
 .byte   W96
@  #08 @119   ----------------------------------------
 .byte   W92
 .byte   W03
 .byte   EOT
 .byte   W01
@  #08 @120   ----------------------------------------
 .byte   W96
@  #08 @121   ----------------------------------------
 .byte   PATT
  .word Label_0115FACE
@  #08 @122   ----------------------------------------
 .byte   PATT
  .word Label_0115FAD6
@  #08 @123   ----------------------------------------
 .byte   PATT
  .word Label_0115FAAB
@  #08 @124   ----------------------------------------
 .byte   PATT
  .word Label_0115FAB6
@  #08 @125   ----------------------------------------
 .byte   EOT
 .byte   Fs4
 .byte   N92 ,Cn3 ,v096
 .byte   N92 ,Cn5
 .byte   W96
@  #08 @126   ----------------------------------------
 .byte   As2
 .byte   N92 ,As4
 .byte   W96
@  #08 @127   ----------------------------------------
 .byte   Cn3
 .byte   N92 ,Cn5
 .byte   W96
@  #08 @128   ----------------------------------------
 .byte   Cs3
 .byte   N92 ,Cs5
 .byte   W96
@  #08 @129   ----------------------------------------
 .byte   W96
@  #08 @130   ----------------------------------------
 .byte   W96
@  #08 @131   ----------------------------------------
 .byte   W96
@  #08 @132   ----------------------------------------
 .byte   W96
@  #08 @133   ----------------------------------------
 .byte   W96
@  #08 @134   ----------------------------------------
 .byte   W96
@  #08 @135   ----------------------------------------
 .byte   W96
@  #08 @136   ----------------------------------------
 .byte   W96
@  #08 @137   ----------------------------------------
 .byte   N96 ,Cs4
 .byte   W96
@  #08 @138   ----------------------------------------
 .byte   Fn4
 .byte   W96
@  #08 @139   ----------------------------------------
 .byte   Ds4
 .byte   W96
@  #08 @140   ----------------------------------------
 .byte   Cs5
 .byte   W96
@  #08 @141   ----------------------------------------
 .byte   PATT
  .word Label_0115FB10
@  #08 @142   ----------------------------------------
 .byte   W96
@  #08 @143   ----------------------------------------
 .byte   W96
@  #08 @144   ----------------------------------------
 .byte   W92
 .byte   W03
 .byte   EOT
 .byte   As4
 .byte   N01 ,As4 ,v096
 .byte   W01
@  #08 @145   ----------------------------------------
 .byte   PATT
  .word Label_0115FB1E
@  #08 @146   ----------------------------------------
 .byte   PATT
  .word Label_0115FB2E
@  #08 @147   ----------------------------------------
 .byte   PATT
  .word Label_0115FB3E
@  #08 @148   ----------------------------------------
 .byte   PATT
  .word Label_0115FB4E
@  #08 @149   ----------------------------------------
 .byte   PATT
  .word Label_0115FB1E
@  #08 @150   ----------------------------------------
 .byte   PATT
  .word Label_0115FB2E
@  #08 @151   ----------------------------------------
 .byte   PATT
  .word Label_0115FB3E
@  #08 @152   ----------------------------------------
 .byte   PATT
  .word Label_0115FB4E
@  #08 @153   ----------------------------------------
 .byte   PATT
  .word Label_0115FB1E
@  #08 @154   ----------------------------------------
 .byte   PATT
  .word Label_0115FB2E
@  #08 @155   ----------------------------------------
 .byte   PATT
  .word Label_0115FB3E
@  #08 @156   ----------------------------------------
 .byte   PATT
  .word Label_0115FB4E
@  #08 @157   ----------------------------------------
 .byte   PATT
  .word Label_0115FB1E
@  #08 @158   ----------------------------------------
 .byte   PATT
  .word Label_0115FB2E
@  #08 @159   ----------------------------------------
 .byte   PATT
  .word Label_0115FB3E
@  #08 @160   ----------------------------------------
 .byte   PATT
  .word Label_0115FB4E
@  #08 @161   ----------------------------------------
 .byte   PATT
  .word Label_0115FB9A
@  #08 @162   ----------------------------------------
 .byte   PATT
  .word Label_0115FBA6
@  #08 @163   ----------------------------------------
 .byte   PATT
  .word Label_0115FBB2
@  #08 @164   ----------------------------------------
 .byte   N92 ,Gs4 ,v064
 .byte   W96
@  #08 @165   ----------------------------------------
 .byte   N96 ,Fn4
 .byte   W96
@  #08 @166   ----------------------------------------
 .byte   Ds4
 .byte   W96
@  #08 @167   ----------------------------------------
 .byte   Fn4
 .byte   W96
@  #08 @168   ----------------------------------------
 .byte   PATT
  .word Label_0115FBC8
@  #08 @169   ----------------------------------------
 .byte   PATT
  .word Label_0115FBD7
@  #08 @170   ----------------------------------------
 .byte   TIE ,As4 ,v096
 .byte   W96
@  #08 @171   ----------------------------------------
 .byte   W44
 .byte   W03
 .byte   EOT
 .byte   W01
 .byte   N23 ,Fn4
 .byte   W24
 .byte   N24 ,Fn5
 .byte   W24
@  #08 @172   ----------------------------------------
 .byte   PATT
  .word Label_0115FBEC
@  #08 @173   ----------------------------------------
 .byte   PATT
  .word Label_0115FBFA
@  #08 @174   ----------------------------------------
 .byte   W96
@  #08 @175   ----------------------------------------
 .byte   W92
 .byte   W03
 .byte   EOT
 .byte   As4
 .byte   N01 ,As4 ,v096
 .byte   W01
@  #08 @176   ----------------------------------------
 .byte   PATT
  .word Label_0115FC0A
@  #08 @177   ----------------------------------------
 .byte   PATT
  .word Label_0115FBD7
@  #08 @178   ----------------------------------------
 .byte   TIE ,As4 ,v096
 .byte   W96
@  #08 @179   ----------------------------------------
 .byte   W44
 .byte   W03
 .byte   EOT
 .byte   W01
 .byte   N23 ,Fn4
 .byte   W24
 .byte   N24 ,Fn5
 .byte   W24
@  #08 @180   ----------------------------------------
 .byte   PATT
  .word Label_0115FBEC
@  #08 @181   ----------------------------------------
 .byte   PATT
  .word Label_0115FC2E
@  #08 @182   ----------------------------------------
 .byte   W96
@  #08 @183   ----------------------------------------
 .byte   W96
@  #08 @184   ----------------------------------------
 .byte   W92
 .byte   W03
 .byte   EOT
 .byte   Gs5
 .byte   N01 ,Gs5 ,v096
 .byte   W01
 .byte   FINE

@**************** Track 9 (Midi-Chn.8) ****************@

.align 2, 0
song06_009:
@  #09 @000   ----------------------------------------
 .byte   KEYSH , song06_key+0
Label_0115F522:
 .byte   VOICE , 1
 .byte   PAN , c_v+3
 .byte   VOL , 52*song06_mvl/mxv
 .byte   N07 ,Cs5 ,v096
 .byte   W08
 .byte   N07
 .byte   W08
 .byte   N07
 .byte   W08
 .byte   N11
 .byte   W24
 .byte   N07 ,Cn5
 .byte   W08
 .byte   N07
 .byte   W08
 .byte   N07
 .byte   W08
 .byte   N11
 .byte   W24
@  #09 @001   ----------------------------------------
Label_0115F53B:
 .byte   N07 ,Ds4 ,v096
 .byte   W08
 .byte   N07
 .byte   W08
 .byte   N07
 .byte   W08
 .byte   N11
 .byte   W24
 .byte   N07 ,Fn4
 .byte   W08
 .byte   N07
 .byte   W08
 .byte   N07
 .byte   W08
 .byte   N11
 .byte   W24
 .byte   PEND 
@  #09 @002   ----------------------------------------
Label_0115F54F:
 .byte   N07 ,Cs5 ,v096
 .byte   W08
 .byte   N07
 .byte   W08
 .byte   N07
 .byte   W08
 .byte   N11
 .byte   W24
 .byte   N07 ,Cn5
 .byte   W08
 .byte   N07
 .byte   W08
 .byte   N07
 .byte   W08
 .byte   N11
 .byte   W24
 .byte   PEND 
@  #09 @003   ----------------------------------------
 .byte   PATT
  .word Label_0115F53B
@  #09 @004   ----------------------------------------
Label_0115F568:
 .byte   N07 ,As4 ,v096
 .byte   W08
 .byte   N07
 .byte   W08
 .byte   N07
 .byte   W08
 .byte   N11
 .byte   W24
 .byte   N07 ,Gs4
 .byte   W08
 .byte   N07
 .byte   W08
 .byte   N07
 .byte   W08
 .byte   N11
 .byte   W24
 .byte   PEND 
@  #09 @005   ----------------------------------------
Label_0115F57C:
 .byte   N07 ,Cn4 ,v096
 .byte   W08
 .byte   N07
 .byte   W08
 .byte   N07
 .byte   W08
 .byte   N11
 .byte   W24
 .byte   N07 ,Cs4
 .byte   W08
 .byte   N07
 .byte   W08
 .byte   N07
 .byte   W08
 .byte   N11
 .byte   W24
 .byte   PEND 
@  #09 @006   ----------------------------------------
Label_0115F590:
 .byte   N07 ,Gs4 ,v096
 .byte   W08
 .byte   N07
 .byte   W08
 .byte   N07
 .byte   W08
 .byte   N11
 .byte   W24
 .byte   N07 ,Fs4
 .byte   W08
 .byte   N07
 .byte   W08
 .byte   N07
 .byte   W08
 .byte   N11
 .byte   W24
 .byte   PEND 
@  #09 @007   ----------------------------------------
Label_0115F5A4:
 .byte   N07 ,Ds4 ,v096
 .byte   W08
 .byte   N07
 .byte   W08
 .byte   N07
 .byte   W08
 .byte   N11
 .byte   W24
 .byte   N07 ,Fs4
 .byte   W08
 .byte   N07
 .byte   W08
 .byte   N07
 .byte   W08
 .byte   N11
 .byte   W24
 .byte   PEND 
@  #09 @008   ----------------------------------------
 .byte   PATT
  .word Label_0115F54F
@  #09 @009   ----------------------------------------
 .byte   PATT
  .word Label_0115F53B
@  #09 @010   ----------------------------------------
 .byte   PATT
  .word Label_0115F54F
@  #09 @011   ----------------------------------------
 .byte   PATT
  .word Label_0115F53B
@  #09 @012   ----------------------------------------
 .byte   PATT
  .word Label_0115F568
@  #09 @013   ----------------------------------------
 .byte   PATT
  .word Label_0115F57C
@  #09 @014   ----------------------------------------
 .byte   PATT
  .word Label_0115F590
@  #09 @015   ----------------------------------------
 .byte   PATT
  .word Label_0115F5A4
@  #09 @016   ----------------------------------------
Label_0115F5E0:
 .byte   N22 ,Fn4 ,v080
 .byte   W24
 .byte   N17
 .byte   W18
 .byte   N05
 .byte   W06
 .byte   N22 ,Ds4
 .byte   W24
 .byte   N17
 .byte   W18
 .byte   N05
 .byte   W06
 .byte   PEND 
@  #09 @017   ----------------------------------------
Label_0115F5F0:
 .byte   N22 ,Cn4 ,v080
 .byte   W24
 .byte   N17
 .byte   W18
 .byte   N05
 .byte   W06
 .byte   N22 ,Cs4
 .byte   W24
 .byte   N17
 .byte   W18
 .byte   N05
 .byte   W06
 .byte   PEND 
@  #09 @018   ----------------------------------------
Label_0115F600:
 .byte   N22 ,Ds4 ,v080
 .byte   W24
 .byte   N17
 .byte   W18
 .byte   N05
 .byte   W06
 .byte   N22 ,Fn4
 .byte   W24
 .byte   N17
 .byte   W18
 .byte   N05
 .byte   W06
 .byte   PEND 
@  #09 @019   ----------------------------------------
Label_0115F610:
 .byte   N07 ,Ds4 ,v120
 .byte   N07 ,Ds5
 .byte   W08
 .byte   N03 ,Ds4
 .byte   N07 ,Ds5
 .byte   W16
 .byte   N17 ,Ds4
 .byte   N17 ,Ds5
 .byte   W18
 .byte   N05 ,Ds4
 .byte   N05 ,Ds5
 .byte   W06
 .byte   N07 ,Fn4
 .byte   N07 ,Fn5
 .byte   W08
 .byte   N03 ,Fn4
 .byte   N07 ,Fn5
 .byte   W16
 .byte   N17 ,Fn4
 .byte   N17 ,Fn5
 .byte   W18
 .byte   N05 ,Fn4
 .byte   N05 ,Fn5
 .byte   W06
 .byte   PEND 
@  #09 @020   ----------------------------------------
 .byte   W96
@  #09 @021   ----------------------------------------
 .byte   W96
@  #09 @022   ----------------------------------------
 .byte   W96
@  #09 @023   ----------------------------------------
 .byte   W96
@  #09 @024   ----------------------------------------
 .byte   W96
@  #09 @025   ----------------------------------------
 .byte   W96
@  #09 @026   ----------------------------------------
Label_0115F640:
 .byte   N22 ,As4 ,v080
 .byte   W24
 .byte   N24 ,Cn5
 .byte   W24
 .byte   Cs5
 .byte   W24
 .byte   N17 ,Ds5
 .byte   W18
 .byte   N05
 .byte   W06
 .byte   PEND 
@  #09 @027   ----------------------------------------
Label_0115F64F:
 .byte   N22 ,Cn5 ,v080
 .byte   W24
 .byte   N24 ,As4
 .byte   W24
 .byte   Fn4
 .byte   W24
 .byte   Cs4
 .byte   W24
 .byte   PEND 
@  #09 @028   ----------------------------------------
 .byte   W96
@  #09 @029   ----------------------------------------
 .byte   W96
@  #09 @030   ----------------------------------------
 .byte   W96
@  #09 @031   ----------------------------------------
Label_0115F65E:
 .byte   W40
 .byte   N07 ,Fn4 ,v080
 .byte   W08
 .byte   N08 ,As4
 .byte   W08
 .byte   Fn4
 .byte   W08
 .byte   Cs4
 .byte   W08
 .byte   As3
 .byte   W08
 .byte   Fn3
 .byte   W08
 .byte   Cs3
 .byte   W08
 .byte   PEND 
@  #09 @032   ----------------------------------------
Label_0115F671:
 .byte   N07 ,Cn3 ,v080
 .byte   W08
 .byte   N08 ,Cs3
 .byte   W08
 .byte   Ds3
 .byte   W08
 .byte   Fn3
 .byte   W08
 .byte   Ds3
 .byte   W08
 .byte   Cs3
 .byte   W08
 .byte   Cn4
 .byte   W08
 .byte   As3
 .byte   W08
 .byte   Fs3
 .byte   W08
 .byte   Fn3
 .byte   W08
 .byte   Cs3
 .byte   W08
 .byte   Fn3
 .byte   W08
 .byte   PEND 
@  #09 @033   ----------------------------------------
Label_0115F68D:
 .byte   N07 ,Ds4 ,v080
 .byte   W08
 .byte   N08 ,Gs3
 .byte   W08
 .byte   As3
 .byte   W08
 .byte   Ds4
 .byte   W08
 .byte   As3
 .byte   W08
 .byte   Cn4
 .byte   W08
 .byte   Cs4
 .byte   W08
 .byte   Cn4
 .byte   W08
 .byte   As3
 .byte   W08
 .byte   Gs3
 .byte   W08
 .byte   Fn3
 .byte   W08
 .byte   Cs3
 .byte   W08
 .byte   PEND 
@  #09 @034   ----------------------------------------
Label_0115F6A9:
 .byte   N07 ,Cs5 ,v080
 .byte   W08
 .byte   N08 ,Gs4
 .byte   W08
 .byte   As4
 .byte   W08
 .byte   Ds5
 .byte   W08
 .byte   Ds4
 .byte   W08
 .byte   Fn4
 .byte   W08
 .byte   Gs4
 .byte   W08
 .byte   As4
 .byte   W08
 .byte   Gs4
 .byte   W08
 .byte   Fn4
 .byte   W08
 .byte   Ds4
 .byte   W08
 .byte   Cs4
 .byte   W08
 .byte   PEND 
@  #09 @035   ----------------------------------------
Label_0115F6C5:
 .byte   N07 ,Cn4 ,v080
 .byte   W08
 .byte   N08 ,As3
 .byte   W08
 .byte   Gs3
 .byte   W08
 .byte   Fn3
 .byte   W08
 .byte   Fs3
 .byte   W08
 .byte   Fn3
 .byte   W08
 .byte   Ds3
 .byte   W08
 .byte   Cs3
 .byte   W08
 .byte   Cn3
 .byte   W08
 .byte   As2
 .byte   W08
 .byte   Gs2
 .byte   W08
 .byte   Fn2
 .byte   W08
 .byte   PEND 
@  #09 @036   ----------------------------------------
 .byte   W96
@  #09 @037   ----------------------------------------
 .byte   W96
@  #09 @038   ----------------------------------------
 .byte   W96
@  #09 @039   ----------------------------------------
 .byte   W96
@  #09 @040   ----------------------------------------
 .byte   W96
@  #09 @041   ----------------------------------------
 .byte   W96
@  #09 @042   ----------------------------------------
 .byte   PATT
  .word Label_0115F640
@  #09 @043   ----------------------------------------
 .byte   PATT
  .word Label_0115F64F
@  #09 @044   ----------------------------------------
 .byte   W96
@  #09 @045   ----------------------------------------
 .byte   W96
@  #09 @046   ----------------------------------------
 .byte   W96
@  #09 @047   ----------------------------------------
 .byte   PATT
  .word Label_0115F65E
@  #09 @048   ----------------------------------------
 .byte   PATT
  .word Label_0115F671
@  #09 @049   ----------------------------------------
 .byte   PATT
  .word Label_0115F68D
@  #09 @050   ----------------------------------------
Label_0115F703:
 .byte   N07 ,Cs5 ,v120
 .byte   W08
 .byte   N08 ,Gs4 ,v080
 .byte   W08
 .byte   As4
 .byte   W08
 .byte   N03 ,Ds5 ,v120
 .byte   W08
 .byte   N08 ,Ds4 ,v080
 .byte   W08
 .byte   Fn4
 .byte   W08
 .byte   Gs4
 .byte   W08
 .byte   As4
 .byte   W08
 .byte   Gs4
 .byte   W08
 .byte   Fn4
 .byte   W08
 .byte   Ds4
 .byte   W08
 .byte   Cs4
 .byte   W08
 .byte   PEND 
@  #09 @051   ----------------------------------------
 .byte   PATT
  .word Label_0115F6C5
@  #09 @052   ----------------------------------------
 .byte   W96
@  #09 @053   ----------------------------------------
 .byte   W96
@  #09 @054   ----------------------------------------
 .byte   W96
@  #09 @055   ----------------------------------------
 .byte   W96
@  #09 @056   ----------------------------------------
 .byte   W96
@  #09 @057   ----------------------------------------
 .byte   W96
@  #09 @058   ----------------------------------------
 .byte   W96
@  #09 @059   ----------------------------------------
 .byte   W96
@  #09 @060   ----------------------------------------
 .byte   W96
@  #09 @061   ----------------------------------------
 .byte   W96
@  #09 @062   ----------------------------------------
 .byte   W96
@  #09 @063   ----------------------------------------
 .byte   W96
@  #09 @064   ----------------------------------------
 .byte   W96
@  #09 @065   ----------------------------------------
 .byte   W96
@  #09 @066   ----------------------------------------
 .byte   W96
@  #09 @067   ----------------------------------------
 .byte   W96
@  #09 @068   ----------------------------------------
 .byte   W96
@  #09 @069   ----------------------------------------
 .byte   W96
@  #09 @070   ----------------------------------------
 .byte   W96
@  #09 @071   ----------------------------------------
 .byte   W96
@  #09 @072   ----------------------------------------
 .byte   W96
@  #09 @073   ----------------------------------------
 .byte   W96
@  #09 @074   ----------------------------------------
 .byte   W96
@  #09 @075   ----------------------------------------
 .byte   W96
@  #09 @076   ----------------------------------------
 .byte   W96
@  #09 @077   ----------------------------------------
 .byte   W96
@  #09 @078   ----------------------------------------
 .byte   W96
@  #09 @079   ----------------------------------------
 .byte   W96
@  #09 @080   ----------------------------------------
 .byte   W96
@  #09 @081   ----------------------------------------
 .byte   W96
@  #09 @082   ----------------------------------------
 .byte   W96
@  #09 @083   ----------------------------------------
 .byte   W96
@  #09 @084   ----------------------------------------
 .byte   W96
@  #09 @085   ----------------------------------------
 .byte   W96
@  #09 @086   ----------------------------------------
 .byte   W96
@  #09 @087   ----------------------------------------
 .byte   W96
@  #09 @088   ----------------------------------------
 .byte   W96
@  #09 @089   ----------------------------------------
 .byte   W96
@  #09 @090   ----------------------------------------
 .byte   W96
@  #09 @091   ----------------------------------------
 .byte   W96
@  #09 @092   ----------------------------------------
 .byte   GOTO
  .word Label_0115F522
@  #09 @093   ----------------------------------------
 .byte   PATT
  .word Label_0115F54F
@  #09 @094   ----------------------------------------
 .byte   PATT
  .word Label_0115F53B
@  #09 @095   ----------------------------------------
 .byte   PATT
  .word Label_0115F54F
@  #09 @096   ----------------------------------------
 .byte   PATT
  .word Label_0115F53B
@  #09 @097   ----------------------------------------
 .byte   PATT
  .word Label_0115F568
@  #09 @098   ----------------------------------------
 .byte   PATT
  .word Label_0115F57C
@  #09 @099   ----------------------------------------
 .byte   PATT
  .word Label_0115F590
@  #09 @100   ----------------------------------------
 .byte   PATT
  .word Label_0115F5A4
@  #09 @101   ----------------------------------------
 .byte   PATT
  .word Label_0115F54F
@  #09 @102   ----------------------------------------
 .byte   PATT
  .word Label_0115F53B
@  #09 @103   ----------------------------------------
 .byte   PATT
  .word Label_0115F54F
@  #09 @104   ----------------------------------------
 .byte   PATT
  .word Label_0115F53B
@  #09 @105   ----------------------------------------
 .byte   PATT
  .word Label_0115F568
@  #09 @106   ----------------------------------------
 .byte   PATT
  .word Label_0115F57C
@  #09 @107   ----------------------------------------
 .byte   PATT
  .word Label_0115F590
@  #09 @108   ----------------------------------------
 .byte   PATT
  .word Label_0115F5A4
@  #09 @109   ----------------------------------------
 .byte   PATT
  .word Label_0115F5E0
@  #09 @110   ----------------------------------------
 .byte   PATT
  .word Label_0115F5F0
@  #09 @111   ----------------------------------------
 .byte   PATT
  .word Label_0115F600
@  #09 @112   ----------------------------------------
 .byte   PATT
  .word Label_0115F610
@  #09 @113   ----------------------------------------
 .byte   W96
@  #09 @114   ----------------------------------------
 .byte   W96
@  #09 @115   ----------------------------------------
 .byte   W96
@  #09 @116   ----------------------------------------
 .byte   W96
@  #09 @117   ----------------------------------------
 .byte   W96
@  #09 @118   ----------------------------------------
 .byte   W96
@  #09 @119   ----------------------------------------
 .byte   PATT
  .word Label_0115F640
@  #09 @120   ----------------------------------------
 .byte   PATT
  .word Label_0115F64F
@  #09 @121   ----------------------------------------
 .byte   W96
@  #09 @122   ----------------------------------------
 .byte   W96
@  #09 @123   ----------------------------------------
 .byte   W96
@  #09 @124   ----------------------------------------
 .byte   PATT
  .word Label_0115F65E
@  #09 @125   ----------------------------------------
 .byte   PATT
  .word Label_0115F671
@  #09 @126   ----------------------------------------
 .byte   PATT
  .word Label_0115F68D
@  #09 @127   ----------------------------------------
 .byte   PATT
  .word Label_0115F6A9
@  #09 @128   ----------------------------------------
 .byte   PATT
  .word Label_0115F6C5
@  #09 @129   ----------------------------------------
 .byte   W96
@  #09 @130   ----------------------------------------
 .byte   W96
@  #09 @131   ----------------------------------------
 .byte   W96
@  #09 @132   ----------------------------------------
 .byte   W96
@  #09 @133   ----------------------------------------
 .byte   W96
@  #09 @134   ----------------------------------------
 .byte   W96
@  #09 @135   ----------------------------------------
 .byte   PATT
  .word Label_0115F640
@  #09 @136   ----------------------------------------
 .byte   PATT
  .word Label_0115F64F
@  #09 @137   ----------------------------------------
 .byte   W96
@  #09 @138   ----------------------------------------
 .byte   W96
@  #09 @139   ----------------------------------------
 .byte   W96
@  #09 @140   ----------------------------------------
 .byte   PATT
  .word Label_0115F65E
@  #09 @141   ----------------------------------------
 .byte   PATT
  .word Label_0115F671
@  #09 @142   ----------------------------------------
 .byte   PATT
  .word Label_0115F68D
@  #09 @143   ----------------------------------------
 .byte   PATT
  .word Label_0115F703
@  #09 @144   ----------------------------------------
 .byte   PATT
  .word Label_0115F6C5
@  #09 @145   ----------------------------------------
 .byte   W96
@  #09 @146   ----------------------------------------
 .byte   W96
@  #09 @147   ----------------------------------------
 .byte   W96
@  #09 @148   ----------------------------------------
 .byte   W96
@  #09 @149   ----------------------------------------
 .byte   W96
@  #09 @150   ----------------------------------------
 .byte   W96
@  #09 @151   ----------------------------------------
 .byte   W96
@  #09 @152   ----------------------------------------
 .byte   W96
@  #09 @153   ----------------------------------------
 .byte   W96
@  #09 @154   ----------------------------------------
 .byte   W96
@  #09 @155   ----------------------------------------
 .byte   W96
@  #09 @156   ----------------------------------------
 .byte   W96
@  #09 @157   ----------------------------------------
 .byte   W96
@  #09 @158   ----------------------------------------
 .byte   W96
@  #09 @159   ----------------------------------------
 .byte   W96
@  #09 @160   ----------------------------------------
 .byte   W96
@  #09 @161   ----------------------------------------
 .byte   W96
@  #09 @162   ----------------------------------------
 .byte   W96
@  #09 @163   ----------------------------------------
 .byte   W96
@  #09 @164   ----------------------------------------
 .byte   W96
@  #09 @165   ----------------------------------------
 .byte   W96
@  #09 @166   ----------------------------------------
 .byte   W96
@  #09 @167   ----------------------------------------
 .byte   W96
@  #09 @168   ----------------------------------------
 .byte   W96
@  #09 @169   ----------------------------------------
 .byte   W96
@  #09 @170   ----------------------------------------
 .byte   W96
@  #09 @171   ----------------------------------------
 .byte   W96
@  #09 @172   ----------------------------------------
 .byte   W96
@  #09 @173   ----------------------------------------
 .byte   W96
@  #09 @174   ----------------------------------------
 .byte   W96
@  #09 @175   ----------------------------------------
 .byte   W96
@  #09 @176   ----------------------------------------
 .byte   W96
@  #09 @177   ----------------------------------------
 .byte   W96
@  #09 @178   ----------------------------------------
 .byte   W96
@  #09 @179   ----------------------------------------
 .byte   W96
@  #09 @180   ----------------------------------------
 .byte   W96
@  #09 @181   ----------------------------------------
 .byte   W96
@  #09 @182   ----------------------------------------
 .byte   W96
@  #09 @183   ----------------------------------------
 .byte   W96
@  #09 @184   ----------------------------------------
 .byte   W96
 .byte   FINE

@**************** Track 10 (Midi-Chn.9) ****************@

.align 2, 0
song06_010:
@  #10 @000   ----------------------------------------
 .byte   KEYSH , song06_key+0
Label_0116332E:
 .byte   VOICE , 124
 .byte   PAN , c_v-7
 .byte   VOL , 92*song06_mvl/mxv
 .byte   Dn3 ,v080
 .byte   N92 ,Bn0 ,v096
 .byte   N16 ,Dn1 ,v060
 .byte   N92 ,An2 ,v064
 .byte   W24
 .byte   N07 ,Dn1 ,v036
 .byte   W08
 .byte   N07
 .byte   W08
 .byte   N07
 .byte   W08
 .byte   N17
 .byte   W18
 .byte   N05
 .byte   W06
 .byte   N07
 .byte   W08
 .byte   N07
 .byte   W08
 .byte   N07
 .byte   W08
@  #10 @001   ----------------------------------------
Label_01163352:
 .byte   N16 ,Dn1 ,v060
 .byte   W24
 .byte   N07 ,Dn1 ,v036
 .byte   W08
 .byte   N07
 .byte   W08
 .byte   N07
 .byte   W08
 .byte   N17
 .byte   W18
 .byte   N05
 .byte   W06
 .byte   N23 ,Bn0 ,v096
 .byte   N07 ,Dn1 ,v036
 .byte   W08
 .byte   N07
 .byte   W08
 .byte   N07
 .byte   W08
 .byte   PEND 
@  #10 @002   ----------------------------------------
Label_0116336E:
 .byte   N23 ,Dn1 ,v036
 .byte   W24
 .byte   N68 ,Bn0 ,v096
 .byte   N07 ,Dn1 ,v036
 .byte   W08
 .byte   N07
 .byte   W08
 .byte   N07
 .byte   W08
 .byte   N17
 .byte   W18
 .byte   N05
 .byte   W06
 .byte   Dn1 ,v060
 .byte   W08
 .byte   N05
 .byte   W08
 .byte   N05
 .byte   W08
 .byte   PEND 
@  #10 @003   ----------------------------------------
Label_01163389:
 .byte   N12 ,Dn1 ,v060
 .byte   W18
 .byte   N12
 .byte   W18
 .byte   N11 ,Dn1 ,v036
 .byte   W12
 .byte   N17
 .byte   W18
 .byte   N05
 .byte   W06
 .byte   N23 ,Bn0 ,v096
 .byte   N07 ,Dn1 ,v036
 .byte   W08
 .byte   N07
 .byte   W08
 .byte   N07
 .byte   W08
 .byte   PEND 
@  #10 @004   ----------------------------------------
Label_011633A3:
 .byte   N92 ,Bn0 ,v096
 .byte   N23 ,Dn1 ,v036
 .byte   W24
 .byte   N07
 .byte   W08
 .byte   N07
 .byte   W08
 .byte   N07
 .byte   W08
 .byte   N17
 .byte   W18
 .byte   N05
 .byte   W06
 .byte   Dn1 ,v060
 .byte   W08
 .byte   N05
 .byte   W08
 .byte   N05
 .byte   W08
 .byte   PEND 
@  #10 @005   ----------------------------------------
 .byte   PATT
  .word Label_01163352
@  #10 @006   ----------------------------------------
 .byte   PATT
  .word Label_0116336E
@  #10 @007   ----------------------------------------
Label_011633C6:
 .byte   N44 ,Bn0 ,v096
 .byte   N16 ,Dn1 ,v060
 .byte   W48
 .byte   N44 ,Bn0 ,v096
 .byte   N16 ,Dn1 ,v060
 .byte   W48
 .byte   PEND 
@  #10 @008   ----------------------------------------
Label_011633D5:
 .byte   N92 ,Bn0 ,v096
 .byte   N16 ,Dn1 ,v060
 .byte   N92 ,An2 ,v064
 .byte   W24
 .byte   N07 ,Dn1 ,v036
 .byte   W08
 .byte   N07
 .byte   W08
 .byte   N07
 .byte   W08
 .byte   N17
 .byte   W18
 .byte   N05
 .byte   W06
 .byte   N07
 .byte   W08
 .byte   N07
 .byte   W08
 .byte   N07
 .byte   W08
 .byte   PEND 
@  #10 @009   ----------------------------------------
 .byte   PATT
  .word Label_01163352
@  #10 @010   ----------------------------------------
 .byte   PATT
  .word Label_0116336E
@  #10 @011   ----------------------------------------
 .byte   PATT
  .word Label_01163389
@  #10 @012   ----------------------------------------
 .byte   PATT
  .word Label_011633A3
@  #10 @013   ----------------------------------------
 .byte   PATT
  .word Label_01163352
@  #10 @014   ----------------------------------------
 .byte   PATT
  .word Label_0116336E
@  #10 @015   ----------------------------------------
 .byte   PATT
  .word Label_011633C6
@  #10 @016   ----------------------------------------
 .byte   W96
@  #10 @017   ----------------------------------------
 .byte   W96
@  #10 @018   ----------------------------------------
 .byte   W96
@  #10 @019   ----------------------------------------
 .byte   W96
@  #10 @020   ----------------------------------------
Label_01163419:
 .byte   W48
 .byte   N44 ,Bn0 ,v096
 .byte   N44 ,An2 ,v064
 .byte   W48
 .byte   PEND 
@  #10 @021   ----------------------------------------
Label_01163422:
 .byte   N44 ,Bn0 ,v096
 .byte   N17 ,Dn1 ,v064
 .byte   W18
 .byte   N05
 .byte   W06
 .byte   N23
 .byte   W24
 .byte   N23
 .byte   W24
 .byte   Bn0 ,v096
 .byte   N23 ,Dn1 ,v064
 .byte   W24
 .byte   PEND 
@  #10 @022   ----------------------------------------
Label_01163436:
 .byte   N11 ,Dn1 ,v064
 .byte   W12
 .byte   N11
 .byte   W48
 .byte   N17
 .byte   W24
 .byte   N11
 .byte   W12
 .byte   PEND 
@  #10 @023   ----------------------------------------
Label_01163441:
 .byte   N92 ,Bn0 ,v096
 .byte   N11 ,Dn1 ,v064
 .byte   W12
 .byte   N11
 .byte   W48
 .byte   N17
 .byte   W24
 .byte   N11
 .byte   W12
 .byte   PEND 
@  #10 @024   ----------------------------------------
Label_0116344F:
 .byte   W48
 .byte   N44 ,Bn0 ,v096
 .byte   N44 ,An2 ,v064
 .byte   W12
 .byte   N17 ,Dn1
 .byte   W24
 .byte   N11
 .byte   W12
 .byte   PEND 
@  #10 @025   ----------------------------------------
Label_0116345D:
 .byte   N44 ,Bn0 ,v096
 .byte   N11 ,Dn1 ,v064
 .byte   W12
 .byte   N11
 .byte   W48
 .byte   N17
 .byte   W12
 .byte   N23 ,Bn0 ,v096
 .byte   W12
 .byte   N11 ,Dn1 ,v064
 .byte   W12
 .byte   PEND 
@  #10 @026   ----------------------------------------
Label_01163471:
 .byte   N23 ,Dn1 ,v064
 .byte   W24
 .byte   N23
 .byte   W24
 .byte   N23
 .byte   W24
 .byte   N17
 .byte   W18
 .byte   N05
 .byte   W06
 .byte   PEND 
@  #10 @027   ----------------------------------------
 .byte   N92 ,Bn0 ,v096
 .byte   N23 ,Dn1 ,v064
 .byte   W24
 .byte   N23
 .byte   W24
 .byte   N23
 .byte   W24
 .byte   N07
 .byte   W08
 .byte   N07
 .byte   W08
 .byte   N07
 .byte   W08
@  #10 @028   ----------------------------------------
 .byte   PATT
  .word Label_01163419
@  #10 @029   ----------------------------------------
 .byte   N44 ,Bn0 ,v096
 .byte   W60
 .byte   N17 ,Dn1 ,v064
 .byte   W12
 .byte   N23 ,Bn0 ,v096
 .byte   W12
 .byte   N11 ,Dn1 ,v064
 .byte   W12
@  #10 @030   ----------------------------------------
 .byte   PATT
  .word Label_01163436
@  #10 @031   ----------------------------------------
 .byte   PATT
  .word Label_01163441
@  #10 @032   ----------------------------------------
 .byte   N11 ,Dn1 ,v064
 .byte   W12
 .byte   N11
 .byte   W36
 .byte   N44 ,Bn0 ,v096
 .byte   W12
 .byte   N17 ,Dn1 ,v064
 .byte   W24
 .byte   N11
 .byte   W12
@  #10 @033   ----------------------------------------
 .byte   PATT
  .word Label_0116345D
@  #10 @034   ----------------------------------------
 .byte   PATT
  .word Label_01163436
@  #10 @035   ----------------------------------------
 .byte   PATT
  .word Label_01163441
@  #10 @036   ----------------------------------------
 .byte   W48
 .byte   N44 ,Bn0 ,v096
 .byte   N44 ,An2 ,v052
 .byte   W48
@  #10 @037   ----------------------------------------
 .byte   PATT
  .word Label_01163422
@  #10 @038   ----------------------------------------
 .byte   PATT
  .word Label_01163436
@  #10 @039   ----------------------------------------
 .byte   PATT
  .word Label_01163441
@  #10 @040   ----------------------------------------
 .byte   W48
 .byte   N44 ,Bn0 ,v096
 .byte   N44 ,An2 ,v052
 .byte   W12
 .byte   N17 ,Dn1 ,v064
 .byte   W24
 .byte   N11
 .byte   W12
@  #10 @041   ----------------------------------------
 .byte   PATT
  .word Label_0116345D
@  #10 @042   ----------------------------------------
 .byte   PATT
  .word Label_01163471
@  #10 @043   ----------------------------------------
Label_011634FC:
 .byte   N23 ,Bn0 ,v096
 .byte   N23 ,Dn1 ,v064
 .byte   W24
 .byte   N68 ,Bn0 ,v096
 .byte   N23 ,Dn1 ,v064
 .byte   W24
 .byte   N23
 .byte   W24
 .byte   N07
 .byte   W08
 .byte   N07
 .byte   W08
 .byte   N07
 .byte   W08
 .byte   PEND 
@  #10 @044   ----------------------------------------
 .byte   PATT
  .word Label_01163419
@  #10 @045   ----------------------------------------
Label_01163518:
 .byte   N44 ,Bn0 ,v096
 .byte   N11 ,Dn1 ,v064
 .byte   W12
 .byte   N11
 .byte   W36
 .byte   N11
 .byte   W12
 .byte   N11
 .byte   W12
 .byte   N23 ,Bn0 ,v096
 .byte   W12
 .byte   N11 ,Dn1 ,v064
 .byte   W12
 .byte   PEND 
@  #10 @046   ----------------------------------------
Label_0116352E:
 .byte   N11 ,Dn1 ,v064
 .byte   W12
 .byte   N11
 .byte   W36
 .byte   N11
 .byte   W12
 .byte   N11
 .byte   W24
 .byte   N11
 .byte   W12
 .byte   PEND 
@  #10 @047   ----------------------------------------
 .byte   N68 ,Bn0 ,v096
 .byte   N11 ,Dn1 ,v064
 .byte   W12
 .byte   N11
 .byte   W36
 .byte   N11
 .byte   W12
 .byte   N11
 .byte   W24
 .byte   N05 ,Bn0 ,v096
 .byte   N11 ,Dn1 ,v064
 .byte   W06
 .byte   N05 ,Bn0 ,v096
 .byte   W06
@  #10 @048   ----------------------------------------
Label_01163553:
 .byte   N92 ,Bn0 ,v096
 .byte   N11 ,Dn1 ,v064
 .byte   W12
 .byte   N11
 .byte   W36
 .byte   N11
 .byte   W12
 .byte   N11
 .byte   W24
 .byte   N11
 .byte   W12
 .byte   PEND 
@  #10 @049   ----------------------------------------
 .byte   PATT
  .word Label_0116352E
@  #10 @050   ----------------------------------------
 .byte   PATT
  .word Label_01163553
@  #10 @051   ----------------------------------------
 .byte   PATT
  .word Label_01163553
@  #10 @052   ----------------------------------------
Label_01163572:
 .byte   N23 ,Bn0 ,v096
 .byte   N23 ,Dn1 ,v064
 .byte   N92 ,An2 ,v052
 .byte   W24
 .byte   N68 ,Bn0 ,v096
 .byte   N23 ,Dn1 ,v064
 .byte   W24
 .byte   N23
 .byte   W24
 .byte   N07
 .byte   W08
 .byte   N07
 .byte   W08
 .byte   N07
 .byte   W08
 .byte   PEND 
@  #10 @053   ----------------------------------------
 .byte   PATT
  .word Label_011634FC
@  #10 @054   ----------------------------------------
 .byte   PATT
  .word Label_011634FC
@  #10 @055   ----------------------------------------
 .byte   PATT
  .word Label_011634FC
@  #10 @056   ----------------------------------------
 .byte   PATT
  .word Label_011634FC
@  #10 @057   ----------------------------------------
 .byte   PATT
  .word Label_011634FC
@  #10 @058   ----------------------------------------
 .byte   PATT
  .word Label_011634FC
@  #10 @059   ----------------------------------------
 .byte   PATT
  .word Label_011634FC
@  #10 @060   ----------------------------------------
 .byte   PATT
  .word Label_01163572
@  #10 @061   ----------------------------------------
 .byte   PATT
  .word Label_011634FC
@  #10 @062   ----------------------------------------
 .byte   PATT
  .word Label_011634FC
@  #10 @063   ----------------------------------------
 .byte   PATT
  .word Label_011634FC
@  #10 @064   ----------------------------------------
 .byte   PATT
  .word Label_011634FC
@  #10 @065   ----------------------------------------
 .byte   PATT
  .word Label_011634FC
@  #10 @066   ----------------------------------------
 .byte   PATT
  .word Label_011634FC
@  #10 @067   ----------------------------------------
 .byte   PATT
  .word Label_011634FC
@  #10 @068   ----------------------------------------
Label_011635D7:
 .byte   N23 ,Bn0 ,v096
 .byte   N23 ,Dn1 ,v064
 .byte   N92 ,An2 ,v052
 .byte   W24
 .byte   N44 ,Bn0 ,v096
 .byte   N23 ,Dn1 ,v064
 .byte   W24
 .byte   N23
 .byte   W24
 .byte   Bn0 ,v096
 .byte   N07 ,Dn1 ,v064
 .byte   W08
 .byte   N07
 .byte   W08
 .byte   N07
 .byte   W08
 .byte   PEND 
@  #10 @069   ----------------------------------------
Label_011635F5:
 .byte   N23 ,Dn1 ,v064
 .byte   W24
 .byte   N68 ,Bn0 ,v096
 .byte   N23 ,Dn1 ,v064
 .byte   W24
 .byte   N23
 .byte   W24
 .byte   N07
 .byte   W08
 .byte   N07
 .byte   W08
 .byte   N07
 .byte   W08
 .byte   PEND 
@  #10 @070   ----------------------------------------
 .byte   N23 ,Bn0 ,v096
 .byte   N23 ,Dn1 ,v064
 .byte   W24
 .byte   N44 ,Bn0 ,v096
 .byte   N23 ,Dn1 ,v064
 .byte   W24
 .byte   N23
 .byte   W24
 .byte   Bn0 ,v096
 .byte   N07 ,Dn1 ,v064
 .byte   W08
 .byte   N07
 .byte   W08
 .byte   N07
 .byte   W08
@  #10 @071   ----------------------------------------
 .byte   PATT
  .word Label_011635F5
@  #10 @072   ----------------------------------------
 .byte   PATT
  .word Label_011635D7
@  #10 @073   ----------------------------------------
 .byte   PATT
  .word Label_011635F5
@  #10 @074   ----------------------------------------
 .byte   PATT
  .word Label_011634FC
@  #10 @075   ----------------------------------------
 .byte   N23 ,Dn1 ,v064
 .byte   W24
 .byte   N23
 .byte   W24
 .byte   N07
 .byte   W08
 .byte   N07
 .byte   W08
 .byte   N07
 .byte   W08
 .byte   N07
 .byte   W08
 .byte   N07
 .byte   W08
 .byte   N07
 .byte   W08
@  #10 @076   ----------------------------------------
Label_01163649:
 .byte   N11 ,Dn1 ,v064
 .byte   W12
 .byte   N11
 .byte   W36
 .byte   N44 ,Bn0 ,v096
 .byte   N11 ,Dn1 ,v064
 .byte   N44 ,An2 ,v052
 .byte   W12
 .byte   N11 ,Dn1 ,v064
 .byte   W24
 .byte   N11
 .byte   W12
 .byte   PEND 
@  #10 @077   ----------------------------------------
 .byte   PATT
  .word Label_01163518
@  #10 @078   ----------------------------------------
 .byte   PATT
  .word Label_0116352E
@  #10 @079   ----------------------------------------
 .byte   PATT
  .word Label_01163553
@  #10 @080   ----------------------------------------
 .byte   W48
 .byte   N44 ,Bn0 ,v096
 .byte   N11 ,Dn1 ,v064
 .byte   W12
 .byte   N11
 .byte   W24
 .byte   N11
 .byte   W12
@  #10 @081   ----------------------------------------
 .byte   PATT
  .word Label_01163518
@  #10 @082   ----------------------------------------
 .byte   PATT
  .word Label_0116352E
@  #10 @083   ----------------------------------------
 .byte   PATT
  .word Label_01163553
@  #10 @084   ----------------------------------------
 .byte   N02 ,Dn1 ,v064
 .byte   W02
 .byte   N03
 .byte   W03
 .byte   N03
 .byte   W03
 .byte   N03
 .byte   W03
 .byte   N03
 .byte   W03
 .byte   N03
 .byte   W03
 .byte   N03
 .byte   W03
 .byte   N03
 .byte   W03
 .byte   N03
 .byte   W03
 .byte   N03
 .byte   W03
 .byte   N03
 .byte   W03
 .byte   N03
 .byte   W03
 .byte   N03
 .byte   W03
 .byte   N03
 .byte   W03
 .byte   N03
 .byte   W03
 .byte   N03
 .byte   W04
 .byte   N44 ,Bn0 ,v096
 .byte   N11 ,Dn1 ,v064
 .byte   N44 ,An2 ,v052
 .byte   W12
 .byte   N11 ,Dn1 ,v064
 .byte   W24
 .byte   N11
 .byte   W12
@  #10 @085   ----------------------------------------
 .byte   PATT
  .word Label_01163518
@  #10 @086   ----------------------------------------
 .byte   PATT
  .word Label_0116352E
@  #10 @087   ----------------------------------------
 .byte   PATT
  .word Label_01163553
@  #10 @088   ----------------------------------------
 .byte   PATT
  .word Label_01163649
@  #10 @089   ----------------------------------------
 .byte   PATT
  .word Label_01163518
@  #10 @090   ----------------------------------------
 .byte   PATT
  .word Label_0116352E
@  #10 @091   ----------------------------------------
 .byte   PATT
  .word Label_01163553
@  #10 @092   ----------------------------------------
 .byte   GOTO
  .word Label_0116332E
@  #10 @093   ----------------------------------------
 .byte   PATT
  .word Label_011633D5
@  #10 @094   ----------------------------------------
 .byte   PATT
  .word Label_01163352
@  #10 @095   ----------------------------------------
 .byte   PATT
  .word Label_0116336E
@  #10 @096   ----------------------------------------
 .byte   PATT
  .word Label_01163389
@  #10 @097   ----------------------------------------
 .byte   PATT
  .word Label_011633A3
@  #10 @098   ----------------------------------------
 .byte   PATT
  .word Label_01163352
@  #10 @099   ----------------------------------------
 .byte   PATT
  .word Label_0116336E
@  #10 @100   ----------------------------------------
 .byte   PATT
  .word Label_011633C6
@  #10 @101   ----------------------------------------
 .byte   PATT
  .word Label_011633D5
@  #10 @102   ----------------------------------------
 .byte   PATT
  .word Label_01163352
@  #10 @103   ----------------------------------------
 .byte   PATT
  .word Label_0116336E
@  #10 @104   ----------------------------------------
 .byte   PATT
  .word Label_01163389
@  #10 @105   ----------------------------------------
 .byte   PATT
  .word Label_011633A3
@  #10 @106   ----------------------------------------
 .byte   PATT
  .word Label_01163352
@  #10 @107   ----------------------------------------
 .byte   PATT
  .word Label_0116336E
@  #10 @108   ----------------------------------------
 .byte   PATT
  .word Label_011633C6
@  #10 @109   ----------------------------------------
 .byte   W96
@  #10 @110   ----------------------------------------
 .byte   W96
@  #10 @111   ----------------------------------------
 .byte   W96
@  #10 @112   ----------------------------------------
 .byte   W96
@  #10 @113   ----------------------------------------
 .byte   PATT
  .word Label_01163419
@  #10 @114   ----------------------------------------
 .byte   PATT
  .word Label_01163422
@  #10 @115   ----------------------------------------
 .byte   PATT
  .word Label_01163436
@  #10 @116   ----------------------------------------
 .byte   PATT
  .word Label_01163441
@  #10 @117   ----------------------------------------
 .byte   PATT
  .word Label_0116344F
@  #10 @118   ----------------------------------------
 .byte   PATT
  .word Label_0116345D
@  #10 @119   ----------------------------------------
 .byte   W96
@  #10 @120   ----------------------------------------
 .byte   W96
@  #10 @121   ----------------------------------------
 .byte   W96
@  #10 @122   ----------------------------------------
 .byte   W96
@  #10 @123   ----------------------------------------
 .byte   W96
@  #10 @124   ----------------------------------------
 .byte   W96
@  #10 @125   ----------------------------------------
 .byte   W96
@  #10 @126   ----------------------------------------
 .byte   W96
@  #10 @127   ----------------------------------------
 .byte   W96
@  #10 @128   ----------------------------------------
 .byte   W96
@  #10 @129   ----------------------------------------
 .byte   W96
@  #10 @130   ----------------------------------------
 .byte   W96
@  #10 @131   ----------------------------------------
 .byte   W96
@  #10 @132   ----------------------------------------
 .byte   W96
@  #10 @133   ----------------------------------------
 .byte   W96
@  #10 @134   ----------------------------------------
 .byte   W96
@  #10 @135   ----------------------------------------
 .byte   W96
@  #10 @136   ----------------------------------------
 .byte   W96
@  #10 @137   ----------------------------------------
 .byte   W96
@  #10 @138   ----------------------------------------
 .byte   W96
@  #10 @139   ----------------------------------------
 .byte   W96
@  #10 @140   ----------------------------------------
 .byte   W96
@  #10 @141   ----------------------------------------
 .byte   W96
@  #10 @142   ----------------------------------------
 .byte   W96
@  #10 @143   ----------------------------------------
 .byte   W96
@  #10 @144   ----------------------------------------
 .byte   W96
@  #10 @145   ----------------------------------------
 .byte   W96
@  #10 @146   ----------------------------------------
 .byte   W96
@  #10 @147   ----------------------------------------
 .byte   W96
@  #10 @148   ----------------------------------------
 .byte   W96
@  #10 @149   ----------------------------------------
 .byte   W96
@  #10 @150   ----------------------------------------
 .byte   W96
@  #10 @151   ----------------------------------------
 .byte   W96
@  #10 @152   ----------------------------------------
 .byte   W96
@  #10 @153   ----------------------------------------
 .byte   W96
@  #10 @154   ----------------------------------------
 .byte   W96
@  #10 @155   ----------------------------------------
 .byte   W96
@  #10 @156   ----------------------------------------
 .byte   W96
@  #10 @157   ----------------------------------------
 .byte   W96
@  #10 @158   ----------------------------------------
 .byte   W96
@  #10 @159   ----------------------------------------
 .byte   W96
@  #10 @160   ----------------------------------------
 .byte   W96
@  #10 @161   ----------------------------------------
 .byte   W96
@  #10 @162   ----------------------------------------
 .byte   W96
@  #10 @163   ----------------------------------------
 .byte   W96
@  #10 @164   ----------------------------------------
 .byte   W96
@  #10 @165   ----------------------------------------
 .byte   W96
@  #10 @166   ----------------------------------------
 .byte   W96
@  #10 @167   ----------------------------------------
 .byte   W96
@  #10 @168   ----------------------------------------
 .byte   W96
@  #10 @169   ----------------------------------------
 .byte   W96
@  #10 @170   ----------------------------------------
 .byte   W96
@  #10 @171   ----------------------------------------
 .byte   W96
@  #10 @172   ----------------------------------------
 .byte   W96
@  #10 @173   ----------------------------------------
 .byte   W96
@  #10 @174   ----------------------------------------
 .byte   W96
@  #10 @175   ----------------------------------------
 .byte   W96
@  #10 @176   ----------------------------------------
 .byte   W96
@  #10 @177   ----------------------------------------
 .byte   W96
@  #10 @178   ----------------------------------------
 .byte   W96
@  #10 @179   ----------------------------------------
 .byte   W96
@  #10 @180   ----------------------------------------
 .byte   W96
@  #10 @181   ----------------------------------------
 .byte   W96
@  #10 @182   ----------------------------------------
 .byte   W96
@  #10 @183   ----------------------------------------
 .byte   W96
@  #10 @184   ----------------------------------------
 .byte   W96
 .byte   FINE

@**************** Track 11 (Midi-Chn.10) ****************@

.align 2, 0
song06_011:
@  #11 @000   ----------------------------------------
 .byte   KEYSH , song06_key+0
Label_011625CE:
 .byte   VOICE , 49
 .byte   PAN , c_v+3
 .byte   VOL , 52*song06_mvl/mxv
 .byte   W96
@  #11 @001   ----------------------------------------
 .byte   W96
@  #11 @002   ----------------------------------------
 .byte   W96
@  #11 @003   ----------------------------------------
 .byte   W96
@  #11 @004   ----------------------------------------
 .byte   W96
@  #11 @005   ----------------------------------------
 .byte   W96
@  #11 @006   ----------------------------------------
 .byte   W96
@  #11 @007   ----------------------------------------
 .byte   W96
@  #11 @008   ----------------------------------------
 .byte   W96
@  #11 @009   ----------------------------------------
 .byte   W96
@  #11 @010   ----------------------------------------
 .byte   W96
@  #11 @011   ----------------------------------------
 .byte   W96
@  #11 @012   ----------------------------------------
 .byte   W96
@  #11 @013   ----------------------------------------
 .byte   W96
@  #11 @014   ----------------------------------------
 .byte   W96
@  #11 @015   ----------------------------------------
 .byte   W96
@  #11 @016   ----------------------------------------
 .byte   W96
@  #11 @017   ----------------------------------------
 .byte   W96
@  #11 @018   ----------------------------------------
 .byte   TIE ,Cs4 ,v052
 .byte   W96
@  #11 @019   ----------------------------------------
 .byte   W92
 .byte   W03
 .byte   EOT
 .byte   W01
@  #11 @020   ----------------------------------------
Label_011625EE:
 .byte   N68 ,Gs4 ,v064
 .byte   W72
 .byte   N23 ,Fs4
 .byte   W24
 .byte   PEND 
@  #11 @021   ----------------------------------------
Label_011625F6:
 .byte   N23 ,Cn4 ,v064
 .byte   W24
 .byte   N24 ,Cs4
 .byte   W24
 .byte   N68 ,Fs4
 .byte   W48
 .byte   PEND 
@  #11 @022   ----------------------------------------
Label_01162601:
 .byte   W24
 .byte   N23 ,Fn4 ,v064
 .byte   W24
 .byte   N24 ,Ds4
 .byte   W24
 .byte   Cs4
 .byte   W24
 .byte   PEND 
@  #11 @023   ----------------------------------------
Label_0116260C:
 .byte   N23 ,Cn4 ,v064
 .byte   W48
 .byte   N44 ,Cs5
 .byte   W48
 .byte   PEND 
@  #11 @024   ----------------------------------------
Label_01162614:
 .byte   N68 ,Cn5 ,v064
 .byte   W72
 .byte   N23 ,As4
 .byte   W24
 .byte   PEND 
@  #11 @025   ----------------------------------------
 .byte   TIE ,Fn4
 .byte   W96
@  #11 @026   ----------------------------------------
 .byte   W92
 .byte   W03
 .byte   EOT
 .byte   W01
@  #11 @027   ----------------------------------------
 .byte   W96
@  #11 @028   ----------------------------------------
Label_01162624:
 .byte   N68 ,Ds4 ,v064
 .byte   W72
 .byte   N23 ,Cs4
 .byte   W24
 .byte   PEND 
@  #11 @029   ----------------------------------------
Label_0116262C:
 .byte   N23 ,Cn4 ,v064
 .byte   W24
 .byte   N24 ,As3
 .byte   W24
 .byte   TIE ,Fs4
 .byte   W48
 .byte   PEND 
@  #11 @030   ----------------------------------------
 .byte   PATT
  .word Label_01162601
@  #11 @031   ----------------------------------------
 .byte   PATT
  .word Label_0116260C
@  #11 @032   ----------------------------------------
 .byte   EOT
 .byte   Fs4
 .byte   N92 ,Cn5 ,v064
 .byte   W96
@  #11 @033   ----------------------------------------
 .byte   N96 ,As4
 .byte   W96
@  #11 @034   ----------------------------------------
 .byte   Cn5
 .byte   W96
@  #11 @035   ----------------------------------------
 .byte   Cs5
 .byte   W96
@  #11 @036   ----------------------------------------
 .byte   W96
@  #11 @037   ----------------------------------------
 .byte   W96
@  #11 @038   ----------------------------------------
 .byte   W96
@  #11 @039   ----------------------------------------
 .byte   W96
@  #11 @040   ----------------------------------------
 .byte   W96
@  #11 @041   ----------------------------------------
 .byte   W96
@  #11 @042   ----------------------------------------
 .byte   W96
@  #11 @043   ----------------------------------------
 .byte   W96
@  #11 @044   ----------------------------------------
 .byte   Cs4
 .byte   W96
@  #11 @045   ----------------------------------------
 .byte   Fn4
 .byte   W96
@  #11 @046   ----------------------------------------
 .byte   Ds4
 .byte   W96
@  #11 @047   ----------------------------------------
 .byte   Cs5
 .byte   W96
@  #11 @048   ----------------------------------------
Label_0116265E:
 .byte   N23 ,Cn5 ,v064
 .byte   W24
 .byte   TIE ,As4
 .byte   W72
 .byte   PEND 
@  #11 @049   ----------------------------------------
 .byte   W96
@  #11 @050   ----------------------------------------
 .byte   W96
@  #11 @051   ----------------------------------------
 .byte   W92
 .byte   W03
 .byte   EOT
 .byte   W01
@  #11 @052   ----------------------------------------
Label_0116266C:
 .byte   N07 ,Cn4 ,v064
 .byte   W24
 .byte   N07
 .byte   W24
 .byte   N07
 .byte   W24
 .byte   N07
 .byte   W08
 .byte   N08 ,As3
 .byte   W08
 .byte   Cn4
 .byte   W08
 .byte   PEND 
@  #11 @053   ----------------------------------------
Label_0116267C:
 .byte   N07 ,Cs4 ,v064
 .byte   W24
 .byte   N07
 .byte   W24
 .byte   N07
 .byte   W24
 .byte   N07
 .byte   W08
 .byte   N08 ,Cn4
 .byte   W08
 .byte   Cs4
 .byte   W08
 .byte   PEND 
@  #11 @054   ----------------------------------------
Label_0116268C:
 .byte   N07 ,Ds4 ,v064
 .byte   W24
 .byte   N07
 .byte   W24
 .byte   N07
 .byte   W24
 .byte   N07
 .byte   W08
 .byte   N08 ,Cs4
 .byte   W08
 .byte   Ds4
 .byte   W08
 .byte   PEND 
@  #11 @055   ----------------------------------------
Label_0116269C:
 .byte   N07 ,Fn4 ,v064
 .byte   W24
 .byte   N07
 .byte   W24
 .byte   N07
 .byte   W24
 .byte   N07
 .byte   W08
 .byte   N08 ,Ds4
 .byte   W08
 .byte   Cs4
 .byte   W08
 .byte   PEND 
@  #11 @056   ----------------------------------------
 .byte   PATT
  .word Label_0116266C
@  #11 @057   ----------------------------------------
 .byte   PATT
  .word Label_0116267C
@  #11 @058   ----------------------------------------
 .byte   PATT
  .word Label_0116268C
@  #11 @059   ----------------------------------------
 .byte   PATT
  .word Label_0116269C
@  #11 @060   ----------------------------------------
 .byte   PATT
  .word Label_0116266C
@  #11 @061   ----------------------------------------
 .byte   PATT
  .word Label_0116267C
@  #11 @062   ----------------------------------------
 .byte   PATT
  .word Label_0116268C
@  #11 @063   ----------------------------------------
 .byte   PATT
  .word Label_0116269C
@  #11 @064   ----------------------------------------
 .byte   PATT
  .word Label_0116266C
@  #11 @065   ----------------------------------------
 .byte   PATT
  .word Label_0116267C
@  #11 @066   ----------------------------------------
 .byte   PATT
  .word Label_0116268C
@  #11 @067   ----------------------------------------
 .byte   PATT
  .word Label_0116269C
@  #11 @068   ----------------------------------------
 .byte   PATT
  .word Label_0116268C
@  #11 @069   ----------------------------------------
Label_011626ED:
 .byte   N07 ,Fn4 ,v064
 .byte   W24
 .byte   N07
 .byte   W24
 .byte   N07
 .byte   W24
 .byte   N07
 .byte   W08
 .byte   N08 ,Ds4
 .byte   W08
 .byte   Fn4
 .byte   W08
 .byte   PEND 
@  #11 @070   ----------------------------------------
Label_011626FD:
 .byte   N07 ,Fs4 ,v064
 .byte   W24
 .byte   N07
 .byte   W24
 .byte   N07
 .byte   W24
 .byte   N07
 .byte   W08
 .byte   N08 ,Fn4
 .byte   W08
 .byte   Fs4
 .byte   W08
 .byte   PEND 
@  #11 @071   ----------------------------------------
Label_0116270D:
 .byte   N07 ,Gs4 ,v064
 .byte   W24
 .byte   N07
 .byte   W24
 .byte   N07
 .byte   W24
 .byte   N07
 .byte   W24
 .byte   PEND 
@  #11 @072   ----------------------------------------
Label_01162718:
 .byte   N07 ,Fn4 ,v064
 .byte   W24
 .byte   N07
 .byte   W24
 .byte   N07
 .byte   W24
 .byte   N07
 .byte   W24
 .byte   PEND 
@  #11 @073   ----------------------------------------
 .byte   PATT
  .word Label_01162718
@  #11 @074   ----------------------------------------
 .byte   PATT
  .word Label_01162718
@  #11 @075   ----------------------------------------
Label_0116272D:
 .byte   N23 ,Cn4 ,v064
 .byte   W24
 .byte   N03 ,Cs4 ,v072
 .byte   W24
 .byte   Fn4 ,v080
 .byte   W24
 .byte   Gs4 ,v088
 .byte   W24
 .byte   PEND 
@  #11 @076   ----------------------------------------
Label_0116273C:
 .byte   N68 ,Cn5 ,v096
 .byte   W72
 .byte   N23 ,Cs5
 .byte   W24
 .byte   PEND 
@  #11 @077   ----------------------------------------
 .byte   TIE ,As4
 .byte   W96
@  #11 @078   ----------------------------------------
 .byte   W44
 .byte   W03
 .byte   EOT
 .byte   W01
 .byte   N23 ,Fn4
 .byte   W24
 .byte   N24 ,Fn5
 .byte   W24
@  #11 @079   ----------------------------------------
Label_01162751:
 .byte   N11 ,Ds5 ,v096
 .byte   W12
 .byte   N12 ,Cs5
 .byte   W12
 .byte   N44 ,Cn5
 .byte   W48
 .byte   N23 ,Gs4
 .byte   W24
 .byte   PEND 
@  #11 @080   ----------------------------------------
Label_0116275F:
 .byte   N32 ,Cn5 ,v096
 .byte   W36
 .byte   N36 ,Cs5
 .byte   W36
 .byte   TIE ,As4
 .byte   W24
 .byte   PEND 
@  #11 @081   ----------------------------------------
 .byte   W96
@  #11 @082   ----------------------------------------
 .byte   W92
 .byte   W03
 .byte   EOT
 .byte   W01
@  #11 @083   ----------------------------------------
Label_0116276F:
 .byte   N23 ,Cn4 ,v096
 .byte   W24
 .byte   N24 ,Cs4
 .byte   W24
 .byte   Fn4
 .byte   W24
 .byte   Gs4
 .byte   W24
 .byte   PEND 
@  #11 @084   ----------------------------------------
 .byte   PATT
  .word Label_0116273C
@  #11 @085   ----------------------------------------
 .byte   TIE ,As4 ,v096
 .byte   W96
@  #11 @086   ----------------------------------------
 .byte   W44
 .byte   W03
 .byte   EOT
 .byte   W01
 .byte   N23 ,Fn4
 .byte   W24
 .byte   N24 ,Fn5
 .byte   W24
@  #11 @087   ----------------------------------------
 .byte   PATT
  .word Label_01162751
@  #11 @088   ----------------------------------------
Label_01162793:
 .byte   N32 ,Cn5 ,v096
 .byte   W36
 .byte   N36 ,Cs5
 .byte   W36
 .byte   TIE ,Gs5
 .byte   W24
 .byte   PEND 
@  #11 @089   ----------------------------------------
 .byte   W96
@  #11 @090   ----------------------------------------
 .byte   W96
@  #11 @091   ----------------------------------------
 .byte   W92
 .byte   W03
 .byte   EOT
 .byte   W01
@  #11 @092   ----------------------------------------
 .byte   GOTO
  .word Label_011625CE
@  #11 @093   ----------------------------------------
 .byte   W96
@  #11 @094   ----------------------------------------
 .byte   W96
@  #11 @095   ----------------------------------------
 .byte   W96
@  #11 @096   ----------------------------------------
 .byte   W96
@  #11 @097   ----------------------------------------
 .byte   W96
@  #11 @098   ----------------------------------------
 .byte   W96
@  #11 @099   ----------------------------------------
 .byte   W96
@  #11 @100   ----------------------------------------
 .byte   W96
@  #11 @101   ----------------------------------------
 .byte   W96
@  #11 @102   ----------------------------------------
 .byte   W96
@  #11 @103   ----------------------------------------
 .byte   W96
@  #11 @104   ----------------------------------------
 .byte   W96
@  #11 @105   ----------------------------------------
 .byte   W96
@  #11 @106   ----------------------------------------
 .byte   W96
@  #11 @107   ----------------------------------------
 .byte   W96
@  #11 @108   ----------------------------------------
 .byte   W96
@  #11 @109   ----------------------------------------
 .byte   W96
@  #11 @110   ----------------------------------------
 .byte   W96
@  #11 @111   ----------------------------------------
 .byte   TIE ,Cs4 ,v052
 .byte   W96
@  #11 @112   ----------------------------------------
 .byte   W92
 .byte   W03
 .byte   EOT
 .byte   N01
 .byte   W01
@  #11 @113   ----------------------------------------
 .byte   PATT
  .word Label_011625EE
@  #11 @114   ----------------------------------------
 .byte   PATT
  .word Label_011625F6
@  #11 @115   ----------------------------------------
 .byte   PATT
  .word Label_01162601
@  #11 @116   ----------------------------------------
 .byte   PATT
  .word Label_0116260C
@  #11 @117   ----------------------------------------
 .byte   PATT
  .word Label_01162614
@  #11 @118   ----------------------------------------
 .byte   TIE ,Fn4 ,v064
 .byte   W96
@  #11 @119   ----------------------------------------
 .byte   W92
 .byte   W03
 .byte   EOT
 .byte   W01
@  #11 @120   ----------------------------------------
 .byte   W96
@  #11 @121   ----------------------------------------
 .byte   PATT
  .word Label_01162624
@  #11 @122   ----------------------------------------
 .byte   PATT
  .word Label_0116262C
@  #11 @123   ----------------------------------------
 .byte   PATT
  .word Label_01162601
@  #11 @124   ----------------------------------------
 .byte   PATT
  .word Label_0116260C
@  #11 @125   ----------------------------------------
 .byte   EOT
 .byte   Fs4
 .byte   N92 ,Cn5 ,v064
 .byte   W96
@  #11 @126   ----------------------------------------
 .byte   N96 ,As4
 .byte   W96
@  #11 @127   ----------------------------------------
 .byte   Cn5
 .byte   W96
@  #11 @128   ----------------------------------------
 .byte   Cs5
 .byte   W96
@  #11 @129   ----------------------------------------
 .byte   W96
@  #11 @130   ----------------------------------------
 .byte   W96
@  #11 @131   ----------------------------------------
 .byte   W96
@  #11 @132   ----------------------------------------
 .byte   W96
@  #11 @133   ----------------------------------------
 .byte   W96
@  #11 @134   ----------------------------------------
 .byte   W96
@  #11 @135   ----------------------------------------
 .byte   W96
@  #11 @136   ----------------------------------------
 .byte   W96
@  #11 @137   ----------------------------------------
 .byte   Cs4
 .byte   W96
@  #11 @138   ----------------------------------------
 .byte   Fn4
 .byte   W96
@  #11 @139   ----------------------------------------
 .byte   Ds4
 .byte   W96
@  #11 @140   ----------------------------------------
 .byte   Cs5
 .byte   W96
@  #11 @141   ----------------------------------------
 .byte   PATT
  .word Label_0116265E
@  #11 @142   ----------------------------------------
 .byte   W96
@  #11 @143   ----------------------------------------
 .byte   W96
@  #11 @144   ----------------------------------------
 .byte   W92
 .byte   W03
 .byte   EOT
 .byte   As4
 .byte   N01 ,As4 ,v064
 .byte   W01
@  #11 @145   ----------------------------------------
 .byte   PATT
  .word Label_0116266C
@  #11 @146   ----------------------------------------
 .byte   PATT
  .word Label_0116267C
@  #11 @147   ----------------------------------------
 .byte   PATT
  .word Label_0116268C
@  #11 @148   ----------------------------------------
 .byte   PATT
  .word Label_0116269C
@  #11 @149   ----------------------------------------
 .byte   PATT
  .word Label_0116266C
@  #11 @150   ----------------------------------------
 .byte   PATT
  .word Label_0116267C
@  #11 @151   ----------------------------------------
 .byte   PATT
  .word Label_0116268C
@  #11 @152   ----------------------------------------
 .byte   PATT
  .word Label_0116269C
@  #11 @153   ----------------------------------------
 .byte   PATT
  .word Label_0116266C
@  #11 @154   ----------------------------------------
 .byte   PATT
  .word Label_0116267C
@  #11 @155   ----------------------------------------
 .byte   PATT
  .word Label_0116268C
@  #11 @156   ----------------------------------------
 .byte   PATT
  .word Label_0116269C
@  #11 @157   ----------------------------------------
 .byte   PATT
  .word Label_0116266C
@  #11 @158   ----------------------------------------
 .byte   PATT
  .word Label_0116267C
@  #11 @159   ----------------------------------------
 .byte   PATT
  .word Label_0116268C
@  #11 @160   ----------------------------------------
 .byte   PATT
  .word Label_0116269C
@  #11 @161   ----------------------------------------
 .byte   PATT
  .word Label_0116268C
@  #11 @162   ----------------------------------------
 .byte   PATT
  .word Label_011626ED
@  #11 @163   ----------------------------------------
 .byte   PATT
  .word Label_011626FD
@  #11 @164   ----------------------------------------
 .byte   PATT
  .word Label_0116270D
@  #11 @165   ----------------------------------------
 .byte   PATT
  .word Label_01162718
@  #11 @166   ----------------------------------------
 .byte   PATT
  .word Label_01162718
@  #11 @167   ----------------------------------------
 .byte   PATT
  .word Label_01162718
@  #11 @168   ----------------------------------------
 .byte   PATT
  .word Label_0116272D
@  #11 @169   ----------------------------------------
 .byte   PATT
  .word Label_0116273C
@  #11 @170   ----------------------------------------
 .byte   TIE ,As4 ,v096
 .byte   W96
@  #11 @171   ----------------------------------------
 .byte   W44
 .byte   W03
 .byte   EOT
 .byte   W01
 .byte   N23 ,Fn4
 .byte   W24
 .byte   N24 ,Fn5
 .byte   W24
@  #11 @172   ----------------------------------------
 .byte   PATT
  .word Label_01162751
@  #11 @173   ----------------------------------------
 .byte   PATT
  .word Label_0116275F
@  #11 @174   ----------------------------------------
 .byte   W96
@  #11 @175   ----------------------------------------
 .byte   W92
 .byte   W03
 .byte   EOT
 .byte   As4
 .byte   N01 ,As4 ,v096
 .byte   W01
@  #11 @176   ----------------------------------------
 .byte   PATT
  .word Label_0116276F
@  #11 @177   ----------------------------------------
 .byte   PATT
  .word Label_0116273C
@  #11 @178   ----------------------------------------
 .byte   TIE ,As4 ,v096
 .byte   W96
@  #11 @179   ----------------------------------------
 .byte   W44
 .byte   W03
 .byte   EOT
 .byte   W01
 .byte   N23 ,Fn4
 .byte   W24
 .byte   N24 ,Fn5
 .byte   W24
@  #11 @180   ----------------------------------------
 .byte   PATT
  .word Label_01162751
@  #11 @181   ----------------------------------------
 .byte   PATT
  .word Label_01162793
@  #11 @182   ----------------------------------------
 .byte   W96
@  #11 @183   ----------------------------------------
 .byte   W96
@  #11 @184   ----------------------------------------
 .byte   W92
 .byte   W03
 .byte   EOT
 .byte   Gs5
 .byte   N01 ,Gs5 ,v096
 .byte   W01
 .byte   FINE

@**************** Track 12 (Midi-Chn.11) ****************@

.align 2, 0
song06_012:
@  #12 @000   ----------------------------------------
 .byte   KEYSH , song06_key+0
Label_01130866:
 .byte   VOICE , 102
 .byte   VOL , 52*song06_mvl/mxv
 .byte   PAN , c_v+0
 .byte   W96
@  #12 @001   ----------------------------------------
 .byte   W96
@  #12 @002   ----------------------------------------
 .byte   W96
@  #12 @003   ----------------------------------------
 .byte   W96
@  #12 @004   ----------------------------------------
 .byte   W96
@  #12 @005   ----------------------------------------
 .byte   W96
@  #12 @006   ----------------------------------------
 .byte   W96
@  #12 @007   ----------------------------------------
 .byte   W96
@  #12 @008   ----------------------------------------
 .byte   W96
@  #12 @009   ----------------------------------------
 .byte   W96
@  #12 @010   ----------------------------------------
 .byte   W96
@  #12 @011   ----------------------------------------
 .byte   W96
@  #12 @012   ----------------------------------------
 .byte   W96
@  #12 @013   ----------------------------------------
 .byte   W96
@  #12 @014   ----------------------------------------
 .byte   W96
@  #12 @015   ----------------------------------------
 .byte   W96
@  #12 @016   ----------------------------------------
 .byte   TIE ,Fn4 ,v052
 .byte   W96
@  #12 @017   ----------------------------------------
 .byte   W96
@  #12 @018   ----------------------------------------
 .byte   W96
@  #12 @019   ----------------------------------------
 .byte   W92
 .byte   W03
 .byte   EOT
 .byte   W01
@  #12 @020   ----------------------------------------
 .byte   W96
@  #12 @021   ----------------------------------------
 .byte   W96
@  #12 @022   ----------------------------------------
 .byte   W96
@  #12 @023   ----------------------------------------
 .byte   W96
@  #12 @024   ----------------------------------------
 .byte   W96
@  #12 @025   ----------------------------------------
 .byte   W96
@  #12 @026   ----------------------------------------
 .byte   W96
@  #12 @027   ----------------------------------------
 .byte   W96
@  #12 @028   ----------------------------------------
 .byte   W96
@  #12 @029   ----------------------------------------
 .byte   W96
@  #12 @030   ----------------------------------------
 .byte   W96
@  #12 @031   ----------------------------------------
 .byte   W96
@  #12 @032   ----------------------------------------
 .byte   W96
@  #12 @033   ----------------------------------------
 .byte   W96
@  #12 @034   ----------------------------------------
 .byte   W96
@  #12 @035   ----------------------------------------
 .byte   W96
@  #12 @036   ----------------------------------------
 .byte   W96
@  #12 @037   ----------------------------------------
 .byte   W96
@  #12 @038   ----------------------------------------
 .byte   W96
@  #12 @039   ----------------------------------------
 .byte   W96
@  #12 @040   ----------------------------------------
 .byte   W96
@  #12 @041   ----------------------------------------
 .byte   W96
@  #12 @042   ----------------------------------------
 .byte   W96
@  #12 @043   ----------------------------------------
 .byte   W96
@  #12 @044   ----------------------------------------
 .byte   W96
@  #12 @045   ----------------------------------------
 .byte   W96
@  #12 @046   ----------------------------------------
 .byte   W96
@  #12 @047   ----------------------------------------
 .byte   W96
@  #12 @048   ----------------------------------------
 .byte   W96
@  #12 @049   ----------------------------------------
 .byte   W96
@  #12 @050   ----------------------------------------
 .byte   W96
@  #12 @051   ----------------------------------------
 .byte   W96
@  #12 @052   ----------------------------------------
 .byte   W96
@  #12 @053   ----------------------------------------
 .byte   W96
@  #12 @054   ----------------------------------------
 .byte   W96
@  #12 @055   ----------------------------------------
 .byte   W96
@  #12 @056   ----------------------------------------
 .byte   W96
@  #12 @057   ----------------------------------------
 .byte   W96
@  #12 @058   ----------------------------------------
 .byte   W96
@  #12 @059   ----------------------------------------
 .byte   W96
@  #12 @060   ----------------------------------------
 .byte   W96
@  #12 @061   ----------------------------------------
 .byte   W96
@  #12 @062   ----------------------------------------
 .byte   W96
@  #12 @063   ----------------------------------------
 .byte   W96
@  #12 @064   ----------------------------------------
 .byte   W96
@  #12 @065   ----------------------------------------
 .byte   W96
@  #12 @066   ----------------------------------------
 .byte   W96
@  #12 @067   ----------------------------------------
 .byte   W96
@  #12 @068   ----------------------------------------
 .byte   W96
@  #12 @069   ----------------------------------------
 .byte   W96
@  #12 @070   ----------------------------------------
 .byte   W96
@  #12 @071   ----------------------------------------
 .byte   W96
@  #12 @072   ----------------------------------------
 .byte   W96
@  #12 @073   ----------------------------------------
 .byte   W96
@  #12 @074   ----------------------------------------
 .byte   W96
@  #12 @075   ----------------------------------------
 .byte   W96
@  #12 @076   ----------------------------------------
 .byte   W96
@  #12 @077   ----------------------------------------
 .byte   W96
@  #12 @078   ----------------------------------------
 .byte   W96
@  #12 @079   ----------------------------------------
 .byte   W96
@  #12 @080   ----------------------------------------
 .byte   W96
@  #12 @081   ----------------------------------------
 .byte   W96
@  #12 @082   ----------------------------------------
 .byte   W96
@  #12 @083   ----------------------------------------
 .byte   W96
@  #12 @084   ----------------------------------------
 .byte   W96
@  #12 @085   ----------------------------------------
 .byte   W96
@  #12 @086   ----------------------------------------
 .byte   W96
@  #12 @087   ----------------------------------------
 .byte   W96
@  #12 @088   ----------------------------------------
 .byte   W96
@  #12 @089   ----------------------------------------
 .byte   W96
@  #12 @090   ----------------------------------------
 .byte   W96
@  #12 @091   ----------------------------------------
 .byte   W96
@  #12 @092   ----------------------------------------
 .byte   GOTO
  .word Label_01130866
@  #12 @093   ----------------------------------------
 .byte   W96
@  #12 @094   ----------------------------------------
 .byte   W96
@  #12 @095   ----------------------------------------
 .byte   W96
@  #12 @096   ----------------------------------------
 .byte   W96
@  #12 @097   ----------------------------------------
 .byte   W96
@  #12 @098   ----------------------------------------
 .byte   W96
@  #12 @099   ----------------------------------------
 .byte   W96
@  #12 @100   ----------------------------------------
 .byte   W96
@  #12 @101   ----------------------------------------
 .byte   W96
@  #12 @102   ----------------------------------------
 .byte   W96
@  #12 @103   ----------------------------------------
 .byte   W96
@  #12 @104   ----------------------------------------
 .byte   W96
@  #12 @105   ----------------------------------------
 .byte   W96
@  #12 @106   ----------------------------------------
 .byte   W96
@  #12 @107   ----------------------------------------
 .byte   W96
@  #12 @108   ----------------------------------------
 .byte   W96
@  #12 @109   ----------------------------------------
 .byte   TIE ,Fn4 ,v052
 .byte   W96
@  #12 @110   ----------------------------------------
 .byte   W96
@  #12 @111   ----------------------------------------
 .byte   W96
@  #12 @112   ----------------------------------------
 .byte   W92
 .byte   W03
 .byte   EOT
 .byte   W01
@  #12 @113   ----------------------------------------
 .byte   W96
@  #12 @114   ----------------------------------------
 .byte   W96
@  #12 @115   ----------------------------------------
 .byte   W96
@  #12 @116   ----------------------------------------
 .byte   W96
@  #12 @117   ----------------------------------------
 .byte   W96
@  #12 @118   ----------------------------------------
 .byte   W96
@  #12 @119   ----------------------------------------
 .byte   W96
@  #12 @120   ----------------------------------------
 .byte   W96
@  #12 @121   ----------------------------------------
 .byte   W96
@  #12 @122   ----------------------------------------
 .byte   W96
@  #12 @123   ----------------------------------------
 .byte   W96
@  #12 @124   ----------------------------------------
 .byte   W96
@  #12 @125   ----------------------------------------
 .byte   W96
@  #12 @126   ----------------------------------------
 .byte   W96
@  #12 @127   ----------------------------------------
 .byte   W96
@  #12 @128   ----------------------------------------
 .byte   W96
@  #12 @129   ----------------------------------------
 .byte   W96
@  #12 @130   ----------------------------------------
 .byte   W96
@  #12 @131   ----------------------------------------
 .byte   W96
@  #12 @132   ----------------------------------------
 .byte   W96
@  #12 @133   ----------------------------------------
 .byte   W96
@  #12 @134   ----------------------------------------
 .byte   W96
@  #12 @135   ----------------------------------------
 .byte   W96
@  #12 @136   ----------------------------------------
 .byte   W96
@  #12 @137   ----------------------------------------
 .byte   W96
@  #12 @138   ----------------------------------------
 .byte   W96
@  #12 @139   ----------------------------------------
 .byte   W96
@  #12 @140   ----------------------------------------
 .byte   W96
@  #12 @141   ----------------------------------------
 .byte   W96
@  #12 @142   ----------------------------------------
 .byte   W96
@  #12 @143   ----------------------------------------
 .byte   W96
@  #12 @144   ----------------------------------------
 .byte   W96
@  #12 @145   ----------------------------------------
 .byte   W96
@  #12 @146   ----------------------------------------
 .byte   W96
@  #12 @147   ----------------------------------------
 .byte   W96
@  #12 @148   ----------------------------------------
 .byte   W96
@  #12 @149   ----------------------------------------
 .byte   W96
@  #12 @150   ----------------------------------------
 .byte   W96
@  #12 @151   ----------------------------------------
 .byte   W96
@  #12 @152   ----------------------------------------
 .byte   W96
@  #12 @153   ----------------------------------------
 .byte   W96
@  #12 @154   ----------------------------------------
 .byte   W96
@  #12 @155   ----------------------------------------
 .byte   W96
@  #12 @156   ----------------------------------------
 .byte   W96
@  #12 @157   ----------------------------------------
 .byte   W96
@  #12 @158   ----------------------------------------
 .byte   W96
@  #12 @159   ----------------------------------------
 .byte   W96
@  #12 @160   ----------------------------------------
 .byte   W96
@  #12 @161   ----------------------------------------
 .byte   W96
@  #12 @162   ----------------------------------------
 .byte   W96
@  #12 @163   ----------------------------------------
 .byte   W96
@  #12 @164   ----------------------------------------
 .byte   W96
@  #12 @165   ----------------------------------------
 .byte   W96
@  #12 @166   ----------------------------------------
 .byte   W96
@  #12 @167   ----------------------------------------
 .byte   W96
@  #12 @168   ----------------------------------------
 .byte   W96
@  #12 @169   ----------------------------------------
 .byte   W96
@  #12 @170   ----------------------------------------
 .byte   W96
@  #12 @171   ----------------------------------------
 .byte   W96
@  #12 @172   ----------------------------------------
 .byte   W96
@  #12 @173   ----------------------------------------
 .byte   W96
@  #12 @174   ----------------------------------------
 .byte   W96
@  #12 @175   ----------------------------------------
 .byte   W96
@  #12 @176   ----------------------------------------
 .byte   W96
@  #12 @177   ----------------------------------------
 .byte   W96
@  #12 @178   ----------------------------------------
 .byte   W96
@  #12 @179   ----------------------------------------
 .byte   W96
@  #12 @180   ----------------------------------------
 .byte   W96
@  #12 @181   ----------------------------------------
 .byte   W96
@  #12 @182   ----------------------------------------
 .byte   W96
@  #12 @183   ----------------------------------------
 .byte   W96
@  #12 @184   ----------------------------------------
 .byte   W96
 .byte   FINE

@**************** Track 13 (Midi-Chn.12) ****************@

.align 2, 0
song06_013:
@  #13 @000   ----------------------------------------
 .byte   KEYSH , song06_key+0
Label_011316AE:
 .byte   VOICE , 49
 .byte   PAN , c_v-7
 .byte   VOL , 52*song06_mvl/mxv
 .byte   W96
@  #13 @001   ----------------------------------------
 .byte   W96
@  #13 @002   ----------------------------------------
 .byte   W96
@  #13 @003   ----------------------------------------
 .byte   W96
@  #13 @004   ----------------------------------------
 .byte   W96
@  #13 @005   ----------------------------------------
 .byte   W96
@  #13 @006   ----------------------------------------
 .byte   W96
@  #13 @007   ----------------------------------------
 .byte   W96
@  #13 @008   ----------------------------------------
 .byte   W96
@  #13 @009   ----------------------------------------
 .byte   W96
@  #13 @010   ----------------------------------------
 .byte   W96
@  #13 @011   ----------------------------------------
 .byte   W96
@  #13 @012   ----------------------------------------
 .byte   W96
@  #13 @013   ----------------------------------------
 .byte   W96
@  #13 @014   ----------------------------------------
 .byte   W96
@  #13 @015   ----------------------------------------
 .byte   W96
@  #13 @016   ----------------------------------------
 .byte   W96
@  #13 @017   ----------------------------------------
 .byte   W96
@  #13 @018   ----------------------------------------
 .byte   W96
@  #13 @019   ----------------------------------------
 .byte   W96
@  #13 @020   ----------------------------------------
 .byte   W96
@  #13 @021   ----------------------------------------
 .byte   W96
@  #13 @022   ----------------------------------------
 .byte   W96
@  #13 @023   ----------------------------------------
 .byte   W96
@  #13 @024   ----------------------------------------
 .byte   W96
@  #13 @025   ----------------------------------------
 .byte   W96
@  #13 @026   ----------------------------------------
 .byte   W96
@  #13 @027   ----------------------------------------
 .byte   W96
@  #13 @028   ----------------------------------------
 .byte   W96
@  #13 @029   ----------------------------------------
 .byte   W96
@  #13 @030   ----------------------------------------
 .byte   W96
@  #13 @031   ----------------------------------------
 .byte   W96
@  #13 @032   ----------------------------------------
 .byte   N92 ,Cn4 ,v064
 .byte   W96
@  #13 @033   ----------------------------------------
 .byte   N96 ,As3
 .byte   W96
@  #13 @034   ----------------------------------------
 .byte   Cn4
 .byte   W96
@  #13 @035   ----------------------------------------
 .byte   Cs4
 .byte   W96
@  #13 @036   ----------------------------------------
 .byte   W96
@  #13 @037   ----------------------------------------
 .byte   W96
@  #13 @038   ----------------------------------------
 .byte   W96
@  #13 @039   ----------------------------------------
 .byte   W96
@  #13 @040   ----------------------------------------
 .byte   W96
@  #13 @041   ----------------------------------------
 .byte   W96
@  #13 @042   ----------------------------------------
 .byte   W96
@  #13 @043   ----------------------------------------
 .byte   W96
@  #13 @044   ----------------------------------------
 .byte   Cs3
 .byte   W96
@  #13 @045   ----------------------------------------
 .byte   Fn3
 .byte   W96
@  #13 @046   ----------------------------------------
 .byte   Ds3
 .byte   W96
@  #13 @047   ----------------------------------------
 .byte   Cs4
 .byte   W96
@  #13 @048   ----------------------------------------
Label_011316EF:
 .byte   N23 ,Cn4 ,v064
 .byte   W24
 .byte   TIE ,As3
 .byte   W72
 .byte   PEND 
@  #13 @049   ----------------------------------------
 .byte   W96
@  #13 @050   ----------------------------------------
 .byte   W96
@  #13 @051   ----------------------------------------
 .byte   W92
 .byte   W03
 .byte   EOT
 .byte   W01
@  #13 @052   ----------------------------------------
 .byte   W96
@  #13 @053   ----------------------------------------
 .byte   W96
@  #13 @054   ----------------------------------------
 .byte   W96
@  #13 @055   ----------------------------------------
 .byte   W96
@  #13 @056   ----------------------------------------
 .byte   W96
@  #13 @057   ----------------------------------------
 .byte   W96
@  #13 @058   ----------------------------------------
 .byte   W96
@  #13 @059   ----------------------------------------
 .byte   W48
 .byte   N44 ,Cs3 ,v080
 .byte   W48
@  #13 @060   ----------------------------------------
Label_01131709:
 .byte   N68 ,Gs3 ,v080
 .byte   W72
 .byte   N23 ,Fs3
 .byte   W24
 .byte   PEND 
@  #13 @061   ----------------------------------------
Label_01131711:
 .byte   N68 ,Fn3 ,v080
 .byte   W72
 .byte   N23 ,Fs3
 .byte   W24
 .byte   PEND 
@  #13 @062   ----------------------------------------
Label_01131719:
 .byte   N23 ,Fn3 ,v080
 .byte   W24
 .byte   N44 ,Ds3
 .byte   W48
 .byte   N23 ,Fn3
 .byte   W24
 .byte   PEND 
@  #13 @063   ----------------------------------------
Label_01131724:
 .byte   N23 ,Fs3 ,v080
 .byte   W24
 .byte   N24 ,Fn3
 .byte   W24
 .byte   Ds3
 .byte   W24
 .byte   Cs3
 .byte   W24
 .byte   PEND 
@  #13 @064   ----------------------------------------
Label_01131730:
 .byte   N23 ,Ds3 ,v080
 .byte   W24
 .byte   TIE ,Fn3
 .byte   W72
 .byte   PEND 
@  #13 @065   ----------------------------------------
 .byte   W44
 .byte   W03
 .byte   EOT
 .byte   W01
 .byte   N44 ,Cn3
 .byte   W48
@  #13 @066   ----------------------------------------
Label_0113173F:
 .byte   N23 ,Cn3 ,v080
 .byte   W24
 .byte   TIE ,Cs3
 .byte   W72
 .byte   PEND 
@  #13 @067   ----------------------------------------
 .byte   W44
 .byte   W03
 .byte   EOT
 .byte   W01
 .byte   N23 ,Ds3
 .byte   W24
 .byte   N24 ,Fn3
 .byte   W24
@  #13 @068   ----------------------------------------
 .byte   TIE ,Fs3
 .byte   W96
@  #13 @069   ----------------------------------------
 .byte   W23
 .byte   EOT
 .byte   W01
 .byte   N23 ,Fn3
 .byte   W24
 .byte   N24 ,Ds3
 .byte   W24
 .byte   Cs3
 .byte   W24
@  #13 @070   ----------------------------------------
 .byte   TIE ,Ds3
 .byte   W96
@  #13 @071   ----------------------------------------
 .byte   W23
 .byte   EOT
 .byte   W01
 .byte   N23 ,Fn3
 .byte   W24
 .byte   N24 ,Fs3
 .byte   W24
 .byte   Gs3
 .byte   W24
@  #13 @072   ----------------------------------------
 .byte   N92 ,Fn3
 .byte   W96
@  #13 @073   ----------------------------------------
 .byte   N96 ,Ds3
 .byte   W96
@  #13 @074   ----------------------------------------
 .byte   Cn3
 .byte   W96
@  #13 @075   ----------------------------------------
Label_01131775:
 .byte   N23 ,Cn3 ,v080
 .byte   W24
 .byte   N24 ,Cs3
 .byte   W24
 .byte   Fn3
 .byte   W24
 .byte   Gs3
 .byte   W24
 .byte   PEND 
@  #13 @076   ----------------------------------------
Label_01131781:
 .byte   N68 ,Cn4 ,v080
 .byte   W72
 .byte   N23 ,Cs4
 .byte   W24
 .byte   PEND 
@  #13 @077   ----------------------------------------
 .byte   TIE ,As3
 .byte   W96
@  #13 @078   ----------------------------------------
 .byte   W44
 .byte   W03
 .byte   EOT
 .byte   W01
 .byte   N23 ,Fn3
 .byte   W24
 .byte   N24 ,Fn4
 .byte   W24
@  #13 @079   ----------------------------------------
Label_01131796:
 .byte   N11 ,Ds4 ,v080
 .byte   W12
 .byte   N12 ,Cs4
 .byte   W12
 .byte   N44 ,Cn4
 .byte   W48
 .byte   N23 ,Gs3
 .byte   W24
 .byte   PEND 
@  #13 @080   ----------------------------------------
Label_011317A4:
 .byte   N32 ,Cn4 ,v080
 .byte   W36
 .byte   N36 ,Cs4
 .byte   W36
 .byte   TIE ,As3
 .byte   W24
 .byte   PEND 
@  #13 @081   ----------------------------------------
 .byte   W96
@  #13 @082   ----------------------------------------
 .byte   W92
 .byte   W03
 .byte   EOT
 .byte   W01
@  #13 @083   ----------------------------------------
 .byte   PATT
  .word Label_01131775
@  #13 @084   ----------------------------------------
 .byte   PATT
  .word Label_01131781
@  #13 @085   ----------------------------------------
 .byte   TIE ,As3 ,v080
 .byte   W96
@  #13 @086   ----------------------------------------
 .byte   W44
 .byte   W03
 .byte   EOT
 .byte   W01
 .byte   N23 ,Fn3
 .byte   W24
 .byte   N24 ,Fn4
 .byte   W24
@  #13 @087   ----------------------------------------
 .byte   PATT
  .word Label_01131796
@  #13 @088   ----------------------------------------
Label_011317D1:
 .byte   N32 ,Cn4 ,v080
 .byte   W36
 .byte   N36 ,Cs4
 .byte   W36
 .byte   N23 ,Gs4
 .byte   W24
 .byte   PEND 
@  #13 @089   ----------------------------------------
Label_011317DC:
 .byte   N07 ,Gs4 ,v080
 .byte   W24
 .byte   N07
 .byte   W24
 .byte   N07
 .byte   W24
 .byte   N07
 .byte   W24
 .byte   PEND 
@  #13 @090   ----------------------------------------
 .byte   PATT
  .word Label_011317DC
@  #13 @091   ----------------------------------------
 .byte   PATT
  .word Label_011317DC
@  #13 @092   ----------------------------------------
 .byte   GOTO
  .word Label_011316AE
@  #13 @093   ----------------------------------------
 .byte   W96
@  #13 @094   ----------------------------------------
 .byte   W96
@  #13 @095   ----------------------------------------
 .byte   W96
@  #13 @096   ----------------------------------------
 .byte   W96
@  #13 @097   ----------------------------------------
 .byte   W96
@  #13 @098   ----------------------------------------
 .byte   W96
@  #13 @099   ----------------------------------------
 .byte   W96
@  #13 @100   ----------------------------------------
 .byte   W96
@  #13 @101   ----------------------------------------
 .byte   W96
@  #13 @102   ----------------------------------------
 .byte   W96
@  #13 @103   ----------------------------------------
 .byte   W96
@  #13 @104   ----------------------------------------
 .byte   W96
@  #13 @105   ----------------------------------------
 .byte   W96
@  #13 @106   ----------------------------------------
 .byte   W96
@  #13 @107   ----------------------------------------
 .byte   W96
@  #13 @108   ----------------------------------------
 .byte   W96
@  #13 @109   ----------------------------------------
 .byte   W96
@  #13 @110   ----------------------------------------
 .byte   W96
@  #13 @111   ----------------------------------------
 .byte   W96
@  #13 @112   ----------------------------------------
 .byte   W96
@  #13 @113   ----------------------------------------
 .byte   W96
@  #13 @114   ----------------------------------------
 .byte   W96
@  #13 @115   ----------------------------------------
 .byte   W96
@  #13 @116   ----------------------------------------
 .byte   W96
@  #13 @117   ----------------------------------------
 .byte   W96
@  #13 @118   ----------------------------------------
 .byte   W96
@  #13 @119   ----------------------------------------
 .byte   W96
@  #13 @120   ----------------------------------------
 .byte   W96
@  #13 @121   ----------------------------------------
 .byte   W96
@  #13 @122   ----------------------------------------
 .byte   W96
@  #13 @123   ----------------------------------------
 .byte   W96
@  #13 @124   ----------------------------------------
 .byte   W96
@  #13 @125   ----------------------------------------
 .byte   N92 ,Cn4 ,v064
 .byte   W96
@  #13 @126   ----------------------------------------
 .byte   N96 ,As3
 .byte   W96
@  #13 @127   ----------------------------------------
 .byte   Cn4
 .byte   W96
@  #13 @128   ----------------------------------------
 .byte   Cs4
 .byte   W96
@  #13 @129   ----------------------------------------
 .byte   W96
@  #13 @130   ----------------------------------------
 .byte   W96
@  #13 @131   ----------------------------------------
 .byte   W96
@  #13 @132   ----------------------------------------
 .byte   W96
@  #13 @133   ----------------------------------------
 .byte   W96
@  #13 @134   ----------------------------------------
 .byte   W96
@  #13 @135   ----------------------------------------
 .byte   W96
@  #13 @136   ----------------------------------------
 .byte   W96
@  #13 @137   ----------------------------------------
 .byte   Cs3
 .byte   W96
@  #13 @138   ----------------------------------------
 .byte   Fn3
 .byte   W96
@  #13 @139   ----------------------------------------
 .byte   Ds3
 .byte   W96
@  #13 @140   ----------------------------------------
 .byte   Cs4
 .byte   W96
@  #13 @141   ----------------------------------------
 .byte   PATT
  .word Label_011316EF
@  #13 @142   ----------------------------------------
 .byte   W96
@  #13 @143   ----------------------------------------
 .byte   W96
@  #13 @144   ----------------------------------------
 .byte   W92
 .byte   W03
 .byte   EOT
 .byte   As3
 .byte   N01 ,As3 ,v064
 .byte   W01
@  #13 @145   ----------------------------------------
 .byte   W96
@  #13 @146   ----------------------------------------
 .byte   W96
@  #13 @147   ----------------------------------------
 .byte   W96
@  #13 @148   ----------------------------------------
 .byte   W96
@  #13 @149   ----------------------------------------
 .byte   W96
@  #13 @150   ----------------------------------------
 .byte   W96
@  #13 @151   ----------------------------------------
 .byte   W96
@  #13 @152   ----------------------------------------
 .byte   W48
 .byte   N44 ,Cs3 ,v080
 .byte   W48
@  #13 @153   ----------------------------------------
 .byte   PATT
  .word Label_01131709
@  #13 @154   ----------------------------------------
 .byte   PATT
  .word Label_01131711
@  #13 @155   ----------------------------------------
 .byte   PATT
  .word Label_01131719
@  #13 @156   ----------------------------------------
 .byte   PATT
  .word Label_01131724
@  #13 @157   ----------------------------------------
 .byte   PATT
  .word Label_01131730
@  #13 @158   ----------------------------------------
 .byte   W44
 .byte   W03
 .byte   EOT
 .byte   Fn3
 .byte   N01 ,Fn3 ,v080
 .byte   W01
 .byte   N44 ,Cn3
 .byte   W48
@  #13 @159   ----------------------------------------
 .byte   PATT
  .word Label_0113173F
@  #13 @160   ----------------------------------------
 .byte   W44
 .byte   W03
 .byte   EOT
 .byte   Cs3
 .byte   N01 ,Cs3 ,v080
 .byte   W01
 .byte   N23 ,Ds3
 .byte   W24
 .byte   N24 ,Fn3
 .byte   W24
@  #13 @161   ----------------------------------------
 .byte   TIE ,Fs3
 .byte   W96
@  #13 @162   ----------------------------------------
 .byte   W23
 .byte   EOT
 .byte   W01
 .byte   N23 ,Fn3
 .byte   W24
 .byte   N24 ,Ds3
 .byte   W24
 .byte   Cs3
 .byte   W24
@  #13 @163   ----------------------------------------
 .byte   TIE ,Ds3
 .byte   W96
@  #13 @164   ----------------------------------------
 .byte   W23
 .byte   EOT
 .byte   W01
 .byte   N23 ,Fn3
 .byte   W24
 .byte   N24 ,Fs3
 .byte   W24
 .byte   Gs3
 .byte   W24
@  #13 @165   ----------------------------------------
 .byte   N92 ,Fn3
 .byte   W96
@  #13 @166   ----------------------------------------
 .byte   N96 ,Ds3
 .byte   W96
@  #13 @167   ----------------------------------------
 .byte   Cn3
 .byte   W96
@  #13 @168   ----------------------------------------
 .byte   PATT
  .word Label_01131775
@  #13 @169   ----------------------------------------
 .byte   PATT
  .word Label_01131781
@  #13 @170   ----------------------------------------
 .byte   TIE ,As3 ,v080
 .byte   W96
@  #13 @171   ----------------------------------------
 .byte   W44
 .byte   W03
 .byte   EOT
 .byte   W01
 .byte   N23 ,Fn3
 .byte   W24
 .byte   N24 ,Fn4
 .byte   W24
@  #13 @172   ----------------------------------------
 .byte   PATT
  .word Label_01131796
@  #13 @173   ----------------------------------------
 .byte   PATT
  .word Label_011317A4
@  #13 @174   ----------------------------------------
 .byte   W96
@  #13 @175   ----------------------------------------
 .byte   W92
 .byte   W03
 .byte   EOT
 .byte   As3
 .byte   N01 ,As3 ,v080
 .byte   W01
@  #13 @176   ----------------------------------------
 .byte   PATT
  .word Label_01131775
@  #13 @177   ----------------------------------------
 .byte   PATT
  .word Label_01131781
@  #13 @178   ----------------------------------------
 .byte   TIE ,As3 ,v080
 .byte   W96
@  #13 @179   ----------------------------------------
 .byte   W44
 .byte   W03
 .byte   EOT
 .byte   W01
 .byte   N23 ,Fn3
 .byte   W24
 .byte   N24 ,Fn4
 .byte   W24
@  #13 @180   ----------------------------------------
 .byte   PATT
  .word Label_01131796
@  #13 @181   ----------------------------------------
 .byte   PATT
  .word Label_011317D1
@  #13 @182   ----------------------------------------
 .byte   PATT
  .word Label_011317DC
@  #13 @183   ----------------------------------------
 .byte   PATT
  .word Label_011317DC
@  #13 @184   ----------------------------------------
 .byte   PATT
  .word Label_011317DC
 .byte   FINE

@**************** Track 14 (Midi-Chn.13) ****************@

.align 2, 0
song06_014:
@  #14 @000   ----------------------------------------
 .byte   KEYSH , song06_key+0
Label_01131512:
 .byte   VOICE , 106
 .byte   VOL , 52*song06_mvl/mxv
 .byte   PAN , c_v+0
 .byte   W96
@  #14 @001   ----------------------------------------
 .byte   W96
@  #14 @002   ----------------------------------------
 .byte   W96
@  #14 @003   ----------------------------------------
 .byte   W96
@  #14 @004   ----------------------------------------
 .byte   W96
@  #14 @005   ----------------------------------------
 .byte   W96
@  #14 @006   ----------------------------------------
 .byte   W96
@  #14 @007   ----------------------------------------
 .byte   W96
@  #14 @008   ----------------------------------------
 .byte   W96
@  #14 @009   ----------------------------------------
 .byte   W96
@  #14 @010   ----------------------------------------
 .byte   W96
@  #14 @011   ----------------------------------------
 .byte   W96
@  #14 @012   ----------------------------------------
 .byte   W96
@  #14 @013   ----------------------------------------
 .byte   W96
@  #14 @014   ----------------------------------------
 .byte   W96
@  #14 @015   ----------------------------------------
 .byte   W96
@  #14 @016   ----------------------------------------
 .byte   N92 ,Cn4 ,v052
 .byte   W96
@  #14 @017   ----------------------------------------
 .byte   N96 ,As3
 .byte   W96
@  #14 @018   ----------------------------------------
 .byte   N92 ,An3
 .byte   W96
@  #14 @019   ----------------------------------------
 .byte   N96 ,As3 ,v064
 .byte   W96
@  #14 @020   ----------------------------------------
 .byte   W96
@  #14 @021   ----------------------------------------
 .byte   W96
@  #14 @022   ----------------------------------------
 .byte   W96
@  #14 @023   ----------------------------------------
 .byte   W96
@  #14 @024   ----------------------------------------
 .byte   W96
@  #14 @025   ----------------------------------------
 .byte   W96
@  #14 @026   ----------------------------------------
 .byte   W96
@  #14 @027   ----------------------------------------
 .byte   W96
@  #14 @028   ----------------------------------------
 .byte   W96
@  #14 @029   ----------------------------------------
 .byte   W96
@  #14 @030   ----------------------------------------
 .byte   W96
@  #14 @031   ----------------------------------------
 .byte   W96
@  #14 @032   ----------------------------------------
 .byte   W96
@  #14 @033   ----------------------------------------
 .byte   W96
@  #14 @034   ----------------------------------------
 .byte   W96
@  #14 @035   ----------------------------------------
 .byte   W96
@  #14 @036   ----------------------------------------
 .byte   W96
@  #14 @037   ----------------------------------------
 .byte   W96
@  #14 @038   ----------------------------------------
 .byte   W96
@  #14 @039   ----------------------------------------
 .byte   W96
@  #14 @040   ----------------------------------------
 .byte   W96
@  #14 @041   ----------------------------------------
 .byte   W96
@  #14 @042   ----------------------------------------
 .byte   W96
@  #14 @043   ----------------------------------------
 .byte   W96
@  #14 @044   ----------------------------------------
 .byte   W96
@  #14 @045   ----------------------------------------
 .byte   W96
@  #14 @046   ----------------------------------------
 .byte   W96
@  #14 @047   ----------------------------------------
 .byte   W96
@  #14 @048   ----------------------------------------
 .byte   W96
@  #14 @049   ----------------------------------------
 .byte   W96
@  #14 @050   ----------------------------------------
 .byte   W96
@  #14 @051   ----------------------------------------
 .byte   W96
@  #14 @052   ----------------------------------------
 .byte   W96
@  #14 @053   ----------------------------------------
 .byte   W96
@  #14 @054   ----------------------------------------
 .byte   W96
@  #14 @055   ----------------------------------------
 .byte   W96
@  #14 @056   ----------------------------------------
 .byte   W96
@  #14 @057   ----------------------------------------
 .byte   W96
@  #14 @058   ----------------------------------------
 .byte   W96
@  #14 @059   ----------------------------------------
 .byte   W96
@  #14 @060   ----------------------------------------
 .byte   W96
@  #14 @061   ----------------------------------------
 .byte   W96
@  #14 @062   ----------------------------------------
 .byte   W96
@  #14 @063   ----------------------------------------
 .byte   W96
@  #14 @064   ----------------------------------------
 .byte   W96
@  #14 @065   ----------------------------------------
 .byte   W96
@  #14 @066   ----------------------------------------
 .byte   W96
@  #14 @067   ----------------------------------------
 .byte   W96
@  #14 @068   ----------------------------------------
 .byte   W96
@  #14 @069   ----------------------------------------
 .byte   W96
@  #14 @070   ----------------------------------------
 .byte   W96
@  #14 @071   ----------------------------------------
 .byte   W96
@  #14 @072   ----------------------------------------
 .byte   W96
@  #14 @073   ----------------------------------------
 .byte   W96
@  #14 @074   ----------------------------------------
 .byte   W96
@  #14 @075   ----------------------------------------
 .byte   W96
@  #14 @076   ----------------------------------------
 .byte   W96
@  #14 @077   ----------------------------------------
 .byte   W96
@  #14 @078   ----------------------------------------
 .byte   W96
@  #14 @079   ----------------------------------------
 .byte   W96
@  #14 @080   ----------------------------------------
 .byte   W96
@  #14 @081   ----------------------------------------
 .byte   W96
@  #14 @082   ----------------------------------------
 .byte   W96
@  #14 @083   ----------------------------------------
 .byte   W96
@  #14 @084   ----------------------------------------
 .byte   W96
@  #14 @085   ----------------------------------------
 .byte   W96
@  #14 @086   ----------------------------------------
 .byte   W96
@  #14 @087   ----------------------------------------
 .byte   W96
@  #14 @088   ----------------------------------------
 .byte   W96
@  #14 @089   ----------------------------------------
 .byte   W96
@  #14 @090   ----------------------------------------
 .byte   W96
@  #14 @091   ----------------------------------------
 .byte   W96
@  #14 @092   ----------------------------------------
 .byte   GOTO
  .word Label_01131512
@  #14 @093   ----------------------------------------
 .byte   W96
@  #14 @094   ----------------------------------------
 .byte   W96
@  #14 @095   ----------------------------------------
 .byte   W96
@  #14 @096   ----------------------------------------
 .byte   W96
@  #14 @097   ----------------------------------------
 .byte   W96
@  #14 @098   ----------------------------------------
 .byte   W96
@  #14 @099   ----------------------------------------
 .byte   W96
@  #14 @100   ----------------------------------------
 .byte   W96
@  #14 @101   ----------------------------------------
 .byte   W96
@  #14 @102   ----------------------------------------
 .byte   W96
@  #14 @103   ----------------------------------------
 .byte   W96
@  #14 @104   ----------------------------------------
 .byte   W96
@  #14 @105   ----------------------------------------
 .byte   W96
@  #14 @106   ----------------------------------------
 .byte   W96
@  #14 @107   ----------------------------------------
 .byte   W96
@  #14 @108   ----------------------------------------
 .byte   W96
@  #14 @109   ----------------------------------------
 .byte   N96 ,Cn4 ,v052
 .byte   W96
@  #14 @110   ----------------------------------------
 .byte   As3
 .byte   W96
@  #14 @111   ----------------------------------------
 .byte   N92 ,An3
 .byte   W96
@  #14 @112   ----------------------------------------
 .byte   As3 ,v064
 .byte   W96
@  #14 @113   ----------------------------------------
 .byte   W96
@  #14 @114   ----------------------------------------
 .byte   W96
@  #14 @115   ----------------------------------------
 .byte   W96
@  #14 @116   ----------------------------------------
 .byte   W96
@  #14 @117   ----------------------------------------
 .byte   W96
@  #14 @118   ----------------------------------------
 .byte   W96
@  #14 @119   ----------------------------------------
 .byte   W96
@  #14 @120   ----------------------------------------
 .byte   W96
@  #14 @121   ----------------------------------------
 .byte   W96
@  #14 @122   ----------------------------------------
 .byte   W96
@  #14 @123   ----------------------------------------
 .byte   W96
@  #14 @124   ----------------------------------------
 .byte   W96
@  #14 @125   ----------------------------------------
 .byte   W96
@  #14 @126   ----------------------------------------
 .byte   W96
@  #14 @127   ----------------------------------------
 .byte   W96
@  #14 @128   ----------------------------------------
 .byte   W96
@  #14 @129   ----------------------------------------
 .byte   W96
@  #14 @130   ----------------------------------------
 .byte   W96
@  #14 @131   ----------------------------------------
 .byte   W96
@  #14 @132   ----------------------------------------
 .byte   W96
@  #14 @133   ----------------------------------------
 .byte   W96
@  #14 @134   ----------------------------------------
 .byte   W96
@  #14 @135   ----------------------------------------
 .byte   W96
@  #14 @136   ----------------------------------------
 .byte   W96
@  #14 @137   ----------------------------------------
 .byte   W96
@  #14 @138   ----------------------------------------
 .byte   W96
@  #14 @139   ----------------------------------------
 .byte   W96
@  #14 @140   ----------------------------------------
 .byte   W96
@  #14 @141   ----------------------------------------
 .byte   W96
@  #14 @142   ----------------------------------------
 .byte   W96
@  #14 @143   ----------------------------------------
 .byte   W96
@  #14 @144   ----------------------------------------
 .byte   W96
@  #14 @145   ----------------------------------------
 .byte   W96
@  #14 @146   ----------------------------------------
 .byte   W96
@  #14 @147   ----------------------------------------
 .byte   W96
@  #14 @148   ----------------------------------------
 .byte   W96
@  #14 @149   ----------------------------------------
 .byte   W96
@  #14 @150   ----------------------------------------
 .byte   W96
@  #14 @151   ----------------------------------------
 .byte   W96
@  #14 @152   ----------------------------------------
 .byte   W96
@  #14 @153   ----------------------------------------
 .byte   W96
@  #14 @154   ----------------------------------------
 .byte   W96
@  #14 @155   ----------------------------------------
 .byte   W96
@  #14 @156   ----------------------------------------
 .byte   W96
@  #14 @157   ----------------------------------------
 .byte   W96
@  #14 @158   ----------------------------------------
 .byte   W96
@  #14 @159   ----------------------------------------
 .byte   W96
@  #14 @160   ----------------------------------------
 .byte   W96
@  #14 @161   ----------------------------------------
 .byte   W96
@  #14 @162   ----------------------------------------
 .byte   W96
@  #14 @163   ----------------------------------------
 .byte   W96
@  #14 @164   ----------------------------------------
 .byte   W96
@  #14 @165   ----------------------------------------
 .byte   W96
@  #14 @166   ----------------------------------------
 .byte   W96
@  #14 @167   ----------------------------------------
 .byte   W96
@  #14 @168   ----------------------------------------
 .byte   W96
@  #14 @169   ----------------------------------------
 .byte   W96
@  #14 @170   ----------------------------------------
 .byte   W96
@  #14 @171   ----------------------------------------
 .byte   W96
@  #14 @172   ----------------------------------------
 .byte   W96
@  #14 @173   ----------------------------------------
 .byte   W96
@  #14 @174   ----------------------------------------
 .byte   W96
@  #14 @175   ----------------------------------------
 .byte   W96
@  #14 @176   ----------------------------------------
 .byte   W96
@  #14 @177   ----------------------------------------
 .byte   W96
@  #14 @178   ----------------------------------------
 .byte   W96
@  #14 @179   ----------------------------------------
 .byte   W96
@  #14 @180   ----------------------------------------
 .byte   W96
@  #14 @181   ----------------------------------------
 .byte   W96
@  #14 @182   ----------------------------------------
 .byte   W96
@  #14 @183   ----------------------------------------
 .byte   W96
@  #14 @184   ----------------------------------------
 .byte   W96
 .byte   FINE

@**************** Track 15 (Midi-Chn.14) ****************@

.align 2, 0
song06_015:
@  #15 @000   ----------------------------------------
 .byte   KEYSH , song06_key+0
Label_0115FE12:
 .byte   VOICE , 110
 .byte   PAN , c_v+3
 .byte   VOL , 52*song06_mvl/mxv
 .byte   W96
@  #15 @001   ----------------------------------------
 .byte   W96
@  #15 @002   ----------------------------------------
 .byte   W96
@  #15 @003   ----------------------------------------
 .byte   W96
@  #15 @004   ----------------------------------------
 .byte   W96
@  #15 @005   ----------------------------------------
 .byte   W96
@  #15 @006   ----------------------------------------
 .byte   W96
@  #15 @007   ----------------------------------------
 .byte   W96
@  #15 @008   ----------------------------------------
 .byte   W96
@  #15 @009   ----------------------------------------
 .byte   W96
@  #15 @010   ----------------------------------------
 .byte   W96
@  #15 @011   ----------------------------------------
 .byte   W96
@  #15 @012   ----------------------------------------
 .byte   W96
@  #15 @013   ----------------------------------------
 .byte   W96
@  #15 @014   ----------------------------------------
 .byte   W96
@  #15 @015   ----------------------------------------
 .byte   W96
@  #15 @016   ----------------------------------------
 .byte   TIE ,As1 ,v064
 .byte   W96
@  #15 @017   ----------------------------------------
 .byte   W96
@  #15 @018   ----------------------------------------
 .byte   W96
@  #15 @019   ----------------------------------------
 .byte   W92
 .byte   W03
 .byte   EOT
 .byte   W01
@  #15 @020   ----------------------------------------
 .byte   W96
@  #15 @021   ----------------------------------------
 .byte   W96
@  #15 @022   ----------------------------------------
 .byte   W96
@  #15 @023   ----------------------------------------
 .byte   W96
@  #15 @024   ----------------------------------------
 .byte   W96
@  #15 @025   ----------------------------------------
 .byte   W96
@  #15 @026   ----------------------------------------
 .byte   W96
@  #15 @027   ----------------------------------------
 .byte   W96
@  #15 @028   ----------------------------------------
 .byte   W96
@  #15 @029   ----------------------------------------
 .byte   W96
@  #15 @030   ----------------------------------------
 .byte   W96
@  #15 @031   ----------------------------------------
 .byte   W96
@  #15 @032   ----------------------------------------
 .byte   W96
@  #15 @033   ----------------------------------------
 .byte   W96
@  #15 @034   ----------------------------------------
 .byte   W96
@  #15 @035   ----------------------------------------
 .byte   W96
@  #15 @036   ----------------------------------------
 .byte   W96
@  #15 @037   ----------------------------------------
 .byte   W96
@  #15 @038   ----------------------------------------
 .byte   W96
@  #15 @039   ----------------------------------------
 .byte   W96
@  #15 @040   ----------------------------------------
 .byte   W96
@  #15 @041   ----------------------------------------
 .byte   W96
@  #15 @042   ----------------------------------------
 .byte   W96
@  #15 @043   ----------------------------------------
 .byte   W96
@  #15 @044   ----------------------------------------
 .byte   W96
@  #15 @045   ----------------------------------------
 .byte   W96
@  #15 @046   ----------------------------------------
 .byte   W96
@  #15 @047   ----------------------------------------
 .byte   W96
@  #15 @048   ----------------------------------------
 .byte   W96
@  #15 @049   ----------------------------------------
 .byte   W96
@  #15 @050   ----------------------------------------
 .byte   W96
@  #15 @051   ----------------------------------------
 .byte   W96
@  #15 @052   ----------------------------------------
 .byte   W96
@  #15 @053   ----------------------------------------
 .byte   W96
@  #15 @054   ----------------------------------------
 .byte   W96
@  #15 @055   ----------------------------------------
 .byte   W96
@  #15 @056   ----------------------------------------
 .byte   W96
@  #15 @057   ----------------------------------------
 .byte   W96
@  #15 @058   ----------------------------------------
 .byte   W96
@  #15 @059   ----------------------------------------
 .byte   W96
@  #15 @060   ----------------------------------------
 .byte   W96
@  #15 @061   ----------------------------------------
 .byte   W96
@  #15 @062   ----------------------------------------
 .byte   W96
@  #15 @063   ----------------------------------------
 .byte   W96
@  #15 @064   ----------------------------------------
 .byte   W96
@  #15 @065   ----------------------------------------
 .byte   W96
@  #15 @066   ----------------------------------------
 .byte   W96
@  #15 @067   ----------------------------------------
 .byte   W96
@  #15 @068   ----------------------------------------
 .byte   W96
@  #15 @069   ----------------------------------------
 .byte   W96
@  #15 @070   ----------------------------------------
 .byte   W96
@  #15 @071   ----------------------------------------
 .byte   W96
@  #15 @072   ----------------------------------------
 .byte   W96
@  #15 @073   ----------------------------------------
 .byte   W96
@  #15 @074   ----------------------------------------
 .byte   W96
@  #15 @075   ----------------------------------------
 .byte   W96
@  #15 @076   ----------------------------------------
 .byte   W96
@  #15 @077   ----------------------------------------
 .byte   W96
@  #15 @078   ----------------------------------------
 .byte   W96
@  #15 @079   ----------------------------------------
 .byte   W96
@  #15 @080   ----------------------------------------
 .byte   W96
@  #15 @081   ----------------------------------------
 .byte   W96
@  #15 @082   ----------------------------------------
 .byte   W96
@  #15 @083   ----------------------------------------
 .byte   W96
@  #15 @084   ----------------------------------------
 .byte   W96
@  #15 @085   ----------------------------------------
 .byte   W96
@  #15 @086   ----------------------------------------
 .byte   W96
@  #15 @087   ----------------------------------------
 .byte   W96
@  #15 @088   ----------------------------------------
 .byte   W96
@  #15 @089   ----------------------------------------
 .byte   W96
@  #15 @090   ----------------------------------------
 .byte   W96
@  #15 @091   ----------------------------------------
 .byte   W96
@  #15 @092   ----------------------------------------
 .byte   GOTO
  .word Label_0115FE12
@  #15 @093   ----------------------------------------
 .byte   W96
@  #15 @094   ----------------------------------------
 .byte   W96
@  #15 @095   ----------------------------------------
 .byte   W96
@  #15 @096   ----------------------------------------
 .byte   W96
@  #15 @097   ----------------------------------------
 .byte   W96
@  #15 @098   ----------------------------------------
 .byte   W96
@  #15 @099   ----------------------------------------
 .byte   W96
@  #15 @100   ----------------------------------------
 .byte   W96
@  #15 @101   ----------------------------------------
 .byte   W96
@  #15 @102   ----------------------------------------
 .byte   W96
@  #15 @103   ----------------------------------------
 .byte   W96
@  #15 @104   ----------------------------------------
 .byte   W96
@  #15 @105   ----------------------------------------
 .byte   W96
@  #15 @106   ----------------------------------------
 .byte   W96
@  #15 @107   ----------------------------------------
 .byte   W96
@  #15 @108   ----------------------------------------
 .byte   W96
@  #15 @109   ----------------------------------------
 .byte   TIE ,As1 ,v064
 .byte   W96
@  #15 @110   ----------------------------------------
 .byte   W96
@  #15 @111   ----------------------------------------
 .byte   W96
@  #15 @112   ----------------------------------------
 .byte   W92
 .byte   W03
 .byte   EOT
 .byte   W01
@  #15 @113   ----------------------------------------
 .byte   W96
@  #15 @114   ----------------------------------------
 .byte   W96
@  #15 @115   ----------------------------------------
 .byte   W96
@  #15 @116   ----------------------------------------
 .byte   W96
@  #15 @117   ----------------------------------------
 .byte   W96
@  #15 @118   ----------------------------------------
 .byte   W96
@  #15 @119   ----------------------------------------
 .byte   W96
@  #15 @120   ----------------------------------------
 .byte   W96
@  #15 @121   ----------------------------------------
 .byte   W96
@  #15 @122   ----------------------------------------
 .byte   W96
@  #15 @123   ----------------------------------------
 .byte   W96
@  #15 @124   ----------------------------------------
 .byte   W96
@  #15 @125   ----------------------------------------
 .byte   W96
@  #15 @126   ----------------------------------------
 .byte   W96
@  #15 @127   ----------------------------------------
 .byte   W96
@  #15 @128   ----------------------------------------
 .byte   W96
@  #15 @129   ----------------------------------------
 .byte   W96
@  #15 @130   ----------------------------------------
 .byte   W96
@  #15 @131   ----------------------------------------
 .byte   W96
@  #15 @132   ----------------------------------------
 .byte   W96
@  #15 @133   ----------------------------------------
 .byte   W96
@  #15 @134   ----------------------------------------
 .byte   W96
@  #15 @135   ----------------------------------------
 .byte   W96
@  #15 @136   ----------------------------------------
 .byte   W96
@  #15 @137   ----------------------------------------
 .byte   W96
@  #15 @138   ----------------------------------------
 .byte   W96
@  #15 @139   ----------------------------------------
 .byte   W96
@  #15 @140   ----------------------------------------
 .byte   W96
@  #15 @141   ----------------------------------------
 .byte   W96
@  #15 @142   ----------------------------------------
 .byte   W96
@  #15 @143   ----------------------------------------
 .byte   W96
@  #15 @144   ----------------------------------------
 .byte   W96
@  #15 @145   ----------------------------------------
 .byte   W96
@  #15 @146   ----------------------------------------
 .byte   W96
@  #15 @147   ----------------------------------------
 .byte   W96
@  #15 @148   ----------------------------------------
 .byte   W96
@  #15 @149   ----------------------------------------
 .byte   W96
@  #15 @150   ----------------------------------------
 .byte   W96
@  #15 @151   ----------------------------------------
 .byte   W96
@  #15 @152   ----------------------------------------
 .byte   W96
@  #15 @153   ----------------------------------------
 .byte   W96
@  #15 @154   ----------------------------------------
 .byte   W96
@  #15 @155   ----------------------------------------
 .byte   W96
@  #15 @156   ----------------------------------------
 .byte   W96
@  #15 @157   ----------------------------------------
 .byte   W96
@  #15 @158   ----------------------------------------
 .byte   W96
@  #15 @159   ----------------------------------------
 .byte   W96
@  #15 @160   ----------------------------------------
 .byte   W96
@  #15 @161   ----------------------------------------
 .byte   W96
@  #15 @162   ----------------------------------------
 .byte   W96
@  #15 @163   ----------------------------------------
 .byte   W96
@  #15 @164   ----------------------------------------
 .byte   W96
@  #15 @165   ----------------------------------------
 .byte   W96
@  #15 @166   ----------------------------------------
 .byte   W96
@  #15 @167   ----------------------------------------
 .byte   W96
@  #15 @168   ----------------------------------------
 .byte   W96
@  #15 @169   ----------------------------------------
 .byte   W96
@  #15 @170   ----------------------------------------
 .byte   W96
@  #15 @171   ----------------------------------------
 .byte   W96
@  #15 @172   ----------------------------------------
 .byte   W96
@  #15 @173   ----------------------------------------
 .byte   W96
@  #15 @174   ----------------------------------------
 .byte   W96
@  #15 @175   ----------------------------------------
 .byte   W96
@  #15 @176   ----------------------------------------
 .byte   W96
@  #15 @177   ----------------------------------------
 .byte   W96
@  #15 @178   ----------------------------------------
 .byte   W96
@  #15 @179   ----------------------------------------
 .byte   W96
@  #15 @180   ----------------------------------------
 .byte   W96
@  #15 @181   ----------------------------------------
 .byte   W96
@  #15 @182   ----------------------------------------
 .byte   W96
@  #15 @183   ----------------------------------------
 .byte   W96
@  #15 @184   ----------------------------------------
 .byte   W96
 .byte   FINE

@**************** Track 16 (Midi-Chn.15) ****************@

.align 2, 0
song06_016:
@  #16 @000   ----------------------------------------
 .byte   KEYSH , song06_key+0
Label_0116379E:
 .byte   VOICE , 49
 .byte   PAN , c_v+3
 .byte   VOL , 52*song06_mvl/mxv
 .byte   N23 ,As1 ,v096
 .byte   W96
@  #16 @001   ----------------------------------------
 .byte   W72
 .byte   N23
 .byte   W24
@  #16 @002   ----------------------------------------
 .byte   W24
 .byte   N23
 .byte   W72
@  #16 @003   ----------------------------------------
 .byte   W72
 .byte   N23
 .byte   W24
@  #16 @004   ----------------------------------------
 .byte   N96 ,Fs1
 .byte   W96
@  #16 @005   ----------------------------------------
 .byte   W72
 .byte   N24 ,Ds1
 .byte   W24
@  #16 @006   ----------------------------------------
 .byte   W24
 .byte   N23
 .byte   W72
@  #16 @007   ----------------------------------------
Label_011637BB:
 .byte   N23 ,Fn1 ,v096
 .byte   W48
 .byte   N48 ,An1
 .byte   W48
 .byte   PEND 
@  #16 @008   ----------------------------------------
 .byte   N96 ,As1
 .byte   W96
@  #16 @009   ----------------------------------------
 .byte   W72
 .byte   N23
 .byte   W24
@  #16 @010   ----------------------------------------
 .byte   W24
 .byte   N23
 .byte   W72
@  #16 @011   ----------------------------------------
 .byte   W72
 .byte   N23
 .byte   W24
@  #16 @012   ----------------------------------------
 .byte   N96 ,Fs1
 .byte   W96
@  #16 @013   ----------------------------------------
 .byte   W72
 .byte   N24 ,Ds1
 .byte   W24
@  #16 @014   ----------------------------------------
 .byte   W24
 .byte   N23
 .byte   W72
@  #16 @015   ----------------------------------------
 .byte   PATT
  .word Label_011637BB
@  #16 @016   ----------------------------------------
 .byte   W96
@  #16 @017   ----------------------------------------
 .byte   W96
@  #16 @018   ----------------------------------------
 .byte   W96
@  #16 @019   ----------------------------------------
 .byte   W96
@  #16 @020   ----------------------------------------
Label_011637E2:
 .byte   W48
 .byte   N16 ,Fs1 ,v076
 .byte   W24
 .byte   N16
 .byte   W24
 .byte   PEND 
@  #16 @021   ----------------------------------------
Label_011637EA:
 .byte   N16 ,Fs1 ,v076
 .byte   W24
 .byte   N16
 .byte   W24
 .byte   N16
 .byte   W24
 .byte   N03 ,An1
 .byte   W24
 .byte   PEND 
@  #16 @022   ----------------------------------------
Label_011637F6:
 .byte   N16 ,An1 ,v076
 .byte   W24
 .byte   N16
 .byte   W24
 .byte   N16
 .byte   W24
 .byte   N16
 .byte   W24
 .byte   PEND 
@  #16 @023   ----------------------------------------
 .byte   PATT
  .word Label_011637F6
@  #16 @024   ----------------------------------------
Label_01163806:
 .byte   W48
 .byte   N16 ,As1 ,v076
 .byte   W24
 .byte   N16
 .byte   W24
 .byte   PEND 
@  #16 @025   ----------------------------------------
Label_0116380E:
 .byte   N16 ,As1 ,v076
 .byte   W24
 .byte   N16
 .byte   W24
 .byte   N16
 .byte   W24
 .byte   N03 ,Gn1
 .byte   W24
 .byte   PEND 
@  #16 @026   ----------------------------------------
Label_0116381A:
 .byte   N16 ,Gn1 ,v076
 .byte   W24
 .byte   N16
 .byte   W24
 .byte   N16
 .byte   W24
 .byte   N16
 .byte   W24
 .byte   PEND 
@  #16 @027   ----------------------------------------
 .byte   PATT
  .word Label_0116381A
@  #16 @028   ----------------------------------------
 .byte   PATT
  .word Label_011637E2
@  #16 @029   ----------------------------------------
 .byte   PATT
  .word Label_011637EA
@  #16 @030   ----------------------------------------
 .byte   PATT
  .word Label_011637F6
@  #16 @031   ----------------------------------------
 .byte   PATT
  .word Label_011637F6
@  #16 @032   ----------------------------------------
Label_0116383E:
 .byte   N16 ,As1 ,v076
 .byte   W24
 .byte   N16
 .byte   W24
 .byte   N16
 .byte   W24
 .byte   N16
 .byte   W24
 .byte   PEND 
@  #16 @033   ----------------------------------------
 .byte   PATT
  .word Label_0116383E
@  #16 @034   ----------------------------------------
 .byte   PATT
  .word Label_0116383E
@  #16 @035   ----------------------------------------
 .byte   PATT
  .word Label_0116383E
@  #16 @036   ----------------------------------------
 .byte   PATT
  .word Label_011637E2
@  #16 @037   ----------------------------------------
 .byte   PATT
  .word Label_011637EA
@  #16 @038   ----------------------------------------
 .byte   PATT
  .word Label_011637F6
@  #16 @039   ----------------------------------------
 .byte   PATT
  .word Label_011637F6
@  #16 @040   ----------------------------------------
 .byte   PATT
  .word Label_01163806
@  #16 @041   ----------------------------------------
 .byte   PATT
  .word Label_0116380E
@  #16 @042   ----------------------------------------
 .byte   PATT
  .word Label_0116381A
@  #16 @043   ----------------------------------------
 .byte   PATT
  .word Label_0116381A
@  #16 @044   ----------------------------------------
Label_01163880:
 .byte   W48
 .byte   N16 ,Ds1 ,v076
 .byte   W24
 .byte   N16
 .byte   W24
 .byte   PEND 
@  #16 @045   ----------------------------------------
Label_01163888:
 .byte   N16 ,Ds1 ,v076
 .byte   W24
 .byte   N16
 .byte   W24
 .byte   N16
 .byte   W24
 .byte   N03 ,Fn1
 .byte   W24
 .byte   PEND 
@  #16 @046   ----------------------------------------
Label_01163894:
 .byte   N16 ,Fn1 ,v076
 .byte   W24
 .byte   N16
 .byte   W24
 .byte   N16
 .byte   W24
 .byte   N16
 .byte   W24
 .byte   PEND 
@  #16 @047   ----------------------------------------
 .byte   PATT
  .word Label_011637F6
@  #16 @048   ----------------------------------------
 .byte   PATT
  .word Label_0116383E
@  #16 @049   ----------------------------------------
 .byte   PATT
  .word Label_0116383E
@  #16 @050   ----------------------------------------
 .byte   PATT
  .word Label_0116383E
@  #16 @051   ----------------------------------------
 .byte   PATT
  .word Label_0116383E
@  #16 @052   ----------------------------------------
Label_011638B8:
 .byte   N16 ,Fs1 ,v076
 .byte   W24
 .byte   N16
 .byte   W24
 .byte   N16
 .byte   W24
 .byte   N16
 .byte   W24
 .byte   PEND 
@  #16 @053   ----------------------------------------
 .byte   PATT
  .word Label_011638B8
@  #16 @054   ----------------------------------------
 .byte   PATT
  .word Label_011638B8
@  #16 @055   ----------------------------------------
 .byte   PATT
  .word Label_011638B8
@  #16 @056   ----------------------------------------
 .byte   PATT
  .word Label_0116383E
@  #16 @057   ----------------------------------------
 .byte   PATT
  .word Label_0116383E
@  #16 @058   ----------------------------------------
 .byte   PATT
  .word Label_0116383E
@  #16 @059   ----------------------------------------
 .byte   PATT
  .word Label_0116383E
@  #16 @060   ----------------------------------------
Label_011638E6:
 .byte   N16 ,Ds1 ,v076
 .byte   W24
 .byte   N16
 .byte   W24
 .byte   N16
 .byte   W24
 .byte   N16
 .byte   W24
 .byte   PEND 
@  #16 @061   ----------------------------------------
 .byte   PATT
  .word Label_011638E6
@  #16 @062   ----------------------------------------
 .byte   PATT
  .word Label_01163894
@  #16 @063   ----------------------------------------
 .byte   PATT
  .word Label_011637F6
@  #16 @064   ----------------------------------------
 .byte   PATT
  .word Label_0116383E
@  #16 @065   ----------------------------------------
 .byte   PATT
  .word Label_0116383E
@  #16 @066   ----------------------------------------
 .byte   PATT
  .word Label_0116383E
@  #16 @067   ----------------------------------------
 .byte   PATT
  .word Label_0116383E
@  #16 @068   ----------------------------------------
Label_01163914:
 .byte   N16 ,Bn1 ,v076
 .byte   W24
 .byte   N16
 .byte   W24
 .byte   N16
 .byte   W24
 .byte   N16
 .byte   W24
 .byte   PEND 
@  #16 @069   ----------------------------------------
 .byte   PATT
  .word Label_01163914
@  #16 @070   ----------------------------------------
 .byte   PATT
  .word Label_01163914
@  #16 @071   ----------------------------------------
 .byte   PATT
  .word Label_01163914
@  #16 @072   ----------------------------------------
Label_0116392E:
 .byte   N16 ,Cn2 ,v076
 .byte   W24
 .byte   N16
 .byte   W24
 .byte   N16
 .byte   W24
 .byte   N16
 .byte   W24
 .byte   PEND 
@  #16 @073   ----------------------------------------
 .byte   PATT
  .word Label_0116392E
@  #16 @074   ----------------------------------------
 .byte   PATT
  .word Label_01163894
@  #16 @075   ----------------------------------------
 .byte   PATT
  .word Label_01163894
@  #16 @076   ----------------------------------------
 .byte   PATT
  .word Label_011637E2
@  #16 @077   ----------------------------------------
Label_0116394D:
 .byte   N16 ,Gs1 ,v076
 .byte   W24
 .byte   N16
 .byte   W24
 .byte   N16
 .byte   W24
 .byte   N03 ,As1
 .byte   W24
 .byte   PEND 
@  #16 @078   ----------------------------------------
 .byte   PATT
  .word Label_0116383E
@  #16 @079   ----------------------------------------
 .byte   PATT
  .word Label_0116383E
@  #16 @080   ----------------------------------------
 .byte   PATT
  .word Label_01163880
@  #16 @081   ----------------------------------------
Label_01163968:
 .byte   N16 ,Fn1 ,v076
 .byte   W24
 .byte   N16
 .byte   W24
 .byte   N16
 .byte   W24
 .byte   N03 ,As1
 .byte   W24
 .byte   PEND 
@  #16 @082   ----------------------------------------
 .byte   PATT
  .word Label_0116383E
@  #16 @083   ----------------------------------------
 .byte   PATT
  .word Label_0116383E
@  #16 @084   ----------------------------------------
 .byte   PATT
  .word Label_011637E2
@  #16 @085   ----------------------------------------
 .byte   PATT
  .word Label_0116394D
@  #16 @086   ----------------------------------------
 .byte   PATT
  .word Label_0116383E
@  #16 @087   ----------------------------------------
 .byte   PATT
  .word Label_0116383E
@  #16 @088   ----------------------------------------
 .byte   PATT
  .word Label_01163880
@  #16 @089   ----------------------------------------
 .byte   PATT
  .word Label_01163968
@  #16 @090   ----------------------------------------
 .byte   PATT
  .word Label_0116383E
@  #16 @091   ----------------------------------------
 .byte   PATT
  .word Label_0116383E
@  #16 @092   ----------------------------------------
 .byte   GOTO
  .word Label_0116379E
@  #16 @093   ----------------------------------------
 .byte   N23 ,As1 ,v096
 .byte   W96
@  #16 @094   ----------------------------------------
 .byte   W72
 .byte   N23
 .byte   W24
@  #16 @095   ----------------------------------------
 .byte   W24
 .byte   N23
 .byte   W72
@  #16 @096   ----------------------------------------
 .byte   W72
 .byte   N23
 .byte   W24
@  #16 @097   ----------------------------------------
 .byte   N96 ,Fs1
 .byte   W96
@  #16 @098   ----------------------------------------
 .byte   W72
 .byte   N24 ,Ds1
 .byte   W24
@  #16 @099   ----------------------------------------
 .byte   W24
 .byte   N23
 .byte   W72
@  #16 @100   ----------------------------------------
 .byte   PATT
  .word Label_011637BB
@  #16 @101   ----------------------------------------
 .byte   N23 ,As1 ,v096
 .byte   W96
@  #16 @102   ----------------------------------------
 .byte   W72
 .byte   N23
 .byte   W24
@  #16 @103   ----------------------------------------
 .byte   W24
 .byte   N23
 .byte   W72
@  #16 @104   ----------------------------------------
 .byte   W72
 .byte   N23
 .byte   W24
@  #16 @105   ----------------------------------------
 .byte   N96 ,Fs1
 .byte   W96
@  #16 @106   ----------------------------------------
 .byte   W72
 .byte   N24 ,Ds1
 .byte   W24
@  #16 @107   ----------------------------------------
 .byte   W24
 .byte   N23
 .byte   W72
@  #16 @108   ----------------------------------------
 .byte   PATT
  .word Label_011637BB
@  #16 @109   ----------------------------------------
 .byte   W96
@  #16 @110   ----------------------------------------
 .byte   W96
@  #16 @111   ----------------------------------------
 .byte   W96
@  #16 @112   ----------------------------------------
 .byte   W96
@  #16 @113   ----------------------------------------
 .byte   PATT
  .word Label_011637E2
@  #16 @114   ----------------------------------------
 .byte   PATT
  .word Label_011637EA
@  #16 @115   ----------------------------------------
 .byte   PATT
  .word Label_011637F6
@  #16 @116   ----------------------------------------
 .byte   PATT
  .word Label_011637F6
@  #16 @117   ----------------------------------------
 .byte   PATT
  .word Label_01163806
@  #16 @118   ----------------------------------------
 .byte   PATT
  .word Label_0116380E
@  #16 @119   ----------------------------------------
 .byte   PATT
  .word Label_0116381A
@  #16 @120   ----------------------------------------
 .byte   PATT
  .word Label_0116381A
@  #16 @121   ----------------------------------------
 .byte   PATT
  .word Label_011637E2
@  #16 @122   ----------------------------------------
 .byte   PATT
  .word Label_011637EA
@  #16 @123   ----------------------------------------
 .byte   PATT
  .word Label_011637F6
@  #16 @124   ----------------------------------------
 .byte   PATT
  .word Label_011637F6
@  #16 @125   ----------------------------------------
 .byte   PATT
  .word Label_0116383E
@  #16 @126   ----------------------------------------
 .byte   PATT
  .word Label_0116383E
@  #16 @127   ----------------------------------------
 .byte   PATT
  .word Label_0116383E
@  #16 @128   ----------------------------------------
 .byte   PATT
  .word Label_0116383E
@  #16 @129   ----------------------------------------
 .byte   PATT
  .word Label_011637E2
@  #16 @130   ----------------------------------------
 .byte   PATT
  .word Label_011637EA
@  #16 @131   ----------------------------------------
 .byte   PATT
  .word Label_011637F6
@  #16 @132   ----------------------------------------
 .byte   PATT
  .word Label_011637F6
@  #16 @133   ----------------------------------------
 .byte   PATT
  .word Label_01163806
@  #16 @134   ----------------------------------------
 .byte   PATT
  .word Label_0116380E
@  #16 @135   ----------------------------------------
 .byte   PATT
  .word Label_0116381A
@  #16 @136   ----------------------------------------
 .byte   PATT
  .word Label_0116381A
@  #16 @137   ----------------------------------------
 .byte   PATT
  .word Label_01163880
@  #16 @138   ----------------------------------------
 .byte   PATT
  .word Label_01163888
@  #16 @139   ----------------------------------------
 .byte   PATT
  .word Label_01163894
@  #16 @140   ----------------------------------------
 .byte   PATT
  .word Label_011637F6
@  #16 @141   ----------------------------------------
 .byte   PATT
  .word Label_0116383E
@  #16 @142   ----------------------------------------
 .byte   PATT
  .word Label_0116383E
@  #16 @143   ----------------------------------------
 .byte   PATT
  .word Label_0116383E
@  #16 @144   ----------------------------------------
 .byte   PATT
  .word Label_0116383E
@  #16 @145   ----------------------------------------
 .byte   PATT
  .word Label_011638B8
@  #16 @146   ----------------------------------------
 .byte   PATT
  .word Label_011638B8
@  #16 @147   ----------------------------------------
 .byte   PATT
  .word Label_011638B8
@  #16 @148   ----------------------------------------
 .byte   PATT
  .word Label_011638B8
@  #16 @149   ----------------------------------------
 .byte   PATT
  .word Label_0116383E
@  #16 @150   ----------------------------------------
 .byte   PATT
  .word Label_0116383E
@  #16 @151   ----------------------------------------
 .byte   PATT
  .word Label_0116383E
@  #16 @152   ----------------------------------------
 .byte   PATT
  .word Label_0116383E
@  #16 @153   ----------------------------------------
 .byte   PATT
  .word Label_011638E6
@  #16 @154   ----------------------------------------
 .byte   PATT
  .word Label_011638E6
@  #16 @155   ----------------------------------------
 .byte   PATT
  .word Label_01163894
@  #16 @156   ----------------------------------------
 .byte   PATT
  .word Label_011637F6
@  #16 @157   ----------------------------------------
 .byte   PATT
  .word Label_0116383E
@  #16 @158   ----------------------------------------
 .byte   PATT
  .word Label_0116383E
@  #16 @159   ----------------------------------------
 .byte   PATT
  .word Label_0116383E
@  #16 @160   ----------------------------------------
 .byte   PATT
  .word Label_0116383E
@  #16 @161   ----------------------------------------
 .byte   PATT
  .word Label_01163914
@  #16 @162   ----------------------------------------
 .byte   PATT
  .word Label_01163914
@  #16 @163   ----------------------------------------
 .byte   PATT
  .word Label_01163914
@  #16 @164   ----------------------------------------
 .byte   PATT
  .word Label_01163914
@  #16 @165   ----------------------------------------
 .byte   PATT
  .word Label_0116392E
@  #16 @166   ----------------------------------------
 .byte   PATT
  .word Label_0116392E
@  #16 @167   ----------------------------------------
 .byte   PATT
  .word Label_01163894
@  #16 @168   ----------------------------------------
 .byte   PATT
  .word Label_01163894
@  #16 @169   ----------------------------------------
 .byte   PATT
  .word Label_011637E2
@  #16 @170   ----------------------------------------
 .byte   PATT
  .word Label_0116394D
@  #16 @171   ----------------------------------------
 .byte   PATT
  .word Label_0116383E
@  #16 @172   ----------------------------------------
 .byte   PATT
  .word Label_0116383E
@  #16 @173   ----------------------------------------
 .byte   PATT
  .word Label_01163880
@  #16 @174   ----------------------------------------
 .byte   PATT
  .word Label_01163968
@  #16 @175   ----------------------------------------
 .byte   PATT
  .word Label_0116383E
@  #16 @176   ----------------------------------------
 .byte   PATT
  .word Label_0116383E
@  #16 @177   ----------------------------------------
 .byte   PATT
  .word Label_011637E2
@  #16 @178   ----------------------------------------
 .byte   PATT
  .word Label_0116394D
@  #16 @179   ----------------------------------------
 .byte   PATT
  .word Label_0116383E
@  #16 @180   ----------------------------------------
 .byte   PATT
  .word Label_0116383E
@  #16 @181   ----------------------------------------
 .byte   PATT
  .word Label_01163880
@  #16 @182   ----------------------------------------
 .byte   PATT
  .word Label_01163968
@  #16 @183   ----------------------------------------
 .byte   PATT
  .word Label_0116383E
@  #16 @184   ----------------------------------------
 .byte   PATT
  .word Label_0116383E
 .byte   FINE

@******************************************************@
	.align	2

Song_IndomitableWillV1_SurfingKyogre:
	.byte	16	@ NumTrks
	.byte	0	@ NumBlks
	.byte	song06_pri	@ Priority
	.byte	song06_rev	@ Reverb.
    
	.word	song06_grp
    
	.word	song06_001
	.word	song06_002
	.word	song06_003
	.word	song06_004
	.word	song06_005
	.word	song06_006
	.word	song06_007
	.word	song06_008
	.word	song06_009
	.word	song06_010
	.word	song06_011
	.word	song06_012
	.word	song06_013
	.word	song06_014
	.word	song06_015
	.word	song06_016

	.end
