	.include "MPlayDef.s"

	.equ	song06_grp, AllInstrument
	.equ	song06_pri, 0
	.equ	song06_rev, 0
	.equ	song06_mvl, 127
	.equ	song06_key, 0
	.equ	song06_tbs, 1
	.equ	song06_exg, 0
	.equ	song06_cmp, 1

	.section .content_data
	.global	Song_IndomitableWill_SurfingKyogre
	.align	2


@**************** Track 1 (Midi-Chn.0) ****************@

.align 2, 0
song06_001:
@  #01 @000   ----------------------------------------
 .byte   KEYSH , song06_key+0
Label_549F2A:
 .byte   TEMPO , 224*song06_tbs/2
 .byte   VOICE , 63
 .byte   PAN , c_v-2
 .byte   VOL , 52*song06_mvl/mxv
 .byte   TIE ,Cs4 ,v064
 .byte   W96
@  #01 @001   ----------------------------------------
 .byte   W92
 .byte   W03
 .byte   EOT
 .byte   W01
@  #01 @002   ----------------------------------------
 .byte   TIE ,Cn4
 .byte   W96
@  #01 @003   ----------------------------------------
 .byte   W92
 .byte   W03
 .byte   EOT
 .byte   W01
@  #01 @004   ----------------------------------------
 .byte   TEMPO , 224*song06_tbs/2
 .byte   TIE ,As3
 .byte   W96
@  #01 @005   ----------------------------------------
 .byte   W68
 .byte   W03
 .byte   EOT
 .byte   W01
 .byte   N23 ,Gs3
 .byte   W24
@  #01 @006   ----------------------------------------
 .byte   W24
 .byte   N72 ,Fs3
 .byte   W72
@  #01 @007   ----------------------------------------
Label_549F51:
 .byte   N23 ,An3 ,v064
 .byte   W48
 .byte   N48 ,Cn4
 .byte   W48
 .byte   PEND 
@  #01 @008   ----------------------------------------
 .byte   TIE ,Fn3
 .byte   TIE ,Cs4
 .byte   W96
@  #01 @009   ----------------------------------------
 .byte   W92
 .byte   W03
 .byte   EOT
 .byte   Fn3 ,v073
 .byte   N01 ,Fn3 ,v076
 .byte   W01
@  #01 @010   ----------------------------------------
 .byte   TIE ,Ds3 ,v064
 .byte   TIE ,Cn4
 .byte   W96
@  #01 @011   ----------------------------------------
 .byte   W92
 .byte   W03
 .byte   EOT
 .byte   Ds3 ,v072
 .byte   N01 ,Ds3 ,v072
 .byte   W01
@  #01 @012   ----------------------------------------
 .byte   TIE ,Cs3 ,v064
 .byte   TIE ,As3
 .byte   W96
@  #01 @013   ----------------------------------------
 .byte   W68
 .byte   W03
 .byte   EOT
 .byte   Cs3 ,v070
 .byte   N01 ,Cs3 ,v072
 .byte   W01
 .byte   N23 ,Gs3
 .byte   W24
@  #01 @014   ----------------------------------------
 .byte   W24
 .byte   N72 ,Fs3
 .byte   W72
@  #01 @015   ----------------------------------------
 .byte   PATT
  .word Label_549F51
@  #01 @016   ----------------------------------------
 .byte   W96
@  #01 @017   ----------------------------------------
 .byte   W96
@  #01 @018   ----------------------------------------
 .byte   W96
@  #01 @019   ----------------------------------------
 .byte   W96
@  #01 @020   ----------------------------------------
Label_549F95:
 .byte   W48
 .byte   N11 ,Fn3 ,v064
 .byte   W24
 .byte   N11
 .byte   W24
 .byte   PEND 
@  #01 @021   ----------------------------------------
Label_549F9D:
 .byte   N11 ,Fn3 ,v064
 .byte   W24
 .byte   N11
 .byte   W24
 .byte   N11
 .byte   W24
 .byte   N24 ,Ds3
 .byte   W24
 .byte   PEND 
@  #01 @022   ----------------------------------------
Label_549FA9:
 .byte   N11 ,Ds3 ,v064
 .byte   W24
 .byte   N11
 .byte   W24
 .byte   N11
 .byte   W24
 .byte   N11
 .byte   W24
 .byte   PEND 
@  #01 @023   ----------------------------------------
 .byte   PATT
  .word Label_549FA9
@  #01 @024   ----------------------------------------
 .byte   W48
 .byte   N11 ,Ds3 ,v064
 .byte   W24
 .byte   N11
 .byte   W24
@  #01 @025   ----------------------------------------
 .byte   PATT
  .word Label_549FA9
@  #01 @026   ----------------------------------------
 .byte   PATT
  .word Label_549FA9
@  #01 @027   ----------------------------------------
Label_549FCA:
 .byte   N11 ,Fn3 ,v064
 .byte   W24
 .byte   N11
 .byte   W24
 .byte   N11
 .byte   W24
 .byte   N11
 .byte   W24
 .byte   PEND 
@  #01 @028   ----------------------------------------
 .byte   W48
 .byte   Gs3
 .byte   W24
 .byte   N11
 .byte   W24
@  #01 @029   ----------------------------------------
 .byte   N11
 .byte   W24
 .byte   N11
 .byte   W24
 .byte   N11
 .byte   W24
 .byte   N24 ,Fs3
 .byte   W24
@  #01 @030   ----------------------------------------
Label_549FE3:
 .byte   N11 ,Fs3 ,v064
 .byte   W24
 .byte   N11
 .byte   W24
 .byte   N11
 .byte   W24
 .byte   N11
 .byte   W24
 .byte   PEND 
@  #01 @031   ----------------------------------------
 .byte   PATT
  .word Label_549FE3
@  #01 @032   ----------------------------------------
 .byte   W96
@  #01 @033   ----------------------------------------
 .byte   W96
@  #01 @034   ----------------------------------------
 .byte   W96
@  #01 @035   ----------------------------------------
 .byte   W96
@  #01 @036   ----------------------------------------
 .byte   PATT
  .word Label_549F95
@  #01 @037   ----------------------------------------
 .byte   PATT
  .word Label_549F9D
@  #01 @038   ----------------------------------------
 .byte   PATT
  .word Label_549FA9
@  #01 @039   ----------------------------------------
 .byte   PATT
  .word Label_549FA9
@  #01 @040   ----------------------------------------
 .byte   W48
 .byte   TIE ,Ds3 ,v064
 .byte   W48
@  #01 @041   ----------------------------------------
 .byte   W92
 .byte   W03
 .byte   EOT
 .byte   W01
@  #01 @042   ----------------------------------------
 .byte   PATT
  .word Label_549FA9
@  #01 @043   ----------------------------------------
 .byte   PATT
  .word Label_549FCA
@  #01 @044   ----------------------------------------
 .byte   N92 ,Cs3 ,v064
 .byte   W96
@  #01 @045   ----------------------------------------
 .byte   N96 ,Fn3
 .byte   W96
@  #01 @046   ----------------------------------------
 .byte   Ds3
 .byte   W96
@  #01 @047   ----------------------------------------
 .byte   Cs4
 .byte   W96
@  #01 @048   ----------------------------------------
 .byte   N23 ,Cn4
 .byte   W24
 .byte   TIE ,As3
 .byte   W72
@  #01 @049   ----------------------------------------
 .byte   W96
@  #01 @050   ----------------------------------------
 .byte   W96
@  #01 @051   ----------------------------------------
 .byte   W92
 .byte   W03
 .byte   EOT
 .byte   W01
@  #01 @052   ----------------------------------------
 .byte   W96
@  #01 @053   ----------------------------------------
 .byte   W96
@  #01 @054   ----------------------------------------
 .byte   W96
@  #01 @055   ----------------------------------------
 .byte   W96
@  #01 @056   ----------------------------------------
 .byte   W96
@  #01 @057   ----------------------------------------
 .byte   W96
@  #01 @058   ----------------------------------------
 .byte   W96
@  #01 @059   ----------------------------------------
 .byte   W48
 .byte   N44 ,Cs3 ,v096
 .byte   W48
@  #01 @060   ----------------------------------------
 .byte   N68 ,Gs3
 .byte   W72
 .byte   N23 ,Fs3
 .byte   W24
@  #01 @061   ----------------------------------------
 .byte   N68 ,Fn3
 .byte   W72
 .byte   N23 ,Fs3
 .byte   W24
@  #01 @062   ----------------------------------------
 .byte   Fn3
 .byte   W24
 .byte   N44 ,Ds3
 .byte   W48
 .byte   N23 ,Fn3
 .byte   W24
@  #01 @063   ----------------------------------------
 .byte   Fs3
 .byte   W24
 .byte   N24 ,Fn3
 .byte   W24
 .byte   Ds3
 .byte   W24
 .byte   Cs3
 .byte   W24
@  #01 @064   ----------------------------------------
 .byte   N23 ,Ds3
 .byte   W24
 .byte   TIE ,Fn3
 .byte   W72
@  #01 @065   ----------------------------------------
 .byte   W44
 .byte   W03
 .byte   EOT
 .byte   W01
 .byte   N44 ,Cn3
 .byte   W48
@  #01 @066   ----------------------------------------
 .byte   N23
 .byte   W24
 .byte   TIE ,Cs3
 .byte   W72
@  #01 @067   ----------------------------------------
 .byte   W44
 .byte   W03
 .byte   EOT
 .byte   W01
 .byte   N23 ,Ds3
 .byte   W24
 .byte   N24 ,Fn3
 .byte   W24
@  #01 @068   ----------------------------------------
 .byte   TIE ,Fs3
 .byte   W96
@  #01 @069   ----------------------------------------
 .byte   W23
 .byte   EOT
 .byte   W01
 .byte   N23 ,Fn3
 .byte   W24
 .byte   N24 ,Ds3
 .byte   W24
 .byte   Cs3
 .byte   W24
@  #01 @070   ----------------------------------------
 .byte   TIE ,Ds3
 .byte   W96
@  #01 @071   ----------------------------------------
 .byte   W23
 .byte   EOT
 .byte   W01
 .byte   N23 ,Fn3
 .byte   W24
 .byte   N24 ,Fs3
 .byte   W24
 .byte   Gs3
 .byte   W24
@  #01 @072   ----------------------------------------
 .byte   N92 ,Fn3
 .byte   W96
@  #01 @073   ----------------------------------------
 .byte   N96 ,Ds3
 .byte   W96
@  #01 @074   ----------------------------------------
 .byte   Cn3
 .byte   W96
@  #01 @075   ----------------------------------------
Label_54A09E:
 .byte   N23 ,Cn3 ,v096
 .byte   W24
 .byte   N24 ,Cs3
 .byte   W24
 .byte   Fn3
 .byte   W24
 .byte   Gs3
 .byte   W24
 .byte   PEND 
@  #01 @076   ----------------------------------------
Label_54A0AA:
 .byte   N68 ,Cn4 ,v096
 .byte   W72
 .byte   N23 ,Cs4
 .byte   W24
 .byte   PEND 
@  #01 @077   ----------------------------------------
 .byte   TIE ,As3
 .byte   W96
@  #01 @078   ----------------------------------------
 .byte   W44
 .byte   W03
 .byte   EOT
 .byte   W01
 .byte   N23 ,Fn3
 .byte   W24
 .byte   N24 ,Fn4
 .byte   W24
@  #01 @079   ----------------------------------------
Label_54A0BF:
 .byte   N11 ,Ds4 ,v096
 .byte   W12
 .byte   N12 ,Cs4
 .byte   W12
 .byte   N44 ,Cn4
 .byte   W48
 .byte   N23 ,Gs3
 .byte   W24
 .byte   PEND 
@  #01 @080   ----------------------------------------
 .byte   N32 ,Cn4
 .byte   W36
 .byte   N36 ,Cs4
 .byte   W36
 .byte   TIE ,As3
 .byte   W24
@  #01 @081   ----------------------------------------
 .byte   W96
@  #01 @082   ----------------------------------------
 .byte   W92
 .byte   W03
 .byte   EOT
 .byte   W01
@  #01 @083   ----------------------------------------
 .byte   PATT
  .word Label_54A09E
@  #01 @084   ----------------------------------------
 .byte   PATT
  .word Label_54A0AA
@  #01 @085   ----------------------------------------
 .byte   TIE ,As3 ,v096
 .byte   W96
@  #01 @086   ----------------------------------------
 .byte   W44
 .byte   W03
 .byte   EOT
 .byte   W01
 .byte   N23 ,Fn3
 .byte   W24
 .byte   N24 ,Fn4
 .byte   W24
@  #01 @087   ----------------------------------------
 .byte   PATT
  .word Label_54A0BF
@  #01 @088   ----------------------------------------
 .byte   N32 ,Cn4 ,v096
 .byte   W36
 .byte   N36 ,Cs4
 .byte   W36
 .byte   TIE ,Gs4
 .byte   W24
@  #01 @089   ----------------------------------------
 .byte   W96
@  #01 @090   ----------------------------------------
 .byte   W92
 .byte   W03
 .byte   EOT
 .byte   W01
@  #01 @091   ----------------------------------------
 .byte   N92 ,Gs3
 .byte   W96
@  #01 @092   ----------------------------------------
 .byte   GOTO
  .word Label_549F2A
@  #01 @093   ----------------------------------------
 .byte   W96
 .byte   FINE

@**************** Track 2 (Midi-Chn.1) ****************@

.align 2, 0
song06_002:
@  #02 @000   ----------------------------------------
 .byte   KEYSH , song06_key+0
Label_0100D2D2:
 .byte   VOICE , 60
 .byte   PAN , c_v+3
 .byte   VOL , 52*song06_mvl/mxv
 .byte   N23 ,Fn3 ,v096
 .byte   N23 ,As3
 .byte   W96
@  #02 @001   ----------------------------------------
Label_0100D2DE:
 .byte   W72
 .byte   N23 ,Fn3 ,v096
 .byte   N23 ,As3
 .byte   W24
 .byte   PEND 
@  #02 @002   ----------------------------------------
Label_0100D2E6:
 .byte   W24
 .byte   N23 ,Ds3 ,v096
 .byte   N23 ,As3
 .byte   W72
 .byte   PEND 
@  #02 @003   ----------------------------------------
Label_0100D2EE:
 .byte   W72
 .byte   N23 ,Ds3 ,v096
 .byte   N23 ,As3
 .byte   W24
 .byte   PEND 
@  #02 @004   ----------------------------------------
 .byte   N96 ,Fn3
 .byte   W96
@  #02 @005   ----------------------------------------
Label_0100D2F9:
 .byte   W72
 .byte   N23 ,Cs3 ,v096
 .byte   N23 ,Gs3
 .byte   W24
 .byte   PEND 
@  #02 @006   ----------------------------------------
Label_0100D301:
 .byte   W24
 .byte   N23 ,Cs3 ,v096
 .byte   N23 ,Fs3
 .byte   W72
 .byte   PEND 
@  #02 @007   ----------------------------------------
Label_0100D309:
 .byte   N23 ,Cn3 ,v096
 .byte   N23 ,Ds3
 .byte   W48
 .byte   N23
 .byte   N23 ,Fs3
 .byte   W48
 .byte   PEND 
@  #02 @008   ----------------------------------------
 .byte   Fn3
 .byte   N23 ,As3
 .byte   W96
@  #02 @009   ----------------------------------------
 .byte   PATT
  .word Label_0100D2DE
@  #02 @010   ----------------------------------------
 .byte   PATT
  .word Label_0100D2E6
@  #02 @011   ----------------------------------------
 .byte   PATT
  .word Label_0100D2EE
@  #02 @012   ----------------------------------------
 .byte   N23 ,Fn3 ,v096
 .byte   W96
@  #02 @013   ----------------------------------------
 .byte   PATT
  .word Label_0100D2F9
@  #02 @014   ----------------------------------------
 .byte   PATT
  .word Label_0100D301
@  #02 @015   ----------------------------------------
 .byte   PATT
  .word Label_0100D309
@  #02 @016   ----------------------------------------
 .byte   W96
@  #02 @017   ----------------------------------------
 .byte   W96
@  #02 @018   ----------------------------------------
 .byte   W96
@  #02 @019   ----------------------------------------
 .byte   W96
@  #02 @020   ----------------------------------------
Label_0100D33E:
 .byte   W48
 .byte   N11 ,As2 ,v064
 .byte   W24
 .byte   N11
 .byte   W24
 .byte   PEND 
@  #02 @021   ----------------------------------------
Label_0100D346:
 .byte   N11 ,As2 ,v064
 .byte   W24
 .byte   N11
 .byte   W24
 .byte   N11
 .byte   W24
 .byte   N24 ,An2
 .byte   W24
 .byte   PEND 
@  #02 @022   ----------------------------------------
Label_0100D352:
 .byte   N11 ,An2 ,v064
 .byte   W24
 .byte   N11
 .byte   W24
 .byte   N11
 .byte   W24
 .byte   N11
 .byte   W24
 .byte   PEND 
@  #02 @023   ----------------------------------------
 .byte   PATT
  .word Label_0100D352
@  #02 @024   ----------------------------------------
 .byte   W48
 .byte   N11 ,An2 ,v064
 .byte   W24
 .byte   N11
 .byte   W24
@  #02 @025   ----------------------------------------
 .byte   N11
 .byte   W24
 .byte   N11
 .byte   W24
 .byte   N44 ,Cs3
 .byte   W48
@  #02 @026   ----------------------------------------
 .byte   N68 ,Cn3
 .byte   W72
 .byte   N23 ,As2
 .byte   W24
@  #02 @027   ----------------------------------------
 .byte   N92 ,Fn2
 .byte   W96
@  #02 @028   ----------------------------------------
 .byte   PATT
  .word Label_0100D33E
@  #02 @029   ----------------------------------------
 .byte   N11 ,As2 ,v064
 .byte   W24
 .byte   N11
 .byte   W24
 .byte   N11
 .byte   W24
 .byte   N24 ,Ds3
 .byte   W24
@  #02 @030   ----------------------------------------
Label_0100D389:
 .byte   N11 ,Ds3 ,v064
 .byte   W24
 .byte   N11
 .byte   W24
 .byte   N11
 .byte   W24
 .byte   N11
 .byte   W24
 .byte   PEND 
@  #02 @031   ----------------------------------------
 .byte   PATT
  .word Label_0100D389
@  #02 @032   ----------------------------------------
 .byte   N92 ,Cn3 ,v064
 .byte   W96
@  #02 @033   ----------------------------------------
 .byte   N96 ,As2
 .byte   W96
@  #02 @034   ----------------------------------------
 .byte   Cn3
 .byte   W96
@  #02 @035   ----------------------------------------
 .byte   Cs3
 .byte   W96
@  #02 @036   ----------------------------------------
 .byte   PATT
  .word Label_0100D33E
@  #02 @037   ----------------------------------------
 .byte   PATT
  .word Label_0100D346
@  #02 @038   ----------------------------------------
 .byte   PATT
  .word Label_0100D352
@  #02 @039   ----------------------------------------
 .byte   PATT
  .word Label_0100D352
@  #02 @040   ----------------------------------------
 .byte   W48
 .byte   TIE ,Cn3 ,v064
 .byte   W48
@  #02 @041   ----------------------------------------
 .byte   W92
 .byte   W03
 .byte   EOT
 .byte   W01
@  #02 @042   ----------------------------------------
 .byte   N11
 .byte   W24
 .byte   N11
 .byte   W24
 .byte   N11
 .byte   W24
 .byte   N11
 .byte   W24
@  #02 @043   ----------------------------------------
 .byte   As2
 .byte   W24
 .byte   N11
 .byte   W24
 .byte   N11
 .byte   W24
 .byte   N11
 .byte   W24
@  #02 @044   ----------------------------------------
 .byte   N92 ,Cs3
 .byte   W96
@  #02 @045   ----------------------------------------
 .byte   N96 ,Fn3
 .byte   W96
@  #02 @046   ----------------------------------------
 .byte   Ds3
 .byte   W96
@  #02 @047   ----------------------------------------
 .byte   Fn3
 .byte   W96
@  #02 @048   ----------------------------------------
 .byte   N23 ,Ds3
 .byte   W24
 .byte   TIE ,Cs3
 .byte   W72
@  #02 @049   ----------------------------------------
 .byte   W96
@  #02 @050   ----------------------------------------
 .byte   W96
@  #02 @051   ----------------------------------------
 .byte   W92
 .byte   W03
 .byte   EOT
 .byte   W01
@  #02 @052   ----------------------------------------
 .byte   N68 ,Cn3
 .byte   W96
@  #02 @053   ----------------------------------------
 .byte   N96 ,Cs3
 .byte   W96
@  #02 @054   ----------------------------------------
 .byte   Ds3
 .byte   W96
@  #02 @055   ----------------------------------------
 .byte   Fn3
 .byte   W96
@  #02 @056   ----------------------------------------
 .byte   Cn3
 .byte   W96
@  #02 @057   ----------------------------------------
 .byte   Cs3
 .byte   W96
@  #02 @058   ----------------------------------------
 .byte   Ds3
 .byte   W96
@  #02 @059   ----------------------------------------
 .byte   Fn3
 .byte   W96
@  #02 @060   ----------------------------------------
 .byte   Cn3
 .byte   W96
@  #02 @061   ----------------------------------------
 .byte   Cs3
 .byte   W96
@  #02 @062   ----------------------------------------
 .byte   Ds3
 .byte   W96
@  #02 @063   ----------------------------------------
 .byte   Fn3
 .byte   W96
@  #02 @064   ----------------------------------------
 .byte   N68
 .byte   W96
@  #02 @065   ----------------------------------------
 .byte   N96 ,As3
 .byte   W96
@  #02 @066   ----------------------------------------
 .byte   Ds3
 .byte   W96
@  #02 @067   ----------------------------------------
 .byte   Gs3
 .byte   W96
@  #02 @068   ----------------------------------------
 .byte   As3
 .byte   W96
@  #02 @069   ----------------------------------------
 .byte   Gs3
 .byte   W96
@  #02 @070   ----------------------------------------
 .byte   As3
 .byte   W96
@  #02 @071   ----------------------------------------
 .byte   Bn3
 .byte   W96
@  #02 @072   ----------------------------------------
 .byte   W96
@  #02 @073   ----------------------------------------
 .byte   W96
@  #02 @074   ----------------------------------------
 .byte   W96
@  #02 @075   ----------------------------------------
 .byte   W96
@  #02 @076   ----------------------------------------
 .byte   W48
 .byte   N44 ,As2
 .byte   W48
@  #02 @077   ----------------------------------------
Label_0100D41A:
 .byte   N68 ,Cn3 ,v064
 .byte   W72
 .byte   TIE ,Cs3
 .byte   W24
 .byte   PEND 
@  #02 @078   ----------------------------------------
 .byte   W92
 .byte   W03
 .byte   EOT
 .byte   W01
@  #02 @079   ----------------------------------------
 .byte   N92 ,Cn3
 .byte   W96
@  #02 @080   ----------------------------------------
 .byte   W48
 .byte   N44 ,Fn3
 .byte   W48
@  #02 @081   ----------------------------------------
Label_0100D42D:
 .byte   N32 ,Ds3 ,v064
 .byte   W36
 .byte   N36 ,Cs3
 .byte   W36
 .byte   TIE ,Cn3
 .byte   W24
 .byte   PEND 
@  #02 @082   ----------------------------------------
 .byte   W96
@  #02 @083   ----------------------------------------
 .byte   W92
 .byte   W03
 .byte   EOT
 .byte   W01
@  #02 @084   ----------------------------------------
 .byte   W48
 .byte   N44 ,Gs2
 .byte   W48
@  #02 @085   ----------------------------------------
 .byte   PATT
  .word Label_0100D41A
@  #02 @086   ----------------------------------------
 .byte   W92
 .byte   W03
 .byte   EOT
 .byte   Cs3
 .byte   N01 ,Cs3 ,v064
 .byte   W01
@  #02 @087   ----------------------------------------
 .byte   N44 ,Ds3
 .byte   W48
 .byte   TIE ,Fn3
 .byte   W48
@  #02 @088   ----------------------------------------
 .byte   W92
 .byte   W03
 .byte   EOT
 .byte   W01
@  #02 @089   ----------------------------------------
 .byte   PATT
  .word Label_0100D42D
@  #02 @090   ----------------------------------------
 .byte   W92
 .byte   W03
 .byte   EOT
 .byte   Cn3
 .byte   N01 ,Cn3 ,v064
 .byte   W01
@  #02 @091   ----------------------------------------
 .byte   N92
 .byte   N92 ,Ds3
 .byte   W96
@  #02 @092   ----------------------------------------
 .byte   GOTO
  .word Label_0100D2D2
@  #02 @093   ----------------------------------------
 .byte   N23 ,Fn3 ,v096
 .byte   N23 ,As3
 .byte   W96
 .byte   FINE

@**************** Track 3 (Midi-Chn.2) ****************@

.align 2, 0
song06_003:
@  #03 @000   ----------------------------------------
 .byte   KEYSH , song06_key+0
Label_0100C9C6:
 .byte   VOICE , 61
 .byte   VOL , 52*song06_mvl/mxv
 .byte   PAN , c_v+0
 .byte   W96
@  #03 @001   ----------------------------------------
 .byte   W96
@  #03 @002   ----------------------------------------
 .byte   W96
@  #03 @003   ----------------------------------------
 .byte   W96
@  #03 @004   ----------------------------------------
 .byte   W96
@  #03 @005   ----------------------------------------
 .byte   W96
@  #03 @006   ----------------------------------------
 .byte   W96
@  #03 @007   ----------------------------------------
 .byte   W96
@  #03 @008   ----------------------------------------
 .byte   W96
@  #03 @009   ----------------------------------------
 .byte   W96
@  #03 @010   ----------------------------------------
 .byte   W96
@  #03 @011   ----------------------------------------
 .byte   W96
@  #03 @012   ----------------------------------------
 .byte   W96
@  #03 @013   ----------------------------------------
 .byte   W96
@  #03 @014   ----------------------------------------
 .byte   W96
@  #03 @015   ----------------------------------------
 .byte   W96
@  #03 @016   ----------------------------------------
 .byte   W96
@  #03 @017   ----------------------------------------
 .byte   W96
@  #03 @018   ----------------------------------------
 .byte   W96
@  #03 @019   ----------------------------------------
 .byte   W96
@  #03 @020   ----------------------------------------
 .byte   W96
@  #03 @021   ----------------------------------------
 .byte   W96
@  #03 @022   ----------------------------------------
 .byte   W96
@  #03 @023   ----------------------------------------
 .byte   W96
@  #03 @024   ----------------------------------------
 .byte   W96
@  #03 @025   ----------------------------------------
 .byte   W48
 .byte   N44 ,Cs4 ,v080
 .byte   W48
@  #03 @026   ----------------------------------------
 .byte   N68 ,Cn4
 .byte   W72
 .byte   N23 ,As3
 .byte   W24
@  #03 @027   ----------------------------------------
 .byte   N92 ,Fn3
 .byte   W96
@  #03 @028   ----------------------------------------
 .byte   W96
@  #03 @029   ----------------------------------------
 .byte   W96
@  #03 @030   ----------------------------------------
 .byte   W96
@  #03 @031   ----------------------------------------
 .byte   W96
@  #03 @032   ----------------------------------------
 .byte   W96
@  #03 @033   ----------------------------------------
 .byte   W96
@  #03 @034   ----------------------------------------
 .byte   W96
@  #03 @035   ----------------------------------------
 .byte   W96
@  #03 @036   ----------------------------------------
 .byte   N68 ,Gs4 ,v096
 .byte   W72
 .byte   N23 ,Fs4
 .byte   W24
@  #03 @037   ----------------------------------------
 .byte   Cn4
 .byte   W24
 .byte   N24 ,Cs4
 .byte   W24
 .byte   N68 ,Fs4
 .byte   W48
@  #03 @038   ----------------------------------------
 .byte   W24
 .byte   N23 ,Fn4
 .byte   W24
 .byte   N24 ,Ds4
 .byte   W24
 .byte   Cs4
 .byte   W24
@  #03 @039   ----------------------------------------
 .byte   N23 ,Cn4
 .byte   W48
 .byte   N44 ,Cs5
 .byte   W48
@  #03 @040   ----------------------------------------
 .byte   N68 ,Cn5
 .byte   W72
 .byte   N23 ,As4
 .byte   W24
@  #03 @041   ----------------------------------------
 .byte   N68 ,Fn4
 .byte   W72
 .byte   N23 ,Cs4
 .byte   W24
@  #03 @042   ----------------------------------------
 .byte   Ds4
 .byte   W24
 .byte   TIE ,Fn4
 .byte   W72
@  #03 @043   ----------------------------------------
 .byte   W92
 .byte   W03
 .byte   EOT
 .byte   W01
@  #03 @044   ----------------------------------------
 .byte   N92 ,Cs4
 .byte   W96
@  #03 @045   ----------------------------------------
 .byte   N96 ,Fn4
 .byte   W96
@  #03 @046   ----------------------------------------
 .byte   Ds4
 .byte   W96
@  #03 @047   ----------------------------------------
 .byte   Cs5
 .byte   W96
@  #03 @048   ----------------------------------------
 .byte   N23 ,Cn5
 .byte   W24
 .byte   TIE ,As4
 .byte   W72
@  #03 @049   ----------------------------------------
 .byte   W96
@  #03 @050   ----------------------------------------
 .byte   W96
@  #03 @051   ----------------------------------------
 .byte   W92
 .byte   W03
 .byte   EOT
 .byte   W01
@  #03 @052   ----------------------------------------
 .byte   W96
@  #03 @053   ----------------------------------------
 .byte   W96
@  #03 @054   ----------------------------------------
 .byte   W96
@  #03 @055   ----------------------------------------
 .byte   W96
@  #03 @056   ----------------------------------------
 .byte   W96
@  #03 @057   ----------------------------------------
 .byte   W96
@  #03 @058   ----------------------------------------
 .byte   W96
@  #03 @059   ----------------------------------------
 .byte   W96
@  #03 @060   ----------------------------------------
 .byte   W96
@  #03 @061   ----------------------------------------
 .byte   W96
@  #03 @062   ----------------------------------------
 .byte   W96
@  #03 @063   ----------------------------------------
 .byte   W96
@  #03 @064   ----------------------------------------
 .byte   W96
@  #03 @065   ----------------------------------------
 .byte   W96
@  #03 @066   ----------------------------------------
 .byte   W96
@  #03 @067   ----------------------------------------
 .byte   W48
 .byte   N23 ,Ds4 ,v080
 .byte   W24
 .byte   N03 ,Fn4 ,v088
 .byte   W24
@  #03 @068   ----------------------------------------
 .byte   TIE ,Fs4 ,v096
 .byte   W96
@  #03 @069   ----------------------------------------
 .byte   W23
 .byte   EOT
 .byte   W01
 .byte   N23 ,Fn4
 .byte   W24
 .byte   N24 ,Ds4
 .byte   W24
 .byte   Cs4
 .byte   W24
@  #03 @070   ----------------------------------------
 .byte   TIE ,Ds4
 .byte   W96
@  #03 @071   ----------------------------------------
 .byte   W23
 .byte   EOT
 .byte   W01
 .byte   N23 ,Fn4
 .byte   W24
 .byte   N24 ,Fs4
 .byte   W24
 .byte   Gs4
 .byte   W24
@  #03 @072   ----------------------------------------
 .byte   N92 ,Fn4
 .byte   W96
@  #03 @073   ----------------------------------------
 .byte   N96 ,Ds4
 .byte   W96
@  #03 @074   ----------------------------------------
 .byte   Cn4
 .byte   W96
@  #03 @075   ----------------------------------------
Label_0100CA81:
 .byte   N23 ,Cn4 ,v096
 .byte   W24
 .byte   N24 ,Cs4
 .byte   W24
 .byte   Fn4
 .byte   W24
 .byte   Gs4
 .byte   W24
 .byte   PEND 
@  #03 @076   ----------------------------------------
Label_0100CA8D:
 .byte   N68 ,Cn5 ,v096
 .byte   W72
 .byte   N23 ,Cs5
 .byte   W24
 .byte   PEND 
@  #03 @077   ----------------------------------------
 .byte   TIE ,As4
 .byte   W96
@  #03 @078   ----------------------------------------
 .byte   W44
 .byte   W03
 .byte   EOT
 .byte   W01
 .byte   N23 ,Fn4
 .byte   W24
 .byte   N24 ,Fn5
 .byte   W24
@  #03 @079   ----------------------------------------
Label_0100CAA2:
 .byte   N11 ,Ds5 ,v096
 .byte   W12
 .byte   N12 ,Cs5
 .byte   W12
 .byte   N44 ,Cn5
 .byte   W48
 .byte   N23 ,Gs4
 .byte   W24
 .byte   PEND 
@  #03 @080   ----------------------------------------
 .byte   N32 ,Cn5
 .byte   W36
 .byte   N36 ,Cs5
 .byte   W36
 .byte   TIE ,As4
 .byte   W24
@  #03 @081   ----------------------------------------
 .byte   W96
@  #03 @082   ----------------------------------------
 .byte   W92
 .byte   W03
 .byte   EOT
 .byte   W01
@  #03 @083   ----------------------------------------
 .byte   PATT
  .word Label_0100CA81
@  #03 @084   ----------------------------------------
 .byte   PATT
  .word Label_0100CA8D
@  #03 @085   ----------------------------------------
 .byte   TIE ,As4 ,v096
 .byte   W96
@  #03 @086   ----------------------------------------
 .byte   W44
 .byte   W03
 .byte   EOT
 .byte   W01
 .byte   N23 ,Fn4
 .byte   W24
 .byte   N24 ,Fn5
 .byte   W24
@  #03 @087   ----------------------------------------
 .byte   PATT
  .word Label_0100CAA2
@  #03 @088   ----------------------------------------
 .byte   N32 ,Cn5 ,v096
 .byte   W36
 .byte   N36 ,Cs5
 .byte   W36
 .byte   TIE ,Gs4
 .byte   W24
@  #03 @089   ----------------------------------------
 .byte   W96
@  #03 @090   ----------------------------------------
 .byte   W96
@  #03 @091   ----------------------------------------
 .byte   W92
 .byte   W03
 .byte   EOT
 .byte   W01
@  #03 @092   ----------------------------------------
 .byte   GOTO
  .word Label_0100C9C6
@  #03 @093   ----------------------------------------
 .byte   W96
 .byte   FINE

@**************** Track 4 (Midi-Chn.3) ****************@

.align 2, 0
song06_004:
@  #04 @000   ----------------------------------------
 .byte   KEYSH , song06_key+0
Label_0100D59E:
 .byte   VOICE , 57
 .byte   VOL , 52*song06_mvl/mxv
 .byte   PAN , c_v+0
 .byte   N23 ,As1 ,v096
 .byte   W96
@  #04 @001   ----------------------------------------
 .byte   W72
 .byte   N23
 .byte   W24
@  #04 @002   ----------------------------------------
 .byte   W24
 .byte   N23
 .byte   W72
@  #04 @003   ----------------------------------------
 .byte   W72
 .byte   N23
 .byte   W24
@  #04 @004   ----------------------------------------
 .byte   N96 ,Fs1
 .byte   W96
@  #04 @005   ----------------------------------------
 .byte   W72
 .byte   N24 ,Ds1
 .byte   W24
@  #04 @006   ----------------------------------------
 .byte   W24
 .byte   N23
 .byte   W72
@  #04 @007   ----------------------------------------
Label_0100D5BB:
 .byte   N23 ,Fn1 ,v096
 .byte   W48
 .byte   N48 ,An1
 .byte   W48
 .byte   PEND 
@  #04 @008   ----------------------------------------
 .byte   N96 ,As1
 .byte   W96
@  #04 @009   ----------------------------------------
 .byte   W72
 .byte   N23
 .byte   W24
@  #04 @010   ----------------------------------------
 .byte   W24
 .byte   N23
 .byte   W72
@  #04 @011   ----------------------------------------
 .byte   W72
 .byte   N23
 .byte   W24
@  #04 @012   ----------------------------------------
 .byte   N96 ,Fs1
 .byte   W96
@  #04 @013   ----------------------------------------
 .byte   W72
 .byte   N24 ,Ds1
 .byte   W24
@  #04 @014   ----------------------------------------
 .byte   W24
 .byte   N23
 .byte   W72
@  #04 @015   ----------------------------------------
 .byte   PATT
  .word Label_0100D5BB
@  #04 @016   ----------------------------------------
 .byte   W96
@  #04 @017   ----------------------------------------
 .byte   W96
@  #04 @018   ----------------------------------------
 .byte   W96
@  #04 @019   ----------------------------------------
 .byte   W96
@  #04 @020   ----------------------------------------
Label_0100D5E2:
 .byte   W48
 .byte   TIE ,Fs1 ,v080
 .byte   W48
 .byte   PEND 
@  #04 @021   ----------------------------------------
 .byte   W68
 .byte   W03
 .byte   EOT
 .byte   W01
 .byte   TIE ,An1
 .byte   W24
@  #04 @022   ----------------------------------------
 .byte   W96
@  #04 @023   ----------------------------------------
 .byte   W92
 .byte   W03
 .byte   EOT
 .byte   W01
@  #04 @024   ----------------------------------------
 .byte   TIE ,As1
 .byte   W96
@  #04 @025   ----------------------------------------
 .byte   W68
 .byte   W03
 .byte   EOT
 .byte   W01
 .byte   TIE ,Gn1
 .byte   W24
@  #04 @026   ----------------------------------------
 .byte   W96
@  #04 @027   ----------------------------------------
 .byte   W92
 .byte   W03
 .byte   EOT
 .byte   W01
@  #04 @028   ----------------------------------------
 .byte   PATT
  .word Label_0100D5E2
@  #04 @029   ----------------------------------------
 .byte   W68
 .byte   W03
 .byte   EOT
 .byte   Fs1
 .byte   N01 ,Fs1 ,v080
 .byte   W01
 .byte   TIE ,An1
 .byte   W24
@  #04 @030   ----------------------------------------
 .byte   W96
@  #04 @031   ----------------------------------------
 .byte   W92
 .byte   W03
 .byte   EOT
 .byte   W01
@  #04 @032   ----------------------------------------
 .byte   TIE ,As1
 .byte   W96
@  #04 @033   ----------------------------------------
 .byte   W96
@  #04 @034   ----------------------------------------
 .byte   W96
@  #04 @035   ----------------------------------------
 .byte   W92
 .byte   W03
 .byte   EOT
 .byte   W01
@  #04 @036   ----------------------------------------
 .byte   PATT
  .word Label_0100D5E2
@  #04 @037   ----------------------------------------
 .byte   W68
 .byte   W03
 .byte   EOT
 .byte   Fs1
 .byte   N01 ,Fs1 ,v080
 .byte   W01
 .byte   TIE ,An1
 .byte   W24
@  #04 @038   ----------------------------------------
 .byte   W96
@  #04 @039   ----------------------------------------
 .byte   W92
 .byte   W03
 .byte   EOT
 .byte   W01
@  #04 @040   ----------------------------------------
 .byte   TIE ,As1
 .byte   W96
@  #04 @041   ----------------------------------------
 .byte   W68
 .byte   W03
 .byte   EOT
 .byte   W01
 .byte   TIE ,Gn1
 .byte   W24
@  #04 @042   ----------------------------------------
 .byte   W96
@  #04 @043   ----------------------------------------
 .byte   W92
 .byte   W03
 .byte   EOT
 .byte   W01
@  #04 @044   ----------------------------------------
 .byte   W48
 .byte   TIE ,Ds0
 .byte   W48
@  #04 @045   ----------------------------------------
 .byte   W68
 .byte   W03
 .byte   EOT
 .byte   W01
 .byte   TIE ,Fn0
 .byte   W24
@  #04 @046   ----------------------------------------
 .byte   W92
 .byte   W03
 .byte   EOT
 .byte   W01
@  #04 @047   ----------------------------------------
 .byte   N92 ,An0
 .byte   W96
@  #04 @048   ----------------------------------------
 .byte   TIE ,As0
 .byte   W96
@  #04 @049   ----------------------------------------
 .byte   W96
@  #04 @050   ----------------------------------------
 .byte   W96
@  #04 @051   ----------------------------------------
 .byte   W92
 .byte   W03
 .byte   EOT
 .byte   W01
@  #04 @052   ----------------------------------------
 .byte   W96
@  #04 @053   ----------------------------------------
 .byte   W96
@  #04 @054   ----------------------------------------
 .byte   W96
@  #04 @055   ----------------------------------------
 .byte   W96
@  #04 @056   ----------------------------------------
 .byte   W96
@  #04 @057   ----------------------------------------
 .byte   W96
@  #04 @058   ----------------------------------------
 .byte   W96
@  #04 @059   ----------------------------------------
 .byte   W96
@  #04 @060   ----------------------------------------
 .byte   W96
@  #04 @061   ----------------------------------------
 .byte   W96
@  #04 @062   ----------------------------------------
 .byte   W96
@  #04 @063   ----------------------------------------
 .byte   W96
@  #04 @064   ----------------------------------------
 .byte   W96
@  #04 @065   ----------------------------------------
 .byte   W96
@  #04 @066   ----------------------------------------
 .byte   W96
@  #04 @067   ----------------------------------------
 .byte   W96
@  #04 @068   ----------------------------------------
 .byte   W96
@  #04 @069   ----------------------------------------
 .byte   W96
@  #04 @070   ----------------------------------------
 .byte   W96
@  #04 @071   ----------------------------------------
 .byte   W96
@  #04 @072   ----------------------------------------
 .byte   W96
@  #04 @073   ----------------------------------------
 .byte   W96
@  #04 @074   ----------------------------------------
 .byte   W96
@  #04 @075   ----------------------------------------
 .byte   W96
@  #04 @076   ----------------------------------------
 .byte   W48
 .byte   N44 ,Fs0
 .byte   W48
@  #04 @077   ----------------------------------------
Label_0100D67C:
 .byte   N68 ,Gs0 ,v080
 .byte   W72
 .byte   TIE ,As0
 .byte   W24
 .byte   PEND 
@  #04 @078   ----------------------------------------
 .byte   W96
@  #04 @079   ----------------------------------------
 .byte   W92
 .byte   W03
 .byte   EOT
 .byte   W01
@  #04 @080   ----------------------------------------
 .byte   W48
 .byte   N44 ,Ds0
 .byte   W48
@  #04 @081   ----------------------------------------
Label_0100D68D:
 .byte   N68 ,Fn0 ,v080
 .byte   W72
 .byte   TIE ,As0
 .byte   W24
 .byte   PEND 
@  #04 @082   ----------------------------------------
 .byte   W96
@  #04 @083   ----------------------------------------
 .byte   W92
 .byte   W03
 .byte   EOT
 .byte   W01
@  #04 @084   ----------------------------------------
 .byte   W48
 .byte   N44 ,Fs0
 .byte   W48
@  #04 @085   ----------------------------------------
 .byte   PATT
  .word Label_0100D67C
@  #04 @086   ----------------------------------------
 .byte   W96
@  #04 @087   ----------------------------------------
 .byte   W92
 .byte   W03
 .byte   EOT
 .byte   As0
 .byte   N01 ,As0 ,v080
 .byte   W01
@  #04 @088   ----------------------------------------
 .byte   W48
 .byte   N44 ,Ds0
 .byte   W48
@  #04 @089   ----------------------------------------
 .byte   PATT
  .word Label_0100D68D
@  #04 @090   ----------------------------------------
 .byte   W96
@  #04 @091   ----------------------------------------
 .byte   W92
 .byte   W03
 .byte   EOT
 .byte   As0
 .byte   N01 ,As0 ,v080
 .byte   W01
@  #04 @092   ----------------------------------------
 .byte   GOTO
  .word Label_0100D59E
@  #04 @093   ----------------------------------------
 .byte   N23 ,As1 ,v096
 .byte   W96
 .byte   FINE

@**************** Track 5 (Midi-Chn.4) ****************@

.align 2, 0
song06_005:
@  #05 @000   ----------------------------------------
 .byte   KEYSH , song06_key+0
Label_0100B36E:
 .byte   VOICE , 34
 .byte   VOL , 52*song06_mvl/mxv
 .byte   PAN , c_v+3
 .byte   N16 ,Dn2 ,v060
 .byte   W24
 .byte   N07 ,Dn2 ,v036
 .byte   W08
 .byte   N07
 .byte   W08
 .byte   N07
 .byte   W08
 .byte   N17
 .byte   W18
 .byte   N05
 .byte   W06
 .byte   N07
 .byte   W08
 .byte   N07
 .byte   W08
 .byte   N07
 .byte   W08
@  #05 @001   ----------------------------------------
Label_0100B38A:
 .byte   N16 ,Dn2 ,v060
 .byte   W24
 .byte   N07 ,Dn2 ,v036
 .byte   W08
 .byte   N07
 .byte   W08
 .byte   N07
 .byte   W08
 .byte   N17
 .byte   W18
 .byte   N05
 .byte   W06
 .byte   N07
 .byte   W08
 .byte   N07
 .byte   W08
 .byte   N07
 .byte   W08
 .byte   PEND 
@  #05 @002   ----------------------------------------
Label_0100B3A1:
 .byte   N23 ,Dn2 ,v036
 .byte   W24
 .byte   N07
 .byte   W08
 .byte   N07
 .byte   W08
 .byte   N07
 .byte   W08
 .byte   N17
 .byte   W18
 .byte   N05
 .byte   W06
 .byte   N08 ,Dn2 ,v060
 .byte   W08
 .byte   N05
 .byte   W08
 .byte   N05
 .byte   W08
 .byte   PEND 
@  #05 @003   ----------------------------------------
Label_0100B3B8:
 .byte   N12 ,Dn2 ,v060
 .byte   W18
 .byte   N12
 .byte   W18
 .byte   N11 ,Dn2 ,v036
 .byte   W12
 .byte   N17
 .byte   W18
 .byte   N05
 .byte   W06
 .byte   N07
 .byte   W08
 .byte   N07
 .byte   W08
 .byte   N07
 .byte   W08
 .byte   PEND 
@  #05 @004   ----------------------------------------
 .byte   PATT
  .word Label_0100B3A1
@  #05 @005   ----------------------------------------
 .byte   PATT
  .word Label_0100B38A
@  #05 @006   ----------------------------------------
 .byte   PATT
  .word Label_0100B3A1
@  #05 @007   ----------------------------------------
Label_0100B3DC:
 .byte   N16 ,Dn2 ,v060
 .byte   W48
 .byte   N16
 .byte   W48
 .byte   PEND 
@  #05 @008   ----------------------------------------
 .byte   PATT
  .word Label_0100B38A
@  #05 @009   ----------------------------------------
 .byte   PATT
  .word Label_0100B38A
@  #05 @010   ----------------------------------------
 .byte   PATT
  .word Label_0100B3A1
@  #05 @011   ----------------------------------------
 .byte   PATT
  .word Label_0100B3B8
@  #05 @012   ----------------------------------------
 .byte   PATT
  .word Label_0100B3A1
@  #05 @013   ----------------------------------------
 .byte   PATT
  .word Label_0100B38A
@  #05 @014   ----------------------------------------
 .byte   PATT
  .word Label_0100B3A1
@  #05 @015   ----------------------------------------
 .byte   PATT
  .word Label_0100B3DC
@  #05 @016   ----------------------------------------
 .byte   W96
@  #05 @017   ----------------------------------------
 .byte   W96
@  #05 @018   ----------------------------------------
 .byte   W96
@  #05 @019   ----------------------------------------
 .byte   W96
@  #05 @020   ----------------------------------------
 .byte   W96
@  #05 @021   ----------------------------------------
Label_0100B410:
 .byte   N17 ,Dn2 ,v064
 .byte   W18
 .byte   N05
 .byte   W06
 .byte   N23
 .byte   W24
 .byte   N23
 .byte   W24
 .byte   N23
 .byte   W24
 .byte   PEND 
@  #05 @022   ----------------------------------------
Label_0100B41D:
 .byte   N11 ,Dn2 ,v064
 .byte   W12
 .byte   N11
 .byte   W48
 .byte   N17
 .byte   W24
 .byte   N11
 .byte   W12
 .byte   PEND 
@  #05 @023   ----------------------------------------
 .byte   PATT
  .word Label_0100B41D
@  #05 @024   ----------------------------------------
Label_0100B42D:
 .byte   W60
 .byte   N17 ,Dn2 ,v064
 .byte   W24
 .byte   N11
 .byte   W12
 .byte   PEND 
@  #05 @025   ----------------------------------------
 .byte   PATT
  .word Label_0100B41D
@  #05 @026   ----------------------------------------
Label_0100B43A:
 .byte   N23 ,Dn2 ,v064
 .byte   W24
 .byte   N23
 .byte   W24
 .byte   N23
 .byte   W24
 .byte   N17
 .byte   W18
 .byte   N05
 .byte   W06
 .byte   PEND 
@  #05 @027   ----------------------------------------
Label_0100B447:
 .byte   N23 ,Dn2 ,v064
 .byte   W24
 .byte   N23
 .byte   W24
 .byte   N23
 .byte   W24
 .byte   N07
 .byte   W08
 .byte   N07
 .byte   W08
 .byte   N07
 .byte   W08
 .byte   PEND 
@  #05 @028   ----------------------------------------
 .byte   W96
@  #05 @029   ----------------------------------------
 .byte   PATT
  .word Label_0100B42D
@  #05 @030   ----------------------------------------
 .byte   PATT
  .word Label_0100B41D
@  #05 @031   ----------------------------------------
 .byte   PATT
  .word Label_0100B41D
@  #05 @032   ----------------------------------------
 .byte   PATT
  .word Label_0100B41D
@  #05 @033   ----------------------------------------
 .byte   PATT
  .word Label_0100B41D
@  #05 @034   ----------------------------------------
 .byte   PATT
  .word Label_0100B41D
@  #05 @035   ----------------------------------------
 .byte   PATT
  .word Label_0100B41D
@  #05 @036   ----------------------------------------
 .byte   W96
@  #05 @037   ----------------------------------------
 .byte   PATT
  .word Label_0100B410
@  #05 @038   ----------------------------------------
 .byte   PATT
  .word Label_0100B41D
@  #05 @039   ----------------------------------------
 .byte   PATT
  .word Label_0100B41D
@  #05 @040   ----------------------------------------
 .byte   PATT
  .word Label_0100B42D
@  #05 @041   ----------------------------------------
 .byte   PATT
  .word Label_0100B41D
@  #05 @042   ----------------------------------------
 .byte   PATT
  .word Label_0100B43A
@  #05 @043   ----------------------------------------
 .byte   PATT
  .word Label_0100B447
@  #05 @044   ----------------------------------------
 .byte   W96
@  #05 @045   ----------------------------------------
Label_0100B49F:
 .byte   N11 ,Dn2 ,v064
 .byte   W12
 .byte   N11
 .byte   W36
 .byte   N11
 .byte   W12
 .byte   N11
 .byte   W24
 .byte   N11
 .byte   W12
 .byte   PEND 
@  #05 @046   ----------------------------------------
 .byte   PATT
  .word Label_0100B49F
@  #05 @047   ----------------------------------------
 .byte   PATT
  .word Label_0100B49F
@  #05 @048   ----------------------------------------
 .byte   PATT
  .word Label_0100B49F
@  #05 @049   ----------------------------------------
 .byte   PATT
  .word Label_0100B49F
@  #05 @050   ----------------------------------------
 .byte   PATT
  .word Label_0100B49F
@  #05 @051   ----------------------------------------
 .byte   PATT
  .word Label_0100B49F
@  #05 @052   ----------------------------------------
 .byte   PATT
  .word Label_0100B447
@  #05 @053   ----------------------------------------
 .byte   PATT
  .word Label_0100B447
@  #05 @054   ----------------------------------------
 .byte   PATT
  .word Label_0100B447
@  #05 @055   ----------------------------------------
 .byte   PATT
  .word Label_0100B447
@  #05 @056   ----------------------------------------
 .byte   PATT
  .word Label_0100B447
@  #05 @057   ----------------------------------------
 .byte   PATT
  .word Label_0100B447
@  #05 @058   ----------------------------------------
 .byte   PATT
  .word Label_0100B447
@  #05 @059   ----------------------------------------
 .byte   PATT
  .word Label_0100B447
@  #05 @060   ----------------------------------------
 .byte   PATT
  .word Label_0100B447
@  #05 @061   ----------------------------------------
 .byte   PATT
  .word Label_0100B447
@  #05 @062   ----------------------------------------
 .byte   PATT
  .word Label_0100B447
@  #05 @063   ----------------------------------------
 .byte   PATT
  .word Label_0100B447
@  #05 @064   ----------------------------------------
 .byte   PATT
  .word Label_0100B447
@  #05 @065   ----------------------------------------
 .byte   PATT
  .word Label_0100B447
@  #05 @066   ----------------------------------------
 .byte   PATT
  .word Label_0100B447
@  #05 @067   ----------------------------------------
 .byte   PATT
  .word Label_0100B447
@  #05 @068   ----------------------------------------
 .byte   PATT
  .word Label_0100B447
@  #05 @069   ----------------------------------------
 .byte   PATT
  .word Label_0100B447
@  #05 @070   ----------------------------------------
 .byte   PATT
  .word Label_0100B447
@  #05 @071   ----------------------------------------
 .byte   PATT
  .word Label_0100B447
@  #05 @072   ----------------------------------------
 .byte   PATT
  .word Label_0100B447
@  #05 @073   ----------------------------------------
 .byte   PATT
  .word Label_0100B447
@  #05 @074   ----------------------------------------
 .byte   PATT
  .word Label_0100B447
@  #05 @075   ----------------------------------------
 .byte   N23 ,Dn2 ,v064
 .byte   W24
 .byte   N23
 .byte   W24
 .byte   N07
 .byte   W08
 .byte   N07
 .byte   W08
 .byte   N07
 .byte   W08
 .byte   N07
 .byte   W08
 .byte   N07
 .byte   W08
 .byte   N07
 .byte   W08
@  #05 @076   ----------------------------------------
 .byte   PATT
  .word Label_0100B49F
@  #05 @077   ----------------------------------------
 .byte   PATT
  .word Label_0100B49F
@  #05 @078   ----------------------------------------
 .byte   PATT
  .word Label_0100B49F
@  #05 @079   ----------------------------------------
 .byte   PATT
  .word Label_0100B49F
@  #05 @080   ----------------------------------------
 .byte   W48
 .byte   N11 ,Dn2 ,v064
 .byte   W12
 .byte   N11
 .byte   W24
 .byte   N11
 .byte   W12
@  #05 @081   ----------------------------------------
 .byte   PATT
  .word Label_0100B49F
@  #05 @082   ----------------------------------------
 .byte   PATT
  .word Label_0100B49F
@  #05 @083   ----------------------------------------
 .byte   PATT
  .word Label_0100B49F
@  #05 @084   ----------------------------------------
 .byte   N02 ,Dn2 ,v064
 .byte   W02
 .byte   N02
 .byte   W03
 .byte   N02
 .byte   W03
 .byte   N02
 .byte   W03
 .byte   N02
 .byte   W03
 .byte   N02
 .byte   W03
 .byte   N02
 .byte   W03
 .byte   N02
 .byte   W03
 .byte   N02
 .byte   W03
 .byte   N02
 .byte   W03
 .byte   N02
 .byte   W03
 .byte   N02
 .byte   W03
 .byte   N02
 .byte   W03
 .byte   N02
 .byte   W03
 .byte   N02
 .byte   W03
 .byte   N02
 .byte   W04
 .byte   N11
 .byte   W12
 .byte   N11
 .byte   W24
 .byte   N11
 .byte   W12
@  #05 @085   ----------------------------------------
 .byte   PATT
  .word Label_0100B49F
@  #05 @086   ----------------------------------------
 .byte   PATT
  .word Label_0100B49F
@  #05 @087   ----------------------------------------
 .byte   PATT
  .word Label_0100B49F
@  #05 @088   ----------------------------------------
 .byte   PATT
  .word Label_0100B49F
@  #05 @089   ----------------------------------------
 .byte   PATT
  .word Label_0100B49F
@  #05 @090   ----------------------------------------
 .byte   PATT
  .word Label_0100B49F
@  #05 @091   ----------------------------------------
 .byte   PATT
  .word Label_0100B49F
@  #05 @092   ----------------------------------------
 .byte   GOTO
  .word Label_0100B36E
@  #05 @093   ----------------------------------------
 .byte   PATT
  .word Label_0100B38A
 .byte   FINE

@**************** Track 6 (Midi-Chn.5) ****************@

.align 2, 0
song06_006:
@  #06 @000   ----------------------------------------
 .byte   KEYSH , song06_key+0
Label_0100D6CA:
 .byte   VOICE , 49
 .byte   PAN , c_v-5
 .byte   VOL , 60*song06_mvl/mxv
 .byte   N92 ,Bn0 ,v096
 .byte   W96
@  #06 @001   ----------------------------------------
 .byte   W72
 .byte   N23
 .byte   W24
@  #06 @002   ----------------------------------------
 .byte   W24
 .byte   N68
 .byte   W72
@  #06 @003   ----------------------------------------
 .byte   W72
 .byte   N23
 .byte   W24
@  #06 @004   ----------------------------------------
 .byte   N92
 .byte   W96
@  #06 @005   ----------------------------------------
 .byte   W72
 .byte   N23
 .byte   W24
@  #06 @006   ----------------------------------------
 .byte   W24
 .byte   N68
 .byte   W72
@  #06 @007   ----------------------------------------
Label_0100D6E5:
 .byte   N44 ,Bn0 ,v096
 .byte   W48
 .byte   N44
 .byte   W48
 .byte   PEND 
@  #06 @008   ----------------------------------------
 .byte   N92
 .byte   W96
@  #06 @009   ----------------------------------------
 .byte   W72
 .byte   N23
 .byte   W24
@  #06 @010   ----------------------------------------
 .byte   W24
 .byte   N68
 .byte   W72
@  #06 @011   ----------------------------------------
 .byte   W72
 .byte   N23
 .byte   W24
@  #06 @012   ----------------------------------------
 .byte   N92
 .byte   W96
@  #06 @013   ----------------------------------------
 .byte   W72
 .byte   N23
 .byte   W24
@  #06 @014   ----------------------------------------
 .byte   W24
 .byte   N68
 .byte   W72
@  #06 @015   ----------------------------------------
 .byte   PATT
  .word Label_0100D6E5
@  #06 @016   ----------------------------------------
 .byte   W96
@  #06 @017   ----------------------------------------
 .byte   W96
@  #06 @018   ----------------------------------------
 .byte   W96
@  #06 @019   ----------------------------------------
 .byte   W96
@  #06 @020   ----------------------------------------
 .byte   W48
 .byte   N44 ,Bn0 ,v096
 .byte   W48
@  #06 @021   ----------------------------------------
Label_0100D70D:
 .byte   N44 ,Bn0 ,v096
 .byte   W72
 .byte   N23
 .byte   W24
 .byte   PEND 
@  #06 @022   ----------------------------------------
 .byte   W96
@  #06 @023   ----------------------------------------
 .byte   N92
 .byte   W96
@  #06 @024   ----------------------------------------
 .byte   W48
 .byte   N44
 .byte   W48
@  #06 @025   ----------------------------------------
 .byte   PATT
  .word Label_0100D70D
@  #06 @026   ----------------------------------------
 .byte   W96
@  #06 @027   ----------------------------------------
 .byte   N92 ,Bn0 ,v096
 .byte   W96
@  #06 @028   ----------------------------------------
 .byte   W48
 .byte   N44
 .byte   W48
@  #06 @029   ----------------------------------------
 .byte   PATT
  .word Label_0100D70D
@  #06 @030   ----------------------------------------
 .byte   W96
@  #06 @031   ----------------------------------------
 .byte   N92 ,Bn0 ,v096
 .byte   W96
@  #06 @032   ----------------------------------------
 .byte   W48
 .byte   N44
 .byte   W48
@  #06 @033   ----------------------------------------
 .byte   PATT
  .word Label_0100D70D
@  #06 @034   ----------------------------------------
 .byte   W96
@  #06 @035   ----------------------------------------
 .byte   N92 ,Bn0 ,v096
 .byte   W96
@  #06 @036   ----------------------------------------
 .byte   W48
 .byte   N44
 .byte   W48
@  #06 @037   ----------------------------------------
 .byte   PATT
  .word Label_0100D70D
@  #06 @038   ----------------------------------------
 .byte   W96
@  #06 @039   ----------------------------------------
 .byte   N92 ,Bn0 ,v096
 .byte   W96
@  #06 @040   ----------------------------------------
 .byte   W48
 .byte   N44
 .byte   W48
@  #06 @041   ----------------------------------------
 .byte   PATT
  .word Label_0100D70D
@  #06 @042   ----------------------------------------
 .byte   W96
@  #06 @043   ----------------------------------------
Label_0100D754:
 .byte   N23 ,Bn0 ,v096
 .byte   W24
 .byte   N68
 .byte   W72
 .byte   PEND 
@  #06 @044   ----------------------------------------
 .byte   W48
 .byte   N44
 .byte   W48
@  #06 @045   ----------------------------------------
 .byte   PATT
  .word Label_0100D70D
@  #06 @046   ----------------------------------------
 .byte   W96
@  #06 @047   ----------------------------------------
 .byte   N68 ,Bn0 ,v096
 .byte   W84
 .byte   N05
 .byte   W06
 .byte   N05
 .byte   W06
@  #06 @048   ----------------------------------------
 .byte   N92
 .byte   W96
@  #06 @049   ----------------------------------------
 .byte   W96
@  #06 @050   ----------------------------------------
 .byte   N92
 .byte   W96
@  #06 @051   ----------------------------------------
 .byte   N92
 .byte   W96
@  #06 @052   ----------------------------------------
 .byte   PATT
  .word Label_0100D754
@  #06 @053   ----------------------------------------
 .byte   PATT
  .word Label_0100D754
@  #06 @054   ----------------------------------------
 .byte   PATT
  .word Label_0100D754
@  #06 @055   ----------------------------------------
 .byte   PATT
  .word Label_0100D754
@  #06 @056   ----------------------------------------
 .byte   PATT
  .word Label_0100D754
@  #06 @057   ----------------------------------------
 .byte   PATT
  .word Label_0100D754
@  #06 @058   ----------------------------------------
 .byte   PATT
  .word Label_0100D754
@  #06 @059   ----------------------------------------
 .byte   PATT
  .word Label_0100D754
@  #06 @060   ----------------------------------------
 .byte   PATT
  .word Label_0100D754
@  #06 @061   ----------------------------------------
 .byte   PATT
  .word Label_0100D754
@  #06 @062   ----------------------------------------
 .byte   PATT
  .word Label_0100D754
@  #06 @063   ----------------------------------------
 .byte   PATT
  .word Label_0100D754
@  #06 @064   ----------------------------------------
 .byte   PATT
  .word Label_0100D754
@  #06 @065   ----------------------------------------
 .byte   PATT
  .word Label_0100D754
@  #06 @066   ----------------------------------------
 .byte   PATT
  .word Label_0100D754
@  #06 @067   ----------------------------------------
 .byte   PATT
  .word Label_0100D754
@  #06 @068   ----------------------------------------
Label_0100D7C3:
 .byte   N23 ,Bn0 ,v096
 .byte   W24
 .byte   N44
 .byte   W48
 .byte   N23
 .byte   W24
 .byte   PEND 
@  #06 @069   ----------------------------------------
 .byte   W24
 .byte   N68
 .byte   W72
@  #06 @070   ----------------------------------------
 .byte   PATT
  .word Label_0100D7C3
@  #06 @071   ----------------------------------------
 .byte   W24
 .byte   N68 ,Bn0 ,v096
 .byte   W72
@  #06 @072   ----------------------------------------
 .byte   PATT
  .word Label_0100D7C3
@  #06 @073   ----------------------------------------
 .byte   W24
 .byte   N68 ,Bn0 ,v096
 .byte   W72
@  #06 @074   ----------------------------------------
 .byte   PATT
  .word Label_0100D754
@  #06 @075   ----------------------------------------
 .byte   W96
@  #06 @076   ----------------------------------------
 .byte   W48
 .byte   N44 ,Bn0 ,v096
 .byte   W48
@  #06 @077   ----------------------------------------
 .byte   PATT
  .word Label_0100D70D
@  #06 @078   ----------------------------------------
 .byte   W96
@  #06 @079   ----------------------------------------
 .byte   N92 ,Bn0 ,v096
 .byte   W96
@  #06 @080   ----------------------------------------
 .byte   W48
 .byte   N44
 .byte   W48
@  #06 @081   ----------------------------------------
 .byte   PATT
  .word Label_0100D70D
@  #06 @082   ----------------------------------------
 .byte   W96
@  #06 @083   ----------------------------------------
 .byte   N92 ,Bn0 ,v096
 .byte   W96
@  #06 @084   ----------------------------------------
 .byte   W48
 .byte   N44
 .byte   W48
@  #06 @085   ----------------------------------------
 .byte   PATT
  .word Label_0100D70D
@  #06 @086   ----------------------------------------
 .byte   W96
@  #06 @087   ----------------------------------------
 .byte   N92 ,Bn0 ,v096
 .byte   W96
@  #06 @088   ----------------------------------------
 .byte   W48
 .byte   N44
 .byte   W48
@  #06 @089   ----------------------------------------
 .byte   PATT
  .word Label_0100D70D
@  #06 @090   ----------------------------------------
 .byte   W96
@  #06 @091   ----------------------------------------
 .byte   N92 ,Bn0 ,v096
 .byte   W96
@  #06 @092   ----------------------------------------
 .byte   GOTO
  .word Label_0100D6CA
@  #06 @093   ----------------------------------------
 .byte   N92 ,Bn0 ,v096
 .byte   W96
 .byte   FINE

@**************** Track 7 (Midi-Chn.6) ****************@

.align 2, 0
song06_007:
@  #07 @000   ----------------------------------------
 .byte   KEYSH , song06_key+0
Label_0100D976:
 .byte   VOICE , 1
 .byte   PAN , c_v+3
 .byte   VOL , 52*song06_mvl/mxv
 .byte   N92 ,An2 ,v064
 .byte   W96
@  #07 @001   ----------------------------------------
 .byte   W96
@  #07 @002   ----------------------------------------
 .byte   W96
@  #07 @003   ----------------------------------------
 .byte   W96
@  #07 @004   ----------------------------------------
 .byte   W96
@  #07 @005   ----------------------------------------
 .byte   W96
@  #07 @006   ----------------------------------------
 .byte   W96
@  #07 @007   ----------------------------------------
 .byte   W96
@  #07 @008   ----------------------------------------
 .byte   N92
 .byte   W96
@  #07 @009   ----------------------------------------
 .byte   W96
@  #07 @010   ----------------------------------------
 .byte   W96
@  #07 @011   ----------------------------------------
 .byte   W96
@  #07 @012   ----------------------------------------
 .byte   W96
@  #07 @013   ----------------------------------------
 .byte   W96
@  #07 @014   ----------------------------------------
 .byte   W96
@  #07 @015   ----------------------------------------
 .byte   W96
@  #07 @016   ----------------------------------------
 .byte   W96
@  #07 @017   ----------------------------------------
 .byte   W96
@  #07 @018   ----------------------------------------
 .byte   W96
@  #07 @019   ----------------------------------------
 .byte   W96
@  #07 @020   ----------------------------------------
 .byte   W48
 .byte   N44
 .byte   W48
@  #07 @021   ----------------------------------------
 .byte   W96
@  #07 @022   ----------------------------------------
 .byte   W96
@  #07 @023   ----------------------------------------
 .byte   W96
@  #07 @024   ----------------------------------------
 .byte   W48
 .byte   N44
 .byte   W48
@  #07 @025   ----------------------------------------
 .byte   W96
@  #07 @026   ----------------------------------------
 .byte   W96
@  #07 @027   ----------------------------------------
 .byte   W96
@  #07 @028   ----------------------------------------
 .byte   W48
 .byte   N44
 .byte   W48
@  #07 @029   ----------------------------------------
 .byte   W96
@  #07 @030   ----------------------------------------
 .byte   W96
@  #07 @031   ----------------------------------------
 .byte   W96
@  #07 @032   ----------------------------------------
 .byte   W96
@  #07 @033   ----------------------------------------
 .byte   W96
@  #07 @034   ----------------------------------------
 .byte   W96
@  #07 @035   ----------------------------------------
 .byte   W96
@  #07 @036   ----------------------------------------
 .byte   W48
 .byte   N48 ,An2 ,v052
 .byte   W48
@  #07 @037   ----------------------------------------
 .byte   W96
@  #07 @038   ----------------------------------------
 .byte   W96
@  #07 @039   ----------------------------------------
 .byte   W96
@  #07 @040   ----------------------------------------
 .byte   W48
 .byte   N44
 .byte   W48
@  #07 @041   ----------------------------------------
 .byte   W96
@  #07 @042   ----------------------------------------
 .byte   W96
@  #07 @043   ----------------------------------------
 .byte   W96
@  #07 @044   ----------------------------------------
 .byte   W48
 .byte   N48 ,An2 ,v064
 .byte   W48
@  #07 @045   ----------------------------------------
 .byte   W96
@  #07 @046   ----------------------------------------
 .byte   W96
@  #07 @047   ----------------------------------------
 .byte   W96
@  #07 @048   ----------------------------------------
 .byte   W96
@  #07 @049   ----------------------------------------
 .byte   W96
@  #07 @050   ----------------------------------------
 .byte   W96
@  #07 @051   ----------------------------------------
 .byte   W96
@  #07 @052   ----------------------------------------
 .byte   N92 ,An2 ,v052
 .byte   W96
@  #07 @053   ----------------------------------------
 .byte   W96
@  #07 @054   ----------------------------------------
 .byte   W96
@  #07 @055   ----------------------------------------
 .byte   W96
@  #07 @056   ----------------------------------------
 .byte   W96
@  #07 @057   ----------------------------------------
 .byte   W96
@  #07 @058   ----------------------------------------
 .byte   W96
@  #07 @059   ----------------------------------------
 .byte   W96
@  #07 @060   ----------------------------------------
 .byte   N92
 .byte   W96
@  #07 @061   ----------------------------------------
 .byte   W96
@  #07 @062   ----------------------------------------
 .byte   W96
@  #07 @063   ----------------------------------------
 .byte   W96
@  #07 @064   ----------------------------------------
 .byte   W96
@  #07 @065   ----------------------------------------
 .byte   W96
@  #07 @066   ----------------------------------------
 .byte   W96
@  #07 @067   ----------------------------------------
 .byte   W96
@  #07 @068   ----------------------------------------
 .byte   N92
 .byte   W96
@  #07 @069   ----------------------------------------
 .byte   W96
@  #07 @070   ----------------------------------------
 .byte   W96
@  #07 @071   ----------------------------------------
 .byte   W96
@  #07 @072   ----------------------------------------
 .byte   N92
 .byte   W96
@  #07 @073   ----------------------------------------
 .byte   W96
@  #07 @074   ----------------------------------------
 .byte   W96
@  #07 @075   ----------------------------------------
 .byte   W96
@  #07 @076   ----------------------------------------
 .byte   W48
 .byte   N44
 .byte   W48
@  #07 @077   ----------------------------------------
 .byte   W96
@  #07 @078   ----------------------------------------
 .byte   W96
@  #07 @079   ----------------------------------------
 .byte   W96
@  #07 @080   ----------------------------------------
 .byte   W96
@  #07 @081   ----------------------------------------
 .byte   W96
@  #07 @082   ----------------------------------------
 .byte   W96
@  #07 @083   ----------------------------------------
 .byte   W96
@  #07 @084   ----------------------------------------
 .byte   W48
 .byte   N44
 .byte   W48
@  #07 @085   ----------------------------------------
 .byte   W96
@  #07 @086   ----------------------------------------
 .byte   W96
@  #07 @087   ----------------------------------------
 .byte   W96
@  #07 @088   ----------------------------------------
 .byte   W48
 .byte   N44
 .byte   W48
@  #07 @089   ----------------------------------------
 .byte   W96
@  #07 @090   ----------------------------------------
 .byte   W96
@  #07 @091   ----------------------------------------
 .byte   W96
@  #07 @092   ----------------------------------------
 .byte   GOTO
  .word Label_0100D976
@  #07 @093   ----------------------------------------
 .byte   N92 ,An2 ,v064
 .byte   W96
 .byte   FINE

@**************** Track 8 (Midi-Chn.7) ****************@

.align 2, 0
song06_008:
@  #08 @000   ----------------------------------------
 .byte   KEYSH , song06_key+0
Label_0100F02E:
 .byte   VOICE , 52
 .byte   VOL , 55*song06_mvl/mxv
 .byte   PAN , c_v+0
 .byte   N23 ,Cs4 ,v096
 .byte   W96
@  #08 @001   ----------------------------------------
 .byte   W72
 .byte   N23
 .byte   W24
@  #08 @002   ----------------------------------------
 .byte   W24
 .byte   N72 ,Cn4
 .byte   W72
@  #08 @003   ----------------------------------------
Label_0100F03F:
 .byte   W72
 .byte   N07 ,Cs4 ,v096
 .byte   W08
 .byte   N08 ,Cn4
 .byte   W08
 .byte   Bn3
 .byte   W08
 .byte   PEND 
@  #08 @004   ----------------------------------------
 .byte   N23 ,As3
 .byte   W96
@  #08 @005   ----------------------------------------
 .byte   W72
 .byte   N24 ,Gs3
 .byte   W24
@  #08 @006   ----------------------------------------
 .byte   W24
 .byte   N72 ,Fs3
 .byte   W72
@  #08 @007   ----------------------------------------
Label_0100F055:
 .byte   N23 ,Ds3 ,v096
 .byte   N23 ,An3
 .byte   W48
 .byte   Fs3
 .byte   N23 ,Cn4
 .byte   W48
 .byte   PEND 
@  #08 @008   ----------------------------------------
 .byte   N96 ,Cs4
 .byte   W96
@  #08 @009   ----------------------------------------
 .byte   W72
 .byte   N23
 .byte   W24
@  #08 @010   ----------------------------------------
 .byte   W24
 .byte   N72 ,Cn4
 .byte   W72
@  #08 @011   ----------------------------------------
 .byte   PATT
  .word Label_0100F03F
@  #08 @012   ----------------------------------------
 .byte   N23 ,As3 ,v096
 .byte   W96
@  #08 @013   ----------------------------------------
 .byte   W72
 .byte   N24 ,Gs3
 .byte   W24
@  #08 @014   ----------------------------------------
 .byte   W24
 .byte   N72 ,Fs3
 .byte   W72
@  #08 @015   ----------------------------------------
 .byte   PATT
  .word Label_0100F055
@  #08 @016   ----------------------------------------
 .byte   W96
@  #08 @017   ----------------------------------------
 .byte   W96
@  #08 @018   ----------------------------------------
 .byte   W96
@  #08 @019   ----------------------------------------
 .byte   W96
@  #08 @020   ----------------------------------------
 .byte   N68 ,Gs4 ,v096
 .byte   W72
 .byte   N23 ,Fs4
 .byte   W24
@  #08 @021   ----------------------------------------
 .byte   Cn4
 .byte   W24
 .byte   N24 ,Cs4
 .byte   W24
 .byte   N68 ,Fs4
 .byte   W48
@  #08 @022   ----------------------------------------
Label_0100F093:
 .byte   W24
 .byte   N23 ,Fn4 ,v096
 .byte   W24
 .byte   N24 ,Ds4
 .byte   W24
 .byte   Cs4
 .byte   W24
 .byte   PEND 
@  #08 @023   ----------------------------------------
Label_0100F09E:
 .byte   N23 ,Cn4 ,v096
 .byte   W48
 .byte   N44 ,Cs5
 .byte   W48
 .byte   PEND 
@  #08 @024   ----------------------------------------
 .byte   N68 ,Cn5
 .byte   W72
 .byte   N23 ,As4
 .byte   W24
@  #08 @025   ----------------------------------------
 .byte   TIE ,Fn4
 .byte   W96
@  #08 @026   ----------------------------------------
 .byte   W92
 .byte   W03
 .byte   EOT
 .byte   W01
@  #08 @027   ----------------------------------------
 .byte   W96
@  #08 @028   ----------------------------------------
 .byte   N68 ,Ds4
 .byte   W72
 .byte   N23 ,Cs4
 .byte   W24
@  #08 @029   ----------------------------------------
 .byte   Cn4
 .byte   W24
 .byte   N24 ,As3
 .byte   W24
 .byte   TIE ,Fs4
 .byte   W48
@  #08 @030   ----------------------------------------
 .byte   PATT
  .word Label_0100F093
@  #08 @031   ----------------------------------------
 .byte   PATT
  .word Label_0100F09E
@  #08 @032   ----------------------------------------
 .byte   EOT
 .byte   Fs4
 .byte   N92 ,Cn3 ,v096
 .byte   N92 ,Cn5
 .byte   W96
@  #08 @033   ----------------------------------------
 .byte   As2
 .byte   N92 ,As4
 .byte   W96
@  #08 @034   ----------------------------------------
 .byte   Cn3
 .byte   N92 ,Cn5
 .byte   W96
@  #08 @035   ----------------------------------------
 .byte   Cs3
 .byte   N92 ,Cs5
 .byte   W96
@  #08 @036   ----------------------------------------
 .byte   W96
@  #08 @037   ----------------------------------------
 .byte   W96
@  #08 @038   ----------------------------------------
 .byte   W96
@  #08 @039   ----------------------------------------
 .byte   W96
@  #08 @040   ----------------------------------------
 .byte   W96
@  #08 @041   ----------------------------------------
 .byte   W96
@  #08 @042   ----------------------------------------
 .byte   W96
@  #08 @043   ----------------------------------------
 .byte   W96
@  #08 @044   ----------------------------------------
 .byte   N96 ,Cs4
 .byte   W96
@  #08 @045   ----------------------------------------
 .byte   Fn4
 .byte   W96
@  #08 @046   ----------------------------------------
 .byte   Ds4
 .byte   W96
@  #08 @047   ----------------------------------------
 .byte   Cs5
 .byte   W96
@  #08 @048   ----------------------------------------
 .byte   N23 ,Cn5
 .byte   W24
 .byte   TIE ,As4
 .byte   W72
@  #08 @049   ----------------------------------------
 .byte   W96
@  #08 @050   ----------------------------------------
 .byte   W96
@  #08 @051   ----------------------------------------
 .byte   W92
 .byte   W03
 .byte   EOT
 .byte   W01
@  #08 @052   ----------------------------------------
Label_0100F0FD:
 .byte   N23 ,Cn4 ,v064
 .byte   W24
 .byte   N23
 .byte   W24
 .byte   N23
 .byte   W24
 .byte   N07
 .byte   W08
 .byte   N08 ,As3
 .byte   W08
 .byte   Cn4
 .byte   W08
 .byte   PEND 
@  #08 @053   ----------------------------------------
Label_0100F10D:
 .byte   N23 ,Cs4 ,v064
 .byte   W24
 .byte   N23
 .byte   W24
 .byte   N23
 .byte   W24
 .byte   N07
 .byte   W08
 .byte   N08 ,Cn4
 .byte   W08
 .byte   Cs4
 .byte   W08
 .byte   PEND 
@  #08 @054   ----------------------------------------
Label_0100F11D:
 .byte   N23 ,Ds4 ,v064
 .byte   W24
 .byte   N23
 .byte   W24
 .byte   N23
 .byte   W24
 .byte   N07
 .byte   W08
 .byte   N08 ,Cs4
 .byte   W08
 .byte   Ds4
 .byte   W08
 .byte   PEND 
@  #08 @055   ----------------------------------------
Label_0100F12D:
 .byte   N23 ,Fn4 ,v064
 .byte   W24
 .byte   N23
 .byte   W24
 .byte   N23
 .byte   W24
 .byte   N07
 .byte   W08
 .byte   N08 ,Ds4
 .byte   W08
 .byte   Cs4
 .byte   W08
 .byte   PEND 
@  #08 @056   ----------------------------------------
 .byte   PATT
  .word Label_0100F0FD
@  #08 @057   ----------------------------------------
 .byte   PATT
  .word Label_0100F10D
@  #08 @058   ----------------------------------------
 .byte   PATT
  .word Label_0100F11D
@  #08 @059   ----------------------------------------
 .byte   PATT
  .word Label_0100F12D
@  #08 @060   ----------------------------------------
 .byte   PATT
  .word Label_0100F0FD
@  #08 @061   ----------------------------------------
 .byte   PATT
  .word Label_0100F10D
@  #08 @062   ----------------------------------------
 .byte   PATT
  .word Label_0100F11D
@  #08 @063   ----------------------------------------
 .byte   PATT
  .word Label_0100F12D
@  #08 @064   ----------------------------------------
 .byte   PATT
  .word Label_0100F0FD
@  #08 @065   ----------------------------------------
 .byte   PATT
  .word Label_0100F10D
@  #08 @066   ----------------------------------------
 .byte   PATT
  .word Label_0100F11D
@  #08 @067   ----------------------------------------
 .byte   PATT
  .word Label_0100F12D
@  #08 @068   ----------------------------------------
 .byte   N68 ,Ds4 ,v064
 .byte   W72
 .byte   N07
 .byte   W08
 .byte   N08 ,Cs4
 .byte   W08
 .byte   Ds4
 .byte   W08
@  #08 @069   ----------------------------------------
 .byte   N68 ,Fn4
 .byte   W72
 .byte   N07
 .byte   W08
 .byte   N08 ,Ds4
 .byte   W08
 .byte   Fn4
 .byte   W08
@  #08 @070   ----------------------------------------
 .byte   N68 ,Fs4
 .byte   W72
 .byte   N07
 .byte   W08
 .byte   N08 ,Fn4
 .byte   W08
 .byte   Fs4
 .byte   W08
@  #08 @071   ----------------------------------------
 .byte   N92 ,Gs4
 .byte   W96
@  #08 @072   ----------------------------------------
 .byte   N96 ,Fn4
 .byte   W96
@  #08 @073   ----------------------------------------
 .byte   Ds4
 .byte   W96
@  #08 @074   ----------------------------------------
 .byte   Fn4
 .byte   W96
@  #08 @075   ----------------------------------------
 .byte   N23
 .byte   W24
 .byte   N03 ,Ds4 ,v072
 .byte   W24
 .byte   Cn4 ,v080
 .byte   W24
 .byte   Fn3 ,v088
 .byte   W24
@  #08 @076   ----------------------------------------
Label_0100F1AE:
 .byte   N68 ,Cn5 ,v096
 .byte   W72
 .byte   N23 ,Cs5
 .byte   W24
 .byte   PEND 
@  #08 @077   ----------------------------------------
 .byte   TIE ,As4
 .byte   W96
@  #08 @078   ----------------------------------------
 .byte   W44
 .byte   W03
 .byte   EOT
 .byte   W01
 .byte   N23 ,Fn4
 .byte   W24
 .byte   N24 ,Fn5
 .byte   W24
@  #08 @079   ----------------------------------------
Label_0100F1C3:
 .byte   N11 ,Ds5 ,v096
 .byte   W12
 .byte   N12 ,Cs5
 .byte   W12
 .byte   N44 ,Cn5
 .byte   W48
 .byte   N23 ,Gs4
 .byte   W24
 .byte   PEND 
@  #08 @080   ----------------------------------------
 .byte   N32 ,Cn5
 .byte   W36
 .byte   N36 ,Cs5
 .byte   W36
 .byte   TIE ,As4
 .byte   W24
@  #08 @081   ----------------------------------------
 .byte   W96
@  #08 @082   ----------------------------------------
 .byte   W92
 .byte   W03
 .byte   EOT
 .byte   W01
@  #08 @083   ----------------------------------------
 .byte   N23 ,Cn4
 .byte   W24
 .byte   N24 ,Cs4
 .byte   W24
 .byte   Fn4
 .byte   W24
 .byte   Gs4
 .byte   W24
@  #08 @084   ----------------------------------------
 .byte   PATT
  .word Label_0100F1AE
@  #08 @085   ----------------------------------------
 .byte   TIE ,As4 ,v096
 .byte   W96
@  #08 @086   ----------------------------------------
 .byte   W44
 .byte   W03
 .byte   EOT
 .byte   W01
 .byte   N23 ,Fn4
 .byte   W24
 .byte   N24 ,Fn5
 .byte   W24
@  #08 @087   ----------------------------------------
 .byte   PATT
  .word Label_0100F1C3
@  #08 @088   ----------------------------------------
 .byte   N32 ,Cn5 ,v096
 .byte   W36
 .byte   N36 ,Cs5
 .byte   W36
 .byte   TIE ,Gs5
 .byte   W24
@  #08 @089   ----------------------------------------
 .byte   W96
@  #08 @090   ----------------------------------------
 .byte   W96
@  #08 @091   ----------------------------------------
 .byte   W92
 .byte   W03
 .byte   EOT
 .byte   W01
@  #08 @092   ----------------------------------------
 .byte   GOTO
  .word Label_0100F02E
@  #08 @093   ----------------------------------------
 .byte   N23 ,Cs4 ,v096
 .byte   W96
 .byte   FINE

@**************** Track 9 (Midi-Chn.8) ****************@

.align 2, 0
song06_009:
@  #09 @000   ----------------------------------------
 .byte   KEYSH , song06_key+0
Label_0100C69E:
 .byte   VOICE , 1
 .byte   PAN , c_v+3
 .byte   VOL , 52*song06_mvl/mxv
 .byte   N07 ,Cs5 ,v096
 .byte   W08
 .byte   N07
 .byte   W08
 .byte   N07
 .byte   W08
 .byte   N11
 .byte   W24
 .byte   N07 ,Cn5
 .byte   W08
 .byte   N07
 .byte   W08
 .byte   N07
 .byte   W08
 .byte   N11
 .byte   W24
@  #09 @001   ----------------------------------------
Label_0100C6B7:
 .byte   N07 ,Ds4 ,v096
 .byte   W08
 .byte   N07
 .byte   W08
 .byte   N07
 .byte   W08
 .byte   N11
 .byte   W24
 .byte   N07 ,Fn4
 .byte   W08
 .byte   N07
 .byte   W08
 .byte   N07
 .byte   W08
 .byte   N11
 .byte   W24
 .byte   PEND 
@  #09 @002   ----------------------------------------
Label_0100C6CB:
 .byte   N07 ,Cs5 ,v096
 .byte   W08
 .byte   N07
 .byte   W08
 .byte   N07
 .byte   W08
 .byte   N11
 .byte   W24
 .byte   N07 ,Cn5
 .byte   W08
 .byte   N07
 .byte   W08
 .byte   N07
 .byte   W08
 .byte   N11
 .byte   W24
 .byte   PEND 
@  #09 @003   ----------------------------------------
 .byte   PATT
  .word Label_0100C6B7
@  #09 @004   ----------------------------------------
Label_0100C6E4:
 .byte   N07 ,As4 ,v096
 .byte   W08
 .byte   N07
 .byte   W08
 .byte   N07
 .byte   W08
 .byte   N11
 .byte   W24
 .byte   N07 ,Gs4
 .byte   W08
 .byte   N07
 .byte   W08
 .byte   N07
 .byte   W08
 .byte   N11
 .byte   W24
 .byte   PEND 
@  #09 @005   ----------------------------------------
Label_0100C6F8:
 .byte   N07 ,Cn4 ,v096
 .byte   W08
 .byte   N07
 .byte   W08
 .byte   N07
 .byte   W08
 .byte   N11
 .byte   W24
 .byte   N07 ,Cs4
 .byte   W08
 .byte   N07
 .byte   W08
 .byte   N07
 .byte   W08
 .byte   N11
 .byte   W24
 .byte   PEND 
@  #09 @006   ----------------------------------------
Label_0100C70C:
 .byte   N07 ,Gs4 ,v096
 .byte   W08
 .byte   N07
 .byte   W08
 .byte   N07
 .byte   W08
 .byte   N11
 .byte   W24
 .byte   N07 ,Fs4
 .byte   W08
 .byte   N07
 .byte   W08
 .byte   N07
 .byte   W08
 .byte   N11
 .byte   W24
 .byte   PEND 
@  #09 @007   ----------------------------------------
Label_0100C720:
 .byte   N07 ,Ds4 ,v096
 .byte   W08
 .byte   N07
 .byte   W08
 .byte   N07
 .byte   W08
 .byte   N11
 .byte   W24
 .byte   N07 ,Fs4
 .byte   W08
 .byte   N07
 .byte   W08
 .byte   N07
 .byte   W08
 .byte   N11
 .byte   W24
 .byte   PEND 
@  #09 @008   ----------------------------------------
 .byte   PATT
  .word Label_0100C6CB
@  #09 @009   ----------------------------------------
 .byte   PATT
  .word Label_0100C6B7
@  #09 @010   ----------------------------------------
 .byte   PATT
  .word Label_0100C6CB
@  #09 @011   ----------------------------------------
 .byte   PATT
  .word Label_0100C6B7
@  #09 @012   ----------------------------------------
 .byte   PATT
  .word Label_0100C6E4
@  #09 @013   ----------------------------------------
 .byte   PATT
  .word Label_0100C6F8
@  #09 @014   ----------------------------------------
 .byte   PATT
  .word Label_0100C70C
@  #09 @015   ----------------------------------------
 .byte   PATT
  .word Label_0100C720
@  #09 @016   ----------------------------------------
 .byte   N22 ,Fn4 ,v080
 .byte   W24
 .byte   N17
 .byte   W18
 .byte   N05
 .byte   W06
 .byte   N22 ,Ds4
 .byte   W24
 .byte   N17
 .byte   W18
 .byte   N05
 .byte   W06
@  #09 @017   ----------------------------------------
 .byte   N22 ,Cn4
 .byte   W24
 .byte   N17
 .byte   W18
 .byte   N05
 .byte   W06
 .byte   N22 ,Cs4
 .byte   W24
 .byte   N17
 .byte   W18
 .byte   N05
 .byte   W06
@  #09 @018   ----------------------------------------
 .byte   N22 ,Ds4
 .byte   W24
 .byte   N17
 .byte   W18
 .byte   N05
 .byte   W06
 .byte   N22 ,Fn4
 .byte   W24
 .byte   N17
 .byte   W18
 .byte   N05
 .byte   W06
@  #09 @019   ----------------------------------------
 .byte   N07 ,Ds4 ,v120
 .byte   N07 ,Ds5
 .byte   W08
 .byte   N03 ,Ds4
 .byte   N07 ,Ds5
 .byte   W16
 .byte   N17 ,Ds4
 .byte   N17 ,Ds5
 .byte   W18
 .byte   N05 ,Ds4
 .byte   N05 ,Ds5
 .byte   W06
 .byte   N07 ,Fn4
 .byte   N07 ,Fn5
 .byte   W08
 .byte   N03 ,Fn4
 .byte   N07 ,Fn5
 .byte   W16
 .byte   N17 ,Fn4
 .byte   N17 ,Fn5
 .byte   W18
 .byte   N05 ,Fn4
 .byte   N05 ,Fn5
 .byte   W06
@  #09 @020   ----------------------------------------
 .byte   W96
@  #09 @021   ----------------------------------------
 .byte   W96
@  #09 @022   ----------------------------------------
 .byte   W96
@  #09 @023   ----------------------------------------
 .byte   W96
@  #09 @024   ----------------------------------------
 .byte   W96
@  #09 @025   ----------------------------------------
 .byte   W96
@  #09 @026   ----------------------------------------
Label_0100C7B6:
 .byte   N22 ,As4 ,v080
 .byte   W24
 .byte   N24 ,Cn5
 .byte   W24
 .byte   Cs5
 .byte   W24
 .byte   N17 ,Ds5
 .byte   W18
 .byte   N05
 .byte   W06
 .byte   PEND 
@  #09 @027   ----------------------------------------
Label_0100C7C5:
 .byte   N22 ,Cn5 ,v080
 .byte   W24
 .byte   N24 ,As4
 .byte   W24
 .byte   Fn4
 .byte   W24
 .byte   Cs4
 .byte   W24
 .byte   PEND 
@  #09 @028   ----------------------------------------
 .byte   W96
@  #09 @029   ----------------------------------------
 .byte   W96
@  #09 @030   ----------------------------------------
 .byte   W96
@  #09 @031   ----------------------------------------
Label_0100C7D4:
 .byte   W40
 .byte   N07 ,Fn4 ,v080
 .byte   W08
 .byte   N08 ,As4
 .byte   W08
 .byte   Fn4
 .byte   W08
 .byte   Cs4
 .byte   W08
 .byte   As3
 .byte   W08
 .byte   Fn3
 .byte   W08
 .byte   Cs3
 .byte   W08
 .byte   PEND 
@  #09 @032   ----------------------------------------
Label_0100C7E7:
 .byte   N07 ,Cn3 ,v080
 .byte   W08
 .byte   N08 ,Cs3
 .byte   W08
 .byte   Ds3
 .byte   W08
 .byte   Fn3
 .byte   W08
 .byte   Ds3
 .byte   W08
 .byte   Cs3
 .byte   W08
 .byte   Cn4
 .byte   W08
 .byte   As3
 .byte   W08
 .byte   Fs3
 .byte   W08
 .byte   Fn3
 .byte   W08
 .byte   Cs3
 .byte   W08
 .byte   Fn3
 .byte   W08
 .byte   PEND 
@  #09 @033   ----------------------------------------
Label_0100C803:
 .byte   N07 ,Ds4 ,v080
 .byte   W08
 .byte   N08 ,Gs3
 .byte   W08
 .byte   As3
 .byte   W08
 .byte   Ds4
 .byte   W08
 .byte   As3
 .byte   W08
 .byte   Cn4
 .byte   W08
 .byte   Cs4
 .byte   W08
 .byte   Cn4
 .byte   W08
 .byte   As3
 .byte   W08
 .byte   Gs3
 .byte   W08
 .byte   Fn3
 .byte   W08
 .byte   Cs3
 .byte   W08
 .byte   PEND 
@  #09 @034   ----------------------------------------
 .byte   N07 ,Cs5
 .byte   W08
 .byte   N08 ,Gs4
 .byte   W08
 .byte   As4
 .byte   W08
 .byte   Ds5
 .byte   W08
 .byte   Ds4
 .byte   W08
 .byte   Fn4
 .byte   W08
 .byte   Gs4
 .byte   W08
 .byte   As4
 .byte   W08
 .byte   Gs4
 .byte   W08
 .byte   Fn4
 .byte   W08
 .byte   Ds4
 .byte   W08
 .byte   Cs4
 .byte   W08
@  #09 @035   ----------------------------------------
Label_0100C839:
 .byte   N07 ,Cn4 ,v080
 .byte   W08
 .byte   N08 ,As3
 .byte   W08
 .byte   Gs3
 .byte   W08
 .byte   Fn3
 .byte   W08
 .byte   Fs3
 .byte   W08
 .byte   Fn3
 .byte   W08
 .byte   Ds3
 .byte   W08
 .byte   Cs3
 .byte   W08
 .byte   Cn3
 .byte   W08
 .byte   As2
 .byte   W08
 .byte   Gs2
 .byte   W08
 .byte   Fn2
 .byte   W08
 .byte   PEND 
@  #09 @036   ----------------------------------------
 .byte   W96
@  #09 @037   ----------------------------------------
 .byte   W96
@  #09 @038   ----------------------------------------
 .byte   W96
@  #09 @039   ----------------------------------------
 .byte   W96
@  #09 @040   ----------------------------------------
 .byte   W96
@  #09 @041   ----------------------------------------
 .byte   W96
@  #09 @042   ----------------------------------------
 .byte   PATT
  .word Label_0100C7B6
@  #09 @043   ----------------------------------------
 .byte   PATT
  .word Label_0100C7C5
@  #09 @044   ----------------------------------------
 .byte   W96
@  #09 @045   ----------------------------------------
 .byte   W96
@  #09 @046   ----------------------------------------
 .byte   W96
@  #09 @047   ----------------------------------------
 .byte   PATT
  .word Label_0100C7D4
@  #09 @048   ----------------------------------------
 .byte   PATT
  .word Label_0100C7E7
@  #09 @049   ----------------------------------------
 .byte   PATT
  .word Label_0100C803
@  #09 @050   ----------------------------------------
 .byte   N07 ,Cs5 ,v120
 .byte   W08
 .byte   N08 ,Gs4 ,v080
 .byte   W08
 .byte   As4
 .byte   W08
 .byte   N03 ,Ds5 ,v120
 .byte   W08
 .byte   N08 ,Ds4 ,v080
 .byte   W08
 .byte   Fn4
 .byte   W08
 .byte   Gs4
 .byte   W08
 .byte   As4
 .byte   W08
 .byte   Gs4
 .byte   W08
 .byte   Fn4
 .byte   W08
 .byte   Ds4
 .byte   W08
 .byte   Cs4
 .byte   W08
@  #09 @051   ----------------------------------------
 .byte   PATT
  .word Label_0100C839
@  #09 @052   ----------------------------------------
 .byte   W96
@  #09 @053   ----------------------------------------
 .byte   W96
@  #09 @054   ----------------------------------------
 .byte   W96
@  #09 @055   ----------------------------------------
 .byte   W96
@  #09 @056   ----------------------------------------
 .byte   W96
@  #09 @057   ----------------------------------------
 .byte   W96
@  #09 @058   ----------------------------------------
 .byte   W96
@  #09 @059   ----------------------------------------
 .byte   W96
@  #09 @060   ----------------------------------------
 .byte   W96
@  #09 @061   ----------------------------------------
 .byte   W96
@  #09 @062   ----------------------------------------
 .byte   W96
@  #09 @063   ----------------------------------------
 .byte   W96
@  #09 @064   ----------------------------------------
 .byte   W96
@  #09 @065   ----------------------------------------
 .byte   W96
@  #09 @066   ----------------------------------------
 .byte   W96
@  #09 @067   ----------------------------------------
 .byte   W96
@  #09 @068   ----------------------------------------
 .byte   W96
@  #09 @069   ----------------------------------------
 .byte   W96
@  #09 @070   ----------------------------------------
 .byte   W96
@  #09 @071   ----------------------------------------
 .byte   W96
@  #09 @072   ----------------------------------------
 .byte   W96
@  #09 @073   ----------------------------------------
 .byte   W96
@  #09 @074   ----------------------------------------
 .byte   W96
@  #09 @075   ----------------------------------------
 .byte   W96
@  #09 @076   ----------------------------------------
 .byte   W96
@  #09 @077   ----------------------------------------
 .byte   W96
@  #09 @078   ----------------------------------------
 .byte   W96
@  #09 @079   ----------------------------------------
 .byte   W96
@  #09 @080   ----------------------------------------
 .byte   W96
@  #09 @081   ----------------------------------------
 .byte   W96
@  #09 @082   ----------------------------------------
 .byte   W96
@  #09 @083   ----------------------------------------
 .byte   W96
@  #09 @084   ----------------------------------------
 .byte   W96
@  #09 @085   ----------------------------------------
 .byte   W96
@  #09 @086   ----------------------------------------
 .byte   W96
@  #09 @087   ----------------------------------------
 .byte   W96
@  #09 @088   ----------------------------------------
 .byte   W96
@  #09 @089   ----------------------------------------
 .byte   W96
@  #09 @090   ----------------------------------------
 .byte   W96
@  #09 @091   ----------------------------------------
 .byte   W96
@  #09 @092   ----------------------------------------
 .byte   GOTO
  .word Label_0100C69E
@  #09 @093   ----------------------------------------
 .byte   PATT
  .word Label_0100C6CB
 .byte   FINE

@**************** Track 10 (Midi-Chn.9) ****************@

.align 2, 0
song06_010:
@  #10 @000   ----------------------------------------
 .byte   KEYSH , song06_key+0
Label_0100E0AA:
 .byte   VOICE , 121
 .byte   PAN , c_v-7
 .byte   VOL , 62*song06_mvl/mxv
 .byte   Dn3 ,v080
 .byte   N92 ,Cn1 ,v096
 .byte   N16 ,Dn1 ,v060
 .byte   N92 ,An2 ,v064
 .byte   W24
 .byte   N07 ,Dn1 ,v036
 .byte   W08
 .byte   N07
 .byte   W08
 .byte   N07
 .byte   W08
 .byte   N17
 .byte   W18
 .byte   N05
 .byte   W06
 .byte   N07
 .byte   W08
 .byte   N07
 .byte   W08
 .byte   N07
 .byte   W08
@  #10 @001   ----------------------------------------
Label_0100E0CE:
 .byte   N16 ,Dn1 ,v060
 .byte   W24
 .byte   N07 ,Dn1 ,v036
 .byte   W08
 .byte   N07
 .byte   W08
 .byte   N07
 .byte   W08
 .byte   N17
 .byte   W18
 .byte   N05
 .byte   W06
 .byte   N23 ,Cn1 ,v096
 .byte   N07 ,Dn1 ,v036
 .byte   W08
 .byte   N07
 .byte   W08
 .byte   N07
 .byte   W08
 .byte   PEND 
@  #10 @002   ----------------------------------------
Label_0100E0EA:
 .byte   N23 ,Dn1 ,v036
 .byte   W24
 .byte   N68 ,Cn1 ,v096
 .byte   N07 ,Dn1 ,v036
 .byte   W08
 .byte   N07
 .byte   W08
 .byte   N07
 .byte   W08
 .byte   N17
 .byte   W18
 .byte   N05
 .byte   W06
 .byte   Dn1 ,v060
 .byte   W08
 .byte   N05
 .byte   W08
 .byte   N05
 .byte   W08
 .byte   PEND 
@  #10 @003   ----------------------------------------
Label_0100E105:
 .byte   N12 ,Dn1 ,v060
 .byte   W18
 .byte   N12
 .byte   W18
 .byte   N11 ,Dn1 ,v036
 .byte   W12
 .byte   N17
 .byte   W18
 .byte   N05
 .byte   W06
 .byte   N23 ,Cn1 ,v096
 .byte   N07 ,Dn1 ,v036
 .byte   W08
 .byte   N07
 .byte   W08
 .byte   N07
 .byte   W08
 .byte   PEND 
@  #10 @004   ----------------------------------------
Label_0100E11F:
 .byte   N92 ,Cn1 ,v096
 .byte   N23 ,Dn1 ,v036
 .byte   W24
 .byte   N07
 .byte   W08
 .byte   N07
 .byte   W08
 .byte   N07
 .byte   W08
 .byte   N17
 .byte   W18
 .byte   N05
 .byte   W06
 .byte   Dn1 ,v060
 .byte   W08
 .byte   N05
 .byte   W08
 .byte   N05
 .byte   W08
 .byte   PEND 
@  #10 @005   ----------------------------------------
 .byte   PATT
  .word Label_0100E0CE
@  #10 @006   ----------------------------------------
 .byte   PATT
  .word Label_0100E0EA
@  #10 @007   ----------------------------------------
Label_0100E142:
 .byte   N44 ,Cn1 ,v096
 .byte   N16 ,Dn1 ,v060
 .byte   W48
 .byte   N44 ,Cn1 ,v096
 .byte   N16 ,Dn1 ,v060
 .byte   W48
 .byte   PEND 
@  #10 @008   ----------------------------------------
Label_0100E151:
 .byte   N92 ,Cn1 ,v096
 .byte   N16 ,Dn1 ,v060
 .byte   N92 ,An2 ,v064
 .byte   W24
 .byte   N07 ,Dn1 ,v036
 .byte   W08
 .byte   N07
 .byte   W08
 .byte   N07
 .byte   W08
 .byte   N17
 .byte   W18
 .byte   N05
 .byte   W06
 .byte   N07
 .byte   W08
 .byte   N07
 .byte   W08
 .byte   N07
 .byte   W08
 .byte   PEND 
@  #10 @009   ----------------------------------------
 .byte   PATT
  .word Label_0100E0CE
@  #10 @010   ----------------------------------------
 .byte   PATT
  .word Label_0100E0EA
@  #10 @011   ----------------------------------------
 .byte   PATT
  .word Label_0100E105
@  #10 @012   ----------------------------------------
 .byte   PATT
  .word Label_0100E11F
@  #10 @013   ----------------------------------------
 .byte   PATT
  .word Label_0100E0CE
@  #10 @014   ----------------------------------------
 .byte   PATT
  .word Label_0100E0EA
@  #10 @015   ----------------------------------------
 .byte   PATT
  .word Label_0100E142
@  #10 @016   ----------------------------------------
 .byte   W96
@  #10 @017   ----------------------------------------
 .byte   W96
@  #10 @018   ----------------------------------------
 .byte   W96
@  #10 @019   ----------------------------------------
 .byte   W96
@  #10 @020   ----------------------------------------
Label_0100E195:
 .byte   W48
 .byte   N44 ,Cn1 ,v096
 .byte   N44 ,An2 ,v064
 .byte   W48
 .byte   PEND 
@  #10 @021   ----------------------------------------
Label_0100E19E:
 .byte   N44 ,Cn1 ,v096
 .byte   N17 ,Dn1 ,v064
 .byte   W18
 .byte   N05
 .byte   W06
 .byte   N23
 .byte   W24
 .byte   N23
 .byte   W24
 .byte   Cn1 ,v096
 .byte   N23 ,Dn1 ,v064
 .byte   W24
 .byte   PEND 
@  #10 @022   ----------------------------------------
Label_0100E1B2:
 .byte   N11 ,Dn1 ,v064
 .byte   W12
 .byte   N11
 .byte   W48
 .byte   N17
 .byte   W24
 .byte   N11
 .byte   W12
 .byte   PEND 
@  #10 @023   ----------------------------------------
Label_0100E1BD:
 .byte   N92 ,Cn1 ,v096
 .byte   N11 ,Dn1 ,v064
 .byte   W12
 .byte   N11
 .byte   W48
 .byte   N17
 .byte   W24
 .byte   N11
 .byte   W12
 .byte   PEND 
@  #10 @024   ----------------------------------------
 .byte   W48
 .byte   N44 ,Cn1 ,v096
 .byte   N44 ,An2 ,v064
 .byte   W12
 .byte   N17 ,Dn1
 .byte   W24
 .byte   N11
 .byte   W12
@  #10 @025   ----------------------------------------
Label_0100E1D8:
 .byte   N44 ,Cn1 ,v096
 .byte   N11 ,Dn1 ,v064
 .byte   W12
 .byte   N11
 .byte   W48
 .byte   N17
 .byte   W12
 .byte   N23 ,Cn1 ,v096
 .byte   W12
 .byte   N11 ,Dn1 ,v064
 .byte   W12
 .byte   PEND 
@  #10 @026   ----------------------------------------
Label_0100E1EC:
 .byte   N23 ,Dn1 ,v064
 .byte   W24
 .byte   N23
 .byte   W24
 .byte   N23
 .byte   W24
 .byte   N17
 .byte   W18
 .byte   N05
 .byte   W06
 .byte   PEND 
@  #10 @027   ----------------------------------------
 .byte   N92 ,Cn1 ,v096
 .byte   N23 ,Dn1 ,v064
 .byte   W24
 .byte   N23
 .byte   W24
 .byte   N23
 .byte   W24
 .byte   N07
 .byte   W08
 .byte   N07
 .byte   W08
 .byte   N07
 .byte   W08
@  #10 @028   ----------------------------------------
 .byte   PATT
  .word Label_0100E195
@  #10 @029   ----------------------------------------
 .byte   N44 ,Cn1 ,v096
 .byte   W60
 .byte   N17 ,Dn1 ,v064
 .byte   W12
 .byte   N23 ,Cn1 ,v096
 .byte   W12
 .byte   N11 ,Dn1 ,v064
 .byte   W12
@  #10 @030   ----------------------------------------
 .byte   PATT
  .word Label_0100E1B2
@  #10 @031   ----------------------------------------
 .byte   PATT
  .word Label_0100E1BD
@  #10 @032   ----------------------------------------
 .byte   N11 ,Dn1 ,v064
 .byte   W12
 .byte   N11
 .byte   W36
 .byte   N44 ,Cn1 ,v096
 .byte   W12
 .byte   N17 ,Dn1 ,v064
 .byte   W24
 .byte   N11
 .byte   W12
@  #10 @033   ----------------------------------------
 .byte   PATT
  .word Label_0100E1D8
@  #10 @034   ----------------------------------------
 .byte   PATT
  .word Label_0100E1B2
@  #10 @035   ----------------------------------------
 .byte   PATT
  .word Label_0100E1BD
@  #10 @036   ----------------------------------------
 .byte   W48
 .byte   N44 ,Cn1 ,v096
 .byte   N44 ,An2 ,v052
 .byte   W48
@  #10 @037   ----------------------------------------
 .byte   PATT
  .word Label_0100E19E
@  #10 @038   ----------------------------------------
 .byte   PATT
  .word Label_0100E1B2
@  #10 @039   ----------------------------------------
 .byte   PATT
  .word Label_0100E1BD
@  #10 @040   ----------------------------------------
 .byte   W48
 .byte   N44 ,Cn1 ,v096
 .byte   N44 ,An2 ,v052
 .byte   W12
 .byte   N17 ,Dn1 ,v064
 .byte   W24
 .byte   N11
 .byte   W12
@  #10 @041   ----------------------------------------
 .byte   PATT
  .word Label_0100E1D8
@  #10 @042   ----------------------------------------
 .byte   PATT
  .word Label_0100E1EC
@  #10 @043   ----------------------------------------
Label_0100E277:
 .byte   N23 ,Cn1 ,v096
 .byte   N23 ,Dn1 ,v064
 .byte   W24
 .byte   N68 ,Cn1 ,v096
 .byte   N23 ,Dn1 ,v064
 .byte   W24
 .byte   N23
 .byte   W24
 .byte   N07
 .byte   W08
 .byte   N07
 .byte   W08
 .byte   N07
 .byte   W08
 .byte   PEND 
@  #10 @044   ----------------------------------------
 .byte   PATT
  .word Label_0100E195
@  #10 @045   ----------------------------------------
Label_0100E293:
 .byte   N44 ,Cn1 ,v096
 .byte   N11 ,Dn1 ,v064
 .byte   W12
 .byte   N11
 .byte   W36
 .byte   N11
 .byte   W12
 .byte   N11
 .byte   W12
 .byte   N23 ,Cn1 ,v096
 .byte   W12
 .byte   N11 ,Dn1 ,v064
 .byte   W12
 .byte   PEND 
@  #10 @046   ----------------------------------------
Label_0100E2A9:
 .byte   N11 ,Dn1 ,v064
 .byte   W12
 .byte   N11
 .byte   W36
 .byte   N11
 .byte   W12
 .byte   N11
 .byte   W24
 .byte   N11
 .byte   W12
 .byte   PEND 
@  #10 @047   ----------------------------------------
 .byte   N68 ,Cn1 ,v096
 .byte   N11 ,Dn1 ,v064
 .byte   W12
 .byte   N11
 .byte   W36
 .byte   N11
 .byte   W12
 .byte   N11
 .byte   W24
 .byte   N05 ,Cn1 ,v096
 .byte   N11 ,Dn1 ,v064
 .byte   W06
 .byte   N05 ,Cn1 ,v096
 .byte   W06
@  #10 @048   ----------------------------------------
Label_0100E2CE:
 .byte   N92 ,Cn1 ,v096
 .byte   N11 ,Dn1 ,v064
 .byte   W12
 .byte   N11
 .byte   W36
 .byte   N11
 .byte   W12
 .byte   N11
 .byte   W24
 .byte   N11
 .byte   W12
 .byte   PEND 
@  #10 @049   ----------------------------------------
 .byte   PATT
  .word Label_0100E2A9
@  #10 @050   ----------------------------------------
 .byte   PATT
  .word Label_0100E2CE
@  #10 @051   ----------------------------------------
 .byte   PATT
  .word Label_0100E2CE
@  #10 @052   ----------------------------------------
Label_0100E2ED:
 .byte   N23 ,Cn1 ,v096
 .byte   N23 ,Dn1 ,v064
 .byte   N92 ,An2 ,v052
 .byte   W24
 .byte   N68 ,Cn1 ,v096
 .byte   N23 ,Dn1 ,v064
 .byte   W24
 .byte   N23
 .byte   W24
 .byte   N07
 .byte   W08
 .byte   N07
 .byte   W08
 .byte   N07
 .byte   W08
 .byte   PEND 
@  #10 @053   ----------------------------------------
 .byte   PATT
  .word Label_0100E277
@  #10 @054   ----------------------------------------
 .byte   PATT
  .word Label_0100E277
@  #10 @055   ----------------------------------------
 .byte   PATT
  .word Label_0100E277
@  #10 @056   ----------------------------------------
 .byte   PATT
  .word Label_0100E277
@  #10 @057   ----------------------------------------
 .byte   PATT
  .word Label_0100E277
@  #10 @058   ----------------------------------------
 .byte   PATT
  .word Label_0100E277
@  #10 @059   ----------------------------------------
 .byte   PATT
  .word Label_0100E277
@  #10 @060   ----------------------------------------
 .byte   PATT
  .word Label_0100E2ED
@  #10 @061   ----------------------------------------
 .byte   PATT
  .word Label_0100E277
@  #10 @062   ----------------------------------------
 .byte   PATT
  .word Label_0100E277
@  #10 @063   ----------------------------------------
 .byte   PATT
  .word Label_0100E277
@  #10 @064   ----------------------------------------
 .byte   PATT
  .word Label_0100E277
@  #10 @065   ----------------------------------------
 .byte   PATT
  .word Label_0100E277
@  #10 @066   ----------------------------------------
 .byte   PATT
  .word Label_0100E277
@  #10 @067   ----------------------------------------
 .byte   PATT
  .word Label_0100E277
@  #10 @068   ----------------------------------------
Label_0100E352:
 .byte   N23 ,Cn1 ,v096
 .byte   N23 ,Dn1 ,v064
 .byte   N92 ,An2 ,v052
 .byte   W24
 .byte   N44 ,Cn1 ,v096
 .byte   N23 ,Dn1 ,v064
 .byte   W24
 .byte   N23
 .byte   W24
 .byte   Cn1 ,v096
 .byte   N07 ,Dn1 ,v064
 .byte   W08
 .byte   N07
 .byte   W08
 .byte   N07
 .byte   W08
 .byte   PEND 
@  #10 @069   ----------------------------------------
Label_0100E370:
 .byte   N23 ,Dn1 ,v064
 .byte   W24
 .byte   N68 ,Cn1 ,v096
 .byte   N23 ,Dn1 ,v064
 .byte   W24
 .byte   N23
 .byte   W24
 .byte   N07
 .byte   W08
 .byte   N07
 .byte   W08
 .byte   N07
 .byte   W08
 .byte   PEND 
@  #10 @070   ----------------------------------------
 .byte   N23 ,Cn1 ,v096
 .byte   N23 ,Dn1 ,v064
 .byte   W24
 .byte   N44 ,Cn1 ,v096
 .byte   N23 ,Dn1 ,v064
 .byte   W24
 .byte   N23
 .byte   W24
 .byte   Cn1 ,v096
 .byte   N07 ,Dn1 ,v064
 .byte   W08
 .byte   N07
 .byte   W08
 .byte   N07
 .byte   W08
@  #10 @071   ----------------------------------------
 .byte   PATT
  .word Label_0100E370
@  #10 @072   ----------------------------------------
 .byte   PATT
  .word Label_0100E352
@  #10 @073   ----------------------------------------
 .byte   PATT
  .word Label_0100E370
@  #10 @074   ----------------------------------------
 .byte   PATT
  .word Label_0100E277
@  #10 @075   ----------------------------------------
 .byte   N23 ,Dn1 ,v064
 .byte   W24
 .byte   N23
 .byte   W24
 .byte   N07
 .byte   W08
 .byte   N07
 .byte   W08
 .byte   N07
 .byte   W08
 .byte   N07
 .byte   W08
 .byte   N07
 .byte   W08
 .byte   N07
 .byte   W08
@  #10 @076   ----------------------------------------
Label_0100E3C4:
 .byte   N11 ,Dn1 ,v064
 .byte   W12
 .byte   N11
 .byte   W36
 .byte   N44 ,Cn1 ,v096
 .byte   N11 ,Dn1 ,v064
 .byte   N44 ,An2 ,v052
 .byte   W12
 .byte   N11 ,Dn1 ,v064
 .byte   W24
 .byte   N11
 .byte   W12
 .byte   PEND 
@  #10 @077   ----------------------------------------
 .byte   PATT
  .word Label_0100E293
@  #10 @078   ----------------------------------------
 .byte   PATT
  .word Label_0100E2A9
@  #10 @079   ----------------------------------------
 .byte   PATT
  .word Label_0100E2CE
@  #10 @080   ----------------------------------------
 .byte   W48
 .byte   N44 ,Cn1 ,v096
 .byte   N11 ,Dn1 ,v064
 .byte   W12
 .byte   N11
 .byte   W24
 .byte   N11
 .byte   W12
@  #10 @081   ----------------------------------------
 .byte   PATT
  .word Label_0100E293
@  #10 @082   ----------------------------------------
 .byte   PATT
  .word Label_0100E2A9
@  #10 @083   ----------------------------------------
 .byte   PATT
  .word Label_0100E2CE
@  #10 @084   ----------------------------------------
 .byte   N02 ,Dn1 ,v064
 .byte   W02
 .byte   N03
 .byte   W03
 .byte   N03
 .byte   W03
 .byte   N03
 .byte   W03
 .byte   N03
 .byte   W03
 .byte   N03
 .byte   W03
 .byte   N03
 .byte   W03
 .byte   N03
 .byte   W03
 .byte   N03
 .byte   W03
 .byte   N03
 .byte   W03
 .byte   N03
 .byte   W03
 .byte   N03
 .byte   W03
 .byte   N03
 .byte   W03
 .byte   N03
 .byte   W03
 .byte   N03
 .byte   W03
 .byte   N03
 .byte   W04
 .byte   N44 ,Cn1 ,v096
 .byte   N11 ,Dn1 ,v064
 .byte   N44 ,An2 ,v052
 .byte   W12
 .byte   N11 ,Dn1 ,v064
 .byte   W24
 .byte   N11
 .byte   W12
@  #10 @085   ----------------------------------------
 .byte   PATT
  .word Label_0100E293
@  #10 @086   ----------------------------------------
 .byte   PATT
  .word Label_0100E2A9
@  #10 @087   ----------------------------------------
 .byte   PATT
  .word Label_0100E2CE
@  #10 @088   ----------------------------------------
 .byte   PATT
  .word Label_0100E3C4
@  #10 @089   ----------------------------------------
 .byte   PATT
  .word Label_0100E293
@  #10 @090   ----------------------------------------
 .byte   PATT
  .word Label_0100E2A9
@  #10 @091   ----------------------------------------
 .byte   PATT
  .word Label_0100E2CE
@  #10 @092   ----------------------------------------
 .byte   GOTO
  .word Label_0100E0AA
@  #10 @093   ----------------------------------------
 .byte   PATT
  .word Label_0100E151
 .byte   FINE

@**************** Track 11 (Midi-Chn.10) ****************@

.align 2, 0
song06_011:
@  #11 @000   ----------------------------------------
 .byte   KEYSH , song06_key+0
Label_0100ECB6:
 .byte   VOICE , 49
 .byte   PAN , c_v+3
 .byte   VOL , 52*song06_mvl/mxv
 .byte   W96
@  #11 @001   ----------------------------------------
 .byte   W96
@  #11 @002   ----------------------------------------
 .byte   W96
@  #11 @003   ----------------------------------------
 .byte   W96
@  #11 @004   ----------------------------------------
 .byte   W96
@  #11 @005   ----------------------------------------
 .byte   W96
@  #11 @006   ----------------------------------------
 .byte   W96
@  #11 @007   ----------------------------------------
 .byte   W96
@  #11 @008   ----------------------------------------
 .byte   W96
@  #11 @009   ----------------------------------------
 .byte   W96
@  #11 @010   ----------------------------------------
 .byte   W96
@  #11 @011   ----------------------------------------
 .byte   W96
@  #11 @012   ----------------------------------------
 .byte   W96
@  #11 @013   ----------------------------------------
 .byte   W96
@  #11 @014   ----------------------------------------
 .byte   W96
@  #11 @015   ----------------------------------------
 .byte   W96
@  #11 @016   ----------------------------------------
 .byte   W96
@  #11 @017   ----------------------------------------
 .byte   W96
@  #11 @018   ----------------------------------------
 .byte   TIE ,Cs4 ,v052
 .byte   W96
@  #11 @019   ----------------------------------------
 .byte   W92
 .byte   W03
 .byte   EOT
 .byte   W01
@  #11 @020   ----------------------------------------
 .byte   N68 ,Gs4 ,v064
 .byte   W72
 .byte   N23 ,Fs4
 .byte   W24
@  #11 @021   ----------------------------------------
 .byte   Cn4
 .byte   W24
 .byte   N24 ,Cs4
 .byte   W24
 .byte   N68 ,Fs4
 .byte   W48
@  #11 @022   ----------------------------------------
Label_0100ECE5:
 .byte   W24
 .byte   N23 ,Fn4 ,v064
 .byte   W24
 .byte   N24 ,Ds4
 .byte   W24
 .byte   Cs4
 .byte   W24
 .byte   PEND 
@  #11 @023   ----------------------------------------
Label_0100ECF0:
 .byte   N23 ,Cn4 ,v064
 .byte   W48
 .byte   N44 ,Cs5
 .byte   W48
 .byte   PEND 
@  #11 @024   ----------------------------------------
 .byte   N68 ,Cn5
 .byte   W72
 .byte   N23 ,As4
 .byte   W24
@  #11 @025   ----------------------------------------
 .byte   TIE ,Fn4
 .byte   W96
@  #11 @026   ----------------------------------------
 .byte   W92
 .byte   W03
 .byte   EOT
 .byte   W01
@  #11 @027   ----------------------------------------
 .byte   W96
@  #11 @028   ----------------------------------------
 .byte   N68 ,Ds4
 .byte   W72
 .byte   N23 ,Cs4
 .byte   W24
@  #11 @029   ----------------------------------------
 .byte   Cn4
 .byte   W24
 .byte   N24 ,As3
 .byte   W24
 .byte   TIE ,Fs4
 .byte   W48
@  #11 @030   ----------------------------------------
 .byte   PATT
  .word Label_0100ECE5
@  #11 @031   ----------------------------------------
 .byte   PATT
  .word Label_0100ECF0
@  #11 @032   ----------------------------------------
 .byte   EOT
 .byte   Fs4
 .byte   N92 ,Cn5 ,v064
 .byte   W96
@  #11 @033   ----------------------------------------
 .byte   N96 ,As4
 .byte   W96
@  #11 @034   ----------------------------------------
 .byte   Cn5
 .byte   W96
@  #11 @035   ----------------------------------------
 .byte   Cs5
 .byte   W96
@  #11 @036   ----------------------------------------
 .byte   W96
@  #11 @037   ----------------------------------------
 .byte   W96
@  #11 @038   ----------------------------------------
 .byte   W96
@  #11 @039   ----------------------------------------
 .byte   W96
@  #11 @040   ----------------------------------------
 .byte   W96
@  #11 @041   ----------------------------------------
 .byte   W96
@  #11 @042   ----------------------------------------
 .byte   W96
@  #11 @043   ----------------------------------------
 .byte   W96
@  #11 @044   ----------------------------------------
 .byte   Cs4
 .byte   W96
@  #11 @045   ----------------------------------------
 .byte   Fn4
 .byte   W96
@  #11 @046   ----------------------------------------
 .byte   Ds4
 .byte   W96
@  #11 @047   ----------------------------------------
 .byte   Cs5
 .byte   W96
@  #11 @048   ----------------------------------------
 .byte   N23 ,Cn5
 .byte   W24
 .byte   TIE ,As4
 .byte   W72
@  #11 @049   ----------------------------------------
 .byte   W96
@  #11 @050   ----------------------------------------
 .byte   W96
@  #11 @051   ----------------------------------------
 .byte   W92
 .byte   W03
 .byte   EOT
 .byte   W01
@  #11 @052   ----------------------------------------
Label_0100ED47:
 .byte   N07 ,Cn4 ,v064
 .byte   W24
 .byte   N07
 .byte   W24
 .byte   N07
 .byte   W24
 .byte   N07
 .byte   W08
 .byte   N08 ,As3
 .byte   W08
 .byte   Cn4
 .byte   W08
 .byte   PEND 
@  #11 @053   ----------------------------------------
Label_0100ED57:
 .byte   N07 ,Cs4 ,v064
 .byte   W24
 .byte   N07
 .byte   W24
 .byte   N07
 .byte   W24
 .byte   N07
 .byte   W08
 .byte   N08 ,Cn4
 .byte   W08
 .byte   Cs4
 .byte   W08
 .byte   PEND 
@  #11 @054   ----------------------------------------
Label_0100ED67:
 .byte   N07 ,Ds4 ,v064
 .byte   W24
 .byte   N07
 .byte   W24
 .byte   N07
 .byte   W24
 .byte   N07
 .byte   W08
 .byte   N08 ,Cs4
 .byte   W08
 .byte   Ds4
 .byte   W08
 .byte   PEND 
@  #11 @055   ----------------------------------------
Label_0100ED77:
 .byte   N07 ,Fn4 ,v064
 .byte   W24
 .byte   N07
 .byte   W24
 .byte   N07
 .byte   W24
 .byte   N07
 .byte   W08
 .byte   N08 ,Ds4
 .byte   W08
 .byte   Cs4
 .byte   W08
 .byte   PEND 
@  #11 @056   ----------------------------------------
 .byte   PATT
  .word Label_0100ED47
@  #11 @057   ----------------------------------------
 .byte   PATT
  .word Label_0100ED57
@  #11 @058   ----------------------------------------
 .byte   PATT
  .word Label_0100ED67
@  #11 @059   ----------------------------------------
 .byte   PATT
  .word Label_0100ED77
@  #11 @060   ----------------------------------------
 .byte   PATT
  .word Label_0100ED47
@  #11 @061   ----------------------------------------
 .byte   PATT
  .word Label_0100ED57
@  #11 @062   ----------------------------------------
 .byte   PATT
  .word Label_0100ED67
@  #11 @063   ----------------------------------------
 .byte   PATT
  .word Label_0100ED77
@  #11 @064   ----------------------------------------
 .byte   PATT
  .word Label_0100ED47
@  #11 @065   ----------------------------------------
 .byte   PATT
  .word Label_0100ED57
@  #11 @066   ----------------------------------------
 .byte   PATT
  .word Label_0100ED67
@  #11 @067   ----------------------------------------
 .byte   PATT
  .word Label_0100ED77
@  #11 @068   ----------------------------------------
 .byte   PATT
  .word Label_0100ED67
@  #11 @069   ----------------------------------------
 .byte   N07 ,Fn4 ,v064
 .byte   W24
 .byte   N07
 .byte   W24
 .byte   N07
 .byte   W24
 .byte   N07
 .byte   W08
 .byte   N08 ,Ds4
 .byte   W08
 .byte   Fn4
 .byte   W08
@  #11 @070   ----------------------------------------
 .byte   N07 ,Fs4
 .byte   W24
 .byte   N07
 .byte   W24
 .byte   N07
 .byte   W24
 .byte   N07
 .byte   W08
 .byte   N08 ,Fn4
 .byte   W08
 .byte   Fs4
 .byte   W08
@  #11 @071   ----------------------------------------
 .byte   N07 ,Gs4
 .byte   W24
 .byte   N07
 .byte   W24
 .byte   N07
 .byte   W24
 .byte   N07
 .byte   W24
@  #11 @072   ----------------------------------------
Label_0100EDEE:
 .byte   N07 ,Fn4 ,v064
 .byte   W24
 .byte   N07
 .byte   W24
 .byte   N07
 .byte   W24
 .byte   N07
 .byte   W24
 .byte   PEND 
@  #11 @073   ----------------------------------------
 .byte   PATT
  .word Label_0100EDEE
@  #11 @074   ----------------------------------------
 .byte   PATT
  .word Label_0100EDEE
@  #11 @075   ----------------------------------------
 .byte   N23 ,Cn4 ,v064
 .byte   W24
 .byte   N03 ,Cs4 ,v072
 .byte   W24
 .byte   Fn4 ,v080
 .byte   W24
 .byte   Gs4 ,v088
 .byte   W24
@  #11 @076   ----------------------------------------
Label_0100EE11:
 .byte   N68 ,Cn5 ,v096
 .byte   W72
 .byte   N23 ,Cs5
 .byte   W24
 .byte   PEND 
@  #11 @077   ----------------------------------------
 .byte   TIE ,As4
 .byte   W96
@  #11 @078   ----------------------------------------
 .byte   W44
 .byte   W03
 .byte   EOT
 .byte   W01
 .byte   N23 ,Fn4
 .byte   W24
 .byte   N24 ,Fn5
 .byte   W24
@  #11 @079   ----------------------------------------
Label_0100EE26:
 .byte   N11 ,Ds5 ,v096
 .byte   W12
 .byte   N12 ,Cs5
 .byte   W12
 .byte   N44 ,Cn5
 .byte   W48
 .byte   N23 ,Gs4
 .byte   W24
 .byte   PEND 
@  #11 @080   ----------------------------------------
 .byte   N32 ,Cn5
 .byte   W36
 .byte   N36 ,Cs5
 .byte   W36
 .byte   TIE ,As4
 .byte   W24
@  #11 @081   ----------------------------------------
 .byte   W96
@  #11 @082   ----------------------------------------
 .byte   W92
 .byte   W03
 .byte   EOT
 .byte   W01
@  #11 @083   ----------------------------------------
 .byte   N23 ,Cn4
 .byte   W24
 .byte   N24 ,Cs4
 .byte   W24
 .byte   Fn4
 .byte   W24
 .byte   Gs4
 .byte   W24
@  #11 @084   ----------------------------------------
 .byte   PATT
  .word Label_0100EE11
@  #11 @085   ----------------------------------------
 .byte   TIE ,As4 ,v096
 .byte   W96
@  #11 @086   ----------------------------------------
 .byte   W44
 .byte   W03
 .byte   EOT
 .byte   W01
 .byte   N23 ,Fn4
 .byte   W24
 .byte   N24 ,Fn5
 .byte   W24
@  #11 @087   ----------------------------------------
 .byte   PATT
  .word Label_0100EE26
@  #11 @088   ----------------------------------------
 .byte   N32 ,Cn5 ,v096
 .byte   W36
 .byte   N36 ,Cs5
 .byte   W36
 .byte   TIE ,Gs5
 .byte   W24
@  #11 @089   ----------------------------------------
 .byte   W96
@  #11 @090   ----------------------------------------
 .byte   W96
@  #11 @091   ----------------------------------------
 .byte   W92
 .byte   W03
 .byte   EOT
 .byte   W01
@  #11 @092   ----------------------------------------
 .byte   GOTO
  .word Label_0100ECB6
@  #11 @093   ----------------------------------------
 .byte   W96
 .byte   FINE

@**************** Track 12 (Midi-Chn.11) ****************@

.align 2, 0
song06_012:
@  #12 @000   ----------------------------------------
 .byte   KEYSH , song06_key+0
Label_0100DCC2:
 .byte   VOICE , 102
 .byte   VOL , 52*song06_mvl/mxv
 .byte   PAN , c_v+0
 .byte   W96
@  #12 @001   ----------------------------------------
 .byte   W96
@  #12 @002   ----------------------------------------
 .byte   W96
@  #12 @003   ----------------------------------------
 .byte   W96
@  #12 @004   ----------------------------------------
 .byte   W96
@  #12 @005   ----------------------------------------
 .byte   W96
@  #12 @006   ----------------------------------------
 .byte   W96
@  #12 @007   ----------------------------------------
 .byte   W96
@  #12 @008   ----------------------------------------
 .byte   W96
@  #12 @009   ----------------------------------------
 .byte   W96
@  #12 @010   ----------------------------------------
 .byte   W96
@  #12 @011   ----------------------------------------
 .byte   W96
@  #12 @012   ----------------------------------------
 .byte   W96
@  #12 @013   ----------------------------------------
 .byte   W96
@  #12 @014   ----------------------------------------
 .byte   W96
@  #12 @015   ----------------------------------------
 .byte   W96
@  #12 @016   ----------------------------------------
 .byte   TIE ,Fn4 ,v052
 .byte   W96
@  #12 @017   ----------------------------------------
 .byte   W96
@  #12 @018   ----------------------------------------
 .byte   W96
@  #12 @019   ----------------------------------------
 .byte   W92
 .byte   W03
 .byte   EOT
 .byte   W01
@  #12 @020   ----------------------------------------
 .byte   W96
@  #12 @021   ----------------------------------------
 .byte   W96
@  #12 @022   ----------------------------------------
 .byte   W96
@  #12 @023   ----------------------------------------
 .byte   W96
@  #12 @024   ----------------------------------------
 .byte   W96
@  #12 @025   ----------------------------------------
 .byte   W96
@  #12 @026   ----------------------------------------
 .byte   W96
@  #12 @027   ----------------------------------------
 .byte   W96
@  #12 @028   ----------------------------------------
 .byte   W96
@  #12 @029   ----------------------------------------
 .byte   W96
@  #12 @030   ----------------------------------------
 .byte   W96
@  #12 @031   ----------------------------------------
 .byte   W96
@  #12 @032   ----------------------------------------
 .byte   W96
@  #12 @033   ----------------------------------------
 .byte   W96
@  #12 @034   ----------------------------------------
 .byte   W96
@  #12 @035   ----------------------------------------
 .byte   W96
@  #12 @036   ----------------------------------------
 .byte   W96
@  #12 @037   ----------------------------------------
 .byte   W96
@  #12 @038   ----------------------------------------
 .byte   W96
@  #12 @039   ----------------------------------------
 .byte   W96
@  #12 @040   ----------------------------------------
 .byte   W96
@  #12 @041   ----------------------------------------
 .byte   W96
@  #12 @042   ----------------------------------------
 .byte   W96
@  #12 @043   ----------------------------------------
 .byte   W96
@  #12 @044   ----------------------------------------
 .byte   W96
@  #12 @045   ----------------------------------------
 .byte   W96
@  #12 @046   ----------------------------------------
 .byte   W96
@  #12 @047   ----------------------------------------
 .byte   W96
@  #12 @048   ----------------------------------------
 .byte   W96
@  #12 @049   ----------------------------------------
 .byte   W96
@  #12 @050   ----------------------------------------
 .byte   W96
@  #12 @051   ----------------------------------------
 .byte   W96
@  #12 @052   ----------------------------------------
 .byte   W96
@  #12 @053   ----------------------------------------
 .byte   W96
@  #12 @054   ----------------------------------------
 .byte   W96
@  #12 @055   ----------------------------------------
 .byte   W96
@  #12 @056   ----------------------------------------
 .byte   W96
@  #12 @057   ----------------------------------------
 .byte   W96
@  #12 @058   ----------------------------------------
 .byte   W96
@  #12 @059   ----------------------------------------
 .byte   W96
@  #12 @060   ----------------------------------------
 .byte   W96
@  #12 @061   ----------------------------------------
 .byte   W96
@  #12 @062   ----------------------------------------
 .byte   W96
@  #12 @063   ----------------------------------------
 .byte   W96
@  #12 @064   ----------------------------------------
 .byte   W96
@  #12 @065   ----------------------------------------
 .byte   W96
@  #12 @066   ----------------------------------------
 .byte   W96
@  #12 @067   ----------------------------------------
 .byte   W96
@  #12 @068   ----------------------------------------
 .byte   W96
@  #12 @069   ----------------------------------------
 .byte   W96
@  #12 @070   ----------------------------------------
 .byte   W96
@  #12 @071   ----------------------------------------
 .byte   W96
@  #12 @072   ----------------------------------------
 .byte   W96
@  #12 @073   ----------------------------------------
 .byte   W96
@  #12 @074   ----------------------------------------
 .byte   W96
@  #12 @075   ----------------------------------------
 .byte   W96
@  #12 @076   ----------------------------------------
 .byte   W96
@  #12 @077   ----------------------------------------
 .byte   W96
@  #12 @078   ----------------------------------------
 .byte   W96
@  #12 @079   ----------------------------------------
 .byte   W96
@  #12 @080   ----------------------------------------
 .byte   W96
@  #12 @081   ----------------------------------------
 .byte   W96
@  #12 @082   ----------------------------------------
 .byte   W96
@  #12 @083   ----------------------------------------
 .byte   W96
@  #12 @084   ----------------------------------------
 .byte   W96
@  #12 @085   ----------------------------------------
 .byte   W96
@  #12 @086   ----------------------------------------
 .byte   W96
@  #12 @087   ----------------------------------------
 .byte   W96
@  #12 @088   ----------------------------------------
 .byte   W96
@  #12 @089   ----------------------------------------
 .byte   W96
@  #12 @090   ----------------------------------------
 .byte   W96
@  #12 @091   ----------------------------------------
 .byte   W96
@  #12 @092   ----------------------------------------
 .byte   GOTO
  .word Label_0100DCC2
@  #12 @093   ----------------------------------------
 .byte   W96
 .byte   FINE

@**************** Track 13 (Midi-Chn.12) ****************@

.align 2, 0
song06_013:
@  #13 @000   ----------------------------------------
 .byte   KEYSH , song06_key+0
Label_0100EE7E:
 .byte   VOICE , 49
 .byte   PAN , c_v-7
 .byte   VOL , 52*song06_mvl/mxv
 .byte   W96
@  #13 @001   ----------------------------------------
 .byte   W96
@  #13 @002   ----------------------------------------
 .byte   W96
@  #13 @003   ----------------------------------------
 .byte   W96
@  #13 @004   ----------------------------------------
 .byte   W96
@  #13 @005   ----------------------------------------
 .byte   W96
@  #13 @006   ----------------------------------------
 .byte   W96
@  #13 @007   ----------------------------------------
 .byte   W96
@  #13 @008   ----------------------------------------
 .byte   W96
@  #13 @009   ----------------------------------------
 .byte   W96
@  #13 @010   ----------------------------------------
 .byte   W96
@  #13 @011   ----------------------------------------
 .byte   W96
@  #13 @012   ----------------------------------------
 .byte   W96
@  #13 @013   ----------------------------------------
 .byte   W96
@  #13 @014   ----------------------------------------
 .byte   W96
@  #13 @015   ----------------------------------------
 .byte   W96
@  #13 @016   ----------------------------------------
 .byte   W96
@  #13 @017   ----------------------------------------
 .byte   W96
@  #13 @018   ----------------------------------------
 .byte   W96
@  #13 @019   ----------------------------------------
 .byte   W96
@  #13 @020   ----------------------------------------
 .byte   W96
@  #13 @021   ----------------------------------------
 .byte   W96
@  #13 @022   ----------------------------------------
 .byte   W96
@  #13 @023   ----------------------------------------
 .byte   W96
@  #13 @024   ----------------------------------------
 .byte   W96
@  #13 @025   ----------------------------------------
 .byte   W96
@  #13 @026   ----------------------------------------
 .byte   W96
@  #13 @027   ----------------------------------------
 .byte   W96
@  #13 @028   ----------------------------------------
 .byte   W96
@  #13 @029   ----------------------------------------
 .byte   W96
@  #13 @030   ----------------------------------------
 .byte   W96
@  #13 @031   ----------------------------------------
 .byte   W96
@  #13 @032   ----------------------------------------
 .byte   N92 ,Cn4 ,v064
 .byte   W96
@  #13 @033   ----------------------------------------
 .byte   N96 ,As3
 .byte   W96
@  #13 @034   ----------------------------------------
 .byte   Cn4
 .byte   W96
@  #13 @035   ----------------------------------------
 .byte   Cs4
 .byte   W96
@  #13 @036   ----------------------------------------
 .byte   W96
@  #13 @037   ----------------------------------------
 .byte   W96
@  #13 @038   ----------------------------------------
 .byte   W96
@  #13 @039   ----------------------------------------
 .byte   W96
@  #13 @040   ----------------------------------------
 .byte   W96
@  #13 @041   ----------------------------------------
 .byte   W96
@  #13 @042   ----------------------------------------
 .byte   W96
@  #13 @043   ----------------------------------------
 .byte   W96
@  #13 @044   ----------------------------------------
 .byte   Cs3
 .byte   W96
@  #13 @045   ----------------------------------------
 .byte   Fn3
 .byte   W96
@  #13 @046   ----------------------------------------
 .byte   Ds3
 .byte   W96
@  #13 @047   ----------------------------------------
 .byte   Cs4
 .byte   W96
@  #13 @048   ----------------------------------------
 .byte   N23 ,Cn4
 .byte   W24
 .byte   TIE ,As3
 .byte   W72
@  #13 @049   ----------------------------------------
 .byte   W96
@  #13 @050   ----------------------------------------
 .byte   W96
@  #13 @051   ----------------------------------------
 .byte   W92
 .byte   W03
 .byte   EOT
 .byte   W01
@  #13 @052   ----------------------------------------
 .byte   W96
@  #13 @053   ----------------------------------------
 .byte   W96
@  #13 @054   ----------------------------------------
 .byte   W96
@  #13 @055   ----------------------------------------
 .byte   W96
@  #13 @056   ----------------------------------------
 .byte   W96
@  #13 @057   ----------------------------------------
 .byte   W96
@  #13 @058   ----------------------------------------
 .byte   W96
@  #13 @059   ----------------------------------------
 .byte   W48
 .byte   N44 ,Cs3 ,v080
 .byte   W48
@  #13 @060   ----------------------------------------
 .byte   N68 ,Gs3
 .byte   W72
 .byte   N23 ,Fs3
 .byte   W24
@  #13 @061   ----------------------------------------
 .byte   N68 ,Fn3
 .byte   W72
 .byte   N23 ,Fs3
 .byte   W24
@  #13 @062   ----------------------------------------
 .byte   Fn3
 .byte   W24
 .byte   N44 ,Ds3
 .byte   W48
 .byte   N23 ,Fn3
 .byte   W24
@  #13 @063   ----------------------------------------
 .byte   Fs3
 .byte   W24
 .byte   N24 ,Fn3
 .byte   W24
 .byte   Ds3
 .byte   W24
 .byte   Cs3
 .byte   W24
@  #13 @064   ----------------------------------------
 .byte   N23 ,Ds3
 .byte   W24
 .byte   TIE ,Fn3
 .byte   W72
@  #13 @065   ----------------------------------------
 .byte   W44
 .byte   W03
 .byte   EOT
 .byte   W01
 .byte   N44 ,Cn3
 .byte   W48
@  #13 @066   ----------------------------------------
 .byte   N23
 .byte   W24
 .byte   TIE ,Cs3
 .byte   W72
@  #13 @067   ----------------------------------------
 .byte   W44
 .byte   W03
 .byte   EOT
 .byte   W01
 .byte   N23 ,Ds3
 .byte   W24
 .byte   N24 ,Fn3
 .byte   W24
@  #13 @068   ----------------------------------------
 .byte   TIE ,Fs3
 .byte   W96
@  #13 @069   ----------------------------------------
 .byte   W23
 .byte   EOT
 .byte   W01
 .byte   N23 ,Fn3
 .byte   W24
 .byte   N24 ,Ds3
 .byte   W24
 .byte   Cs3
 .byte   W24
@  #13 @070   ----------------------------------------
 .byte   TIE ,Ds3
 .byte   W96
@  #13 @071   ----------------------------------------
 .byte   W23
 .byte   EOT
 .byte   W01
 .byte   N23 ,Fn3
 .byte   W24
 .byte   N24 ,Fs3
 .byte   W24
 .byte   Gs3
 .byte   W24
@  #13 @072   ----------------------------------------
 .byte   N92 ,Fn3
 .byte   W96
@  #13 @073   ----------------------------------------
 .byte   N96 ,Ds3
 .byte   W96
@  #13 @074   ----------------------------------------
 .byte   Cn3
 .byte   W96
@  #13 @075   ----------------------------------------
Label_0100EF34:
 .byte   N23 ,Cn3 ,v080
 .byte   W24
 .byte   N24 ,Cs3
 .byte   W24
 .byte   Fn3
 .byte   W24
 .byte   Gs3
 .byte   W24
 .byte   PEND 
@  #13 @076   ----------------------------------------
Label_0100EF40:
 .byte   N68 ,Cn4 ,v080
 .byte   W72
 .byte   N23 ,Cs4
 .byte   W24
 .byte   PEND 
@  #13 @077   ----------------------------------------
 .byte   TIE ,As3
 .byte   W96
@  #13 @078   ----------------------------------------
 .byte   W44
 .byte   W03
 .byte   EOT
 .byte   W01
 .byte   N23 ,Fn3
 .byte   W24
 .byte   N24 ,Fn4
 .byte   W24
@  #13 @079   ----------------------------------------
Label_0100EF55:
 .byte   N11 ,Ds4 ,v080
 .byte   W12
 .byte   N12 ,Cs4
 .byte   W12
 .byte   N44 ,Cn4
 .byte   W48
 .byte   N23 ,Gs3
 .byte   W24
 .byte   PEND 
@  #13 @080   ----------------------------------------
 .byte   N32 ,Cn4
 .byte   W36
 .byte   N36 ,Cs4
 .byte   W36
 .byte   TIE ,As3
 .byte   W24
@  #13 @081   ----------------------------------------
 .byte   W96
@  #13 @082   ----------------------------------------
 .byte   W92
 .byte   W03
 .byte   EOT
 .byte   W01
@  #13 @083   ----------------------------------------
 .byte   PATT
  .word Label_0100EF34
@  #13 @084   ----------------------------------------
 .byte   PATT
  .word Label_0100EF40
@  #13 @085   ----------------------------------------
 .byte   TIE ,As3 ,v080
 .byte   W96
@  #13 @086   ----------------------------------------
 .byte   W44
 .byte   W03
 .byte   EOT
 .byte   W01
 .byte   N23 ,Fn3
 .byte   W24
 .byte   N24 ,Fn4
 .byte   W24
@  #13 @087   ----------------------------------------
 .byte   PATT
  .word Label_0100EF55
@  #13 @088   ----------------------------------------
 .byte   N32 ,Cn4 ,v080
 .byte   W36
 .byte   N36 ,Cs4
 .byte   W36
 .byte   N23 ,Gs4
 .byte   W24
@  #13 @089   ----------------------------------------
Label_0100EF98:
 .byte   N07 ,Gs4 ,v080
 .byte   W24
 .byte   N07
 .byte   W24
 .byte   N07
 .byte   W24
 .byte   N07
 .byte   W24
 .byte   PEND 
@  #13 @090   ----------------------------------------
 .byte   PATT
  .word Label_0100EF98
@  #13 @091   ----------------------------------------
 .byte   PATT
  .word Label_0100EF98
@  #13 @092   ----------------------------------------
 .byte   GOTO
  .word Label_0100EE7E
@  #13 @093   ----------------------------------------
 .byte   W96
 .byte   FINE

@**************** Track 14 (Midi-Chn.13) ****************@

.align 2, 0
song06_014:
@  #14 @000   ----------------------------------------
 .byte   KEYSH , song06_key+0
Label_0100D89E:
 .byte   VOICE , 106
 .byte   VOL , 52*song06_mvl/mxv
 .byte   PAN , c_v+0
 .byte   W96
@  #14 @001   ----------------------------------------
 .byte   W96
@  #14 @002   ----------------------------------------
 .byte   W96
@  #14 @003   ----------------------------------------
 .byte   W96
@  #14 @004   ----------------------------------------
 .byte   W96
@  #14 @005   ----------------------------------------
 .byte   W96
@  #14 @006   ----------------------------------------
 .byte   W96
@  #14 @007   ----------------------------------------
 .byte   W96
@  #14 @008   ----------------------------------------
 .byte   W96
@  #14 @009   ----------------------------------------
 .byte   W96
@  #14 @010   ----------------------------------------
 .byte   W96
@  #14 @011   ----------------------------------------
 .byte   W96
@  #14 @012   ----------------------------------------
 .byte   W96
@  #14 @013   ----------------------------------------
 .byte   W96
@  #14 @014   ----------------------------------------
 .byte   W96
@  #14 @015   ----------------------------------------
 .byte   W96
@  #14 @016   ----------------------------------------
 .byte   N92 ,Cn4 ,v052
 .byte   W96
@  #14 @017   ----------------------------------------
 .byte   N96 ,As3
 .byte   W96
@  #14 @018   ----------------------------------------
 .byte   N92 ,An3
 .byte   W96
@  #14 @019   ----------------------------------------
 .byte   N96 ,As3 ,v064
 .byte   W96
@  #14 @020   ----------------------------------------
 .byte   W96
@  #14 @021   ----------------------------------------
 .byte   W96
@  #14 @022   ----------------------------------------
 .byte   W96
@  #14 @023   ----------------------------------------
 .byte   W96
@  #14 @024   ----------------------------------------
 .byte   W96
@  #14 @025   ----------------------------------------
 .byte   W96
@  #14 @026   ----------------------------------------
 .byte   W96
@  #14 @027   ----------------------------------------
 .byte   W96
@  #14 @028   ----------------------------------------
 .byte   W96
@  #14 @029   ----------------------------------------
 .byte   W96
@  #14 @030   ----------------------------------------
 .byte   W96
@  #14 @031   ----------------------------------------
 .byte   W96
@  #14 @032   ----------------------------------------
 .byte   W96
@  #14 @033   ----------------------------------------
 .byte   W96
@  #14 @034   ----------------------------------------
 .byte   W96
@  #14 @035   ----------------------------------------
 .byte   W96
@  #14 @036   ----------------------------------------
 .byte   W96
@  #14 @037   ----------------------------------------
 .byte   W96
@  #14 @038   ----------------------------------------
 .byte   W96
@  #14 @039   ----------------------------------------
 .byte   W96
@  #14 @040   ----------------------------------------
 .byte   W96
@  #14 @041   ----------------------------------------
 .byte   W96
@  #14 @042   ----------------------------------------
 .byte   W96
@  #14 @043   ----------------------------------------
 .byte   W96
@  #14 @044   ----------------------------------------
 .byte   W96
@  #14 @045   ----------------------------------------
 .byte   W96
@  #14 @046   ----------------------------------------
 .byte   W96
@  #14 @047   ----------------------------------------
 .byte   W96
@  #14 @048   ----------------------------------------
 .byte   W96
@  #14 @049   ----------------------------------------
 .byte   W96
@  #14 @050   ----------------------------------------
 .byte   W96
@  #14 @051   ----------------------------------------
 .byte   W96
@  #14 @052   ----------------------------------------
 .byte   W96
@  #14 @053   ----------------------------------------
 .byte   W96
@  #14 @054   ----------------------------------------
 .byte   W96
@  #14 @055   ----------------------------------------
 .byte   W96
@  #14 @056   ----------------------------------------
 .byte   W96
@  #14 @057   ----------------------------------------
 .byte   W96
@  #14 @058   ----------------------------------------
 .byte   W96
@  #14 @059   ----------------------------------------
 .byte   W96
@  #14 @060   ----------------------------------------
 .byte   W96
@  #14 @061   ----------------------------------------
 .byte   W96
@  #14 @062   ----------------------------------------
 .byte   W96
@  #14 @063   ----------------------------------------
 .byte   W96
@  #14 @064   ----------------------------------------
 .byte   W96
@  #14 @065   ----------------------------------------
 .byte   W96
@  #14 @066   ----------------------------------------
 .byte   W96
@  #14 @067   ----------------------------------------
 .byte   W96
@  #14 @068   ----------------------------------------
 .byte   W96
@  #14 @069   ----------------------------------------
 .byte   W96
@  #14 @070   ----------------------------------------
 .byte   W96
@  #14 @071   ----------------------------------------
 .byte   W96
@  #14 @072   ----------------------------------------
 .byte   W96
@  #14 @073   ----------------------------------------
 .byte   W96
@  #14 @074   ----------------------------------------
 .byte   W96
@  #14 @075   ----------------------------------------
 .byte   W96
@  #14 @076   ----------------------------------------
 .byte   W96
@  #14 @077   ----------------------------------------
 .byte   W96
@  #14 @078   ----------------------------------------
 .byte   W96
@  #14 @079   ----------------------------------------
 .byte   W96
@  #14 @080   ----------------------------------------
 .byte   W96
@  #14 @081   ----------------------------------------
 .byte   W96
@  #14 @082   ----------------------------------------
 .byte   W96
@  #14 @083   ----------------------------------------
 .byte   W96
@  #14 @084   ----------------------------------------
 .byte   W96
@  #14 @085   ----------------------------------------
 .byte   W96
@  #14 @086   ----------------------------------------
 .byte   W96
@  #14 @087   ----------------------------------------
 .byte   W96
@  #14 @088   ----------------------------------------
 .byte   W96
@  #14 @089   ----------------------------------------
 .byte   W96
@  #14 @090   ----------------------------------------
 .byte   W96
@  #14 @091   ----------------------------------------
 .byte   W96
@  #14 @092   ----------------------------------------
 .byte   GOTO
  .word Label_0100D89E
@  #14 @093   ----------------------------------------
 .byte   W96
 .byte   FINE

@**************** Track 15 (Midi-Chn.14) ****************@

.align 2, 0
song06_015:
@  #15 @000   ----------------------------------------
 .byte   KEYSH , song06_key+0
Label_54960E:
 .byte   VOICE , 110
 .byte   PAN , c_v+3
 .byte   VOL , 52*song06_mvl/mxv
 .byte   W96
@  #15 @001   ----------------------------------------
 .byte   W96
@  #15 @002   ----------------------------------------
 .byte   W96
@  #15 @003   ----------------------------------------
 .byte   W96
@  #15 @004   ----------------------------------------
 .byte   W96
@  #15 @005   ----------------------------------------
 .byte   W96
@  #15 @006   ----------------------------------------
 .byte   W96
@  #15 @007   ----------------------------------------
 .byte   W96
@  #15 @008   ----------------------------------------
 .byte   W96
@  #15 @009   ----------------------------------------
 .byte   W96
@  #15 @010   ----------------------------------------
 .byte   W96
@  #15 @011   ----------------------------------------
 .byte   W96
@  #15 @012   ----------------------------------------
 .byte   W96
@  #15 @013   ----------------------------------------
 .byte   W96
@  #15 @014   ----------------------------------------
 .byte   W96
@  #15 @015   ----------------------------------------
 .byte   W96
@  #15 @016   ----------------------------------------
 .byte   TIE ,As1 ,v064
 .byte   W96
@  #15 @017   ----------------------------------------
 .byte   W96
@  #15 @018   ----------------------------------------
 .byte   W96
@  #15 @019   ----------------------------------------
 .byte   W92
 .byte   W03
 .byte   EOT
 .byte   W01
@  #15 @020   ----------------------------------------
 .byte   W96
@  #15 @021   ----------------------------------------
 .byte   W96
@  #15 @022   ----------------------------------------
 .byte   W96
@  #15 @023   ----------------------------------------
 .byte   W96
@  #15 @024   ----------------------------------------
 .byte   W96
@  #15 @025   ----------------------------------------
 .byte   W96
@  #15 @026   ----------------------------------------
 .byte   W96
@  #15 @027   ----------------------------------------
 .byte   W96
@  #15 @028   ----------------------------------------
 .byte   W96
@  #15 @029   ----------------------------------------
 .byte   W96
@  #15 @030   ----------------------------------------
 .byte   W96
@  #15 @031   ----------------------------------------
 .byte   W96
@  #15 @032   ----------------------------------------
 .byte   W96
@  #15 @033   ----------------------------------------
 .byte   W96
@  #15 @034   ----------------------------------------
 .byte   W96
@  #15 @035   ----------------------------------------
 .byte   W96
@  #15 @036   ----------------------------------------
 .byte   W96
@  #15 @037   ----------------------------------------
 .byte   W96
@  #15 @038   ----------------------------------------
 .byte   W96
@  #15 @039   ----------------------------------------
 .byte   W96
@  #15 @040   ----------------------------------------
 .byte   W96
@  #15 @041   ----------------------------------------
 .byte   W96
@  #15 @042   ----------------------------------------
 .byte   W96
@  #15 @043   ----------------------------------------
 .byte   W96
@  #15 @044   ----------------------------------------
 .byte   W96
@  #15 @045   ----------------------------------------
 .byte   W96
@  #15 @046   ----------------------------------------
 .byte   W96
@  #15 @047   ----------------------------------------
 .byte   W96
@  #15 @048   ----------------------------------------
 .byte   W96
@  #15 @049   ----------------------------------------
 .byte   W96
@  #15 @050   ----------------------------------------
 .byte   W96
@  #15 @051   ----------------------------------------
 .byte   W96
@  #15 @052   ----------------------------------------
 .byte   W96
@  #15 @053   ----------------------------------------
 .byte   W96
@  #15 @054   ----------------------------------------
 .byte   W96
@  #15 @055   ----------------------------------------
 .byte   W96
@  #15 @056   ----------------------------------------
 .byte   W96
@  #15 @057   ----------------------------------------
 .byte   W96
@  #15 @058   ----------------------------------------
 .byte   W96
@  #15 @059   ----------------------------------------
 .byte   W96
@  #15 @060   ----------------------------------------
 .byte   W96
@  #15 @061   ----------------------------------------
 .byte   W96
@  #15 @062   ----------------------------------------
 .byte   W96
@  #15 @063   ----------------------------------------
 .byte   W96
@  #15 @064   ----------------------------------------
 .byte   W96
@  #15 @065   ----------------------------------------
 .byte   W96
@  #15 @066   ----------------------------------------
 .byte   W96
@  #15 @067   ----------------------------------------
 .byte   W96
@  #15 @068   ----------------------------------------
 .byte   W96
@  #15 @069   ----------------------------------------
 .byte   W96
@  #15 @070   ----------------------------------------
 .byte   W96
@  #15 @071   ----------------------------------------
 .byte   W96
@  #15 @072   ----------------------------------------
 .byte   W96
@  #15 @073   ----------------------------------------
 .byte   W96
@  #15 @074   ----------------------------------------
 .byte   W96
@  #15 @075   ----------------------------------------
 .byte   W96
@  #15 @076   ----------------------------------------
 .byte   W96
@  #15 @077   ----------------------------------------
 .byte   W96
@  #15 @078   ----------------------------------------
 .byte   W96
@  #15 @079   ----------------------------------------
 .byte   W96
@  #15 @080   ----------------------------------------
 .byte   W96
@  #15 @081   ----------------------------------------
 .byte   W96
@  #15 @082   ----------------------------------------
 .byte   W96
@  #15 @083   ----------------------------------------
 .byte   W96
@  #15 @084   ----------------------------------------
 .byte   W96
@  #15 @085   ----------------------------------------
 .byte   W96
@  #15 @086   ----------------------------------------
 .byte   W96
@  #15 @087   ----------------------------------------
 .byte   W96
@  #15 @088   ----------------------------------------
 .byte   W96
@  #15 @089   ----------------------------------------
 .byte   W96
@  #15 @090   ----------------------------------------
 .byte   W96
@  #15 @091   ----------------------------------------
 .byte   W96
@  #15 @092   ----------------------------------------
 .byte   GOTO
  .word Label_54960E
@  #15 @093   ----------------------------------------
 .byte   W96
 .byte   FINE

@**************** Track 16 (Midi-Chn.15) ****************@

.align 2, 0
song06_016:
@  #16 @000   ----------------------------------------
 .byte   KEYSH , song06_key+0
Label_0100E6DA:
 .byte   VOICE , 49
 .byte   PAN , c_v+3
 .byte   VOL , 52*song06_mvl/mxv
 .byte   N23 ,As1 ,v096
 .byte   W96
@  #16 @001   ----------------------------------------
 .byte   W72
 .byte   N23
 .byte   W24
@  #16 @002   ----------------------------------------
 .byte   W24
 .byte   N23
 .byte   W72
@  #16 @003   ----------------------------------------
 .byte   W72
 .byte   N23
 .byte   W24
@  #16 @004   ----------------------------------------
 .byte   N96 ,Fs1
 .byte   W96
@  #16 @005   ----------------------------------------
 .byte   W72
 .byte   N24 ,Ds1
 .byte   W24
@  #16 @006   ----------------------------------------
 .byte   W24
 .byte   N23
 .byte   W72
@  #16 @007   ----------------------------------------
Label_0100E6F7:
 .byte   N23 ,Fn1 ,v096
 .byte   W48
 .byte   N48 ,An1
 .byte   W48
 .byte   PEND 
@  #16 @008   ----------------------------------------
 .byte   N96 ,As1
 .byte   W96
@  #16 @009   ----------------------------------------
 .byte   W72
 .byte   N23
 .byte   W24
@  #16 @010   ----------------------------------------
 .byte   W24
 .byte   N23
 .byte   W72
@  #16 @011   ----------------------------------------
 .byte   W72
 .byte   N23
 .byte   W24
@  #16 @012   ----------------------------------------
 .byte   N96 ,Fs1
 .byte   W96
@  #16 @013   ----------------------------------------
 .byte   W72
 .byte   N24 ,Ds1
 .byte   W24
@  #16 @014   ----------------------------------------
 .byte   W24
 .byte   N23
 .byte   W72
@  #16 @015   ----------------------------------------
 .byte   PATT
  .word Label_0100E6F7
@  #16 @016   ----------------------------------------
 .byte   W96
@  #16 @017   ----------------------------------------
 .byte   W96
@  #16 @018   ----------------------------------------
 .byte   W96
@  #16 @019   ----------------------------------------
 .byte   W96
@  #16 @020   ----------------------------------------
Label_0100E71E:
 .byte   W48
 .byte   N16 ,Fs1 ,v076
 .byte   W24
 .byte   N16
 .byte   W24
 .byte   PEND 
@  #16 @021   ----------------------------------------
Label_0100E726:
 .byte   N16 ,Fs1 ,v076
 .byte   W24
 .byte   N16
 .byte   W24
 .byte   N16
 .byte   W24
 .byte   N03 ,An1
 .byte   W24
 .byte   PEND 
@  #16 @022   ----------------------------------------
Label_0100E732:
 .byte   N16 ,An1 ,v076
 .byte   W24
 .byte   N16
 .byte   W24
 .byte   N16
 .byte   W24
 .byte   N16
 .byte   W24
 .byte   PEND 
@  #16 @023   ----------------------------------------
 .byte   PATT
  .word Label_0100E732
@  #16 @024   ----------------------------------------
Label_0100E742:
 .byte   W48
 .byte   N16 ,As1 ,v076
 .byte   W24
 .byte   N16
 .byte   W24
 .byte   PEND 
@  #16 @025   ----------------------------------------
Label_0100E74A:
 .byte   N16 ,As1 ,v076
 .byte   W24
 .byte   N16
 .byte   W24
 .byte   N16
 .byte   W24
 .byte   N03 ,Gn1
 .byte   W24
 .byte   PEND 
@  #16 @026   ----------------------------------------
Label_0100E756:
 .byte   N16 ,Gn1 ,v076
 .byte   W24
 .byte   N16
 .byte   W24
 .byte   N16
 .byte   W24
 .byte   N16
 .byte   W24
 .byte   PEND 
@  #16 @027   ----------------------------------------
 .byte   PATT
  .word Label_0100E756
@  #16 @028   ----------------------------------------
 .byte   PATT
  .word Label_0100E71E
@  #16 @029   ----------------------------------------
 .byte   PATT
  .word Label_0100E726
@  #16 @030   ----------------------------------------
 .byte   PATT
  .word Label_0100E732
@  #16 @031   ----------------------------------------
 .byte   PATT
  .word Label_0100E732
@  #16 @032   ----------------------------------------
Label_0100E77A:
 .byte   N16 ,As1 ,v076
 .byte   W24
 .byte   N16
 .byte   W24
 .byte   N16
 .byte   W24
 .byte   N16
 .byte   W24
 .byte   PEND 
@  #16 @033   ----------------------------------------
 .byte   PATT
  .word Label_0100E77A
@  #16 @034   ----------------------------------------
 .byte   PATT
  .word Label_0100E77A
@  #16 @035   ----------------------------------------
 .byte   PATT
  .word Label_0100E77A
@  #16 @036   ----------------------------------------
 .byte   PATT
  .word Label_0100E71E
@  #16 @037   ----------------------------------------
 .byte   PATT
  .word Label_0100E726
@  #16 @038   ----------------------------------------
 .byte   PATT
  .word Label_0100E732
@  #16 @039   ----------------------------------------
 .byte   PATT
  .word Label_0100E732
@  #16 @040   ----------------------------------------
 .byte   PATT
  .word Label_0100E742
@  #16 @041   ----------------------------------------
 .byte   PATT
  .word Label_0100E74A
@  #16 @042   ----------------------------------------
 .byte   PATT
  .word Label_0100E756
@  #16 @043   ----------------------------------------
 .byte   PATT
  .word Label_0100E756
@  #16 @044   ----------------------------------------
Label_0100E7BC:
 .byte   W48
 .byte   N16 ,Ds1 ,v076
 .byte   W24
 .byte   N16
 .byte   W24
 .byte   PEND 
@  #16 @045   ----------------------------------------
 .byte   N16
 .byte   W24
 .byte   N16
 .byte   W24
 .byte   N16
 .byte   W24
 .byte   N03 ,Fn1
 .byte   W24
@  #16 @046   ----------------------------------------
Label_0100E7CD:
 .byte   N16 ,Fn1 ,v076
 .byte   W24
 .byte   N16
 .byte   W24
 .byte   N16
 .byte   W24
 .byte   N16
 .byte   W24
 .byte   PEND 
@  #16 @047   ----------------------------------------
 .byte   PATT
  .word Label_0100E732
@  #16 @048   ----------------------------------------
 .byte   PATT
  .word Label_0100E77A
@  #16 @049   ----------------------------------------
 .byte   PATT
  .word Label_0100E77A
@  #16 @050   ----------------------------------------
 .byte   PATT
  .word Label_0100E77A
@  #16 @051   ----------------------------------------
 .byte   PATT
  .word Label_0100E77A
@  #16 @052   ----------------------------------------
Label_0100E7F1:
 .byte   N16 ,Fs1 ,v076
 .byte   W24
 .byte   N16
 .byte   W24
 .byte   N16
 .byte   W24
 .byte   N16
 .byte   W24
 .byte   PEND 
@  #16 @053   ----------------------------------------
 .byte   PATT
  .word Label_0100E7F1
@  #16 @054   ----------------------------------------
 .byte   PATT
  .word Label_0100E7F1
@  #16 @055   ----------------------------------------
 .byte   PATT
  .word Label_0100E7F1
@  #16 @056   ----------------------------------------
 .byte   PATT
  .word Label_0100E77A
@  #16 @057   ----------------------------------------
 .byte   PATT
  .word Label_0100E77A
@  #16 @058   ----------------------------------------
 .byte   PATT
  .word Label_0100E77A
@  #16 @059   ----------------------------------------
 .byte   PATT
  .word Label_0100E77A
@  #16 @060   ----------------------------------------
Label_0100E81F:
 .byte   N16 ,Ds1 ,v076
 .byte   W24
 .byte   N16
 .byte   W24
 .byte   N16
 .byte   W24
 .byte   N16
 .byte   W24
 .byte   PEND 
@  #16 @061   ----------------------------------------
 .byte   PATT
  .word Label_0100E81F
@  #16 @062   ----------------------------------------
 .byte   PATT
  .word Label_0100E7CD
@  #16 @063   ----------------------------------------
 .byte   PATT
  .word Label_0100E732
@  #16 @064   ----------------------------------------
 .byte   PATT
  .word Label_0100E77A
@  #16 @065   ----------------------------------------
 .byte   PATT
  .word Label_0100E77A
@  #16 @066   ----------------------------------------
 .byte   PATT
  .word Label_0100E77A
@  #16 @067   ----------------------------------------
 .byte   PATT
  .word Label_0100E77A
@  #16 @068   ----------------------------------------
Label_0100E84D:
 .byte   N16 ,Bn1 ,v076
 .byte   W24
 .byte   N16
 .byte   W24
 .byte   N16
 .byte   W24
 .byte   N16
 .byte   W24
 .byte   PEND 
@  #16 @069   ----------------------------------------
 .byte   PATT
  .word Label_0100E84D
@  #16 @070   ----------------------------------------
 .byte   PATT
  .word Label_0100E84D
@  #16 @071   ----------------------------------------
 .byte   PATT
  .word Label_0100E84D
@  #16 @072   ----------------------------------------
Label_0100E867:
 .byte   N16 ,Cn2 ,v076
 .byte   W24
 .byte   N16
 .byte   W24
 .byte   N16
 .byte   W24
 .byte   N16
 .byte   W24
 .byte   PEND 
@  #16 @073   ----------------------------------------
 .byte   PATT
  .word Label_0100E867
@  #16 @074   ----------------------------------------
 .byte   PATT
  .word Label_0100E7CD
@  #16 @075   ----------------------------------------
 .byte   PATT
  .word Label_0100E7CD
@  #16 @076   ----------------------------------------
 .byte   PATT
  .word Label_0100E71E
@  #16 @077   ----------------------------------------
Label_0100E886:
 .byte   N16 ,Gs1 ,v076
 .byte   W24
 .byte   N16
 .byte   W24
 .byte   N16
 .byte   W24
 .byte   N03 ,As1
 .byte   W24
 .byte   PEND 
@  #16 @078   ----------------------------------------
 .byte   PATT
  .word Label_0100E77A
@  #16 @079   ----------------------------------------
 .byte   PATT
  .word Label_0100E77A
@  #16 @080   ----------------------------------------
 .byte   PATT
  .word Label_0100E7BC
@  #16 @081   ----------------------------------------
Label_0100E8A1:
 .byte   N16 ,Fn1 ,v076
 .byte   W24
 .byte   N16
 .byte   W24
 .byte   N16
 .byte   W24
 .byte   N03 ,As1
 .byte   W24
 .byte   PEND 
@  #16 @082   ----------------------------------------
 .byte   PATT
  .word Label_0100E77A
@  #16 @083   ----------------------------------------
 .byte   PATT
  .word Label_0100E77A
@  #16 @084   ----------------------------------------
 .byte   PATT
  .word Label_0100E71E
@  #16 @085   ----------------------------------------
 .byte   PATT
  .word Label_0100E886
@  #16 @086   ----------------------------------------
 .byte   PATT
  .word Label_0100E77A
@  #16 @087   ----------------------------------------
 .byte   PATT
  .word Label_0100E77A
@  #16 @088   ----------------------------------------
 .byte   PATT
  .word Label_0100E7BC
@  #16 @089   ----------------------------------------
 .byte   PATT
  .word Label_0100E8A1
@  #16 @090   ----------------------------------------
 .byte   PATT
  .word Label_0100E77A
@  #16 @091   ----------------------------------------
 .byte   PATT
  .word Label_0100E77A
@  #16 @092   ----------------------------------------
 .byte   GOTO
  .word Label_0100E6DA
@  #16 @093   ----------------------------------------
 .byte   N23 ,As1 ,v096
 .byte   W96
 .byte   FINE

@******************************************************@
	.align	2

Song_IndomitableWill_SurfingKyogre:
	.byte	16	@ NumTrks
	.byte	0	@ NumBlks
	.byte	song06_pri	@ Priority
	.byte	song06_rev	@ Reverb.
    
	.word	song06_grp
    
	.word	song06_001
	.word	song06_002
	.word	song06_003
	.word	song06_004
	.word	song06_005
	.word	song06_006
	.word	song06_007
	.word	song06_008
	.word	song06_009
	.word	song06_010
	.word	song06_011
	.word	song06_012
	.word	song06_013
	.word	song06_014
	.word	song06_015
	.word	song06_016

	.end
