	.include "MPlayDef.s"

	.equ	song06_grp, AllInstrument
	.equ	song06_pri, 0
	.equ	song06_rev, 0
	.equ	song06_mvl, 127
	.equ	song06_key, 0
	.equ	song06_tbs, 1
	.equ	song06_exg, 0
	.equ	song06_cmp, 1

	.section .content_data
	.global	Song_TheApexOfTheWorld_SurfingKyogre
	.align	2


@**************** Track 1 (Midi-Chn.0) ****************@

.align 2, 0
song06_001:
@  #01 @000   ----------------------------------------
 .byte   KEYSH , song06_key+0
 .byte   TEMPO , 88*song06_tbs/2
 .byte   VOICE , 46
 .byte   VOL , 47*song06_mvl/mxv
 .byte   PAN , c_v+0
 .byte   VOL , 47*song06_mvl/mxv
 .byte   PAN , c_v-22
 .byte   VOL , 47*song06_mvl/mxv
 .byte   PAN , c_v+0
 .byte   VOL , 47*song06_mvl/mxv
 .byte   PAN , c_v+0
 .byte   VOL , 47*song06_mvl/mxv
 .byte   PAN , c_v+0
 .byte   VOL , 47*song06_mvl/mxv
 .byte   PAN , c_v+0
 .byte   W24
 .byte   N23 ,Dn3 ,v080
 .byte   W24
 .byte   En3
 .byte   W24
 .byte   Bn2
 .byte   W24
@  #01 @001   ----------------------------------------
 .byte   N92 ,Dn3
 .byte   W48
 .byte   W48
@  #01 @002   ----------------------------------------
 .byte   W24
 .byte   N23
 .byte   W24
Label_0112F792:
 .byte   N23 ,Fn3 ,v080
 .byte   W24
 .byte   Dn3
 .byte   W24
 .byte   PEND 
@  #01 @003   ----------------------------------------
 .byte   N92
 .byte   W48
 .byte   W48
@  #01 @004   ----------------------------------------
 .byte   W24
 .byte   N23 ,Cn3
 .byte   W24
Label_0112F7A0:
 .byte   N23 ,Dn3 ,v080
 .byte   W24
 .byte   Bn2
 .byte   W24
 .byte   PEND 
@  #01 @005   ----------------------------------------
 .byte   N44 ,Cn3
 .byte   W48
 .byte   Gn3
 .byte   W48
@  #01 @006   ----------------------------------------
 .byte   N44
 .byte   W48
 .byte   Fn3
 .byte   W48
@  #01 @007   ----------------------------------------
 .byte   En3
 .byte   W48
 .byte   Dn3
 .byte   W48
@  #01 @008   ----------------------------------------
Label_0112F7B4:
 .byte   TEMPO , 180*song06_tbs/2
 .byte   W48
 .byte   W48
@  #01 @009   ----------------------------------------
 .byte   W48
 .byte   W48
@  #01 @010   ----------------------------------------
 .byte   W48
 .byte   W48
@  #01 @011   ----------------------------------------
 .byte   W48
 .byte   W48
@  #01 @012   ----------------------------------------
 .byte   W48
 .byte   W48
@  #01 @013   ----------------------------------------
 .byte   W48
 .byte   W48
@  #01 @014   ----------------------------------------
 .byte   W48
 .byte   W48
@  #01 @015   ----------------------------------------
 .byte   W48
 .byte   W48
@  #01 @016   ----------------------------------------
 .byte   W48
 .byte   W48
@  #01 @017   ----------------------------------------
 .byte   W48
 .byte   W48
@  #01 @018   ----------------------------------------
 .byte   W48
 .byte   W48
@  #01 @019   ----------------------------------------
 .byte   W48
 .byte   W48
@  #01 @020   ----------------------------------------
 .byte   W48
 .byte   W48
@  #01 @021   ----------------------------------------
 .byte   W48
 .byte   W48
@  #01 @022   ----------------------------------------
 .byte   W48
 .byte   W48
@  #01 @023   ----------------------------------------
 .byte   W48
 .byte   W48
@  #01 @024   ----------------------------------------
 .byte   W48
 .byte   W48
@  #01 @025   ----------------------------------------
 .byte   W48
 .byte   W48
@  #01 @026   ----------------------------------------
 .byte   W48
 .byte   W48
@  #01 @027   ----------------------------------------
 .byte   W48
 .byte   W48
@  #01 @028   ----------------------------------------
 .byte   W48
 .byte   W48
@  #01 @029   ----------------------------------------
 .byte   W48
 .byte   W48
@  #01 @030   ----------------------------------------
 .byte   W48
 .byte   W48
@  #01 @031   ----------------------------------------
 .byte   W48
 .byte   W48
@  #01 @032   ----------------------------------------
 .byte   W48
 .byte   W48
@  #01 @033   ----------------------------------------
 .byte   W48
 .byte   W48
@  #01 @034   ----------------------------------------
 .byte   W48
 .byte   W48
@  #01 @035   ----------------------------------------
 .byte   W48
 .byte   W48
@  #01 @036   ----------------------------------------
 .byte   W48
 .byte   W48
@  #01 @037   ----------------------------------------
 .byte   W48
 .byte   W48
@  #01 @038   ----------------------------------------
 .byte   W48
 .byte   W48
@  #01 @039   ----------------------------------------
 .byte   W48
 .byte   W48
@  #01 @040   ----------------------------------------
 .byte   W48
 .byte   W48
@  #01 @041   ----------------------------------------
 .byte   W48
 .byte   W48
@  #01 @042   ----------------------------------------
 .byte   W48
 .byte   W48
@  #01 @043   ----------------------------------------
 .byte   W48
 .byte   W48
@  #01 @044   ----------------------------------------
 .byte   W48
 .byte   W48
@  #01 @045   ----------------------------------------
 .byte   W48
 .byte   W48
@  #01 @046   ----------------------------------------
 .byte   W48
 .byte   W48
@  #01 @047   ----------------------------------------
 .byte   W48
 .byte   W48
@  #01 @048   ----------------------------------------
 .byte   W48
 .byte   W48
@  #01 @049   ----------------------------------------
 .byte   W48
 .byte   W48
@  #01 @050   ----------------------------------------
 .byte   W48
 .byte   W48
@  #01 @051   ----------------------------------------
 .byte   W48
 .byte   W48
@  #01 @052   ----------------------------------------
 .byte   W48
 .byte   W48
@  #01 @053   ----------------------------------------
 .byte   W48
 .byte   W48
@  #01 @054   ----------------------------------------
 .byte   W48
 .byte   W48
@  #01 @055   ----------------------------------------
 .byte   W48
 .byte   W48
@  #01 @056   ----------------------------------------
 .byte   W48
 .byte   W48
@  #01 @057   ----------------------------------------
 .byte   W48
 .byte   W48
@  #01 @058   ----------------------------------------
 .byte   W48
 .byte   W48
@  #01 @059   ----------------------------------------
 .byte   W48
 .byte   W48
@  #01 @060   ----------------------------------------
 .byte   W48
 .byte   W48
@  #01 @061   ----------------------------------------
 .byte   W48
 .byte   W48
@  #01 @062   ----------------------------------------
 .byte   W48
 .byte   W48
@  #01 @063   ----------------------------------------
 .byte   W48
 .byte   W48
@  #01 @064   ----------------------------------------
 .byte   W48
 .byte   W48
@  #01 @065   ----------------------------------------
 .byte   W48
 .byte   W48
@  #01 @066   ----------------------------------------
 .byte   W48
 .byte   W48
@  #01 @067   ----------------------------------------
 .byte   W48
 .byte   W48
@  #01 @068   ----------------------------------------
 .byte   W48
 .byte   W48
@  #01 @069   ----------------------------------------
 .byte   W48
 .byte   W48
@  #01 @070   ----------------------------------------
 .byte   W48
 .byte   W48
@  #01 @071   ----------------------------------------
 .byte   W48
 .byte   W48
@  #01 @072   ----------------------------------------
 .byte   W48
 .byte   W48
@  #01 @073   ----------------------------------------
 .byte   W48
 .byte   W48
@  #01 @074   ----------------------------------------
 .byte   W48
 .byte   W48
@  #01 @075   ----------------------------------------
 .byte   W48
 .byte   W48
@  #01 @076   ----------------------------------------
 .byte   W48
 .byte   W48
@  #01 @077   ----------------------------------------
 .byte   W48
 .byte   W48
@  #01 @078   ----------------------------------------
 .byte   W48
 .byte   W48
@  #01 @079   ----------------------------------------
 .byte   W48
 .byte   W48
@  #01 @080   ----------------------------------------
 .byte   W48
 .byte   W48
@  #01 @081   ----------------------------------------
 .byte   W48
 .byte   W48
@  #01 @082   ----------------------------------------
 .byte   W48
 .byte   W48
@  #01 @083   ----------------------------------------
 .byte   W48
 .byte   W48
@  #01 @084   ----------------------------------------
 .byte   W48
 .byte   W48
@  #01 @085   ----------------------------------------
 .byte   W48
 .byte   W48
@  #01 @086   ----------------------------------------
 .byte   W48
 .byte   W48
@  #01 @087   ----------------------------------------
 .byte   W48
 .byte   W48
@  #01 @088   ----------------------------------------
 .byte   W48
 .byte   W48
@  #01 @089   ----------------------------------------
 .byte   W48
 .byte   W48
@  #01 @090   ----------------------------------------
 .byte   W48
 .byte   W48
@  #01 @091   ----------------------------------------
 .byte   W48
 .byte   W48
@  #01 @092   ----------------------------------------
 .byte   W48
 .byte   W48
@  #01 @093   ----------------------------------------
 .byte   W48
 .byte   W48
@  #01 @094   ----------------------------------------
 .byte   W48
 .byte   W48
@  #01 @095   ----------------------------------------
 .byte   W48
 .byte   W48
@  #01 @096   ----------------------------------------
Label_0112F866:
 .byte   N32 ,Fn4 ,v080
 .byte   W36
 .byte   En4
 .byte   W12
 .byte   PEND 
 .byte   W24
 .byte   N68 ,Gn4
 .byte   W24
@  #01 @097   ----------------------------------------
 .byte   W48
 .byte   N44 ,En4
 .byte   W48
@  #01 @098   ----------------------------------------
Label_0112F875:
 .byte   N11 ,Fn4 ,v080
 .byte   W12
 .byte   Cn4
 .byte   W12
 .byte   En4
 .byte   W12
 .byte   Cn4
 .byte   W12
 .byte   PEND 
Label_0112F880:
 .byte   N11 ,Gn4 ,v080
 .byte   W12
 .byte   Cn4
 .byte   W12
 .byte   En4
 .byte   W12
 .byte   Cn4
 .byte   W12
 .byte   PEND 
@  #01 @099   ----------------------------------------
 .byte   PATT
  .word Label_0112F875
@  #01 @100   ----------------------------------------
 .byte   PATT
  .word Label_0112F880
@  #01 @101   ----------------------------------------
Label_0112F895:
 .byte   N32 ,Cn4 ,v080
 .byte   W36
 .byte   N23 ,Dn4
 .byte   W12
 .byte   PEND 
Label_0112F89D:
 .byte   W12
 .byte   N11 ,En4 ,v080
 .byte   W12
 .byte   N68 ,Dn4
 .byte   W24
 .byte   PEND 
@  #01 @102   ----------------------------------------
 .byte   W48
 .byte   N44 ,Cn4
 .byte   W48
@  #01 @103   ----------------------------------------
Label_0112F8AA:
 .byte   N11 ,Dn4 ,v080
 .byte   W12
 .byte   Cn4
 .byte   W12
 .byte   En4
 .byte   W12
 .byte   Cn4
 .byte   W12
 .byte   PEND 
@  #01 @104   ----------------------------------------
 .byte   PATT
  .word Label_0112F8AA
@  #01 @105   ----------------------------------------
 .byte   PATT
  .word Label_0112F8AA
@  #01 @106   ----------------------------------------
 .byte   PATT
  .word Label_0112F8AA
@  #01 @107   ----------------------------------------
Label_0112F8C4:
 .byte   N11 ,Cn4 ,v064
 .byte   W12
 .byte   N11
 .byte   W12
 .byte   N11
 .byte   W12
 .byte   Bn3
 .byte   W12
 .byte   PEND 
Label_0112F8CF:
 .byte   N11 ,Bn3 ,v064
 .byte   W12
 .byte   N11
 .byte   W12
 .byte   Cn4
 .byte   W12
 .byte   N11
 .byte   W12
 .byte   PEND 
@  #01 @108   ----------------------------------------
 .byte   PATT
  .word Label_0112F8C4
@  #01 @109   ----------------------------------------
Label_0112F8DF:
 .byte   N11 ,Bn3 ,v064
 .byte   W12
 .byte   N11
 .byte   W12
 .byte   Cn4
 .byte   W24
 .byte   PEND 
@  #01 @110   ----------------------------------------
 .byte   PATT
  .word Label_0112F8C4
@  #01 @111   ----------------------------------------
 .byte   PATT
  .word Label_0112F8DF
@  #01 @112   ----------------------------------------
Label_0112F8F2:
 .byte   N11 ,Cn4 ,v064
 .byte   W12
 .byte   Dn3
 .byte   W12
 .byte   Gn3
 .byte   W12
 .byte   Dn3
 .byte   W12
 .byte   PEND 
Label_0112F8FD:
 .byte   N11 ,Cn4 ,v064
 .byte   W12
 .byte   Gn3
 .byte   W12
 .byte   Bn3
 .byte   W24
 .byte   PEND 
@  #01 @113   ----------------------------------------
Label_0112F906:
 .byte   N23 ,Dn4 ,v064
 .byte   W24
 .byte   N11 ,En4
 .byte   W12
 .byte   N23
 .byte   W12
 .byte   PEND 
Label_0112F910:
 .byte   W12
 .byte   N11 ,Fn4 ,v064
 .byte   W12
 .byte   N23 ,Dn4
 .byte   W24
 .byte   PEND 
@  #01 @114   ----------------------------------------
Label_0112F919:
 .byte   N11 ,Dn4 ,v064
 .byte   W12
 .byte   N11
 .byte   W12
 .byte   N11
 .byte   W12
 .byte   N11
 .byte   W12
 .byte   PEND 
@  #01 @115   ----------------------------------------
 .byte   PATT
  .word Label_0112F919
@  #01 @116   ----------------------------------------
Label_0112F929:
 .byte   N11 ,Dn5 ,v064
 .byte   W12
 .byte   N11
 .byte   W12
 .byte   N11
 .byte   W12
 .byte   N11
 .byte   W12
 .byte   PEND 
@  #01 @117   ----------------------------------------
 .byte   PATT
  .word Label_0112F929
@  #01 @118   ----------------------------------------
 .byte   W48
Label_0112F93A:
 .byte   N44 ,Gs3 ,v016
 .byte   W01
 .byte   W01
 .byte   W01
 .byte   W01
 .byte   W01
 .byte   W01
 .byte   W01
 .byte   W01
 .byte   W01
 .byte   W01
 .byte   W01
 .byte   W01
 .byte   W01
 .byte   W01
 .byte   W01
 .byte   W01
 .byte   W01
 .byte   W01
 .byte   W01
 .byte   W01
 .byte   W01
 .byte   W01
 .byte   W01
 .byte   W01
 .byte   W01
 .byte   W01
 .byte   W01
 .byte   W01
 .byte   W01
 .byte   W01
 .byte   W01
 .byte   W01
 .byte   W01
 .byte   W01
 .byte   W01
 .byte   W01
 .byte   W01
 .byte   W01
 .byte   W01
 .byte   W01
 .byte   W01
 .byte   W01
 .byte   W01
 .byte   W01
 .byte   W01
 .byte   W01
 .byte   W01
 .byte   W01
 .byte   PEND 
@  #01 @119   ----------------------------------------
 .byte   N92 ,Cn4 ,v080
 .byte   W48
 .byte   W48
@  #01 @120   ----------------------------------------
Label_0112F973:
 .byte   N32 ,Cn4 ,v080
 .byte   W36
 .byte   Dn4
 .byte   W12
 .byte   PEND 
 .byte   W24
 .byte   N23 ,Bn3
 .byte   W24
@  #01 @121   ----------------------------------------
 .byte   N92 ,Gn3
 .byte   W48
 .byte   W48
@  #01 @122   ----------------------------------------
 .byte   PATT
  .word Label_0112F973
@  #01 @123   ----------------------------------------
 .byte   W24
 .byte   N23 ,Bn3 ,v080
 .byte   W24
 .byte   N44 ,Cn4
 .byte   W48
@  #01 @124   ----------------------------------------
 .byte   Gn4
 .byte   W48
Label_0112F991:
 .byte   N23 ,Gn4 ,v080
 .byte   W24
 .byte   Fn4
 .byte   W24
 .byte   PEND 
@  #01 @125   ----------------------------------------
Label_0112F998:
 .byte   N23 ,En4 ,v080
 .byte   W24
 .byte   N11 ,Dn4
 .byte   W12
 .byte   TIE ,En4
 .byte   W12
 .byte   PEND 
 .byte   W48
@  #01 @126   ----------------------------------------
 .byte   W44
 .byte   W03
 .byte   EOT
 .byte   W01
@  #01 @127   ----------------------------------------
 .byte   PATT
  .word Label_0112F973
@  #01 @128   ----------------------------------------
 .byte   W24
 .byte   N23 ,Bn3 ,v080
 .byte   W24
 .byte   N92 ,Cn4
 .byte   W48
@  #01 @129   ----------------------------------------
 .byte   W48
@  #01 @130   ----------------------------------------
 .byte   PATT
  .word Label_0112F973
@  #01 @131   ----------------------------------------
 .byte   W24
 .byte   N23 ,Bn3 ,v080
 .byte   W24
 .byte   N44 ,Gn3
 .byte   W48
@  #01 @132   ----------------------------------------
 .byte   Gn4
 .byte   W48
@  #01 @133   ----------------------------------------
 .byte   PATT
  .word Label_0112F991
@  #01 @134   ----------------------------------------
Label_0112F9CA:
 .byte   N23 ,En4 ,v080
 .byte   W24
 .byte   Dn4
 .byte   W24
 .byte   PEND 
 .byte   N44 ,Cn4
 .byte   W48
@  #01 @135   ----------------------------------------
 .byte   En4
 .byte   W48
 .byte   Dn4
 .byte   W48
@  #01 @136   ----------------------------------------
 .byte   Cn4
 .byte   W48
Label_0112F9DA:
 .byte   N32 ,Bn3 ,v080
 .byte   W36
 .byte   TIE ,An3
 .byte   W12
 .byte   PEND 
@  #01 @137   ----------------------------------------
 .byte   W48
 .byte   W48
@  #01 @138   ----------------------------------------
 .byte   W44
 .byte   W03
 .byte   EOT
 .byte   W01
 .byte   W48
@  #01 @139   ----------------------------------------
 .byte   W48
 .byte   W48
@  #01 @140   ----------------------------------------
 .byte   W48
 .byte   W48
@  #01 @141   ----------------------------------------
 .byte   N44 ,Gn4 ,v064
 .byte   W48
 .byte   N92 ,Dn4
 .byte   W48
@  #01 @142   ----------------------------------------
 .byte   W48
 .byte   N44 ,An3
 .byte   W48
@  #01 @143   ----------------------------------------
 .byte   En4
 .byte   W48
 .byte   N44
 .byte   N44 ,Gn4
 .byte   W48
@  #01 @144   ----------------------------------------
 .byte   Dn4
 .byte   N44 ,Fn4
 .byte   W48
 .byte   Gn4
 .byte   N44 ,Bn4
 .byte   W48
@  #01 @145   ----------------------------------------
 .byte   En4
 .byte   N44 ,An4
 .byte   W48
 .byte   Cn5
 .byte   W48
@  #01 @146   ----------------------------------------
 .byte   Dn5
 .byte   W48
 .byte   TIE ,En5 ,v052
 .byte   W48
@  #01 @147   ----------------------------------------
 .byte   W48
 .byte   W44
 .byte   W03
 .byte   EOT
 .byte   W01
@  #01 @148   ----------------------------------------
 .byte   N44 ,Dn5
 .byte   W48
Label_0112FA1A:
 .byte   TIE ,Bn4 ,v052
 .byte   TIE ,Dn5
 .byte   W48
 .byte   PEND 
@  #01 @149   ----------------------------------------
 .byte   W48
 .byte   W44
 .byte   W03
 .byte   EOT
 .byte   Bn4 ,v086
 .byte   W01
@  #01 @150   ----------------------------------------
 .byte   N44 ,Gn4
 .byte   W48
 .byte   N92 ,En5
 .byte   W48
@  #01 @151   ----------------------------------------
 .byte   W48
 .byte   Fn5
 .byte   W48
@  #01 @152   ----------------------------------------
 .byte   W48
 .byte   W48
@  #01 @153   ----------------------------------------
 .byte   W48
 .byte   W48
@  #01 @154   ----------------------------------------
 .byte   W48
 .byte   W48
@  #01 @155   ----------------------------------------
 .byte   W48
 .byte   W48
@  #01 @156   ----------------------------------------
 .byte   W48
 .byte   W48
@  #01 @157   ----------------------------------------
 .byte   W48
 .byte   W48
@  #01 @158   ----------------------------------------
 .byte   W48
 .byte   W48
@  #01 @159   ----------------------------------------
 .byte   W48
 .byte   W48
@  #01 @160   ----------------------------------------
 .byte   W48
 .byte   W48
@  #01 @161   ----------------------------------------
 .byte   W48
 .byte   W48
@  #01 @162   ----------------------------------------
 .byte   W48
 .byte   W48
@  #01 @163   ----------------------------------------
 .byte   W48
 .byte   W48
@  #01 @164   ----------------------------------------
 .byte   W48
 .byte   W48
@  #01 @165   ----------------------------------------
 .byte   W48
 .byte   W48
@  #01 @166   ----------------------------------------
 .byte   W48
 .byte   W48
@  #01 @167   ----------------------------------------
 .byte   W48
 .byte   W48
@  #01 @168   ----------------------------------------
 .byte   W48
 .byte   W48
@  #01 @169   ----------------------------------------
 .byte   W48
 .byte   W48
@  #01 @170   ----------------------------------------
 .byte   W48
 .byte   W48
@  #01 @171   ----------------------------------------
 .byte   W48
Label_0112FA58:
 .byte   N32 ,Cs5 ,v096
 .byte   W36
 .byte   Ds5
 .byte   W12
 .byte   PEND 
@  #01 @172   ----------------------------------------
 .byte   W24
 .byte   N23 ,Cn5
 .byte   W24
 .byte   N92 ,Cs5
 .byte   W48
@  #01 @173   ----------------------------------------
 .byte   W48
@  #01 @174   ----------------------------------------
 .byte   PATT
  .word Label_0112FA58
@  #01 @175   ----------------------------------------
 .byte   W24
 .byte   N23 ,Cn5 ,v096
 .byte   W24
 .byte   N92 ,Gs4
 .byte   W48
@  #01 @176   ----------------------------------------
 .byte   W48
@  #01 @177   ----------------------------------------
 .byte   PATT
  .word Label_0112FA58
@  #01 @178   ----------------------------------------
 .byte   W24
 .byte   N23 ,Cn5 ,v096
 .byte   W24
 .byte   N44 ,Cs5
 .byte   W48
@  #01 @179   ----------------------------------------
 .byte   Gs5
 .byte   W48
Label_0112FA84:
 .byte   N23 ,Gs5 ,v096
 .byte   W24
 .byte   Fs5
 .byte   W24
 .byte   PEND 
@  #01 @180   ----------------------------------------
Label_0112FA8B:
 .byte   N23 ,Fn5 ,v096
 .byte   W24
 .byte   N11 ,Ds5
 .byte   W12
 .byte   TIE ,Fn5
 .byte   W12
 .byte   PEND 
 .byte   W48
@  #01 @181   ----------------------------------------
 .byte   W44
 .byte   W03
 .byte   EOT
 .byte   W01
@  #01 @182   ----------------------------------------
 .byte   PATT
  .word Label_0112FA58
@  #01 @183   ----------------------------------------
 .byte   W24
 .byte   N23 ,Cn5 ,v096
 .byte   W24
 .byte   N92 ,Cs5
 .byte   W48
@  #01 @184   ----------------------------------------
 .byte   W48
@  #01 @185   ----------------------------------------
 .byte   PATT
  .word Label_0112FA58
@  #01 @186   ----------------------------------------
 .byte   W24
 .byte   N23 ,Cn5 ,v096
 .byte   W24
 .byte   N44 ,Gs4
 .byte   W48
@  #01 @187   ----------------------------------------
 .byte   Gs5
 .byte   W48
@  #01 @188   ----------------------------------------
 .byte   PATT
  .word Label_0112FA84
@  #01 @189   ----------------------------------------
Label_0112FABD:
 .byte   N23 ,Fn5 ,v096
 .byte   W24
 .byte   Ds5
 .byte   W24
 .byte   PEND 
 .byte   N44 ,Cs5
 .byte   W48
@  #01 @190   ----------------------------------------
 .byte   Fn5
 .byte   W48
 .byte   Ds5
 .byte   W48
@  #01 @191   ----------------------------------------
 .byte   Cs5
 .byte   W48
Label_0112FACD:
 .byte   N32 ,Cn5 ,v096
 .byte   W36
 .byte   TIE ,As4
 .byte   W12
 .byte   PEND 
@  #01 @192   ----------------------------------------
 .byte   W48
 .byte   W48
@  #01 @193   ----------------------------------------
 .byte   W44
 .byte   W03
 .byte   EOT
 .byte   W01
Label_0112FADB:
 .byte   N11 ,Fn4 ,v060
 .byte   W03
 .byte   W01
 .byte   W01
 .byte   W19
 .byte   N11
 .byte   W03
 .byte   W01
 .byte   W01
 .byte   W19
 .byte   PEND 
@  #01 @194   ----------------------------------------
 .byte   PATT
  .word Label_0112FADB
@  #01 @195   ----------------------------------------
 .byte   PATT
  .word Label_0112FADB
@  #01 @196   ----------------------------------------
 .byte   PATT
  .word Label_0112FADB
@  #01 @197   ----------------------------------------
 .byte   PATT
  .word Label_0112FADB
@  #01 @198   ----------------------------------------
 .byte   PATT
  .word Label_0112FADB
@  #01 @199   ----------------------------------------
 .byte   PATT
  .word Label_0112FADB
@  #01 @200   ----------------------------------------
 .byte   PATT
  .word Label_0112FADB
@  #01 @201   ----------------------------------------
 .byte   PATT
  .word Label_0112FADB
@  #01 @202   ----------------------------------------
 .byte   PATT
  .word Label_0112FADB
@  #01 @203   ----------------------------------------
 .byte   PATT
  .word Label_0112FADB
@  #01 @204   ----------------------------------------
 .byte   PATT
  .word Label_0112FADB
@  #01 @205   ----------------------------------------
 .byte   PATT
  .word Label_0112FADB
@  #01 @206   ----------------------------------------
 .byte   PATT
  .word Label_0112FADB
@  #01 @207   ----------------------------------------
 .byte   PATT
  .word Label_0112FADB
@  #01 @208   ----------------------------------------
 .byte   PATT
  .word Label_0112FADB
@  #01 @209   ----------------------------------------
Label_0112FB33:
 .byte   N11 ,Gn4 ,v060
 .byte   W03
 .byte   W01
 .byte   W01
 .byte   W19
 .byte   N11
 .byte   W03
 .byte   W01
 .byte   W01
 .byte   W19
 .byte   PEND 
@  #01 @210   ----------------------------------------
 .byte   PATT
  .word Label_0112FB33
@  #01 @211   ----------------------------------------
 .byte   PATT
  .word Label_0112FB33
@  #01 @212   ----------------------------------------
 .byte   PATT
  .word Label_0112FB33
@  #01 @213   ----------------------------------------
 .byte   TEMPO , 88*song06_tbs/2
 .byte   W24
 .byte   N23 ,Dn3 ,v080
 .byte   W24
 .byte   En3
 .byte   W24
 .byte   Bn2
 .byte   W24
@  #01 @214   ----------------------------------------
 .byte   N92 ,Dn3
 .byte   W48
 .byte   W48
@  #01 @215   ----------------------------------------
 .byte   W24
 .byte   N23
 .byte   W24
@  #01 @216   ----------------------------------------
 .byte   PATT
  .word Label_0112F792
@  #01 @217   ----------------------------------------
 .byte   N92 ,Dn3 ,v080
 .byte   W48
 .byte   W48
@  #01 @218   ----------------------------------------
 .byte   W24
 .byte   N23 ,Cn3
 .byte   W24
@  #01 @219   ----------------------------------------
 .byte   PATT
  .word Label_0112F7A0
@  #01 @220   ----------------------------------------
 .byte   N44 ,Cn3 ,v080
 .byte   W48
 .byte   Gn3
 .byte   W48
@  #01 @221   ----------------------------------------
 .byte   N44
 .byte   W48
 .byte   Fn3
 .byte   W48
@  #01 @222   ----------------------------------------
 .byte   En3
 .byte   W48
 .byte   Dn3
 .byte   W48
@  #01 @223   ----------------------------------------
 .byte   GOTO
  .word Label_0112F7B4
@  #01 @224   ----------------------------------------
 .byte   TEMPO , 180*song06_tbs/2
 .byte   W48
 .byte   W48
@  #01 @225   ----------------------------------------
 .byte   W48
 .byte   W48
@  #01 @226   ----------------------------------------
 .byte   W48
 .byte   W48
@  #01 @227   ----------------------------------------
 .byte   W48
 .byte   W48
@  #01 @228   ----------------------------------------
 .byte   W48
 .byte   W48
@  #01 @229   ----------------------------------------
 .byte   W48
 .byte   W48
@  #01 @230   ----------------------------------------
 .byte   W48
 .byte   W48
@  #01 @231   ----------------------------------------
 .byte   W48
 .byte   W48
@  #01 @232   ----------------------------------------
 .byte   W48
 .byte   W48
@  #01 @233   ----------------------------------------
 .byte   W48
 .byte   W48
@  #01 @234   ----------------------------------------
 .byte   W48
 .byte   W48
@  #01 @235   ----------------------------------------
 .byte   W48
 .byte   W48
@  #01 @236   ----------------------------------------
 .byte   W48
 .byte   W48
@  #01 @237   ----------------------------------------
 .byte   W48
 .byte   W48
@  #01 @238   ----------------------------------------
 .byte   W48
 .byte   W48
@  #01 @239   ----------------------------------------
 .byte   W48
 .byte   W48
@  #01 @240   ----------------------------------------
 .byte   W48
 .byte   W48
@  #01 @241   ----------------------------------------
 .byte   W48
 .byte   W48
@  #01 @242   ----------------------------------------
 .byte   W48
 .byte   W48
@  #01 @243   ----------------------------------------
 .byte   W48
 .byte   W48
@  #01 @244   ----------------------------------------
 .byte   W48
 .byte   W48
@  #01 @245   ----------------------------------------
 .byte   W48
 .byte   W48
@  #01 @246   ----------------------------------------
 .byte   W48
 .byte   W48
@  #01 @247   ----------------------------------------
 .byte   W48
 .byte   W48
@  #01 @248   ----------------------------------------
 .byte   W48
 .byte   W48
@  #01 @249   ----------------------------------------
 .byte   W48
 .byte   W48
@  #01 @250   ----------------------------------------
 .byte   W48
 .byte   W48
@  #01 @251   ----------------------------------------
 .byte   W48
 .byte   W48
@  #01 @252   ----------------------------------------
 .byte   W48
 .byte   W48
@  #01 @253   ----------------------------------------
 .byte   W48
 .byte   W48
@  #01 @254   ----------------------------------------
 .byte   W48
 .byte   W48
@  #01 @255   ----------------------------------------
 .byte   W48
 .byte   W48
@  #01 @256   ----------------------------------------
 .byte   W48
 .byte   W48
@  #01 @257   ----------------------------------------
 .byte   W48
 .byte   W48
@  #01 @258   ----------------------------------------
 .byte   W48
 .byte   W48
@  #01 @259   ----------------------------------------
 .byte   W48
 .byte   W48
@  #01 @260   ----------------------------------------
 .byte   W48
 .byte   W48
@  #01 @261   ----------------------------------------
 .byte   W48
 .byte   W48
@  #01 @262   ----------------------------------------
 .byte   W48
 .byte   W48
@  #01 @263   ----------------------------------------
 .byte   W48
 .byte   W48
@  #01 @264   ----------------------------------------
 .byte   W48
 .byte   W48
@  #01 @265   ----------------------------------------
 .byte   W48
 .byte   W48
@  #01 @266   ----------------------------------------
 .byte   W48
 .byte   W48
@  #01 @267   ----------------------------------------
 .byte   W48
 .byte   W48
@  #01 @268   ----------------------------------------
 .byte   W48
 .byte   W48
@  #01 @269   ----------------------------------------
 .byte   W48
 .byte   W48
@  #01 @270   ----------------------------------------
 .byte   W48
 .byte   W48
@  #01 @271   ----------------------------------------
 .byte   W48
 .byte   W48
@  #01 @272   ----------------------------------------
 .byte   W48
 .byte   W48
@  #01 @273   ----------------------------------------
 .byte   W48
 .byte   W48
@  #01 @274   ----------------------------------------
 .byte   W48
 .byte   W48
@  #01 @275   ----------------------------------------
 .byte   W48
 .byte   W48
@  #01 @276   ----------------------------------------
 .byte   W48
 .byte   W48
@  #01 @277   ----------------------------------------
 .byte   W48
 .byte   W48
@  #01 @278   ----------------------------------------
 .byte   W48
 .byte   W48
@  #01 @279   ----------------------------------------
 .byte   W48
 .byte   W48
@  #01 @280   ----------------------------------------
 .byte   W48
 .byte   W48
@  #01 @281   ----------------------------------------
 .byte   W48
 .byte   W48
@  #01 @282   ----------------------------------------
 .byte   W48
 .byte   W48
@  #01 @283   ----------------------------------------
 .byte   W48
 .byte   W48
@  #01 @284   ----------------------------------------
 .byte   W48
 .byte   W48
@  #01 @285   ----------------------------------------
 .byte   W48
 .byte   W48
@  #01 @286   ----------------------------------------
 .byte   W48
 .byte   W48
@  #01 @287   ----------------------------------------
 .byte   W48
 .byte   W48
@  #01 @288   ----------------------------------------
 .byte   W48
 .byte   W48
@  #01 @289   ----------------------------------------
 .byte   W48
 .byte   W48
@  #01 @290   ----------------------------------------
 .byte   W48
 .byte   W48
@  #01 @291   ----------------------------------------
 .byte   W48
 .byte   W48
@  #01 @292   ----------------------------------------
 .byte   W48
 .byte   W48
@  #01 @293   ----------------------------------------
 .byte   W48
 .byte   W48
@  #01 @294   ----------------------------------------
 .byte   W48
 .byte   W48
@  #01 @295   ----------------------------------------
 .byte   W48
 .byte   W48
@  #01 @296   ----------------------------------------
 .byte   W48
 .byte   W48
@  #01 @297   ----------------------------------------
 .byte   W48
 .byte   W48
@  #01 @298   ----------------------------------------
 .byte   W48
 .byte   W48
@  #01 @299   ----------------------------------------
 .byte   W48
 .byte   W48
@  #01 @300   ----------------------------------------
 .byte   W48
 .byte   W48
@  #01 @301   ----------------------------------------
 .byte   W48
 .byte   W48
@  #01 @302   ----------------------------------------
 .byte   W48
 .byte   W48
@  #01 @303   ----------------------------------------
 .byte   W48
 .byte   W48
@  #01 @304   ----------------------------------------
 .byte   W48
 .byte   W48
@  #01 @305   ----------------------------------------
 .byte   W48
 .byte   W48
@  #01 @306   ----------------------------------------
 .byte   W48
 .byte   W48
@  #01 @307   ----------------------------------------
 .byte   W48
 .byte   W48
@  #01 @308   ----------------------------------------
 .byte   W48
 .byte   W48
@  #01 @309   ----------------------------------------
 .byte   W48
 .byte   W48
@  #01 @310   ----------------------------------------
 .byte   W48
 .byte   W48
@  #01 @311   ----------------------------------------
 .byte   W48
 .byte   W48
@  #01 @312   ----------------------------------------
 .byte   PATT
  .word Label_0112F866
@  #01 @313   ----------------------------------------
 .byte   W24
 .byte   N68 ,Gn4 ,v080
 .byte   W24
 .byte   W48
@  #01 @314   ----------------------------------------
 .byte   N44 ,En4
 .byte   W48
@  #01 @315   ----------------------------------------
 .byte   PATT
  .word Label_0112F875
@  #01 @316   ----------------------------------------
 .byte   PATT
  .word Label_0112F880
@  #01 @317   ----------------------------------------
 .byte   PATT
  .word Label_0112F875
@  #01 @318   ----------------------------------------
 .byte   PATT
  .word Label_0112F880
@  #01 @319   ----------------------------------------
 .byte   PATT
  .word Label_0112F895
@  #01 @320   ----------------------------------------
 .byte   PATT
  .word Label_0112F89D
@  #01 @321   ----------------------------------------
 .byte   W48
 .byte   N44 ,Cn4 ,v080
 .byte   W48
@  #01 @322   ----------------------------------------
 .byte   PATT
  .word Label_0112F8AA
@  #01 @323   ----------------------------------------
 .byte   PATT
  .word Label_0112F8AA
@  #01 @324   ----------------------------------------
 .byte   PATT
  .word Label_0112F8AA
@  #01 @325   ----------------------------------------
 .byte   PATT
  .word Label_0112F8AA
@  #01 @326   ----------------------------------------
 .byte   PATT
  .word Label_0112F8C4
@  #01 @327   ----------------------------------------
 .byte   PATT
  .word Label_0112F8CF
@  #01 @328   ----------------------------------------
 .byte   PATT
  .word Label_0112F8C4
@  #01 @329   ----------------------------------------
 .byte   PATT
  .word Label_0112F8DF
@  #01 @330   ----------------------------------------
 .byte   PATT
  .word Label_0112F8C4
@  #01 @331   ----------------------------------------
 .byte   PATT
  .word Label_0112F8DF
@  #01 @332   ----------------------------------------
 .byte   PATT
  .word Label_0112F8F2
@  #01 @333   ----------------------------------------
 .byte   PATT
  .word Label_0112F8FD
@  #01 @334   ----------------------------------------
 .byte   PATT
  .word Label_0112F906
@  #01 @335   ----------------------------------------
 .byte   PATT
  .word Label_0112F910
@  #01 @336   ----------------------------------------
 .byte   PATT
  .word Label_0112F919
@  #01 @337   ----------------------------------------
 .byte   PATT
  .word Label_0112F919
@  #01 @338   ----------------------------------------
 .byte   PATT
  .word Label_0112F929
@  #01 @339   ----------------------------------------
 .byte   PATT
  .word Label_0112F929
@  #01 @340   ----------------------------------------
 .byte   W48
@  #01 @341   ----------------------------------------
 .byte   PATT
  .word Label_0112F93A
@  #01 @342   ----------------------------------------
 .byte   N92 ,Cn4 ,v080
 .byte   W48
 .byte   W48
@  #01 @343   ----------------------------------------
 .byte   PATT
  .word Label_0112F973
@  #01 @344   ----------------------------------------
 .byte   W24
 .byte   N23 ,Bn3 ,v080
 .byte   W24
 .byte   N92 ,Gn3
 .byte   W48
@  #01 @345   ----------------------------------------
 .byte   W48
@  #01 @346   ----------------------------------------
 .byte   PATT
  .word Label_0112F973
@  #01 @347   ----------------------------------------
 .byte   W24
 .byte   N23 ,Bn3 ,v080
 .byte   W24
 .byte   N44 ,Cn4
 .byte   W48
@  #01 @348   ----------------------------------------
 .byte   Gn4
 .byte   W48
@  #01 @349   ----------------------------------------
 .byte   PATT
  .word Label_0112F991
@  #01 @350   ----------------------------------------
 .byte   PATT
  .word Label_0112F998
@  #01 @351   ----------------------------------------
 .byte   W48
 .byte   W44
 .byte   W03
 .byte   EOT
 .byte   En4
 .byte   W01
@  #01 @352   ----------------------------------------
 .byte   PATT
  .word Label_0112F973
@  #01 @353   ----------------------------------------
 .byte   W24
 .byte   N23 ,Bn3 ,v080
 .byte   W24
 .byte   N92 ,Cn4
 .byte   W48
@  #01 @354   ----------------------------------------
 .byte   W48
@  #01 @355   ----------------------------------------
 .byte   PATT
  .word Label_0112F973
@  #01 @356   ----------------------------------------
 .byte   W24
 .byte   N23 ,Bn3 ,v080
 .byte   W24
 .byte   N44 ,Gn3
 .byte   W48
@  #01 @357   ----------------------------------------
 .byte   Gn4
 .byte   W48
@  #01 @358   ----------------------------------------
 .byte   PATT
  .word Label_0112F991
@  #01 @359   ----------------------------------------
 .byte   PATT
  .word Label_0112F9CA
@  #01 @360   ----------------------------------------
 .byte   N44 ,Cn4 ,v080
 .byte   W48
 .byte   En4
 .byte   W48
@  #01 @361   ----------------------------------------
 .byte   Dn4
 .byte   W48
 .byte   Cn4
 .byte   W48
@  #01 @362   ----------------------------------------
 .byte   PATT
  .word Label_0112F9DA
@  #01 @363   ----------------------------------------
 .byte   W48
 .byte   W48
@  #01 @364   ----------------------------------------
 .byte   W44
 .byte   W03
 .byte   EOT
 .byte   An3
 .byte   W01
 .byte   W48
@  #01 @365   ----------------------------------------
 .byte   W48
 .byte   W48
@  #01 @366   ----------------------------------------
 .byte   W48
 .byte   W48
@  #01 @367   ----------------------------------------
 .byte   N44 ,Gn4 ,v064
 .byte   W48
 .byte   N92 ,Dn4
 .byte   W48
@  #01 @368   ----------------------------------------
 .byte   W48
 .byte   N44 ,An3
 .byte   W48
@  #01 @369   ----------------------------------------
 .byte   En4
 .byte   W48
 .byte   N44
 .byte   N44 ,Gn4
 .byte   W48
@  #01 @370   ----------------------------------------
 .byte   Dn4
 .byte   N44 ,Fn4
 .byte   W48
 .byte   Gn4
 .byte   N44 ,Bn4
 .byte   W48
@  #01 @371   ----------------------------------------
 .byte   En4
 .byte   N44 ,An4
 .byte   W48
 .byte   Cn5
 .byte   W48
@  #01 @372   ----------------------------------------
 .byte   Dn5
 .byte   W48
 .byte   TIE ,En5 ,v052
 .byte   W48
@  #01 @373   ----------------------------------------
 .byte   W48
 .byte   W44
 .byte   W03
 .byte   EOT
 .byte   W01
@  #01 @374   ----------------------------------------
 .byte   N44 ,Dn5
 .byte   W48
@  #01 @375   ----------------------------------------
 .byte   PATT
  .word Label_0112FA1A
@  #01 @376   ----------------------------------------
 .byte   W48
 .byte   W44
 .byte   W03
 .byte   EOT
 .byte   Bn4 ,v086
 .byte   W01
@  #01 @377   ----------------------------------------
 .byte   N44 ,Gn4 ,v052
 .byte   W48
 .byte   N92 ,En5
 .byte   W48
@  #01 @378   ----------------------------------------
 .byte   W48
 .byte   Fn5
 .byte   W48
@  #01 @379   ----------------------------------------
 .byte   W48
 .byte   W48
@  #01 @380   ----------------------------------------
 .byte   W48
 .byte   W48
@  #01 @381   ----------------------------------------
 .byte   W48
 .byte   W48
@  #01 @382   ----------------------------------------
 .byte   W48
 .byte   W48
@  #01 @383   ----------------------------------------
 .byte   W48
 .byte   W48
@  #01 @384   ----------------------------------------
 .byte   W48
 .byte   W48
@  #01 @385   ----------------------------------------
 .byte   W48
 .byte   W48
@  #01 @386   ----------------------------------------
 .byte   W48
 .byte   W48
@  #01 @387   ----------------------------------------
 .byte   W48
 .byte   W48
@  #01 @388   ----------------------------------------
 .byte   W48
 .byte   W48
@  #01 @389   ----------------------------------------
 .byte   W48
 .byte   W48
@  #01 @390   ----------------------------------------
 .byte   W48
 .byte   W48
@  #01 @391   ----------------------------------------
 .byte   W48
 .byte   W48
@  #01 @392   ----------------------------------------
 .byte   W48
 .byte   W48
@  #01 @393   ----------------------------------------
 .byte   W48
 .byte   W48
@  #01 @394   ----------------------------------------
 .byte   W48
 .byte   W48
@  #01 @395   ----------------------------------------
 .byte   W48
 .byte   W48
@  #01 @396   ----------------------------------------
 .byte   W48
 .byte   W48
@  #01 @397   ----------------------------------------
 .byte   W48
 .byte   W48
@  #01 @398   ----------------------------------------
 .byte   W48
@  #01 @399   ----------------------------------------
 .byte   PATT
  .word Label_0112FA58
@  #01 @400   ----------------------------------------
 .byte   W24
 .byte   N23 ,Cn5 ,v096
 .byte   W24
 .byte   N92 ,Cs5
 .byte   W48
@  #01 @401   ----------------------------------------
 .byte   W48
@  #01 @402   ----------------------------------------
 .byte   PATT
  .word Label_0112FA58
@  #01 @403   ----------------------------------------
 .byte   W24
 .byte   N23 ,Cn5 ,v096
 .byte   W24
 .byte   N92 ,Gs4
 .byte   W48
@  #01 @404   ----------------------------------------
 .byte   W48
@  #01 @405   ----------------------------------------
 .byte   PATT
  .word Label_0112FA58
@  #01 @406   ----------------------------------------
 .byte   W24
 .byte   N23 ,Cn5 ,v096
 .byte   W24
 .byte   N44 ,Cs5
 .byte   W48
@  #01 @407   ----------------------------------------
 .byte   Gs5
 .byte   W48
@  #01 @408   ----------------------------------------
 .byte   PATT
  .word Label_0112FA84
@  #01 @409   ----------------------------------------
 .byte   PATT
  .word Label_0112FA8B
@  #01 @410   ----------------------------------------
 .byte   W48
 .byte   W44
 .byte   W03
 .byte   EOT
 .byte   Fn5
 .byte   W01
@  #01 @411   ----------------------------------------
 .byte   PATT
  .word Label_0112FA58
@  #01 @412   ----------------------------------------
 .byte   W24
 .byte   N23 ,Cn5 ,v096
 .byte   W24
 .byte   N92 ,Cs5
 .byte   W48
@  #01 @413   ----------------------------------------
 .byte   W48
@  #01 @414   ----------------------------------------
 .byte   PATT
  .word Label_0112FA58
@  #01 @415   ----------------------------------------
 .byte   W24
 .byte   N23 ,Cn5 ,v096
 .byte   W24
 .byte   N44 ,Gs4
 .byte   W48
@  #01 @416   ----------------------------------------
 .byte   Gs5
 .byte   W48
@  #01 @417   ----------------------------------------
 .byte   PATT
  .word Label_0112FA84
@  #01 @418   ----------------------------------------
 .byte   PATT
  .word Label_0112FABD
@  #01 @419   ----------------------------------------
 .byte   N44 ,Cs5 ,v096
 .byte   W48
 .byte   Fn5
 .byte   W48
@  #01 @420   ----------------------------------------
 .byte   Ds5
 .byte   W48
 .byte   Cs5
 .byte   W48
@  #01 @421   ----------------------------------------
 .byte   PATT
  .word Label_0112FACD
@  #01 @422   ----------------------------------------
 .byte   W48
 .byte   W48
@  #01 @423   ----------------------------------------
 .byte   W44
 .byte   W03
 .byte   EOT
 .byte   As4
 .byte   W01
@  #01 @424   ----------------------------------------
 .byte   PATT
  .word Label_0112FADB
@  #01 @425   ----------------------------------------
 .byte   PATT
  .word Label_0112FADB
@  #01 @426   ----------------------------------------
 .byte   PATT
  .word Label_0112FADB
@  #01 @427   ----------------------------------------
 .byte   PATT
  .word Label_0112FADB
@  #01 @428   ----------------------------------------
 .byte   PATT
  .word Label_0112FADB
@  #01 @429   ----------------------------------------
 .byte   PATT
  .word Label_0112FADB
@  #01 @430   ----------------------------------------
 .byte   PATT
  .word Label_0112FADB
@  #01 @431   ----------------------------------------
 .byte   PATT
  .word Label_0112FADB
@  #01 @432   ----------------------------------------
 .byte   PATT
  .word Label_0112FADB
@  #01 @433   ----------------------------------------
 .byte   PATT
  .word Label_0112FADB
@  #01 @434   ----------------------------------------
 .byte   PATT
  .word Label_0112FADB
@  #01 @435   ----------------------------------------
 .byte   PATT
  .word Label_0112FADB
@  #01 @436   ----------------------------------------
 .byte   PATT
  .word Label_0112FADB
@  #01 @437   ----------------------------------------
 .byte   PATT
  .word Label_0112FADB
@  #01 @438   ----------------------------------------
 .byte   PATT
  .word Label_0112FADB
@  #01 @439   ----------------------------------------
 .byte   PATT
  .word Label_0112FADB
@  #01 @440   ----------------------------------------
 .byte   PATT
  .word Label_0112FB33
@  #01 @441   ----------------------------------------
 .byte   PATT
  .word Label_0112FB33
@  #01 @442   ----------------------------------------
 .byte   PATT
  .word Label_0112FB33
@  #01 @443   ----------------------------------------
 .byte   N11 ,Gn4 ,v060
 .byte   W03
 .byte   W01
 .byte   W01
 .byte   W19
 .byte   N11
 .byte   W03
 .byte   W01
 .byte   W01
 .byte   W18
 .byte   FINE

@**************** Track 2 (Midi-Chn.1) ****************@

.align 2, 0
song06_002:
@  #02 @000   ----------------------------------------
 .byte   KEYSH , song06_key+0
 .byte   VOICE , 48
 .byte   VOL , 67*song06_mvl/mxv
 .byte   PAN , c_v+0
 .byte   VOL , 67*song06_mvl/mxv
 .byte   PAN , c_v+0
 .byte   VOL , 67*song06_mvl/mxv
 .byte   PAN , c_v+0
 .byte   VOL , 67*song06_mvl/mxv
 .byte   PAN , c_v+0
 .byte   VOL , 67*song06_mvl/mxv
 .byte   PAN , c_v+0
 .byte   VOL , 67*song06_mvl/mxv
 .byte   PAN , c_v+0
 .byte   W48
 .byte   W48
@  #02 @001   ----------------------------------------
 .byte   N44 ,Gn3 ,v080
 .byte   W48
Label_0112FEAE:
 .byte   N23 ,Cn4 ,v080
 .byte   W24
 .byte   En4
 .byte   W24
 .byte   PEND 
@  #02 @002   ----------------------------------------
 .byte   N44
 .byte   W48
 .byte   TIE ,An3
 .byte   W48
@  #02 @003   ----------------------------------------
 .byte   W48
 .byte   W11
 .byte   EOT
 .byte   W01
 .byte   N11 ,Bn3
 .byte   W12
 .byte   Cn4
 .byte   W12
 .byte   Dn4
 .byte   W12
@  #02 @004   ----------------------------------------
 .byte   N44 ,Cn4
 .byte   W48
 .byte   Bn3
 .byte   W48
@  #02 @005   ----------------------------------------
 .byte   N68 ,Cn4
 .byte   W48
 .byte   W24
 .byte   N23 ,En4
 .byte   W24
@  #02 @006   ----------------------------------------
 .byte   N44 ,Gn4
 .byte   W48
 .byte   Fn4
 .byte   W48
@  #02 @007   ----------------------------------------
 .byte   En4
 .byte   W48
 .byte   Dn4
 .byte   W48
@  #02 @008   ----------------------------------------
Label_0112FEDA:
 .byte   W48
 .byte   W48
@  #02 @009   ----------------------------------------
 .byte   W48
 .byte   W48
@  #02 @010   ----------------------------------------
 .byte   W48
 .byte   W48
@  #02 @011   ----------------------------------------
 .byte   W48
 .byte   W48
@  #02 @012   ----------------------------------------
 .byte   W48
 .byte   W48
@  #02 @013   ----------------------------------------
 .byte   W48
 .byte   W48
@  #02 @014   ----------------------------------------
 .byte   W48
 .byte   W48
@  #02 @015   ----------------------------------------
 .byte   W48
 .byte   W48
@  #02 @016   ----------------------------------------
Label_0112FEEA:
 .byte   N92 ,An1 ,v036
 .byte   W06
 .byte   W03
 .byte   W03
 .byte   W03
 .byte   W03
 .byte   W03
 .byte   W03
 .byte   W03
 .byte   W03
 .byte   W03
 .byte   W03
 .byte   W03
 .byte   W03
 .byte   W03
 .byte   W03
 .byte   PEND 
Label_0112FEFD:
 .byte   W03
 .byte   W03
 .byte   W03
 .byte   W04
 .byte   W03
 .byte   W03
 .byte   W03
 .byte   W03
 .byte   W03
 .byte   W03
 .byte   W03
 .byte   W03
 .byte   W03
 .byte   W03
 .byte   W03
 .byte   W02
 .byte   PEND 
@  #02 @017   ----------------------------------------
 .byte   N92 ,Gn1 ,v064
 .byte   W48
 .byte   W48
@  #02 @018   ----------------------------------------
Label_0112FF13:
 .byte   TIE ,Fn1 ,v064
 .byte   W06
 .byte   W06
 .byte   W07
 .byte   W06
 .byte   W07
 .byte   W06
 .byte   W06
 .byte   W04
 .byte   PEND 
Label_0112FF1F:
 .byte   W03
 .byte   W06
 .byte   W07
 .byte   W06
 .byte   W06
 .byte   W07
 .byte   W06
 .byte   W07
 .byte   PEND 
@  #02 @019   ----------------------------------------
 .byte   W44
 .byte   W03
 .byte   EOT
 .byte   Fn1
 .byte   W01
Label_0112FF2D:
 .byte   N11 ,Cn2 ,v064
 .byte   W12
 .byte   Fn1
 .byte   W12
 .byte   Cn2
 .byte   W12
 .byte   Fn1
 .byte   W12
 .byte   PEND 
@  #02 @020   ----------------------------------------
Label_0112FF38:
 .byte   N92 ,Dn1 ,v052
 .byte   W06
 .byte   W06
 .byte   W07
 .byte   W06
 .byte   W07
 .byte   W06
 .byte   W06
 .byte   W04
 .byte   PEND 
Label_0112FF44:
 .byte   W03
 .byte   W06
 .byte   W07
 .byte   W06
 .byte   W06
 .byte   W07
 .byte   W06
 .byte   W07
 .byte   PEND 
@  #02 @021   ----------------------------------------
 .byte   N92 ,En1 ,v064
 .byte   W48
 .byte   W48
@  #02 @022   ----------------------------------------
Label_0112FF52:
 .byte   TIE ,An1 ,v064
 .byte   W09
 .byte   W04
 .byte   W05
 .byte   W05
 .byte   W04
 .byte   W05
 .byte   W04
 .byte   W05
 .byte   W05
 .byte   W02
 .byte   PEND 
Label_0112FF60:
 .byte   W02
 .byte   W05
 .byte   W04
 .byte   W05
 .byte   W05
 .byte   W04
 .byte   W05
 .byte   W04
 .byte   W05
 .byte   W05
 .byte   W04
 .byte   PEND 
@  #02 @023   ----------------------------------------
Label_0112FF6C:
 .byte   W05
 .byte   W04
 .byte   W05
 .byte   W05
 .byte   W04
 .byte   W05
 .byte   W04
 .byte   W05
 .byte   W05
 .byte   W04
 .byte   W01
 .byte   PEND 
 .byte   EOT
 .byte   An1
 .byte   W01
 .byte   W48
@  #02 @024   ----------------------------------------
Label_0112FF7C:
 .byte   N11 ,An0 ,v052
 .byte   N11 ,An1
 .byte   W19
 .byte   W17
 .byte   An0
 .byte   N11 ,An1
 .byte   W02
 .byte   W10
 .byte   PEND 
Label_0112FF89:
 .byte   W09
 .byte   W19
 .byte   W20
 .byte   PEND 
@  #02 @025   ----------------------------------------
Label_0112FF8D:
 .byte   N11 ,Gn0 ,v056
 .byte   N11 ,Gn1
 .byte   W19
 .byte   W17
 .byte   Gn0
 .byte   N11 ,Gn1
 .byte   W02
 .byte   W10
 .byte   PEND 
Label_0112FF9A:
 .byte   W09
 .byte   W03
 .byte   N11 ,Gn0 ,v060
 .byte   N11 ,Gn1
 .byte   W16
 .byte   W20
 .byte   PEND 
@  #02 @026   ----------------------------------------
Label_0112FFA4:
 .byte   N11 ,Fn0 ,v060
 .byte   N11 ,Fn1
 .byte   W19
 .byte   W17
 .byte   Fn0
 .byte   N11 ,Fn1
 .byte   W02
 .byte   W10
 .byte   PEND 
Label_0112FFB1:
 .byte   W09
 .byte   W19
 .byte   W20
 .byte   PEND 
@  #02 @027   ----------------------------------------
Label_0112FFB5:
 .byte   N11 ,Fn0 ,v064
 .byte   N11 ,Fn1
 .byte   W36
 .byte   Fn0
 .byte   N11 ,Fn1
 .byte   W12
 .byte   PEND 
Label_0112FFC0:
 .byte   W12
 .byte   N11 ,Fn0 ,v064
 .byte   N11 ,Fn1
 .byte   W36
 .byte   PEND 
@  #02 @028   ----------------------------------------
Label_0112FFC8:
 .byte   N11 ,Dn0 ,v064
 .byte   N11 ,Dn1
 .byte   W18
 .byte   W18
 .byte   Dn0 ,v068
 .byte   N11 ,Dn1
 .byte   W12
 .byte   PEND 
Label_0112FFD5:
 .byte   W06
 .byte   W18
 .byte   W18
 .byte   W06
 .byte   PEND 
@  #02 @029   ----------------------------------------
Label_0112FFDA:
 .byte   N11 ,En0 ,v072
 .byte   N11 ,En1
 .byte   W12
 .byte   W18
 .byte   W06
 .byte   En0
 .byte   N11 ,En1
 .byte   W12
 .byte   PEND 
Label_0112FFE7:
 .byte   W12
 .byte   N11 ,En0 ,v072
 .byte   N11 ,En1
 .byte   W06
 .byte   W18
 .byte   W12
 .byte   PEND 
@  #02 @030   ----------------------------------------
Label_0112FFF1:
 .byte   N11 ,An0 ,v076
 .byte   N11 ,An1
 .byte   W06
 .byte   W18
 .byte   W12
 .byte   An0
 .byte   N11 ,An1
 .byte   W06
 .byte   W06
 .byte   PEND 
Label_0112FFFF:
 .byte   W12
 .byte   W18
 .byte   W18
 .byte   PEND 
@  #02 @031   ----------------------------------------
Label_01130003:
 .byte   N11 ,An0 ,v080
 .byte   N11 ,An1
 .byte   W36
 .byte   An0
 .byte   N11 ,An1
 .byte   W12
 .byte   PEND 
Label_0113000E:
 .byte   W12
 .byte   N11 ,An0 ,v080
 .byte   N11 ,An1
 .byte   W36
 .byte   PEND 
@  #02 @032   ----------------------------------------
Label_01130016:
 .byte   N11 ,An1 ,v096
 .byte   W36
 .byte   N11
 .byte   W12
 .byte   PEND 
 .byte   W48
@  #02 @033   ----------------------------------------
Label_0113001E:
 .byte   N11 ,Gn1 ,v096
 .byte   W36
 .byte   N11
 .byte   W12
 .byte   PEND 
 .byte   W12
 .byte   N11
 .byte   W36
@  #02 @034   ----------------------------------------
Label_01130028:
 .byte   N11 ,Fn1 ,v096
 .byte   W36
 .byte   N11
 .byte   W12
 .byte   PEND 
 .byte   W48
@  #02 @035   ----------------------------------------
 .byte   PATT
  .word Label_01130028
@  #02 @036   ----------------------------------------
 .byte   W12
 .byte   N11 ,Fn1 ,v096
 .byte   W36
Label_0113003A:
 .byte   N11 ,Dn1 ,v096
 .byte   W36
 .byte   N11
 .byte   W12
 .byte   PEND 
@  #02 @037   ----------------------------------------
 .byte   W48
Label_01130042:
 .byte   N11 ,En1 ,v096
 .byte   W36
 .byte   N11
 .byte   W12
 .byte   PEND 
@  #02 @038   ----------------------------------------
 .byte   W12
 .byte   N11
 .byte   W36
@  #02 @039   ----------------------------------------
 .byte   PATT
  .word Label_01130016
@  #02 @040   ----------------------------------------
 .byte   W48
@  #02 @041   ----------------------------------------
 .byte   PATT
  .word Label_01130016
@  #02 @042   ----------------------------------------
 .byte   W12
 .byte   N11 ,An1 ,v096
 .byte   W36
@  #02 @043   ----------------------------------------
 .byte   PATT
  .word Label_01130016
@  #02 @044   ----------------------------------------
 .byte   W48
@  #02 @045   ----------------------------------------
 .byte   PATT
  .word Label_0113001E
@  #02 @046   ----------------------------------------
 .byte   W12
 .byte   N11 ,Gn1 ,v096
 .byte   W36
@  #02 @047   ----------------------------------------
 .byte   PATT
  .word Label_01130028
@  #02 @048   ----------------------------------------
 .byte   W48
@  #02 @049   ----------------------------------------
 .byte   PATT
  .word Label_01130028
@  #02 @050   ----------------------------------------
 .byte   W12
 .byte   N11 ,Fn1 ,v096
 .byte   W36
@  #02 @051   ----------------------------------------
 .byte   PATT
  .word Label_0113003A
@  #02 @052   ----------------------------------------
 .byte   W48
@  #02 @053   ----------------------------------------
 .byte   PATT
  .word Label_0113003A
@  #02 @054   ----------------------------------------
 .byte   W12
 .byte   N11 ,Dn1 ,v096
 .byte   W36
 .byte   N92 ,En1 ,v064
 .byte   W48
@  #02 @055   ----------------------------------------
 .byte   W48
 .byte   W24
 .byte   N23 ,Gn4 ,v096
 .byte   W24
@  #02 @056   ----------------------------------------
Label_01130096:
 .byte   N23 ,Cn4 ,v096
 .byte   W24
 .byte   En4
 .byte   W24
 .byte   PEND 
 .byte   N92 ,Dn4
 .byte   W48
@  #02 @057   ----------------------------------------
 .byte   W48
 .byte   W24
 .byte   N23 ,Gn4
 .byte   W24
@  #02 @058   ----------------------------------------
 .byte   PATT
  .word Label_01130096
@  #02 @059   ----------------------------------------
Label_011300AA:
 .byte   N32 ,Dn4 ,v096
 .byte   W36
 .byte   N56 ,En4
 .byte   W12
 .byte   PEND 
 .byte   W48
@  #02 @060   ----------------------------------------
 .byte   W24
 .byte   N23 ,Cn4
 .byte   W24
Label_011300B7:
 .byte   N23 ,Dn4 ,v096
 .byte   W24
 .byte   Bn3
 .byte   W24
 .byte   PEND 
@  #02 @061   ----------------------------------------
 .byte   N44 ,Cn4
 .byte   W48
 .byte   Gn4
 .byte   W48
@  #02 @062   ----------------------------------------
Label_011300C3:
 .byte   N23 ,Gn4 ,v096
 .byte   W24
 .byte   Fn4
 .byte   W24
 .byte   PEND 
Label_011300CA:
 .byte   N23 ,En4 ,v096
 .byte   W24
 .byte   N11 ,Dn4
 .byte   W12
 .byte   TIE ,En4
 .byte   W12
 .byte   PEND 
@  #02 @063   ----------------------------------------
 .byte   W48
 .byte   W44
 .byte   W03
 .byte   EOT
 .byte   W01
@  #02 @064   ----------------------------------------
 .byte   W24
 .byte   N23 ,Gn4
 .byte   W24
@  #02 @065   ----------------------------------------
 .byte   PATT
  .word Label_01130096
@  #02 @066   ----------------------------------------
 .byte   N92 ,Dn4 ,v096
 .byte   W48
 .byte   W48
@  #02 @067   ----------------------------------------
 .byte   W24
 .byte   N23 ,Gn4
 .byte   W24
@  #02 @068   ----------------------------------------
 .byte   PATT
  .word Label_01130096
@  #02 @069   ----------------------------------------
 .byte   PATT
  .word Label_011300AA
@  #02 @070   ----------------------------------------
 .byte   W48
 .byte   W24
 .byte   N23 ,Cn4 ,v096
 .byte   W24
@  #02 @071   ----------------------------------------
 .byte   PATT
  .word Label_011300B7
@  #02 @072   ----------------------------------------
 .byte   N92 ,Cn4 ,v096
 .byte   W48
 .byte   W48
@  #02 @073   ----------------------------------------
 .byte   W24
 .byte   N23
 .byte   W24
@  #02 @074   ----------------------------------------
 .byte   PATT
  .word Label_011300B7
@  #02 @075   ----------------------------------------
Label_0113010E:
 .byte   N32 ,Bn3 ,v096
 .byte   W36
 .byte   TIE ,An3
 .byte   W12
 .byte   PEND 
 .byte   W48
@  #02 @076   ----------------------------------------
 .byte   W48
 .byte   W23
 .byte   EOT
 .byte   W24
 .byte   W01
@  #02 @077   ----------------------------------------
 .byte   W48
 .byte   W48
@  #02 @078   ----------------------------------------
 .byte   W48
 .byte   W48
@  #02 @079   ----------------------------------------
 .byte   W48
 .byte   W48
@  #02 @080   ----------------------------------------
 .byte   W48
 .byte   W48
@  #02 @081   ----------------------------------------
 .byte   W48
 .byte   W48
@  #02 @082   ----------------------------------------
 .byte   W48
 .byte   W48
@  #02 @083   ----------------------------------------
 .byte   W48
 .byte   W48
@  #02 @084   ----------------------------------------
 .byte   W48
 .byte   W48
@  #02 @085   ----------------------------------------
 .byte   W48
 .byte   W48
@  #02 @086   ----------------------------------------
 .byte   W48
 .byte   W48
@  #02 @087   ----------------------------------------
 .byte   W48
 .byte   W48
@  #02 @088   ----------------------------------------
 .byte   W48
 .byte   W48
@  #02 @089   ----------------------------------------
 .byte   W48
 .byte   W48
@  #02 @090   ----------------------------------------
 .byte   W48
 .byte   W48
@  #02 @091   ----------------------------------------
 .byte   W48
 .byte   W48
@  #02 @092   ----------------------------------------
 .byte   N92 ,Dn3 ,v064
 .byte   N92 ,Gs3
 .byte   W48
 .byte   W48
@  #02 @093   ----------------------------------------
 .byte   W48
 .byte   W48
@  #02 @094   ----------------------------------------
 .byte   W48
 .byte   W48
@  #02 @095   ----------------------------------------
 .byte   W48
 .byte   W48
@  #02 @096   ----------------------------------------
 .byte   W48
 .byte   W48
@  #02 @097   ----------------------------------------
 .byte   W48
 .byte   W48
@  #02 @098   ----------------------------------------
 .byte   W48
 .byte   W48
@  #02 @099   ----------------------------------------
 .byte   W48
 .byte   W48
@  #02 @100   ----------------------------------------
 .byte   W48
 .byte   W48
@  #02 @101   ----------------------------------------
 .byte   W48
 .byte   W48
@  #02 @102   ----------------------------------------
 .byte   W48
 .byte   W48
@  #02 @103   ----------------------------------------
 .byte   W48
 .byte   W48
@  #02 @104   ----------------------------------------
 .byte   W48
 .byte   W48
@  #02 @105   ----------------------------------------
 .byte   W48
 .byte   W48
@  #02 @106   ----------------------------------------
 .byte   W48
 .byte   W48
@  #02 @107   ----------------------------------------
 .byte   W48
 .byte   W48
@  #02 @108   ----------------------------------------
 .byte   W48
 .byte   W48
@  #02 @109   ----------------------------------------
Label_01130161:
 .byte   N32 ,Cn4 ,v080
 .byte   W36
 .byte   Bn3
 .byte   W12
 .byte   PEND 
 .byte   W24
 .byte   TIE ,En3
 .byte   W24
@  #02 @110   ----------------------------------------
 .byte   W48
 .byte   W44
 .byte   W03
 .byte   EOT
 .byte   W01
@  #02 @111   ----------------------------------------
 .byte   W24
 .byte   N23 ,Cn4
 .byte   W24
Label_01130175:
 .byte   N23 ,Bn3 ,v080
 .byte   W24
 .byte   N68 ,En3
 .byte   W24
 .byte   PEND 
@  #02 @112   ----------------------------------------
 .byte   W48
 .byte   N44 ,Dn3
 .byte   W48
@  #02 @113   ----------------------------------------
Label_01130181:
 .byte   N23 ,Dn3 ,v080
 .byte   W24
 .byte   N11 ,En3
 .byte   W12
 .byte   N23
 .byte   W12
 .byte   PEND 
Label_0113018B:
 .byte   W12
 .byte   N11 ,Fn3 ,v080
 .byte   W12
 .byte   TIE ,En3
 .byte   W24
 .byte   PEND 
@  #02 @114   ----------------------------------------
 .byte   W48
 .byte   W44
 .byte   W03
 .byte   EOT
 .byte   W01
@  #02 @115   ----------------------------------------
 .byte   W48
 .byte   W48
@  #02 @116   ----------------------------------------
 .byte   W48
 .byte   W24
 .byte   N23 ,Bn3
 .byte   W24
@  #02 @117   ----------------------------------------
 .byte   PATT
  .word Label_01130161
@  #02 @118   ----------------------------------------
 .byte   W24
 .byte   TIE ,En3 ,v080
 .byte   W24
 .byte   W48
@  #02 @119   ----------------------------------------
 .byte   W44
 .byte   W03
 .byte   EOT
 .byte   W01
 .byte   W24
 .byte   N23 ,Cn4
 .byte   W24
@  #02 @120   ----------------------------------------
 .byte   PATT
  .word Label_01130175
@  #02 @121   ----------------------------------------
 .byte   W48
 .byte   N44 ,Dn3 ,v080
 .byte   W48
@  #02 @122   ----------------------------------------
 .byte   PATT
  .word Label_01130181
@  #02 @123   ----------------------------------------
 .byte   PATT
  .word Label_0113018B
@  #02 @124   ----------------------------------------
 .byte   W48
 .byte   W44
 .byte   W03
 .byte   EOT
 .byte   En3
 .byte   W01
@  #02 @125   ----------------------------------------
 .byte   W48
 .byte   W48
@  #02 @126   ----------------------------------------
Label_011301CF:
 .byte   N32 ,Cn4 ,v080
 .byte   W36
 .byte   Dn4
 .byte   W12
 .byte   PEND 
 .byte   W24
 .byte   N23 ,Bn3
 .byte   W24
@  #02 @127   ----------------------------------------
 .byte   N92 ,Cn4
 .byte   W48
 .byte   W48
@  #02 @128   ----------------------------------------
 .byte   PATT
  .word Label_011301CF
@  #02 @129   ----------------------------------------
 .byte   W24
 .byte   N23 ,Bn3 ,v080
 .byte   W24
 .byte   N92 ,Gn3
 .byte   W48
@  #02 @130   ----------------------------------------
 .byte   W48
@  #02 @131   ----------------------------------------
 .byte   PATT
  .word Label_011301CF
@  #02 @132   ----------------------------------------
 .byte   W24
 .byte   N23 ,Bn3 ,v080
 .byte   W24
 .byte   N44 ,Cn4
 .byte   W48
@  #02 @133   ----------------------------------------
 .byte   Gn4
 .byte   W48
Label_011301FB:
 .byte   N23 ,Gn4 ,v080
 .byte   W24
 .byte   Fn4
 .byte   W24
 .byte   PEND 
@  #02 @134   ----------------------------------------
Label_01130202:
 .byte   N23 ,En4 ,v080
 .byte   W24
 .byte   N11 ,Dn4
 .byte   W12
 .byte   TIE ,En4
 .byte   W12
 .byte   PEND 
 .byte   W48
@  #02 @135   ----------------------------------------
 .byte   W44
 .byte   W03
 .byte   EOT
 .byte   W01
@  #02 @136   ----------------------------------------
 .byte   PATT
  .word Label_011301CF
@  #02 @137   ----------------------------------------
 .byte   W24
 .byte   N23 ,Bn3 ,v080
 .byte   W24
 .byte   N92 ,Cn4
 .byte   W48
@  #02 @138   ----------------------------------------
 .byte   W48
@  #02 @139   ----------------------------------------
 .byte   PATT
  .word Label_011301CF
@  #02 @140   ----------------------------------------
 .byte   W24
 .byte   N23 ,Bn3 ,v080
 .byte   W24
 .byte   N44 ,Gn3
 .byte   W48
@  #02 @141   ----------------------------------------
 .byte   Gn4
 .byte   W48
@  #02 @142   ----------------------------------------
 .byte   PATT
  .word Label_011301FB
@  #02 @143   ----------------------------------------
Label_01130234:
 .byte   N23 ,En4 ,v080
 .byte   W24
 .byte   Dn4
 .byte   W24
 .byte   PEND 
 .byte   N44 ,Cn4
 .byte   W48
@  #02 @144   ----------------------------------------
 .byte   En4
 .byte   W48
 .byte   Dn4
 .byte   W48
@  #02 @145   ----------------------------------------
 .byte   Cn4
 .byte   W48
Label_01130244:
 .byte   N32 ,Bn3 ,v080
 .byte   W36
 .byte   TIE ,An3
 .byte   W12
 .byte   PEND 
@  #02 @146   ----------------------------------------
 .byte   W48
 .byte   W48
@  #02 @147   ----------------------------------------
 .byte   W44
 .byte   W03
 .byte   EOT
 .byte   W01
 .byte   W48
@  #02 @148   ----------------------------------------
 .byte   W48
 .byte   W48
@  #02 @149   ----------------------------------------
 .byte   W48
 .byte   W48
@  #02 @150   ----------------------------------------
 .byte   W48
 .byte   W48
@  #02 @151   ----------------------------------------
 .byte   W48
 .byte   W48
@  #02 @152   ----------------------------------------
 .byte   W48
 .byte   W48
@  #02 @153   ----------------------------------------
 .byte   W48
 .byte   W48
@  #02 @154   ----------------------------------------
 .byte   W48
 .byte   W48
@  #02 @155   ----------------------------------------
 .byte   W48
 .byte   W48
@  #02 @156   ----------------------------------------
 .byte   W48
 .byte   W48
@  #02 @157   ----------------------------------------
 .byte   W48
 .byte   W48
@  #02 @158   ----------------------------------------
 .byte   W48
 .byte   W48
@  #02 @159   ----------------------------------------
 .byte   W48
 .byte   W48
@  #02 @160   ----------------------------------------
 .byte   W48
 .byte   W48
@  #02 @161   ----------------------------------------
 .byte   W48
 .byte   W48
@  #02 @162   ----------------------------------------
 .byte   W48
 .byte   W48
@  #02 @163   ----------------------------------------
 .byte   W48
 .byte   W48
@  #02 @164   ----------------------------------------
 .byte   W48
 .byte   W48
@  #02 @165   ----------------------------------------
 .byte   W48
 .byte   W48
@  #02 @166   ----------------------------------------
 .byte   W48
 .byte   W48
@  #02 @167   ----------------------------------------
 .byte   W48
 .byte   W48
@  #02 @168   ----------------------------------------
 .byte   W48
 .byte   W48
@  #02 @169   ----------------------------------------
 .byte   W48
 .byte   W48
@  #02 @170   ----------------------------------------
 .byte   W48
 .byte   W48
@  #02 @171   ----------------------------------------
 .byte   W48
 .byte   W48
@  #02 @172   ----------------------------------------
 .byte   W48
Label_01130284:
 .byte   N32 ,Cs4 ,v052
 .byte   W36
 .byte   Ds4
 .byte   W12
 .byte   PEND 
@  #02 @173   ----------------------------------------
 .byte   W24
 .byte   N23 ,Cn4
 .byte   W24
 .byte   N92 ,Cs4
 .byte   W48
@  #02 @174   ----------------------------------------
 .byte   W48
@  #02 @175   ----------------------------------------
 .byte   PATT
  .word Label_01130284
@  #02 @176   ----------------------------------------
 .byte   W24
 .byte   N23 ,Cn4 ,v052
 .byte   W24
 .byte   N44 ,Gs3
 .byte   W48
@  #02 @177   ----------------------------------------
 .byte   Gs4
 .byte   W48
Label_011302A2:
 .byte   N23 ,Gs4 ,v052
 .byte   W24
 .byte   Fs4
 .byte   W24
 .byte   PEND 
@  #02 @178   ----------------------------------------
Label_011302A9:
 .byte   N23 ,Fn4 ,v052
 .byte   W24
 .byte   Ds4
 .byte   W24
 .byte   PEND 
 .byte   N44 ,Cs4
 .byte   W48
@  #02 @179   ----------------------------------------
 .byte   Fn4
 .byte   W48
 .byte   Ds4
 .byte   W48
@  #02 @180   ----------------------------------------
 .byte   TIE ,Cs4
 .byte   W48
 .byte   W48
@  #02 @181   ----------------------------------------
 .byte   W44
 .byte   W03
 .byte   EOT
 .byte   W01
Label_011302BF:
 .byte   N32 ,Cs4 ,v096
 .byte   W36
 .byte   Ds4
 .byte   W12
 .byte   PEND 
@  #02 @182   ----------------------------------------
 .byte   W24
 .byte   N23 ,Cn4
 .byte   W24
 .byte   N92 ,Cs4
 .byte   W48
@  #02 @183   ----------------------------------------
 .byte   W48
@  #02 @184   ----------------------------------------
 .byte   PATT
  .word Label_011302BF
@  #02 @185   ----------------------------------------
 .byte   W24
 .byte   N23 ,Cn4 ,v096
 .byte   W24
 .byte   N92 ,Gs3
 .byte   W48
@  #02 @186   ----------------------------------------
 .byte   W48
@  #02 @187   ----------------------------------------
 .byte   PATT
  .word Label_011302BF
@  #02 @188   ----------------------------------------
 .byte   W24
 .byte   N23 ,Cn4 ,v096
 .byte   W24
 .byte   N44 ,Cs4
 .byte   W48
@  #02 @189   ----------------------------------------
 .byte   Gs4
 .byte   W48
Label_011302EB:
 .byte   N23 ,Gs4 ,v096
 .byte   W24
 .byte   Fs4
 .byte   W24
 .byte   PEND 
@  #02 @190   ----------------------------------------
Label_011302F2:
 .byte   N23 ,Fn4 ,v096
 .byte   W24
 .byte   N11 ,Ds4
 .byte   W12
 .byte   TIE ,Fn4
 .byte   W12
 .byte   PEND 
 .byte   W48
@  #02 @191   ----------------------------------------
 .byte   W44
 .byte   W03
 .byte   EOT
 .byte   W01
@  #02 @192   ----------------------------------------
 .byte   PATT
  .word Label_011302BF
@  #02 @193   ----------------------------------------
 .byte   W24
 .byte   N23 ,Cn4 ,v096
 .byte   W24
 .byte   N92 ,Cs4
 .byte   W48
@  #02 @194   ----------------------------------------
 .byte   W48
@  #02 @195   ----------------------------------------
 .byte   PATT
  .word Label_011302BF
@  #02 @196   ----------------------------------------
 .byte   W24
 .byte   N23 ,Cn4 ,v096
 .byte   W24
 .byte   N44 ,Gs3
 .byte   W48
@  #02 @197   ----------------------------------------
 .byte   Gs4
 .byte   W48
@  #02 @198   ----------------------------------------
 .byte   PATT
  .word Label_011302EB
@  #02 @199   ----------------------------------------
Label_01130324:
 .byte   N23 ,Fn4 ,v096
 .byte   W24
 .byte   Ds4
 .byte   W24
 .byte   PEND 
 .byte   N44 ,Cs4
 .byte   W48
@  #02 @200   ----------------------------------------
 .byte   Fn4
 .byte   W48
 .byte   Ds4
 .byte   W48
@  #02 @201   ----------------------------------------
 .byte   Cs4
 .byte   W48
Label_01130334:
 .byte   N32 ,Cn4 ,v096
 .byte   W36
 .byte   TIE ,As3
 .byte   W12
 .byte   PEND 
@  #02 @202   ----------------------------------------
 .byte   W48
 .byte   W48
@  #02 @203   ----------------------------------------
 .byte   W44
 .byte   W03
 .byte   EOT
 .byte   W01
 .byte   W48
@  #02 @204   ----------------------------------------
 .byte   W48
 .byte   W48
@  #02 @205   ----------------------------------------
 .byte   W48
 .byte   W48
@  #02 @206   ----------------------------------------
 .byte   W48
 .byte   W48
@  #02 @207   ----------------------------------------
 .byte   W48
 .byte   W48
@  #02 @208   ----------------------------------------
 .byte   W48
 .byte   W48
@  #02 @209   ----------------------------------------
 .byte   W48
 .byte   W48
@  #02 @210   ----------------------------------------
 .byte   W48
 .byte   W48
@  #02 @211   ----------------------------------------
 .byte   W48
 .byte   W48
@  #02 @212   ----------------------------------------
 .byte   W48
 .byte   W48
@  #02 @213   ----------------------------------------
 .byte   W48
 .byte   W48
@  #02 @214   ----------------------------------------
 .byte   W48
 .byte   N44 ,Gn3 ,v080
 .byte   W48
@  #02 @215   ----------------------------------------
 .byte   PATT
  .word Label_0112FEAE
@  #02 @216   ----------------------------------------
 .byte   N44 ,En4 ,v080
 .byte   W48
 .byte   TIE ,An3
 .byte   W48
@  #02 @217   ----------------------------------------
 .byte   W48
 .byte   W11
 .byte   EOT
 .byte   W01
 .byte   N11 ,Bn3
 .byte   W12
 .byte   Cn4
 .byte   W12
 .byte   Dn4
 .byte   W12
@  #02 @218   ----------------------------------------
 .byte   N44 ,Cn4
 .byte   W48
 .byte   Bn3
 .byte   W48
@  #02 @219   ----------------------------------------
 .byte   N68 ,Cn4
 .byte   W48
 .byte   W24
 .byte   N23 ,En4
 .byte   W24
@  #02 @220   ----------------------------------------
 .byte   N44 ,Gn4
 .byte   W48
 .byte   Fn4
 .byte   W48
@  #02 @221   ----------------------------------------
 .byte   En4
 .byte   W48
 .byte   Dn4
 .byte   W48
@  #02 @222   ----------------------------------------
 .byte   GOTO
  .word Label_0112FEDA
@  #02 @223   ----------------------------------------
 .byte   W48
 .byte   W48
@  #02 @224   ----------------------------------------
 .byte   W48
 .byte   W48
@  #02 @225   ----------------------------------------
 .byte   W48
 .byte   W48
@  #02 @226   ----------------------------------------
 .byte   W48
 .byte   W48
@  #02 @227   ----------------------------------------
 .byte   W48
 .byte   W48
@  #02 @228   ----------------------------------------
 .byte   W48
 .byte   W48
@  #02 @229   ----------------------------------------
 .byte   W48
 .byte   W48
@  #02 @230   ----------------------------------------
 .byte   W48
 .byte   W48
@  #02 @231   ----------------------------------------
 .byte   PATT
  .word Label_0112FEEA
@  #02 @232   ----------------------------------------
 .byte   PATT
  .word Label_0112FEFD
@  #02 @233   ----------------------------------------
 .byte   N92 ,Gn1 ,v064
 .byte   W48
 .byte   W48
@  #02 @234   ----------------------------------------
 .byte   PATT
  .word Label_0112FF13
@  #02 @235   ----------------------------------------
 .byte   PATT
  .word Label_0112FF1F
@  #02 @236   ----------------------------------------
 .byte   W44
 .byte   W03
 .byte   EOT
 .byte   Fn1
 .byte   W01
@  #02 @237   ----------------------------------------
 .byte   PATT
  .word Label_0112FF2D
@  #02 @238   ----------------------------------------
 .byte   PATT
  .word Label_0112FF38
@  #02 @239   ----------------------------------------
 .byte   PATT
  .word Label_0112FF44
@  #02 @240   ----------------------------------------
 .byte   N92 ,En1 ,v064
 .byte   W48
 .byte   W48
@  #02 @241   ----------------------------------------
 .byte   PATT
  .word Label_0112FF52
@  #02 @242   ----------------------------------------
 .byte   PATT
  .word Label_0112FF60
@  #02 @243   ----------------------------------------
 .byte   PATT
  .word Label_0112FF6C
@  #02 @244   ----------------------------------------
 .byte   EOT
 .byte   An1
 .byte   W01
 .byte   W48
@  #02 @245   ----------------------------------------
 .byte   PATT
  .word Label_0112FF7C
@  #02 @246   ----------------------------------------
 .byte   PATT
  .word Label_0112FF89
@  #02 @247   ----------------------------------------
 .byte   PATT
  .word Label_0112FF8D
@  #02 @248   ----------------------------------------
 .byte   PATT
  .word Label_0112FF9A
@  #02 @249   ----------------------------------------
 .byte   PATT
  .word Label_0112FFA4
@  #02 @250   ----------------------------------------
 .byte   PATT
  .word Label_0112FFB1
@  #02 @251   ----------------------------------------
 .byte   PATT
  .word Label_0112FFB5
@  #02 @252   ----------------------------------------
 .byte   PATT
  .word Label_0112FFC0
@  #02 @253   ----------------------------------------
 .byte   PATT
  .word Label_0112FFC8
@  #02 @254   ----------------------------------------
 .byte   PATT
  .word Label_0112FFD5
@  #02 @255   ----------------------------------------
 .byte   PATT
  .word Label_0112FFDA
@  #02 @256   ----------------------------------------
 .byte   PATT
  .word Label_0112FFE7
@  #02 @257   ----------------------------------------
 .byte   PATT
  .word Label_0112FFF1
@  #02 @258   ----------------------------------------
 .byte   PATT
  .word Label_0112FFFF
@  #02 @259   ----------------------------------------
 .byte   PATT
  .word Label_01130003
@  #02 @260   ----------------------------------------
 .byte   PATT
  .word Label_0113000E
@  #02 @261   ----------------------------------------
 .byte   PATT
  .word Label_01130016
@  #02 @262   ----------------------------------------
 .byte   W48
@  #02 @263   ----------------------------------------
 .byte   PATT
  .word Label_0113001E
@  #02 @264   ----------------------------------------
 .byte   W12
 .byte   N11 ,Gn1 ,v096
 .byte   W36
@  #02 @265   ----------------------------------------
 .byte   PATT
  .word Label_01130028
@  #02 @266   ----------------------------------------
 .byte   W48
@  #02 @267   ----------------------------------------
 .byte   PATT
  .word Label_01130028
@  #02 @268   ----------------------------------------
 .byte   W12
 .byte   N11 ,Fn1 ,v096
 .byte   W36
@  #02 @269   ----------------------------------------
 .byte   PATT
  .word Label_0113003A
@  #02 @270   ----------------------------------------
 .byte   W48
@  #02 @271   ----------------------------------------
 .byte   PATT
  .word Label_01130042
@  #02 @272   ----------------------------------------
 .byte   W12
 .byte   N11 ,En1 ,v096
 .byte   W36
@  #02 @273   ----------------------------------------
 .byte   PATT
  .word Label_01130016
@  #02 @274   ----------------------------------------
 .byte   W48
@  #02 @275   ----------------------------------------
 .byte   PATT
  .word Label_01130016
@  #02 @276   ----------------------------------------
 .byte   W12
 .byte   N11 ,An1 ,v096
 .byte   W36
@  #02 @277   ----------------------------------------
 .byte   PATT
  .word Label_01130016
@  #02 @278   ----------------------------------------
 .byte   W48
@  #02 @279   ----------------------------------------
 .byte   PATT
  .word Label_0113001E
@  #02 @280   ----------------------------------------
 .byte   W12
 .byte   N11 ,Gn1 ,v096
 .byte   W36
@  #02 @281   ----------------------------------------
 .byte   PATT
  .word Label_01130028
@  #02 @282   ----------------------------------------
 .byte   W48
@  #02 @283   ----------------------------------------
 .byte   PATT
  .word Label_01130028
@  #02 @284   ----------------------------------------
 .byte   W12
 .byte   N11 ,Fn1 ,v096
 .byte   W36
@  #02 @285   ----------------------------------------
 .byte   PATT
  .word Label_0113003A
@  #02 @286   ----------------------------------------
 .byte   W48
@  #02 @287   ----------------------------------------
 .byte   PATT
  .word Label_0113003A
@  #02 @288   ----------------------------------------
 .byte   W12
 .byte   N11 ,Dn1 ,v096
 .byte   W36
 .byte   N92 ,En1 ,v064
 .byte   W48
@  #02 @289   ----------------------------------------
 .byte   W48
 .byte   W24
 .byte   N23 ,Gn4 ,v096
 .byte   W24
@  #02 @290   ----------------------------------------
 .byte   PATT
  .word Label_01130096
@  #02 @291   ----------------------------------------
 .byte   N92 ,Dn4 ,v096
 .byte   W48
 .byte   W48
@  #02 @292   ----------------------------------------
 .byte   W24
 .byte   N23 ,Gn4
 .byte   W24
@  #02 @293   ----------------------------------------
 .byte   PATT
  .word Label_01130096
@  #02 @294   ----------------------------------------
 .byte   PATT
  .word Label_011300AA
@  #02 @295   ----------------------------------------
 .byte   W48
 .byte   W24
 .byte   N23 ,Cn4 ,v096
 .byte   W24
@  #02 @296   ----------------------------------------
 .byte   PATT
  .word Label_011300B7
@  #02 @297   ----------------------------------------
 .byte   N44 ,Cn4 ,v096
 .byte   W48
 .byte   Gn4
 .byte   W48
@  #02 @298   ----------------------------------------
 .byte   PATT
  .word Label_011300C3
@  #02 @299   ----------------------------------------
 .byte   PATT
  .word Label_011300CA
@  #02 @300   ----------------------------------------
 .byte   W48
 .byte   W44
 .byte   W03
 .byte   EOT
 .byte   En4
 .byte   W01
@  #02 @301   ----------------------------------------
 .byte   W24
 .byte   N23 ,Gn4 ,v096
 .byte   W24
@  #02 @302   ----------------------------------------
 .byte   PATT
  .word Label_01130096
@  #02 @303   ----------------------------------------
 .byte   N92 ,Dn4 ,v096
 .byte   W48
 .byte   W48
@  #02 @304   ----------------------------------------
 .byte   W24
 .byte   N23 ,Gn4
 .byte   W24
@  #02 @305   ----------------------------------------
 .byte   PATT
  .word Label_01130096
@  #02 @306   ----------------------------------------
 .byte   PATT
  .word Label_011300AA
@  #02 @307   ----------------------------------------
 .byte   W48
 .byte   W24
 .byte   N23 ,Cn4 ,v096
 .byte   W24
@  #02 @308   ----------------------------------------
 .byte   PATT
  .word Label_011300B7
@  #02 @309   ----------------------------------------
 .byte   N92 ,Cn4 ,v096
 .byte   W48
 .byte   W48
@  #02 @310   ----------------------------------------
 .byte   W24
 .byte   N23
 .byte   W24
@  #02 @311   ----------------------------------------
 .byte   PATT
  .word Label_011300B7
@  #02 @312   ----------------------------------------
 .byte   PATT
  .word Label_0113010E
@  #02 @313   ----------------------------------------
 .byte   W48
 .byte   W48
@  #02 @314   ----------------------------------------
 .byte   W23
 .byte   EOT
 .byte   An3
 .byte   W24
 .byte   W01
 .byte   W48
@  #02 @315   ----------------------------------------
 .byte   W48
 .byte   W48
@  #02 @316   ----------------------------------------
 .byte   W48
 .byte   W48
@  #02 @317   ----------------------------------------
 .byte   W48
 .byte   W48
@  #02 @318   ----------------------------------------
 .byte   W48
 .byte   W48
@  #02 @319   ----------------------------------------
 .byte   W48
 .byte   W48
@  #02 @320   ----------------------------------------
 .byte   W48
 .byte   W48
@  #02 @321   ----------------------------------------
 .byte   W48
 .byte   W48
@  #02 @322   ----------------------------------------
 .byte   W48
 .byte   W48
@  #02 @323   ----------------------------------------
 .byte   W48
 .byte   W48
@  #02 @324   ----------------------------------------
 .byte   W48
 .byte   W48
@  #02 @325   ----------------------------------------
 .byte   W48
 .byte   W48
@  #02 @326   ----------------------------------------
 .byte   W48
 .byte   W48
@  #02 @327   ----------------------------------------
 .byte   W48
 .byte   W48
@  #02 @328   ----------------------------------------
 .byte   W48
 .byte   W48
@  #02 @329   ----------------------------------------
 .byte   W48
 .byte   N92 ,Dn3 ,v064
 .byte   N92 ,Gs3
 .byte   W48
@  #02 @330   ----------------------------------------
 .byte   W48
 .byte   W48
@  #02 @331   ----------------------------------------
 .byte   W48
 .byte   W48
@  #02 @332   ----------------------------------------
 .byte   W48
 .byte   W48
@  #02 @333   ----------------------------------------
 .byte   W48
 .byte   W48
@  #02 @334   ----------------------------------------
 .byte   W48
 .byte   W48
@  #02 @335   ----------------------------------------
 .byte   W48
 .byte   W48
@  #02 @336   ----------------------------------------
 .byte   W48
 .byte   W48
@  #02 @337   ----------------------------------------
 .byte   W48
 .byte   W48
@  #02 @338   ----------------------------------------
 .byte   W48
 .byte   W48
@  #02 @339   ----------------------------------------
 .byte   W48
 .byte   W48
@  #02 @340   ----------------------------------------
 .byte   W48
 .byte   W48
@  #02 @341   ----------------------------------------
 .byte   W48
 .byte   W48
@  #02 @342   ----------------------------------------
 .byte   W48
 .byte   W48
@  #02 @343   ----------------------------------------
 .byte   W48
 .byte   W48
@  #02 @344   ----------------------------------------
 .byte   W48
 .byte   W48
@  #02 @345   ----------------------------------------
 .byte   W48
 .byte   W48
@  #02 @346   ----------------------------------------
 .byte   W48
@  #02 @347   ----------------------------------------
 .byte   PATT
  .word Label_01130161
@  #02 @348   ----------------------------------------
 .byte   W24
 .byte   TIE ,En3 ,v080
 .byte   W24
 .byte   W48
@  #02 @349   ----------------------------------------
 .byte   W44
 .byte   W03
 .byte   EOT
 .byte   W01
 .byte   W24
 .byte   N23 ,Cn4
 .byte   W24
@  #02 @350   ----------------------------------------
 .byte   PATT
  .word Label_01130175
@  #02 @351   ----------------------------------------
 .byte   W48
 .byte   N44 ,Dn3 ,v080
 .byte   W48
@  #02 @352   ----------------------------------------
 .byte   PATT
  .word Label_01130181
@  #02 @353   ----------------------------------------
 .byte   PATT
  .word Label_0113018B
@  #02 @354   ----------------------------------------
 .byte   W48
 .byte   W44
 .byte   W03
 .byte   EOT
 .byte   En3
 .byte   W01
@  #02 @355   ----------------------------------------
 .byte   W48
 .byte   W48
@  #02 @356   ----------------------------------------
 .byte   W48
 .byte   W24
 .byte   N23 ,Bn3 ,v080
 .byte   W24
@  #02 @357   ----------------------------------------
 .byte   PATT
  .word Label_01130161
@  #02 @358   ----------------------------------------
 .byte   W24
 .byte   TIE ,En3 ,v080
 .byte   W24
 .byte   W48
@  #02 @359   ----------------------------------------
 .byte   W44
 .byte   W03
 .byte   EOT
 .byte   W01
 .byte   W24
 .byte   N23 ,Cn4
 .byte   W24
@  #02 @360   ----------------------------------------
 .byte   PATT
  .word Label_01130175
@  #02 @361   ----------------------------------------
 .byte   W48
 .byte   N44 ,Dn3 ,v080
 .byte   W48
@  #02 @362   ----------------------------------------
 .byte   PATT
  .word Label_01130181
@  #02 @363   ----------------------------------------
 .byte   PATT
  .word Label_0113018B
@  #02 @364   ----------------------------------------
 .byte   W48
 .byte   W44
 .byte   W03
 .byte   EOT
 .byte   En3
 .byte   W01
@  #02 @365   ----------------------------------------
 .byte   W48
 .byte   W48
@  #02 @366   ----------------------------------------
 .byte   PATT
  .word Label_011301CF
@  #02 @367   ----------------------------------------
 .byte   W24
 .byte   N23 ,Bn3 ,v080
 .byte   W24
 .byte   N92 ,Cn4
 .byte   W48
@  #02 @368   ----------------------------------------
 .byte   W48
@  #02 @369   ----------------------------------------
 .byte   PATT
  .word Label_011301CF
@  #02 @370   ----------------------------------------
 .byte   W24
 .byte   N23 ,Bn3 ,v080
 .byte   W24
 .byte   N92 ,Gn3
 .byte   W48
@  #02 @371   ----------------------------------------
 .byte   W48
@  #02 @372   ----------------------------------------
 .byte   PATT
  .word Label_011301CF
@  #02 @373   ----------------------------------------
 .byte   W24
 .byte   N23 ,Bn3 ,v080
 .byte   W24
 .byte   N44 ,Cn4
 .byte   W48
@  #02 @374   ----------------------------------------
 .byte   Gn4
 .byte   W48
@  #02 @375   ----------------------------------------
 .byte   PATT
  .word Label_011301FB
@  #02 @376   ----------------------------------------
 .byte   PATT
  .word Label_01130202
@  #02 @377   ----------------------------------------
 .byte   W48
 .byte   W44
 .byte   W03
 .byte   EOT
 .byte   En4
 .byte   W01
@  #02 @378   ----------------------------------------
 .byte   PATT
  .word Label_011301CF
@  #02 @379   ----------------------------------------
 .byte   W24
 .byte   N23 ,Bn3 ,v080
 .byte   W24
 .byte   N92 ,Cn4
 .byte   W48
@  #02 @380   ----------------------------------------
 .byte   W48
@  #02 @381   ----------------------------------------
 .byte   PATT
  .word Label_011301CF
@  #02 @382   ----------------------------------------
 .byte   W24
 .byte   N23 ,Bn3 ,v080
 .byte   W24
 .byte   N44 ,Gn3
 .byte   W48
@  #02 @383   ----------------------------------------
 .byte   Gn4
 .byte   W48
@  #02 @384   ----------------------------------------
 .byte   PATT
  .word Label_011301FB
@  #02 @385   ----------------------------------------
 .byte   PATT
  .word Label_01130234
@  #02 @386   ----------------------------------------
 .byte   N44 ,Cn4 ,v080
 .byte   W48
 .byte   En4
 .byte   W48
@  #02 @387   ----------------------------------------
 .byte   Dn4
 .byte   W48
 .byte   Cn4
 .byte   W48
@  #02 @388   ----------------------------------------
 .byte   PATT
  .word Label_01130244
@  #02 @389   ----------------------------------------
 .byte   W48
 .byte   W48
@  #02 @390   ----------------------------------------
 .byte   W44
 .byte   W03
 .byte   EOT
 .byte   An3
 .byte   W01
 .byte   W48
@  #02 @391   ----------------------------------------
 .byte   W48
 .byte   W48
@  #02 @392   ----------------------------------------
 .byte   W48
 .byte   W48
@  #02 @393   ----------------------------------------
 .byte   W48
 .byte   W48
@  #02 @394   ----------------------------------------
 .byte   W48
 .byte   W48
@  #02 @395   ----------------------------------------
 .byte   W48
 .byte   W48
@  #02 @396   ----------------------------------------
 .byte   W48
 .byte   W48
@  #02 @397   ----------------------------------------
 .byte   W48
 .byte   W48
@  #02 @398   ----------------------------------------
 .byte   W48
 .byte   W48
@  #02 @399   ----------------------------------------
 .byte   W48
 .byte   W48
@  #02 @400   ----------------------------------------
 .byte   W48
 .byte   W48
@  #02 @401   ----------------------------------------
 .byte   W48
 .byte   W48
@  #02 @402   ----------------------------------------
 .byte   W48
 .byte   W48
@  #02 @403   ----------------------------------------
 .byte   W48
 .byte   W48
@  #02 @404   ----------------------------------------
 .byte   W48
 .byte   W48
@  #02 @405   ----------------------------------------
 .byte   W48
 .byte   W48
@  #02 @406   ----------------------------------------
 .byte   W48
 .byte   W48
@  #02 @407   ----------------------------------------
 .byte   W48
 .byte   W48
@  #02 @408   ----------------------------------------
 .byte   W48
 .byte   W48
@  #02 @409   ----------------------------------------
 .byte   W48
 .byte   W48
@  #02 @410   ----------------------------------------
 .byte   W48
 .byte   W48
@  #02 @411   ----------------------------------------
 .byte   W48
 .byte   W48
@  #02 @412   ----------------------------------------
 .byte   W48
 .byte   W48
@  #02 @413   ----------------------------------------
 .byte   W48
 .byte   W48
@  #02 @414   ----------------------------------------
 .byte   W48
 .byte   W48
@  #02 @415   ----------------------------------------
 .byte   W48
@  #02 @416   ----------------------------------------
 .byte   PATT
  .word Label_01130284
@  #02 @417   ----------------------------------------
 .byte   W24
 .byte   N23 ,Cn4 ,v052
 .byte   W24
 .byte   N92 ,Cs4
 .byte   W48
@  #02 @418   ----------------------------------------
 .byte   W48
@  #02 @419   ----------------------------------------
 .byte   PATT
  .word Label_01130284
@  #02 @420   ----------------------------------------
 .byte   W24
 .byte   N23 ,Cn4 ,v052
 .byte   W24
 .byte   N44 ,Gs3
 .byte   W48
@  #02 @421   ----------------------------------------
 .byte   Gs4
 .byte   W48
@  #02 @422   ----------------------------------------
 .byte   PATT
  .word Label_011302A2
@  #02 @423   ----------------------------------------
 .byte   PATT
  .word Label_011302A9
@  #02 @424   ----------------------------------------
 .byte   N44 ,Cs4 ,v052
 .byte   W48
 .byte   Fn4
 .byte   W48
@  #02 @425   ----------------------------------------
 .byte   Ds4
 .byte   W48
 .byte   TIE ,Cs4
 .byte   W48
@  #02 @426   ----------------------------------------
 .byte   W48
 .byte   W44
 .byte   W03
 .byte   EOT
 .byte   W01
@  #02 @427   ----------------------------------------
 .byte   PATT
  .word Label_011302BF
@  #02 @428   ----------------------------------------
 .byte   W24
 .byte   N23 ,Cn4 ,v096
 .byte   W24
 .byte   N92 ,Cs4
 .byte   W48
@  #02 @429   ----------------------------------------
 .byte   W48
@  #02 @430   ----------------------------------------
 .byte   PATT
  .word Label_011302BF
@  #02 @431   ----------------------------------------
 .byte   W24
 .byte   N23 ,Cn4 ,v096
 .byte   W24
 .byte   N92 ,Gs3
 .byte   W48
@  #02 @432   ----------------------------------------
 .byte   W48
@  #02 @433   ----------------------------------------
 .byte   PATT
  .word Label_011302BF
@  #02 @434   ----------------------------------------
 .byte   W24
 .byte   N23 ,Cn4 ,v096
 .byte   W24
 .byte   N44 ,Cs4
 .byte   W48
@  #02 @435   ----------------------------------------
 .byte   Gs4
 .byte   W48
@  #02 @436   ----------------------------------------
 .byte   PATT
  .word Label_011302EB
@  #02 @437   ----------------------------------------
 .byte   PATT
  .word Label_011302F2
@  #02 @438   ----------------------------------------
 .byte   W48
 .byte   W44
 .byte   W03
 .byte   EOT
 .byte   Fn4
 .byte   W01
@  #02 @439   ----------------------------------------
 .byte   PATT
  .word Label_011302BF
@  #02 @440   ----------------------------------------
 .byte   W24
 .byte   N23 ,Cn4 ,v096
 .byte   W24
 .byte   N92 ,Cs4
 .byte   W48
@  #02 @441   ----------------------------------------
 .byte   W48
@  #02 @442   ----------------------------------------
 .byte   PATT
  .word Label_011302BF
@  #02 @443   ----------------------------------------
 .byte   W24
 .byte   N23 ,Cn4 ,v096
 .byte   W24
 .byte   N44 ,Gs3
 .byte   W48
@  #02 @444   ----------------------------------------
 .byte   Gs4
 .byte   W48
@  #02 @445   ----------------------------------------
 .byte   PATT
  .word Label_011302EB
@  #02 @446   ----------------------------------------
 .byte   PATT
  .word Label_01130324
@  #02 @447   ----------------------------------------
 .byte   N44 ,Cs4 ,v096
 .byte   W48
 .byte   Fn4
 .byte   W48
@  #02 @448   ----------------------------------------
 .byte   Ds4
 .byte   W48
 .byte   Cs4
 .byte   W48
@  #02 @449   ----------------------------------------
 .byte   PATT
  .word Label_01130334
@  #02 @450   ----------------------------------------
 .byte   W48
 .byte   W48
@  #02 @451   ----------------------------------------
 .byte   W44
 .byte   W03
 .byte   EOT
 .byte   As3
 .byte   W01
 .byte   W48
@  #02 @452   ----------------------------------------
 .byte   W48
 .byte   W48
@  #02 @453   ----------------------------------------
 .byte   W48
 .byte   W48
@  #02 @454   ----------------------------------------
 .byte   W48
 .byte   W48
@  #02 @455   ----------------------------------------
 .byte   W48
 .byte   W48
@  #02 @456   ----------------------------------------
 .byte   W48
 .byte   W48
@  #02 @457   ----------------------------------------
 .byte   W48
 .byte   W48
@  #02 @458   ----------------------------------------
 .byte   W48
 .byte   W48
@  #02 @459   ----------------------------------------
 .byte   W48
 .byte   W48
@  #02 @460   ----------------------------------------
 .byte   W48
 .byte   W48
@  #02 @461   ----------------------------------------
 .byte   W44
 .byte   W03
 .byte   FINE

@**************** Track 3 (Midi-Chn.2) ****************@

.align 2, 0
song06_003:
@  #03 @000   ----------------------------------------
 .byte   KEYSH , song06_key+0
 .byte   VOICE , 46
 .byte   VOL , 47*song06_mvl/mxv
 .byte   PAN , c_v-10
 .byte   VOL , 47*song06_mvl/mxv
 .byte   PAN , c_v+0
 .byte   VOL , 47*song06_mvl/mxv
 .byte   PAN , c_v+6
 .byte   VOL , 47*song06_mvl/mxv
 .byte   PAN , c_v+0
 .byte   VOL , 47*song06_mvl/mxv
 .byte   PAN , c_v+0
 .byte   W24
 .byte   N23 ,Cn4 ,v080
 .byte   W24
Label_0112AF49:
 .byte   N23 ,Dn4 ,v080
 .byte   W24
 .byte   Bn3
 .byte   W24
 .byte   PEND 
@  #03 @001   ----------------------------------------
 .byte   N92 ,Cn4
 .byte   W48
 .byte   W48
@  #03 @002   ----------------------------------------
 .byte   W24
 .byte   N23
 .byte   W24
@  #03 @003   ----------------------------------------
 .byte   PATT
  .word Label_0112AF49
@  #03 @004   ----------------------------------------
 .byte   N92 ,Gn3 ,v080
 .byte   W48
 .byte   W48
@  #03 @005   ----------------------------------------
 .byte   W24
 .byte   N23 ,Cn4
 .byte   W24
@  #03 @006   ----------------------------------------
 .byte   PATT
  .word Label_0112AF49
@  #03 @007   ----------------------------------------
 .byte   N44 ,Cn4 ,v080
 .byte   W48
 .byte   Gn4
 .byte   W48
@  #03 @008   ----------------------------------------
 .byte   N44
 .byte   W48
 .byte   Fn4
 .byte   W48
@  #03 @009   ----------------------------------------
 .byte   En4
 .byte   W48
 .byte   Dn4
 .byte   W48
@  #03 @010   ----------------------------------------
Label_0112AF78:
 .byte   W48
 .byte   W48
@  #03 @011   ----------------------------------------
 .byte   W48
 .byte   W48
@  #03 @012   ----------------------------------------
 .byte   W48
 .byte   W48
@  #03 @013   ----------------------------------------
 .byte   W48
 .byte   W48
@  #03 @014   ----------------------------------------
 .byte   W48
 .byte   W48
@  #03 @015   ----------------------------------------
 .byte   W48
 .byte   W48
@  #03 @016   ----------------------------------------
 .byte   W48
 .byte   W48
@  #03 @017   ----------------------------------------
 .byte   W48
 .byte   W48
@  #03 @018   ----------------------------------------
 .byte   W48
 .byte   W48
@  #03 @019   ----------------------------------------
 .byte   W48
 .byte   W48
@  #03 @020   ----------------------------------------
 .byte   W48
 .byte   W48
@  #03 @021   ----------------------------------------
 .byte   W48
 .byte   W48
@  #03 @022   ----------------------------------------
 .byte   W48
 .byte   W48
@  #03 @023   ----------------------------------------
 .byte   W48
 .byte   W48
@  #03 @024   ----------------------------------------
 .byte   W48
 .byte   W48
@  #03 @025   ----------------------------------------
 .byte   W48
 .byte   W48
@  #03 @026   ----------------------------------------
 .byte   W48
 .byte   W48
@  #03 @027   ----------------------------------------
 .byte   W48
 .byte   W48
@  #03 @028   ----------------------------------------
 .byte   W48
 .byte   W48
@  #03 @029   ----------------------------------------
 .byte   W48
 .byte   W48
@  #03 @030   ----------------------------------------
 .byte   W48
 .byte   W48
@  #03 @031   ----------------------------------------
 .byte   W48
 .byte   W48
@  #03 @032   ----------------------------------------
 .byte   W48
 .byte   W48
@  #03 @033   ----------------------------------------
 .byte   W48
 .byte   W48
@  #03 @034   ----------------------------------------
 .byte   W48
 .byte   W48
@  #03 @035   ----------------------------------------
 .byte   W48
 .byte   W48
@  #03 @036   ----------------------------------------
 .byte   W48
 .byte   W48
@  #03 @037   ----------------------------------------
 .byte   W48
 .byte   W48
@  #03 @038   ----------------------------------------
 .byte   W48
 .byte   W48
@  #03 @039   ----------------------------------------
 .byte   W48
 .byte   W48
@  #03 @040   ----------------------------------------
 .byte   W48
 .byte   W48
@  #03 @041   ----------------------------------------
 .byte   W48
 .byte   W48
@  #03 @042   ----------------------------------------
 .byte   W48
 .byte   W48
@  #03 @043   ----------------------------------------
 .byte   W48
 .byte   W48
@  #03 @044   ----------------------------------------
 .byte   W48
 .byte   W48
@  #03 @045   ----------------------------------------
 .byte   W48
 .byte   W48
@  #03 @046   ----------------------------------------
 .byte   W48
 .byte   W48
@  #03 @047   ----------------------------------------
 .byte   W48
 .byte   W48
@  #03 @048   ----------------------------------------
 .byte   W48
 .byte   W48
@  #03 @049   ----------------------------------------
 .byte   W24
 .byte   N23 ,Gn4 ,v080
 .byte   W24
Label_0112AFCB:
 .byte   N23 ,Cn4 ,v080
 .byte   W24
 .byte   En4
 .byte   W24
 .byte   PEND 
@  #03 @050   ----------------------------------------
 .byte   N92 ,Dn4
 .byte   W48
 .byte   W48
@  #03 @051   ----------------------------------------
 .byte   W24
 .byte   N23 ,Gn4
 .byte   W24
@  #03 @052   ----------------------------------------
 .byte   PATT
  .word Label_0112AFCB
@  #03 @053   ----------------------------------------
Label_0112AFDF:
 .byte   N32 ,Dn4 ,v080
 .byte   W36
 .byte   N56 ,En4
 .byte   W12
 .byte   PEND 
 .byte   W48
@  #03 @054   ----------------------------------------
 .byte   W24
 .byte   N23 ,Cn4
 .byte   W24
@  #03 @055   ----------------------------------------
 .byte   PATT
  .word Label_0112AF49
@  #03 @056   ----------------------------------------
 .byte   N44 ,Cn4 ,v080
 .byte   W48
 .byte   Gn4
 .byte   W48
@  #03 @057   ----------------------------------------
Label_0112AFF7:
 .byte   N23 ,Gn4 ,v080
 .byte   W24
 .byte   Fn4
 .byte   W24
 .byte   PEND 
Label_0112AFFE:
 .byte   N23 ,En4 ,v080
 .byte   W24
 .byte   N11 ,Dn4
 .byte   W12
 .byte   TIE ,En4
 .byte   W12
 .byte   PEND 
@  #03 @058   ----------------------------------------
 .byte   W48
 .byte   W44
 .byte   W03
 .byte   EOT
 .byte   W01
@  #03 @059   ----------------------------------------
 .byte   W24
 .byte   N23 ,Gn4
 .byte   W24
@  #03 @060   ----------------------------------------
 .byte   PATT
  .word Label_0112AFCB
@  #03 @061   ----------------------------------------
 .byte   N92 ,Dn4 ,v080
 .byte   W48
 .byte   W48
@  #03 @062   ----------------------------------------
 .byte   W24
 .byte   N23 ,Gn4
 .byte   W24
@  #03 @063   ----------------------------------------
 .byte   PATT
  .word Label_0112AFCB
@  #03 @064   ----------------------------------------
 .byte   PATT
  .word Label_0112AFDF
@  #03 @065   ----------------------------------------
 .byte   W48
 .byte   W24
 .byte   N23 ,Cn4 ,v080
 .byte   W24
@  #03 @066   ----------------------------------------
 .byte   PATT
  .word Label_0112AF49
@  #03 @067   ----------------------------------------
 .byte   N92 ,Cn4 ,v080
 .byte   W48
 .byte   W48
@  #03 @068   ----------------------------------------
 .byte   W24
 .byte   N23
 .byte   W24
@  #03 @069   ----------------------------------------
 .byte   PATT
  .word Label_0112AF49
@  #03 @070   ----------------------------------------
Label_0112B042:
 .byte   N32 ,Bn3 ,v080
 .byte   W36
 .byte   TIE ,An3
 .byte   W12
 .byte   PEND 
 .byte   W48
@  #03 @071   ----------------------------------------
 .byte   W48
 .byte   W23
 .byte   EOT
 .byte   W24
 .byte   W01
@  #03 @072   ----------------------------------------
 .byte   W48
 .byte   W48
@  #03 @073   ----------------------------------------
 .byte   W48
 .byte   W48
@  #03 @074   ----------------------------------------
 .byte   W48
 .byte   W48
@  #03 @075   ----------------------------------------
 .byte   W48
 .byte   W48
@  #03 @076   ----------------------------------------
 .byte   W48
 .byte   W48
@  #03 @077   ----------------------------------------
 .byte   W48
 .byte   W48
@  #03 @078   ----------------------------------------
 .byte   W48
 .byte   W48
@  #03 @079   ----------------------------------------
 .byte   W48
 .byte   W48
@  #03 @080   ----------------------------------------
 .byte   W48
 .byte   W48
@  #03 @081   ----------------------------------------
 .byte   W48
 .byte   W48
@  #03 @082   ----------------------------------------
 .byte   W48
 .byte   W48
@  #03 @083   ----------------------------------------
 .byte   W48
 .byte   W48
@  #03 @084   ----------------------------------------
 .byte   W48
 .byte   W48
@  #03 @085   ----------------------------------------
 .byte   W48
 .byte   W48
@  #03 @086   ----------------------------------------
 .byte   W48
 .byte   W48
@  #03 @087   ----------------------------------------
 .byte   W48
 .byte   W48
@  #03 @088   ----------------------------------------
Label_0112B070:
 .byte   N32 ,An2 ,v064
 .byte   N32 ,Cn3
 .byte   N32 ,En3
 .byte   W36
 .byte   N11 ,An2
 .byte   N11 ,Cn3
 .byte   N11 ,En3
 .byte   W12
 .byte   PEND 
Label_0112B080:
 .byte   W24
 .byte   N32 ,An2 ,v064
 .byte   N32 ,Cn3
 .byte   N32 ,En3
 .byte   W24
 .byte   PEND 
@  #03 @089   ----------------------------------------
Label_0112B08A:
 .byte   W12
 .byte   N11 ,An2 ,v064
 .byte   N11 ,Cn3
 .byte   N11 ,En3
 .byte   W36
 .byte   PEND 
 .byte   W48
@  #03 @090   ----------------------------------------
Label_0112B095:
 .byte   N32 ,Gn2 ,v064
 .byte   N32 ,Bn2
 .byte   N12 ,Dn3
 .byte   W36
 .byte   N11 ,Gn2
 .byte   N11 ,Bn2
 .byte   N11 ,Dn3
 .byte   W12
 .byte   PEND 
@  #03 @091   ----------------------------------------
 .byte   PATT
  .word Label_0112B080
@  #03 @092   ----------------------------------------
Label_0112B0AA:
 .byte   W12
 .byte   N11 ,An2 ,v064
 .byte   N11 ,Bn2
 .byte   N11 ,En3
 .byte   W36
 .byte   PEND 
 .byte   W48
@  #03 @093   ----------------------------------------
 .byte   PATT
  .word Label_0112B070
@  #03 @094   ----------------------------------------
 .byte   PATT
  .word Label_0112B080
@  #03 @095   ----------------------------------------
 .byte   PATT
  .word Label_0112B08A
@  #03 @096   ----------------------------------------
 .byte   W48
Label_0112B0C5:
 .byte   N32 ,Dn4 ,v064
 .byte   N32 ,Gn4
 .byte   N32 ,Bn4
 .byte   W36
 .byte   N11 ,Dn4
 .byte   N11 ,Gn4
 .byte   N11 ,Bn4
 .byte   W12
 .byte   PEND 
@  #03 @097   ----------------------------------------
Label_0112B0D5:
 .byte   W24
 .byte   N68 ,Bn3 ,v064
 .byte   N68 ,Dn4
 .byte   N68 ,Gn4
 .byte   W24
 .byte   PEND 
 .byte   W48
@  #03 @098   ----------------------------------------
Label_0112B0E0:
 .byte   N44 ,Gn3 ,v064
 .byte   N44 ,Bn3
 .byte   N44 ,Dn4
 .byte   W48
 .byte   PEND 
 .byte   W48
@  #03 @099   ----------------------------------------
 .byte   W48
Label_0112B0EB:
 .byte   W24
 .byte   N17 ,En3 ,v064
 .byte   N17 ,Gn3
 .byte   N17 ,Cn4
 .byte   W18
 .byte   N05 ,En3
 .byte   N05 ,Gn3
 .byte   N05 ,Cn4
 .byte   W06
 .byte   PEND 
@  #03 @100   ----------------------------------------
Label_0112B0FC:
 .byte   W12
 .byte   N17 ,En3 ,v064
 .byte   N17 ,Gn3
 .byte   N17 ,Cn4
 .byte   W18
 .byte   N05 ,En3
 .byte   N05 ,Gn3
 .byte   N05 ,Cn4
 .byte   W18
 .byte   PEND 
 .byte   W48
@  #03 @101   ----------------------------------------
 .byte   W48
Label_0112B10F:
 .byte   W24
 .byte   N11 ,Bn2 ,v064
 .byte   N11 ,Dn3
 .byte   N11 ,Bn3
 .byte   W12
 .byte   N05 ,Bn2
 .byte   N05 ,Dn3
 .byte   N05 ,Bn3
 .byte   W06
 .byte   Bn2
 .byte   N05 ,Dn3
 .byte   N05 ,Bn3
 .byte   W06
 .byte   PEND 
@  #03 @102   ----------------------------------------
Label_0112B126:
 .byte   W12
 .byte   N17 ,Bn2 ,v064
 .byte   N17 ,Dn3
 .byte   N17 ,Gn3
 .byte   W18
 .byte   Bn2
 .byte   N17 ,Dn3
 .byte   N17 ,Gn3
 .byte   W18
 .byte   PEND 
 .byte   W48
@  #03 @103   ----------------------------------------
 .byte   W48
 .byte   W48
@  #03 @104   ----------------------------------------
 .byte   W48
 .byte   W48
@  #03 @105   ----------------------------------------
 .byte   W48
 .byte   W48
@  #03 @106   ----------------------------------------
 .byte   W48
Label_0112B13E:
 .byte   N32 ,Cn4 ,v080
 .byte   W36
 .byte   Bn3
 .byte   W12
 .byte   PEND 
@  #03 @107   ----------------------------------------
 .byte   W24
 .byte   TIE ,En3
 .byte   W24
 .byte   W48
@  #03 @108   ----------------------------------------
 .byte   W44
 .byte   W03
 .byte   EOT
 .byte   W01
 .byte   W24
 .byte   N23 ,Cn4
 .byte   W24
@  #03 @109   ----------------------------------------
Label_0112B152:
 .byte   N23 ,Bn3 ,v080
 .byte   W24
 .byte   N68 ,En3
 .byte   W24
 .byte   PEND 
 .byte   W48
@  #03 @110   ----------------------------------------
 .byte   N44 ,Dn3
 .byte   W48
Label_0112B15E:
 .byte   N23 ,Dn3 ,v080
 .byte   W24
 .byte   N11 ,En3
 .byte   W12
 .byte   N23
 .byte   W12
 .byte   PEND 
@  #03 @111   ----------------------------------------
Label_0112B168:
 .byte   W12
 .byte   N11 ,Fn3 ,v080
 .byte   W12
 .byte   TIE ,En3
 .byte   W24
 .byte   PEND 
 .byte   W48
@  #03 @112   ----------------------------------------
 .byte   W44
 .byte   W03
 .byte   EOT
 .byte   W01
 .byte   W48
@  #03 @113   ----------------------------------------
 .byte   W48
 .byte   W48
@  #03 @114   ----------------------------------------
 .byte   W48
 .byte   W48
@  #03 @115   ----------------------------------------
 .byte   W48
 .byte   W48
@  #03 @116   ----------------------------------------
 .byte   W48
 .byte   W48
@  #03 @117   ----------------------------------------
 .byte   W48
 .byte   W48
@  #03 @118   ----------------------------------------
 .byte   W48
 .byte   W48
@  #03 @119   ----------------------------------------
 .byte   W48
 .byte   W48
@  #03 @120   ----------------------------------------
 .byte   W48
 .byte   W48
@  #03 @121   ----------------------------------------
 .byte   W48
 .byte   W48
@  #03 @122   ----------------------------------------
 .byte   W48
Label_0112B18A:
 .byte   N32 ,An2 ,v080
 .byte   N32 ,Cn3
 .byte   W36
 .byte   N23 ,An2
 .byte   N23 ,Cn3
 .byte   W12
 .byte   PEND 
@  #03 @123   ----------------------------------------
Label_0112B196:
 .byte   W12
 .byte   N32 ,An2 ,v080
 .byte   N32 ,Cn3
 .byte   W36
 .byte   PEND 
Label_0112B19E:
 .byte   N32 ,Gn2 ,v080
 .byte   N32 ,Cn3
 .byte   W36
 .byte   N23 ,Gn2
 .byte   N23 ,Bn2
 .byte   W12
 .byte   PEND 
@  #03 @124   ----------------------------------------
Label_0112B1AA:
 .byte   W12
 .byte   N32 ,Gn2 ,v080
 .byte   N32 ,Bn2
 .byte   W36
 .byte   PEND 
@  #03 @125   ----------------------------------------
 .byte   PATT
  .word Label_0112B18A
@  #03 @126   ----------------------------------------
 .byte   PATT
  .word Label_0112B196
@  #03 @127   ----------------------------------------
 .byte   PATT
  .word Label_0112B19E
@  #03 @128   ----------------------------------------
 .byte   PATT
  .word Label_0112B1AA
@  #03 @129   ----------------------------------------
 .byte   PATT
  .word Label_0112B18A
@  #03 @130   ----------------------------------------
 .byte   PATT
  .word Label_0112B196
@  #03 @131   ----------------------------------------
 .byte   PATT
  .word Label_0112B18A
@  #03 @132   ----------------------------------------
 .byte   PATT
  .word Label_0112B196
@  #03 @133   ----------------------------------------
 .byte   PATT
  .word Label_0112B18A
@  #03 @134   ----------------------------------------
 .byte   PATT
  .word Label_0112B196
@  #03 @135   ----------------------------------------
 .byte   PATT
  .word Label_0112B19E
@  #03 @136   ----------------------------------------
 .byte   PATT
  .word Label_0112B1AA
@  #03 @137   ----------------------------------------
 .byte   PATT
  .word Label_0112B18A
@  #03 @138   ----------------------------------------
 .byte   PATT
  .word Label_0112B196
@  #03 @139   ----------------------------------------
 .byte   PATT
  .word Label_0112B18A
@  #03 @140   ----------------------------------------
 .byte   PATT
  .word Label_0112B196
@  #03 @141   ----------------------------------------
 .byte   PATT
  .word Label_0112B18A
@  #03 @142   ----------------------------------------
 .byte   PATT
  .word Label_0112B196
@  #03 @143   ----------------------------------------
 .byte   PATT
  .word Label_0112B19E
@  #03 @144   ----------------------------------------
 .byte   PATT
  .word Label_0112B1AA
@  #03 @145   ----------------------------------------
 .byte   PATT
  .word Label_0112B18A
@  #03 @146   ----------------------------------------
 .byte   PATT
  .word Label_0112B196
@  #03 @147   ----------------------------------------
Label_0112B220:
 .byte   N32 ,Gs2 ,v080
 .byte   N32 ,Bn2
 .byte   W36
 .byte   N23 ,Gs2
 .byte   N23 ,Bn2
 .byte   W12
 .byte   PEND 
Label_0112B22C:
 .byte   W12
 .byte   N32 ,Gs2 ,v080
 .byte   N32 ,Bn2
 .byte   W36
 .byte   PEND 
@  #03 @148   ----------------------------------------
 .byte   PATT
  .word Label_0112B18A
@  #03 @149   ----------------------------------------
 .byte   PATT
  .word Label_0112B196
@  #03 @150   ----------------------------------------
Label_0112B23E:
 .byte   N32 ,Gn2 ,v080
 .byte   N32 ,Cn3
 .byte   W36
 .byte   N23 ,Gn2
 .byte   N23 ,Cn3
 .byte   W12
 .byte   PEND 
Label_0112B24A:
 .byte   W12
 .byte   N32 ,Gn2 ,v080
 .byte   N32 ,Cn3
 .byte   W36
 .byte   PEND 
@  #03 @151   ----------------------------------------
 .byte   W48
 .byte   W48
@  #03 @152   ----------------------------------------
 .byte   W48
 .byte   W48
@  #03 @153   ----------------------------------------
 .byte   W48
 .byte   W48
@  #03 @154   ----------------------------------------
 .byte   W48
 .byte   W48
@  #03 @155   ----------------------------------------
 .byte   W48
 .byte   W48
@  #03 @156   ----------------------------------------
 .byte   W48
 .byte   W48
@  #03 @157   ----------------------------------------
 .byte   W48
 .byte   W48
@  #03 @158   ----------------------------------------
 .byte   W48
 .byte   W48
@  #03 @159   ----------------------------------------
 .byte   W48
 .byte   W48
@  #03 @160   ----------------------------------------
 .byte   W48
 .byte   W48
@  #03 @161   ----------------------------------------
 .byte   W48
 .byte   W48
@  #03 @162   ----------------------------------------
 .byte   W48
 .byte   W48
@  #03 @163   ----------------------------------------
 .byte   W48
 .byte   W48
@  #03 @164   ----------------------------------------
 .byte   W48
 .byte   W48
@  #03 @165   ----------------------------------------
 .byte   W48
 .byte   W48
@  #03 @166   ----------------------------------------
 .byte   W48
 .byte   W48
@  #03 @167   ----------------------------------------
 .byte   W48
 .byte   W48
@  #03 @168   ----------------------------------------
 .byte   W48
 .byte   W48
@  #03 @169   ----------------------------------------
 .byte   W48
 .byte   W48
@  #03 @170   ----------------------------------------
 .byte   W48
 .byte   W48
@  #03 @171   ----------------------------------------
 .byte   W48
 .byte   W48
@  #03 @172   ----------------------------------------
 .byte   W48
 .byte   W48
@  #03 @173   ----------------------------------------
 .byte   W48
 .byte   W48
@  #03 @174   ----------------------------------------
 .byte   W48
 .byte   W48
@  #03 @175   ----------------------------------------
 .byte   W48
 .byte   W48
@  #03 @176   ----------------------------------------
 .byte   W48
 .byte   W48
@  #03 @177   ----------------------------------------
 .byte   W48
 .byte   W48
@  #03 @178   ----------------------------------------
 .byte   W48
 .byte   W48
@  #03 @179   ----------------------------------------
 .byte   W48
 .byte   W48
@  #03 @180   ----------------------------------------
 .byte   W48
 .byte   W48
@  #03 @181   ----------------------------------------
 .byte   W48
 .byte   W48
@  #03 @182   ----------------------------------------
 .byte   W48
 .byte   W48
@  #03 @183   ----------------------------------------
 .byte   W48
 .byte   W48
@  #03 @184   ----------------------------------------
 .byte   W48
 .byte   W48
@  #03 @185   ----------------------------------------
 .byte   W48
 .byte   W48
@  #03 @186   ----------------------------------------
 .byte   W48
 .byte   W48
@  #03 @187   ----------------------------------------
 .byte   W48
 .byte   W48
@  #03 @188   ----------------------------------------
 .byte   W48
 .byte   W48
@  #03 @189   ----------------------------------------
 .byte   W48
 .byte   W48
@  #03 @190   ----------------------------------------
 .byte   W48
 .byte   W48
@  #03 @191   ----------------------------------------
 .byte   W48
 .byte   W48
@  #03 @192   ----------------------------------------
 .byte   W48
 .byte   W48
@  #03 @193   ----------------------------------------
 .byte   W48
 .byte   W48
@  #03 @194   ----------------------------------------
 .byte   W48
 .byte   W48
@  #03 @195   ----------------------------------------
 .byte   W48
 .byte   W48
@  #03 @196   ----------------------------------------
 .byte   W48
 .byte   W48
@  #03 @197   ----------------------------------------
 .byte   W48
 .byte   W48
@  #03 @198   ----------------------------------------
 .byte   W48
 .byte   W48
@  #03 @199   ----------------------------------------
 .byte   W48
 .byte   W48
@  #03 @200   ----------------------------------------
 .byte   W48
 .byte   W48
@  #03 @201   ----------------------------------------
 .byte   W48
 .byte   N44 ,Cs4 ,v052
 .byte   W48
@  #03 @202   ----------------------------------------
Label_0112B2BB:
 .byte   N32 ,Cn4 ,v052
 .byte   W36
 .byte   Cs4
 .byte   W12
 .byte   PEND 
 .byte   W24
 .byte   N23 ,Ds4
 .byte   W24
@  #03 @203   ----------------------------------------
 .byte   N44 ,Fn4
 .byte   W48
 .byte   Gs4
 .byte   W48
@  #03 @204   ----------------------------------------
Label_0112B2CB:
 .byte   N32 ,Ds4 ,v052
 .byte   W36
 .byte   Cs4
 .byte   W12
 .byte   PEND 
 .byte   W24
 .byte   N23 ,Cn4
 .byte   W24
@  #03 @205   ----------------------------------------
 .byte   W48
 .byte   N44 ,Cs4
 .byte   W48
@  #03 @206   ----------------------------------------
Label_0112B2DA:
 .byte   N32 ,Cs4 ,v052
 .byte   W36
 .byte   Ds4
 .byte   W12
 .byte   PEND 
 .byte   W24
 .byte   N23 ,Cs4
 .byte   W24
@  #03 @207   ----------------------------------------
 .byte   TIE ,Cn4
 .byte   W48
 .byte   W48
@  #03 @208   ----------------------------------------
 .byte   W48
 .byte   W44
 .byte   W03
 .byte   EOT
 .byte   W01
@  #03 @209   ----------------------------------------
 .byte   TIE ,Dn4
 .byte   W48
 .byte   W48
@  #03 @210   ----------------------------------------
 .byte   W48
 .byte   W44
 .byte   W03
 .byte   EOT
 .byte   W01
@  #03 @211   ----------------------------------------
 .byte   W24
 .byte   N23 ,Cn4 ,v080
 .byte   W24
@  #03 @212   ----------------------------------------
 .byte   PATT
  .word Label_0112AF49
@  #03 @213   ----------------------------------------
 .byte   N92 ,Cn4 ,v080
 .byte   W48
 .byte   W48
@  #03 @214   ----------------------------------------
 .byte   W24
 .byte   N23
 .byte   W24
@  #03 @215   ----------------------------------------
 .byte   PATT
  .word Label_0112AF49
@  #03 @216   ----------------------------------------
 .byte   N92 ,Gn3 ,v080
 .byte   W48
 .byte   W48
@  #03 @217   ----------------------------------------
 .byte   W24
 .byte   N23 ,Cn4
 .byte   W24
@  #03 @218   ----------------------------------------
 .byte   PATT
  .word Label_0112AF49
@  #03 @219   ----------------------------------------
 .byte   N44 ,Cn4 ,v080
 .byte   W48
 .byte   Gn4
 .byte   W48
@  #03 @220   ----------------------------------------
 .byte   N44
 .byte   W48
 .byte   Fn4
 .byte   W48
@  #03 @221   ----------------------------------------
 .byte   En4
 .byte   W48
 .byte   Dn4
 .byte   W48
@  #03 @222   ----------------------------------------
 .byte   GOTO
  .word Label_0112AF78
@  #03 @223   ----------------------------------------
 .byte   W48
 .byte   W48
@  #03 @224   ----------------------------------------
 .byte   W48
 .byte   W48
@  #03 @225   ----------------------------------------
 .byte   W48
 .byte   W48
@  #03 @226   ----------------------------------------
 .byte   W48
 .byte   W48
@  #03 @227   ----------------------------------------
 .byte   W48
 .byte   W48
@  #03 @228   ----------------------------------------
 .byte   W48
 .byte   W48
@  #03 @229   ----------------------------------------
 .byte   W48
 .byte   W48
@  #03 @230   ----------------------------------------
 .byte   W48
 .byte   W48
@  #03 @231   ----------------------------------------
 .byte   W48
 .byte   W48
@  #03 @232   ----------------------------------------
 .byte   W48
 .byte   W48
@  #03 @233   ----------------------------------------
 .byte   W48
 .byte   W48
@  #03 @234   ----------------------------------------
 .byte   W48
 .byte   W48
@  #03 @235   ----------------------------------------
 .byte   W48
 .byte   W48
@  #03 @236   ----------------------------------------
 .byte   W48
 .byte   W48
@  #03 @237   ----------------------------------------
 .byte   W48
 .byte   W48
@  #03 @238   ----------------------------------------
 .byte   W48
 .byte   W48
@  #03 @239   ----------------------------------------
 .byte   W48
 .byte   W48
@  #03 @240   ----------------------------------------
 .byte   W48
 .byte   W48
@  #03 @241   ----------------------------------------
 .byte   W48
 .byte   W48
@  #03 @242   ----------------------------------------
 .byte   W48
 .byte   W48
@  #03 @243   ----------------------------------------
 .byte   W48
 .byte   W48
@  #03 @244   ----------------------------------------
 .byte   W48
 .byte   W48
@  #03 @245   ----------------------------------------
 .byte   W48
 .byte   W48
@  #03 @246   ----------------------------------------
 .byte   W48
 .byte   W48
@  #03 @247   ----------------------------------------
 .byte   W48
 .byte   W48
@  #03 @248   ----------------------------------------
 .byte   W48
 .byte   W48
@  #03 @249   ----------------------------------------
 .byte   W48
 .byte   W48
@  #03 @250   ----------------------------------------
 .byte   W48
 .byte   W48
@  #03 @251   ----------------------------------------
 .byte   W48
 .byte   W48
@  #03 @252   ----------------------------------------
 .byte   W48
 .byte   W48
@  #03 @253   ----------------------------------------
 .byte   W48
 .byte   W48
@  #03 @254   ----------------------------------------
 .byte   W48
 .byte   W48
@  #03 @255   ----------------------------------------
 .byte   W48
 .byte   W48
@  #03 @256   ----------------------------------------
 .byte   W48
 .byte   W48
@  #03 @257   ----------------------------------------
 .byte   W48
 .byte   W48
@  #03 @258   ----------------------------------------
 .byte   W48
 .byte   W48
@  #03 @259   ----------------------------------------
 .byte   W48
 .byte   W48
@  #03 @260   ----------------------------------------
 .byte   W48
 .byte   W48
@  #03 @261   ----------------------------------------
 .byte   W48
 .byte   W48
@  #03 @262   ----------------------------------------
 .byte   W24
 .byte   N23 ,Gn4 ,v080
 .byte   W24
@  #03 @263   ----------------------------------------
 .byte   PATT
  .word Label_0112AFCB
@  #03 @264   ----------------------------------------
 .byte   N92 ,Dn4 ,v080
 .byte   W48
 .byte   W48
@  #03 @265   ----------------------------------------
 .byte   W24
 .byte   N23 ,Gn4
 .byte   W24
@  #03 @266   ----------------------------------------
 .byte   PATT
  .word Label_0112AFCB
@  #03 @267   ----------------------------------------
 .byte   PATT
  .word Label_0112AFDF
@  #03 @268   ----------------------------------------
 .byte   W48
 .byte   W24
 .byte   N23 ,Cn4 ,v080
 .byte   W24
@  #03 @269   ----------------------------------------
 .byte   PATT
  .word Label_0112AF49
@  #03 @270   ----------------------------------------
 .byte   N44 ,Cn4 ,v080
 .byte   W48
 .byte   Gn4
 .byte   W48
@  #03 @271   ----------------------------------------
 .byte   PATT
  .word Label_0112AFF7
@  #03 @272   ----------------------------------------
 .byte   PATT
  .word Label_0112AFFE
@  #03 @273   ----------------------------------------
 .byte   W48
 .byte   W44
 .byte   W03
 .byte   EOT
 .byte   En4
 .byte   W01
@  #03 @274   ----------------------------------------
 .byte   W24
 .byte   N23 ,Gn4 ,v080
 .byte   W24
@  #03 @275   ----------------------------------------
 .byte   PATT
  .word Label_0112AFCB
@  #03 @276   ----------------------------------------
 .byte   N92 ,Dn4 ,v080
 .byte   W48
 .byte   W48
@  #03 @277   ----------------------------------------
 .byte   W24
 .byte   N23 ,Gn4
 .byte   W24
@  #03 @278   ----------------------------------------
 .byte   PATT
  .word Label_0112AFCB
@  #03 @279   ----------------------------------------
 .byte   PATT
  .word Label_0112AFDF
@  #03 @280   ----------------------------------------
 .byte   W48
 .byte   W24
 .byte   N23 ,Cn4 ,v080
 .byte   W24
@  #03 @281   ----------------------------------------
 .byte   PATT
  .word Label_0112AF49
@  #03 @282   ----------------------------------------
 .byte   N92 ,Cn4 ,v080
 .byte   W48
 .byte   W48
@  #03 @283   ----------------------------------------
 .byte   W24
 .byte   N23
 .byte   W24
@  #03 @284   ----------------------------------------
 .byte   PATT
  .word Label_0112AF49
@  #03 @285   ----------------------------------------
 .byte   PATT
  .word Label_0112B042
@  #03 @286   ----------------------------------------
 .byte   W48
 .byte   W48
@  #03 @287   ----------------------------------------
 .byte   W23
 .byte   EOT
 .byte   An3
 .byte   W24
 .byte   W01
 .byte   W48
@  #03 @288   ----------------------------------------
 .byte   W48
 .byte   W48
@  #03 @289   ----------------------------------------
 .byte   W48
 .byte   W48
@  #03 @290   ----------------------------------------
 .byte   W48
 .byte   W48
@  #03 @291   ----------------------------------------
 .byte   W48
 .byte   W48
@  #03 @292   ----------------------------------------
 .byte   W48
 .byte   W48
@  #03 @293   ----------------------------------------
 .byte   W48
 .byte   W48
@  #03 @294   ----------------------------------------
 .byte   W48
 .byte   W48
@  #03 @295   ----------------------------------------
 .byte   W48
 .byte   W48
@  #03 @296   ----------------------------------------
 .byte   W48
 .byte   W48
@  #03 @297   ----------------------------------------
 .byte   W48
 .byte   W48
@  #03 @298   ----------------------------------------
 .byte   W48
 .byte   W48
@  #03 @299   ----------------------------------------
 .byte   W48
 .byte   W48
@  #03 @300   ----------------------------------------
 .byte   W48
 .byte   W48
@  #03 @301   ----------------------------------------
 .byte   W48
 .byte   W48
@  #03 @302   ----------------------------------------
 .byte   W48
 .byte   W48
@  #03 @303   ----------------------------------------
 .byte   W48
@  #03 @304   ----------------------------------------
 .byte   PATT
  .word Label_0112B070
@  #03 @305   ----------------------------------------
 .byte   PATT
  .word Label_0112B080
@  #03 @306   ----------------------------------------
 .byte   PATT
  .word Label_0112B08A
@  #03 @307   ----------------------------------------
 .byte   W48
@  #03 @308   ----------------------------------------
 .byte   PATT
  .word Label_0112B095
@  #03 @309   ----------------------------------------
 .byte   PATT
  .word Label_0112B080
@  #03 @310   ----------------------------------------
 .byte   PATT
  .word Label_0112B0AA
@  #03 @311   ----------------------------------------
 .byte   W48
@  #03 @312   ----------------------------------------
 .byte   PATT
  .word Label_0112B070
@  #03 @313   ----------------------------------------
 .byte   PATT
  .word Label_0112B080
@  #03 @314   ----------------------------------------
 .byte   PATT
  .word Label_0112B08A
@  #03 @315   ----------------------------------------
 .byte   W48
@  #03 @316   ----------------------------------------
 .byte   PATT
  .word Label_0112B0C5
@  #03 @317   ----------------------------------------
 .byte   PATT
  .word Label_0112B0D5
@  #03 @318   ----------------------------------------
 .byte   W48
@  #03 @319   ----------------------------------------
 .byte   PATT
  .word Label_0112B0E0
@  #03 @320   ----------------------------------------
 .byte   W48
 .byte   W48
@  #03 @321   ----------------------------------------
 .byte   PATT
  .word Label_0112B0EB
@  #03 @322   ----------------------------------------
 .byte   PATT
  .word Label_0112B0FC
@  #03 @323   ----------------------------------------
 .byte   W48
 .byte   W48
@  #03 @324   ----------------------------------------
 .byte   PATT
  .word Label_0112B10F
@  #03 @325   ----------------------------------------
 .byte   PATT
  .word Label_0112B126
@  #03 @326   ----------------------------------------
 .byte   W48
 .byte   W48
@  #03 @327   ----------------------------------------
 .byte   W48
 .byte   W48
@  #03 @328   ----------------------------------------
 .byte   W48
 .byte   W48
@  #03 @329   ----------------------------------------
 .byte   W48
 .byte   W48
@  #03 @330   ----------------------------------------
 .byte   PATT
  .word Label_0112B13E
@  #03 @331   ----------------------------------------
 .byte   W24
 .byte   TIE ,En3 ,v080
 .byte   W24
 .byte   W48
@  #03 @332   ----------------------------------------
 .byte   W44
 .byte   W03
 .byte   EOT
 .byte   W01
 .byte   W24
 .byte   N23 ,Cn4
 .byte   W24
@  #03 @333   ----------------------------------------
 .byte   PATT
  .word Label_0112B152
@  #03 @334   ----------------------------------------
 .byte   W48
 .byte   N44 ,Dn3 ,v080
 .byte   W48
@  #03 @335   ----------------------------------------
 .byte   PATT
  .word Label_0112B15E
@  #03 @336   ----------------------------------------
 .byte   PATT
  .word Label_0112B168
@  #03 @337   ----------------------------------------
 .byte   W48
 .byte   W44
 .byte   W03
 .byte   EOT
 .byte   En3
 .byte   W01
@  #03 @338   ----------------------------------------
 .byte   W48
 .byte   W48
@  #03 @339   ----------------------------------------
 .byte   W48
 .byte   W48
@  #03 @340   ----------------------------------------
 .byte   W48
 .byte   W48
@  #03 @341   ----------------------------------------
 .byte   W48
 .byte   W48
@  #03 @342   ----------------------------------------
 .byte   W48
 .byte   W48
@  #03 @343   ----------------------------------------
 .byte   W48
 .byte   W48
@  #03 @344   ----------------------------------------
 .byte   W48
 .byte   W48
@  #03 @345   ----------------------------------------
 .byte   W48
 .byte   W48
@  #03 @346   ----------------------------------------
 .byte   W48
 .byte   W48
@  #03 @347   ----------------------------------------
 .byte   W48
 .byte   W48
@  #03 @348   ----------------------------------------
 .byte   PATT
  .word Label_0112B18A
@  #03 @349   ----------------------------------------
 .byte   PATT
  .word Label_0112B196
@  #03 @350   ----------------------------------------
 .byte   PATT
  .word Label_0112B19E
@  #03 @351   ----------------------------------------
 .byte   PATT
  .word Label_0112B1AA
@  #03 @352   ----------------------------------------
 .byte   PATT
  .word Label_0112B18A
@  #03 @353   ----------------------------------------
 .byte   PATT
  .word Label_0112B196
@  #03 @354   ----------------------------------------
 .byte   PATT
  .word Label_0112B19E
@  #03 @355   ----------------------------------------
 .byte   PATT
  .word Label_0112B1AA
@  #03 @356   ----------------------------------------
 .byte   PATT
  .word Label_0112B18A
@  #03 @357   ----------------------------------------
 .byte   PATT
  .word Label_0112B196
@  #03 @358   ----------------------------------------
 .byte   PATT
  .word Label_0112B18A
@  #03 @359   ----------------------------------------
 .byte   PATT
  .word Label_0112B196
@  #03 @360   ----------------------------------------
 .byte   PATT
  .word Label_0112B18A
@  #03 @361   ----------------------------------------
 .byte   PATT
  .word Label_0112B196
@  #03 @362   ----------------------------------------
 .byte   PATT
  .word Label_0112B19E
@  #03 @363   ----------------------------------------
 .byte   PATT
  .word Label_0112B1AA
@  #03 @364   ----------------------------------------
 .byte   PATT
  .word Label_0112B18A
@  #03 @365   ----------------------------------------
 .byte   PATT
  .word Label_0112B196
@  #03 @366   ----------------------------------------
 .byte   PATT
  .word Label_0112B18A
@  #03 @367   ----------------------------------------
 .byte   PATT
  .word Label_0112B196
@  #03 @368   ----------------------------------------
 .byte   PATT
  .word Label_0112B18A
@  #03 @369   ----------------------------------------
 .byte   PATT
  .word Label_0112B196
@  #03 @370   ----------------------------------------
 .byte   PATT
  .word Label_0112B19E
@  #03 @371   ----------------------------------------
 .byte   PATT
  .word Label_0112B1AA
@  #03 @372   ----------------------------------------
 .byte   PATT
  .word Label_0112B18A
@  #03 @373   ----------------------------------------
 .byte   PATT
  .word Label_0112B196
@  #03 @374   ----------------------------------------
 .byte   PATT
  .word Label_0112B220
@  #03 @375   ----------------------------------------
 .byte   PATT
  .word Label_0112B22C
@  #03 @376   ----------------------------------------
 .byte   PATT
  .word Label_0112B18A
@  #03 @377   ----------------------------------------
 .byte   PATT
  .word Label_0112B196
@  #03 @378   ----------------------------------------
 .byte   PATT
  .word Label_0112B23E
@  #03 @379   ----------------------------------------
 .byte   PATT
  .word Label_0112B24A
@  #03 @380   ----------------------------------------
 .byte   W48
 .byte   W48
@  #03 @381   ----------------------------------------
 .byte   W48
 .byte   W48
@  #03 @382   ----------------------------------------
 .byte   W48
 .byte   W48
@  #03 @383   ----------------------------------------
 .byte   W48
 .byte   W48
@  #03 @384   ----------------------------------------
 .byte   W48
 .byte   W48
@  #03 @385   ----------------------------------------
 .byte   W48
 .byte   W48
@  #03 @386   ----------------------------------------
 .byte   W48
 .byte   W48
@  #03 @387   ----------------------------------------
 .byte   W48
 .byte   W48
@  #03 @388   ----------------------------------------
 .byte   W48
 .byte   W48
@  #03 @389   ----------------------------------------
 .byte   W48
 .byte   W48
@  #03 @390   ----------------------------------------
 .byte   W48
 .byte   W48
@  #03 @391   ----------------------------------------
 .byte   W48
 .byte   W48
@  #03 @392   ----------------------------------------
 .byte   W48
 .byte   W48
@  #03 @393   ----------------------------------------
 .byte   W48
 .byte   W48
@  #03 @394   ----------------------------------------
 .byte   W48
 .byte   W48
@  #03 @395   ----------------------------------------
 .byte   W48
 .byte   W48
@  #03 @396   ----------------------------------------
 .byte   W48
 .byte   W48
@  #03 @397   ----------------------------------------
 .byte   W48
 .byte   W48
@  #03 @398   ----------------------------------------
 .byte   W48
 .byte   W48
@  #03 @399   ----------------------------------------
 .byte   W48
 .byte   W48
@  #03 @400   ----------------------------------------
 .byte   W48
 .byte   W48
@  #03 @401   ----------------------------------------
 .byte   W48
 .byte   W48
@  #03 @402   ----------------------------------------
 .byte   W48
 .byte   W48
@  #03 @403   ----------------------------------------
 .byte   W48
 .byte   W48
@  #03 @404   ----------------------------------------
 .byte   W48
 .byte   W48
@  #03 @405   ----------------------------------------
 .byte   W48
 .byte   W48
@  #03 @406   ----------------------------------------
 .byte   W48
 .byte   W48
@  #03 @407   ----------------------------------------
 .byte   W48
 .byte   W48
@  #03 @408   ----------------------------------------
 .byte   W48
 .byte   W48
@  #03 @409   ----------------------------------------
 .byte   W48
 .byte   W48
@  #03 @410   ----------------------------------------
 .byte   W48
 .byte   W48
@  #03 @411   ----------------------------------------
 .byte   W48
 .byte   W48
@  #03 @412   ----------------------------------------
 .byte   W48
 .byte   W48
@  #03 @413   ----------------------------------------
 .byte   W48
 .byte   W48
@  #03 @414   ----------------------------------------
 .byte   W48
 .byte   W48
@  #03 @415   ----------------------------------------
 .byte   W48
 .byte   W48
@  #03 @416   ----------------------------------------
 .byte   W48
 .byte   W48
@  #03 @417   ----------------------------------------
 .byte   W48
 .byte   W48
@  #03 @418   ----------------------------------------
 .byte   W48
 .byte   W48
@  #03 @419   ----------------------------------------
 .byte   W48
 .byte   W48
@  #03 @420   ----------------------------------------
 .byte   W48
 .byte   W48
@  #03 @421   ----------------------------------------
 .byte   W48
 .byte   W48
@  #03 @422   ----------------------------------------
 .byte   W48
 .byte   W48
@  #03 @423   ----------------------------------------
 .byte   W48
 .byte   W48
@  #03 @424   ----------------------------------------
 .byte   W48
 .byte   W48
@  #03 @425   ----------------------------------------
 .byte   W48
 .byte   W48
@  #03 @426   ----------------------------------------
 .byte   W48
 .byte   W48
@  #03 @427   ----------------------------------------
 .byte   W48
 .byte   W48
@  #03 @428   ----------------------------------------
 .byte   W48
 .byte   W48
@  #03 @429   ----------------------------------------
 .byte   W48
 .byte   W48
@  #03 @430   ----------------------------------------
 .byte   W48
 .byte   N44 ,Cs4 ,v052
 .byte   W48
@  #03 @431   ----------------------------------------
 .byte   PATT
  .word Label_0112B2BB
@  #03 @432   ----------------------------------------
 .byte   W24
 .byte   N23 ,Ds4 ,v052
 .byte   W24
 .byte   N44 ,Fn4
 .byte   W48
@  #03 @433   ----------------------------------------
 .byte   Gs4
 .byte   W48
@  #03 @434   ----------------------------------------
 .byte   PATT
  .word Label_0112B2CB
@  #03 @435   ----------------------------------------
 .byte   W24
 .byte   N23 ,Cn4 ,v052
 .byte   W24
 .byte   W48
@  #03 @436   ----------------------------------------
 .byte   N44 ,Cs4
 .byte   W48
@  #03 @437   ----------------------------------------
 .byte   PATT
  .word Label_0112B2DA
@  #03 @438   ----------------------------------------
 .byte   W24
 .byte   N23 ,Cs4 ,v052
 .byte   W24
 .byte   TIE ,Cn4
 .byte   W48
@  #03 @439   ----------------------------------------
 .byte   W48
 .byte   W48
@  #03 @440   ----------------------------------------
 .byte   W44
 .byte   W03
 .byte   EOT
 .byte   W01
 .byte   TIE ,Dn4
 .byte   W48
@  #03 @441   ----------------------------------------
 .byte   W48
 .byte   W48
@  #03 @442   ----------------------------------------
 .byte   W44
 .byte   W03
 .byte   EOT
 .byte   FINE

@**************** Track 4 (Midi-Chn.3) ****************@

.align 2, 0
song06_004:
@  #04 @000   ----------------------------------------
 .byte   KEYSH , song06_key+0
 .byte   VOICE , 48
 .byte   VOL , 47*song06_mvl/mxv
 .byte   PAN , c_v+8
 .byte   VOL , 47*song06_mvl/mxv
 .byte   PAN , c_v+0
 .byte   VOL , 47*song06_mvl/mxv
 .byte   PAN , c_v+0
 .byte   VOL , 47*song06_mvl/mxv
 .byte   PAN , c_v+0
 .byte   VOL , 47*song06_mvl/mxv
 .byte   PAN , c_v+0
 .byte   W24
 .byte   N23 ,Cn3 ,v080
 .byte   W24
Label_0113075D:
 .byte   N23 ,Dn3 ,v080
 .byte   W24
 .byte   Bn2
 .byte   W24
 .byte   PEND 
@  #04 @001   ----------------------------------------
Label_01130764:
 .byte   N44 ,Gn2 ,v080
 .byte   N48 ,Cn3
 .byte   W48
 .byte   PEND 
Label_0113076B:
 .byte   N23 ,Cn3 ,v080
 .byte   W24
 .byte   Bn2
 .byte   W24
 .byte   PEND 
@  #04 @002   ----------------------------------------
Label_01130772:
 .byte   N44 ,Bn2 ,v080
 .byte   W24
 .byte   N23 ,Cn3
 .byte   W24
 .byte   PEND 
Label_0113077A:
 .byte   TIE ,An2 ,v080
 .byte   N23 ,Dn3
 .byte   W24
 .byte   Bn2
 .byte   W24
 .byte   PEND 
@  #04 @003   ----------------------------------------
 .byte   N92 ,Gn2
 .byte   W48
 .byte   W11
 .byte   EOT
 .byte   An2
 .byte   W01
 .byte   N11 ,Bn2
 .byte   W12
 .byte   Cn3
 .byte   W12
 .byte   Dn3
 .byte   W12
@  #04 @004   ----------------------------------------
Label_01130791:
 .byte   N44 ,Gn3 ,v080
 .byte   W24
 .byte   N23 ,Cn3
 .byte   W24
 .byte   PEND 
Label_01130799:
 .byte   N23 ,Dn3 ,v080
 .byte   N44 ,Gn3
 .byte   W24
 .byte   N23 ,Bn2
 .byte   W24
 .byte   PEND 
@  #04 @005   ----------------------------------------
 .byte   N44 ,Cn3
 .byte   W48
Label_011307A6:
 .byte   N44 ,Gn3 ,v080
 .byte   W24
 .byte   N23 ,En3
 .byte   W24
 .byte   PEND 
@  #04 @006   ----------------------------------------
 .byte   N44 ,Dn3
 .byte   N44 ,Gn3
 .byte   W48
 .byte   Fn3
 .byte   W48
@  #04 @007   ----------------------------------------
 .byte   En3
 .byte   W48
 .byte   Dn3
 .byte   W48
@  #04 @008   ----------------------------------------
Label_011307B9:
 .byte   W48
 .byte   W48
@  #04 @009   ----------------------------------------
 .byte   W48
 .byte   W48
@  #04 @010   ----------------------------------------
 .byte   W48
 .byte   W48
@  #04 @011   ----------------------------------------
 .byte   W48
 .byte   W48
@  #04 @012   ----------------------------------------
 .byte   W48
 .byte   W48
@  #04 @013   ----------------------------------------
 .byte   W48
 .byte   W48
@  #04 @014   ----------------------------------------
 .byte   W48
 .byte   W48
@  #04 @015   ----------------------------------------
 .byte   W48
 .byte   W48
@  #04 @016   ----------------------------------------
 .byte   W48
 .byte   W48
@  #04 @017   ----------------------------------------
 .byte   W48
 .byte   W48
@  #04 @018   ----------------------------------------
 .byte   W48
 .byte   W48
@  #04 @019   ----------------------------------------
 .byte   W48
 .byte   W48
@  #04 @020   ----------------------------------------
 .byte   W48
 .byte   W48
@  #04 @021   ----------------------------------------
 .byte   W48
 .byte   W48
@  #04 @022   ----------------------------------------
 .byte   W48
 .byte   W48
@  #04 @023   ----------------------------------------
 .byte   W48
 .byte   W48
@  #04 @024   ----------------------------------------
 .byte   W48
 .byte   W48
@  #04 @025   ----------------------------------------
 .byte   W48
 .byte   W48
@  #04 @026   ----------------------------------------
 .byte   W48
 .byte   W48
@  #04 @027   ----------------------------------------
 .byte   W48
 .byte   W48
@  #04 @028   ----------------------------------------
 .byte   W48
 .byte   W48
@  #04 @029   ----------------------------------------
 .byte   W48
 .byte   W48
@  #04 @030   ----------------------------------------
 .byte   W48
 .byte   W48
@  #04 @031   ----------------------------------------
 .byte   W48
 .byte   W48
@  #04 @032   ----------------------------------------
 .byte   W48
 .byte   W48
@  #04 @033   ----------------------------------------
 .byte   W48
 .byte   W48
@  #04 @034   ----------------------------------------
 .byte   W48
 .byte   W48
@  #04 @035   ----------------------------------------
 .byte   W48
 .byte   W48
@  #04 @036   ----------------------------------------
 .byte   W48
 .byte   W48
@  #04 @037   ----------------------------------------
 .byte   W48
 .byte   W48
@  #04 @038   ----------------------------------------
 .byte   W48
 .byte   W48
@  #04 @039   ----------------------------------------
 .byte   W48
 .byte   W48
@  #04 @040   ----------------------------------------
 .byte   W48
 .byte   W48
@  #04 @041   ----------------------------------------
 .byte   W48
 .byte   W48
@  #04 @042   ----------------------------------------
 .byte   W48
 .byte   W48
@  #04 @043   ----------------------------------------
 .byte   W48
 .byte   W48
@  #04 @044   ----------------------------------------
 .byte   W48
 .byte   W48
@  #04 @045   ----------------------------------------
 .byte   W48
 .byte   W48
@  #04 @046   ----------------------------------------
 .byte   W48
 .byte   W48
@  #04 @047   ----------------------------------------
 .byte   W48
 .byte   W48
@  #04 @048   ----------------------------------------
 .byte   W48
 .byte   W48
@  #04 @049   ----------------------------------------
 .byte   W48
 .byte   W48
@  #04 @050   ----------------------------------------
 .byte   W48
 .byte   W48
@  #04 @051   ----------------------------------------
 .byte   W48
 .byte   W48
@  #04 @052   ----------------------------------------
 .byte   W48
 .byte   W48
@  #04 @053   ----------------------------------------
 .byte   W48
 .byte   W48
@  #04 @054   ----------------------------------------
 .byte   W48
 .byte   W48
@  #04 @055   ----------------------------------------
 .byte   W24
 .byte   N23 ,Gn3 ,v064
 .byte   W24
Label_0113081C:
 .byte   N23 ,Cn3 ,v064
 .byte   W24
 .byte   En3
 .byte   W24
 .byte   PEND 
@  #04 @056   ----------------------------------------
 .byte   N92 ,Dn3
 .byte   W48
 .byte   W48
@  #04 @057   ----------------------------------------
 .byte   W24
 .byte   N23 ,Gn3
 .byte   W24
@  #04 @058   ----------------------------------------
 .byte   PATT
  .word Label_0113081C
@  #04 @059   ----------------------------------------
Label_01130830:
 .byte   N32 ,Dn3 ,v064
 .byte   W36
 .byte   N56 ,En3
 .byte   W12
 .byte   PEND 
 .byte   W48
@  #04 @060   ----------------------------------------
 .byte   W24
 .byte   N23 ,Cn3
 .byte   W24
Label_0113083D:
 .byte   N23 ,Dn3 ,v064
 .byte   W24
 .byte   Bn2
 .byte   W24
 .byte   PEND 
@  #04 @061   ----------------------------------------
 .byte   N92 ,Cn3
 .byte   W48
 .byte   W48
@  #04 @062   ----------------------------------------
 .byte   W24
 .byte   N23
 .byte   W24
@  #04 @063   ----------------------------------------
 .byte   PATT
  .word Label_0113083D
@  #04 @064   ----------------------------------------
Label_01130850:
 .byte   N32 ,Bn2 ,v064
 .byte   W36
 .byte   TIE ,An2
 .byte   W12
 .byte   PEND 
 .byte   W48
@  #04 @065   ----------------------------------------
 .byte   W48
 .byte   W23
 .byte   EOT
 .byte   W24
 .byte   W01
@  #04 @066   ----------------------------------------
 .byte   W48
 .byte   W48
@  #04 @067   ----------------------------------------
 .byte   W48
 .byte   W48
@  #04 @068   ----------------------------------------
 .byte   W48
 .byte   W48
@  #04 @069   ----------------------------------------
 .byte   W48
 .byte   W48
@  #04 @070   ----------------------------------------
 .byte   W48
 .byte   W48
@  #04 @071   ----------------------------------------
 .byte   W48
 .byte   W48
@  #04 @072   ----------------------------------------
 .byte   W48
 .byte   W48
@  #04 @073   ----------------------------------------
 .byte   W48
 .byte   W48
@  #04 @074   ----------------------------------------
 .byte   W48
 .byte   W48
@  #04 @075   ----------------------------------------
 .byte   W48
 .byte   W48
@  #04 @076   ----------------------------------------
 .byte   W48
 .byte   W48
@  #04 @077   ----------------------------------------
 .byte   W48
 .byte   W48
@  #04 @078   ----------------------------------------
 .byte   W48
 .byte   W48
@  #04 @079   ----------------------------------------
 .byte   W48
 .byte   W48
@  #04 @080   ----------------------------------------
 .byte   W48
 .byte   W48
@  #04 @081   ----------------------------------------
 .byte   W48
Label_0113087D:
 .byte   W24
 .byte   N11 ,An3 ,v080
 .byte   W12
 .byte   Bn3
 .byte   W12
 .byte   PEND 
@  #04 @082   ----------------------------------------
 .byte   N56 ,Cn4
 .byte   W48
Label_01130888:
 .byte   W12
 .byte   N11 ,Bn3 ,v080
 .byte   W12
 .byte   An3
 .byte   W12
 .byte   Gn3
 .byte   W12
 .byte   PEND 
@  #04 @083   ----------------------------------------
 .byte   N56 ,An3
 .byte   W48
Label_01130895:
 .byte   W12
 .byte   N11 ,Gn3 ,v080
 .byte   W12
 .byte   Fn3
 .byte   W12
 .byte   En3
 .byte   W12
 .byte   PEND 
@  #04 @084   ----------------------------------------
Label_0113089F:
 .byte   N11 ,Dn3 ,v080
 .byte   W12
 .byte   N05
 .byte   W06
 .byte   Ds3
 .byte   W06
 .byte   N11 ,En3
 .byte   W12
 .byte   TIE
 .byte   W12
 .byte   PEND 
 .byte   W48
@  #04 @085   ----------------------------------------
 .byte   W44
 .byte   W03
 .byte   EOT
 .byte   W01
@  #04 @086   ----------------------------------------
 .byte   PATT
  .word Label_0113087D
@  #04 @087   ----------------------------------------
 .byte   N56 ,Cn4 ,v080
 .byte   W48
@  #04 @088   ----------------------------------------
 .byte   PATT
  .word Label_01130888
@  #04 @089   ----------------------------------------
 .byte   N56 ,An3 ,v080
 .byte   W48
Label_011308C4:
 .byte   W12
 .byte   N11 ,Bn3 ,v080
 .byte   W12
 .byte   Cn4
 .byte   W12
 .byte   Dn4
 .byte   W12
 .byte   PEND 
@  #04 @090   ----------------------------------------
Label_011308CE:
 .byte   N23 ,Bn3 ,v080
 .byte   W24
 .byte   N11 ,Gn3
 .byte   W12
 .byte   TIE
 .byte   W12
 .byte   PEND 
 .byte   W48
@  #04 @091   ----------------------------------------
 .byte   W44
 .byte   W03
 .byte   EOT
 .byte   W01
Label_011308DD:
 .byte   W12
 .byte   N11 ,An3 ,v080
 .byte   W12
 .byte   N11
 .byte   W12
 .byte   Bn3
 .byte   W12
 .byte   PEND 
@  #04 @092   ----------------------------------------
 .byte   N56 ,Cn4
 .byte   W48
@  #04 @093   ----------------------------------------
 .byte   PATT
  .word Label_01130888
@  #04 @094   ----------------------------------------
 .byte   N56 ,An3 ,v080
 .byte   W48
@  #04 @095   ----------------------------------------
 .byte   PATT
  .word Label_01130895
@  #04 @096   ----------------------------------------
Label_011308F8:
 .byte   N23 ,Dn3 ,v080
 .byte   W24
 .byte   N11 ,En3
 .byte   W12
 .byte   N23
 .byte   W12
 .byte   PEND 
Label_01130902:
 .byte   W12
 .byte   N11 ,Fn3 ,v080
 .byte   W12
 .byte   N68 ,En3
 .byte   W24
 .byte   PEND 
@  #04 @097   ----------------------------------------
 .byte   W48
Label_0113090C:
 .byte   W24
 .byte   N11 ,En3 ,v080
 .byte   W12
 .byte   Fn3
 .byte   W12
 .byte   PEND 
@  #04 @098   ----------------------------------------
Label_01130914:
 .byte   N23 ,Gn3 ,v080
 .byte   W24
 .byte   N11 ,Fn3
 .byte   W12
 .byte   N23
 .byte   W12
 .byte   PEND 
Label_0113091E:
 .byte   W12
 .byte   N11 ,En3 ,v080
 .byte   W12
 .byte   N68
 .byte   W24
 .byte   PEND 
@  #04 @099   ----------------------------------------
 .byte   W48
 .byte   N44 ,Dn3
 .byte   W48
@  #04 @100   ----------------------------------------
Label_0113092A:
 .byte   N23 ,Dn3 ,v080
 .byte   W24
 .byte   N11 ,En3
 .byte   W12
 .byte   TIE
 .byte   W12
 .byte   PEND 
 .byte   W48
@  #04 @101   ----------------------------------------
 .byte   W48
 .byte   W44
 .byte   W03
 .byte   EOT
 .byte   W01
@  #04 @102   ----------------------------------------
 .byte   W48
 .byte   W48
@  #04 @103   ----------------------------------------
 .byte   W48
 .byte   W48
@  #04 @104   ----------------------------------------
 .byte   W48
 .byte   W48
@  #04 @105   ----------------------------------------
 .byte   W48
 .byte   W48
@  #04 @106   ----------------------------------------
 .byte   W48
 .byte   W48
@  #04 @107   ----------------------------------------
 .byte   W48
 .byte   W48
@  #04 @108   ----------------------------------------
 .byte   W48
 .byte   W48
@  #04 @109   ----------------------------------------
 .byte   W48
 .byte   W48
@  #04 @110   ----------------------------------------
 .byte   W48
 .byte   W48
@  #04 @111   ----------------------------------------
 .byte   W48
 .byte   W48
@  #04 @112   ----------------------------------------
 .byte   W48
 .byte   W48
@  #04 @113   ----------------------------------------
 .byte   W48
 .byte   W48
@  #04 @114   ----------------------------------------
 .byte   W48
 .byte   W48
@  #04 @115   ----------------------------------------
 .byte   W48
 .byte   W48
@  #04 @116   ----------------------------------------
 .byte   W48
 .byte   W48
@  #04 @117   ----------------------------------------
 .byte   W48
 .byte   W48
@  #04 @118   ----------------------------------------
 .byte   W48
 .byte   W48
@  #04 @119   ----------------------------------------
 .byte   W48
 .byte   W48
@  #04 @120   ----------------------------------------
 .byte   W48
 .byte   W48
@  #04 @121   ----------------------------------------
 .byte   W48
 .byte   W48
@  #04 @122   ----------------------------------------
 .byte   W48
 .byte   W48
@  #04 @123   ----------------------------------------
 .byte   W48
 .byte   W48
@  #04 @124   ----------------------------------------
 .byte   W48
 .byte   W48
@  #04 @125   ----------------------------------------
 .byte   W48
 .byte   W48
@  #04 @126   ----------------------------------------
 .byte   W48
 .byte   W48
@  #04 @127   ----------------------------------------
 .byte   W48
 .byte   W48
@  #04 @128   ----------------------------------------
 .byte   W48
 .byte   W48
@  #04 @129   ----------------------------------------
 .byte   W48
 .byte   W48
@  #04 @130   ----------------------------------------
 .byte   W48
 .byte   W48
@  #04 @131   ----------------------------------------
 .byte   W48
 .byte   W48
@  #04 @132   ----------------------------------------
 .byte   W48
 .byte   W48
@  #04 @133   ----------------------------------------
 .byte   W48
 .byte   W48
@  #04 @134   ----------------------------------------
 .byte   W48
 .byte   W48
@  #04 @135   ----------------------------------------
 .byte   W48
 .byte   W48
@  #04 @136   ----------------------------------------
 .byte   W48
 .byte   W48
@  #04 @137   ----------------------------------------
 .byte   W48
 .byte   W48
@  #04 @138   ----------------------------------------
 .byte   W48
 .byte   W48
@  #04 @139   ----------------------------------------
 .byte   W48
 .byte   W48
@  #04 @140   ----------------------------------------
 .byte   W48
 .byte   W48
@  #04 @141   ----------------------------------------
 .byte   W48
 .byte   W48
@  #04 @142   ----------------------------------------
 .byte   W48
 .byte   W48
@  #04 @143   ----------------------------------------
 .byte   W48
 .byte   W48
@  #04 @144   ----------------------------------------
 .byte   W48
 .byte   W48
@  #04 @145   ----------------------------------------
 .byte   W48
 .byte   W48
@  #04 @146   ----------------------------------------
 .byte   W48
 .byte   W48
@  #04 @147   ----------------------------------------
 .byte   W48
 .byte   W48
@  #04 @148   ----------------------------------------
 .byte   W48
 .byte   W48
@  #04 @149   ----------------------------------------
 .byte   W48
 .byte   W48
@  #04 @150   ----------------------------------------
 .byte   W48
 .byte   W48
@  #04 @151   ----------------------------------------
 .byte   W48
 .byte   W48
@  #04 @152   ----------------------------------------
 .byte   W48
 .byte   W48
@  #04 @153   ----------------------------------------
 .byte   W48
 .byte   W48
@  #04 @154   ----------------------------------------
 .byte   W48
 .byte   W48
@  #04 @155   ----------------------------------------
 .byte   W48
 .byte   W48
@  #04 @156   ----------------------------------------
 .byte   W48
 .byte   W48
@  #04 @157   ----------------------------------------
 .byte   W48
 .byte   W48
@  #04 @158   ----------------------------------------
 .byte   W48
 .byte   W48
@  #04 @159   ----------------------------------------
 .byte   W48
 .byte   W48
@  #04 @160   ----------------------------------------
 .byte   W48
 .byte   W48
@  #04 @161   ----------------------------------------
 .byte   W48
 .byte   W48
@  #04 @162   ----------------------------------------
 .byte   W48
 .byte   W48
@  #04 @163   ----------------------------------------
 .byte   W48
 .byte   W48
@  #04 @164   ----------------------------------------
 .byte   W48
 .byte   W48
@  #04 @165   ----------------------------------------
 .byte   W48
 .byte   W48
@  #04 @166   ----------------------------------------
 .byte   W48
 .byte   W48
@  #04 @167   ----------------------------------------
 .byte   W48
 .byte   W48
@  #04 @168   ----------------------------------------
 .byte   W48
 .byte   W48
@  #04 @169   ----------------------------------------
 .byte   W48
 .byte   W48
@  #04 @170   ----------------------------------------
 .byte   W48
 .byte   W48
@  #04 @171   ----------------------------------------
 .byte   W48
 .byte   W48
@  #04 @172   ----------------------------------------
 .byte   W48
 .byte   W48
@  #04 @173   ----------------------------------------
 .byte   W48
 .byte   W48
@  #04 @174   ----------------------------------------
 .byte   W48
 .byte   W48
@  #04 @175   ----------------------------------------
 .byte   W48
 .byte   W48
@  #04 @176   ----------------------------------------
 .byte   W48
 .byte   W48
@  #04 @177   ----------------------------------------
 .byte   W48
 .byte   W48
@  #04 @178   ----------------------------------------
 .byte   W48
 .byte   W48
@  #04 @179   ----------------------------------------
 .byte   W48
 .byte   W48
@  #04 @180   ----------------------------------------
 .byte   W48
 .byte   W48
@  #04 @181   ----------------------------------------
 .byte   W48
 .byte   W48
@  #04 @182   ----------------------------------------
 .byte   W48
 .byte   W48
@  #04 @183   ----------------------------------------
 .byte   W48
 .byte   W48
@  #04 @184   ----------------------------------------
 .byte   W48
 .byte   N44 ,Fs2
 .byte   W48
@  #04 @185   ----------------------------------------
Label_011309E2:
 .byte   N32 ,Gs2 ,v080
 .byte   W36
 .byte   N32
 .byte   W12
 .byte   PEND 
 .byte   W24
 .byte   N23
 .byte   W24
@  #04 @186   ----------------------------------------
 .byte   N44 ,As2
 .byte   W48
 .byte   N44
 .byte   W48
@  #04 @187   ----------------------------------------
 .byte   PATT
  .word Label_011309E2
@  #04 @188   ----------------------------------------
 .byte   W24
 .byte   N23 ,Gs2 ,v080
 .byte   W24
 .byte   W48
@  #04 @189   ----------------------------------------
 .byte   N44 ,Fs2
 .byte   W48
Label_011309FF:
 .byte   N32 ,Fs2 ,v080
 .byte   W36
 .byte   N32
 .byte   W12
 .byte   PEND 
@  #04 @190   ----------------------------------------
 .byte   W24
 .byte   N23
 .byte   W24
 .byte   TIE ,Fn2
 .byte   W48
@  #04 @191   ----------------------------------------
 .byte   W48
 .byte   W48
@  #04 @192   ----------------------------------------
 .byte   W44
 .byte   W03
 .byte   EOT
 .byte   W01
 .byte   TIE ,Gn2
 .byte   W48
@  #04 @193   ----------------------------------------
 .byte   W48
 .byte   W48
@  #04 @194   ----------------------------------------
 .byte   W44
 .byte   W03
 .byte   EOT
 .byte   W01
 .byte   W24
 .byte   N23 ,Cn3
 .byte   W24
@  #04 @195   ----------------------------------------
 .byte   PATT
  .word Label_0113075D
@  #04 @196   ----------------------------------------
 .byte   PATT
  .word Label_01130764
@  #04 @197   ----------------------------------------
 .byte   PATT
  .word Label_0113076B
@  #04 @198   ----------------------------------------
 .byte   PATT
  .word Label_01130772
@  #04 @199   ----------------------------------------
 .byte   PATT
  .word Label_0113077A
@  #04 @200   ----------------------------------------
 .byte   N92 ,Gn2 ,v080
 .byte   W48
 .byte   W11
 .byte   EOT
 .byte   An2
 .byte   W01
 .byte   N11 ,Bn2
 .byte   W12
 .byte   Cn3
 .byte   W12
 .byte   Dn3
 .byte   W12
@  #04 @201   ----------------------------------------
 .byte   PATT
  .word Label_01130791
@  #04 @202   ----------------------------------------
 .byte   PATT
  .word Label_01130799
@  #04 @203   ----------------------------------------
 .byte   N44 ,Cn3 ,v080
 .byte   W48
@  #04 @204   ----------------------------------------
 .byte   PATT
  .word Label_011307A6
@  #04 @205   ----------------------------------------
 .byte   N44 ,Dn3 ,v080
 .byte   N44 ,Gn3
 .byte   W48
 .byte   Fn3
 .byte   W48
@  #04 @206   ----------------------------------------
 .byte   En3
 .byte   W48
 .byte   Dn3
 .byte   W48
@  #04 @207   ----------------------------------------
 .byte   GOTO
  .word Label_011307B9
@  #04 @208   ----------------------------------------
 .byte   W48
 .byte   W48
@  #04 @209   ----------------------------------------
 .byte   W48
 .byte   W48
@  #04 @210   ----------------------------------------
 .byte   W48
 .byte   W48
@  #04 @211   ----------------------------------------
 .byte   W48
 .byte   W48
@  #04 @212   ----------------------------------------
 .byte   W48
 .byte   W48
@  #04 @213   ----------------------------------------
 .byte   W48
 .byte   W48
@  #04 @214   ----------------------------------------
 .byte   W48
 .byte   W48
@  #04 @215   ----------------------------------------
 .byte   W48
 .byte   W48
@  #04 @216   ----------------------------------------
 .byte   W48
 .byte   W48
@  #04 @217   ----------------------------------------
 .byte   W48
 .byte   W48
@  #04 @218   ----------------------------------------
 .byte   W48
 .byte   W48
@  #04 @219   ----------------------------------------
 .byte   W48
 .byte   W48
@  #04 @220   ----------------------------------------
 .byte   W48
 .byte   W48
@  #04 @221   ----------------------------------------
 .byte   W48
 .byte   W48
@  #04 @222   ----------------------------------------
 .byte   W48
 .byte   W48
@  #04 @223   ----------------------------------------
 .byte   W48
 .byte   W48
@  #04 @224   ----------------------------------------
 .byte   W48
 .byte   W48
@  #04 @225   ----------------------------------------
 .byte   W48
 .byte   W48
@  #04 @226   ----------------------------------------
 .byte   W48
 .byte   W48
@  #04 @227   ----------------------------------------
 .byte   W48
 .byte   W48
@  #04 @228   ----------------------------------------
 .byte   W48
 .byte   W48
@  #04 @229   ----------------------------------------
 .byte   W48
 .byte   W48
@  #04 @230   ----------------------------------------
 .byte   W48
 .byte   W48
@  #04 @231   ----------------------------------------
 .byte   W48
 .byte   W48
@  #04 @232   ----------------------------------------
 .byte   W48
 .byte   W48
@  #04 @233   ----------------------------------------
 .byte   W48
 .byte   W48
@  #04 @234   ----------------------------------------
 .byte   W48
 .byte   W48
@  #04 @235   ----------------------------------------
 .byte   W48
 .byte   W48
@  #04 @236   ----------------------------------------
 .byte   W48
 .byte   W48
@  #04 @237   ----------------------------------------
 .byte   W48
 .byte   W48
@  #04 @238   ----------------------------------------
 .byte   W48
 .byte   W48
@  #04 @239   ----------------------------------------
 .byte   W48
 .byte   W48
@  #04 @240   ----------------------------------------
 .byte   W48
 .byte   W48
@  #04 @241   ----------------------------------------
 .byte   W48
 .byte   W48
@  #04 @242   ----------------------------------------
 .byte   W48
 .byte   W48
@  #04 @243   ----------------------------------------
 .byte   W48
 .byte   W48
@  #04 @244   ----------------------------------------
 .byte   W48
 .byte   W48
@  #04 @245   ----------------------------------------
 .byte   W48
 .byte   W48
@  #04 @246   ----------------------------------------
 .byte   W48
 .byte   W48
@  #04 @247   ----------------------------------------
 .byte   W48
 .byte   W48
@  #04 @248   ----------------------------------------
 .byte   W48
 .byte   W48
@  #04 @249   ----------------------------------------
 .byte   W48
 .byte   W48
@  #04 @250   ----------------------------------------
 .byte   W48
 .byte   W48
@  #04 @251   ----------------------------------------
 .byte   W48
 .byte   W48
@  #04 @252   ----------------------------------------
 .byte   W48
 .byte   W48
@  #04 @253   ----------------------------------------
 .byte   W48
 .byte   W48
@  #04 @254   ----------------------------------------
 .byte   W48
 .byte   W48
@  #04 @255   ----------------------------------------
 .byte   W24
 .byte   N23 ,Gn3 ,v064
 .byte   W24
@  #04 @256   ----------------------------------------
 .byte   PATT
  .word Label_0113081C
@  #04 @257   ----------------------------------------
 .byte   N92 ,Dn3 ,v064
 .byte   W48
 .byte   W48
@  #04 @258   ----------------------------------------
 .byte   W24
 .byte   N23 ,Gn3
 .byte   W24
@  #04 @259   ----------------------------------------
 .byte   PATT
  .word Label_0113081C
@  #04 @260   ----------------------------------------
 .byte   PATT
  .word Label_01130830
@  #04 @261   ----------------------------------------
 .byte   W48
 .byte   W24
 .byte   N23 ,Cn3 ,v064
 .byte   W24
@  #04 @262   ----------------------------------------
 .byte   PATT
  .word Label_0113083D
@  #04 @263   ----------------------------------------
 .byte   N92 ,Cn3 ,v064
 .byte   W48
 .byte   W48
@  #04 @264   ----------------------------------------
 .byte   W24
 .byte   N23
 .byte   W24
@  #04 @265   ----------------------------------------
 .byte   PATT
  .word Label_0113083D
@  #04 @266   ----------------------------------------
 .byte   PATT
  .word Label_01130850
@  #04 @267   ----------------------------------------
 .byte   W48
 .byte   W48
@  #04 @268   ----------------------------------------
 .byte   W23
 .byte   EOT
 .byte   An2
 .byte   W24
 .byte   W01
 .byte   W48
@  #04 @269   ----------------------------------------
 .byte   W48
 .byte   W48
@  #04 @270   ----------------------------------------
 .byte   W48
 .byte   W48
@  #04 @271   ----------------------------------------
 .byte   W48
 .byte   W48
@  #04 @272   ----------------------------------------
 .byte   W48
 .byte   W48
@  #04 @273   ----------------------------------------
 .byte   W48
 .byte   W48
@  #04 @274   ----------------------------------------
 .byte   W48
 .byte   W48
@  #04 @275   ----------------------------------------
 .byte   W48
 .byte   W48
@  #04 @276   ----------------------------------------
 .byte   W48
 .byte   W48
@  #04 @277   ----------------------------------------
 .byte   W48
 .byte   W48
@  #04 @278   ----------------------------------------
 .byte   W48
 .byte   W48
@  #04 @279   ----------------------------------------
 .byte   W48
 .byte   W48
@  #04 @280   ----------------------------------------
 .byte   W48
 .byte   W48
@  #04 @281   ----------------------------------------
 .byte   W48
 .byte   W48
@  #04 @282   ----------------------------------------
 .byte   W48
 .byte   W48
@  #04 @283   ----------------------------------------
 .byte   W48
 .byte   W48
@  #04 @284   ----------------------------------------
 .byte   PATT
  .word Label_0113087D
@  #04 @285   ----------------------------------------
 .byte   N56 ,Cn4 ,v080
 .byte   W48
@  #04 @286   ----------------------------------------
 .byte   PATT
  .word Label_01130888
@  #04 @287   ----------------------------------------
 .byte   N56 ,An3 ,v080
 .byte   W48
@  #04 @288   ----------------------------------------
 .byte   PATT
  .word Label_01130895
@  #04 @289   ----------------------------------------
 .byte   PATT
  .word Label_0113089F
@  #04 @290   ----------------------------------------
 .byte   W48
 .byte   W44
 .byte   W03
 .byte   EOT
 .byte   En3
 .byte   W01
@  #04 @291   ----------------------------------------
 .byte   PATT
  .word Label_0113087D
@  #04 @292   ----------------------------------------
 .byte   N56 ,Cn4 ,v080
 .byte   W48
@  #04 @293   ----------------------------------------
 .byte   PATT
  .word Label_01130888
@  #04 @294   ----------------------------------------
 .byte   N56 ,An3 ,v080
 .byte   W48
@  #04 @295   ----------------------------------------
 .byte   PATT
  .word Label_011308C4
@  #04 @296   ----------------------------------------
 .byte   PATT
  .word Label_011308CE
@  #04 @297   ----------------------------------------
 .byte   W48
 .byte   W44
 .byte   W03
 .byte   EOT
 .byte   Gn3
 .byte   W01
@  #04 @298   ----------------------------------------
 .byte   PATT
  .word Label_011308DD
@  #04 @299   ----------------------------------------
 .byte   N56 ,Cn4 ,v080
 .byte   W48
@  #04 @300   ----------------------------------------
 .byte   PATT
  .word Label_01130888
@  #04 @301   ----------------------------------------
 .byte   N56 ,An3 ,v080
 .byte   W48
@  #04 @302   ----------------------------------------
 .byte   PATT
  .word Label_01130895
@  #04 @303   ----------------------------------------
 .byte   PATT
  .word Label_011308F8
@  #04 @304   ----------------------------------------
 .byte   PATT
  .word Label_01130902
@  #04 @305   ----------------------------------------
 .byte   W48
@  #04 @306   ----------------------------------------
 .byte   PATT
  .word Label_0113090C
@  #04 @307   ----------------------------------------
 .byte   PATT
  .word Label_01130914
@  #04 @308   ----------------------------------------
 .byte   PATT
  .word Label_0113091E
@  #04 @309   ----------------------------------------
 .byte   W48
 .byte   N44 ,Dn3 ,v080
 .byte   W48
@  #04 @310   ----------------------------------------
 .byte   PATT
  .word Label_0113092A
@  #04 @311   ----------------------------------------
 .byte   W48
 .byte   W48
@  #04 @312   ----------------------------------------
 .byte   W44
 .byte   W03
 .byte   EOT
 .byte   En3
 .byte   W01
 .byte   W48
@  #04 @313   ----------------------------------------
 .byte   W48
 .byte   W48
@  #04 @314   ----------------------------------------
 .byte   W48
 .byte   W48
@  #04 @315   ----------------------------------------
 .byte   W48
 .byte   W48
@  #04 @316   ----------------------------------------
 .byte   W48
 .byte   W48
@  #04 @317   ----------------------------------------
 .byte   W48
 .byte   W48
@  #04 @318   ----------------------------------------
 .byte   W48
 .byte   W48
@  #04 @319   ----------------------------------------
 .byte   W48
 .byte   W48
@  #04 @320   ----------------------------------------
 .byte   W48
 .byte   W48
@  #04 @321   ----------------------------------------
 .byte   W48
 .byte   W48
@  #04 @322   ----------------------------------------
 .byte   W48
 .byte   W48
@  #04 @323   ----------------------------------------
 .byte   W48
 .byte   W48
@  #04 @324   ----------------------------------------
 .byte   W48
 .byte   W48
@  #04 @325   ----------------------------------------
 .byte   W48
 .byte   W48
@  #04 @326   ----------------------------------------
 .byte   W48
 .byte   W48
@  #04 @327   ----------------------------------------
 .byte   W48
 .byte   W48
@  #04 @328   ----------------------------------------
 .byte   W48
 .byte   W48
@  #04 @329   ----------------------------------------
 .byte   W48
 .byte   W48
@  #04 @330   ----------------------------------------
 .byte   W48
 .byte   W48
@  #04 @331   ----------------------------------------
 .byte   W48
 .byte   W48
@  #04 @332   ----------------------------------------
 .byte   W48
 .byte   W48
@  #04 @333   ----------------------------------------
 .byte   W48
 .byte   W48
@  #04 @334   ----------------------------------------
 .byte   W48
 .byte   W48
@  #04 @335   ----------------------------------------
 .byte   W48
 .byte   W48
@  #04 @336   ----------------------------------------
 .byte   W48
 .byte   W48
@  #04 @337   ----------------------------------------
 .byte   W48
 .byte   W48
@  #04 @338   ----------------------------------------
 .byte   W48
 .byte   W48
@  #04 @339   ----------------------------------------
 .byte   W48
 .byte   W48
@  #04 @340   ----------------------------------------
 .byte   W48
 .byte   W48
@  #04 @341   ----------------------------------------
 .byte   W48
 .byte   W48
@  #04 @342   ----------------------------------------
 .byte   W48
 .byte   W48
@  #04 @343   ----------------------------------------
 .byte   W48
 .byte   W48
@  #04 @344   ----------------------------------------
 .byte   W48
 .byte   W48
@  #04 @345   ----------------------------------------
 .byte   W48
 .byte   W48
@  #04 @346   ----------------------------------------
 .byte   W48
 .byte   W48
@  #04 @347   ----------------------------------------
 .byte   W48
 .byte   W48
@  #04 @348   ----------------------------------------
 .byte   W48
 .byte   W48
@  #04 @349   ----------------------------------------
 .byte   W48
 .byte   W48
@  #04 @350   ----------------------------------------
 .byte   W48
 .byte   W48
@  #04 @351   ----------------------------------------
 .byte   W48
 .byte   W48
@  #04 @352   ----------------------------------------
 .byte   W48
 .byte   W48
@  #04 @353   ----------------------------------------
 .byte   W48
 .byte   W48
@  #04 @354   ----------------------------------------
 .byte   W48
 .byte   W48
@  #04 @355   ----------------------------------------
 .byte   W48
 .byte   W48
@  #04 @356   ----------------------------------------
 .byte   W48
 .byte   W48
@  #04 @357   ----------------------------------------
 .byte   W48
 .byte   W48
@  #04 @358   ----------------------------------------
 .byte   W48
 .byte   W48
@  #04 @359   ----------------------------------------
 .byte   W48
 .byte   W48
@  #04 @360   ----------------------------------------
 .byte   W48
 .byte   W48
@  #04 @361   ----------------------------------------
 .byte   W48
 .byte   W48
@  #04 @362   ----------------------------------------
 .byte   W48
 .byte   W48
@  #04 @363   ----------------------------------------
 .byte   W48
 .byte   W48
@  #04 @364   ----------------------------------------
 .byte   W48
 .byte   W48
@  #04 @365   ----------------------------------------
 .byte   W48
 .byte   W48
@  #04 @366   ----------------------------------------
 .byte   W48
 .byte   W48
@  #04 @367   ----------------------------------------
 .byte   W48
 .byte   W48
@  #04 @368   ----------------------------------------
 .byte   W48
 .byte   W48
@  #04 @369   ----------------------------------------
 .byte   W48
 .byte   W48
@  #04 @370   ----------------------------------------
 .byte   W48
 .byte   W48
@  #04 @371   ----------------------------------------
 .byte   W48
 .byte   W48
@  #04 @372   ----------------------------------------
 .byte   W48
 .byte   W48
@  #04 @373   ----------------------------------------
 .byte   W48
 .byte   W48
@  #04 @374   ----------------------------------------
 .byte   W48
 .byte   W48
@  #04 @375   ----------------------------------------
 .byte   W48
 .byte   W48
@  #04 @376   ----------------------------------------
 .byte   W48
 .byte   W48
@  #04 @377   ----------------------------------------
 .byte   W48
 .byte   W48
@  #04 @378   ----------------------------------------
 .byte   W48
 .byte   W48
@  #04 @379   ----------------------------------------
 .byte   W48
 .byte   W48
@  #04 @380   ----------------------------------------
 .byte   W48
 .byte   W48
@  #04 @381   ----------------------------------------
 .byte   W48
 .byte   W48
@  #04 @382   ----------------------------------------
 .byte   W48
 .byte   W48
@  #04 @383   ----------------------------------------
 .byte   W48
 .byte   W48
@  #04 @384   ----------------------------------------
 .byte   W48
 .byte   W48
@  #04 @385   ----------------------------------------
 .byte   W48
 .byte   W48
@  #04 @386   ----------------------------------------
 .byte   W48
 .byte   W48
@  #04 @387   ----------------------------------------
 .byte   W48
 .byte   W48
@  #04 @388   ----------------------------------------
 .byte   W48
 .byte   W48
@  #04 @389   ----------------------------------------
 .byte   W48
 .byte   W48
@  #04 @390   ----------------------------------------
 .byte   W48
 .byte   W48
@  #04 @391   ----------------------------------------
 .byte   W48
 .byte   W48
@  #04 @392   ----------------------------------------
 .byte   W48
 .byte   W48
@  #04 @393   ----------------------------------------
 .byte   W48
 .byte   W48
@  #04 @394   ----------------------------------------
 .byte   W48
 .byte   W48
@  #04 @395   ----------------------------------------
 .byte   N44 ,Fs2 ,v080
 .byte   W48
@  #04 @396   ----------------------------------------
 .byte   PATT
  .word Label_011309E2
@  #04 @397   ----------------------------------------
 .byte   W24
 .byte   N23 ,Gs2 ,v080
 .byte   W24
 .byte   N44 ,As2
 .byte   W48
@  #04 @398   ----------------------------------------
 .byte   N44
 .byte   W48
@  #04 @399   ----------------------------------------
 .byte   PATT
  .word Label_011309E2
@  #04 @400   ----------------------------------------
 .byte   W24
 .byte   N23 ,Gs2 ,v080
 .byte   W24
 .byte   W48
@  #04 @401   ----------------------------------------
 .byte   N44 ,Fs2
 .byte   W48
@  #04 @402   ----------------------------------------
 .byte   PATT
  .word Label_011309FF
@  #04 @403   ----------------------------------------
 .byte   W24
 .byte   N23 ,Fs2 ,v080
 .byte   W24
 .byte   TIE ,Fn2
 .byte   W48
@  #04 @404   ----------------------------------------
 .byte   W48
 .byte   W48
@  #04 @405   ----------------------------------------
 .byte   W44
 .byte   W03
 .byte   EOT
 .byte   W01
 .byte   TIE ,Gn2
 .byte   W48
@  #04 @406   ----------------------------------------
 .byte   W48
 .byte   W48
@  #04 @407   ----------------------------------------
 .byte   W44
 .byte   W03
 .byte   EOT
 .byte   FINE

@**************** Track 5 (Midi-Chn.4) ****************@

.align 2, 0
song06_005:
@  #05 @000   ----------------------------------------
 .byte   KEYSH , song06_key+0
 .byte   VOICE , 46
 .byte   VOL , 47*song06_mvl/mxv
 .byte   PAN , c_v+0
 .byte   VOL , 38*song06_mvl/mxv
 .byte   PAN , c_v+14
 .byte   VOL , 47*song06_mvl/mxv
 .byte   PAN , c_v+0
 .byte   VOL , 47*song06_mvl/mxv
 .byte   PAN , c_v+6
 .byte   VOL , 47*song06_mvl/mxv
 .byte   PAN , c_v+0
 .byte   W48
 .byte   W48
@  #05 @001   ----------------------------------------
 .byte   W48
 .byte   W48
@  #05 @002   ----------------------------------------
 .byte   W48
 .byte   W48
@  #05 @003   ----------------------------------------
 .byte   W48
 .byte   W48
@  #05 @004   ----------------------------------------
 .byte   W48
 .byte   W48
@  #05 @005   ----------------------------------------
 .byte   W48
 .byte   W48
@  #05 @006   ----------------------------------------
 .byte   W48
 .byte   W48
@  #05 @007   ----------------------------------------
 .byte   W48
 .byte   W48
@  #05 @008   ----------------------------------------
Label_01130CBC:
 .byte   N32 ,An1 ,v052
 .byte   N32 ,An2
 .byte   N32 ,Cn3
 .byte   N11 ,Bn3 ,v080
 .byte   W12
 .byte   Cn4
 .byte   W12
 .byte   En4
 .byte   W12
 .byte   An1 ,v052
 .byte   N11 ,An2
 .byte   N11 ,Bn2
 .byte   N11 ,Gn4 ,v080
 .byte   W12
 .byte   PEND 
Label_01130CD6:
 .byte   W12
 .byte   N11 ,An1 ,v052
 .byte   N11 ,An2
 .byte   N11 ,Bn2
 .byte   N11 ,Gn4 ,v080
 .byte   W12
 .byte   Bn4
 .byte   W12
 .byte   N05 ,An1 ,v052
 .byte   N05 ,An2
 .byte   N05 ,Bn2
 .byte   N11 ,Cn5 ,v080
 .byte   W12
 .byte   PEND 
@  #05 @009   ----------------------------------------
Label_01130CF0:
 .byte   N32 ,An1 ,v052
 .byte   N32 ,An2
 .byte   N32 ,Cn3
 .byte   W12
 .byte   N11 ,Bn4 ,v080
 .byte   W12
 .byte   Gn4
 .byte   W12
 .byte   An1 ,v052
 .byte   N11 ,An2
 .byte   N11 ,Bn2
 .byte   N11 ,Dn4 ,v080
 .byte   W12
 .byte   PEND 
Label_01130D09:
 .byte   W12
 .byte   N11 ,An1 ,v052
 .byte   N11 ,An2
 .byte   N11 ,Bn2
 .byte   N11 ,Cn4 ,v080
 .byte   W12
 .byte   Bn3
 .byte   W12
 .byte   N05 ,An1 ,v052
 .byte   N05 ,An2
 .byte   N05 ,Bn2
 .byte   N11 ,Cn4 ,v080
 .byte   W12
 .byte   PEND 
@  #05 @010   ----------------------------------------
 .byte   PATT
  .word Label_01130CBC
@  #05 @011   ----------------------------------------
 .byte   PATT
  .word Label_01130CD6
@  #05 @012   ----------------------------------------
 .byte   PATT
  .word Label_01130CF0
@  #05 @013   ----------------------------------------
 .byte   PATT
  .word Label_01130D09
@  #05 @014   ----------------------------------------
Label_01130D37:
 .byte   N64 ,AnM1 ,v096
 .byte   N32 ,An1 ,v052
 .byte   N32 ,An2
 .byte   N32 ,Cn3
 .byte   N11 ,Bn3 ,v080
 .byte   W03
 .byte   W01
 .byte   W01
 .byte   W07
 .byte   Cn4
 .byte   W12
 .byte   En4
 .byte   W12
 .byte   An1 ,v052
 .byte   N11 ,An2
 .byte   N11 ,Bn2
 .byte   N11 ,Gn4 ,v080
 .byte   W12
 .byte   PEND 
@  #05 @015   ----------------------------------------
 .byte   PATT
  .word Label_01130CD6
@  #05 @016   ----------------------------------------
 .byte   PATT
  .word Label_01130CF0
@  #05 @017   ----------------------------------------
 .byte   PATT
  .word Label_01130D09
@  #05 @018   ----------------------------------------
Label_01130D66:
 .byte   N32 ,An1 ,v052
 .byte   N32 ,An2
 .byte   N32 ,Cn3
 .byte   N11 ,Bn3 ,v080
 .byte   W12
 .byte   Cn4
 .byte   W12
 .byte   En4
 .byte   W01
 .byte   W11
 .byte   An1 ,v052
 .byte   N11 ,An2
 .byte   N11 ,Bn2
 .byte   N11 ,Gn4 ,v080
 .byte   W02
 .byte   W10
 .byte   PEND 
Label_01130D82:
 .byte   W03
 .byte   W09
 .byte   N11 ,An1 ,v056
 .byte   N11 ,An2
 .byte   N11 ,Bn2
 .byte   N11 ,Gn4 ,v080
 .byte   W04
 .byte   W08
 .byte   Bn4
 .byte   W04
 .byte   W08
 .byte   N05 ,An1 ,v056
 .byte   N05 ,An2
 .byte   N05 ,Bn2
 .byte   N11 ,Cn5 ,v080
 .byte   W05
 .byte   W07
 .byte   PEND 
@  #05 @019   ----------------------------------------
Label_01130DA0:
 .byte   N32 ,An1 ,v056
 .byte   N32 ,An2
 .byte   N32 ,Cn3
 .byte   N11 ,Cn4
 .byte   W06
 .byte   W06
 .byte   Cn4 ,v060
 .byte   N11 ,Bn4 ,v080
 .byte   W07
 .byte   W05
 .byte   Cn4 ,v060
 .byte   N11 ,Gn4 ,v080
 .byte   W08
 .byte   W04
 .byte   An1 ,v060
 .byte   N11 ,An2
 .byte   N11 ,Bn2
 .byte   N23 ,Bn3
 .byte   N11 ,Dn4 ,v080
 .byte   W08
 .byte   W04
 .byte   PEND 
Label_01130DC7:
 .byte   W09
 .byte   W03
 .byte   N11 ,An1 ,v064
 .byte   N11 ,An2
 .byte   N11 ,Bn2
 .byte   N11 ,Cn4
 .byte   W10
 .byte   W02
 .byte   Bn3
 .byte   W11
 .byte   W01
 .byte   N05 ,An1
 .byte   N05 ,An2
 .byte   N05 ,Bn2
 .byte   N11 ,Gn3
 .byte   N11 ,Cn4 ,v080
 .byte   W12
 .byte   PEND 
@  #05 @020   ----------------------------------------
Label_01130DE4:
 .byte   N11 ,Bn3 ,v080
 .byte   W12
 .byte   Cn4
 .byte   W12
 .byte   En4
 .byte   W12
 .byte   Gn4
 .byte   W12
 .byte   PEND 
Label_01130DEF:
 .byte   W12
 .byte   N11 ,Gn4 ,v080
 .byte   W12
 .byte   Bn4
 .byte   W12
 .byte   Cn5
 .byte   W12
 .byte   PEND 
@  #05 @021   ----------------------------------------
Label_01130DF9:
 .byte   W12
 .byte   N11 ,Bn4 ,v080
 .byte   W12
 .byte   Gn4
 .byte   W12
 .byte   Dn4
 .byte   W12
 .byte   PEND 
Label_01130E03:
 .byte   W12
 .byte   N11 ,Cn4 ,v080
 .byte   W12
 .byte   Bn3
 .byte   W12
 .byte   Cn4
 .byte   W12
 .byte   PEND 
@  #05 @022   ----------------------------------------
 .byte   PATT
  .word Label_01130DE4
@  #05 @023   ----------------------------------------
 .byte   PATT
  .word Label_01130DEF
@  #05 @024   ----------------------------------------
 .byte   PATT
  .word Label_01130DF9
@  #05 @025   ----------------------------------------
 .byte   PATT
  .word Label_01130E03
@  #05 @026   ----------------------------------------
 .byte   PATT
  .word Label_01130DE4
@  #05 @027   ----------------------------------------
 .byte   PATT
  .word Label_01130DEF
@  #05 @028   ----------------------------------------
 .byte   PATT
  .word Label_01130DF9
@  #05 @029   ----------------------------------------
 .byte   PATT
  .word Label_01130E03
@  #05 @030   ----------------------------------------
 .byte   PATT
  .word Label_01130DE4
@  #05 @031   ----------------------------------------
 .byte   PATT
  .word Label_01130DEF
@  #05 @032   ----------------------------------------
 .byte   PATT
  .word Label_01130DF9
@  #05 @033   ----------------------------------------
 .byte   PATT
  .word Label_01130E03
@  #05 @034   ----------------------------------------
 .byte   PATT
  .word Label_01130DE4
@  #05 @035   ----------------------------------------
 .byte   PATT
  .word Label_01130DEF
@  #05 @036   ----------------------------------------
 .byte   PATT
  .word Label_01130DF9
@  #05 @037   ----------------------------------------
 .byte   PATT
  .word Label_01130E03
@  #05 @038   ----------------------------------------
 .byte   PATT
  .word Label_01130DE4
@  #05 @039   ----------------------------------------
 .byte   PATT
  .word Label_01130DEF
@  #05 @040   ----------------------------------------
 .byte   PATT
  .word Label_01130DF9
@  #05 @041   ----------------------------------------
 .byte   PATT
  .word Label_01130E03
@  #05 @042   ----------------------------------------
 .byte   PATT
  .word Label_01130DE4
@  #05 @043   ----------------------------------------
 .byte   PATT
  .word Label_01130DEF
@  #05 @044   ----------------------------------------
 .byte   PATT
  .word Label_01130DF9
@  #05 @045   ----------------------------------------
 .byte   PATT
  .word Label_01130E03
@  #05 @046   ----------------------------------------
 .byte   PATT
  .word Label_01130DE4
@  #05 @047   ----------------------------------------
 .byte   PATT
  .word Label_01130DEF
@  #05 @048   ----------------------------------------
 .byte   PATT
  .word Label_01130DF9
@  #05 @049   ----------------------------------------
 .byte   PATT
  .word Label_01130E03
@  #05 @050   ----------------------------------------
Label_01130E99:
 .byte   N11 ,Bn3 ,v064
 .byte   W12
 .byte   Cn4
 .byte   W12
 .byte   En4
 .byte   W12
 .byte   Gn4
 .byte   W12
 .byte   PEND 
Label_01130EA4:
 .byte   W12
 .byte   N11 ,Gn4 ,v064
 .byte   W12
 .byte   Bn4
 .byte   W12
 .byte   Cn5
 .byte   W12
 .byte   PEND 
@  #05 @051   ----------------------------------------
Label_01130EAE:
 .byte   W12
 .byte   N11 ,Bn4 ,v064
 .byte   W12
 .byte   Gn4
 .byte   W12
 .byte   Dn4
 .byte   W12
 .byte   PEND 
Label_01130EB8:
 .byte   W12
 .byte   N11 ,Cn4 ,v064
 .byte   W12
 .byte   Bn3
 .byte   W12
 .byte   Cn4
 .byte   W12
 .byte   PEND 
@  #05 @052   ----------------------------------------
 .byte   PATT
  .word Label_01130E99
@  #05 @053   ----------------------------------------
 .byte   PATT
  .word Label_01130EA4
@  #05 @054   ----------------------------------------
 .byte   PATT
  .word Label_01130EAE
@  #05 @055   ----------------------------------------
 .byte   PATT
  .word Label_01130EB8
@  #05 @056   ----------------------------------------
 .byte   PATT
  .word Label_01130E99
@  #05 @057   ----------------------------------------
 .byte   PATT
  .word Label_01130EA4
@  #05 @058   ----------------------------------------
 .byte   PATT
  .word Label_01130EAE
@  #05 @059   ----------------------------------------
 .byte   PATT
  .word Label_01130EB8
@  #05 @060   ----------------------------------------
 .byte   PATT
  .word Label_01130E99
@  #05 @061   ----------------------------------------
 .byte   PATT
  .word Label_01130EA4
@  #05 @062   ----------------------------------------
 .byte   PATT
  .word Label_01130EAE
@  #05 @063   ----------------------------------------
 .byte   PATT
  .word Label_01130EB8
@  #05 @064   ----------------------------------------
 .byte   PATT
  .word Label_01130E99
@  #05 @065   ----------------------------------------
 .byte   PATT
  .word Label_01130EA4
@  #05 @066   ----------------------------------------
 .byte   PATT
  .word Label_01130EAE
@  #05 @067   ----------------------------------------
 .byte   PATT
  .word Label_01130EB8
@  #05 @068   ----------------------------------------
 .byte   PATT
  .word Label_01130E99
@  #05 @069   ----------------------------------------
 .byte   PATT
  .word Label_01130EA4
@  #05 @070   ----------------------------------------
 .byte   PATT
  .word Label_01130EAE
@  #05 @071   ----------------------------------------
 .byte   PATT
  .word Label_01130EB8
@  #05 @072   ----------------------------------------
 .byte   PATT
  .word Label_01130E99
@  #05 @073   ----------------------------------------
 .byte   PATT
  .word Label_01130EA4
@  #05 @074   ----------------------------------------
 .byte   PATT
  .word Label_01130EAE
@  #05 @075   ----------------------------------------
 .byte   PATT
  .word Label_01130EB8
@  #05 @076   ----------------------------------------
 .byte   W48
 .byte   W48
@  #05 @077   ----------------------------------------
 .byte   W48
 .byte   W48
@  #05 @078   ----------------------------------------
 .byte   W48
 .byte   W48
@  #05 @079   ----------------------------------------
 .byte   W48
 .byte   W48
@  #05 @080   ----------------------------------------
 .byte   W48
 .byte   W48
@  #05 @081   ----------------------------------------
 .byte   W48
 .byte   W48
@  #05 @082   ----------------------------------------
 .byte   W48
 .byte   W48
@  #05 @083   ----------------------------------------
 .byte   W48
 .byte   W48
@  #05 @084   ----------------------------------------
 .byte   W48
 .byte   W48
@  #05 @085   ----------------------------------------
 .byte   W48
 .byte   W48
@  #05 @086   ----------------------------------------
 .byte   W48
 .byte   W48
@  #05 @087   ----------------------------------------
 .byte   W48
 .byte   W48
@  #05 @088   ----------------------------------------
 .byte   W48
 .byte   W48
@  #05 @089   ----------------------------------------
 .byte   W48
 .byte   W48
@  #05 @090   ----------------------------------------
 .byte   W48
 .byte   W48
@  #05 @091   ----------------------------------------
 .byte   W48
 .byte   W48
@  #05 @092   ----------------------------------------
 .byte   W48
 .byte   W48
@  #05 @093   ----------------------------------------
 .byte   W48
 .byte   W48
@  #05 @094   ----------------------------------------
Label_01130F5E:
 .byte   N11 ,En4 ,v064
 .byte   W12
 .byte   An3
 .byte   W12
 .byte   Dn4
 .byte   W12
 .byte   N22 ,En4
 .byte   W12
 .byte   PEND 
Label_01130F6A:
 .byte   W12
 .byte   N11 ,An3 ,v064
 .byte   W12
 .byte   Dn4
 .byte   W12
 .byte   En4
 .byte   W12
 .byte   PEND 
@  #05 @095   ----------------------------------------
Label_01130F74:
 .byte   W24
 .byte   N22 ,Bn4 ,v064
 .byte   N22 ,Bn5
 .byte   W24
 .byte   PEND 
Label_01130F7C:
 .byte   N22 ,Cn5 ,v064
 .byte   N22 ,Cn6
 .byte   W24
 .byte   Dn5
 .byte   N22 ,Dn6
 .byte   W24
 .byte   PEND 
@  #05 @096   ----------------------------------------
Label_01130F87:
 .byte   N11 ,En4 ,v064
 .byte   W12
 .byte   Bn3
 .byte   W12
 .byte   Cn4
 .byte   W12
 .byte   An4
 .byte   W12
 .byte   PEND 
Label_01130F92:
 .byte   N11 ,Cn4 ,v064
 .byte   W12
 .byte   Bn3
 .byte   W12
 .byte   Cn4
 .byte   W12
 .byte   Gn4
 .byte   W12
 .byte   PEND 
@  #05 @097   ----------------------------------------
 .byte   PATT
  .word Label_01130F74
@  #05 @098   ----------------------------------------
 .byte   PATT
  .word Label_01130F7C
@  #05 @099   ----------------------------------------
Label_01130FA7:
 .byte   N11 ,Dn4 ,v064
 .byte   W12
 .byte   Gn3
 .byte   W12
 .byte   Bn3
 .byte   W12
 .byte   Cn4
 .byte   W12
 .byte   PEND 
Label_01130FB2:
 .byte   N11 ,Gn3 ,v064
 .byte   W12
 .byte   En3
 .byte   W12
 .byte   Bn3
 .byte   W12
 .byte   Cn4
 .byte   W12
 .byte   PEND 
@  #05 @100   ----------------------------------------
 .byte   PATT
  .word Label_01130FB2
@  #05 @101   ----------------------------------------
 .byte   PATT
  .word Label_01130FB2
@  #05 @102   ----------------------------------------
 .byte   PATT
  .word Label_01130FA7
@  #05 @103   ----------------------------------------
 .byte   PATT
  .word Label_01130FB2
@  #05 @104   ----------------------------------------
 .byte   W48
 .byte   W48
@  #05 @105   ----------------------------------------
 .byte   PATT
  .word Label_01130F5E
@  #05 @106   ----------------------------------------
 .byte   PATT
  .word Label_01130F6A
@  #05 @107   ----------------------------------------
 .byte   PATT
  .word Label_01130F74
@  #05 @108   ----------------------------------------
 .byte   PATT
  .word Label_01130F7C
@  #05 @109   ----------------------------------------
 .byte   PATT
  .word Label_01130F87
@  #05 @110   ----------------------------------------
 .byte   PATT
  .word Label_01130F92
@  #05 @111   ----------------------------------------
 .byte   PATT
  .word Label_01130F74
@  #05 @112   ----------------------------------------
 .byte   PATT
  .word Label_01130F7C
@  #05 @113   ----------------------------------------
 .byte   PATT
  .word Label_01130FA7
@  #05 @114   ----------------------------------------
 .byte   PATT
  .word Label_01130FB2
@  #05 @115   ----------------------------------------
Label_01131005:
 .byte   N32 ,Bn4 ,v064
 .byte   N32 ,Bn5
 .byte   W36
 .byte   Gs4
 .byte   N32 ,Gs5
 .byte   W12
 .byte   PEND 
Label_01131010:
 .byte   W24
 .byte   N22 ,En4 ,v064
 .byte   N22 ,En5
 .byte   W24
 .byte   PEND 
@  #05 @116   ----------------------------------------
Label_01131018:
 .byte   N11 ,Gs4 ,v064
 .byte   N11 ,Gs5
 .byte   W12
 .byte   En3
 .byte   W12
 .byte   Gs3
 .byte   W12
 .byte   Cn4
 .byte   W12
 .byte   PEND 
Label_01131025:
 .byte   N11 ,Cn4 ,v064
 .byte   W12
 .byte   En3
 .byte   W12
 .byte   Gs3
 .byte   W12
 .byte   Cn4
 .byte   W12
 .byte   PEND 
@  #05 @117   ----------------------------------------
Label_01131030:
 .byte   N90 ,Bn3 ,v064
 .byte   W48
 .byte   PEND 
 .byte   W48
@  #05 @118   ----------------------------------------
 .byte   W48
 .byte   W48
@  #05 @119   ----------------------------------------
Label_01131038:
 .byte   W36
 .byte   N11 ,Bn3 ,v064
 .byte   W12
 .byte   PEND 
Label_0113103E:
 .byte   N11 ,Cn4 ,v064
 .byte   W12
 .byte   Gn4
 .byte   W12
 .byte   Dn4
 .byte   W24
 .byte   PEND 
@  #05 @120   ----------------------------------------
 .byte   W48
 .byte   W48
@  #05 @121   ----------------------------------------
Label_01131049:
 .byte   W36
 .byte   N11 ,Dn4 ,v064
 .byte   W12
 .byte   PEND 
Label_0113104F:
 .byte   N11 ,Cn4 ,v064
 .byte   W12
 .byte   Bn3
 .byte   W12
 .byte   An3
 .byte   W12
 .byte   Gn3
 .byte   W12
 .byte   PEND 
@  #05 @122   ----------------------------------------
 .byte   W48
 .byte   W48
@  #05 @123   ----------------------------------------
 .byte   W48
 .byte   W48
@  #05 @124   ----------------------------------------
 .byte   W48
 .byte   W48
@  #05 @125   ----------------------------------------
 .byte   W48
 .byte   W48
@  #05 @126   ----------------------------------------
 .byte   W48
 .byte   W48
@  #05 @127   ----------------------------------------
 .byte   W48
 .byte   W48
@  #05 @128   ----------------------------------------
 .byte   W48
 .byte   W48
@  #05 @129   ----------------------------------------
 .byte   W48
 .byte   W48
@  #05 @130   ----------------------------------------
 .byte   W48
 .byte   W48
@  #05 @131   ----------------------------------------
 .byte   W48
 .byte   W48
@  #05 @132   ----------------------------------------
 .byte   W48
 .byte   W48
@  #05 @133   ----------------------------------------
 .byte   W48
 .byte   W48
@  #05 @134   ----------------------------------------
 .byte   W48
 .byte   W48
@  #05 @135   ----------------------------------------
 .byte   W48
 .byte   W48
@  #05 @136   ----------------------------------------
Label_01131076:
 .byte   N22 ,An4 ,v064
 .byte   N22 ,Cn5
 .byte   W24
 .byte   N05 ,Dn4
 .byte   W06
 .byte   En4
 .byte   W06
 .byte   Fn4
 .byte   W06
 .byte   Gn4
 .byte   W06
 .byte   PEND 
Label_01131086:
 .byte   N05 ,An4 ,v064
 .byte   W06
 .byte   Gn4
 .byte   W06
 .byte   Fn4
 .byte   W06
 .byte   En4
 .byte   W06
 .byte   Fn4
 .byte   W06
 .byte   En4
 .byte   W06
 .byte   Dn4
 .byte   W06
 .byte   Cn4
 .byte   W06
 .byte   PEND 
@  #05 @137   ----------------------------------------
Label_01131099:
 .byte   N05 ,En4 ,v064
 .byte   W06
 .byte   Dn4
 .byte   W06
 .byte   Cn4
 .byte   W06
 .byte   Bn3
 .byte   W30
 .byte   PEND 
 .byte   W48
@  #05 @138   ----------------------------------------
 .byte   W48
 .byte   W48
@  #05 @139   ----------------------------------------
 .byte   W48
 .byte   W48
@  #05 @140   ----------------------------------------
 .byte   W48
 .byte   W48
@  #05 @141   ----------------------------------------
 .byte   W48
 .byte   W48
@  #05 @142   ----------------------------------------
 .byte   W48
 .byte   W48
@  #05 @143   ----------------------------------------
 .byte   W48
 .byte   W48
@  #05 @144   ----------------------------------------
 .byte   PATT
  .word Label_01131076
@  #05 @145   ----------------------------------------
 .byte   PATT
  .word Label_01131086
@  #05 @146   ----------------------------------------
 .byte   PATT
  .word Label_01131099
@  #05 @147   ----------------------------------------
 .byte   W48
 .byte   W48
@  #05 @148   ----------------------------------------
 .byte   W48
 .byte   W48
@  #05 @149   ----------------------------------------
 .byte   W48
 .byte   W48
@  #05 @150   ----------------------------------------
 .byte   W48
 .byte   W48
@  #05 @151   ----------------------------------------
 .byte   W48
 .byte   W48
@  #05 @152   ----------------------------------------
 .byte   W48
 .byte   W48
@  #05 @153   ----------------------------------------
 .byte   W48
 .byte   W48
@  #05 @154   ----------------------------------------
 .byte   W48
 .byte   W48
@  #05 @155   ----------------------------------------
 .byte   W48
 .byte   W48
@  #05 @156   ----------------------------------------
 .byte   W48
 .byte   W48
@  #05 @157   ----------------------------------------
 .byte   W48
 .byte   W48
@  #05 @158   ----------------------------------------
 .byte   W48
 .byte   W48
@  #05 @159   ----------------------------------------
 .byte   W48
 .byte   W48
@  #05 @160   ----------------------------------------
 .byte   W48
 .byte   W48
@  #05 @161   ----------------------------------------
 .byte   W48
 .byte   W48
@  #05 @162   ----------------------------------------
 .byte   W48
 .byte   W48
@  #05 @163   ----------------------------------------
 .byte   W48
 .byte   W48
@  #05 @164   ----------------------------------------
 .byte   W48
 .byte   W48
@  #05 @165   ----------------------------------------
 .byte   W48
 .byte   W48
@  #05 @166   ----------------------------------------
 .byte   W48
 .byte   W48
@  #05 @167   ----------------------------------------
 .byte   W48
 .byte   W48
@  #05 @168   ----------------------------------------
 .byte   W48
 .byte   W48
@  #05 @169   ----------------------------------------
 .byte   W48
 .byte   W48
@  #05 @170   ----------------------------------------
 .byte   W48
 .byte   W48
@  #05 @171   ----------------------------------------
 .byte   W48
 .byte   W48
@  #05 @172   ----------------------------------------
 .byte   W48
 .byte   W48
@  #05 @173   ----------------------------------------
 .byte   W48
 .byte   W48
@  #05 @174   ----------------------------------------
 .byte   W48
 .byte   W48
@  #05 @175   ----------------------------------------
 .byte   W48
 .byte   W48
@  #05 @176   ----------------------------------------
 .byte   W48
 .byte   W48
@  #05 @177   ----------------------------------------
 .byte   W48
 .byte   W48
@  #05 @178   ----------------------------------------
 .byte   W48
 .byte   W48
@  #05 @179   ----------------------------------------
 .byte   W48
 .byte   W48
@  #05 @180   ----------------------------------------
 .byte   W48
 .byte   W48
@  #05 @181   ----------------------------------------
 .byte   W48
 .byte   W48
@  #05 @182   ----------------------------------------
 .byte   W48
 .byte   W48
@  #05 @183   ----------------------------------------
 .byte   W48
 .byte   W48
@  #05 @184   ----------------------------------------
 .byte   W48
 .byte   W48
@  #05 @185   ----------------------------------------
 .byte   W48
Label_0113110D:
 .byte   N90 ,Fs2 ,v080
 .byte   N90 ,Fn3
 .byte   N90 ,As3
 .byte   N11 ,Cn4
 .byte   W12
 .byte   Cs4
 .byte   W12
 .byte   Fn4
 .byte   W12
 .byte   Gs4
 .byte   W12
 .byte   PEND 
@  #05 @186   ----------------------------------------
Label_0113111E:
 .byte   W12
 .byte   N11 ,Gs4 ,v080
 .byte   W12
 .byte   Cn5
 .byte   W12
 .byte   Cs5
 .byte   W12
 .byte   PEND 
Label_01131128:
 .byte   W12
 .byte   N11 ,Cn5 ,v080
 .byte   W12
 .byte   Gs4
 .byte   W12
 .byte   Ds4
 .byte   W12
 .byte   PEND 
@  #05 @187   ----------------------------------------
Label_01131132:
 .byte   W12
 .byte   N11 ,Cs4 ,v080
 .byte   W12
 .byte   Cn4
 .byte   W12
 .byte   Cs4
 .byte   W12
 .byte   PEND 
Label_0113113C:
 .byte   N90 ,Fn2 ,v080
 .byte   N90 ,Cn3
 .byte   N90 ,Ds3
 .byte   N11 ,Cn4
 .byte   W12
 .byte   Cs4
 .byte   W12
 .byte   Fn4
 .byte   W12
 .byte   Gs4
 .byte   W12
 .byte   PEND 
@  #05 @188   ----------------------------------------
 .byte   PATT
  .word Label_0113111E
@  #05 @189   ----------------------------------------
Label_01131152:
 .byte   N90 ,As1 ,v080
 .byte   W12
 .byte   N11 ,Cn5
 .byte   W12
 .byte   Gs4
 .byte   W12
 .byte   Ds4
 .byte   W12
 .byte   PEND 
@  #05 @190   ----------------------------------------
 .byte   PATT
  .word Label_01131132
@  #05 @191   ----------------------------------------
Label_01131163:
 .byte   N44 ,Ds1 ,v080
 .byte   N44 ,As2
 .byte   N44 ,Cs3
 .byte   N11 ,Cs4
 .byte   W12
 .byte   Fn4
 .byte   W12
 .byte   Fs4
 .byte   W12
 .byte   Cs4
 .byte   W12
 .byte   PEND 
Label_01131174:
 .byte   W12
 .byte   N32 ,Ds1 ,v080
 .byte   N32 ,As2
 .byte   N32 ,Cs3
 .byte   N11 ,Fn4
 .byte   W12
 .byte   Fs4
 .byte   W12
 .byte   Cs5
 .byte   W12
 .byte   PEND 
@  #05 @192   ----------------------------------------
Label_01131184:
 .byte   N44 ,Fn1 ,v080
 .byte   N44 ,Cn3
 .byte   N44 ,Ds3
 .byte   N11 ,Fn4
 .byte   W12
 .byte   Ds4
 .byte   W12
 .byte   Cs4
 .byte   W12
 .byte   Cn4
 .byte   W12
 .byte   PEND 
Label_01131195:
 .byte   N44 ,An1 ,v080
 .byte   N44 ,Cn3
 .byte   N44 ,Ds3
 .byte   N11 ,Fs4
 .byte   W12
 .byte   Fn4
 .byte   W12
 .byte   Cn4
 .byte   W12
 .byte   Cs4
 .byte   W12
 .byte   PEND 
@  #05 @193   ----------------------------------------
Label_011311A6:
 .byte   N44 ,As1 ,v080
 .byte   N44 ,Gs2
 .byte   N44 ,Cn3
 .byte   N11 ,Fn4
 .byte   W12
 .byte   Cs4
 .byte   W12
 .byte   Cn4
 .byte   W12
 .byte   Cs4
 .byte   W12
 .byte   PEND 
Label_011311B7:
 .byte   W12
 .byte   N32 ,As1 ,v080
 .byte   N32 ,Gs2
 .byte   N32 ,Cn3
 .byte   N11 ,Cs4
 .byte   W12
 .byte   Cn5
 .byte   W12
 .byte   Cs5
 .byte   W12
 .byte   PEND 
@  #05 @194   ----------------------------------------
Label_011311C7:
 .byte   N32 ,Gs1 ,v080
 .byte   N32 ,Gs2
 .byte   N32 ,Ds3
 .byte   N11 ,Gs4
 .byte   W12
 .byte   Fn4
 .byte   W12
 .byte   Cs4
 .byte   W12
 .byte   N32 ,Gs1
 .byte   N32 ,Fs2
 .byte   N32 ,Cs3
 .byte   N11 ,Cn4
 .byte   W12
 .byte   PEND 
Label_011311DF:
 .byte   W12
 .byte   N11 ,Fn4 ,v080
 .byte   W12
 .byte   N22 ,Gn1
 .byte   N22 ,Fn2
 .byte   N22 ,Cn3
 .byte   N11 ,Cs4
 .byte   W12
 .byte   Cn4
 .byte   W12
 .byte   PEND 
@  #05 @195   ----------------------------------------
Label_011311F0:
 .byte   N32 ,Fs2 ,v080
 .byte   N32 ,As2
 .byte   N11 ,Fn4
 .byte   W12
 .byte   Cs4
 .byte   W12
 .byte   Cn4
 .byte   W12
 .byte   Fs2
 .byte   N11 ,As2
 .byte   N11 ,Cs4
 .byte   W12
 .byte   PEND 
Label_01131203:
 .byte   W12
 .byte   N11 ,Gs4 ,v080
 .byte   W12
 .byte   Cs4
 .byte   W12
 .byte   Cn4
 .byte   W12
 .byte   PEND 
@  #05 @196   ----------------------------------------
Label_0113120D:
 .byte   N32 ,Gs2 ,v080
 .byte   N32 ,Ds3
 .byte   N11 ,Ds4
 .byte   W12
 .byte   Cs4
 .byte   W12
 .byte   Cn4
 .byte   W12
 .byte   N32 ,Gs2
 .byte   N32 ,Cs3
 .byte   N11 ,Cs4
 .byte   W12
 .byte   PEND 
Label_01131221:
 .byte   W24
 .byte   N22 ,Gs2 ,v080
 .byte   N22 ,Cn3
 .byte   N11 ,Cn4
 .byte   W12
 .byte   Cs4
 .byte   W12
 .byte   PEND 
@  #05 @197   ----------------------------------------
Label_0113122D:
 .byte   N32 ,As2 ,v080
 .byte   N32 ,Cs3
 .byte   N22 ,Gs3
 .byte   W24
 .byte   N11 ,Cn4
 .byte   W12
 .byte   As2
 .byte   N11 ,Cs3
 .byte   N11 ,Cs4
 .byte   W12
 .byte   PEND 
Label_0113123F:
 .byte   N22 ,Fn4 ,v080
 .byte   W12
 .byte   N32 ,As2
 .byte   N32 ,Cs3
 .byte   W12
 .byte   N11 ,Cn4
 .byte   W12
 .byte   Cs4
 .byte   W12
 .byte   PEND 
@  #05 @198   ----------------------------------------
Label_0113124E:
 .byte   N32 ,Gs2 ,v080
 .byte   N32 ,Ds3
 .byte   N22 ,Gs4
 .byte   W24
 .byte   Fs4
 .byte   W12
 .byte   N32 ,Gs2
 .byte   N32 ,Cs3
 .byte   W12
 .byte   PEND 
Label_0113125E:
 .byte   N22 ,Fn4 ,v080
 .byte   W24
 .byte   Gs2
 .byte   N22 ,Cn3
 .byte   N22 ,Ds4
 .byte   W24
 .byte   PEND 
@  #05 @199   ----------------------------------------
Label_01131269:
 .byte   N32 ,As2 ,v080
 .byte   N32 ,Cs3
 .byte   N44 ,Cs4
 .byte   W36
 .byte   N11 ,As2
 .byte   N11 ,Cs3
 .byte   W12
 .byte   PEND 
Label_01131277:
 .byte   N44 ,Fn4 ,v080
 .byte   W12
 .byte   N22 ,As2
 .byte   N22 ,Cs3
 .byte   W24
 .byte   N11 ,As2
 .byte   N11 ,Cs3
 .byte   W12
 .byte   PEND 
@  #05 @200   ----------------------------------------
Label_01131286:
 .byte   N32 ,Cn3 ,v080
 .byte   N32 ,Ds3
 .byte   N44 ,Ds4
 .byte   W36
 .byte   N11 ,Cn3
 .byte   W12
 .byte   PEND 
Label_01131292:
 .byte   N11 ,Cs3 ,v080
 .byte   N44 ,Cs4
 .byte   W12
 .byte   N11 ,Ds3
 .byte   W12
 .byte   Fn3
 .byte   W12
 .byte   Fs3
 .byte   W12
 .byte   PEND 
@  #05 @201   ----------------------------------------
 .byte   W48
 .byte   W48
@  #05 @202   ----------------------------------------
 .byte   W48
 .byte   W48
@  #05 @203   ----------------------------------------
 .byte   W48
 .byte   W48
@  #05 @204   ----------------------------------------
 .byte   W48
 .byte   W48
@  #05 @205   ----------------------------------------
 .byte   W48
 .byte   W48
@  #05 @206   ----------------------------------------
 .byte   W48
 .byte   W48
@  #05 @207   ----------------------------------------
 .byte   W48
 .byte   W48
@  #05 @208   ----------------------------------------
 .byte   W48
 .byte   W48
@  #05 @209   ----------------------------------------
 .byte   W48
 .byte   W48
@  #05 @210   ----------------------------------------
 .byte   W48
 .byte   W48
@  #05 @211   ----------------------------------------
 .byte   W48
 .byte   W48
@  #05 @212   ----------------------------------------
 .byte   W48
 .byte   W48
@  #05 @213   ----------------------------------------
 .byte   W48
 .byte   W48
@  #05 @214   ----------------------------------------
 .byte   W48
 .byte   W48
@  #05 @215   ----------------------------------------
 .byte   W48
 .byte   W48
@  #05 @216   ----------------------------------------
 .byte   W48
 .byte   W48
@  #05 @217   ----------------------------------------
 .byte   W48
 .byte   W48
@  #05 @218   ----------------------------------------
 .byte   W48
 .byte   W48
@  #05 @219   ----------------------------------------
Label_011312C4:
 .byte   N05 ,Cn6 ,v080
 .byte   W06
 .byte   Cs6
 .byte   W06
 .byte   Cn6
 .byte   W06
 .byte   Gs5
 .byte   W06
 .byte   Ds5
 .byte   W06
 .byte   Fn5
 .byte   W06
 .byte   Gs5
 .byte   W12
 .byte   PEND 
Label_011312D5:
 .byte   N44 ,Fs2 ,v080
 .byte   N44 ,As2
 .byte   N44 ,Cs3
 .byte   W48
 .byte   PEND 
@  #05 @220   ----------------------------------------
Label_011312DE:
 .byte   N32 ,Gs2 ,v080
 .byte   N32 ,As2
 .byte   N32 ,Cn3
 .byte   W36
 .byte   Gs2
 .byte   N32 ,As2
 .byte   N32 ,Cs3
 .byte   W12
 .byte   PEND 
Label_011312ED:
 .byte   W24
 .byte   N22 ,Gs2 ,v080
 .byte   N22 ,Cn3
 .byte   N22 ,Ds3
 .byte   W24
 .byte   PEND 
@  #05 @221   ----------------------------------------
Label_011312F7:
 .byte   N44 ,As2 ,v080
 .byte   N44 ,Cs3
 .byte   N44 ,Fn3
 .byte   N05 ,Cn6
 .byte   W06
 .byte   Cs6
 .byte   W06
 .byte   Cn6
 .byte   W06
 .byte   Gs5
 .byte   W06
 .byte   Ds5
 .byte   W06
 .byte   Fn5
 .byte   W06
 .byte   Gs5
 .byte   W12
 .byte   PEND 
Label_0113130E:
 .byte   N44 ,As2 ,v080
 .byte   N44 ,Cs3
 .byte   N44 ,Gs3
 .byte   W48
 .byte   PEND 
@  #05 @222   ----------------------------------------
Label_01131317:
 .byte   N32 ,Gs2 ,v080
 .byte   N32 ,Cn3
 .byte   N32 ,Ds3
 .byte   W36
 .byte   Gs2
 .byte   N32 ,Cn3
 .byte   N32 ,Cs3
 .byte   W12
 .byte   PEND 
Label_01131326:
 .byte   W24
 .byte   N22 ,Gs2 ,v080
 .byte   N22 ,Cn3
 .byte   W24
 .byte   PEND 
@  #05 @223   ----------------------------------------
 .byte   PATT
  .word Label_011312C4
@  #05 @224   ----------------------------------------
 .byte   PATT
  .word Label_011312D5
@  #05 @225   ----------------------------------------
Label_01131338:
 .byte   N32 ,Fs2 ,v080
 .byte   N32 ,As2
 .byte   N32 ,Cs3
 .byte   W36
 .byte   Fs2
 .byte   N32 ,As2
 .byte   N32 ,Ds3
 .byte   W12
 .byte   PEND 
Label_01131347:
 .byte   W24
 .byte   N22 ,Fs2 ,v080
 .byte   N22 ,As2
 .byte   N22 ,Cs3
 .byte   W24
 .byte   PEND 
@  #05 @226   ----------------------------------------
Label_01131351:
 .byte   N90 ,Fn2 ,v080
 .byte   N90 ,As2
 .byte   N90 ,Cn3
 .byte   W48
 .byte   PEND 
 .byte   W48
@  #05 @227   ----------------------------------------
Label_0113135B:
 .byte   N90 ,Fn2 ,v080
 .byte   N90 ,An2
 .byte   N90 ,Cn3
 .byte   W48
 .byte   PEND 
 .byte   W48
@  #05 @228   ----------------------------------------
 .byte   Gn2
 .byte   N90 ,Cn3
 .byte   W48
 .byte   W48
@  #05 @229   ----------------------------------------
 .byte   Gn2
 .byte   N90 ,Bn2
 .byte   W48
 .byte   W48
@  #05 @230   ----------------------------------------
 .byte   W48
 .byte   W48
@  #05 @231   ----------------------------------------
 .byte   W48
 .byte   W48
@  #05 @232   ----------------------------------------
 .byte   W48
 .byte   W48
@  #05 @233   ----------------------------------------
 .byte   W48
 .byte   W48
@  #05 @234   ----------------------------------------
 .byte   W48
 .byte   W48
@  #05 @235   ----------------------------------------
 .byte   W48
 .byte   W48
@  #05 @236   ----------------------------------------
 .byte   W48
 .byte   W48
@  #05 @237   ----------------------------------------
 .byte   W48
 .byte   W48
@  #05 @238   ----------------------------------------
 .byte   GOTO
  .word Label_01130CBC
@  #05 @239   ----------------------------------------
 .byte   PATT
  .word Label_01130CBC
@  #05 @240   ----------------------------------------
 .byte   PATT
  .word Label_01130CD6
@  #05 @241   ----------------------------------------
 .byte   PATT
  .word Label_01130CF0
@  #05 @242   ----------------------------------------
 .byte   PATT
  .word Label_01130D09
@  #05 @243   ----------------------------------------
 .byte   PATT
  .word Label_01130CBC
@  #05 @244   ----------------------------------------
 .byte   PATT
  .word Label_01130CD6
@  #05 @245   ----------------------------------------
 .byte   PATT
  .word Label_01130CF0
@  #05 @246   ----------------------------------------
 .byte   PATT
  .word Label_01130D09
@  #05 @247   ----------------------------------------
 .byte   PATT
  .word Label_01130D37
@  #05 @248   ----------------------------------------
 .byte   PATT
  .word Label_01130CD6
@  #05 @249   ----------------------------------------
 .byte   PATT
  .word Label_01130CF0
@  #05 @250   ----------------------------------------
 .byte   PATT
  .word Label_01130D09
@  #05 @251   ----------------------------------------
 .byte   PATT
  .word Label_01130D66
@  #05 @252   ----------------------------------------
 .byte   PATT
  .word Label_01130D82
@  #05 @253   ----------------------------------------
 .byte   PATT
  .word Label_01130DA0
@  #05 @254   ----------------------------------------
 .byte   PATT
  .word Label_01130DC7
@  #05 @255   ----------------------------------------
 .byte   PATT
  .word Label_01130DE4
@  #05 @256   ----------------------------------------
 .byte   PATT
  .word Label_01130DEF
@  #05 @257   ----------------------------------------
 .byte   PATT
  .word Label_01130DF9
@  #05 @258   ----------------------------------------
 .byte   PATT
  .word Label_01130E03
@  #05 @259   ----------------------------------------
 .byte   PATT
  .word Label_01130DE4
@  #05 @260   ----------------------------------------
 .byte   PATT
  .word Label_01130DEF
@  #05 @261   ----------------------------------------
 .byte   PATT
  .word Label_01130DF9
@  #05 @262   ----------------------------------------
 .byte   PATT
  .word Label_01130E03
@  #05 @263   ----------------------------------------
 .byte   PATT
  .word Label_01130DE4
@  #05 @264   ----------------------------------------
 .byte   PATT
  .word Label_01130DEF
@  #05 @265   ----------------------------------------
 .byte   PATT
  .word Label_01130DF9
@  #05 @266   ----------------------------------------
 .byte   PATT
  .word Label_01130E03
@  #05 @267   ----------------------------------------
 .byte   PATT
  .word Label_01130DE4
@  #05 @268   ----------------------------------------
 .byte   PATT
  .word Label_01130DEF
@  #05 @269   ----------------------------------------
 .byte   PATT
  .word Label_01130DF9
@  #05 @270   ----------------------------------------
 .byte   PATT
  .word Label_01130E03
@  #05 @271   ----------------------------------------
 .byte   PATT
  .word Label_01130DE4
@  #05 @272   ----------------------------------------
 .byte   PATT
  .word Label_01130DEF
@  #05 @273   ----------------------------------------
 .byte   PATT
  .word Label_01130DF9
@  #05 @274   ----------------------------------------
 .byte   PATT
  .word Label_01130E03
@  #05 @275   ----------------------------------------
 .byte   PATT
  .word Label_01130DE4
@  #05 @276   ----------------------------------------
 .byte   PATT
  .word Label_01130DEF
@  #05 @277   ----------------------------------------
 .byte   PATT
  .word Label_01130DF9
@  #05 @278   ----------------------------------------
 .byte   PATT
  .word Label_01130E03
@  #05 @279   ----------------------------------------
 .byte   PATT
  .word Label_01130DE4
@  #05 @280   ----------------------------------------
 .byte   PATT
  .word Label_01130DEF
@  #05 @281   ----------------------------------------
 .byte   PATT
  .word Label_01130DF9
@  #05 @282   ----------------------------------------
 .byte   PATT
  .word Label_01130E03
@  #05 @283   ----------------------------------------
 .byte   PATT
  .word Label_01130DE4
@  #05 @284   ----------------------------------------
 .byte   PATT
  .word Label_01130DEF
@  #05 @285   ----------------------------------------
 .byte   PATT
  .word Label_01130DF9
@  #05 @286   ----------------------------------------
 .byte   PATT
  .word Label_01130E03
@  #05 @287   ----------------------------------------
 .byte   PATT
  .word Label_01130E99
@  #05 @288   ----------------------------------------
 .byte   PATT
  .word Label_01130EA4
@  #05 @289   ----------------------------------------
 .byte   PATT
  .word Label_01130EAE
@  #05 @290   ----------------------------------------
 .byte   PATT
  .word Label_01130EB8
@  #05 @291   ----------------------------------------
 .byte   PATT
  .word Label_01130E99
@  #05 @292   ----------------------------------------
 .byte   PATT
  .word Label_01130EA4
@  #05 @293   ----------------------------------------
 .byte   PATT
  .word Label_01130EAE
@  #05 @294   ----------------------------------------
 .byte   PATT
  .word Label_01130EB8
@  #05 @295   ----------------------------------------
 .byte   PATT
  .word Label_01130E99
@  #05 @296   ----------------------------------------
 .byte   PATT
  .word Label_01130EA4
@  #05 @297   ----------------------------------------
 .byte   PATT
  .word Label_01130EAE
@  #05 @298   ----------------------------------------
 .byte   PATT
  .word Label_01130EB8
@  #05 @299   ----------------------------------------
 .byte   PATT
  .word Label_01130E99
@  #05 @300   ----------------------------------------
 .byte   PATT
  .word Label_01130EA4
@  #05 @301   ----------------------------------------
 .byte   PATT
  .word Label_01130EAE
@  #05 @302   ----------------------------------------
 .byte   PATT
  .word Label_01130EB8
@  #05 @303   ----------------------------------------
 .byte   PATT
  .word Label_01130E99
@  #05 @304   ----------------------------------------
 .byte   PATT
  .word Label_01130EA4
@  #05 @305   ----------------------------------------
 .byte   PATT
  .word Label_01130EAE
@  #05 @306   ----------------------------------------
 .byte   PATT
  .word Label_01130EB8
@  #05 @307   ----------------------------------------
 .byte   PATT
  .word Label_01130E99
@  #05 @308   ----------------------------------------
 .byte   PATT
  .word Label_01130EA4
@  #05 @309   ----------------------------------------
 .byte   PATT
  .word Label_01130EAE
@  #05 @310   ----------------------------------------
 .byte   PATT
  .word Label_01130EB8
@  #05 @311   ----------------------------------------
 .byte   PATT
  .word Label_01130E99
@  #05 @312   ----------------------------------------
 .byte   PATT
  .word Label_01130EA4
@  #05 @313   ----------------------------------------
 .byte   PATT
  .word Label_01130EAE
@  #05 @314   ----------------------------------------
 .byte   PATT
  .word Label_01130EB8
@  #05 @315   ----------------------------------------
 .byte   W48
 .byte   W48
@  #05 @316   ----------------------------------------
 .byte   W48
 .byte   W48
@  #05 @317   ----------------------------------------
 .byte   W48
 .byte   W48
@  #05 @318   ----------------------------------------
 .byte   W48
 .byte   W48
@  #05 @319   ----------------------------------------
 .byte   W48
 .byte   W48
@  #05 @320   ----------------------------------------
 .byte   W48
 .byte   W48
@  #05 @321   ----------------------------------------
 .byte   W48
 .byte   W48
@  #05 @322   ----------------------------------------
 .byte   W48
 .byte   W48
@  #05 @323   ----------------------------------------
 .byte   W48
 .byte   W48
@  #05 @324   ----------------------------------------
 .byte   W48
 .byte   W48
@  #05 @325   ----------------------------------------
 .byte   W48
 .byte   W48
@  #05 @326   ----------------------------------------
 .byte   W48
 .byte   W48
@  #05 @327   ----------------------------------------
 .byte   W48
 .byte   W48
@  #05 @328   ----------------------------------------
 .byte   W48
 .byte   W48
@  #05 @329   ----------------------------------------
 .byte   W48
 .byte   W48
@  #05 @330   ----------------------------------------
 .byte   W48
 .byte   W48
@  #05 @331   ----------------------------------------
 .byte   W48
 .byte   W48
@  #05 @332   ----------------------------------------
 .byte   W48
 .byte   W48
@  #05 @333   ----------------------------------------
 .byte   PATT
  .word Label_01130F5E
@  #05 @334   ----------------------------------------
 .byte   PATT
  .word Label_01130F6A
@  #05 @335   ----------------------------------------
 .byte   PATT
  .word Label_01130F74
@  #05 @336   ----------------------------------------
 .byte   PATT
  .word Label_01130F7C
@  #05 @337   ----------------------------------------
 .byte   PATT
  .word Label_01130F87
@  #05 @338   ----------------------------------------
 .byte   PATT
  .word Label_01130F92
@  #05 @339   ----------------------------------------
 .byte   PATT
  .word Label_01130F74
@  #05 @340   ----------------------------------------
 .byte   PATT
  .word Label_01130F7C
@  #05 @341   ----------------------------------------
 .byte   PATT
  .word Label_01130FA7
@  #05 @342   ----------------------------------------
 .byte   PATT
  .word Label_01130FB2
@  #05 @343   ----------------------------------------
 .byte   PATT
  .word Label_01130FB2
@  #05 @344   ----------------------------------------
 .byte   PATT
  .word Label_01130FB2
@  #05 @345   ----------------------------------------
 .byte   PATT
  .word Label_01130FA7
@  #05 @346   ----------------------------------------
 .byte   PATT
  .word Label_01130FB2
@  #05 @347   ----------------------------------------
 .byte   W48
 .byte   W48
@  #05 @348   ----------------------------------------
 .byte   PATT
  .word Label_01130F5E
@  #05 @349   ----------------------------------------
 .byte   PATT
  .word Label_01130F6A
@  #05 @350   ----------------------------------------
 .byte   PATT
  .word Label_01130F74
@  #05 @351   ----------------------------------------
 .byte   PATT
  .word Label_01130F7C
@  #05 @352   ----------------------------------------
 .byte   PATT
  .word Label_01130F87
@  #05 @353   ----------------------------------------
 .byte   PATT
  .word Label_01130F92
@  #05 @354   ----------------------------------------
 .byte   PATT
  .word Label_01130F74
@  #05 @355   ----------------------------------------
 .byte   PATT
  .word Label_01130F7C
@  #05 @356   ----------------------------------------
 .byte   PATT
  .word Label_01130FA7
@  #05 @357   ----------------------------------------
 .byte   PATT
  .word Label_01130FB2
@  #05 @358   ----------------------------------------
 .byte   PATT
  .word Label_01131005
@  #05 @359   ----------------------------------------
 .byte   PATT
  .word Label_01131010
@  #05 @360   ----------------------------------------
 .byte   PATT
  .word Label_01131018
@  #05 @361   ----------------------------------------
 .byte   PATT
  .word Label_01131025
@  #05 @362   ----------------------------------------
 .byte   PATT
  .word Label_01131030
@  #05 @363   ----------------------------------------
 .byte   W48
 .byte   W48
@  #05 @364   ----------------------------------------
 .byte   W48
@  #05 @365   ----------------------------------------
 .byte   PATT
  .word Label_01131038
@  #05 @366   ----------------------------------------
 .byte   PATT
  .word Label_0113103E
@  #05 @367   ----------------------------------------
 .byte   W48
 .byte   W48
@  #05 @368   ----------------------------------------
 .byte   PATT
  .word Label_01131049
@  #05 @369   ----------------------------------------
 .byte   PATT
  .word Label_0113104F
@  #05 @370   ----------------------------------------
 .byte   W48
 .byte   W48
@  #05 @371   ----------------------------------------
 .byte   W48
 .byte   W48
@  #05 @372   ----------------------------------------
 .byte   W48
 .byte   W48
@  #05 @373   ----------------------------------------
 .byte   W48
 .byte   W48
@  #05 @374   ----------------------------------------
 .byte   W48
 .byte   W48
@  #05 @375   ----------------------------------------
 .byte   W48
 .byte   W48
@  #05 @376   ----------------------------------------
 .byte   W48
 .byte   W48
@  #05 @377   ----------------------------------------
 .byte   W48
 .byte   W48
@  #05 @378   ----------------------------------------
 .byte   W48
 .byte   W48
@  #05 @379   ----------------------------------------
 .byte   W48
 .byte   W48
@  #05 @380   ----------------------------------------
 .byte   W48
 .byte   W48
@  #05 @381   ----------------------------------------
 .byte   W48
 .byte   W48
@  #05 @382   ----------------------------------------
 .byte   W48
 .byte   W48
@  #05 @383   ----------------------------------------
 .byte   W48
 .byte   W48
@  #05 @384   ----------------------------------------
 .byte   PATT
  .word Label_01131076
@  #05 @385   ----------------------------------------
 .byte   PATT
  .word Label_01131086
@  #05 @386   ----------------------------------------
 .byte   PATT
  .word Label_01131099
@  #05 @387   ----------------------------------------
 .byte   W48
 .byte   W48
@  #05 @388   ----------------------------------------
 .byte   W48
 .byte   W48
@  #05 @389   ----------------------------------------
 .byte   W48
 .byte   W48
@  #05 @390   ----------------------------------------
 .byte   W48
 .byte   W48
@  #05 @391   ----------------------------------------
 .byte   W48
 .byte   W48
@  #05 @392   ----------------------------------------
 .byte   W48
 .byte   W48
@  #05 @393   ----------------------------------------
 .byte   W48
@  #05 @394   ----------------------------------------
 .byte   PATT
  .word Label_01131076
@  #05 @395   ----------------------------------------
 .byte   PATT
  .word Label_01131086
@  #05 @396   ----------------------------------------
 .byte   PATT
  .word Label_01131099
@  #05 @397   ----------------------------------------
 .byte   W48
 .byte   W48
@  #05 @398   ----------------------------------------
 .byte   W48
 .byte   W48
@  #05 @399   ----------------------------------------
 .byte   W48
 .byte   W48
@  #05 @400   ----------------------------------------
 .byte   W48
 .byte   W48
@  #05 @401   ----------------------------------------
 .byte   W48
 .byte   W48
@  #05 @402   ----------------------------------------
 .byte   W48
 .byte   W48
@  #05 @403   ----------------------------------------
 .byte   W48
 .byte   W48
@  #05 @404   ----------------------------------------
 .byte   W48
 .byte   W48
@  #05 @405   ----------------------------------------
 .byte   W48
 .byte   W48
@  #05 @406   ----------------------------------------
 .byte   W48
 .byte   W48
@  #05 @407   ----------------------------------------
 .byte   W48
 .byte   W48
@  #05 @408   ----------------------------------------
 .byte   W48
 .byte   W48
@  #05 @409   ----------------------------------------
 .byte   W48
 .byte   W48
@  #05 @410   ----------------------------------------
 .byte   W48
 .byte   W48
@  #05 @411   ----------------------------------------
 .byte   W48
 .byte   W48
@  #05 @412   ----------------------------------------
 .byte   W48
 .byte   W48
@  #05 @413   ----------------------------------------
 .byte   W48
 .byte   W48
@  #05 @414   ----------------------------------------
 .byte   W48
 .byte   W48
@  #05 @415   ----------------------------------------
 .byte   W48
 .byte   W48
@  #05 @416   ----------------------------------------
 .byte   W48
 .byte   W48
@  #05 @417   ----------------------------------------
 .byte   W48
 .byte   W48
@  #05 @418   ----------------------------------------
 .byte   W48
 .byte   W48
@  #05 @419   ----------------------------------------
 .byte   W48
 .byte   W48
@  #05 @420   ----------------------------------------
 .byte   W48
 .byte   W48
@  #05 @421   ----------------------------------------
 .byte   W48
 .byte   W48
@  #05 @422   ----------------------------------------
 .byte   W48
 .byte   W48
@  #05 @423   ----------------------------------------
 .byte   W48
 .byte   W48
@  #05 @424   ----------------------------------------
 .byte   W48
 .byte   W48
@  #05 @425   ----------------------------------------
 .byte   W48
 .byte   W48
@  #05 @426   ----------------------------------------
 .byte   W48
 .byte   W48
@  #05 @427   ----------------------------------------
 .byte   W48
 .byte   W48
@  #05 @428   ----------------------------------------
 .byte   W48
 .byte   W48
@  #05 @429   ----------------------------------------
 .byte   W48
 .byte   W48
@  #05 @430   ----------------------------------------
 .byte   W48
 .byte   W48
@  #05 @431   ----------------------------------------
 .byte   W48
 .byte   W48
@  #05 @432   ----------------------------------------
 .byte   W48
 .byte   W48
@  #05 @433   ----------------------------------------
 .byte   W48
 .byte   W48
@  #05 @434   ----------------------------------------
 .byte   W48
 .byte   W48
@  #05 @435   ----------------------------------------
 .byte   W48
@  #05 @436   ----------------------------------------
 .byte   PATT
  .word Label_0113110D
@  #05 @437   ----------------------------------------
 .byte   PATT
  .word Label_0113111E
@  #05 @438   ----------------------------------------
 .byte   PATT
  .word Label_01131128
@  #05 @439   ----------------------------------------
 .byte   PATT
  .word Label_01131132
@  #05 @440   ----------------------------------------
 .byte   PATT
  .word Label_0113113C
@  #05 @441   ----------------------------------------
 .byte   PATT
  .word Label_0113111E
@  #05 @442   ----------------------------------------
 .byte   PATT
  .word Label_01131152
@  #05 @443   ----------------------------------------
 .byte   PATT
  .word Label_01131132
@  #05 @444   ----------------------------------------
 .byte   PATT
  .word Label_01131163
@  #05 @445   ----------------------------------------
 .byte   PATT
  .word Label_01131174
@  #05 @446   ----------------------------------------
 .byte   PATT
  .word Label_01131184
@  #05 @447   ----------------------------------------
 .byte   PATT
  .word Label_01131195
@  #05 @448   ----------------------------------------
 .byte   PATT
  .word Label_011311A6
@  #05 @449   ----------------------------------------
 .byte   PATT
  .word Label_011311B7
@  #05 @450   ----------------------------------------
 .byte   PATT
  .word Label_011311C7
@  #05 @451   ----------------------------------------
 .byte   PATT
  .word Label_011311DF
@  #05 @452   ----------------------------------------
 .byte   PATT
  .word Label_011311F0
@  #05 @453   ----------------------------------------
 .byte   PATT
  .word Label_01131203
@  #05 @454   ----------------------------------------
 .byte   PATT
  .word Label_0113120D
@  #05 @455   ----------------------------------------
 .byte   PATT
  .word Label_01131221
@  #05 @456   ----------------------------------------
 .byte   PATT
  .word Label_0113122D
@  #05 @457   ----------------------------------------
 .byte   PATT
  .word Label_0113123F
@  #05 @458   ----------------------------------------
 .byte   PATT
  .word Label_0113124E
@  #05 @459   ----------------------------------------
 .byte   PATT
  .word Label_0113125E
@  #05 @460   ----------------------------------------
 .byte   PATT
  .word Label_01131269
@  #05 @461   ----------------------------------------
 .byte   PATT
  .word Label_01131277
@  #05 @462   ----------------------------------------
 .byte   PATT
  .word Label_01131286
@  #05 @463   ----------------------------------------
 .byte   PATT
  .word Label_01131292
@  #05 @464   ----------------------------------------
 .byte   W48
 .byte   W48
@  #05 @465   ----------------------------------------
 .byte   W48
 .byte   W48
@  #05 @466   ----------------------------------------
 .byte   W48
 .byte   W48
@  #05 @467   ----------------------------------------
 .byte   W48
 .byte   W48
@  #05 @468   ----------------------------------------
 .byte   W48
 .byte   W48
@  #05 @469   ----------------------------------------
 .byte   W48
 .byte   W48
@  #05 @470   ----------------------------------------
 .byte   W48
 .byte   W48
@  #05 @471   ----------------------------------------
 .byte   W48
 .byte   W48
@  #05 @472   ----------------------------------------
 .byte   W48
 .byte   W48
@  #05 @473   ----------------------------------------
 .byte   W48
 .byte   W48
@  #05 @474   ----------------------------------------
 .byte   W48
 .byte   W48
@  #05 @475   ----------------------------------------
 .byte   W48
 .byte   W48
@  #05 @476   ----------------------------------------
 .byte   W48
 .byte   W48
@  #05 @477   ----------------------------------------
 .byte   W48
 .byte   W48
@  #05 @478   ----------------------------------------
 .byte   W48
 .byte   W48
@  #05 @479   ----------------------------------------
 .byte   W48
 .byte   W48
@  #05 @480   ----------------------------------------
 .byte   W48
 .byte   W48
@  #05 @481   ----------------------------------------
 .byte   W48
 .byte   W48
@  #05 @482   ----------------------------------------
 .byte   PATT
  .word Label_011312C4
@  #05 @483   ----------------------------------------
 .byte   PATT
  .word Label_011312D5
@  #05 @484   ----------------------------------------
 .byte   PATT
  .word Label_011312DE
@  #05 @485   ----------------------------------------
 .byte   PATT
  .word Label_011312ED
@  #05 @486   ----------------------------------------
 .byte   PATT
  .word Label_011312F7
@  #05 @487   ----------------------------------------
 .byte   PATT
  .word Label_0113130E
@  #05 @488   ----------------------------------------
 .byte   PATT
  .word Label_01131317
@  #05 @489   ----------------------------------------
 .byte   PATT
  .word Label_01131326
@  #05 @490   ----------------------------------------
 .byte   PATT
  .word Label_011312C4
@  #05 @491   ----------------------------------------
 .byte   PATT
  .word Label_011312D5
@  #05 @492   ----------------------------------------
 .byte   PATT
  .word Label_01131338
@  #05 @493   ----------------------------------------
 .byte   PATT
  .word Label_01131347
@  #05 @494   ----------------------------------------
 .byte   PATT
  .word Label_01131351
@  #05 @495   ----------------------------------------
 .byte   W48
@  #05 @496   ----------------------------------------
 .byte   PATT
  .word Label_0113135B
@  #05 @497   ----------------------------------------
 .byte   W48
 .byte   N90 ,Gn2 ,v080
 .byte   N90 ,Cn3
 .byte   W48
@  #05 @498   ----------------------------------------
 .byte   W48
 .byte   Gn2
 .byte   N90 ,Bn2
 .byte   W48
@  #05 @499   ----------------------------------------
 .byte   W44
 .byte   W03
 .byte   FINE

@**************** Track 6 (Midi-Chn.5) ****************@

.align 2, 0
song06_006:
@  #06 @000   ----------------------------------------
 .byte   KEYSH , song06_key+0
 .byte   VOICE , 48
 .byte   VOL , 27*song06_mvl/mxv
 .byte   PAN , c_v+0
 .byte   VOL , 18*song06_mvl/mxv
 .byte   PAN , c_v-19
 .byte   VOL , 18*song06_mvl/mxv
 .byte   PAN , c_v-19
 .byte   VOL , 27*song06_mvl/mxv
 .byte   PAN , c_v+0
 .byte   VOL , 27*song06_mvl/mxv
 .byte   PAN , c_v+0
 .byte   W24
 .byte   N23 ,Gn3 ,v080
 .byte   N23 ,Cn4
 .byte   W24
Label_0113178B:
 .byte   N23 ,An3 ,v080
 .byte   N23 ,Dn4
 .byte   W24
 .byte   Gn3
 .byte   N23 ,Bn3
 .byte   W24
 .byte   PEND 
@  #06 @001   ----------------------------------------
 .byte   N92 ,Gn3
 .byte   N92 ,Cn4
 .byte   W48
 .byte   W48
@  #06 @002   ----------------------------------------
Label_0113179C:
 .byte   W24
 .byte   N23 ,Gn3 ,v080
 .byte   N23 ,Cn4
 .byte   W24
 .byte   PEND 
@  #06 @003   ----------------------------------------
 .byte   PATT
  .word Label_0113178B
@  #06 @004   ----------------------------------------
 .byte   N92 ,Gn3 ,v080
 .byte   W48
 .byte   W48
@  #06 @005   ----------------------------------------
 .byte   PATT
  .word Label_0113179C
@  #06 @006   ----------------------------------------
 .byte   PATT
  .word Label_0113178B
@  #06 @007   ----------------------------------------
 .byte   N44 ,Gn3 ,v080
 .byte   N44 ,Cn4
 .byte   W48
 .byte   N44
 .byte   N44 ,Gn4
 .byte   W48
@  #06 @008   ----------------------------------------
 .byte   Cn4
 .byte   N44 ,Gn4
 .byte   W48
 .byte   Cn4
 .byte   N44 ,Fn4
 .byte   W48
@  #06 @009   ----------------------------------------
 .byte   Cn4
 .byte   N44 ,En4
 .byte   W48
 .byte   Bn3
 .byte   N44 ,Dn4
 .byte   W48
@  #06 @010   ----------------------------------------
Label_011317D2:
 .byte   W48
 .byte   W48
@  #06 @011   ----------------------------------------
 .byte   W48
 .byte   W48
@  #06 @012   ----------------------------------------
Label_011317D6:
 .byte   W24
 .byte   N05 ,An4 ,v052
 .byte   W06
 .byte   Bn4
 .byte   W06
 .byte   Cn5
 .byte   W06
 .byte   Dn5
 .byte   W06
 .byte   PEND 
 .byte   En5
 .byte   W48
@  #06 @013   ----------------------------------------
 .byte   W48
 .byte   W48
@  #06 @014   ----------------------------------------
 .byte   PATT
  .word Label_011317D6
@  #06 @015   ----------------------------------------
 .byte   N05 ,En5 ,v052
 .byte   W48
Label_011317EF:
 .byte   W24
 .byte   N05 ,An4 ,v052
 .byte   W06
 .byte   Bn4
 .byte   W06
 .byte   Cn5
 .byte   W06
 .byte   En5
 .byte   W06
 .byte   PEND 
@  #06 @016   ----------------------------------------
Label_011317FB:
 .byte   N05 ,An4 ,v052
 .byte   W06
 .byte   Bn4
 .byte   W06
 .byte   Cn5
 .byte   W06
 .byte   En5
 .byte   W06
 .byte   An4
 .byte   W06
 .byte   Bn4
 .byte   W06
 .byte   Cn5
 .byte   W06
 .byte   En5
 .byte   W06
 .byte   PEND 
Label_0113180E:
 .byte   N05 ,En5 ,v052
 .byte   W06
 .byte   Dn5
 .byte   W06
 .byte   Cn5
 .byte   W06
 .byte   An4
 .byte   W06
 .byte   Gn4
 .byte   W06
 .byte   En4
 .byte   W06
 .byte   Dn4
 .byte   W06
 .byte   Cn4
 .byte   W06
 .byte   PEND 
@  #06 @017   ----------------------------------------
 .byte   An3
 .byte   W48
 .byte   W48
@  #06 @018   ----------------------------------------
Label_01131824:
 .byte   N05 ,Bn4 ,v052
 .byte   W06
 .byte   Cn5
 .byte   W06
 .byte   Dn5
 .byte   W06
 .byte   En5
 .byte   W06
 .byte   Gn5
 .byte   W06
 .byte   An5
 .byte   W06
 .byte   Bn5
 .byte   W06
 .byte   Cn6
 .byte   W06
 .byte   PEND 
 .byte   W48
@  #06 @019   ----------------------------------------
 .byte   W48
 .byte   W48
@  #06 @020   ----------------------------------------
 .byte   W48
 .byte   W48
@  #06 @021   ----------------------------------------
 .byte   W48
 .byte   W48
@  #06 @022   ----------------------------------------
 .byte   W48
Label_0113183F:
 .byte   W24
 .byte   N05 ,An3 ,v052
 .byte   N05 ,An4
 .byte   W06
 .byte   Bn3
 .byte   N05 ,Bn4
 .byte   W06
 .byte   Cn4
 .byte   N05 ,Cn5
 .byte   W06
 .byte   Dn4
 .byte   N05 ,Dn5
 .byte   W06
 .byte   PEND 
@  #06 @023   ----------------------------------------
 .byte   En4
 .byte   N05 ,En5
 .byte   W48
@  #06 @024   ----------------------------------------
 .byte   PATT
  .word Label_0113183F
@  #06 @025   ----------------------------------------
 .byte   N05 ,En4 ,v052
 .byte   N05 ,En5
 .byte   W48
@  #06 @026   ----------------------------------------
 .byte   PATT
  .word Label_0113183F
@  #06 @027   ----------------------------------------
 .byte   N05 ,En4 ,v052
 .byte   N05 ,En5
 .byte   W48
Label_0113186D:
 .byte   W12
 .byte   N05 ,Dn4 ,v052
 .byte   N05 ,Dn5
 .byte   W06
 .byte   En4
 .byte   N05 ,En5
 .byte   W06
 .byte   Gn4
 .byte   N05 ,Gn5
 .byte   W06
 .byte   En4
 .byte   N05 ,En5
 .byte   W06
 .byte   Dn4
 .byte   N05 ,Dn5
 .byte   W06
 .byte   Bn3
 .byte   N05 ,Bn4
 .byte   W06
 .byte   PEND 
@  #06 @028   ----------------------------------------
Label_01131889:
 .byte   N05 ,Gn3 ,v052
 .byte   N05 ,Gn4
 .byte   W06
 .byte   En3
 .byte   N05 ,En4
 .byte   W06
 .byte   Gn3
 .byte   N05 ,Gn4
 .byte   W06
 .byte   Bn3
 .byte   N05 ,Bn4
 .byte   W06
 .byte   Dn4
 .byte   N05 ,Dn5
 .byte   W24
 .byte   PEND 
@  #06 @029   ----------------------------------------
 .byte   PATT
  .word Label_011317D6
@  #06 @030   ----------------------------------------
Label_011318A5:
 .byte   N05 ,An4 ,v052
 .byte   W06
 .byte   Bn4
 .byte   W06
 .byte   Cn5
 .byte   W06
 .byte   Dn5
 .byte   W06
 .byte   En5
 .byte   W06
 .byte   Dn5
 .byte   W06
 .byte   Cn5
 .byte   W06
 .byte   Bn4
 .byte   W06
 .byte   PEND 
 .byte   An4
 .byte   W48
@  #06 @031   ----------------------------------------
 .byte   W48
@  #06 @032   ----------------------------------------
 .byte   PATT
  .word Label_011317D6
@  #06 @033   ----------------------------------------
 .byte   PATT
  .word Label_011318A5
@  #06 @034   ----------------------------------------
 .byte   N05 ,An4 ,v052
 .byte   W48
 .byte   W48
@  #06 @035   ----------------------------------------
 .byte   PATT
  .word Label_011317EF
@  #06 @036   ----------------------------------------
Label_011318CF:
 .byte   N05 ,Dn5 ,v052
 .byte   W06
 .byte   Cn5
 .byte   W06
 .byte   Bn4
 .byte   W06
 .byte   An4
 .byte   W06
 .byte   En4
 .byte   W24
 .byte   PEND 
@  #06 @037   ----------------------------------------
 .byte   PATT
  .word Label_011317EF
@  #06 @038   ----------------------------------------
 .byte   PATT
  .word Label_011318CF
@  #06 @039   ----------------------------------------
 .byte   W48
 .byte   W48
@  #06 @040   ----------------------------------------
Label_011318E8:
 .byte   W24
 .byte   N05 ,Fn3 ,v052
 .byte   N05 ,Fn4
 .byte   W06
 .byte   Gn3
 .byte   N05 ,Gn4
 .byte   W06
 .byte   An3
 .byte   N05 ,An4
 .byte   W06
 .byte   Bn3
 .byte   N05 ,Bn4
 .byte   W06
 .byte   PEND 
Label_011318FC:
 .byte   N05 ,Cn4 ,v052
 .byte   N05 ,Cn5
 .byte   W06
 .byte   Dn4
 .byte   N05 ,Dn5
 .byte   W06
 .byte   En4
 .byte   N05 ,En5
 .byte   W06
 .byte   Fn4
 .byte   N05 ,Fn5
 .byte   W06
 .byte   Gn4
 .byte   N05 ,Gn5
 .byte   W06
 .byte   An4
 .byte   N05 ,An5
 .byte   W06
 .byte   Bn4
 .byte   N05 ,Bn5
 .byte   W06
 .byte   Cn5
 .byte   N05 ,Cn6
 .byte   W06
 .byte   PEND 
@  #06 @041   ----------------------------------------
Label_0113191F:
 .byte   N92 ,En3 ,v052
 .byte   N11 ,Bn3
 .byte   W12
 .byte   Cn4
 .byte   W12
 .byte   En4
 .byte   W12
 .byte   Gn4
 .byte   W12
 .byte   PEND 
Label_0113192C:
 .byte   W12
 .byte   N11 ,Gn4 ,v052
 .byte   W12
 .byte   Bn4
 .byte   W12
 .byte   Cn5
 .byte   W12
 .byte   PEND 
@  #06 @042   ----------------------------------------
Label_01131936:
 .byte   N92 ,En3 ,v052
 .byte   W12
 .byte   N11 ,Bn4
 .byte   W12
 .byte   Gn4
 .byte   W12
 .byte   Dn4
 .byte   W12
 .byte   PEND 
Label_01131942:
 .byte   W12
 .byte   N11 ,Cn4 ,v052
 .byte   W12
 .byte   Bn3
 .byte   W12
 .byte   Cn4
 .byte   W12
 .byte   PEND 
@  #06 @043   ----------------------------------------
 .byte   PATT
  .word Label_0113191F
@  #06 @044   ----------------------------------------
 .byte   PATT
  .word Label_0113192C
@  #06 @045   ----------------------------------------
Label_01131956:
 .byte   N92 ,Dn3 ,v052
 .byte   W12
 .byte   N11 ,Bn4
 .byte   W12
 .byte   Gn4
 .byte   W12
 .byte   Dn4
 .byte   W12
 .byte   PEND 
@  #06 @046   ----------------------------------------
 .byte   PATT
  .word Label_01131942
@  #06 @047   ----------------------------------------
Label_01131967:
 .byte   N92 ,Cn3 ,v052
 .byte   N05 ,En5
 .byte   W06
 .byte   Fn5
 .byte   W06
 .byte   Cn5
 .byte   W06
 .byte   An4
 .byte   W06
 .byte   Dn4
 .byte   W24
 .byte   PEND 
 .byte   W48
@  #06 @048   ----------------------------------------
 .byte   N92 ,Dn3
 .byte   W48
 .byte   W48
@  #06 @049   ----------------------------------------
 .byte   TIE
 .byte   W48
 .byte   W48
@  #06 @050   ----------------------------------------
 .byte   W48
 .byte   W44
 .byte   W03
 .byte   EOT
 .byte   W01
@  #06 @051   ----------------------------------------
 .byte   N92 ,En3
 .byte   W48
 .byte   W48
@  #06 @052   ----------------------------------------
 .byte   N92
 .byte   W48
 .byte   W48
@  #06 @053   ----------------------------------------
 .byte   TIE
 .byte   W48
 .byte   W48
@  #06 @054   ----------------------------------------
 .byte   W48
 .byte   W44
 .byte   W03
 .byte   EOT
 .byte   W01
@  #06 @055   ----------------------------------------
 .byte   N92 ,Cn3
 .byte   W48
 .byte   W48
@  #06 @056   ----------------------------------------
Label_01131996:
 .byte   N92 ,Cn3 ,v052
 .byte   W24
 .byte   N05 ,An4
 .byte   W06
 .byte   Cn5
 .byte   W06
 .byte   Dn5
 .byte   W06
 .byte   Fn5
 .byte   W06
 .byte   PEND 
Label_011319A4:
 .byte   N05 ,An4 ,v052
 .byte   W06
 .byte   Cn5
 .byte   W06
 .byte   Dn5
 .byte   W06
 .byte   Fn5
 .byte   W06
 .byte   An4
 .byte   W06
 .byte   Cn5
 .byte   W06
 .byte   Dn5
 .byte   W06
 .byte   Fn5
 .byte   W06
 .byte   PEND 
@  #06 @057   ----------------------------------------
Label_011319B7:
 .byte   N92 ,Bn2 ,v052
 .byte   W24
 .byte   N11 ,Dn3
 .byte   W12
 .byte   Fn3
 .byte   W12
 .byte   PEND 
Label_011319C1:
 .byte   N05 ,Gs3 ,v052
 .byte   W06
 .byte   Bn3
 .byte   W06
 .byte   Dn4
 .byte   W06
 .byte   Fn4
 .byte   W06
 .byte   Gs4
 .byte   W06
 .byte   Bn4
 .byte   W06
 .byte   Dn5
 .byte   W06
 .byte   Fn5
 .byte   W06
 .byte   PEND 
@  #06 @058   ----------------------------------------
 .byte   W48
 .byte   W48
@  #06 @059   ----------------------------------------
 .byte   N92 ,Gn3 ,v064
 .byte   W48
 .byte   W48
@  #06 @060   ----------------------------------------
 .byte   Fn3
 .byte   W48
 .byte   W48
@  #06 @061   ----------------------------------------
 .byte   En3
 .byte   W48
 .byte   W48
@  #06 @062   ----------------------------------------
 .byte   N44 ,Dn3
 .byte   W48
 .byte   En3
 .byte   W48
@  #06 @063   ----------------------------------------
 .byte   N92 ,Gn3
 .byte   W48
 .byte   W48
@  #06 @064   ----------------------------------------
 .byte   En3
 .byte   W48
 .byte   W48
@  #06 @065   ----------------------------------------
 .byte   Bn3
 .byte   W48
 .byte   W48
@  #06 @066   ----------------------------------------
 .byte   Cn4
 .byte   W48
 .byte   W48
@  #06 @067   ----------------------------------------
 .byte   TIE ,An3
 .byte   W48
 .byte   W48
@  #06 @068   ----------------------------------------
 .byte   W48
 .byte   W44
 .byte   W03
 .byte   EOT
 .byte   W01
@  #06 @069   ----------------------------------------
 .byte   N92 ,Bn3
 .byte   W48
 .byte   W48
@  #06 @070   ----------------------------------------
 .byte   Gn3
 .byte   W48
 .byte   W48
@  #06 @071   ----------------------------------------
 .byte   An3
 .byte   W48
 .byte   W48
@  #06 @072   ----------------------------------------
 .byte   Gs3
 .byte   W48
 .byte   W48
@  #06 @073   ----------------------------------------
Label_01131A09:
 .byte   N32 ,Bn3 ,v064
 .byte   W36
 .byte   TIE ,An3
 .byte   W12
 .byte   PEND 
 .byte   W48
@  #06 @074   ----------------------------------------
 .byte   W48
 .byte   W23
 .byte   EOT
 .byte   W24
 .byte   W01
@  #06 @075   ----------------------------------------
 .byte   W48
 .byte   W48
@  #06 @076   ----------------------------------------
 .byte   W48
 .byte   W48
@  #06 @077   ----------------------------------------
 .byte   W48
 .byte   W48
@  #06 @078   ----------------------------------------
 .byte   W48
 .byte   W48
@  #06 @079   ----------------------------------------
 .byte   W48
 .byte   W48
@  #06 @080   ----------------------------------------
 .byte   W48
 .byte   W48
@  #06 @081   ----------------------------------------
 .byte   W48
 .byte   W48
@  #06 @082   ----------------------------------------
 .byte   W48
 .byte   W48
@  #06 @083   ----------------------------------------
 .byte   W48
 .byte   W48
@  #06 @084   ----------------------------------------
 .byte   W48
 .byte   W48
@  #06 @085   ----------------------------------------
 .byte   W48
 .byte   W48
@  #06 @086   ----------------------------------------
 .byte   W48
 .byte   W48
@  #06 @087   ----------------------------------------
 .byte   W48
 .byte   W48
@  #06 @088   ----------------------------------------
 .byte   W48
 .byte   W48
@  #06 @089   ----------------------------------------
 .byte   W48
 .byte   W48
@  #06 @090   ----------------------------------------
 .byte   W48
 .byte   W48
@  #06 @091   ----------------------------------------
 .byte   W48
 .byte   W48
@  #06 @092   ----------------------------------------
 .byte   W48
 .byte   W48
@  #06 @093   ----------------------------------------
 .byte   W48
 .byte   W48
@  #06 @094   ----------------------------------------
 .byte   W48
 .byte   W48
@  #06 @095   ----------------------------------------
 .byte   W48
 .byte   W48
@  #06 @096   ----------------------------------------
Label_01131A41:
 .byte   W36
 .byte   N11 ,Gn4 ,v052
 .byte   W12
 .byte   PEND 
Label_01131A47:
 .byte   N11 ,Cn4 ,v052
 .byte   W12
 .byte   Bn3
 .byte   W12
 .byte   Cn4
 .byte   W12
 .byte   Dn4
 .byte   W12
 .byte   PEND 
@  #06 @097   ----------------------------------------
 .byte   W48
 .byte   W48
@  #06 @098   ----------------------------------------
 .byte   W48
 .byte   W48
@  #06 @099   ----------------------------------------
 .byte   W48
 .byte   W48
@  #06 @100   ----------------------------------------
 .byte   W48
 .byte   W48
@  #06 @101   ----------------------------------------
 .byte   W48
 .byte   W48
@  #06 @102   ----------------------------------------
 .byte   W48
 .byte   W48
@  #06 @103   ----------------------------------------
 .byte   W48
 .byte   W48
@  #06 @104   ----------------------------------------
 .byte   W48
 .byte   W48
@  #06 @105   ----------------------------------------
 .byte   W48
 .byte   W48
@  #06 @106   ----------------------------------------
Label_01131A64:
 .byte   W24
 .byte   N05 ,Gs4 ,v052
 .byte   W06
 .byte   Bn4
 .byte   W06
 .byte   Dn5
 .byte   W06
 .byte   Fn5
 .byte   W06
 .byte   PEND 
Label_01131A70:
 .byte   N05 ,Gs4 ,v052
 .byte   W06
 .byte   Bn4
 .byte   W06
 .byte   Dn5
 .byte   W06
 .byte   Fn5
 .byte   W06
 .byte   Gs4
 .byte   W06
 .byte   Bn4
 .byte   W06
 .byte   Dn5
 .byte   W06
 .byte   Gs5
 .byte   W06
 .byte   PEND 
@  #06 @107   ----------------------------------------
Label_01131A83:
 .byte   N32 ,Fn3 ,v064
 .byte   N05 ,Bn4 ,v052
 .byte   W06
 .byte   Cn5
 .byte   W06
 .byte   Dn5
 .byte   W06
 .byte   En5
 .byte   W06
 .byte   Bn4
 .byte   W06
 .byte   Cn5
 .byte   W06
 .byte   N32 ,En3 ,v064
 .byte   N05 ,Dn5 ,v052
 .byte   W06
 .byte   En5
 .byte   W06
 .byte   PEND 
Label_01131A9E:
 .byte   N05 ,Cn5 ,v052
 .byte   W06
 .byte   Dn5
 .byte   W06
 .byte   En5
 .byte   W06
 .byte   Fn5
 .byte   W06
 .byte   TIE ,Gn3 ,v064
 .byte   N05 ,An5 ,v052
 .byte   W06
 .byte   Gn5
 .byte   W06
 .byte   Fn5
 .byte   W06
 .byte   En5
 .byte   W06
 .byte   PEND 
@  #06 @108   ----------------------------------------
Label_01131AB6:
 .byte   N05 ,Cn5 ,v052
 .byte   W06
 .byte   Dn5
 .byte   W06
 .byte   En5
 .byte   W06
 .byte   Fn5
 .byte   W06
 .byte   An5
 .byte   W06
 .byte   Gn5
 .byte   W06
 .byte   Fn5
 .byte   W06
 .byte   En5
 .byte   W06
 .byte   PEND 
@  #06 @109   ----------------------------------------
 .byte   PATT
  .word Label_01131AB6
@  #06 @110   ----------------------------------------
 .byte   PATT
  .word Label_01131AB6
@  #06 @111   ----------------------------------------
 .byte   PATT
  .word Label_01131AB6
@  #06 @112   ----------------------------------------
 .byte   PATT
  .word Label_01131AB6
@  #06 @113   ----------------------------------------
Label_01131ADD:
 .byte   N05 ,Cn5 ,v052
 .byte   W06
 .byte   Dn5
 .byte   W06
 .byte   En5
 .byte   W06
 .byte   Fn5
 .byte   W06
 .byte   An5
 .byte   W06
 .byte   Gn5
 .byte   W06
 .byte   Fn5
 .byte   W06
 .byte   En5
 .byte   W05
 .byte   PEND 
 .byte   EOT
 .byte   Gn3
 .byte   W01
@  #06 @114   ----------------------------------------
 .byte   PATT
  .word Label_01131A83
@  #06 @115   ----------------------------------------
Label_01131AF8:
 .byte   N05 ,Cn5 ,v052
 .byte   W06
 .byte   Dn5
 .byte   W06
 .byte   En5
 .byte   W06
 .byte   Fn5
 .byte   W06
 .byte   TIE ,En3 ,v064
 .byte   N05 ,An5 ,v052
 .byte   W06
 .byte   Gn5
 .byte   W06
 .byte   Fn5
 .byte   W06
 .byte   En5
 .byte   W06
 .byte   PEND 
@  #06 @116   ----------------------------------------
 .byte   PATT
  .word Label_01131AB6
@  #06 @117   ----------------------------------------
 .byte   PATT
  .word Label_01131AB6
@  #06 @118   ----------------------------------------
 .byte   PATT
  .word Label_01131AB6
@  #06 @119   ----------------------------------------
 .byte   PATT
  .word Label_01131AB6
@  #06 @120   ----------------------------------------
 .byte   PATT
  .word Label_01131AB6
@  #06 @121   ----------------------------------------
 .byte   PATT
  .word Label_01131ADD
@  #06 @122   ----------------------------------------
 .byte   EOT
 .byte   En3
 .byte   W01
 .byte   W48
 .byte   W48
@  #06 @123   ----------------------------------------
 .byte   W48
 .byte   W48
@  #06 @124   ----------------------------------------
 .byte   W48
 .byte   W48
@  #06 @125   ----------------------------------------
 .byte   W48
 .byte   W48
@  #06 @126   ----------------------------------------
 .byte   W48
 .byte   W48
@  #06 @127   ----------------------------------------
 .byte   W48
 .byte   W48
@  #06 @128   ----------------------------------------
Label_01131B3D:
 .byte   W24
 .byte   N05 ,En5 ,v052
 .byte   W06
 .byte   Gs5
 .byte   W06
 .byte   Bn5
 .byte   W12
 .byte   PEND 
Label_01131B47:
 .byte   N05 ,En5 ,v052
 .byte   W06
 .byte   Gs5
 .byte   W06
 .byte   Bn5
 .byte   W12
 .byte   En5
 .byte   W06
 .byte   Gs5
 .byte   W06
 .byte   Bn5
 .byte   W12
 .byte   PEND 
@  #06 @129   ----------------------------------------
 .byte   W48
 .byte   W48
@  #06 @130   ----------------------------------------
 .byte   W48
 .byte   W48
@  #06 @131   ----------------------------------------
 .byte   W48
 .byte   W48
@  #06 @132   ----------------------------------------
 .byte   W48
 .byte   W48
@  #06 @133   ----------------------------------------
 .byte   W48
 .byte   W48
@  #06 @134   ----------------------------------------
 .byte   W48
 .byte   W48
@  #06 @135   ----------------------------------------
 .byte   W48
 .byte   W48
@  #06 @136   ----------------------------------------
 .byte   W48
 .byte   W48
@  #06 @137   ----------------------------------------
 .byte   W48
 .byte   W48
@  #06 @138   ----------------------------------------
 .byte   W48
 .byte   W48
@  #06 @139   ----------------------------------------
 .byte   W48
 .byte   W48
@  #06 @140   ----------------------------------------
 .byte   W48
 .byte   W48
@  #06 @141   ----------------------------------------
 .byte   W48
 .byte   W48
@  #06 @142   ----------------------------------------
 .byte   W48
 .byte   W48
@  #06 @143   ----------------------------------------
 .byte   W48
 .byte   W48
@  #06 @144   ----------------------------------------
 .byte   W48
 .byte   W48
@  #06 @145   ----------------------------------------
 .byte   W48
 .byte   W48
@  #06 @146   ----------------------------------------
 .byte   W48
 .byte   W48
@  #06 @147   ----------------------------------------
 .byte   W48
 .byte   W48
@  #06 @148   ----------------------------------------
 .byte   W48
 .byte   W48
@  #06 @149   ----------------------------------------
 .byte   W48
 .byte   W48
@  #06 @150   ----------------------------------------
 .byte   W48
 .byte   W48
@  #06 @151   ----------------------------------------
 .byte   W48
 .byte   W48
@  #06 @152   ----------------------------------------
 .byte   W48
 .byte   W48
@  #06 @153   ----------------------------------------
 .byte   W48
 .byte   W48
@  #06 @154   ----------------------------------------
 .byte   W48
 .byte   N92 ,An3 ,v096
 .byte   W48
@  #06 @155   ----------------------------------------
 .byte   W48
 .byte   N44 ,Bn3
 .byte   W48
@  #06 @156   ----------------------------------------
 .byte   Gn3
 .byte   W48
Label_01131B93:
 .byte   N23 ,Dn3 ,v096
 .byte   W24
 .byte   N11 ,Cn4
 .byte   W12
 .byte   N32 ,Dn4
 .byte   W12
 .byte   PEND 
@  #06 @157   ----------------------------------------
 .byte   W24
 .byte   N23 ,Cn4
 .byte   W24
 .byte   W48
@  #06 @158   ----------------------------------------
 .byte   N44 ,Fn3
 .byte   W48
 .byte   En3
 .byte   W48
@  #06 @159   ----------------------------------------
 .byte   N92 ,Fn3
 .byte   W48
 .byte   W48
@  #06 @160   ----------------------------------------
 .byte   An3
 .byte   W48
 .byte   W48
@  #06 @161   ----------------------------------------
 .byte   Gs3
 .byte   W48
 .byte   W48
@  #06 @162   ----------------------------------------
 .byte   As3 ,v064
 .byte   W48
 .byte   W48
@  #06 @163   ----------------------------------------
 .byte   An3
 .byte   W48
 .byte   W48
@  #06 @164   ----------------------------------------
 .byte   W48
 .byte   W48
@  #06 @165   ----------------------------------------
 .byte   W48
 .byte   W48
@  #06 @166   ----------------------------------------
 .byte   W48
 .byte   W48
@  #06 @167   ----------------------------------------
 .byte   W48
 .byte   W48
@  #06 @168   ----------------------------------------
 .byte   W48
 .byte   W48
@  #06 @169   ----------------------------------------
 .byte   W48
 .byte   W48
@  #06 @170   ----------------------------------------
 .byte   W48
 .byte   W48
@  #06 @171   ----------------------------------------
 .byte   W48
 .byte   W48
@  #06 @172   ----------------------------------------
 .byte   W48
 .byte   W48
@  #06 @173   ----------------------------------------
 .byte   W48
 .byte   W48
@  #06 @174   ----------------------------------------
 .byte   W48
 .byte   W48
@  #06 @175   ----------------------------------------
 .byte   W48
 .byte   W48
@  #06 @176   ----------------------------------------
 .byte   W48
 .byte   W48
@  #06 @177   ----------------------------------------
 .byte   W48
 .byte   W48
@  #06 @178   ----------------------------------------
 .byte   W48
 .byte   W48
@  #06 @179   ----------------------------------------
 .byte   W48
 .byte   W48
@  #06 @180   ----------------------------------------
Label_01131BD9:
 .byte   BEND , c_v+31
 .byte   N44 ,Dn1 ,v112
 .byte   W01
 .byte   BEND , c_v+30
 .byte   W01
 .byte   BEND , c_v+30
 .byte   W01
 .byte   BEND , c_v+29
 .byte   W01
 .byte   BEND , c_v+28
 .byte   W01
 .byte   BEND , c_v+28
 .byte   W01
 .byte   BEND , c_v+27
 .byte   W01
 .byte   BEND , c_v+27
 .byte   W01
 .byte   BEND , c_v+26
 .byte   W01
 .byte   BEND , c_v+25
 .byte   W01
 .byte   BEND , c_v+25
 .byte   W01
 .byte   BEND , c_v+24
 .byte   W01
 .byte   BEND , c_v+23
 .byte   W01
 .byte   BEND , c_v+22
 .byte   W01
 .byte   BEND , c_v+22
 .byte   W01
 .byte   BEND , c_v+21
 .byte   W01
 .byte   BEND , c_v+20
 .byte   W01
 .byte   BEND , c_v+20
 .byte   W01
 .byte   BEND , c_v+19
 .byte   W01
 .byte   BEND , c_v+19
 .byte   W01
 .byte   BEND , c_v+18
 .byte   W01
 .byte   BEND , c_v+17
 .byte   W01
 .byte   BEND , c_v+17
 .byte   W01
 .byte   BEND , c_v+16
 .byte   W01
 .byte   BEND , c_v+15
 .byte   W01
 .byte   BEND , c_v+14
 .byte   W01
 .byte   BEND , c_v+14
 .byte   W01
 .byte   BEND , c_v+13
 .byte   W01
 .byte   BEND , c_v+12
 .byte   W01
 .byte   BEND , c_v+12
 .byte   W01
 .byte   BEND , c_v+11
 .byte   W01
 .byte   BEND , c_v+11
 .byte   W01
 .byte   BEND , c_v+10
 .byte   W01
 .byte   BEND , c_v+9
 .byte   W01
 .byte   BEND , c_v+9
 .byte   W01
 .byte   BEND , c_v+8
 .byte   W01
 .byte   BEND , c_v+7
 .byte   W01
 .byte   BEND , c_v+6
 .byte   W01
 .byte   BEND , c_v+6
 .byte   W01
 .byte   BEND , c_v+5
 .byte   W01
 .byte   BEND , c_v+4
 .byte   W01
 .byte   BEND , c_v+4
 .byte   W01
 .byte   BEND , c_v+3
 .byte   W01
 .byte   BEND , c_v+3
 .byte   W01
 .byte   BEND , c_v+2
 .byte   W01
 .byte   BEND , c_v+1
 .byte   W01
 .byte   BEND , c_v+1
 .byte   W01
 .byte   BEND , c_v+0
 .byte   W01
 .byte   PEND 
 .byte   En3
 .byte   W48
@  #06 @181   ----------------------------------------
 .byte   W48
 .byte   W48
@  #06 @182   ----------------------------------------
 .byte   W48
 .byte   W48
@  #06 @183   ----------------------------------------
 .byte   W48
 .byte   W48
@  #06 @184   ----------------------------------------
 .byte   W48
 .byte   W48
@  #06 @185   ----------------------------------------
 .byte   W48
 .byte   W48
@  #06 @186   ----------------------------------------
 .byte   W48
 .byte   W48
@  #06 @187   ----------------------------------------
 .byte   W48
 .byte   W48
@  #06 @188   ----------------------------------------
 .byte   W48
 .byte   W48
@  #06 @189   ----------------------------------------
 .byte   W48
 .byte   W48
@  #06 @190   ----------------------------------------
 .byte   W48
 .byte   W48
@  #06 @191   ----------------------------------------
 .byte   W48
 .byte   W48
@  #06 @192   ----------------------------------------
 .byte   W48
 .byte   W48
@  #06 @193   ----------------------------------------
 .byte   W48
 .byte   W48
@  #06 @194   ----------------------------------------
 .byte   W48
 .byte   W48
@  #06 @195   ----------------------------------------
 .byte   W48
 .byte   W48
@  #06 @196   ----------------------------------------
 .byte   W48
 .byte   N44 ,Cs3 ,v080
 .byte   W48
@  #06 @197   ----------------------------------------
Label_01131C92:
 .byte   N32 ,Cn3 ,v080
 .byte   W36
 .byte   Cs3
 .byte   W12
 .byte   PEND 
 .byte   W24
 .byte   N23 ,Ds3
 .byte   W24
@  #06 @198   ----------------------------------------
 .byte   N44 ,Fn3
 .byte   W48
 .byte   Gs3
 .byte   W48
@  #06 @199   ----------------------------------------
Label_01131CA2:
 .byte   N32 ,Ds3 ,v080
 .byte   W36
 .byte   Cs3
 .byte   W12
 .byte   PEND 
 .byte   W24
 .byte   N23 ,Cn3
 .byte   W24
@  #06 @200   ----------------------------------------
 .byte   W48
 .byte   N44 ,Cs3
 .byte   W48
@  #06 @201   ----------------------------------------
Label_01131CB1:
 .byte   N32 ,Cs3 ,v080
 .byte   W36
 .byte   Ds3
 .byte   W12
 .byte   PEND 
 .byte   W24
 .byte   N23 ,Cs3
 .byte   W24
@  #06 @202   ----------------------------------------
 .byte   TIE ,Cn3
 .byte   W48
 .byte   W48
@  #06 @203   ----------------------------------------
 .byte   W48
 .byte   W44
 .byte   W03
 .byte   EOT
 .byte   W01
@  #06 @204   ----------------------------------------
 .byte   N92
 .byte   W48
 .byte   W48
@  #06 @205   ----------------------------------------
 .byte   Bn2
 .byte   W48
 .byte   W48
@  #06 @206   ----------------------------------------
 .byte   PATT
  .word Label_0113179C
@  #06 @207   ----------------------------------------
 .byte   PATT
  .word Label_0113178B
@  #06 @208   ----------------------------------------
 .byte   N92 ,Gn3 ,v080
 .byte   N92 ,Cn4
 .byte   W48
 .byte   W48
@  #06 @209   ----------------------------------------
 .byte   PATT
  .word Label_0113179C
@  #06 @210   ----------------------------------------
 .byte   PATT
  .word Label_0113178B
@  #06 @211   ----------------------------------------
 .byte   N92 ,Gn3 ,v080
 .byte   W48
 .byte   W48
@  #06 @212   ----------------------------------------
 .byte   PATT
  .word Label_0113179C
@  #06 @213   ----------------------------------------
 .byte   PATT
  .word Label_0113178B
@  #06 @214   ----------------------------------------
 .byte   N44 ,Gn3 ,v080
 .byte   N44 ,Cn4
 .byte   W48
 .byte   N44
 .byte   N44 ,Gn4
 .byte   W48
@  #06 @215   ----------------------------------------
 .byte   Cn4
 .byte   N44 ,Gn4
 .byte   W48
 .byte   Cn4
 .byte   N44 ,Fn4
 .byte   W48
@  #06 @216   ----------------------------------------
 .byte   Cn4
 .byte   N44 ,En4
 .byte   W48
 .byte   Bn3
 .byte   N44 ,Dn4
 .byte   W48
@  #06 @217   ----------------------------------------
 .byte   GOTO
  .word Label_011317D2
@  #06 @218   ----------------------------------------
 .byte   W48
 .byte   W48
@  #06 @219   ----------------------------------------
 .byte   W48
 .byte   W48
@  #06 @220   ----------------------------------------
 .byte   PATT
  .word Label_011317D6
@  #06 @221   ----------------------------------------
 .byte   N05 ,En5 ,v052
 .byte   W48
 .byte   W48
@  #06 @222   ----------------------------------------
 .byte   W48
@  #06 @223   ----------------------------------------
 .byte   PATT
  .word Label_011317D6
@  #06 @224   ----------------------------------------
 .byte   N05 ,En5 ,v052
 .byte   W48
@  #06 @225   ----------------------------------------
 .byte   PATT
  .word Label_011317EF
@  #06 @226   ----------------------------------------
 .byte   PATT
  .word Label_011317FB
@  #06 @227   ----------------------------------------
 .byte   PATT
  .word Label_0113180E
@  #06 @228   ----------------------------------------
 .byte   N05 ,An3 ,v052
 .byte   W48
 .byte   W48
@  #06 @229   ----------------------------------------
 .byte   PATT
  .word Label_01131824
@  #06 @230   ----------------------------------------
 .byte   W48
 .byte   W48
@  #06 @231   ----------------------------------------
 .byte   W48
 .byte   W48
@  #06 @232   ----------------------------------------
 .byte   W48
 .byte   W48
@  #06 @233   ----------------------------------------
 .byte   W48
 .byte   W48
@  #06 @234   ----------------------------------------
 .byte   PATT
  .word Label_0113183F
@  #06 @235   ----------------------------------------
 .byte   N05 ,En4 ,v052
 .byte   N05 ,En5
 .byte   W48
@  #06 @236   ----------------------------------------
 .byte   PATT
  .word Label_0113183F
@  #06 @237   ----------------------------------------
 .byte   N05 ,En4 ,v052
 .byte   N05 ,En5
 .byte   W48
@  #06 @238   ----------------------------------------
 .byte   PATT
  .word Label_0113183F
@  #06 @239   ----------------------------------------
 .byte   N05 ,En4 ,v052
 .byte   N05 ,En5
 .byte   W48
@  #06 @240   ----------------------------------------
 .byte   PATT
  .word Label_0113186D
@  #06 @241   ----------------------------------------
 .byte   PATT
  .word Label_01131889
@  #06 @242   ----------------------------------------
 .byte   PATT
  .word Label_011317D6
@  #06 @243   ----------------------------------------
 .byte   PATT
  .word Label_011318A5
@  #06 @244   ----------------------------------------
 .byte   N05 ,An4 ,v052
 .byte   W48
 .byte   W48
@  #06 @245   ----------------------------------------
 .byte   PATT
  .word Label_011317D6
@  #06 @246   ----------------------------------------
 .byte   PATT
  .word Label_011318A5
@  #06 @247   ----------------------------------------
 .byte   N05 ,An4 ,v052
 .byte   W48
 .byte   W48
@  #06 @248   ----------------------------------------
 .byte   PATT
  .word Label_011317EF
@  #06 @249   ----------------------------------------
 .byte   PATT
  .word Label_011318CF
@  #06 @250   ----------------------------------------
 .byte   PATT
  .word Label_011317EF
@  #06 @251   ----------------------------------------
 .byte   PATT
  .word Label_011318CF
@  #06 @252   ----------------------------------------
 .byte   W48
 .byte   W48
@  #06 @253   ----------------------------------------
 .byte   PATT
  .word Label_011318E8
@  #06 @254   ----------------------------------------
 .byte   PATT
  .word Label_011318FC
@  #06 @255   ----------------------------------------
 .byte   PATT
  .word Label_0113191F
@  #06 @256   ----------------------------------------
 .byte   PATT
  .word Label_0113192C
@  #06 @257   ----------------------------------------
 .byte   PATT
  .word Label_01131936
@  #06 @258   ----------------------------------------
 .byte   PATT
  .word Label_01131942
@  #06 @259   ----------------------------------------
 .byte   PATT
  .word Label_0113191F
@  #06 @260   ----------------------------------------
 .byte   PATT
  .word Label_0113192C
@  #06 @261   ----------------------------------------
 .byte   PATT
  .word Label_01131956
@  #06 @262   ----------------------------------------
 .byte   PATT
  .word Label_01131942
@  #06 @263   ----------------------------------------
 .byte   PATT
  .word Label_01131967
@  #06 @264   ----------------------------------------
 .byte   W48
 .byte   N92 ,Dn3 ,v052
 .byte   W48
@  #06 @265   ----------------------------------------
 .byte   W48
 .byte   TIE
 .byte   W48
@  #06 @266   ----------------------------------------
 .byte   W48
 .byte   W48
@  #06 @267   ----------------------------------------
 .byte   W44
 .byte   W03
 .byte   EOT
 .byte   W01
 .byte   N92 ,En3
 .byte   W48
@  #06 @268   ----------------------------------------
 .byte   W48
 .byte   N92
 .byte   W48
@  #06 @269   ----------------------------------------
 .byte   W48
 .byte   TIE
 .byte   W48
@  #06 @270   ----------------------------------------
 .byte   W48
 .byte   W48
@  #06 @271   ----------------------------------------
 .byte   W44
 .byte   W03
 .byte   EOT
 .byte   W01
 .byte   N92 ,Cn3
 .byte   W48
@  #06 @272   ----------------------------------------
 .byte   W48
@  #06 @273   ----------------------------------------
 .byte   PATT
  .word Label_01131996
@  #06 @274   ----------------------------------------
 .byte   PATT
  .word Label_011319A4
@  #06 @275   ----------------------------------------
 .byte   PATT
  .word Label_011319B7
@  #06 @276   ----------------------------------------
 .byte   PATT
  .word Label_011319C1
@  #06 @277   ----------------------------------------
 .byte   W48
 .byte   W48
@  #06 @278   ----------------------------------------
 .byte   N92 ,Gn3 ,v064
 .byte   W48
 .byte   W48
@  #06 @279   ----------------------------------------
 .byte   Fn3
 .byte   W48
 .byte   W48
@  #06 @280   ----------------------------------------
 .byte   En3
 .byte   W48
 .byte   W48
@  #06 @281   ----------------------------------------
 .byte   N44 ,Dn3
 .byte   W48
 .byte   En3
 .byte   W48
@  #06 @282   ----------------------------------------
 .byte   N92 ,Gn3
 .byte   W48
 .byte   W48
@  #06 @283   ----------------------------------------
 .byte   En3
 .byte   W48
 .byte   W48
@  #06 @284   ----------------------------------------
 .byte   Bn3
 .byte   W48
 .byte   W48
@  #06 @285   ----------------------------------------
 .byte   Cn4
 .byte   W48
 .byte   W48
@  #06 @286   ----------------------------------------
 .byte   TIE ,An3
 .byte   W48
 .byte   W48
@  #06 @287   ----------------------------------------
 .byte   W48
 .byte   W44
 .byte   W03
 .byte   EOT
 .byte   W01
@  #06 @288   ----------------------------------------
 .byte   N92 ,Bn3
 .byte   W48
 .byte   W48
@  #06 @289   ----------------------------------------
 .byte   Gn3
 .byte   W48
 .byte   W48
@  #06 @290   ----------------------------------------
 .byte   An3
 .byte   W48
 .byte   W48
@  #06 @291   ----------------------------------------
 .byte   Gs3
 .byte   W48
 .byte   W48
@  #06 @292   ----------------------------------------
 .byte   PATT
  .word Label_01131A09
@  #06 @293   ----------------------------------------
 .byte   W48
 .byte   W48
@  #06 @294   ----------------------------------------
 .byte   W23
 .byte   EOT
 .byte   An3
 .byte   W24
 .byte   W01
 .byte   W48
@  #06 @295   ----------------------------------------
 .byte   W48
 .byte   W48
@  #06 @296   ----------------------------------------
 .byte   W48
 .byte   W48
@  #06 @297   ----------------------------------------
 .byte   W48
 .byte   W48
@  #06 @298   ----------------------------------------
 .byte   W48
 .byte   W48
@  #06 @299   ----------------------------------------
 .byte   W48
 .byte   W48
@  #06 @300   ----------------------------------------
 .byte   W48
 .byte   W48
@  #06 @301   ----------------------------------------
 .byte   W48
 .byte   W48
@  #06 @302   ----------------------------------------
 .byte   W48
 .byte   W48
@  #06 @303   ----------------------------------------
 .byte   W48
 .byte   W48
@  #06 @304   ----------------------------------------
 .byte   W48
 .byte   W48
@  #06 @305   ----------------------------------------
 .byte   W48
 .byte   W48
@  #06 @306   ----------------------------------------
 .byte   W48
 .byte   W48
@  #06 @307   ----------------------------------------
 .byte   W48
 .byte   W48
@  #06 @308   ----------------------------------------
 .byte   W48
 .byte   W48
@  #06 @309   ----------------------------------------
 .byte   W48
 .byte   W48
@  #06 @310   ----------------------------------------
 .byte   W48
 .byte   W48
@  #06 @311   ----------------------------------------
 .byte   W48
 .byte   W48
@  #06 @312   ----------------------------------------
 .byte   W48
 .byte   W48
@  #06 @313   ----------------------------------------
 .byte   W48
 .byte   W48
@  #06 @314   ----------------------------------------
 .byte   W48
 .byte   W48
@  #06 @315   ----------------------------------------
 .byte   W48
@  #06 @316   ----------------------------------------
 .byte   PATT
  .word Label_01131A41
@  #06 @317   ----------------------------------------
 .byte   PATT
  .word Label_01131A47
@  #06 @318   ----------------------------------------
 .byte   W48
 .byte   W48
@  #06 @319   ----------------------------------------
 .byte   W48
 .byte   W48
@  #06 @320   ----------------------------------------
 .byte   W48
 .byte   W48
@  #06 @321   ----------------------------------------
 .byte   W48
 .byte   W48
@  #06 @322   ----------------------------------------
 .byte   W48
 .byte   W48
@  #06 @323   ----------------------------------------
 .byte   W48
 .byte   W48
@  #06 @324   ----------------------------------------
 .byte   W48
 .byte   W48
@  #06 @325   ----------------------------------------
 .byte   W48
 .byte   W48
@  #06 @326   ----------------------------------------
 .byte   W48
 .byte   W48
@  #06 @327   ----------------------------------------
 .byte   PATT
  .word Label_01131A64
@  #06 @328   ----------------------------------------
 .byte   PATT
  .word Label_01131A70
@  #06 @329   ----------------------------------------
 .byte   PATT
  .word Label_01131A83
@  #06 @330   ----------------------------------------
 .byte   PATT
  .word Label_01131A9E
@  #06 @331   ----------------------------------------
 .byte   PATT
  .word Label_01131AB6
@  #06 @332   ----------------------------------------
 .byte   PATT
  .word Label_01131AB6
@  #06 @333   ----------------------------------------
 .byte   PATT
  .word Label_01131AB6
@  #06 @334   ----------------------------------------
 .byte   PATT
  .word Label_01131AB6
@  #06 @335   ----------------------------------------
 .byte   PATT
  .word Label_01131AB6
@  #06 @336   ----------------------------------------
 .byte   PATT
  .word Label_01131ADD
@  #06 @337   ----------------------------------------
 .byte   EOT
 .byte   Gn3
 .byte   W01
@  #06 @338   ----------------------------------------
 .byte   PATT
  .word Label_01131A83
@  #06 @339   ----------------------------------------
 .byte   PATT
  .word Label_01131AF8
@  #06 @340   ----------------------------------------
 .byte   PATT
  .word Label_01131AB6
@  #06 @341   ----------------------------------------
 .byte   PATT
  .word Label_01131AB6
@  #06 @342   ----------------------------------------
 .byte   PATT
  .word Label_01131AB6
@  #06 @343   ----------------------------------------
 .byte   PATT
  .word Label_01131AB6
@  #06 @344   ----------------------------------------
 .byte   PATT
  .word Label_01131AB6
@  #06 @345   ----------------------------------------
 .byte   PATT
  .word Label_01131ADD
@  #06 @346   ----------------------------------------
 .byte   EOT
 .byte   En3
 .byte   W01
 .byte   W48
 .byte   W48
@  #06 @347   ----------------------------------------
 .byte   W48
 .byte   W48
@  #06 @348   ----------------------------------------
 .byte   W48
 .byte   W48
@  #06 @349   ----------------------------------------
 .byte   W48
 .byte   W48
@  #06 @350   ----------------------------------------
 .byte   W48
 .byte   W48
@  #06 @351   ----------------------------------------
 .byte   W48
 .byte   W48
@  #06 @352   ----------------------------------------
 .byte   PATT
  .word Label_01131B3D
@  #06 @353   ----------------------------------------
 .byte   PATT
  .word Label_01131B47
@  #06 @354   ----------------------------------------
 .byte   W48
 .byte   W48
@  #06 @355   ----------------------------------------
 .byte   W48
 .byte   W48
@  #06 @356   ----------------------------------------
 .byte   W48
 .byte   W48
@  #06 @357   ----------------------------------------
 .byte   W48
 .byte   W48
@  #06 @358   ----------------------------------------
 .byte   W48
 .byte   W48
@  #06 @359   ----------------------------------------
 .byte   W48
 .byte   W48
@  #06 @360   ----------------------------------------
 .byte   W48
 .byte   W48
@  #06 @361   ----------------------------------------
 .byte   W48
 .byte   W48
@  #06 @362   ----------------------------------------
 .byte   W48
 .byte   W48
@  #06 @363   ----------------------------------------
 .byte   W48
 .byte   W48
@  #06 @364   ----------------------------------------
 .byte   W48
 .byte   W48
@  #06 @365   ----------------------------------------
 .byte   W48
 .byte   W48
@  #06 @366   ----------------------------------------
 .byte   W48
 .byte   W48
@  #06 @367   ----------------------------------------
 .byte   W48
 .byte   W48
@  #06 @368   ----------------------------------------
 .byte   W48
 .byte   W48
@  #06 @369   ----------------------------------------
 .byte   W48
 .byte   W48
@  #06 @370   ----------------------------------------
 .byte   W48
 .byte   W48
@  #06 @371   ----------------------------------------
 .byte   W48
 .byte   W48
@  #06 @372   ----------------------------------------
 .byte   W48
 .byte   W48
@  #06 @373   ----------------------------------------
 .byte   W48
 .byte   W48
@  #06 @374   ----------------------------------------
 .byte   W48
 .byte   W48
@  #06 @375   ----------------------------------------
 .byte   W48
 .byte   W48
@  #06 @376   ----------------------------------------
 .byte   W48
 .byte   W48
@  #06 @377   ----------------------------------------
 .byte   W48
 .byte   W48
@  #06 @378   ----------------------------------------
 .byte   W48
 .byte   W48
@  #06 @379   ----------------------------------------
 .byte   W48
 .byte   N92 ,An3 ,v096
 .byte   W48
@  #06 @380   ----------------------------------------
 .byte   W48
 .byte   N44 ,Bn3
 .byte   W48
@  #06 @381   ----------------------------------------
 .byte   Gn3
 .byte   W48
@  #06 @382   ----------------------------------------
 .byte   PATT
  .word Label_01131B93
@  #06 @383   ----------------------------------------
 .byte   W24
 .byte   N23 ,Cn4 ,v096
 .byte   W24
 .byte   W48
@  #06 @384   ----------------------------------------
 .byte   N44 ,Fn3
 .byte   W48
 .byte   En3
 .byte   W48
@  #06 @385   ----------------------------------------
 .byte   N92 ,Fn3
 .byte   W48
 .byte   W48
@  #06 @386   ----------------------------------------
 .byte   An3
 .byte   W48
 .byte   W48
@  #06 @387   ----------------------------------------
 .byte   Gs3
 .byte   W48
 .byte   W48
@  #06 @388   ----------------------------------------
 .byte   As3 ,v064
 .byte   W48
 .byte   W48
@  #06 @389   ----------------------------------------
 .byte   An3
 .byte   W48
 .byte   W48
@  #06 @390   ----------------------------------------
 .byte   W48
 .byte   W48
@  #06 @391   ----------------------------------------
 .byte   W48
 .byte   W48
@  #06 @392   ----------------------------------------
 .byte   W48
 .byte   W48
@  #06 @393   ----------------------------------------
 .byte   W48
 .byte   W48
@  #06 @394   ----------------------------------------
 .byte   W48
 .byte   W48
@  #06 @395   ----------------------------------------
 .byte   W48
 .byte   W48
@  #06 @396   ----------------------------------------
 .byte   W48
 .byte   W48
@  #06 @397   ----------------------------------------
 .byte   W48
 .byte   W48
@  #06 @398   ----------------------------------------
 .byte   W48
 .byte   W48
@  #06 @399   ----------------------------------------
 .byte   W48
 .byte   W48
@  #06 @400   ----------------------------------------
 .byte   W48
 .byte   W48
@  #06 @401   ----------------------------------------
 .byte   W48
 .byte   W48
@  #06 @402   ----------------------------------------
 .byte   W48
 .byte   W48
@  #06 @403   ----------------------------------------
 .byte   W48
 .byte   W48
@  #06 @404   ----------------------------------------
 .byte   W48
 .byte   W48
@  #06 @405   ----------------------------------------
 .byte   W48
 .byte   W48
@  #06 @406   ----------------------------------------
 .byte   PATT
  .word Label_01131BD9
@  #06 @407   ----------------------------------------
 .byte   BEND , c_v+0
 .byte   W48
 .byte   W48
@  #06 @408   ----------------------------------------
 .byte   W48
 .byte   W48
@  #06 @409   ----------------------------------------
 .byte   W48
 .byte   W48
@  #06 @410   ----------------------------------------
 .byte   W48
 .byte   W48
@  #06 @411   ----------------------------------------
 .byte   W48
 .byte   W48
@  #06 @412   ----------------------------------------
 .byte   W48
 .byte   W48
@  #06 @413   ----------------------------------------
 .byte   W48
 .byte   W48
@  #06 @414   ----------------------------------------
 .byte   W48
 .byte   W48
@  #06 @415   ----------------------------------------
 .byte   W48
 .byte   W48
@  #06 @416   ----------------------------------------
 .byte   W48
 .byte   W48
@  #06 @417   ----------------------------------------
 .byte   W48
 .byte   W48
@  #06 @418   ----------------------------------------
 .byte   W48
 .byte   W48
@  #06 @419   ----------------------------------------
 .byte   W48
 .byte   W48
@  #06 @420   ----------------------------------------
 .byte   W48
 .byte   W48
@  #06 @421   ----------------------------------------
 .byte   W48
 .byte   W48
@  #06 @422   ----------------------------------------
 .byte   W48
 .byte   W48
@  #06 @423   ----------------------------------------
 .byte   N44 ,Cs3 ,v080
 .byte   W48
@  #06 @424   ----------------------------------------
 .byte   PATT
  .word Label_01131C92
@  #06 @425   ----------------------------------------
 .byte   W24
 .byte   N23 ,Ds3 ,v080
 .byte   W24
 .byte   N44 ,Fn3
 .byte   W48
@  #06 @426   ----------------------------------------
 .byte   Gs3
 .byte   W48
@  #06 @427   ----------------------------------------
 .byte   PATT
  .word Label_01131CA2
@  #06 @428   ----------------------------------------
 .byte   W24
 .byte   N23 ,Cn3 ,v080
 .byte   W24
 .byte   W48
@  #06 @429   ----------------------------------------
 .byte   N44 ,Cs3
 .byte   W48
@  #06 @430   ----------------------------------------
 .byte   PATT
  .word Label_01131CB1
@  #06 @431   ----------------------------------------
 .byte   W24
 .byte   N23 ,Cs3 ,v080
 .byte   W24
 .byte   TIE ,Cn3
 .byte   W48
@  #06 @432   ----------------------------------------
 .byte   W48
 .byte   W48
@  #06 @433   ----------------------------------------
 .byte   W44
 .byte   W03
 .byte   EOT
 .byte   W01
 .byte   N92
 .byte   W48
@  #06 @434   ----------------------------------------
 .byte   W48
 .byte   Bn2
 .byte   W48
@  #06 @435   ----------------------------------------
 .byte   W44
 .byte   W03
 .byte   FINE

@**************** Track 7 (Midi-Chn.6) ****************@

.align 2, 0
song06_007:
@  #07 @000   ----------------------------------------
 .byte   KEYSH , song06_key+0
 .byte   VOICE , 40
 .byte   VOL , 18*song06_mvl/mxv
 .byte   PAN , c_v+14
 .byte   VOL , 27*song06_mvl/mxv
 .byte   PAN , c_v+0
 .byte   VOL , 27*song06_mvl/mxv
 .byte   PAN , c_v+0
 .byte   VOL , 27*song06_mvl/mxv
 .byte   PAN , c_v+0
 .byte   VOL , 27*song06_mvl/mxv
 .byte   PAN , c_v+0
 .byte   W48
 .byte   W48
@  #07 @001   ----------------------------------------
 .byte   W48
 .byte   W48
@  #07 @002   ----------------------------------------
 .byte   W48
 .byte   W48
@  #07 @003   ----------------------------------------
 .byte   W48
 .byte   W48
@  #07 @004   ----------------------------------------
 .byte   W48
 .byte   W48
@  #07 @005   ----------------------------------------
 .byte   W48
 .byte   W48
@  #07 @006   ----------------------------------------
 .byte   W48
 .byte   W48
@  #07 @007   ----------------------------------------
 .byte   W48
 .byte   W48
@  #07 @008   ----------------------------------------
Label_01132020:
 .byte   N23 ,An2 ,v064
 .byte   W24
 .byte   N23
 .byte   W24
 .byte   PEND 
@  #07 @009   ----------------------------------------
 .byte   PATT
  .word Label_01132020
@  #07 @010   ----------------------------------------
 .byte   PATT
  .word Label_01132020
@  #07 @011   ----------------------------------------
 .byte   N23 ,An2 ,v064
 .byte   W48
@  #07 @012   ----------------------------------------
 .byte   PATT
  .word Label_01132020
@  #07 @013   ----------------------------------------
 .byte   PATT
  .word Label_01132020
@  #07 @014   ----------------------------------------
 .byte   PATT
  .word Label_01132020
@  #07 @015   ----------------------------------------
 .byte   N23 ,An2 ,v064
 .byte   W48
@  #07 @016   ----------------------------------------
 .byte   PATT
  .word Label_01132020
@  #07 @017   ----------------------------------------
 .byte   PATT
  .word Label_01132020
@  #07 @018   ----------------------------------------
 .byte   PATT
  .word Label_01132020
@  #07 @019   ----------------------------------------
 .byte   PATT
  .word Label_01132020
@  #07 @020   ----------------------------------------
 .byte   PATT
  .word Label_01132020
@  #07 @021   ----------------------------------------
 .byte   PATT
  .word Label_01132020
@  #07 @022   ----------------------------------------
 .byte   PATT
  .word Label_01132020
@  #07 @023   ----------------------------------------
 .byte   N23 ,An2 ,v064
 .byte   W48
@  #07 @024   ----------------------------------------
 .byte   PATT
  .word Label_01132020
@  #07 @025   ----------------------------------------
 .byte   PATT
  .word Label_01132020
@  #07 @026   ----------------------------------------
 .byte   PATT
  .word Label_01132020
@  #07 @027   ----------------------------------------
 .byte   N23 ,An2 ,v064
 .byte   W48
@  #07 @028   ----------------------------------------
 .byte   PATT
  .word Label_01132020
@  #07 @029   ----------------------------------------
 .byte   PATT
  .word Label_01132020
@  #07 @030   ----------------------------------------
 .byte   PATT
  .word Label_01132020
@  #07 @031   ----------------------------------------
 .byte   N23 ,An2 ,v064
 .byte   W48
@  #07 @032   ----------------------------------------
 .byte   PATT
  .word Label_01132020
@  #07 @033   ----------------------------------------
 .byte   PATT
  .word Label_01132020
@  #07 @034   ----------------------------------------
 .byte   PATT
  .word Label_01132020
@  #07 @035   ----------------------------------------
 .byte   PATT
  .word Label_01132020
@  #07 @036   ----------------------------------------
 .byte   PATT
  .word Label_01132020
@  #07 @037   ----------------------------------------
 .byte   PATT
  .word Label_01132020
@  #07 @038   ----------------------------------------
 .byte   PATT
  .word Label_01132020
@  #07 @039   ----------------------------------------
 .byte   N23 ,An2 ,v064
 .byte   W48
@  #07 @040   ----------------------------------------
 .byte   PATT
  .word Label_01132020
@  #07 @041   ----------------------------------------
 .byte   PATT
  .word Label_01132020
@  #07 @042   ----------------------------------------
 .byte   PATT
  .word Label_01132020
@  #07 @043   ----------------------------------------
 .byte   PATT
  .word Label_01132020
@  #07 @044   ----------------------------------------
 .byte   PATT
  .word Label_01132020
@  #07 @045   ----------------------------------------
 .byte   PATT
  .word Label_01132020
@  #07 @046   ----------------------------------------
 .byte   N23 ,An2 ,v064
 .byte   W48
 .byte   W48
@  #07 @047   ----------------------------------------
 .byte   PATT
  .word Label_01132020
@  #07 @048   ----------------------------------------
 .byte   PATT
  .word Label_01132020
@  #07 @049   ----------------------------------------
 .byte   PATT
  .word Label_01132020
@  #07 @050   ----------------------------------------
 .byte   PATT
  .word Label_01132020
@  #07 @051   ----------------------------------------
 .byte   PATT
  .word Label_01132020
@  #07 @052   ----------------------------------------
 .byte   PATT
  .word Label_01132020
@  #07 @053   ----------------------------------------
 .byte   N23 ,An2 ,v064
 .byte   W48
 .byte   W48
@  #07 @054   ----------------------------------------
 .byte   N92 ,An2 ,v052
 .byte   W48
 .byte   W48
@  #07 @055   ----------------------------------------
 .byte   Gn2
 .byte   W48
 .byte   W48
@  #07 @056   ----------------------------------------
 .byte   TIE ,Fn2
 .byte   W48
 .byte   W48
@  #07 @057   ----------------------------------------
 .byte   W48
 .byte   W44
 .byte   W03
 .byte   EOT
 .byte   W01
@  #07 @058   ----------------------------------------
 .byte   N92
 .byte   W48
 .byte   W48
@  #07 @059   ----------------------------------------
 .byte   Gn2
 .byte   W48
 .byte   W48
@  #07 @060   ----------------------------------------
 .byte   TIE
 .byte   W48
 .byte   W48
@  #07 @061   ----------------------------------------
 .byte   W48
 .byte   W44
 .byte   W03
 .byte   EOT
 .byte   W01
@  #07 @062   ----------------------------------------
 .byte   N92 ,An2
 .byte   W48
 .byte   W48
@  #07 @063   ----------------------------------------
 .byte   Gn2
 .byte   W48
 .byte   W48
@  #07 @064   ----------------------------------------
 .byte   TIE ,Fn2
 .byte   W48
 .byte   W48
@  #07 @065   ----------------------------------------
 .byte   W48
 .byte   W44
 .byte   W03
 .byte   EOT
 .byte   W01
@  #07 @066   ----------------------------------------
 .byte   N92
 .byte   W48
 .byte   W48
@  #07 @067   ----------------------------------------
 .byte   Gn2
 .byte   W48
 .byte   W48
@  #07 @068   ----------------------------------------
 .byte   Gs2
 .byte   W48
 .byte   W48
@  #07 @069   ----------------------------------------
 .byte   W48
 .byte   W48
@  #07 @070   ----------------------------------------
 .byte   W48
 .byte   W48
@  #07 @071   ----------------------------------------
 .byte   W48
 .byte   W48
@  #07 @072   ----------------------------------------
 .byte   W48
 .byte   W48
@  #07 @073   ----------------------------------------
 .byte   W48
 .byte   W48
@  #07 @074   ----------------------------------------
 .byte   Bn2 ,v064
 .byte   W48
 .byte   W48
@  #07 @075   ----------------------------------------
 .byte   Cn3
 .byte   W48
 .byte   W48
@  #07 @076   ----------------------------------------
 .byte   Dn3
 .byte   W48
 .byte   W48
@  #07 @077   ----------------------------------------
 .byte   Gn3
 .byte   W48
 .byte   W48
@  #07 @078   ----------------------------------------
 .byte   Dn3
 .byte   W48
 .byte   W48
@  #07 @079   ----------------------------------------
 .byte   En3
 .byte   W48
 .byte   W48
@  #07 @080   ----------------------------------------
 .byte   N92
 .byte   W48
 .byte   W48
@  #07 @081   ----------------------------------------
 .byte   Dn3
 .byte   W48
 .byte   W48
@  #07 @082   ----------------------------------------
 .byte   An2
 .byte   W48
 .byte   W48
@  #07 @083   ----------------------------------------
 .byte   Gs2
 .byte   W48
 .byte   W48
@  #07 @084   ----------------------------------------
Label_01132163:
 .byte   N32 ,Bn2 ,v064
 .byte   W36
 .byte   TIE ,An2
 .byte   W12
 .byte   PEND 
 .byte   W48
@  #07 @085   ----------------------------------------
 .byte   W48
 .byte   W23
 .byte   EOT
 .byte   W24
 .byte   W01
@  #07 @086   ----------------------------------------
 .byte   W48
 .byte   W48
@  #07 @087   ----------------------------------------
 .byte   W48
 .byte   W48
@  #07 @088   ----------------------------------------
 .byte   W48
 .byte   W48
@  #07 @089   ----------------------------------------
 .byte   W48
 .byte   W48
@  #07 @090   ----------------------------------------
 .byte   W48
 .byte   W48
@  #07 @091   ----------------------------------------
 .byte   W48
 .byte   W48
@  #07 @092   ----------------------------------------
 .byte   W48
 .byte   W48
@  #07 @093   ----------------------------------------
 .byte   W48
 .byte   W48
@  #07 @094   ----------------------------------------
 .byte   W48
 .byte   W48
@  #07 @095   ----------------------------------------
 .byte   W48
 .byte   W48
@  #07 @096   ----------------------------------------
 .byte   W48
 .byte   W48
@  #07 @097   ----------------------------------------
 .byte   W48
 .byte   W48
@  #07 @098   ----------------------------------------
 .byte   W48
 .byte   W48
@  #07 @099   ----------------------------------------
 .byte   W48
 .byte   W48
@  #07 @100   ----------------------------------------
 .byte   W48
 .byte   W48
@  #07 @101   ----------------------------------------
 .byte   W48
 .byte   W48
@  #07 @102   ----------------------------------------
 .byte   W48
 .byte   W48
@  #07 @103   ----------------------------------------
 .byte   W48
 .byte   W24
 .byte   N23 ,En1 ,v080
 .byte   W24
@  #07 @104   ----------------------------------------
 .byte   N92 ,An1 ,v052
 .byte   W48
 .byte   W48
@  #07 @105   ----------------------------------------
 .byte   W48
 .byte   W48
@  #07 @106   ----------------------------------------
Label_011321A0:
 .byte   N32 ,Fn1 ,v052
 .byte   W36
 .byte   N11
 .byte   W12
 .byte   PEND 
 .byte   W24
 .byte   N32
 .byte   W24
@  #07 @107   ----------------------------------------
 .byte   W12
 .byte   N11
 .byte   W36
 .byte   N44 ,Gn1 ,v080
 .byte   W48
@  #07 @108   ----------------------------------------
Label_011321B1:
 .byte   N32 ,An1 ,v052
 .byte   W36
 .byte   N11
 .byte   W12
 .byte   PEND 
Label_011321B8:
 .byte   W24
 .byte   TIE ,An1 ,v052
 .byte   W24
 .byte   PEND 
@  #07 @109   ----------------------------------------
Label_011321BE:
 .byte   W04
 .byte   W05
 .byte   W05
 .byte   W05
 .byte   W05
 .byte   W04
 .byte   W05
 .byte   W05
 .byte   W05
 .byte   W05
 .byte   PEND 
Label_011321C9:
 .byte   W04
 .byte   W05
 .byte   W05
 .byte   W05
 .byte   W28
 .byte   PEND 
 .byte   EOT
 .byte   An1
 .byte   W01
@  #07 @110   ----------------------------------------
 .byte   TIE ,Dn1 ,v052
 .byte   W48
 .byte   W48
@  #07 @111   ----------------------------------------
 .byte   W44
 .byte   W03
 .byte   EOT
 .byte   W01
 .byte   N44 ,En1
 .byte   W48
@  #07 @112   ----------------------------------------
 .byte   TIE ,An1
 .byte   W48
 .byte   W48
@  #07 @113   ----------------------------------------
 .byte   W44
 .byte   W03
 .byte   EOT
 .byte   W01
Label_011321E6:
 .byte   N11 ,Gn1 ,v052
 .byte   W12
 .byte   Fn1
 .byte   W12
 .byte   N23 ,En1
 .byte   W24
 .byte   PEND 
@  #07 @114   ----------------------------------------
 .byte   TIE ,Dn1
 .byte   W48
 .byte   W48
@  #07 @115   ----------------------------------------
 .byte   W44
 .byte   W03
 .byte   EOT
 .byte   W01
 .byte   N44
 .byte   W48
@  #07 @116   ----------------------------------------
 .byte   TIE ,En1
 .byte   W48
 .byte   W48
@  #07 @117   ----------------------------------------
Label_011321FE:
 .byte   W05
 .byte   W03
 .byte   W02
 .byte   W03
 .byte   W03
 .byte   W02
 .byte   W03
 .byte   W03
 .byte   W03
 .byte   W02
 .byte   W03
 .byte   W03
 .byte   W02
 .byte   W03
 .byte   W03
 .byte   W02
 .byte   W03
 .byte   PEND 
Label_01132210:
 .byte   W03
 .byte   W03
 .byte   W02
 .byte   W03
 .byte   W03
 .byte   W02
 .byte   W03
 .byte   W03
 .byte   W02
 .byte   W03
 .byte   W03
 .byte   W03
 .byte   W02
 .byte   W12
 .byte   PEND 
 .byte   EOT
 .byte   En1
 .byte   W01
@  #07 @118   ----------------------------------------
Label_01132222:
 .byte   N32 ,Dn1 ,v080
 .byte   N32 ,Cn3 ,v064
 .byte   W36
 .byte   En1 ,v080
 .byte   N32 ,Dn3 ,v064
 .byte   W12
 .byte   PEND 
Label_01132230:
 .byte   W24
 .byte   TIE ,An1 ,v080
 .byte   N68 ,Cn3 ,v064
 .byte   W24
 .byte   PEND 
@  #07 @119   ----------------------------------------
 .byte   W48
 .byte   N44 ,Bn2
 .byte   W48
@  #07 @120   ----------------------------------------
Label_0113223D:
 .byte   N11 ,Gn2 ,v064
 .byte   W12
 .byte   Bn2
 .byte   W12
 .byte   Dn3
 .byte   W12
 .byte   Bn2
 .byte   W12
 .byte   PEND 
@  #07 @121   ----------------------------------------
 .byte   PATT
  .word Label_0113223D
@  #07 @122   ----------------------------------------
 .byte   PATT
  .word Label_0113223D
@  #07 @123   ----------------------------------------
Label_01132252:
 .byte   N11 ,Gn2 ,v064
 .byte   W12
 .byte   Bn2
 .byte   W12
 .byte   Dn3
 .byte   W12
 .byte   Bn2
 .byte   W11
 .byte   PEND 
 .byte   EOT
 .byte   An1
 .byte   W01
@  #07 @124   ----------------------------------------
 .byte   PATT
  .word Label_01132222
@  #07 @125   ----------------------------------------
Label_01132265:
 .byte   W24
 .byte   TIE ,An1 ,v080
 .byte   TIE ,Bn2 ,v064
 .byte   W24
 .byte   PEND 
 .byte   W48
@  #07 @126   ----------------------------------------
 .byte   W44
 .byte   W03
 .byte   EOT
 .byte   W01
 .byte   N23 ,Dn3
 .byte   W48
@  #07 @127   ----------------------------------------
 .byte   PATT
  .word Label_0113223D
@  #07 @128   ----------------------------------------
 .byte   PATT
  .word Label_0113223D
@  #07 @129   ----------------------------------------
 .byte   PATT
  .word Label_01132252
@  #07 @130   ----------------------------------------
 .byte   EOT
 .byte   An1
 .byte   W01
Label_01132288:
 .byte   N32 ,Dn1 ,v080
 .byte   N32 ,Cn4 ,v064
 .byte   W36
 .byte   En1 ,v080
 .byte   N32 ,Bn3 ,v064
 .byte   W12
 .byte   PEND 
Label_01132296:
 .byte   W24
 .byte   TIE ,An1 ,v080
 .byte   TIE ,En3 ,v064
 .byte   W24
 .byte   PEND 
@  #07 @131   ----------------------------------------
 .byte   W48
 .byte   W44
 .byte   W03
 .byte   EOT
 .byte   An1 ,v064
 .byte   W01
@  #07 @132   ----------------------------------------
Label_011322A6:
 .byte   TIE ,An1 ,v080
 .byte   W24
 .byte   N23 ,Cn4 ,v064
 .byte   W24
 .byte   PEND 
Label_011322AF:
 .byte   N23 ,Bn3 ,v064
 .byte   W24
 .byte   N68 ,En3
 .byte   W24
 .byte   PEND 
@  #07 @133   ----------------------------------------
 .byte   W48
Label_011322B8:
 .byte   N44 ,Dn3 ,v064
 .byte   W44
 .byte   W03
 .byte   PEND 
 .byte   EOT
 .byte   An1
 .byte   W01
@  #07 @134   ----------------------------------------
Label_011322C1:
 .byte   N32 ,Dn1 ,v080
 .byte   N23 ,Dn3 ,v064
 .byte   W24
 .byte   N11 ,En3
 .byte   W12
 .byte   N32 ,Dn1 ,v080
 .byte   N23 ,En3 ,v064
 .byte   W12
 .byte   PEND 
Label_011322D3:
 .byte   W12
 .byte   N11 ,Fn3 ,v064
 .byte   W12
 .byte   TIE ,En1 ,v080
 .byte   TIE ,En3 ,v064
 .byte   W24
 .byte   PEND 
@  #07 @135   ----------------------------------------
 .byte   W48
 .byte   W44
 .byte   W03
 .byte   EOT
 .byte   W01
@  #07 @136   ----------------------------------------
 .byte   W48
 .byte   W44
 .byte   W03
 .byte   En1
 .byte   W01
@  #07 @137   ----------------------------------------
 .byte   W48
 .byte   W48
@  #07 @138   ----------------------------------------
Label_011322EC:
 .byte   N92 ,Fn1 ,v096
 .byte   N32 ,En3 ,v080
 .byte   W36
 .byte   N11
 .byte   W12
 .byte   PEND 
 .byte   W12
 .byte   N32 ,Cn3
 .byte   W36
@  #07 @139   ----------------------------------------
Label_011322FA:
 .byte   N92 ,Gn1 ,v096
 .byte   N32 ,Cn3 ,v080
 .byte   W36
 .byte   Dn3
 .byte   W12
 .byte   PEND 
 .byte   W24
 .byte   N23 ,Bn2
 .byte   W24
@  #07 @140   ----------------------------------------
Label_01132308:
 .byte   N92 ,An1 ,v096
 .byte   N32 ,Gn3 ,v080
 .byte   W36
 .byte   N11 ,En3
 .byte   W12
 .byte   PEND 
 .byte   W12
 .byte   N32
 .byte   W36
@  #07 @141   ----------------------------------------
Label_01132316:
 .byte   N92 ,En1 ,v096
 .byte   N32 ,Dn3 ,v080
 .byte   W36
 .byte   Cn3
 .byte   W12
 .byte   PEND 
 .byte   W24
 .byte   N23 ,Bn2
 .byte   W24
@  #07 @142   ----------------------------------------
Label_01132324:
 .byte   N92 ,Dn1 ,v096
 .byte   N44 ,An2 ,v080
 .byte   W48
 .byte   PEND 
Label_0113232C:
 .byte   N23 ,Gn3 ,v080
 .byte   W24
 .byte   Fn3
 .byte   W24
 .byte   PEND 
@  #07 @143   ----------------------------------------
Label_01132333:
 .byte   N44 ,En1 ,v096
 .byte   N44 ,Dn3 ,v080
 .byte   W48
 .byte   PEND 
Label_0113233B:
 .byte   N44 ,Gs1 ,v096
 .byte   N44 ,Gs3 ,v080
 .byte   W48
 .byte   PEND 
@  #07 @144   ----------------------------------------
Label_01132343:
 .byte   N92 ,An1 ,v096
 .byte   N32 ,Bn3 ,v080
 .byte   W36
 .byte   N56 ,An3
 .byte   W12
 .byte   PEND 
 .byte   W48
@  #07 @145   ----------------------------------------
Label_0113234F:
 .byte   N32 ,Gn1 ,v096
 .byte   N32 ,Gn3 ,v080
 .byte   W36
 .byte   Gn1 ,v096
 .byte   N32 ,Fn3 ,v080
 .byte   W12
 .byte   PEND 
Label_0113235D:
 .byte   W24
 .byte   N23 ,Fs1 ,v096
 .byte   N23 ,En3 ,v080
 .byte   W24
 .byte   PEND 
@  #07 @146   ----------------------------------------
Label_01132366:
 .byte   N92 ,Fn1 ,v096
 .byte   N23 ,En3 ,v080
 .byte   W24
 .byte   Fn3
 .byte   W24
 .byte   PEND 
Label_01132370:
 .byte   N32 ,An3 ,v080
 .byte   W36
 .byte   N44 ,Gn3
 .byte   W12
 .byte   PEND 
@  #07 @147   ----------------------------------------
Label_01132378:
 .byte   N92 ,Gn1 ,v096
 .byte   W36
 .byte   N32 ,Dn3 ,v080
 .byte   W12
 .byte   PEND 
 .byte   W24
 .byte   N23 ,Gn3
 .byte   W24
@  #07 @148   ----------------------------------------
Label_01132385:
 .byte   N92 ,En1 ,v096
 .byte   N32 ,Dn3 ,v080
 .byte   W36
 .byte   N56 ,Bn3
 .byte   W12
 .byte   PEND 
 .byte   W48
@  #07 @149   ----------------------------------------
Label_01132391:
 .byte   N44 ,An1 ,v096
 .byte   N23 ,Bn3 ,v080
 .byte   W24
 .byte   Cn4
 .byte   W24
 .byte   PEND 
Label_0113239B:
 .byte   N23 ,Bn1 ,v096
 .byte   N44 ,Gn3 ,v080
 .byte   W24
 .byte   N11 ,An1 ,v096
 .byte   W12
 .byte   Gn1
 .byte   W12
 .byte   PEND 
@  #07 @150   ----------------------------------------
Label_011323A9:
 .byte   N92 ,Dn1 ,v096
 .byte   N44 ,Fn3 ,v080
 .byte   W48
 .byte   PEND 
 .byte   An3
 .byte   W48
@  #07 @151   ----------------------------------------
Label_011323B3:
 .byte   N92 ,En1 ,v096
 .byte   N44 ,Gs3 ,v080
 .byte   W48
 .byte   PEND 
 .byte   En3
 .byte   W48
@  #07 @152   ----------------------------------------
Label_011323BD:
 .byte   TIE ,An1 ,v096
 .byte   N32 ,Dn3 ,v080
 .byte   W36
 .byte   Cn3
 .byte   W12
 .byte   PEND 
 .byte   W24
 .byte   N23
 .byte   W24
@  #07 @153   ----------------------------------------
Label_011323CA:
 .byte   N32 ,Bn2 ,v080
 .byte   W36
 .byte   N56 ,An2
 .byte   W12
 .byte   PEND 
 .byte   W44
 .byte   W03
 .byte   EOT
 .byte   An1
 .byte   W01
@  #07 @154   ----------------------------------------
Label_011323D7:
 .byte   N92 ,Fn1 ,v096
 .byte   N68 ,Gn4 ,v112
 .byte   W48
 .byte   PEND 
Label_011323DF:
 .byte   W24
 .byte   N11 ,Fn4 ,v112
 .byte   W12
 .byte   N80 ,En4
 .byte   W12
 .byte   PEND 
@  #07 @155   ----------------------------------------
 .byte   N92 ,Gn1 ,v096
 .byte   W48
 .byte   W24
 .byte   N23 ,Fn4 ,v112
 .byte   W24
@  #07 @156   ----------------------------------------
Label_011323F1:
 .byte   N92 ,An1 ,v096
 .byte   N23 ,En4 ,v112
 .byte   W24
 .byte   N44 ,Dn4
 .byte   W24
 .byte   PEND 
 .byte   W24
 .byte   N23 ,En4
 .byte   W24
@  #07 @157   ----------------------------------------
Label_01132400:
 .byte   N92 ,En1 ,v096
 .byte   N23 ,Fn4 ,v112
 .byte   W24
 .byte   En4
 .byte   W24
 .byte   PEND 
Label_0113240A:
 .byte   N23 ,Dn4 ,v112
 .byte   W24
 .byte   Cn4
 .byte   W24
 .byte   PEND 
@  #07 @158   ----------------------------------------
Label_01132411:
 .byte   N92 ,Fn1 ,v096
 .byte   N23 ,Dn4 ,v112
 .byte   W24
 .byte   N11 ,En4
 .byte   W12
 .byte   TIE
 .byte   W12
 .byte   PEND 
 .byte   W48
@  #07 @159   ----------------------------------------
Label_0113241F:
 .byte   N44 ,Gn1 ,v096
 .byte   W44
 .byte   W03
 .byte   PEND 
 .byte   EOT
 .byte   En4
 .byte   W01
Label_01132428:
 .byte   N44 ,Gs1 ,v096
 .byte   N44 ,Bn3 ,v112
 .byte   W48
 .byte   PEND 
@  #07 @160   ----------------------------------------
Label_01132430:
 .byte   N92 ,An1 ,v096
 .byte   N23 ,Bn3 ,v112
 .byte   W24
 .byte   Cn4
 .byte   W24
 .byte   PEND 
Label_0113243A:
 .byte   N23 ,Bn3 ,v112
 .byte   W24
 .byte   N92 ,Cn4
 .byte   W24
 .byte   PEND 
@  #07 @161   ----------------------------------------
 .byte   N44 ,Gn1 ,v096
 .byte   W48
Label_01132446:
 .byte   N44 ,Fs1 ,v096
 .byte   W24
 .byte   N11 ,An3 ,v112
 .byte   W12
 .byte   Bn3
 .byte   W12
 .byte   PEND 
@  #07 @162   ----------------------------------------
Label_01132451:
 .byte   N92 ,Fn0 ,v064
 .byte   N92 ,Fn1
 .byte   N56 ,Cn4 ,v112
 .byte   W48
 .byte   PEND 
Label_0113245B:
 .byte   W12
 .byte   N11 ,Bn3 ,v112
 .byte   W12
 .byte   An3
 .byte   W12
 .byte   Gn3
 .byte   W12
 .byte   PEND 
@  #07 @163   ----------------------------------------
Label_01132465:
 .byte   N92 ,Gn0 ,v064
 .byte   N92 ,Gn1
 .byte   N68 ,An3 ,v112
 .byte   W48
 .byte   PEND 
Label_0113246F:
 .byte   W24
 .byte   N11 ,An3 ,v112
 .byte   W12
 .byte   Bn3
 .byte   W12
 .byte   PEND 
@  #07 @164   ----------------------------------------
Label_01132477:
 .byte   N92 ,En0 ,v064
 .byte   N92 ,En1
 .byte   N56 ,Cn4 ,v112
 .byte   W48
 .byte   PEND 
Label_01132481:
 .byte   W12
 .byte   N11 ,Bn3 ,v112
 .byte   W12
 .byte   Cn4
 .byte   W12
 .byte   N32 ,Dn4
 .byte   W12
 .byte   PEND 
@  #07 @165   ----------------------------------------
Label_0113248C:
 .byte   N92 ,An0 ,v064
 .byte   N92 ,An1
 .byte   W24
 .byte   N23 ,Cn4 ,v112
 .byte   W24
 .byte   PEND 
@  #07 @166   ----------------------------------------
 .byte   PATT
  .word Label_0113246F
@  #07 @167   ----------------------------------------
Label_0113249C:
 .byte   N92 ,Dn0 ,v064
 .byte   N92 ,Dn1
 .byte   N56 ,Cn4 ,v112
 .byte   W48
 .byte   PEND 
Label_011324A6:
 .byte   W12
 .byte   N23 ,An3 ,v112
 .byte   W24
 .byte   N11 ,Bn3
 .byte   W12
 .byte   PEND 
@  #07 @168   ----------------------------------------
Label_011324AF:
 .byte   N92 ,Dn0 ,v064
 .byte   N92 ,Dn1
 .byte   N23 ,Cn4 ,v112
 .byte   W24
 .byte   Dn4
 .byte   W24
 .byte   PEND 
Label_011324BB:
 .byte   N23 ,En4 ,v112
 .byte   W24
 .byte   N11 ,Fn4
 .byte   W12
 .byte   TIE ,En4
 .byte   W12
 .byte   PEND 
@  #07 @169   ----------------------------------------
Label_011324C6:
 .byte   TIE ,En0 ,v064
 .byte   TIE ,En1
 .byte   N92 ,Dn3 ,v080
 .byte   W48
 .byte   PEND 
 .byte   W48
@  #07 @170   ----------------------------------------
 .byte   N92
 .byte   W48
 .byte   W44
 .byte   W03
 .byte   EOT
 .byte   En0 ,v040
 .byte   En4
 .byte   W01
@  #07 @171   ----------------------------------------
 .byte   N92 ,Fn1 ,v064
 .byte   N92 ,Cs3
 .byte   W48
 .byte   W48
@  #07 @172   ----------------------------------------
 .byte   Fn1
 .byte   N92 ,Cs3
 .byte   W48
 .byte   W48
@  #07 @173   ----------------------------------------
 .byte   W48
 .byte   W48
@  #07 @174   ----------------------------------------
 .byte   W48
 .byte   W48
@  #07 @175   ----------------------------------------
 .byte   W48
 .byte   W48
@  #07 @176   ----------------------------------------
 .byte   W48
 .byte   W48
@  #07 @177   ----------------------------------------
 .byte   W48
 .byte   W48
@  #07 @178   ----------------------------------------
 .byte   W48
 .byte   W48
@  #07 @179   ----------------------------------------
 .byte   W48
 .byte   W48
@  #07 @180   ----------------------------------------
 .byte   W48
 .byte   W48
@  #07 @181   ----------------------------------------
 .byte   Fs1 ,v080
 .byte   W48
 .byte   W48
@  #07 @182   ----------------------------------------
 .byte   Gs1
 .byte   W48
 .byte   W48
@  #07 @183   ----------------------------------------
 .byte   As1
 .byte   W48
 .byte   W48
@  #07 @184   ----------------------------------------
 .byte   Fn1
 .byte   W48
 .byte   W48
@  #07 @185   ----------------------------------------
 .byte   Ds1
 .byte   W48
 .byte   W48
@  #07 @186   ----------------------------------------
 .byte   TIE ,Fn1
 .byte   W48
 .byte   W48
@  #07 @187   ----------------------------------------
 .byte   W48
 .byte   W44
 .byte   W03
 .byte   EOT
 .byte   W01
@  #07 @188   ----------------------------------------
 .byte   W48
 .byte   W48
@  #07 @189   ----------------------------------------
 .byte   W48
 .byte   N44 ,Fs1
 .byte   N44 ,Cs3
 .byte   W48
@  #07 @190   ----------------------------------------
Label_01132517:
 .byte   N32 ,Gs1 ,v080
 .byte   N32 ,Cs3
 .byte   W36
 .byte   N11 ,Gs1
 .byte   N32 ,Ds3
 .byte   W12
 .byte   PEND 
Label_01132523:
 .byte   W12
 .byte   N32 ,Gs1 ,v080
 .byte   W12
 .byte   N23 ,Cn3
 .byte   W24
 .byte   PEND 
@  #07 @191   ----------------------------------------
Label_0113252C:
 .byte   N92 ,As1 ,v080
 .byte   N32 ,Gs3
 .byte   W36
 .byte   N11 ,Fn3
 .byte   W12
 .byte   PEND 
 .byte   W12
 .byte   N32
 .byte   W36
@  #07 @192   ----------------------------------------
Label_01132539:
 .byte   N92 ,Fn1 ,v080
 .byte   N32 ,Ds3
 .byte   W36
 .byte   Cs3
 .byte   W12
 .byte   PEND 
 .byte   W24
 .byte   N23 ,Cn3
 .byte   W24
@  #07 @193   ----------------------------------------
Label_01132546:
 .byte   N92 ,Ds1 ,v080
 .byte   N44 ,As2
 .byte   W48
 .byte   PEND 
Label_0113254D:
 .byte   N23 ,Gs3 ,v080
 .byte   W24
 .byte   Fs3
 .byte   W24
 .byte   PEND 
@  #07 @194   ----------------------------------------
 .byte   N44 ,Fn1
 .byte   N44 ,Ds3
 .byte   W48
 .byte   An1
 .byte   N44 ,An3
 .byte   W48
@  #07 @195   ----------------------------------------
Label_0113255D:
 .byte   N92 ,As1 ,v080
 .byte   N32 ,Cn4
 .byte   W36
 .byte   N56 ,As3
 .byte   W12
 .byte   PEND 
 .byte   W48
@  #07 @196   ----------------------------------------
Label_01132568:
 .byte   N32 ,Gs1 ,v080
 .byte   N32 ,Gs3
 .byte   W36
 .byte   Gs1
 .byte   N32 ,Fs3
 .byte   W12
 .byte   PEND 
Label_01132573:
 .byte   W24
 .byte   N23 ,Gn1 ,v080
 .byte   N23 ,Fn3
 .byte   W24
 .byte   PEND 
@  #07 @197   ----------------------------------------
Label_0113257B:
 .byte   N92 ,Fs1 ,v080
 .byte   N23 ,Fn3
 .byte   W24
 .byte   Fs3
 .byte   W24
 .byte   PEND 
Label_01132584:
 .byte   N32 ,As3 ,v080
 .byte   W36
 .byte   N44 ,Gs3
 .byte   W12
 .byte   PEND 
@  #07 @198   ----------------------------------------
Label_0113258C:
 .byte   N92 ,Gs1 ,v080
 .byte   W36
 .byte   N32 ,Ds3
 .byte   W12
 .byte   PEND 
 .byte   W24
 .byte   N23 ,Gs3
 .byte   W24
@  #07 @199   ----------------------------------------
Label_01132598:
 .byte   N92 ,Fn1 ,v080
 .byte   N32 ,Ds3
 .byte   W36
 .byte   N56 ,Cn4
 .byte   W12
 .byte   PEND 
 .byte   W48
@  #07 @200   ----------------------------------------
Label_011325A3:
 .byte   N44 ,As1 ,v080
 .byte   N23 ,Cn4
 .byte   W24
 .byte   Cs4
 .byte   W24
 .byte   PEND 
Label_011325AC:
 .byte   N23 ,Cn2 ,v080
 .byte   N44 ,Gs3
 .byte   W24
 .byte   N11 ,As1
 .byte   W12
 .byte   Gs1
 .byte   W12
 .byte   PEND 
@  #07 @201   ----------------------------------------
Label_011325B8:
 .byte   N92 ,Ds1 ,v080
 .byte   N44 ,Fs3
 .byte   W48
 .byte   PEND 
 .byte   As3
 .byte   W48
@  #07 @202   ----------------------------------------
Label_011325C1:
 .byte   N92 ,Fn1 ,v080
 .byte   N44 ,An3
 .byte   W48
 .byte   PEND 
 .byte   Fn3
 .byte   W48
@  #07 @203   ----------------------------------------
Label_011325CA:
 .byte   TIE ,As1 ,v080
 .byte   N32 ,Ds3
 .byte   W36
 .byte   Cs3
 .byte   W12
 .byte   PEND 
 .byte   W24
 .byte   N23
 .byte   W24
@  #07 @204   ----------------------------------------
Label_011325D6:
 .byte   N32 ,Cn3 ,v080
 .byte   W36
 .byte   N56 ,As2
 .byte   W12
 .byte   PEND 
 .byte   W44
 .byte   W03
 .byte   EOT
 .byte   As1
 .byte   W01
@  #07 @205   ----------------------------------------
Label_011325E3:
 .byte   N11 ,Ds1 ,v116
 .byte   W03
 .byte   W01
 .byte   W01
 .byte   W19
 .byte   N11
 .byte   W03
 .byte   W01
 .byte   W01
 .byte   W19
 .byte   PEND 
@  #07 @206   ----------------------------------------
 .byte   PATT
  .word Label_011325E3
@  #07 @207   ----------------------------------------
Label_011325F5:
 .byte   N11 ,Fn1 ,v116
 .byte   W03
 .byte   W01
 .byte   W01
 .byte   W19
 .byte   N11
 .byte   W03
 .byte   W01
 .byte   W01
 .byte   W19
 .byte   PEND 
@  #07 @208   ----------------------------------------
 .byte   PATT
  .word Label_011325F5
@  #07 @209   ----------------------------------------
Label_01132607:
 .byte   N11 ,Fs1 ,v116
 .byte   W03
 .byte   W01
 .byte   W01
 .byte   W19
 .byte   N11
 .byte   W03
 .byte   W01
 .byte   W01
 .byte   W19
 .byte   PEND 
@  #07 @210   ----------------------------------------
 .byte   PATT
  .word Label_01132607
@  #07 @211   ----------------------------------------
 .byte   PATT
  .word Label_011325F5
@  #07 @212   ----------------------------------------
 .byte   PATT
  .word Label_011325F5
@  #07 @213   ----------------------------------------
 .byte   PATT
  .word Label_011325E3
@  #07 @214   ----------------------------------------
 .byte   PATT
  .word Label_011325E3
@  #07 @215   ----------------------------------------
 .byte   PATT
  .word Label_011325E3
@  #07 @216   ----------------------------------------
 .byte   PATT
  .word Label_011325E3
@  #07 @217   ----------------------------------------
 .byte   PATT
  .word Label_011325F5
@  #07 @218   ----------------------------------------
 .byte   PATT
  .word Label_011325F5
@  #07 @219   ----------------------------------------
 .byte   PATT
  .word Label_011325F5
@  #07 @220   ----------------------------------------
 .byte   PATT
  .word Label_011325F5
@  #07 @221   ----------------------------------------
Label_0113264B:
 .byte   N11 ,Gn1 ,v116
 .byte   W03
 .byte   W01
 .byte   W01
 .byte   W19
 .byte   N11
 .byte   W03
 .byte   W01
 .byte   W01
 .byte   W19
 .byte   PEND 
@  #07 @222   ----------------------------------------
 .byte   PATT
  .word Label_0113264B
@  #07 @223   ----------------------------------------
 .byte   PATT
  .word Label_0113264B
@  #07 @224   ----------------------------------------
 .byte   PATT
  .word Label_0113264B
@  #07 @225   ----------------------------------------
 .byte   W48
 .byte   W48
@  #07 @226   ----------------------------------------
 .byte   W48
 .byte   W48
@  #07 @227   ----------------------------------------
 .byte   W48
 .byte   W48
@  #07 @228   ----------------------------------------
 .byte   W48
 .byte   W48
@  #07 @229   ----------------------------------------
 .byte   W48
 .byte   W48
@  #07 @230   ----------------------------------------
 .byte   W48
 .byte   W48
@  #07 @231   ----------------------------------------
 .byte   W48
 .byte   W48
@  #07 @232   ----------------------------------------
 .byte   W48
 .byte   W48
@  #07 @233   ----------------------------------------
 .byte   GOTO
  .word Label_01132020
@  #07 @234   ----------------------------------------
 .byte   PATT
  .word Label_01132020
@  #07 @235   ----------------------------------------
 .byte   PATT
  .word Label_01132020
@  #07 @236   ----------------------------------------
 .byte   PATT
  .word Label_01132020
@  #07 @237   ----------------------------------------
 .byte   N23 ,An2 ,v064
 .byte   W48
@  #07 @238   ----------------------------------------
 .byte   PATT
  .word Label_01132020
@  #07 @239   ----------------------------------------
 .byte   PATT
  .word Label_01132020
@  #07 @240   ----------------------------------------
 .byte   PATT
  .word Label_01132020
@  #07 @241   ----------------------------------------
 .byte   N23 ,An2 ,v064
 .byte   W48
@  #07 @242   ----------------------------------------
 .byte   PATT
  .word Label_01132020
@  #07 @243   ----------------------------------------
 .byte   PATT
  .word Label_01132020
@  #07 @244   ----------------------------------------
 .byte   PATT
  .word Label_01132020
@  #07 @245   ----------------------------------------
 .byte   PATT
  .word Label_01132020
@  #07 @246   ----------------------------------------
 .byte   PATT
  .word Label_01132020
@  #07 @247   ----------------------------------------
 .byte   PATT
  .word Label_01132020
@  #07 @248   ----------------------------------------
 .byte   PATT
  .word Label_01132020
@  #07 @249   ----------------------------------------
 .byte   N23 ,An2 ,v064
 .byte   W48
@  #07 @250   ----------------------------------------
 .byte   PATT
  .word Label_01132020
@  #07 @251   ----------------------------------------
 .byte   PATT
  .word Label_01132020
@  #07 @252   ----------------------------------------
 .byte   PATT
  .word Label_01132020
@  #07 @253   ----------------------------------------
 .byte   N23 ,An2 ,v064
 .byte   W48
@  #07 @254   ----------------------------------------
 .byte   PATT
  .word Label_01132020
@  #07 @255   ----------------------------------------
 .byte   PATT
  .word Label_01132020
@  #07 @256   ----------------------------------------
 .byte   PATT
  .word Label_01132020
@  #07 @257   ----------------------------------------
 .byte   N23 ,An2 ,v064
 .byte   W48
@  #07 @258   ----------------------------------------
 .byte   PATT
  .word Label_01132020
@  #07 @259   ----------------------------------------
 .byte   PATT
  .word Label_01132020
@  #07 @260   ----------------------------------------
 .byte   PATT
  .word Label_01132020
@  #07 @261   ----------------------------------------
 .byte   PATT
  .word Label_01132020
@  #07 @262   ----------------------------------------
 .byte   PATT
  .word Label_01132020
@  #07 @263   ----------------------------------------
 .byte   PATT
  .word Label_01132020
@  #07 @264   ----------------------------------------
 .byte   PATT
  .word Label_01132020
@  #07 @265   ----------------------------------------
 .byte   N23 ,An2 ,v064
 .byte   W48
@  #07 @266   ----------------------------------------
 .byte   PATT
  .word Label_01132020
@  #07 @267   ----------------------------------------
 .byte   PATT
  .word Label_01132020
@  #07 @268   ----------------------------------------
 .byte   PATT
  .word Label_01132020
@  #07 @269   ----------------------------------------
 .byte   PATT
  .word Label_01132020
@  #07 @270   ----------------------------------------
 .byte   PATT
  .word Label_01132020
@  #07 @271   ----------------------------------------
 .byte   PATT
  .word Label_01132020
@  #07 @272   ----------------------------------------
 .byte   N23 ,An2 ,v064
 .byte   W48
 .byte   W48
@  #07 @273   ----------------------------------------
 .byte   PATT
  .word Label_01132020
@  #07 @274   ----------------------------------------
 .byte   PATT
  .word Label_01132020
@  #07 @275   ----------------------------------------
 .byte   PATT
  .word Label_01132020
@  #07 @276   ----------------------------------------
 .byte   PATT
  .word Label_01132020
@  #07 @277   ----------------------------------------
 .byte   PATT
  .word Label_01132020
@  #07 @278   ----------------------------------------
 .byte   PATT
  .word Label_01132020
@  #07 @279   ----------------------------------------
 .byte   N23 ,An2 ,v064
 .byte   W48
 .byte   W48
@  #07 @280   ----------------------------------------
 .byte   N92 ,An2 ,v052
 .byte   W48
 .byte   W48
@  #07 @281   ----------------------------------------
 .byte   Gn2
 .byte   W48
 .byte   W48
@  #07 @282   ----------------------------------------
 .byte   TIE ,Fn2
 .byte   W48
 .byte   W48
@  #07 @283   ----------------------------------------
 .byte   W48
 .byte   W44
 .byte   W03
 .byte   EOT
 .byte   W01
@  #07 @284   ----------------------------------------
 .byte   N92
 .byte   W48
 .byte   W48
@  #07 @285   ----------------------------------------
 .byte   Gn2
 .byte   W48
 .byte   W48
@  #07 @286   ----------------------------------------
 .byte   TIE
 .byte   W48
 .byte   W48
@  #07 @287   ----------------------------------------
 .byte   W48
 .byte   W44
 .byte   W03
 .byte   EOT
 .byte   W01
@  #07 @288   ----------------------------------------
 .byte   N92 ,An2
 .byte   W48
 .byte   W48
@  #07 @289   ----------------------------------------
 .byte   Gn2
 .byte   W48
 .byte   W48
@  #07 @290   ----------------------------------------
 .byte   TIE ,Fn2
 .byte   W48
 .byte   W48
@  #07 @291   ----------------------------------------
 .byte   W48
 .byte   W44
 .byte   W03
 .byte   EOT
 .byte   W01
@  #07 @292   ----------------------------------------
 .byte   N92
 .byte   W48
 .byte   W48
@  #07 @293   ----------------------------------------
 .byte   Gn2
 .byte   W48
 .byte   W48
@  #07 @294   ----------------------------------------
 .byte   Gs2
 .byte   W48
 .byte   W48
@  #07 @295   ----------------------------------------
 .byte   W48
 .byte   W48
@  #07 @296   ----------------------------------------
 .byte   W48
 .byte   W48
@  #07 @297   ----------------------------------------
 .byte   W48
 .byte   W48
@  #07 @298   ----------------------------------------
 .byte   W48
 .byte   W48
@  #07 @299   ----------------------------------------
 .byte   W48
 .byte   W48
@  #07 @300   ----------------------------------------
 .byte   Bn2 ,v064
 .byte   W48
 .byte   W48
@  #07 @301   ----------------------------------------
 .byte   Cn3
 .byte   W48
 .byte   W48
@  #07 @302   ----------------------------------------
 .byte   Dn3
 .byte   W48
 .byte   W48
@  #07 @303   ----------------------------------------
 .byte   Gn3
 .byte   W48
 .byte   W48
@  #07 @304   ----------------------------------------
 .byte   Dn3
 .byte   W48
 .byte   W48
@  #07 @305   ----------------------------------------
 .byte   En3
 .byte   W48
 .byte   W48
@  #07 @306   ----------------------------------------
 .byte   N92
 .byte   W48
 .byte   W48
@  #07 @307   ----------------------------------------
 .byte   Dn3
 .byte   W48
 .byte   W48
@  #07 @308   ----------------------------------------
 .byte   An2
 .byte   W48
 .byte   W48
@  #07 @309   ----------------------------------------
 .byte   Gs2
 .byte   W48
 .byte   W48
@  #07 @310   ----------------------------------------
 .byte   PATT
  .word Label_01132163
@  #07 @311   ----------------------------------------
 .byte   W48
 .byte   W48
@  #07 @312   ----------------------------------------
 .byte   W23
 .byte   EOT
 .byte   An2
 .byte   W24
 .byte   W01
 .byte   W48
@  #07 @313   ----------------------------------------
 .byte   W48
 .byte   W48
@  #07 @314   ----------------------------------------
 .byte   W48
 .byte   W48
@  #07 @315   ----------------------------------------
 .byte   W48
 .byte   W48
@  #07 @316   ----------------------------------------
 .byte   W48
 .byte   W48
@  #07 @317   ----------------------------------------
 .byte   W48
 .byte   W48
@  #07 @318   ----------------------------------------
 .byte   W48
 .byte   W48
@  #07 @319   ----------------------------------------
 .byte   W48
 .byte   W48
@  #07 @320   ----------------------------------------
 .byte   W48
 .byte   W48
@  #07 @321   ----------------------------------------
 .byte   W48
 .byte   W48
@  #07 @322   ----------------------------------------
 .byte   W48
 .byte   W48
@  #07 @323   ----------------------------------------
 .byte   W48
 .byte   W48
@  #07 @324   ----------------------------------------
 .byte   W48
 .byte   W48
@  #07 @325   ----------------------------------------
 .byte   W48
 .byte   W48
@  #07 @326   ----------------------------------------
 .byte   W48
 .byte   W48
@  #07 @327   ----------------------------------------
 .byte   W48
 .byte   W48
@  #07 @328   ----------------------------------------
 .byte   W48
 .byte   W48
@  #07 @329   ----------------------------------------
 .byte   W48
 .byte   W48
@  #07 @330   ----------------------------------------
 .byte   W24
 .byte   N23 ,En1 ,v080
 .byte   W24
 .byte   N92 ,An1 ,v052
 .byte   W48
@  #07 @331   ----------------------------------------
 .byte   W48
 .byte   W48
@  #07 @332   ----------------------------------------
 .byte   W48
@  #07 @333   ----------------------------------------
 .byte   PATT
  .word Label_011321A0
@  #07 @334   ----------------------------------------
 .byte   W24
 .byte   N32 ,Fn1 ,v052
 .byte   W24
 .byte   W12
 .byte   N11
 .byte   W36
@  #07 @335   ----------------------------------------
 .byte   N44 ,Gn1 ,v080
 .byte   W48
@  #07 @336   ----------------------------------------
 .byte   PATT
  .word Label_011321B1
@  #07 @337   ----------------------------------------
 .byte   PATT
  .word Label_011321B8
@  #07 @338   ----------------------------------------
 .byte   PATT
  .word Label_011321BE
@  #07 @339   ----------------------------------------
 .byte   PATT
  .word Label_011321C9
@  #07 @340   ----------------------------------------
 .byte   EOT
 .byte   An1
 .byte   W01
 .byte   TIE ,Dn1 ,v052
 .byte   W48
 .byte   W48
@  #07 @341   ----------------------------------------
 .byte   W44
 .byte   W03
 .byte   EOT
 .byte   W01
 .byte   N44 ,En1
 .byte   W48
@  #07 @342   ----------------------------------------
 .byte   TIE ,An1
 .byte   W48
 .byte   W48
@  #07 @343   ----------------------------------------
 .byte   W44
 .byte   W03
 .byte   EOT
 .byte   W01
@  #07 @344   ----------------------------------------
 .byte   PATT
  .word Label_011321E6
@  #07 @345   ----------------------------------------
 .byte   TIE ,Dn1 ,v052
 .byte   W48
 .byte   W48
@  #07 @346   ----------------------------------------
 .byte   W44
 .byte   W03
 .byte   EOT
 .byte   W01
 .byte   N44
 .byte   W48
@  #07 @347   ----------------------------------------
 .byte   TIE ,En1
 .byte   W48
 .byte   W48
@  #07 @348   ----------------------------------------
 .byte   PATT
  .word Label_011321FE
@  #07 @349   ----------------------------------------
 .byte   PATT
  .word Label_01132210
@  #07 @350   ----------------------------------------
 .byte   EOT
 .byte   En1
 .byte   W01
@  #07 @351   ----------------------------------------
 .byte   PATT
  .word Label_01132222
@  #07 @352   ----------------------------------------
 .byte   PATT
  .word Label_01132230
@  #07 @353   ----------------------------------------
 .byte   W48
 .byte   N44 ,Bn2 ,v064
 .byte   W48
@  #07 @354   ----------------------------------------
 .byte   PATT
  .word Label_0113223D
@  #07 @355   ----------------------------------------
 .byte   PATT
  .word Label_0113223D
@  #07 @356   ----------------------------------------
 .byte   PATT
  .word Label_0113223D
@  #07 @357   ----------------------------------------
 .byte   PATT
  .word Label_01132252
@  #07 @358   ----------------------------------------
 .byte   EOT
 .byte   An1
 .byte   W01
@  #07 @359   ----------------------------------------
 .byte   PATT
  .word Label_01132222
@  #07 @360   ----------------------------------------
 .byte   PATT
  .word Label_01132265
@  #07 @361   ----------------------------------------
 .byte   W48
 .byte   W44
 .byte   W03
 .byte   EOT
 .byte   Bn2
 .byte   W01
@  #07 @362   ----------------------------------------
 .byte   N23 ,Dn3 ,v064
 .byte   W48
@  #07 @363   ----------------------------------------
 .byte   PATT
  .word Label_0113223D
@  #07 @364   ----------------------------------------
 .byte   PATT
  .word Label_0113223D
@  #07 @365   ----------------------------------------
 .byte   PATT
  .word Label_01132252
@  #07 @366   ----------------------------------------
 .byte   EOT
 .byte   An1
 .byte   W01
@  #07 @367   ----------------------------------------
 .byte   PATT
  .word Label_01132288
@  #07 @368   ----------------------------------------
 .byte   PATT
  .word Label_01132296
@  #07 @369   ----------------------------------------
 .byte   W48
 .byte   W44
 .byte   W03
 .byte   EOT
 .byte   An1 ,v064
 .byte   W01
@  #07 @370   ----------------------------------------
 .byte   PATT
  .word Label_011322A6
@  #07 @371   ----------------------------------------
 .byte   PATT
  .word Label_011322AF
@  #07 @372   ----------------------------------------
 .byte   W48
@  #07 @373   ----------------------------------------
 .byte   PATT
  .word Label_011322B8
@  #07 @374   ----------------------------------------
 .byte   EOT
 .byte   An1
 .byte   W01
@  #07 @375   ----------------------------------------
 .byte   PATT
  .word Label_011322C1
@  #07 @376   ----------------------------------------
 .byte   PATT
  .word Label_011322D3
@  #07 @377   ----------------------------------------
 .byte   W48
 .byte   W44
 .byte   W03
 .byte   EOT
 .byte   En3
 .byte   W01
@  #07 @378   ----------------------------------------
 .byte   W48
 .byte   W44
 .byte   W03
 .byte   En1
 .byte   W01
@  #07 @379   ----------------------------------------
 .byte   W48
 .byte   W48
@  #07 @380   ----------------------------------------
 .byte   PATT
  .word Label_011322EC
@  #07 @381   ----------------------------------------
 .byte   W12
 .byte   N32 ,Cn3 ,v080
 .byte   W36
@  #07 @382   ----------------------------------------
 .byte   PATT
  .word Label_011322FA
@  #07 @383   ----------------------------------------
 .byte   W24
 .byte   N23 ,Bn2 ,v080
 .byte   W24
@  #07 @384   ----------------------------------------
 .byte   PATT
  .word Label_01132308
@  #07 @385   ----------------------------------------
 .byte   W12
 .byte   N32 ,En3 ,v080
 .byte   W36
@  #07 @386   ----------------------------------------
 .byte   PATT
  .word Label_01132316
@  #07 @387   ----------------------------------------
 .byte   W24
 .byte   N23 ,Bn2 ,v080
 .byte   W24
@  #07 @388   ----------------------------------------
 .byte   PATT
  .word Label_01132324
@  #07 @389   ----------------------------------------
 .byte   PATT
  .word Label_0113232C
@  #07 @390   ----------------------------------------
 .byte   PATT
  .word Label_01132333
@  #07 @391   ----------------------------------------
 .byte   PATT
  .word Label_0113233B
@  #07 @392   ----------------------------------------
 .byte   PATT
  .word Label_01132343
@  #07 @393   ----------------------------------------
 .byte   W48
@  #07 @394   ----------------------------------------
 .byte   PATT
  .word Label_0113234F
@  #07 @395   ----------------------------------------
 .byte   PATT
  .word Label_0113235D
@  #07 @396   ----------------------------------------
 .byte   PATT
  .word Label_01132366
@  #07 @397   ----------------------------------------
 .byte   PATT
  .word Label_01132370
@  #07 @398   ----------------------------------------
 .byte   PATT
  .word Label_01132378
@  #07 @399   ----------------------------------------
 .byte   W24
 .byte   N23 ,Gn3 ,v080
 .byte   W24
@  #07 @400   ----------------------------------------
 .byte   PATT
  .word Label_01132385
@  #07 @401   ----------------------------------------
 .byte   W48
@  #07 @402   ----------------------------------------
 .byte   PATT
  .word Label_01132391
@  #07 @403   ----------------------------------------
 .byte   PATT
  .word Label_0113239B
@  #07 @404   ----------------------------------------
 .byte   PATT
  .word Label_011323A9
@  #07 @405   ----------------------------------------
 .byte   N44 ,An3 ,v080
 .byte   W48
@  #07 @406   ----------------------------------------
 .byte   PATT
  .word Label_011323B3
@  #07 @407   ----------------------------------------
 .byte   N44 ,En3 ,v080
 .byte   W48
@  #07 @408   ----------------------------------------
 .byte   PATT
  .word Label_011323BD
@  #07 @409   ----------------------------------------
 .byte   W24
 .byte   N23 ,Cn3 ,v080
 .byte   W24
@  #07 @410   ----------------------------------------
 .byte   PATT
  .word Label_011323CA
@  #07 @411   ----------------------------------------
 .byte   W44
 .byte   W03
 .byte   EOT
 .byte   An1
 .byte   W01
@  #07 @412   ----------------------------------------
 .byte   PATT
  .word Label_011323D7
@  #07 @413   ----------------------------------------
 .byte   PATT
  .word Label_011323DF
@  #07 @414   ----------------------------------------
 .byte   N92 ,Gn1 ,v096
 .byte   W48
 .byte   W24
 .byte   N23 ,Fn4 ,v112
 .byte   W24
@  #07 @415   ----------------------------------------
 .byte   PATT
  .word Label_011323F1
@  #07 @416   ----------------------------------------
 .byte   W24
 .byte   N23 ,En4 ,v112
 .byte   W24
@  #07 @417   ----------------------------------------
 .byte   PATT
  .word Label_01132400
@  #07 @418   ----------------------------------------
 .byte   PATT
  .word Label_0113240A
@  #07 @419   ----------------------------------------
 .byte   PATT
  .word Label_01132411
@  #07 @420   ----------------------------------------
 .byte   W48
@  #07 @421   ----------------------------------------
 .byte   PATT
  .word Label_0113241F
@  #07 @422   ----------------------------------------
 .byte   EOT
 .byte   En4
 .byte   W01
@  #07 @423   ----------------------------------------
 .byte   PATT
  .word Label_01132428
@  #07 @424   ----------------------------------------
 .byte   PATT
  .word Label_01132430
@  #07 @425   ----------------------------------------
 .byte   PATT
  .word Label_0113243A
@  #07 @426   ----------------------------------------
 .byte   N44 ,Gn1 ,v096
 .byte   W48
@  #07 @427   ----------------------------------------
 .byte   PATT
  .word Label_01132446
@  #07 @428   ----------------------------------------
 .byte   PATT
  .word Label_01132451
@  #07 @429   ----------------------------------------
 .byte   PATT
  .word Label_0113245B
@  #07 @430   ----------------------------------------
 .byte   PATT
  .word Label_01132465
@  #07 @431   ----------------------------------------
 .byte   PATT
  .word Label_0113246F
@  #07 @432   ----------------------------------------
 .byte   PATT
  .word Label_01132477
@  #07 @433   ----------------------------------------
 .byte   PATT
  .word Label_01132481
@  #07 @434   ----------------------------------------
 .byte   PATT
  .word Label_0113248C
@  #07 @435   ----------------------------------------
 .byte   PATT
  .word Label_0113246F
@  #07 @436   ----------------------------------------
 .byte   PATT
  .word Label_0113249C
@  #07 @437   ----------------------------------------
 .byte   PATT
  .word Label_011324A6
@  #07 @438   ----------------------------------------
 .byte   PATT
  .word Label_011324AF
@  #07 @439   ----------------------------------------
 .byte   PATT
  .word Label_011324BB
@  #07 @440   ----------------------------------------
 .byte   PATT
  .word Label_011324C6
@  #07 @441   ----------------------------------------
 .byte   W48
 .byte   N92 ,Dn3 ,v080
 .byte   W48
@  #07 @442   ----------------------------------------
 .byte   W44
 .byte   W03
 .byte   EOT
 .byte   En0 ,v040
 .byte   En4
 .byte   W01
 .byte   N92 ,Fn1 ,v064
 .byte   N92 ,Cs3
 .byte   W48
@  #07 @443   ----------------------------------------
 .byte   W48
 .byte   Fn1
 .byte   N92 ,Cs3
 .byte   W48
@  #07 @444   ----------------------------------------
 .byte   W48
 .byte   W48
@  #07 @445   ----------------------------------------
 .byte   W48
 .byte   W48
@  #07 @446   ----------------------------------------
 .byte   W48
 .byte   W48
@  #07 @447   ----------------------------------------
 .byte   W48
 .byte   W48
@  #07 @448   ----------------------------------------
 .byte   W48
 .byte   W48
@  #07 @449   ----------------------------------------
 .byte   W48
 .byte   W48
@  #07 @450   ----------------------------------------
 .byte   W48
 .byte   W48
@  #07 @451   ----------------------------------------
 .byte   W48
 .byte   W48
@  #07 @452   ----------------------------------------
 .byte   W48
 .byte   Fs1 ,v080
 .byte   W48
@  #07 @453   ----------------------------------------
 .byte   W48
 .byte   Gs1
 .byte   W48
@  #07 @454   ----------------------------------------
 .byte   W48
 .byte   As1
 .byte   W48
@  #07 @455   ----------------------------------------
 .byte   W48
 .byte   Fn1
 .byte   W48
@  #07 @456   ----------------------------------------
 .byte   W48
 .byte   Ds1
 .byte   W48
@  #07 @457   ----------------------------------------
 .byte   W48
 .byte   TIE ,Fn1
 .byte   W48
@  #07 @458   ----------------------------------------
 .byte   W48
 .byte   W48
@  #07 @459   ----------------------------------------
 .byte   W44
 .byte   W03
 .byte   EOT
 .byte   W01
 .byte   W48
@  #07 @460   ----------------------------------------
 .byte   W48
 .byte   W48
@  #07 @461   ----------------------------------------
 .byte   N44 ,Fs1
 .byte   N44 ,Cs3
 .byte   W48
@  #07 @462   ----------------------------------------
 .byte   PATT
  .word Label_01132517
@  #07 @463   ----------------------------------------
 .byte   PATT
  .word Label_01132523
@  #07 @464   ----------------------------------------
 .byte   PATT
  .word Label_0113252C
@  #07 @465   ----------------------------------------
 .byte   W12
 .byte   N32 ,Fn3 ,v080
 .byte   W36
@  #07 @466   ----------------------------------------
 .byte   PATT
  .word Label_01132539
@  #07 @467   ----------------------------------------
 .byte   W24
 .byte   N23 ,Cn3 ,v080
 .byte   W24
@  #07 @468   ----------------------------------------
 .byte   PATT
  .word Label_01132546
@  #07 @469   ----------------------------------------
 .byte   PATT
  .word Label_0113254D
@  #07 @470   ----------------------------------------
 .byte   N44 ,Fn1 ,v080
 .byte   N44 ,Ds3
 .byte   W48
 .byte   An1
 .byte   N44 ,An3
 .byte   W48
@  #07 @471   ----------------------------------------
 .byte   PATT
  .word Label_0113255D
@  #07 @472   ----------------------------------------
 .byte   W48
@  #07 @473   ----------------------------------------
 .byte   PATT
  .word Label_01132568
@  #07 @474   ----------------------------------------
 .byte   PATT
  .word Label_01132573
@  #07 @475   ----------------------------------------
 .byte   PATT
  .word Label_0113257B
@  #07 @476   ----------------------------------------
 .byte   PATT
  .word Label_01132584
@  #07 @477   ----------------------------------------
 .byte   PATT
  .word Label_0113258C
@  #07 @478   ----------------------------------------
 .byte   W24
 .byte   N23 ,Gs3 ,v080
 .byte   W24
@  #07 @479   ----------------------------------------
 .byte   PATT
  .word Label_01132598
@  #07 @480   ----------------------------------------
 .byte   W48
@  #07 @481   ----------------------------------------
 .byte   PATT
  .word Label_011325A3
@  #07 @482   ----------------------------------------
 .byte   PATT
  .word Label_011325AC
@  #07 @483   ----------------------------------------
 .byte   PATT
  .word Label_011325B8
@  #07 @484   ----------------------------------------
 .byte   N44 ,As3 ,v080
 .byte   W48
@  #07 @485   ----------------------------------------
 .byte   PATT
  .word Label_011325C1
@  #07 @486   ----------------------------------------
 .byte   N44 ,Fn3 ,v080
 .byte   W48
@  #07 @487   ----------------------------------------
 .byte   PATT
  .word Label_011325CA
@  #07 @488   ----------------------------------------
 .byte   W24
 .byte   N23 ,Cs3 ,v080
 .byte   W24
@  #07 @489   ----------------------------------------
 .byte   PATT
  .word Label_011325D6
@  #07 @490   ----------------------------------------
 .byte   W44
 .byte   W03
 .byte   EOT
 .byte   As1
 .byte   W01
@  #07 @491   ----------------------------------------
 .byte   PATT
  .word Label_011325E3
@  #07 @492   ----------------------------------------
 .byte   PATT
  .word Label_011325E3
@  #07 @493   ----------------------------------------
 .byte   PATT
  .word Label_011325F5
@  #07 @494   ----------------------------------------
 .byte   PATT
  .word Label_011325F5
@  #07 @495   ----------------------------------------
 .byte   PATT
  .word Label_01132607
@  #07 @496   ----------------------------------------
 .byte   PATT
  .word Label_01132607
@  #07 @497   ----------------------------------------
 .byte   PATT
  .word Label_011325F5
@  #07 @498   ----------------------------------------
 .byte   PATT
  .word Label_011325F5
@  #07 @499   ----------------------------------------
 .byte   PATT
  .word Label_011325E3
@  #07 @500   ----------------------------------------
 .byte   PATT
  .word Label_011325E3
@  #07 @501   ----------------------------------------
 .byte   PATT
  .word Label_011325E3
@  #07 @502   ----------------------------------------
 .byte   PATT
  .word Label_011325E3
@  #07 @503   ----------------------------------------
 .byte   PATT
  .word Label_011325F5
@  #07 @504   ----------------------------------------
 .byte   PATT
  .word Label_011325F5
@  #07 @505   ----------------------------------------
 .byte   PATT
  .word Label_011325F5
@  #07 @506   ----------------------------------------
 .byte   PATT
  .word Label_011325F5
@  #07 @507   ----------------------------------------
 .byte   PATT
  .word Label_0113264B
@  #07 @508   ----------------------------------------
 .byte   PATT
  .word Label_0113264B
@  #07 @509   ----------------------------------------
 .byte   PATT
  .word Label_0113264B
@  #07 @510   ----------------------------------------
 .byte   N11 ,Gn1 ,v116
 .byte   W03
 .byte   W01
 .byte   W01
 .byte   W19
 .byte   N11
 .byte   W03
 .byte   W01
 .byte   W01
 .byte   W18
 .byte   FINE

@**************** Track 8 (Midi-Chn.7) ****************@

.align 2, 0
song06_008:
@  #08 @000   ----------------------------------------
 .byte   KEYSH , song06_key+0
 .byte   VOICE , 46
 .byte   VOL , 36*song06_mvl/mxv
 .byte   PAN , c_v+0
 .byte   VOL , 47*song06_mvl/mxv
 .byte   PAN , c_v+0
 .byte   VOL , 47*song06_mvl/mxv
 .byte   PAN , c_v+0
 .byte   VOL , 47*song06_mvl/mxv
 .byte   PAN , c_v+18
 .byte   VOL , 47*song06_mvl/mxv
 .byte   PAN , c_v+0
 .byte   W48
 .byte   W48
@  #08 @001   ----------------------------------------
 .byte   W48
 .byte   W48
@  #08 @002   ----------------------------------------
 .byte   W48
 .byte   W48
@  #08 @003   ----------------------------------------
 .byte   W48
 .byte   W48
@  #08 @004   ----------------------------------------
 .byte   W48
 .byte   W48
@  #08 @005   ----------------------------------------
 .byte   W48
 .byte   W48
@  #08 @006   ----------------------------------------
 .byte   W48
 .byte   W48
@  #08 @007   ----------------------------------------
 .byte   W48
 .byte   W48
@  #08 @008   ----------------------------------------
Label_01132B6C:
 .byte   W48
 .byte   W48
@  #08 @009   ----------------------------------------
 .byte   W48
 .byte   W48
@  #08 @010   ----------------------------------------
 .byte   W48
 .byte   W48
@  #08 @011   ----------------------------------------
 .byte   W48
 .byte   W48
@  #08 @012   ----------------------------------------
 .byte   W48
 .byte   W48
@  #08 @013   ----------------------------------------
 .byte   W48
 .byte   W48
@  #08 @014   ----------------------------------------
 .byte   W48
 .byte   W48
@  #08 @015   ----------------------------------------
 .byte   W48
 .byte   W48
@  #08 @016   ----------------------------------------
Label_01132B7C:
 .byte   N92 ,En3 ,v036
 .byte   W06
 .byte   W03
 .byte   W03
 .byte   W03
 .byte   W03
 .byte   W03
 .byte   W03
 .byte   W03
 .byte   W03
 .byte   W03
 .byte   W03
 .byte   W03
 .byte   W03
 .byte   W03
 .byte   W03
 .byte   PEND 
Label_01132B8F:
 .byte   W03
 .byte   W03
 .byte   W03
 .byte   W04
 .byte   W03
 .byte   W03
 .byte   W03
 .byte   W03
 .byte   W03
 .byte   W03
 .byte   W03
 .byte   W03
 .byte   W03
 .byte   W03
 .byte   W03
 .byte   W02
 .byte   PEND 
@  #08 @017   ----------------------------------------
 .byte   N92 ,En3 ,v064
 .byte   W48
 .byte   W48
@  #08 @018   ----------------------------------------
Label_01132BA5:
 .byte   TIE ,En3 ,v064
 .byte   W09
 .byte   W04
 .byte   W05
 .byte   W05
 .byte   W04
 .byte   W05
 .byte   W04
 .byte   W05
 .byte   W05
 .byte   W02
 .byte   PEND 
Label_01132BB3:
 .byte   W02
 .byte   W05
 .byte   W04
 .byte   W05
 .byte   W05
 .byte   W04
 .byte   W05
 .byte   W04
 .byte   W05
 .byte   W05
 .byte   W04
 .byte   PEND 
@  #08 @019   ----------------------------------------
Label_01132BBF:
 .byte   W05
 .byte   W04
 .byte   W05
 .byte   W05
 .byte   W04
 .byte   W05
 .byte   W04
 .byte   W05
 .byte   W05
 .byte   W04
 .byte   W01
 .byte   PEND 
 .byte   EOT
 .byte   En3
 .byte   W01
 .byte   W48
@  #08 @020   ----------------------------------------
Label_01132BCF:
 .byte   N92 ,Cn3 ,v036
 .byte   W06
 .byte   W03
 .byte   W03
 .byte   W03
 .byte   W03
 .byte   W03
 .byte   W03
 .byte   W03
 .byte   W03
 .byte   W03
 .byte   W03
 .byte   W03
 .byte   W03
 .byte   W03
 .byte   W03
 .byte   PEND 
@  #08 @021   ----------------------------------------
 .byte   PATT
  .word Label_01132B8F
@  #08 @022   ----------------------------------------
 .byte   N92 ,Dn3 ,v064
 .byte   W48
 .byte   W48
@  #08 @023   ----------------------------------------
Label_01132BEC:
 .byte   TIE ,Dn3 ,v064
 .byte   W09
 .byte   W04
 .byte   W05
 .byte   W05
 .byte   W04
 .byte   W05
 .byte   W04
 .byte   W05
 .byte   W05
 .byte   W02
 .byte   PEND 
@  #08 @024   ----------------------------------------
 .byte   PATT
  .word Label_01132BB3
@  #08 @025   ----------------------------------------
 .byte   PATT
  .word Label_01132BBF
@  #08 @026   ----------------------------------------
 .byte   EOT
 .byte   Dn3
 .byte   W01
 .byte   W48
@  #08 @027   ----------------------------------------
 .byte   PATT
  .word Label_01132B7C
@  #08 @028   ----------------------------------------
 .byte   PATT
  .word Label_01132B8F
@  #08 @029   ----------------------------------------
 .byte   N92 ,En3 ,v064
 .byte   W48
 .byte   W48
@  #08 @030   ----------------------------------------
 .byte   PATT
  .word Label_01132BA5
@  #08 @031   ----------------------------------------
 .byte   PATT
  .word Label_01132BB3
@  #08 @032   ----------------------------------------
 .byte   PATT
  .word Label_01132BBF
@  #08 @033   ----------------------------------------
 .byte   EOT
 .byte   En3
 .byte   W01
 .byte   W48
@  #08 @034   ----------------------------------------
 .byte   PATT
  .word Label_01132BCF
@  #08 @035   ----------------------------------------
 .byte   PATT
  .word Label_01132B8F
@  #08 @036   ----------------------------------------
 .byte   N92 ,Dn3 ,v064
 .byte   W48
 .byte   W48
@  #08 @037   ----------------------------------------
Label_01132C39:
 .byte   TIE ,Dn3 ,v064
 .byte   W09
 .byte   W10
 .byte   W09
 .byte   W10
 .byte   W10
 .byte   PEND 
Label_01132C42:
 .byte   W09
 .byte   W10
 .byte   W09
 .byte   W10
 .byte   W10
 .byte   PEND 
@  #08 @038   ----------------------------------------
Label_01132C48:
 .byte   W09
 .byte   W10
 .byte   W09
 .byte   W10
 .byte   W09
 .byte   PEND 
 .byte   EOT
 .byte   Dn3
 .byte   W01
Label_01132C51:
 .byte   W24
 .byte   N11 ,An3 ,v096
 .byte   N11 ,An5 ,v064
 .byte   W12
 .byte   Bn3 ,v096
 .byte   N11 ,Bn5 ,v064
 .byte   W12
 .byte   PEND 
@  #08 @039   ----------------------------------------
Label_01132C60:
 .byte   N56 ,Cn4 ,v096
 .byte   N56 ,Cn6 ,v064
 .byte   W48
 .byte   PEND 
Label_01132C68:
 .byte   W12
 .byte   N11 ,Bn3 ,v096
 .byte   N11 ,Bn5 ,v064
 .byte   W12
 .byte   An3 ,v096
 .byte   N11 ,An5 ,v064
 .byte   W12
 .byte   Gn3 ,v096
 .byte   N11 ,Gn5 ,v064
 .byte   W12
 .byte   PEND 
@  #08 @040   ----------------------------------------
Label_01132C7D:
 .byte   N56 ,An3 ,v096
 .byte   N56 ,An5 ,v064
 .byte   W48
 .byte   PEND 
Label_01132C85:
 .byte   W12
 .byte   N11 ,Gn3 ,v096
 .byte   N11 ,Gn5 ,v064
 .byte   W12
 .byte   Fn3 ,v096
 .byte   N11 ,Fn5 ,v064
 .byte   W12
 .byte   En3 ,v096
 .byte   N11 ,En5 ,v064
 .byte   W12
 .byte   PEND 
@  #08 @041   ----------------------------------------
Label_01132C9A:
 .byte   N23 ,Dn3 ,v096
 .byte   N23 ,Dn5 ,v064
 .byte   W24
 .byte   N11 ,En3 ,v096
 .byte   N11 ,En5 ,v064
 .byte   W12
 .byte   TIE ,En3 ,v096
 .byte   TIE ,En5 ,v064
 .byte   W12
 .byte   PEND 
 .byte   W48
@  #08 @042   ----------------------------------------
 .byte   W44
 .byte   W03
 .byte   EOT
 .byte   En3 ,v088
 .byte   W01
@  #08 @043   ----------------------------------------
 .byte   PATT
  .word Label_01132C51
@  #08 @044   ----------------------------------------
 .byte   PATT
  .word Label_01132C60
@  #08 @045   ----------------------------------------
 .byte   PATT
  .word Label_01132C68
@  #08 @046   ----------------------------------------
 .byte   PATT
  .word Label_01132C7D
@  #08 @047   ----------------------------------------
Label_01132CCB:
 .byte   W12
 .byte   N11 ,Bn3 ,v096
 .byte   N11 ,Bn5 ,v064
 .byte   W12
 .byte   Cn4 ,v096
 .byte   N11 ,Cn6 ,v064
 .byte   W12
 .byte   Dn4 ,v096
 .byte   N11 ,Dn6 ,v064
 .byte   W12
 .byte   PEND 
Label_01132CE0:
 .byte   N23 ,Bn3 ,v096
 .byte   N23 ,Bn5 ,v064
 .byte   W24
 .byte   N11 ,Gn3 ,v096
 .byte   N11 ,Gn5 ,v064
 .byte   W12
 .byte   N80 ,Gn3 ,v096
 .byte   N80 ,Gn5 ,v064
 .byte   W12
 .byte   PEND 
@  #08 @048   ----------------------------------------
 .byte   W48
 .byte   W48
@  #08 @049   ----------------------------------------
Label_01132CF8:
 .byte   W24
 .byte   N11 ,An3 ,v096
 .byte   N11 ,An4
 .byte   N11 ,An5 ,v064
 .byte   W12
 .byte   Bn3 ,v096
 .byte   N11 ,Bn4
 .byte   N11 ,Bn5 ,v064
 .byte   W12
 .byte   PEND 
Label_01132D0B:
 .byte   N56 ,Cn4 ,v096
 .byte   N56 ,Cn5
 .byte   N56 ,Cn6 ,v064
 .byte   W48
 .byte   PEND 
@  #08 @050   ----------------------------------------
Label_01132D15:
 .byte   W12
 .byte   N11 ,Bn3 ,v096
 .byte   N11 ,Bn4
 .byte   N11 ,Bn5 ,v064
 .byte   W12
 .byte   An3 ,v096
 .byte   N11 ,An4
 .byte   N11 ,An5 ,v064
 .byte   W12
 .byte   Gn3 ,v096
 .byte   N11 ,Gn4
 .byte   N11 ,Gn5 ,v064
 .byte   W12
 .byte   PEND 
Label_01132D30:
 .byte   N56 ,An3 ,v096
 .byte   N56 ,An4
 .byte   N56 ,An5 ,v064
 .byte   W48
 .byte   PEND 
@  #08 @051   ----------------------------------------
Label_01132D3A:
 .byte   W12
 .byte   N11 ,Gn3 ,v096
 .byte   N11 ,Gn4
 .byte   N11 ,Gn5 ,v064
 .byte   W12
 .byte   Fn3 ,v096
 .byte   N11 ,Fn4
 .byte   N11 ,Fn5 ,v064
 .byte   W12
 .byte   En3 ,v096
 .byte   N11 ,En4
 .byte   N11 ,En5 ,v064
 .byte   W12
 .byte   PEND 
Label_01132D55:
 .byte   N23 ,Dn3 ,v096
 .byte   N23 ,Dn4
 .byte   N23 ,Dn5 ,v064
 .byte   W24
 .byte   N11 ,En3 ,v096
 .byte   N11 ,En4
 .byte   N11 ,En5 ,v064
 .byte   W12
 .byte   N23 ,En3 ,v096
 .byte   N23 ,En4
 .byte   N23 ,En5 ,v064
 .byte   W12
 .byte   PEND 
@  #08 @052   ----------------------------------------
Label_01132D71:
 .byte   W12
 .byte   N11 ,Fn3 ,v096
 .byte   N11 ,Fn4
 .byte   N11 ,Fn5 ,v064
 .byte   W12
 .byte   N68 ,En3 ,v096
 .byte   N68 ,En4
 .byte   N68 ,En5 ,v064
 .byte   W24
 .byte   PEND 
 .byte   W48
@  #08 @053   ----------------------------------------
Label_01132D86:
 .byte   W24
 .byte   N11 ,En3 ,v096
 .byte   N11 ,En4
 .byte   N11 ,En5 ,v064
 .byte   W12
 .byte   Fn3 ,v096
 .byte   N11 ,Fn4
 .byte   N11 ,Fn5 ,v064
 .byte   W12
 .byte   PEND 
Label_01132D99:
 .byte   N23 ,Gn3 ,v096
 .byte   N23 ,Gn4
 .byte   N23 ,Gn5 ,v064
 .byte   W24
 .byte   N11 ,Fn3 ,v096
 .byte   N11 ,Fn4
 .byte   N11 ,Fn5 ,v064
 .byte   W12
 .byte   N23 ,Fn3 ,v096
 .byte   N23 ,Fn4
 .byte   N23 ,Fn5 ,v064
 .byte   W12
 .byte   PEND 
@  #08 @054   ----------------------------------------
Label_01132DB5:
 .byte   W12
 .byte   N11 ,En3 ,v096
 .byte   N11 ,En4
 .byte   N11 ,En5 ,v064
 .byte   W12
 .byte   N68 ,En3 ,v096
 .byte   N68 ,En4
 .byte   N68 ,En5 ,v064
 .byte   W24
 .byte   PEND 
 .byte   W48
@  #08 @055   ----------------------------------------
Label_01132DCA:
 .byte   N44 ,Dn3 ,v096
 .byte   N44 ,Dn4
 .byte   N44 ,Dn5 ,v064
 .byte   W48
 .byte   PEND 
Label_01132DD4:
 .byte   N23 ,Dn3 ,v096
 .byte   N23 ,Dn4
 .byte   N23 ,Dn5 ,v064
 .byte   W24
 .byte   N11 ,En3 ,v096
 .byte   N11 ,En4
 .byte   N11 ,En5 ,v064
 .byte   W12
 .byte   N56 ,En3 ,v096
 .byte   N56 ,En4
 .byte   N56 ,En5 ,v064
 .byte   W12
 .byte   PEND 
@  #08 @056   ----------------------------------------
 .byte   W48
 .byte   W48
@  #08 @057   ----------------------------------------
 .byte   W48
Label_01132DF3:
 .byte   N11 ,Gn4 ,v096
 .byte   W12
 .byte   Cn4
 .byte   W12
 .byte   An3
 .byte   W12
 .byte   Cn4
 .byte   W12
 .byte   PEND 
@  #08 @058   ----------------------------------------
 .byte   PATT
  .word Label_01132DF3
@  #08 @059   ----------------------------------------
Label_01132E03:
 .byte   N11 ,Fn4 ,v096
 .byte   W12
 .byte   Cn4
 .byte   W12
 .byte   An3
 .byte   W12
 .byte   Cn4
 .byte   W12
 .byte   PEND 
@  #08 @060   ----------------------------------------
 .byte   PATT
  .word Label_01132E03
@  #08 @061   ----------------------------------------
Label_01132E13:
 .byte   N11 ,Dn4 ,v096
 .byte   W12
 .byte   Gn3
 .byte   W12
 .byte   Bn3
 .byte   W12
 .byte   Gn3
 .byte   W12
 .byte   PEND 
@  #08 @062   ----------------------------------------
 .byte   PATT
  .word Label_01132E13
@  #08 @063   ----------------------------------------
 .byte   PATT
  .word Label_01132E13
@  #08 @064   ----------------------------------------
 .byte   PATT
  .word Label_01132E13
@  #08 @065   ----------------------------------------
Label_01132E2D:
 .byte   N11 ,Gn4 ,v096
 .byte   W12
 .byte   Cn4
 .byte   W12
 .byte   Bn3
 .byte   W12
 .byte   Cn4
 .byte   W12
 .byte   PEND 
@  #08 @066   ----------------------------------------
 .byte   PATT
  .word Label_01132E2D
@  #08 @067   ----------------------------------------
Label_01132E3D:
 .byte   N11 ,Fn4 ,v096
 .byte   W12
 .byte   Cn4
 .byte   W12
 .byte   Bn3
 .byte   W12
 .byte   Cn4
 .byte   W12
 .byte   PEND 
@  #08 @068   ----------------------------------------
 .byte   PATT
  .word Label_01132E3D
@  #08 @069   ----------------------------------------
Label_01132E4D:
 .byte   N11 ,Bn4 ,v096
 .byte   W12
 .byte   Gn4
 .byte   W12
 .byte   Dn4
 .byte   W12
 .byte   Gn4
 .byte   W12
 .byte   PEND 
@  #08 @070   ----------------------------------------
 .byte   PATT
  .word Label_01132E4D
@  #08 @071   ----------------------------------------
Label_01132E5D:
 .byte   N11 ,Cn5 ,v096
 .byte   W12
 .byte   Gn4
 .byte   W12
 .byte   Dn4
 .byte   W12
 .byte   Gn4
 .byte   W12
 .byte   PEND 
@  #08 @072   ----------------------------------------
 .byte   PATT
  .word Label_01132E5D
@  #08 @073   ----------------------------------------
Label_01132E6D:
 .byte   N11 ,Dn5 ,v096
 .byte   W12
 .byte   En5
 .byte   W12
 .byte   Bn4
 .byte   W12
 .byte   An4
 .byte   W12
 .byte   PEND 
Label_01132E78:
 .byte   N11 ,Gn4 ,v096
 .byte   W12
 .byte   En4
 .byte   W12
 .byte   Cn4
 .byte   W12
 .byte   Gn3
 .byte   W12
 .byte   PEND 
@  #08 @074   ----------------------------------------
 .byte   PATT
  .word Label_01132E6D
@  #08 @075   ----------------------------------------
 .byte   PATT
  .word Label_01132E78
@  #08 @076   ----------------------------------------
 .byte   PATT
  .word Label_01132E6D
@  #08 @077   ----------------------------------------
 .byte   PATT
  .word Label_01132E78
@  #08 @078   ----------------------------------------
 .byte   PATT
  .word Label_01132E6D
@  #08 @079   ----------------------------------------
 .byte   PATT
  .word Label_01132E78
@  #08 @080   ----------------------------------------
Label_01132EA1:
 .byte   N11 ,An4 ,v096
 .byte   W12
 .byte   Cn4
 .byte   W12
 .byte   En4
 .byte   W12
 .byte   Cn4
 .byte   W12
 .byte   PEND 
@  #08 @081   ----------------------------------------
 .byte   PATT
  .word Label_01132EA1
@  #08 @082   ----------------------------------------
Label_01132EB1:
 .byte   N11 ,Gs4 ,v096
 .byte   W12
 .byte   Bn3
 .byte   W12
 .byte   Dn4
 .byte   W12
 .byte   Bn3
 .byte   W12
 .byte   PEND 
@  #08 @083   ----------------------------------------
 .byte   PATT
  .word Label_01132EB1
@  #08 @084   ----------------------------------------
Label_01132EC1:
 .byte   N11 ,Bn4 ,v096
 .byte   W12
 .byte   Dn4
 .byte   W12
 .byte   En4
 .byte   W12
 .byte   Dn4
 .byte   W12
 .byte   PEND 
Label_01132ECC:
 .byte   N11 ,An4 ,v096
 .byte   W12
 .byte   Dn4
 .byte   W12
 .byte   En4
 .byte   W12
 .byte   Dn4
 .byte   W12
 .byte   PEND 
@  #08 @085   ----------------------------------------
 .byte   PATT
  .word Label_01132E2D
@  #08 @086   ----------------------------------------
 .byte   PATT
  .word Label_01132E2D
@  #08 @087   ----------------------------------------
 .byte   W48
 .byte   W48
@  #08 @088   ----------------------------------------
 .byte   W48
 .byte   W48
@  #08 @089   ----------------------------------------
 .byte   W48
 .byte   W48
@  #08 @090   ----------------------------------------
 .byte   W48
 .byte   W48
@  #08 @091   ----------------------------------------
 .byte   W48
 .byte   W48
@  #08 @092   ----------------------------------------
 .byte   W48
 .byte   W48
@  #08 @093   ----------------------------------------
 .byte   W48
 .byte   W48
@  #08 @094   ----------------------------------------
 .byte   W48
 .byte   W48
@  #08 @095   ----------------------------------------
 .byte   W48
 .byte   W48
@  #08 @096   ----------------------------------------
 .byte   W48
 .byte   W48
@  #08 @097   ----------------------------------------
 .byte   W48
 .byte   W48
@  #08 @098   ----------------------------------------
 .byte   W48
 .byte   W48
@  #08 @099   ----------------------------------------
 .byte   W48
 .byte   W48
@  #08 @100   ----------------------------------------
 .byte   W48
 .byte   W48
@  #08 @101   ----------------------------------------
 .byte   W48
 .byte   W48
@  #08 @102   ----------------------------------------
 .byte   W48
 .byte   W48
@  #08 @103   ----------------------------------------
 .byte   W48
 .byte   W48
@  #08 @104   ----------------------------------------
 .byte   W48
 .byte   W48
@  #08 @105   ----------------------------------------
 .byte   W48
 .byte   W48
@  #08 @106   ----------------------------------------
 .byte   W48
 .byte   W48
@  #08 @107   ----------------------------------------
 .byte   W48
 .byte   W48
@  #08 @108   ----------------------------------------
 .byte   W48
 .byte   W48
@  #08 @109   ----------------------------------------
 .byte   W48
 .byte   W48
@  #08 @110   ----------------------------------------
 .byte   W48
Label_01132F10:
 .byte   W12
 .byte   N11 ,An5 ,v080
 .byte   W12
 .byte   N11
 .byte   W12
 .byte   Bn5
 .byte   W12
 .byte   PEND 
@  #08 @111   ----------------------------------------
 .byte   N56 ,Cn6
 .byte   W48
Label_01132F1D:
 .byte   W12
 .byte   N11 ,Bn5 ,v080
 .byte   W12
 .byte   An5
 .byte   W12
 .byte   Gn5
 .byte   W12
 .byte   PEND 
@  #08 @112   ----------------------------------------
 .byte   N56 ,An5
 .byte   W48
Label_01132F2A:
 .byte   W12
 .byte   N11 ,Gn5 ,v080
 .byte   W12
 .byte   Fn5
 .byte   W12
 .byte   En5
 .byte   W12
 .byte   PEND 
@  #08 @113   ----------------------------------------
Label_01132F34:
 .byte   N23 ,Dn5 ,v080
 .byte   W24
 .byte   N11 ,En5
 .byte   W12
 .byte   N23
 .byte   W12
 .byte   PEND 
Label_01132F3E:
 .byte   W12
 .byte   N11 ,Fn5 ,v080
 .byte   W12
 .byte   N68 ,En5
 .byte   W24
 .byte   PEND 
@  #08 @114   ----------------------------------------
 .byte   W48
Label_01132F48:
 .byte   W24
 .byte   N11 ,En5 ,v080
 .byte   W12
 .byte   Fn5
 .byte   W12
 .byte   PEND 
@  #08 @115   ----------------------------------------
Label_01132F50:
 .byte   N23 ,Gn5 ,v080
 .byte   W24
 .byte   N11 ,Fn5
 .byte   W12
 .byte   N23
 .byte   W12
 .byte   PEND 
Label_01132F5A:
 .byte   W12
 .byte   N11 ,En5 ,v080
 .byte   W12
 .byte   N68
 .byte   W24
 .byte   PEND 
@  #08 @116   ----------------------------------------
 .byte   W48
 .byte   N44 ,Dn5
 .byte   W48
@  #08 @117   ----------------------------------------
Label_01132F66:
 .byte   N23 ,Dn5 ,v080
 .byte   W24
 .byte   N11 ,En5
 .byte   W12
 .byte   TIE
 .byte   W12
 .byte   PEND 
 .byte   W48
@  #08 @118   ----------------------------------------
 .byte   W48
 .byte   W44
 .byte   W03
 .byte   EOT
 .byte   W01
@  #08 @119   ----------------------------------------
 .byte   W48
 .byte   W48
@  #08 @120   ----------------------------------------
 .byte   W48
 .byte   W48
@  #08 @121   ----------------------------------------
 .byte   W48
 .byte   W48
@  #08 @122   ----------------------------------------
 .byte   W48
 .byte   W48
@  #08 @123   ----------------------------------------
 .byte   W48
 .byte   W48
@  #08 @124   ----------------------------------------
 .byte   W48
 .byte   W48
@  #08 @125   ----------------------------------------
 .byte   W48
 .byte   W48
@  #08 @126   ----------------------------------------
 .byte   W48
 .byte   W48
@  #08 @127   ----------------------------------------
 .byte   W48
 .byte   W48
@  #08 @128   ----------------------------------------
 .byte   W48
 .byte   W48
@  #08 @129   ----------------------------------------
 .byte   W48
 .byte   W48
@  #08 @130   ----------------------------------------
 .byte   W48
 .byte   W48
@  #08 @131   ----------------------------------------
 .byte   W48
 .byte   W48
@  #08 @132   ----------------------------------------
 .byte   W48
 .byte   W48
@  #08 @133   ----------------------------------------
 .byte   W48
 .byte   W48
@  #08 @134   ----------------------------------------
 .byte   W48
 .byte   W48
@  #08 @135   ----------------------------------------
 .byte   W48
 .byte   W48
@  #08 @136   ----------------------------------------
 .byte   W48
 .byte   W48
@  #08 @137   ----------------------------------------
 .byte   W48
 .byte   W48
@  #08 @138   ----------------------------------------
 .byte   W48
 .byte   W48
@  #08 @139   ----------------------------------------
 .byte   W48
 .byte   W48
@  #08 @140   ----------------------------------------
 .byte   W48
 .byte   W48
@  #08 @141   ----------------------------------------
 .byte   W48
 .byte   W48
@  #08 @142   ----------------------------------------
 .byte   W48
 .byte   W48
@  #08 @143   ----------------------------------------
 .byte   W48
 .byte   W48
@  #08 @144   ----------------------------------------
 .byte   W48
 .byte   W48
@  #08 @145   ----------------------------------------
 .byte   W48
 .byte   W48
@  #08 @146   ----------------------------------------
 .byte   W48
 .byte   W48
@  #08 @147   ----------------------------------------
 .byte   W48
 .byte   W48
@  #08 @148   ----------------------------------------
 .byte   W48
 .byte   W48
@  #08 @149   ----------------------------------------
 .byte   W48
 .byte   W48
@  #08 @150   ----------------------------------------
 .byte   W48
 .byte   W48
@  #08 @151   ----------------------------------------
 .byte   W48
 .byte   W48
@  #08 @152   ----------------------------------------
 .byte   W48
 .byte   W48
@  #08 @153   ----------------------------------------
 .byte   W48
 .byte   W48
@  #08 @154   ----------------------------------------
 .byte   W48
 .byte   W48
@  #08 @155   ----------------------------------------
 .byte   W48
 .byte   W48
@  #08 @156   ----------------------------------------
 .byte   W48
 .byte   W48
@  #08 @157   ----------------------------------------
 .byte   W48
 .byte   W48
@  #08 @158   ----------------------------------------
 .byte   W48
 .byte   W48
@  #08 @159   ----------------------------------------
Label_01132FC6:
 .byte   N11 ,An2 ,v080
 .byte   W24
 .byte   N11
 .byte   W24
 .byte   PEND 
@  #08 @160   ----------------------------------------
 .byte   PATT
  .word Label_01132FC6
@  #08 @161   ----------------------------------------
 .byte   PATT
  .word Label_01132FC6
@  #08 @162   ----------------------------------------
 .byte   PATT
  .word Label_01132FC6
@  #08 @163   ----------------------------------------
Label_01132FDC:
 .byte   N11 ,Gn2 ,v080
 .byte   W24
 .byte   N11
 .byte   W24
 .byte   PEND 
@  #08 @164   ----------------------------------------
 .byte   PATT
  .word Label_01132FDC
@  #08 @165   ----------------------------------------
Label_01132FE8:
 .byte   N11 ,Bn2 ,v080
 .byte   W24
 .byte   An2
 .byte   W24
 .byte   PEND 
Label_01132FEF:
 .byte   N11 ,En2 ,v080
 .byte   W24
 .byte   An2
 .byte   W24
 .byte   PEND 
@  #08 @166   ----------------------------------------
 .byte   PATT
  .word Label_01132FC6
@  #08 @167   ----------------------------------------
 .byte   PATT
  .word Label_01132FC6
@  #08 @168   ----------------------------------------
 .byte   PATT
  .word Label_01132FC6
@  #08 @169   ----------------------------------------
 .byte   PATT
  .word Label_01132FC6
@  #08 @170   ----------------------------------------
 .byte   PATT
  .word Label_01132FC6
@  #08 @171   ----------------------------------------
 .byte   PATT
  .word Label_01132FC6
@  #08 @172   ----------------------------------------
Label_01133014:
 .byte   N11 ,Gs2 ,v080
 .byte   W24
 .byte   N11
 .byte   W24
 .byte   PEND 
@  #08 @173   ----------------------------------------
 .byte   PATT
  .word Label_01133014
@  #08 @174   ----------------------------------------
Label_01133020:
 .byte   N11 ,As2 ,v064
 .byte   W24
 .byte   N11
 .byte   W24
 .byte   PEND 
@  #08 @175   ----------------------------------------
 .byte   PATT
  .word Label_01133020
@  #08 @176   ----------------------------------------
 .byte   W48
 .byte   W48
@  #08 @177   ----------------------------------------
 .byte   W48
 .byte   W48
@  #08 @178   ----------------------------------------
 .byte   W48
 .byte   W48
@  #08 @179   ----------------------------------------
 .byte   W48
 .byte   W48
@  #08 @180   ----------------------------------------
 .byte   W48
 .byte   W48
@  #08 @181   ----------------------------------------
 .byte   W48
 .byte   W48
@  #08 @182   ----------------------------------------
 .byte   W48
 .byte   W48
@  #08 @183   ----------------------------------------
 .byte   W48
 .byte   W48
@  #08 @184   ----------------------------------------
 .byte   W48
 .byte   W48
@  #08 @185   ----------------------------------------
 .byte   W48
 .byte   W48
@  #08 @186   ----------------------------------------
 .byte   W48
 .byte   W48
@  #08 @187   ----------------------------------------
 .byte   W48
 .byte   W48
@  #08 @188   ----------------------------------------
 .byte   W48
 .byte   W48
@  #08 @189   ----------------------------------------
 .byte   W48
 .byte   W48
@  #08 @190   ----------------------------------------
 .byte   W48
 .byte   W48
@  #08 @191   ----------------------------------------
 .byte   W48
 .byte   W48
@  #08 @192   ----------------------------------------
 .byte   W48
 .byte   W48
@  #08 @193   ----------------------------------------
 .byte   W48
 .byte   N44 ,Fn2 ,v080
 .byte   W48
@  #08 @194   ----------------------------------------
 .byte   N92 ,Gs2
 .byte   W48
 .byte   W48
@  #08 @195   ----------------------------------------
 .byte   As2
 .byte   W48
 .byte   W48
@  #08 @196   ----------------------------------------
 .byte   Fn2
 .byte   W48
 .byte   W48
@  #08 @197   ----------------------------------------
 .byte   Ds2
 .byte   W48
 .byte   W48
@  #08 @198   ----------------------------------------
 .byte   N44 ,Fn2
 .byte   W48
 .byte   An2
 .byte   W48
@  #08 @199   ----------------------------------------
 .byte   N92 ,As2
 .byte   W48
 .byte   W48
@  #08 @200   ----------------------------------------
Label_01133069:
 .byte   N32 ,Gs2 ,v080
 .byte   W36
 .byte   N32
 .byte   W12
 .byte   PEND 
 .byte   W24
 .byte   N23 ,Gn2
 .byte   W24
@  #08 @201   ----------------------------------------
Label_01133074:
 .byte   N32 ,Fs2 ,v080
 .byte   W36
 .byte   N23
 .byte   W12
 .byte   PEND 
 .byte   W12
 .byte   N32
 .byte   W36
@  #08 @202   ----------------------------------------
 .byte   N92 ,Gs2
 .byte   W48
 .byte   W48
@  #08 @203   ----------------------------------------
 .byte   Fn2
 .byte   W48
 .byte   W48
@  #08 @204   ----------------------------------------
 .byte   N44 ,As2
 .byte   W48
Label_01133088:
 .byte   N23 ,Cn3 ,v080
 .byte   W24
 .byte   N11 ,As2
 .byte   W12
 .byte   Gs2
 .byte   W12
 .byte   PEND 
@  #08 @205   ----------------------------------------
 .byte   N92 ,Ds2
 .byte   W48
 .byte   W48
@  #08 @206   ----------------------------------------
 .byte   Fn2
 .byte   W48
 .byte   W48
@  #08 @207   ----------------------------------------
 .byte   TIE ,As2
 .byte   W48
 .byte   W48
@  #08 @208   ----------------------------------------
 .byte   W48
 .byte   W44
 .byte   W03
 .byte   EOT
 .byte   W01
@  #08 @209   ----------------------------------------
 .byte   W48
 .byte   W48
@  #08 @210   ----------------------------------------
 .byte   W48
 .byte   W48
@  #08 @211   ----------------------------------------
 .byte   W48
 .byte   W48
@  #08 @212   ----------------------------------------
 .byte   W48
 .byte   W48
@  #08 @213   ----------------------------------------
 .byte   W48
 .byte   W48
@  #08 @214   ----------------------------------------
 .byte   W48
 .byte   W48
@  #08 @215   ----------------------------------------
 .byte   W48
 .byte   W48
@  #08 @216   ----------------------------------------
 .byte   W48
 .byte   W48
@  #08 @217   ----------------------------------------
 .byte   W48
 .byte   W48
@  #08 @218   ----------------------------------------
 .byte   W48
 .byte   W48
@  #08 @219   ----------------------------------------
 .byte   W48
 .byte   W48
@  #08 @220   ----------------------------------------
 .byte   W48
 .byte   W48
@  #08 @221   ----------------------------------------
 .byte   W48
 .byte   W48
@  #08 @222   ----------------------------------------
 .byte   W48
 .byte   W48
@  #08 @223   ----------------------------------------
 .byte   W48
 .byte   W48
@  #08 @224   ----------------------------------------
 .byte   W48
 .byte   W48
@  #08 @225   ----------------------------------------
 .byte   W48
 .byte   W48
@  #08 @226   ----------------------------------------
 .byte   W48
 .byte   W48
@  #08 @227   ----------------------------------------
 .byte   GOTO
  .word Label_01132B6C
@  #08 @228   ----------------------------------------
 .byte   W48
 .byte   W48
@  #08 @229   ----------------------------------------
 .byte   W48
 .byte   W48
@  #08 @230   ----------------------------------------
 .byte   W48
 .byte   W48
@  #08 @231   ----------------------------------------
 .byte   W48
 .byte   W48
@  #08 @232   ----------------------------------------
 .byte   W48
 .byte   W48
@  #08 @233   ----------------------------------------
 .byte   W48
 .byte   W48
@  #08 @234   ----------------------------------------
 .byte   W48
 .byte   W48
@  #08 @235   ----------------------------------------
 .byte   W48
 .byte   W48
@  #08 @236   ----------------------------------------
 .byte   PATT
  .word Label_01132B7C
@  #08 @237   ----------------------------------------
 .byte   PATT
  .word Label_01132B8F
@  #08 @238   ----------------------------------------
 .byte   N92 ,En3 ,v064
 .byte   W48
 .byte   W48
@  #08 @239   ----------------------------------------
 .byte   PATT
  .word Label_01132BA5
@  #08 @240   ----------------------------------------
 .byte   PATT
  .word Label_01132BB3
@  #08 @241   ----------------------------------------
 .byte   PATT
  .word Label_01132BBF
@  #08 @242   ----------------------------------------
 .byte   EOT
 .byte   En3
 .byte   W01
 .byte   W48
@  #08 @243   ----------------------------------------
 .byte   PATT
  .word Label_01132BCF
@  #08 @244   ----------------------------------------
 .byte   PATT
  .word Label_01132B8F
@  #08 @245   ----------------------------------------
 .byte   N92 ,Dn3 ,v064
 .byte   W48
 .byte   W48
@  #08 @246   ----------------------------------------
 .byte   PATT
  .word Label_01132BEC
@  #08 @247   ----------------------------------------
 .byte   PATT
  .word Label_01132BB3
@  #08 @248   ----------------------------------------
 .byte   PATT
  .word Label_01132BBF
@  #08 @249   ----------------------------------------
 .byte   EOT
 .byte   Dn3
 .byte   W01
 .byte   W48
@  #08 @250   ----------------------------------------
 .byte   PATT
  .word Label_01132B7C
@  #08 @251   ----------------------------------------
 .byte   PATT
  .word Label_01132B8F
@  #08 @252   ----------------------------------------
 .byte   N92 ,En3 ,v064
 .byte   W48
 .byte   W48
@  #08 @253   ----------------------------------------
 .byte   PATT
  .word Label_01132BA5
@  #08 @254   ----------------------------------------
 .byte   PATT
  .word Label_01132BB3
@  #08 @255   ----------------------------------------
 .byte   PATT
  .word Label_01132BBF
@  #08 @256   ----------------------------------------
 .byte   EOT
 .byte   En3
 .byte   W01
 .byte   W48
@  #08 @257   ----------------------------------------
 .byte   PATT
  .word Label_01132BCF
@  #08 @258   ----------------------------------------
 .byte   PATT
  .word Label_01132B8F
@  #08 @259   ----------------------------------------
 .byte   N92 ,Dn3 ,v064
 .byte   W48
 .byte   W48
@  #08 @260   ----------------------------------------
 .byte   PATT
  .word Label_01132C39
@  #08 @261   ----------------------------------------
 .byte   PATT
  .word Label_01132C42
@  #08 @262   ----------------------------------------
 .byte   PATT
  .word Label_01132C48
@  #08 @263   ----------------------------------------
 .byte   EOT
 .byte   Dn3
 .byte   W01
@  #08 @264   ----------------------------------------
 .byte   PATT
  .word Label_01132C51
@  #08 @265   ----------------------------------------
 .byte   PATT
  .word Label_01132C60
@  #08 @266   ----------------------------------------
 .byte   PATT
  .word Label_01132C68
@  #08 @267   ----------------------------------------
 .byte   PATT
  .word Label_01132C7D
@  #08 @268   ----------------------------------------
 .byte   PATT
  .word Label_01132C85
@  #08 @269   ----------------------------------------
 .byte   PATT
  .word Label_01132C9A
@  #08 @270   ----------------------------------------
 .byte   W48
 .byte   W44
 .byte   W03
 .byte   EOT
 .byte   En3 ,v088
 .byte   W01
@  #08 @271   ----------------------------------------
 .byte   PATT
  .word Label_01132C51
@  #08 @272   ----------------------------------------
 .byte   PATT
  .word Label_01132C60
@  #08 @273   ----------------------------------------
 .byte   PATT
  .word Label_01132C68
@  #08 @274   ----------------------------------------
 .byte   PATT
  .word Label_01132C7D
@  #08 @275   ----------------------------------------
 .byte   PATT
  .word Label_01132CCB
@  #08 @276   ----------------------------------------
 .byte   PATT
  .word Label_01132CE0
@  #08 @277   ----------------------------------------
 .byte   W48
 .byte   W48
@  #08 @278   ----------------------------------------
 .byte   PATT
  .word Label_01132CF8
@  #08 @279   ----------------------------------------
 .byte   PATT
  .word Label_01132D0B
@  #08 @280   ----------------------------------------
 .byte   PATT
  .word Label_01132D15
@  #08 @281   ----------------------------------------
 .byte   PATT
  .word Label_01132D30
@  #08 @282   ----------------------------------------
 .byte   PATT
  .word Label_01132D3A
@  #08 @283   ----------------------------------------
 .byte   PATT
  .word Label_01132D55
@  #08 @284   ----------------------------------------
 .byte   PATT
  .word Label_01132D71
@  #08 @285   ----------------------------------------
 .byte   W48
@  #08 @286   ----------------------------------------
 .byte   PATT
  .word Label_01132D86
@  #08 @287   ----------------------------------------
 .byte   PATT
  .word Label_01132D99
@  #08 @288   ----------------------------------------
 .byte   PATT
  .word Label_01132DB5
@  #08 @289   ----------------------------------------
 .byte   W48
@  #08 @290   ----------------------------------------
 .byte   PATT
  .word Label_01132DCA
@  #08 @291   ----------------------------------------
 .byte   PATT
  .word Label_01132DD4
@  #08 @292   ----------------------------------------
 .byte   W48
 .byte   W48
@  #08 @293   ----------------------------------------
 .byte   W48
@  #08 @294   ----------------------------------------
 .byte   PATT
  .word Label_01132DF3
@  #08 @295   ----------------------------------------
 .byte   PATT
  .word Label_01132DF3
@  #08 @296   ----------------------------------------
 .byte   PATT
  .word Label_01132E03
@  #08 @297   ----------------------------------------
 .byte   PATT
  .word Label_01132E03
@  #08 @298   ----------------------------------------
 .byte   PATT
  .word Label_01132E13
@  #08 @299   ----------------------------------------
 .byte   PATT
  .word Label_01132E13
@  #08 @300   ----------------------------------------
 .byte   PATT
  .word Label_01132E13
@  #08 @301   ----------------------------------------
 .byte   PATT
  .word Label_01132E13
@  #08 @302   ----------------------------------------
 .byte   PATT
  .word Label_01132E2D
@  #08 @303   ----------------------------------------
 .byte   PATT
  .word Label_01132E2D
@  #08 @304   ----------------------------------------
 .byte   PATT
  .word Label_01132E3D
@  #08 @305   ----------------------------------------
 .byte   PATT
  .word Label_01132E3D
@  #08 @306   ----------------------------------------
 .byte   PATT
  .word Label_01132E4D
@  #08 @307   ----------------------------------------
 .byte   PATT
  .word Label_01132E4D
@  #08 @308   ----------------------------------------
 .byte   PATT
  .word Label_01132E5D
@  #08 @309   ----------------------------------------
 .byte   PATT
  .word Label_01132E5D
@  #08 @310   ----------------------------------------
 .byte   PATT
  .word Label_01132E6D
@  #08 @311   ----------------------------------------
 .byte   PATT
  .word Label_01132E78
@  #08 @312   ----------------------------------------
 .byte   PATT
  .word Label_01132E6D
@  #08 @313   ----------------------------------------
 .byte   PATT
  .word Label_01132E78
@  #08 @314   ----------------------------------------
 .byte   PATT
  .word Label_01132E6D
@  #08 @315   ----------------------------------------
 .byte   PATT
  .word Label_01132E78
@  #08 @316   ----------------------------------------
 .byte   PATT
  .word Label_01132E6D
@  #08 @317   ----------------------------------------
 .byte   PATT
  .word Label_01132E78
@  #08 @318   ----------------------------------------
 .byte   PATT
  .word Label_01132EA1
@  #08 @319   ----------------------------------------
 .byte   PATT
  .word Label_01132EA1
@  #08 @320   ----------------------------------------
 .byte   PATT
  .word Label_01132EB1
@  #08 @321   ----------------------------------------
 .byte   PATT
  .word Label_01132EB1
@  #08 @322   ----------------------------------------
 .byte   PATT
  .word Label_01132EC1
@  #08 @323   ----------------------------------------
 .byte   PATT
  .word Label_01132ECC
@  #08 @324   ----------------------------------------
 .byte   PATT
  .word Label_01132E2D
@  #08 @325   ----------------------------------------
 .byte   PATT
  .word Label_01132E2D
@  #08 @326   ----------------------------------------
 .byte   W48
 .byte   W48
@  #08 @327   ----------------------------------------
 .byte   W48
 .byte   W48
@  #08 @328   ----------------------------------------
 .byte   W48
 .byte   W48
@  #08 @329   ----------------------------------------
 .byte   W48
 .byte   W48
@  #08 @330   ----------------------------------------
 .byte   W48
 .byte   W48
@  #08 @331   ----------------------------------------
 .byte   W48
 .byte   W48
@  #08 @332   ----------------------------------------
 .byte   W48
 .byte   W48
@  #08 @333   ----------------------------------------
 .byte   W48
 .byte   W48
@  #08 @334   ----------------------------------------
 .byte   W48
 .byte   W48
@  #08 @335   ----------------------------------------
 .byte   W48
 .byte   W48
@  #08 @336   ----------------------------------------
 .byte   W48
 .byte   W48
@  #08 @337   ----------------------------------------
 .byte   W48
 .byte   W48
@  #08 @338   ----------------------------------------
 .byte   W48
 .byte   W48
@  #08 @339   ----------------------------------------
 .byte   W48
 .byte   W48
@  #08 @340   ----------------------------------------
 .byte   W48
 .byte   W48
@  #08 @341   ----------------------------------------
 .byte   W48
 .byte   W48
@  #08 @342   ----------------------------------------
 .byte   W48
 .byte   W48
@  #08 @343   ----------------------------------------
 .byte   W48
 .byte   W48
@  #08 @344   ----------------------------------------
 .byte   W48
 .byte   W48
@  #08 @345   ----------------------------------------
 .byte   W48
 .byte   W48
@  #08 @346   ----------------------------------------
 .byte   W48
 .byte   W48
@  #08 @347   ----------------------------------------
 .byte   W48
 .byte   W48
@  #08 @348   ----------------------------------------
 .byte   W48
 .byte   W48
@  #08 @349   ----------------------------------------
 .byte   W48
@  #08 @350   ----------------------------------------
 .byte   PATT
  .word Label_01132F10
@  #08 @351   ----------------------------------------
 .byte   N56 ,Cn6 ,v080
 .byte   W48
@  #08 @352   ----------------------------------------
 .byte   PATT
  .word Label_01132F1D
@  #08 @353   ----------------------------------------
 .byte   N56 ,An5 ,v080
 .byte   W48
@  #08 @354   ----------------------------------------
 .byte   PATT
  .word Label_01132F2A
@  #08 @355   ----------------------------------------
 .byte   PATT
  .word Label_01132F34
@  #08 @356   ----------------------------------------
 .byte   PATT
  .word Label_01132F3E
@  #08 @357   ----------------------------------------
 .byte   W48
@  #08 @358   ----------------------------------------
 .byte   PATT
  .word Label_01132F48
@  #08 @359   ----------------------------------------
 .byte   PATT
  .word Label_01132F50
@  #08 @360   ----------------------------------------
 .byte   PATT
  .word Label_01132F5A
@  #08 @361   ----------------------------------------
 .byte   W48
 .byte   N44 ,Dn5 ,v080
 .byte   W48
@  #08 @362   ----------------------------------------
 .byte   PATT
  .word Label_01132F66
@  #08 @363   ----------------------------------------
 .byte   W48
 .byte   W48
@  #08 @364   ----------------------------------------
 .byte   W44
 .byte   W03
 .byte   EOT
 .byte   En5
 .byte   W01
 .byte   W48
@  #08 @365   ----------------------------------------
 .byte   W48
 .byte   W48
@  #08 @366   ----------------------------------------
 .byte   W48
 .byte   W48
@  #08 @367   ----------------------------------------
 .byte   W48
 .byte   W48
@  #08 @368   ----------------------------------------
 .byte   W48
 .byte   W48
@  #08 @369   ----------------------------------------
 .byte   W48
 .byte   W48
@  #08 @370   ----------------------------------------
 .byte   W48
 .byte   W48
@  #08 @371   ----------------------------------------
 .byte   W48
 .byte   W48
@  #08 @372   ----------------------------------------
 .byte   W48
 .byte   W48
@  #08 @373   ----------------------------------------
 .byte   W48
 .byte   W48
@  #08 @374   ----------------------------------------
 .byte   W48
 .byte   W48
@  #08 @375   ----------------------------------------
 .byte   W48
 .byte   W48
@  #08 @376   ----------------------------------------
 .byte   W48
 .byte   W48
@  #08 @377   ----------------------------------------
 .byte   W48
 .byte   W48
@  #08 @378   ----------------------------------------
 .byte   W48
 .byte   W48
@  #08 @379   ----------------------------------------
 .byte   W48
 .byte   W48
@  #08 @380   ----------------------------------------
 .byte   W48
 .byte   W48
@  #08 @381   ----------------------------------------
 .byte   W48
 .byte   W48
@  #08 @382   ----------------------------------------
 .byte   W48
 .byte   W48
@  #08 @383   ----------------------------------------
 .byte   W48
 .byte   W48
@  #08 @384   ----------------------------------------
 .byte   W48
 .byte   W48
@  #08 @385   ----------------------------------------
 .byte   W48
 .byte   W48
@  #08 @386   ----------------------------------------
 .byte   W48
 .byte   W48
@  #08 @387   ----------------------------------------
 .byte   W48
 .byte   W48
@  #08 @388   ----------------------------------------
 .byte   W48
 .byte   W48
@  #08 @389   ----------------------------------------
 .byte   W48
 .byte   W48
@  #08 @390   ----------------------------------------
 .byte   W48
 .byte   W48
@  #08 @391   ----------------------------------------
 .byte   W48
 .byte   W48
@  #08 @392   ----------------------------------------
 .byte   W48
 .byte   W48
@  #08 @393   ----------------------------------------
 .byte   W48
 .byte   W48
@  #08 @394   ----------------------------------------
 .byte   W48
 .byte   W48
@  #08 @395   ----------------------------------------
 .byte   W48
 .byte   W48
@  #08 @396   ----------------------------------------
 .byte   W48
 .byte   W48
@  #08 @397   ----------------------------------------
 .byte   W48
 .byte   W48
@  #08 @398   ----------------------------------------
 .byte   W48
 .byte   W48
@  #08 @399   ----------------------------------------
 .byte   W48
 .byte   W48
@  #08 @400   ----------------------------------------
 .byte   W48
 .byte   W48
@  #08 @401   ----------------------------------------
 .byte   W48
 .byte   W48
@  #08 @402   ----------------------------------------
 .byte   W48
 .byte   W48
@  #08 @403   ----------------------------------------
 .byte   W48
 .byte   W48
@  #08 @404   ----------------------------------------
 .byte   W48
@  #08 @405   ----------------------------------------
 .byte   PATT
  .word Label_01132FC6
@  #08 @406   ----------------------------------------
 .byte   PATT
  .word Label_01132FC6
@  #08 @407   ----------------------------------------
 .byte   PATT
  .word Label_01132FC6
@  #08 @408   ----------------------------------------
 .byte   PATT
  .word Label_01132FC6
@  #08 @409   ----------------------------------------
 .byte   PATT
  .word Label_01132FDC
@  #08 @410   ----------------------------------------
 .byte   PATT
  .word Label_01132FDC
@  #08 @411   ----------------------------------------
 .byte   PATT
  .word Label_01132FE8
@  #08 @412   ----------------------------------------
 .byte   PATT
  .word Label_01132FEF
@  #08 @413   ----------------------------------------
 .byte   PATT
  .word Label_01132FC6
@  #08 @414   ----------------------------------------
 .byte   PATT
  .word Label_01132FC6
@  #08 @415   ----------------------------------------
 .byte   PATT
  .word Label_01132FC6
@  #08 @416   ----------------------------------------
 .byte   PATT
  .word Label_01132FC6
@  #08 @417   ----------------------------------------
 .byte   PATT
  .word Label_01132FC6
@  #08 @418   ----------------------------------------
 .byte   PATT
  .word Label_01132FC6
@  #08 @419   ----------------------------------------
 .byte   PATT
  .word Label_01133014
@  #08 @420   ----------------------------------------
 .byte   PATT
  .word Label_01133014
@  #08 @421   ----------------------------------------
 .byte   PATT
  .word Label_01133020
@  #08 @422   ----------------------------------------
 .byte   PATT
  .word Label_01133020
@  #08 @423   ----------------------------------------
 .byte   W48
 .byte   W48
@  #08 @424   ----------------------------------------
 .byte   W48
 .byte   W48
@  #08 @425   ----------------------------------------
 .byte   W48
 .byte   W48
@  #08 @426   ----------------------------------------
 .byte   W48
 .byte   W48
@  #08 @427   ----------------------------------------
 .byte   W48
 .byte   W48
@  #08 @428   ----------------------------------------
 .byte   W48
 .byte   W48
@  #08 @429   ----------------------------------------
 .byte   W48
 .byte   W48
@  #08 @430   ----------------------------------------
 .byte   W48
 .byte   W48
@  #08 @431   ----------------------------------------
 .byte   W48
 .byte   W48
@  #08 @432   ----------------------------------------
 .byte   W48
 .byte   W48
@  #08 @433   ----------------------------------------
 .byte   W48
 .byte   W48
@  #08 @434   ----------------------------------------
 .byte   W48
 .byte   W48
@  #08 @435   ----------------------------------------
 .byte   W48
 .byte   W48
@  #08 @436   ----------------------------------------
 .byte   W48
 .byte   W48
@  #08 @437   ----------------------------------------
 .byte   W48
 .byte   W48
@  #08 @438   ----------------------------------------
 .byte   W48
 .byte   W48
@  #08 @439   ----------------------------------------
 .byte   W48
 .byte   W48
@  #08 @440   ----------------------------------------
 .byte   W48
 .byte   N44 ,Fn2 ,v080
 .byte   W48
@  #08 @441   ----------------------------------------
 .byte   N92 ,Gs2
 .byte   W48
 .byte   W48
@  #08 @442   ----------------------------------------
 .byte   As2
 .byte   W48
 .byte   W48
@  #08 @443   ----------------------------------------
 .byte   Fn2
 .byte   W48
 .byte   W48
@  #08 @444   ----------------------------------------
 .byte   Ds2
 .byte   W48
 .byte   W48
@  #08 @445   ----------------------------------------
 .byte   N44 ,Fn2
 .byte   W48
 .byte   An2
 .byte   W48
@  #08 @446   ----------------------------------------
 .byte   N92 ,As2
 .byte   W48
 .byte   W48
@  #08 @447   ----------------------------------------
 .byte   PATT
  .word Label_01133069
@  #08 @448   ----------------------------------------
 .byte   W24
 .byte   N23 ,Gn2 ,v080
 .byte   W24
@  #08 @449   ----------------------------------------
 .byte   PATT
  .word Label_01133074
@  #08 @450   ----------------------------------------
 .byte   W12
 .byte   N32 ,Fs2 ,v080
 .byte   W36
 .byte   N92 ,Gs2
 .byte   W48
@  #08 @451   ----------------------------------------
 .byte   W48
 .byte   Fn2
 .byte   W48
@  #08 @452   ----------------------------------------
 .byte   W48
 .byte   N44 ,As2
 .byte   W48
@  #08 @453   ----------------------------------------
 .byte   PATT
  .word Label_01133088
@  #08 @454   ----------------------------------------
 .byte   N92 ,Ds2 ,v080
 .byte   W48
 .byte   W48
@  #08 @455   ----------------------------------------
 .byte   Fn2
 .byte   W48
 .byte   W48
@  #08 @456   ----------------------------------------
 .byte   TIE ,As2
 .byte   W48
 .byte   W48
@  #08 @457   ----------------------------------------
 .byte   W48
 .byte   W44
 .byte   W03
 .byte   EOT
 .byte   W01
@  #08 @458   ----------------------------------------
 .byte   W48
 .byte   W48
@  #08 @459   ----------------------------------------
 .byte   W48
 .byte   W48
@  #08 @460   ----------------------------------------
 .byte   W48
 .byte   W48
@  #08 @461   ----------------------------------------
 .byte   W48
 .byte   W48
@  #08 @462   ----------------------------------------
 .byte   W48
 .byte   W48
@  #08 @463   ----------------------------------------
 .byte   W48
 .byte   W48
@  #08 @464   ----------------------------------------
 .byte   W48
 .byte   W48
@  #08 @465   ----------------------------------------
 .byte   W48
 .byte   W48
@  #08 @466   ----------------------------------------
 .byte   W48
 .byte   W48
@  #08 @467   ----------------------------------------
 .byte   W48
 .byte   W44
 .byte   W03
 .byte   FINE

@**************** Track 9 (Midi-Chn.8) ****************@

.align 2, 0
song06_009:
@  #09 @000   ----------------------------------------
 .byte   KEYSH , song06_key+0
 .byte   VOICE , 121
 .byte   PAN , c_v-4
 .byte   VOL , 47*song06_mvl/mxv
 .byte   Gs1 ,v062
 .byte   Dn3 ,v062
 .byte   Dn3 ,v062
 .byte   Dn3 ,v062
 .byte   GnM1 ,v019
 .byte   GnM1 ,v019
 .byte   N23 ,Bn0 ,v080
 .byte   W48
Label_01133444:
 .byte   W42
 .byte   N02 ,Dn1 ,v080
 .byte   W03
 .byte   N02
 .byte   W03
 .byte   PEND 
@  #09 @001   ----------------------------------------
Label_0113344C:
 .byte   N23 ,Bn0 ,v080
 .byte   N23 ,Dn1
 .byte   W24
 .byte   Bn0
 .byte   N23 ,Dn1
 .byte   W24
 .byte   PEND 
 .byte   W48
@  #09 @002   ----------------------------------------
Label_01133458:
 .byte   N23 ,Bn0 ,v080
 .byte   N23 ,Dn1
 .byte   N92 ,An2 ,v064
 .byte   W48
 .byte   PEND 
@  #09 @003   ----------------------------------------
 .byte   PATT
  .word Label_01133444
@  #09 @004   ----------------------------------------
 .byte   PATT
  .word Label_0113344C
@  #09 @005   ----------------------------------------
Label_0113346C:
 .byte   W24
 .byte   N02 ,An2 ,v064
 .byte   W03
 .byte   N02
 .byte   W03
 .byte   N02
 .byte   W03
 .byte   N02
 .byte   W03
 .byte   N02
 .byte   W03
 .byte   N02
 .byte   W03
 .byte   N02
 .byte   W03
 .byte   N02
 .byte   W03
 .byte   PEND 
 .byte   N23 ,Bn0 ,v080
 .byte   N23 ,Dn1
 .byte   W48
@  #09 @006   ----------------------------------------
 .byte   PATT
  .word Label_01133444
@  #09 @007   ----------------------------------------
 .byte   PATT
  .word Label_0113344C
@  #09 @008   ----------------------------------------
 .byte   W48
Label_01133491:
 .byte   N44 ,Bn0 ,v080
 .byte   N44 ,Dn1
 .byte   N92 ,An2 ,v064
 .byte   W48
 .byte   PEND 
@  #09 @009   ----------------------------------------
Label_0113349B:
 .byte   N44 ,Bn0 ,v080
 .byte   N23 ,Dn1
 .byte   W42
 .byte   N02
 .byte   W03
 .byte   N02
 .byte   W03
 .byte   PEND 
@  #09 @010   ----------------------------------------
 .byte   PATT
  .word Label_01133491
@  #09 @011   ----------------------------------------
Label_011334AB:
 .byte   N44 ,Bn0 ,v080
 .byte   N01 ,Dn1
 .byte   W01
 .byte   N01
 .byte   W01
 .byte   N01
 .byte   W02
 .byte   N01
 .byte   W01
 .byte   N01
 .byte   W02
 .byte   N01
 .byte   W01
 .byte   N01
 .byte   W02
 .byte   N01
 .byte   W01
 .byte   N01
 .byte   W02
 .byte   N01
 .byte   W01
 .byte   N01
 .byte   W02
 .byte   N01
 .byte   W01
 .byte   N01
 .byte   W02
 .byte   N01
 .byte   W01
 .byte   N01
 .byte   W02
 .byte   N01
 .byte   W01
 .byte   N01
 .byte   W02
 .byte   N01
 .byte   W01
 .byte   N01
 .byte   W02
 .byte   N01
 .byte   W01
 .byte   N01
 .byte   W02
 .byte   N01
 .byte   W01
 .byte   N01
 .byte   W02
 .byte   N01
 .byte   W01
 .byte   N01
 .byte   W02
 .byte   N01
 .byte   W01
 .byte   N01
 .byte   W02
 .byte   N01
 .byte   W01
 .byte   N01
 .byte   W02
 .byte   N01
 .byte   W01
 .byte   N01
 .byte   W02
 .byte   N01
 .byte   W02
 .byte   PEND 
Label_011334F0:
 .byte   N11 ,Fs1 ,v036
 .byte   N92 ,An2 ,v064
 .byte   W12
 .byte   N11 ,Fs1 ,v036
 .byte   W12
 .byte   N11
 .byte   W12
 .byte   N11
 .byte   W12
 .byte   PEND 
@  #09 @012   ----------------------------------------
Label_01133500:
 .byte   W12
 .byte   N11 ,Fs1 ,v036
 .byte   W12
 .byte   N11
 .byte   W12
 .byte   N05
 .byte   W06
 .byte   N05
 .byte   W06
 .byte   PEND 
Label_0113350C:
 .byte   N11 ,Fs1 ,v036
 .byte   W12
 .byte   N11
 .byte   W12
 .byte   N11
 .byte   W12
 .byte   N11
 .byte   W12
 .byte   PEND 
@  #09 @013   ----------------------------------------
 .byte   PATT
  .word Label_01133500
@  #09 @014   ----------------------------------------
 .byte   PATT
  .word Label_0113350C
@  #09 @015   ----------------------------------------
 .byte   PATT
  .word Label_01133500
@  #09 @016   ----------------------------------------
 .byte   PATT
  .word Label_0113350C
@  #09 @017   ----------------------------------------
 .byte   PATT
  .word Label_01133500
@  #09 @018   ----------------------------------------
 .byte   PATT
  .word Label_0113350C
@  #09 @019   ----------------------------------------
 .byte   PATT
  .word Label_01133500
@  #09 @020   ----------------------------------------
 .byte   PATT
  .word Label_0113350C
@  #09 @021   ----------------------------------------
 .byte   PATT
  .word Label_01133500
@  #09 @022   ----------------------------------------
 .byte   PATT
  .word Label_0113350C
@  #09 @023   ----------------------------------------
 .byte   PATT
  .word Label_01133500
@  #09 @024   ----------------------------------------
Label_0113354E:
 .byte   N11 ,Fs1 ,v036
 .byte   N02 ,An2
 .byte   W02
 .byte   N02
 .byte   W03
 .byte   N02
 .byte   W01
 .byte   W02
 .byte   N02
 .byte   W01
 .byte   W02
 .byte   N02
 .byte   W01
 .byte   N11 ,Fs1
 .byte   W02
 .byte   N02 ,An2
 .byte   W01
 .byte   W02
 .byte   N02
 .byte   W01
 .byte   W02
 .byte   N02
 .byte   W01
 .byte   W02
 .byte   N02
 .byte   W01
 .byte   N11 ,Fs1
 .byte   W02
 .byte   N02 ,An2
 .byte   W01
 .byte   W02
 .byte   N02
 .byte   W01
 .byte   W02
 .byte   N02
 .byte   W01
 .byte   W02
 .byte   N02
 .byte   W01
 .byte   N11 ,Fs1
 .byte   W02
 .byte   N02 ,An2
 .byte   W01
 .byte   W02
 .byte   N02
 .byte   W01
 .byte   W02
 .byte   N02
 .byte   W01
 .byte   W02
 .byte   N02
 .byte   W01
 .byte   PEND 
Label_0113358C:
 .byte   W02
 .byte   N02 ,An2 ,v036
 .byte   W01
 .byte   W02
 .byte   N02
 .byte   W01
 .byte   W02
 .byte   N02
 .byte   W01
 .byte   W02
 .byte   N02
 .byte   W01
 .byte   N11 ,Fs1
 .byte   W01
 .byte   W01
 .byte   N02 ,An2
 .byte   W02
 .byte   W01
 .byte   N02
 .byte   W02
 .byte   W01
 .byte   N02
 .byte   W02
 .byte   W01
 .byte   N02
 .byte   W01
 .byte   N11 ,Fs1
 .byte   W01
 .byte   W01
 .byte   N02 ,An2
 .byte   W02
 .byte   W01
 .byte   N02
 .byte   W02
 .byte   W01
 .byte   N02
 .byte   W02
 .byte   W01
 .byte   N02
 .byte   W01
 .byte   N05 ,Fs1
 .byte   W01
 .byte   W01
 .byte   N02 ,An2
 .byte   W02
 .byte   W01
 .byte   N02
 .byte   W01
 .byte   N05 ,Fs1
 .byte   W01
 .byte   W01
 .byte   N02 ,An2
 .byte   W02
 .byte   W02
 .byte   PEND 
@  #09 @025   ----------------------------------------
Label_011335CD:
 .byte   N11 ,Dn1 ,v052
 .byte   N11 ,Fs1
 .byte   W12
 .byte   Dn1 ,v036
 .byte   N11 ,Fs1 ,v052
 .byte   W12
 .byte   Dn1 ,v036
 .byte   N11 ,Fs1 ,v052
 .byte   W12
 .byte   Dn1
 .byte   N11 ,Fs1
 .byte   W12
 .byte   PEND 
Label_011335E4:
 .byte   W12
 .byte   N11 ,Fs1 ,v052
 .byte   W12
 .byte   N11
 .byte   W12
 .byte   N05 ,Dn1
 .byte   N05 ,Fs1
 .byte   W06
 .byte   Dn1
 .byte   N05 ,Fs1
 .byte   W06
 .byte   PEND 
@  #09 @026   ----------------------------------------
Label_011335F5:
 .byte   N11 ,Dn1 ,v052
 .byte   N11 ,Fs1
 .byte   W12
 .byte   N11
 .byte   W12
 .byte   N11
 .byte   W12
 .byte   Dn1
 .byte   N11 ,Fs1
 .byte   W12
 .byte   PEND 
Label_01133604:
 .byte   W12
 .byte   N11 ,Dn1 ,v052
 .byte   N11 ,Fs1
 .byte   W12
 .byte   N11
 .byte   W12
 .byte   N05
 .byte   W06
 .byte   N05
 .byte   W06
 .byte   PEND 
@  #09 @027   ----------------------------------------
 .byte   PATT
  .word Label_011335CD
@  #09 @028   ----------------------------------------
 .byte   PATT
  .word Label_011335E4
@  #09 @029   ----------------------------------------
 .byte   PATT
  .word Label_011335F5
@  #09 @030   ----------------------------------------
 .byte   PATT
  .word Label_01133604
@  #09 @031   ----------------------------------------
 .byte   PATT
  .word Label_011335CD
@  #09 @032   ----------------------------------------
 .byte   PATT
  .word Label_011335E4
@  #09 @033   ----------------------------------------
 .byte   PATT
  .word Label_011335F5
@  #09 @034   ----------------------------------------
 .byte   PATT
  .word Label_01133604
@  #09 @035   ----------------------------------------
 .byte   PATT
  .word Label_011335CD
@  #09 @036   ----------------------------------------
 .byte   PATT
  .word Label_011335E4
@  #09 @037   ----------------------------------------
 .byte   PATT
  .word Label_011335F5
@  #09 @038   ----------------------------------------
Label_01133649:
 .byte   W12
 .byte   N11 ,Dn1 ,v052
 .byte   N11 ,Fs1
 .byte   W12
 .byte   N05 ,Dn1 ,v036
 .byte   N11 ,Fs1 ,v052
 .byte   W06
 .byte   N05 ,Dn1 ,v036
 .byte   W06
 .byte   N05
 .byte   N05 ,Fs1 ,v052
 .byte   W06
 .byte   Dn1 ,v036
 .byte   N05 ,Fs1 ,v052
 .byte   W06
 .byte   PEND 
@  #09 @039   ----------------------------------------
 .byte   PATT
  .word Label_011335CD
@  #09 @040   ----------------------------------------
 .byte   PATT
  .word Label_011335E4
@  #09 @041   ----------------------------------------
 .byte   PATT
  .word Label_011335F5
@  #09 @042   ----------------------------------------
 .byte   PATT
  .word Label_01133649
@  #09 @043   ----------------------------------------
 .byte   PATT
  .word Label_011335CD
@  #09 @044   ----------------------------------------
Label_01133680:
 .byte   N11 ,Dn1 ,v036
 .byte   W12
 .byte   N11
 .byte   N11 ,Fs1 ,v052
 .byte   W12
 .byte   Dn1 ,v036
 .byte   N11 ,Fs1 ,v052
 .byte   W12
 .byte   N05 ,Dn1
 .byte   N05 ,Fs1
 .byte   W06
 .byte   Dn1
 .byte   N05 ,Fs1
 .byte   W06
 .byte   PEND 
@  #09 @045   ----------------------------------------
 .byte   PATT
  .word Label_011335F5
@  #09 @046   ----------------------------------------
 .byte   PATT
  .word Label_01133649
@  #09 @047   ----------------------------------------
 .byte   PATT
  .word Label_011335CD
@  #09 @048   ----------------------------------------
 .byte   PATT
  .word Label_01133680
@  #09 @049   ----------------------------------------
 .byte   PATT
  .word Label_011335F5
@  #09 @050   ----------------------------------------
 .byte   PATT
  .word Label_01133649
@  #09 @051   ----------------------------------------
 .byte   PATT
  .word Label_011335CD
@  #09 @052   ----------------------------------------
 .byte   PATT
  .word Label_01133680
@  #09 @053   ----------------------------------------
Label_011336C1:
 .byte   N11 ,Dn1 ,v052
 .byte   N11 ,Fs1
 .byte   N02 ,An2 ,v036
 .byte   W02
 .byte   N02
 .byte   W02
 .byte   W01
 .byte   N02
 .byte   W01
 .byte   W02
 .byte   N02
 .byte   W02
 .byte   W01
 .byte   N02
 .byte   W01
 .byte   N11 ,Fs1 ,v052
 .byte   W02
 .byte   N02 ,An2 ,v036
 .byte   W02
 .byte   W01
 .byte   N02
 .byte   W01
 .byte   W02
 .byte   N02
 .byte   W02
 .byte   W01
 .byte   N02
 .byte   W01
 .byte   N11 ,Fs1 ,v052
 .byte   W02
 .byte   N02 ,An2 ,v036
 .byte   W02
 .byte   W01
 .byte   N02
 .byte   W01
 .byte   W02
 .byte   N02
 .byte   W02
 .byte   W01
 .byte   N02
 .byte   W01
 .byte   N11 ,Dn1 ,v052
 .byte   N11 ,Fs1
 .byte   W02
 .byte   N02 ,An2 ,v036
 .byte   W02
 .byte   W01
 .byte   N02
 .byte   W01
 .byte   W02
 .byte   N02
 .byte   W02
 .byte   W01
 .byte   N02
 .byte   W01
 .byte   PEND 
Label_0113370B:
 .byte   W02
 .byte   N02 ,An2 ,v036
 .byte   W02
 .byte   W01
 .byte   N02
 .byte   W01
 .byte   W02
 .byte   N02
 .byte   W02
 .byte   W01
 .byte   N02
 .byte   W01
 .byte   N11 ,Dn1 ,v052
 .byte   N11 ,Fs1
 .byte   W02
 .byte   N02 ,An2 ,v036
 .byte   W02
 .byte   W01
 .byte   N02
 .byte   W01
 .byte   W02
 .byte   N02
 .byte   W02
 .byte   W01
 .byte   N02
 .byte   W01
 .byte   N05 ,Dn1
 .byte   N11 ,Fs1 ,v052
 .byte   W02
 .byte   N02 ,An2 ,v036
 .byte   W02
 .byte   W01
 .byte   N02
 .byte   W01
 .byte   N05 ,Dn1
 .byte   W02
 .byte   N02 ,An2
 .byte   W02
 .byte   W01
 .byte   N02
 .byte   W01
 .byte   N05 ,Dn1
 .byte   N05 ,Fs1 ,v052
 .byte   W02
 .byte   N02 ,An2 ,v036
 .byte   W02
 .byte   W01
 .byte   N02
 .byte   W01
 .byte   N05 ,Dn1
 .byte   N05 ,Fs1 ,v052
 .byte   W02
 .byte   N02 ,An2 ,v036
 .byte   W02
 .byte   W02
 .byte   PEND 
@  #09 @054   ----------------------------------------
Label_0113375B:
 .byte   N92 ,Bn0 ,v064
 .byte   N11 ,Dn1 ,v052
 .byte   N11 ,Fs1
 .byte   W12
 .byte   Dn1 ,v036
 .byte   N11 ,Fs1 ,v052
 .byte   W12
 .byte   Dn1 ,v036
 .byte   N11 ,Fs1 ,v052
 .byte   W12
 .byte   Dn1
 .byte   N11 ,Fs1
 .byte   W12
 .byte   PEND 
@  #09 @055   ----------------------------------------
 .byte   PATT
  .word Label_011335E4
@  #09 @056   ----------------------------------------
Label_0113377A:
 .byte   N92 ,Bn0 ,v064
 .byte   N11 ,Dn1 ,v052
 .byte   N11 ,Fs1
 .byte   W12
 .byte   N11
 .byte   W12
 .byte   N11
 .byte   W12
 .byte   Dn1
 .byte   N11 ,Fs1
 .byte   W12
 .byte   PEND 
@  #09 @057   ----------------------------------------
 .byte   PATT
  .word Label_01133604
@  #09 @058   ----------------------------------------
 .byte   PATT
  .word Label_0113375B
@  #09 @059   ----------------------------------------
 .byte   PATT
  .word Label_011335E4
@  #09 @060   ----------------------------------------
 .byte   PATT
  .word Label_0113377A
@  #09 @061   ----------------------------------------
 .byte   PATT
  .word Label_01133604
@  #09 @062   ----------------------------------------
 .byte   PATT
  .word Label_0113375B
@  #09 @063   ----------------------------------------
 .byte   PATT
  .word Label_011335E4
@  #09 @064   ----------------------------------------
 .byte   PATT
  .word Label_0113377A
@  #09 @065   ----------------------------------------
 .byte   PATT
  .word Label_01133604
@  #09 @066   ----------------------------------------
 .byte   PATT
  .word Label_0113375B
@  #09 @067   ----------------------------------------
 .byte   PATT
  .word Label_011335E4
@  #09 @068   ----------------------------------------
 .byte   PATT
  .word Label_0113377A
@  #09 @069   ----------------------------------------
 .byte   PATT
  .word Label_01133604
@  #09 @070   ----------------------------------------
 .byte   PATT
  .word Label_0113375B
@  #09 @071   ----------------------------------------
 .byte   PATT
  .word Label_01133680
@  #09 @072   ----------------------------------------
 .byte   PATT
  .word Label_0113377A
@  #09 @073   ----------------------------------------
 .byte   PATT
  .word Label_01133649
@  #09 @074   ----------------------------------------
 .byte   PATT
  .word Label_0113375B
@  #09 @075   ----------------------------------------
 .byte   PATT
  .word Label_01133680
@  #09 @076   ----------------------------------------
 .byte   PATT
  .word Label_0113377A
@  #09 @077   ----------------------------------------
 .byte   PATT
  .word Label_01133649
@  #09 @078   ----------------------------------------
 .byte   PATT
  .word Label_0113375B
@  #09 @079   ----------------------------------------
 .byte   PATT
  .word Label_01133680
@  #09 @080   ----------------------------------------
 .byte   PATT
  .word Label_0113377A
@  #09 @081   ----------------------------------------
 .byte   PATT
  .word Label_01133649
@  #09 @082   ----------------------------------------
Label_01133809:
 .byte   N68 ,Bn0 ,v064
 .byte   N23 ,Dn1 ,v036
 .byte   N23 ,Fs1 ,v052
 .byte   N02 ,An2 ,v036
 .byte   W02
 .byte   N02
 .byte   W03
 .byte   N02
 .byte   W01
 .byte   W02
 .byte   N02
 .byte   W01
 .byte   W02
 .byte   N02
 .byte   W01
 .byte   W02
 .byte   N02
 .byte   W01
 .byte   W02
 .byte   N02
 .byte   W01
 .byte   W02
 .byte   N02
 .byte   W01
 .byte   W02
 .byte   N02
 .byte   W01
 .byte   N11 ,Dn1 ,v044
 .byte   N11 ,Fs1 ,v052
 .byte   W02
 .byte   N02 ,An2 ,v036
 .byte   W01
 .byte   W02
 .byte   N02
 .byte   W01
 .byte   W02
 .byte   N02
 .byte   W01
 .byte   W02
 .byte   N02
 .byte   W01
 .byte   N11 ,Dn1 ,v052
 .byte   N11 ,Fs1
 .byte   W02
 .byte   N02 ,An2 ,v036
 .byte   W01
 .byte   W02
 .byte   N02
 .byte   W01
 .byte   W02
 .byte   N02
 .byte   W01
 .byte   W02
 .byte   N02
 .byte   W01
 .byte   PEND 
Label_01133854:
 .byte   N11 ,Dn1 ,v056
 .byte   N11 ,Fs1 ,v052
 .byte   W02
 .byte   N02 ,An2 ,v036
 .byte   W01
 .byte   W02
 .byte   N02
 .byte   W01
 .byte   W02
 .byte   N02
 .byte   W01
 .byte   W02
 .byte   N02
 .byte   W01
 .byte   N11 ,Dn1 ,v064
 .byte   N11 ,Fs1 ,v052
 .byte   W01
 .byte   W01
 .byte   N02 ,An2 ,v036
 .byte   W02
 .byte   W01
 .byte   N02
 .byte   W02
 .byte   W01
 .byte   N02
 .byte   W02
 .byte   W01
 .byte   N02
 .byte   W01
 .byte   N11 ,Bn0 ,v064
 .byte   N11 ,Dn1 ,v068
 .byte   N05 ,Fs1 ,v052
 .byte   W01
 .byte   W01
 .byte   N02 ,An2 ,v036
 .byte   W02
 .byte   W01
 .byte   N02
 .byte   W01
 .byte   N05 ,Fs1 ,v052
 .byte   W01
 .byte   W01
 .byte   N02 ,An2 ,v036
 .byte   W02
 .byte   W01
 .byte   N02
 .byte   W01
 .byte   N11 ,Bn0 ,v064
 .byte   N11 ,Dn1 ,v076
 .byte   N05 ,Fs1 ,v052
 .byte   W01
 .byte   W01
 .byte   N02 ,An2 ,v036
 .byte   W02
 .byte   W01
 .byte   N02
 .byte   W01
 .byte   N05 ,Fs1 ,v052
 .byte   W01
 .byte   W01
 .byte   N02 ,An2 ,v036
 .byte   W02
 .byte   W02
 .byte   PEND 
@  #09 @083   ----------------------------------------
 .byte   W48
 .byte   W48
@  #09 @084   ----------------------------------------
Label_011338BA:
 .byte   N11 ,Bn0 ,v064
 .byte   N11 ,Dn1
 .byte   N11 ,Fs1 ,v080
 .byte   N92 ,An2 ,v064
 .byte   W12
 .byte   N11 ,Bn0
 .byte   N02 ,Fs1 ,v080
 .byte   W03
 .byte   N02
 .byte   W03
 .byte   N02
 .byte   W03
 .byte   N02
 .byte   W03
 .byte   N11
 .byte   W12
 .byte   N23 ,Bn0 ,v064
 .byte   N11 ,Dn1
 .byte   N11 ,Fs1 ,v080
 .byte   W12
 .byte   PEND 
Label_011338DE:
 .byte   N11 ,Fs1 ,v080
 .byte   W12
 .byte   N23 ,Bn0 ,v064
 .byte   N11 ,Fs1 ,v080
 .byte   W12
 .byte   N05
 .byte   W06
 .byte   N05
 .byte   W06
 .byte   Dn1 ,v064
 .byte   N11 ,Fs1 ,v080
 .byte   W06
 .byte   N05 ,Dn1 ,v064
 .byte   W06
 .byte   PEND 
@  #09 @085   ----------------------------------------
Label_011338F8:
 .byte   N11 ,Bn0 ,v064
 .byte   N11 ,Dn1
 .byte   N11 ,Fs1 ,v080
 .byte   W12
 .byte   Bn0 ,v064
 .byte   N11 ,Fs1 ,v080
 .byte   W12
 .byte   N11
 .byte   W12
 .byte   N23 ,Bn0 ,v064
 .byte   N23 ,Dn1
 .byte   N11 ,Fs1 ,v080
 .byte   W12
 .byte   PEND 
Label_01133913:
 .byte   N05 ,Fs1 ,v080
 .byte   W06
 .byte   N05
 .byte   W06
 .byte   N23 ,Bn0 ,v064
 .byte   N11 ,Dn1
 .byte   N11 ,Fs1 ,v080
 .byte   W12
 .byte   N11
 .byte   W12
 .byte   N11
 .byte   W12
 .byte   PEND 
@  #09 @086   ----------------------------------------
Label_01133927:
 .byte   N11 ,Bn0 ,v064
 .byte   N11 ,Dn1
 .byte   N11 ,Fs1 ,v080
 .byte   N32 ,An2 ,v064
 .byte   W12
 .byte   N11 ,Bn0
 .byte   N02 ,Fs1 ,v080
 .byte   W03
 .byte   N02
 .byte   W03
 .byte   N02
 .byte   W03
 .byte   N02
 .byte   W03
 .byte   N11
 .byte   W12
 .byte   N23 ,Bn0 ,v064
 .byte   N11 ,Dn1
 .byte   N11 ,Fs1 ,v080
 .byte   N11 ,An2 ,v064
 .byte   W12
 .byte   PEND 
@  #09 @087   ----------------------------------------
 .byte   PATT
  .word Label_011338DE
@  #09 @088   ----------------------------------------
 .byte   PATT
  .word Label_011338F8
@  #09 @089   ----------------------------------------
 .byte   PATT
  .word Label_01133913
@  #09 @090   ----------------------------------------
 .byte   PATT
  .word Label_011338BA
@  #09 @091   ----------------------------------------
 .byte   PATT
  .word Label_011338DE
@  #09 @092   ----------------------------------------
 .byte   PATT
  .word Label_011338F8
@  #09 @093   ----------------------------------------
 .byte   PATT
  .word Label_01133913
@  #09 @094   ----------------------------------------
 .byte   PATT
  .word Label_01133927
@  #09 @095   ----------------------------------------
 .byte   PATT
  .word Label_011338DE
@  #09 @096   ----------------------------------------
 .byte   PATT
  .word Label_011338F8
@  #09 @097   ----------------------------------------
Label_01133980:
 .byte   N05 ,Fs1 ,v080
 .byte   N02 ,An2 ,v064
 .byte   W02
 .byte   N02
 .byte   W03
 .byte   N02
 .byte   W01
 .byte   N05 ,Fs1 ,v080
 .byte   W02
 .byte   N02 ,An2 ,v064
 .byte   W03
 .byte   N02
 .byte   W01
 .byte   N23 ,Bn0
 .byte   N11 ,Dn1
 .byte   N11 ,Fs1 ,v080
 .byte   W02
 .byte   N02 ,An2 ,v064
 .byte   W03
 .byte   N02
 .byte   W03
 .byte   N02
 .byte   W03
 .byte   N02
 .byte   W01
 .byte   N11 ,Fs1 ,v080
 .byte   W02
 .byte   N02 ,An2 ,v064
 .byte   W03
 .byte   N02
 .byte   W03
 .byte   N02
 .byte   W03
 .byte   N02
 .byte   W01
 .byte   N11 ,Fs1 ,v080
 .byte   W02
 .byte   N02 ,An2 ,v064
 .byte   W03
 .byte   N02
 .byte   W03
 .byte   N02
 .byte   W04
 .byte   PEND 
Label_011339C2:
 .byte   N11 ,Bn0 ,v064
 .byte   N11 ,Dn1
 .byte   N11 ,Fs1 ,v080
 .byte   W12
 .byte   Bn0 ,v064
 .byte   N02 ,Fs1 ,v080
 .byte   W03
 .byte   N02
 .byte   W03
 .byte   N02
 .byte   W03
 .byte   N02
 .byte   W03
 .byte   N11
 .byte   W12
 .byte   N23 ,Bn0 ,v064
 .byte   N11 ,Dn1
 .byte   N11 ,Fs1 ,v080
 .byte   W12
 .byte   PEND 
@  #09 @098   ----------------------------------------
 .byte   PATT
  .word Label_011338DE
@  #09 @099   ----------------------------------------
 .byte   PATT
  .word Label_011338F8
@  #09 @100   ----------------------------------------
 .byte   PATT
  .word Label_01133913
@  #09 @101   ----------------------------------------
 .byte   PATT
  .word Label_01133927
@  #09 @102   ----------------------------------------
 .byte   PATT
  .word Label_011338DE
@  #09 @103   ----------------------------------------
 .byte   PATT
  .word Label_011338F8
@  #09 @104   ----------------------------------------
 .byte   PATT
  .word Label_01133913
@  #09 @105   ----------------------------------------
 .byte   PATT
  .word Label_011338BA
@  #09 @106   ----------------------------------------
 .byte   PATT
  .word Label_011338DE
@  #09 @107   ----------------------------------------
 .byte   PATT
  .word Label_011338F8
@  #09 @108   ----------------------------------------
 .byte   PATT
  .word Label_01133913
@  #09 @109   ----------------------------------------
 .byte   PATT
  .word Label_01133927
@  #09 @110   ----------------------------------------
 .byte   PATT
  .word Label_011338DE
@  #09 @111   ----------------------------------------
 .byte   PATT
  .word Label_011338F8
@  #09 @112   ----------------------------------------
 .byte   PATT
  .word Label_01133980
@  #09 @113   ----------------------------------------
Label_01133A2E:
 .byte   N92 ,Bn0 ,v080
 .byte   N11 ,Dn1 ,v064
 .byte   W36
 .byte   N11
 .byte   W12
 .byte   PEND 
Label_01133A38:
 .byte   W36
 .byte   N05 ,Dn1 ,v064
 .byte   W06
 .byte   N05
 .byte   W06
 .byte   PEND 
@  #09 @114   ----------------------------------------
Label_01133A40:
 .byte   N11 ,Dn1 ,v064
 .byte   W36
 .byte   N11
 .byte   W12
 .byte   PEND 
@  #09 @115   ----------------------------------------
 .byte   PATT
  .word Label_01133A38
@  #09 @116   ----------------------------------------
 .byte   PATT
  .word Label_01133A2E
@  #09 @117   ----------------------------------------
 .byte   PATT
  .word Label_01133A38
@  #09 @118   ----------------------------------------
Label_01133A56:
 .byte   N11 ,Dn1 ,v064
 .byte   W36
 .byte   N23
 .byte   W12
 .byte   PEND 
Label_01133A5D:
 .byte   W12
 .byte   N11 ,Dn1 ,v064
 .byte   W12
 .byte   N05
 .byte   W06
 .byte   N05
 .byte   W06
 .byte   N05
 .byte   W06
 .byte   N05
 .byte   W06
 .byte   PEND 
@  #09 @119   ----------------------------------------
 .byte   PATT
  .word Label_01133A2E
@  #09 @120   ----------------------------------------
 .byte   PATT
  .word Label_01133A38
@  #09 @121   ----------------------------------------
 .byte   PATT
  .word Label_01133A40
@  #09 @122   ----------------------------------------
 .byte   PATT
  .word Label_01133A38
@  #09 @123   ----------------------------------------
 .byte   PATT
  .word Label_01133A2E
@  #09 @124   ----------------------------------------
 .byte   PATT
  .word Label_01133A38
@  #09 @125   ----------------------------------------
Label_01133A89:
 .byte   N02 ,An2 ,v036
 .byte   W02
 .byte   N02
 .byte   W03
 .byte   N02
 .byte   W01
 .byte   W02
 .byte   N02
 .byte   W01
 .byte   W02
 .byte   N02
 .byte   W01
 .byte   N11 ,Dn1 ,v064
 .byte   W02
 .byte   N02 ,An2 ,v036
 .byte   W01
 .byte   W02
 .byte   N02
 .byte   W01
 .byte   W02
 .byte   N02
 .byte   W01
 .byte   W02
 .byte   N02
 .byte   W01
 .byte   N11 ,Dn1 ,v064
 .byte   W02
 .byte   N02 ,An2 ,v036
 .byte   W01
 .byte   W02
 .byte   N02
 .byte   W01
 .byte   W02
 .byte   N02
 .byte   W01
 .byte   W02
 .byte   N02
 .byte   W01
 .byte   N11 ,Dn1 ,v064
 .byte   W02
 .byte   N02 ,An2 ,v036
 .byte   W01
 .byte   W02
 .byte   N02
 .byte   W01
 .byte   W02
 .byte   N02
 .byte   W01
 .byte   W02
 .byte   N02
 .byte   W01
 .byte   PEND 
Label_01133ACB:
 .byte   W02
 .byte   N02 ,An2 ,v036
 .byte   W01
 .byte   W02
 .byte   N02
 .byte   W01
 .byte   W02
 .byte   N02
 .byte   W01
 .byte   W02
 .byte   N02
 .byte   W01
 .byte   N11 ,Dn1 ,v064
 .byte   W01
 .byte   W01
 .byte   N02 ,An2 ,v036
 .byte   W02
 .byte   W01
 .byte   N02
 .byte   W02
 .byte   W01
 .byte   N02
 .byte   W02
 .byte   W01
 .byte   N02
 .byte   W01
 .byte   N05 ,Dn1 ,v064
 .byte   W01
 .byte   W01
 .byte   N02 ,An2 ,v036
 .byte   W02
 .byte   W01
 .byte   N02
 .byte   W01
 .byte   N05 ,Dn1 ,v064
 .byte   W01
 .byte   W01
 .byte   N02 ,An2 ,v036
 .byte   W02
 .byte   W01
 .byte   N02
 .byte   W01
 .byte   N05 ,Dn1 ,v064
 .byte   W01
 .byte   W01
 .byte   N02 ,An2 ,v036
 .byte   W02
 .byte   W01
 .byte   N02
 .byte   W01
 .byte   N05 ,Dn1 ,v064
 .byte   W01
 .byte   W01
 .byte   N02 ,An2 ,v036
 .byte   W02
 .byte   W02
 .byte   PEND 
@  #09 @126   ----------------------------------------
 .byte   PATT
  .word Label_01133A2E
@  #09 @127   ----------------------------------------
 .byte   PATT
  .word Label_01133A38
@  #09 @128   ----------------------------------------
 .byte   PATT
  .word Label_01133A40
@  #09 @129   ----------------------------------------
 .byte   PATT
  .word Label_01133A38
@  #09 @130   ----------------------------------------
 .byte   PATT
  .word Label_01133A2E
@  #09 @131   ----------------------------------------
 .byte   PATT
  .word Label_01133A38
@  #09 @132   ----------------------------------------
 .byte   PATT
  .word Label_01133A56
@  #09 @133   ----------------------------------------
 .byte   PATT
  .word Label_01133A5D
@  #09 @134   ----------------------------------------
 .byte   PATT
  .word Label_01133A2E
@  #09 @135   ----------------------------------------
 .byte   PATT
  .word Label_01133A38
@  #09 @136   ----------------------------------------
 .byte   PATT
  .word Label_01133A40
@  #09 @137   ----------------------------------------
 .byte   PATT
  .word Label_01133A38
@  #09 @138   ----------------------------------------
 .byte   PATT
  .word Label_01133A2E
@  #09 @139   ----------------------------------------
 .byte   PATT
  .word Label_01133A38
@  #09 @140   ----------------------------------------
 .byte   PATT
  .word Label_01133A89
@  #09 @141   ----------------------------------------
 .byte   PATT
  .word Label_01133ACB
@  #09 @142   ----------------------------------------
Label_01133B6A:
 .byte   N23 ,Bn0 ,v052
 .byte   W24
 .byte   N23
 .byte   W24
 .byte   PEND 
@  #09 @143   ----------------------------------------
 .byte   PATT
  .word Label_01133B6A
@  #09 @144   ----------------------------------------
 .byte   PATT
  .word Label_01133B6A
@  #09 @145   ----------------------------------------
 .byte   PATT
  .word Label_01133B6A
@  #09 @146   ----------------------------------------
 .byte   PATT
  .word Label_01133B6A
@  #09 @147   ----------------------------------------
 .byte   PATT
  .word Label_01133B6A
@  #09 @148   ----------------------------------------
 .byte   PATT
  .word Label_01133B6A
@  #09 @149   ----------------------------------------
 .byte   PATT
  .word Label_01133B6A
@  #09 @150   ----------------------------------------
 .byte   PATT
  .word Label_01133B6A
@  #09 @151   ----------------------------------------
 .byte   PATT
  .word Label_01133B6A
@  #09 @152   ----------------------------------------
 .byte   PATT
  .word Label_01133B6A
@  #09 @153   ----------------------------------------
 .byte   PATT
  .word Label_01133B6A
@  #09 @154   ----------------------------------------
 .byte   PATT
  .word Label_01133B6A
@  #09 @155   ----------------------------------------
 .byte   PATT
  .word Label_01133B6A
@  #09 @156   ----------------------------------------
Label_01133BB2:
 .byte   N23 ,Bn0 ,v052
 .byte   N02 ,An2 ,v036
 .byte   W02
 .byte   N02
 .byte   W03
 .byte   N02
 .byte   W01
 .byte   W02
 .byte   N02
 .byte   W01
 .byte   W02
 .byte   N02
 .byte   W01
 .byte   W02
 .byte   N02
 .byte   W01
 .byte   W02
 .byte   N02
 .byte   W01
 .byte   W02
 .byte   N02
 .byte   W01
 .byte   W02
 .byte   N02
 .byte   W01
 .byte   N23 ,Bn0 ,v052
 .byte   W02
 .byte   N02 ,An2 ,v036
 .byte   W01
 .byte   W02
 .byte   N02
 .byte   W01
 .byte   W02
 .byte   N02
 .byte   W01
 .byte   W02
 .byte   N02
 .byte   W01
 .byte   W02
 .byte   N02
 .byte   W01
 .byte   W02
 .byte   N02
 .byte   W01
 .byte   W02
 .byte   N02
 .byte   W01
 .byte   W02
 .byte   N02
 .byte   W01
 .byte   PEND 
Label_01133BED:
 .byte   N23 ,Bn0 ,v052
 .byte   W02
 .byte   N02 ,An2 ,v036
 .byte   W01
 .byte   W02
 .byte   N02
 .byte   W01
 .byte   W02
 .byte   N02
 .byte   W01
 .byte   W02
 .byte   N02
 .byte   W02
 .byte   W01
 .byte   N02
 .byte   W02
 .byte   W01
 .byte   N02
 .byte   W02
 .byte   W01
 .byte   N02
 .byte   W02
 .byte   W01
 .byte   N02
 .byte   W01
 .byte   N23 ,Bn0 ,v052
 .byte   W01
 .byte   W01
 .byte   N02 ,An2 ,v036
 .byte   W02
 .byte   W01
 .byte   N02
 .byte   W02
 .byte   W01
 .byte   N02
 .byte   W02
 .byte   W01
 .byte   N02
 .byte   W02
 .byte   W01
 .byte   N02
 .byte   W02
 .byte   W01
 .byte   N02
 .byte   W02
 .byte   W01
 .byte   N02
 .byte   W02
 .byte   W02
 .byte   PEND 
@  #09 @157   ----------------------------------------
Label_01133C27:
 .byte   N32 ,Bn0 ,v064
 .byte   N11 ,Fs1 ,v080
 .byte   W12
 .byte   Gs1
 .byte   W12
 .byte   N32 ,Cs1 ,v064
 .byte   N11 ,Fs1 ,v080
 .byte   W12
 .byte   N32 ,Bn0 ,v064
 .byte   N11 ,Gs1 ,v080
 .byte   W12
 .byte   PEND 
Label_01133C3F:
 .byte   N11 ,Fs1 ,v080
 .byte   W12
 .byte   N32 ,Cs1 ,v064
 .byte   N11 ,Gs1 ,v080
 .byte   W12
 .byte   N23 ,Bn0 ,v064
 .byte   N11 ,Fs1 ,v080
 .byte   W12
 .byte   Gs1
 .byte   W12
 .byte   PEND 
@  #09 @158   ----------------------------------------
Label_01133C54:
 .byte   N32 ,Cs1 ,v064
 .byte   N11 ,Fs1 ,v080
 .byte   W12
 .byte   N23 ,Bn0 ,v064
 .byte   N11 ,Gs1 ,v080
 .byte   W12
 .byte   Fs1
 .byte   W12
 .byte   N32 ,Cs1 ,v064
 .byte   N11 ,Gs1 ,v080
 .byte   W12
 .byte   PEND 
Label_01133C6C:
 .byte   N05 ,Bn0 ,v064
 .byte   N11 ,Fs1 ,v080
 .byte   W06
 .byte   N05 ,Bn0 ,v064
 .byte   W06
 .byte   N11
 .byte   N11 ,Gs1 ,v080
 .byte   W12
 .byte   N23 ,Cs1 ,v064
 .byte   N11 ,Fs1 ,v080
 .byte   W12
 .byte   Gs1
 .byte   W12
 .byte   PEND 
@  #09 @159   ----------------------------------------
Label_01133C86:
 .byte   N32 ,Bn0 ,v064
 .byte   N11 ,Fs1 ,v080
 .byte   W12
 .byte   Gs1
 .byte   W12
 .byte   N23 ,Cs1 ,v064
 .byte   N11 ,Fs1 ,v080
 .byte   W12
 .byte   N23 ,Bn0 ,v064
 .byte   N11 ,Gs1 ,v080
 .byte   W12
 .byte   PEND 
Label_01133C9E:
 .byte   N11 ,Fs1 ,v080
 .byte   W12
 .byte   N23 ,Bn0 ,v064
 .byte   N11 ,Gs1 ,v080
 .byte   W12
 .byte   N23 ,Cs1 ,v064
 .byte   N11 ,Fs1 ,v080
 .byte   W12
 .byte   Gs1
 .byte   W12
 .byte   PEND 
@  #09 @160   ----------------------------------------
Label_01133CB3:
 .byte   N23 ,Bn0 ,v064
 .byte   N11 ,Fs1 ,v080
 .byte   W12
 .byte   Gs1
 .byte   W12
 .byte   N23 ,Cs1 ,v064
 .byte   N11 ,Fs1 ,v080
 .byte   W12
 .byte   N05 ,Bn0 ,v064
 .byte   N11 ,Gs1 ,v080
 .byte   W06
 .byte   N05 ,Bn0 ,v064
 .byte   W06
 .byte   PEND 
Label_01133CCF:
 .byte   N23 ,Bn0 ,v064
 .byte   N11 ,Fs1 ,v080
 .byte   W12
 .byte   Gs1
 .byte   W12
 .byte   N23 ,Bn0 ,v064
 .byte   N05 ,Cs1
 .byte   N05 ,Fs1 ,v080
 .byte   W06
 .byte   N05
 .byte   W06
 .byte   N11 ,Cs1 ,v064
 .byte   N11 ,Gs1 ,v080
 .byte   W12
 .byte   PEND 
@  #09 @161   ----------------------------------------
Label_01133CEB:
 .byte   N32 ,Bn0 ,v064
 .byte   N11 ,Fs1 ,v080
 .byte   W12
 .byte   Gs1
 .byte   W12
 .byte   N32 ,Cs1 ,v064
 .byte   N11 ,Fs1 ,v080
 .byte   W12
 .byte   N23 ,Bn0 ,v064
 .byte   N11 ,Gs1 ,v080
 .byte   W12
 .byte   PEND 
Label_01133D03:
 .byte   N11 ,Fs1 ,v080
 .byte   W12
 .byte   N23 ,Bn0 ,v064
 .byte   N32 ,Cs1
 .byte   N11 ,Gs1 ,v080
 .byte   W12
 .byte   Fs1
 .byte   W12
 .byte   Gs1
 .byte   W12
 .byte   PEND 
@  #09 @162   ----------------------------------------
 .byte   PATT
  .word Label_01133C54
@  #09 @163   ----------------------------------------
 .byte   PATT
  .word Label_01133C6C
@  #09 @164   ----------------------------------------
 .byte   PATT
  .word Label_01133C86
@  #09 @165   ----------------------------------------
 .byte   PATT
  .word Label_01133C9E
@  #09 @166   ----------------------------------------
Label_01133D29:
 .byte   N23 ,Bn0 ,v064
 .byte   N11 ,Fs1 ,v080
 .byte   N02 ,An2 ,v036
 .byte   W02
 .byte   N02
 .byte   W02
 .byte   W01
 .byte   N02
 .byte   W01
 .byte   W02
 .byte   N02
 .byte   W02
 .byte   W01
 .byte   N02
 .byte   W01
 .byte   N11 ,Gs1 ,v080
 .byte   W02
 .byte   N02 ,An2 ,v036
 .byte   W02
 .byte   W01
 .byte   N02
 .byte   W01
 .byte   W02
 .byte   N02
 .byte   W02
 .byte   W01
 .byte   N02
 .byte   W01
 .byte   N23 ,Cs1 ,v064
 .byte   N11 ,As1 ,v080
 .byte   W02
 .byte   N02 ,An2 ,v036
 .byte   W02
 .byte   W01
 .byte   N02
 .byte   W01
 .byte   W02
 .byte   N02
 .byte   W02
 .byte   W01
 .byte   N02
 .byte   W01
 .byte   N05 ,Bn0 ,v064
 .byte   N11 ,Fs1 ,v080
 .byte   W02
 .byte   N02 ,An2 ,v036
 .byte   W02
 .byte   W01
 .byte   N02
 .byte   W01
 .byte   N05 ,Bn0 ,v064
 .byte   W02
 .byte   N02 ,An2 ,v036
 .byte   W02
 .byte   W01
 .byte   N02
 .byte   W01
 .byte   PEND 
Label_01133D7D:
 .byte   N23 ,Bn0 ,v064
 .byte   N05 ,Fs1 ,v080
 .byte   W02
 .byte   N02 ,An2 ,v036
 .byte   W01
 .byte   W01
 .byte   W01
 .byte   N02
 .byte   W01
 .byte   N05 ,Fs1 ,v084
 .byte   W02
 .byte   N02 ,An2 ,v036
 .byte   W01
 .byte   W01
 .byte   W01
 .byte   N02
 .byte   W01
 .byte   N11 ,Cs1 ,v064
 .byte   N05 ,Fs1 ,v084
 .byte   W02
 .byte   N02 ,An2 ,v036
 .byte   W01
 .byte   W01
 .byte   W01
 .byte   N02
 .byte   W01
 .byte   N05 ,Fs1 ,v088
 .byte   W02
 .byte   N02 ,An2 ,v036
 .byte   W01
 .byte   W01
 .byte   W01
 .byte   N02
 .byte   W01
 .byte   N23 ,Bn0 ,v064
 .byte   N23 ,Cs1
 .byte   N05 ,Fs1 ,v088
 .byte   W02
 .byte   N02 ,An2 ,v036
 .byte   W01
 .byte   W01
 .byte   W01
 .byte   N02
 .byte   W01
 .byte   N05 ,Fs1 ,v092
 .byte   W02
 .byte   N02 ,An2 ,v036
 .byte   W01
 .byte   W01
 .byte   W01
 .byte   N02
 .byte   W01
 .byte   N05 ,Fs1 ,v092
 .byte   W02
 .byte   N02 ,An2 ,v036
 .byte   W01
 .byte   W01
 .byte   W01
 .byte   N02
 .byte   W01
 .byte   N05 ,Fs1 ,v096
 .byte   W02
 .byte   N02 ,An2 ,v036
 .byte   W01
 .byte   W01
 .byte   W02
 .byte   PEND 
@  #09 @167   ----------------------------------------
Label_01133DE7:
 .byte   N32 ,Bn0 ,v080
 .byte   N32 ,Dn1 ,v064
 .byte   N32 ,An2 ,v080
 .byte   W36
 .byte   Bn0
 .byte   N32 ,Dn1 ,v064
 .byte   N32 ,An2 ,v080
 .byte   W12
 .byte   PEND 
Label_01133DFA:
 .byte   W24
 .byte   N23 ,Bn0 ,v080
 .byte   N23 ,Dn1 ,v064
 .byte   N23 ,An2 ,v080
 .byte   W24
 .byte   PEND 
@  #09 @168   ----------------------------------------
Label_01133E06:
 .byte   N32 ,Dn1 ,v064
 .byte   W36
 .byte   N32
 .byte   W12
 .byte   PEND 
 .byte   N44 ,Bn0 ,v080
 .byte   N44 ,An2
 .byte   W48
@  #09 @169   ----------------------------------------
Label_01133E13:
 .byte   N92 ,Bn0 ,v080
 .byte   N32 ,Dn1 ,v064
 .byte   N92 ,An2 ,v080
 .byte   W36
 .byte   N32 ,Dn1 ,v064
 .byte   W12
 .byte   PEND 
 .byte   W24
 .byte   N23
 .byte   W24
@  #09 @170   ----------------------------------------
 .byte   PATT
  .word Label_01133E13
@  #09 @171   ----------------------------------------
 .byte   W48
@  #09 @172   ----------------------------------------
 .byte   PATT
  .word Label_01133DE7
@  #09 @173   ----------------------------------------
 .byte   PATT
  .word Label_01133DFA
@  #09 @174   ----------------------------------------
 .byte   PATT
  .word Label_01133E06
@  #09 @175   ----------------------------------------
 .byte   N44 ,Bn0 ,v080
 .byte   N44 ,An2
 .byte   W48
@  #09 @176   ----------------------------------------
 .byte   PATT
  .word Label_01133E13
@  #09 @177   ----------------------------------------
 .byte   W24
 .byte   N23 ,Dn1 ,v064
 .byte   W24
@  #09 @178   ----------------------------------------
 .byte   PATT
  .word Label_01133E13
@  #09 @179   ----------------------------------------
 .byte   W48
Label_01133E50:
 .byte   N32 ,Bn0 ,v080
 .byte   N32 ,Dn1 ,v064
 .byte   N11 ,Fs1 ,v096
 .byte   N32 ,An2 ,v064
 .byte   W12
 .byte   N11 ,Fs1 ,v096
 .byte   W12
 .byte   N11
 .byte   W12
 .byte   N32 ,Bn0 ,v080
 .byte   N32 ,Dn1 ,v064
 .byte   N02 ,Fs1 ,v096
 .byte   N32 ,An2 ,v064
 .byte   W03
 .byte   N02 ,Fs1 ,v096
 .byte   W03
 .byte   N02
 .byte   W03
 .byte   N02
 .byte   W03
 .byte   PEND 
@  #09 @180   ----------------------------------------
Label_01133E79:
 .byte   N11 ,Fs1 ,v096
 .byte   W12
 .byte   N11
 .byte   W12
 .byte   N23 ,Bn0 ,v080
 .byte   N23 ,Dn1 ,v064
 .byte   N11 ,Fs1 ,v096
 .byte   N23 ,An2 ,v064
 .byte   W12
 .byte   N11 ,Fs1 ,v096
 .byte   W12
 .byte   PEND 
Label_01133E91:
 .byte   N32 ,Dn1 ,v064
 .byte   N11 ,Fs1 ,v096
 .byte   W12
 .byte   N11
 .byte   W12
 .byte   N11
 .byte   W12
 .byte   N32 ,Dn1 ,v064
 .byte   N11 ,Fs1 ,v096
 .byte   W12
 .byte   PEND 
@  #09 @181   ----------------------------------------
Label_01133EA4:
 .byte   N44 ,Bn0 ,v080
 .byte   N11 ,Fs1 ,v096
 .byte   N44 ,An2 ,v064
 .byte   W12
 .byte   N11 ,Fs1 ,v096
 .byte   W12
 .byte   N11
 .byte   W12
 .byte   N02
 .byte   W03
 .byte   N02
 .byte   W03
 .byte   N02
 .byte   W03
 .byte   N02
 .byte   W03
 .byte   PEND 
Label_01133EBD:
 .byte   N92 ,Bn0 ,v080
 .byte   N32 ,Dn1 ,v064
 .byte   N11 ,Fs1 ,v096
 .byte   N92 ,An2 ,v064
 .byte   W12
 .byte   N11 ,Fs1 ,v096
 .byte   W12
 .byte   N11
 .byte   W12
 .byte   N32 ,Dn1 ,v064
 .byte   N11 ,Fs1 ,v096
 .byte   W12
 .byte   PEND 
@  #09 @182   ----------------------------------------
Label_01133ED8:
 .byte   N11 ,Fs1 ,v096
 .byte   W12
 .byte   N11
 .byte   W12
 .byte   N23 ,Dn1 ,v064
 .byte   N11 ,Fs1 ,v096
 .byte   W12
 .byte   N11
 .byte   W12
 .byte   PEND 
@  #09 @183   ----------------------------------------
 .byte   PATT
  .word Label_01133EBD
@  #09 @184   ----------------------------------------
Label_01133EED:
 .byte   N11 ,Fs1 ,v096
 .byte   W12
 .byte   N11
 .byte   W12
 .byte   N11
 .byte   W12
 .byte   N11
 .byte   W12
 .byte   PEND 
Label_01133EF8:
 .byte   N32 ,Bn0 ,v080
 .byte   N32 ,Dn1 ,v064
 .byte   N11 ,Fs1 ,v096
 .byte   N32 ,An2 ,v064
 .byte   W12
 .byte   N11 ,Fs1 ,v096
 .byte   W12
 .byte   N11
 .byte   W12
 .byte   N32 ,Bn0 ,v080
 .byte   N32 ,Dn1 ,v064
 .byte   N11 ,Fs1 ,v096
 .byte   N32 ,An2 ,v064
 .byte   W12
 .byte   PEND 
@  #09 @185   ----------------------------------------
 .byte   PATT
  .word Label_01133E79
@  #09 @186   ----------------------------------------
 .byte   PATT
  .word Label_01133E91
@  #09 @187   ----------------------------------------
Label_01133F23:
 .byte   N44 ,Bn0 ,v080
 .byte   N11 ,Fs1 ,v096
 .byte   W12
 .byte   N11
 .byte   W12
 .byte   N11
 .byte   W12
 .byte   N11
 .byte   W12
 .byte   PEND 
Label_01133F31:
 .byte   N92 ,Bn0 ,v080
 .byte   N11 ,Dn1 ,v064
 .byte   N11 ,Fs1 ,v096
 .byte   N92 ,An2 ,v064
 .byte   W12
 .byte   N11 ,Dn1
 .byte   N11 ,Fs1 ,v096
 .byte   W12
 .byte   Dn1 ,v064
 .byte   N11 ,Fs1 ,v096
 .byte   W12
 .byte   Dn1 ,v064
 .byte   N11 ,Fs1 ,v096
 .byte   W12
 .byte   PEND 
@  #09 @188   ----------------------------------------
Label_01133F51:
 .byte   N05 ,Dn1 ,v064
 .byte   N11 ,Fs1 ,v096
 .byte   W06
 .byte   N05 ,Dn1 ,v064
 .byte   W06
 .byte   N05
 .byte   N11 ,Fs1 ,v096
 .byte   W06
 .byte   N05 ,Dn1 ,v064
 .byte   W06
 .byte   N05
 .byte   N11 ,Fs1 ,v096
 .byte   W06
 .byte   N05 ,Dn1 ,v064
 .byte   W06
 .byte   N05
 .byte   N11 ,Fs1 ,v096
 .byte   W06
 .byte   N05 ,Dn1 ,v064
 .byte   W06
 .byte   PEND 
 .byte   W48
@  #09 @189   ----------------------------------------
 .byte   W48
Label_01133F7A:
 .byte   N32 ,Bn0 ,v080
 .byte   N32 ,Dn1 ,v064
 .byte   N11 ,Fs1
 .byte   N92 ,An2
 .byte   W12
 .byte   N02 ,Fs1
 .byte   W03
 .byte   N02
 .byte   W03
 .byte   N02
 .byte   W03
 .byte   N02
 .byte   W03
 .byte   N02
 .byte   W03
 .byte   N02
 .byte   W03
 .byte   N02
 .byte   W03
 .byte   N02
 .byte   W03
 .byte   N56 ,Bn0 ,v080
 .byte   N32 ,Dn1 ,v064
 .byte   N02 ,Fs1
 .byte   W03
 .byte   N02
 .byte   W03
 .byte   N02
 .byte   W03
 .byte   N02
 .byte   W03
 .byte   PEND 
@  #09 @190   ----------------------------------------
Label_01133FA6:
 .byte   N11 ,Fs1 ,v064
 .byte   W12
 .byte   N02
 .byte   W03
 .byte   N02
 .byte   W03
 .byte   N02
 .byte   W03
 .byte   N02
 .byte   W03
 .byte   N23 ,Dn1
 .byte   N02 ,Fs1
 .byte   W03
 .byte   N02
 .byte   W03
 .byte   N02
 .byte   W03
 .byte   N02
 .byte   W03
 .byte   N02
 .byte   W03
 .byte   N02
 .byte   W03
 .byte   N02
 .byte   W03
 .byte   N02
 .byte   W03
 .byte   PEND 
Label_01133FC6:
 .byte   N32 ,Bn0 ,v080
 .byte   N32 ,Dn1 ,v064
 .byte   N11 ,Fs1
 .byte   W12
 .byte   N02
 .byte   W03
 .byte   N02
 .byte   W03
 .byte   N02
 .byte   W03
 .byte   N02
 .byte   W03
 .byte   N02
 .byte   W03
 .byte   N02
 .byte   W03
 .byte   N02
 .byte   W03
 .byte   N02
 .byte   W03
 .byte   N56 ,Bn0 ,v080
 .byte   N32 ,Dn1 ,v064
 .byte   N02 ,Fs1
 .byte   W03
 .byte   N02
 .byte   W03
 .byte   N02
 .byte   W03
 .byte   N02
 .byte   W03
 .byte   PEND 
@  #09 @191   ----------------------------------------
Label_01133FEF:
 .byte   N11 ,Fs1 ,v064
 .byte   W12
 .byte   N02
 .byte   W03
 .byte   N02
 .byte   W03
 .byte   N02
 .byte   W03
 .byte   N02
 .byte   W03
 .byte   N02
 .byte   W03
 .byte   N02
 .byte   W03
 .byte   N02
 .byte   W03
 .byte   N02
 .byte   W03
 .byte   N02
 .byte   W03
 .byte   N02
 .byte   W03
 .byte   N02
 .byte   W03
 .byte   N02
 .byte   W03
 .byte   PEND 
@  #09 @192   ----------------------------------------
 .byte   PATT
  .word Label_01133FC6
@  #09 @193   ----------------------------------------
 .byte   PATT
  .word Label_01133FA6
@  #09 @194   ----------------------------------------
 .byte   PATT
  .word Label_01133FC6
@  #09 @195   ----------------------------------------
 .byte   PATT
  .word Label_01133FEF
@  #09 @196   ----------------------------------------
 .byte   PATT
  .word Label_01133F7A
@  #09 @197   ----------------------------------------
 .byte   PATT
  .word Label_01133FA6
@  #09 @198   ----------------------------------------
 .byte   PATT
  .word Label_01133FC6
@  #09 @199   ----------------------------------------
 .byte   PATT
  .word Label_01133FEF
@  #09 @200   ----------------------------------------
 .byte   PATT
  .word Label_01133FC6
@  #09 @201   ----------------------------------------
 .byte   PATT
  .word Label_01133FA6
@  #09 @202   ----------------------------------------
 .byte   PATT
  .word Label_01133FC6
@  #09 @203   ----------------------------------------
 .byte   PATT
  .word Label_01133FEF
@  #09 @204   ----------------------------------------
 .byte   PATT
  .word Label_01133F7A
@  #09 @205   ----------------------------------------
 .byte   PATT
  .word Label_01133FA6
@  #09 @206   ----------------------------------------
 .byte   PATT
  .word Label_01133FC6
@  #09 @207   ----------------------------------------
 .byte   PATT
  .word Label_01133FEF
@  #09 @208   ----------------------------------------
 .byte   PATT
  .word Label_01133FC6
@  #09 @209   ----------------------------------------
 .byte   PATT
  .word Label_01133FA6
@  #09 @210   ----------------------------------------
 .byte   PATT
  .word Label_01133FC6
@  #09 @211   ----------------------------------------
 .byte   PATT
  .word Label_01133FEF
@  #09 @212   ----------------------------------------
 .byte   PATT
  .word Label_01133FC6
@  #09 @213   ----------------------------------------
 .byte   PATT
  .word Label_01133FA6
@  #09 @214   ----------------------------------------
 .byte   PATT
  .word Label_01133FC6
@  #09 @215   ----------------------------------------
 .byte   PATT
  .word Label_01133FEF
@  #09 @216   ----------------------------------------
 .byte   PATT
  .word Label_01133F7A
@  #09 @217   ----------------------------------------
 .byte   PATT
  .word Label_01133FA6
@  #09 @218   ----------------------------------------
Label_0113408E:
 .byte   N32 ,Bn0 ,v080
 .byte   N32 ,Dn1 ,v064
 .byte   N11 ,Fs1
 .byte   N02 ,An2 ,v036
 .byte   W02
 .byte   N02
 .byte   W03
 .byte   N02
 .byte   W01
 .byte   W02
 .byte   N02
 .byte   W01
 .byte   W02
 .byte   N02
 .byte   W01
 .byte   Fs1 ,v064
 .byte   W02
 .byte   An2 ,v036
 .byte   W01
 .byte   Fs1 ,v064
 .byte   W02
 .byte   An2 ,v036
 .byte   W01
 .byte   Fs1 ,v064
 .byte   W02
 .byte   An2 ,v036
 .byte   W01
 .byte   Fs1 ,v064
 .byte   W02
 .byte   An2 ,v036
 .byte   W01
 .byte   Fs1 ,v064
 .byte   W02
 .byte   An2 ,v036
 .byte   W01
 .byte   Fs1 ,v064
 .byte   W02
 .byte   An2 ,v036
 .byte   W01
 .byte   Fs1 ,v064
 .byte   W02
 .byte   An2 ,v036
 .byte   W01
 .byte   Fs1 ,v064
 .byte   W02
 .byte   An2 ,v036
 .byte   W01
 .byte   N56 ,Bn0 ,v080
 .byte   N32 ,Dn1 ,v064
 .byte   N02 ,Fs1
 .byte   W02
 .byte   An2 ,v036
 .byte   W01
 .byte   Fs1 ,v064
 .byte   W02
 .byte   An2 ,v036
 .byte   W01
 .byte   Fs1 ,v064
 .byte   W02
 .byte   An2 ,v036
 .byte   W01
 .byte   Fs1 ,v064
 .byte   W02
 .byte   An2 ,v036
 .byte   W01
 .byte   PEND 
Label_011340F3:
 .byte   N11 ,Fs1 ,v064
 .byte   W02
 .byte   N02 ,An2 ,v036
 .byte   W01
 .byte   W02
 .byte   N02
 .byte   W01
 .byte   W02
 .byte   N02
 .byte   W01
 .byte   W02
 .byte   N02
 .byte   W01
 .byte   Fs1 ,v064
 .byte   W01
 .byte   W01
 .byte   An2 ,v036
 .byte   W01
 .byte   Fs1 ,v064
 .byte   W01
 .byte   W01
 .byte   An2 ,v036
 .byte   W01
 .byte   Fs1 ,v064
 .byte   W01
 .byte   W01
 .byte   An2 ,v036
 .byte   W01
 .byte   Fs1 ,v064
 .byte   W01
 .byte   W01
 .byte   An2 ,v036
 .byte   W01
 .byte   Fs1 ,v064
 .byte   W01
 .byte   W01
 .byte   An2 ,v036
 .byte   W01
 .byte   Fs1 ,v064
 .byte   W01
 .byte   W01
 .byte   An2 ,v036
 .byte   W01
 .byte   Fs1 ,v064
 .byte   W01
 .byte   W01
 .byte   An2 ,v036
 .byte   W01
 .byte   Fs1 ,v064
 .byte   W01
 .byte   W01
 .byte   An2 ,v036
 .byte   W01
 .byte   Fs1 ,v064
 .byte   W01
 .byte   W01
 .byte   An2 ,v036
 .byte   W01
 .byte   Fs1 ,v064
 .byte   W01
 .byte   W01
 .byte   An2 ,v036
 .byte   W01
 .byte   Fs1 ,v064
 .byte   W01
 .byte   W01
 .byte   An2 ,v036
 .byte   W01
 .byte   Fs1 ,v064
 .byte   W01
 .byte   W02
 .byte   PEND 
@  #09 @219   ----------------------------------------
 .byte   PATT
  .word Label_01133E06
@  #09 @220   ----------------------------------------
 .byte   W24
 .byte   N23 ,Dn1 ,v064
 .byte   W24
@  #09 @221   ----------------------------------------
 .byte   PATT
  .word Label_01133E06
@  #09 @222   ----------------------------------------
 .byte   PATT
  .word Label_01133A38
@  #09 @223   ----------------------------------------
 .byte   PATT
  .word Label_01133E06
@  #09 @224   ----------------------------------------
 .byte   W24
 .byte   N23 ,Dn1 ,v064
 .byte   W24
@  #09 @225   ----------------------------------------
 .byte   PATT
  .word Label_01133E06
@  #09 @226   ----------------------------------------
 .byte   W36
 .byte   N11 ,Dn1 ,v064
 .byte   W12
@  #09 @227   ----------------------------------------
 .byte   PATT
  .word Label_01133E06
@  #09 @228   ----------------------------------------
 .byte   W24
 .byte   N23 ,Dn1 ,v064
 .byte   W24
@  #09 @229   ----------------------------------------
 .byte   PATT
  .word Label_01133E06
@  #09 @230   ----------------------------------------
 .byte   W48
@  #09 @231   ----------------------------------------
 .byte   PATT
  .word Label_01133E06
@  #09 @232   ----------------------------------------
 .byte   W24
 .byte   N23 ,Dn1 ,v064
 .byte   W24
@  #09 @233   ----------------------------------------
 .byte   PATT
  .word Label_01133E06
@  #09 @234   ----------------------------------------
 .byte   W48
Label_0113419E:
 .byte   N64 ,Bn0 ,v096
 .byte   N32 ,Dn1 ,v064
 .byte   W36
 .byte   N32
 .byte   W12
 .byte   PEND 
@  #09 @235   ----------------------------------------
 .byte   W24
 .byte   N23
 .byte   W24
@  #09 @236   ----------------------------------------
 .byte   PATT
  .word Label_01133E06
@  #09 @237   ----------------------------------------
 .byte   W48
Label_011341B1:
 .byte   N92 ,Bn0 ,v080
 .byte   N32 ,Dn1 ,v064
 .byte   W36
 .byte   N32
 .byte   W12
 .byte   PEND 
@  #09 @238   ----------------------------------------
 .byte   W24
 .byte   N23
 .byte   W24
@  #09 @239   ----------------------------------------
 .byte   PATT
  .word Label_01133E06
@  #09 @240   ----------------------------------------
 .byte   W48
@  #09 @241   ----------------------------------------
 .byte   PATT
  .word Label_011341B1
@  #09 @242   ----------------------------------------
 .byte   W24
 .byte   N23 ,Dn1 ,v064
 .byte   W24
@  #09 @243   ----------------------------------------
 .byte   PATT
  .word Label_01133E06
@  #09 @244   ----------------------------------------
 .byte   W48
@  #09 @245   ----------------------------------------
 .byte   PATT
  .word Label_011341B1
@  #09 @246   ----------------------------------------
 .byte   W24
 .byte   N23 ,Dn1 ,v064
 .byte   W24
@  #09 @247   ----------------------------------------
 .byte   PATT
  .word Label_01133E06
@  #09 @248   ----------------------------------------
 .byte   W48
@  #09 @249   ----------------------------------------
 .byte   PATT
  .word Label_011341B1
@  #09 @250   ----------------------------------------
 .byte   W24
 .byte   N23 ,Dn1 ,v064
 .byte   W24
Label_011341EE:
 .byte   N92 ,Bn0 ,v080
 .byte   N32 ,Dn1 ,v064
 .byte   W48
 .byte   PEND 
@  #09 @251   ----------------------------------------
Label_011341F6:
 .byte   N02 ,Fs1 ,v064
 .byte   W03
 .byte   N02
 .byte   W03
 .byte   N02
 .byte   W03
 .byte   N02
 .byte   W15
 .byte   N02
 .byte   N02 ,An2 ,v052
 .byte   W03
 .byte   Fs1 ,v064
 .byte   N02 ,An2 ,v052
 .byte   W03
 .byte   Fs1 ,v064
 .byte   N02 ,An2 ,v052
 .byte   W03
 .byte   Fs1 ,v064
 .byte   N02 ,An2 ,v052
 .byte   W03
 .byte   N02
 .byte   W03
 .byte   N02
 .byte   W03
 .byte   N02
 .byte   W03
 .byte   N02
 .byte   W03
 .byte   PEND 
 .byte   W48
@  #09 @252   ----------------------------------------
 .byte   W48
 .byte   W48
@  #09 @253   ----------------------------------------
 .byte   W48
 .byte   W48
@  #09 @254   ----------------------------------------
 .byte   W48
 .byte   W48
@  #09 @255   ----------------------------------------
 .byte   W48
 .byte   W48
@  #09 @256   ----------------------------------------
 .byte   W48
 .byte   W48
@  #09 @257   ----------------------------------------
 .byte   W48
 .byte   W48
@  #09 @258   ----------------------------------------
 .byte   W48
 .byte   W48
@  #09 @259   ----------------------------------------
 .byte   W48
Label_01134230:
 .byte   N23 ,Bn0 ,v080
 .byte   W12
 .byte   N05 ,Fs1 ,v064
 .byte   W06
 .byte   N05
 .byte   W06
 .byte   N23 ,Bn0 ,v080
 .byte   N05 ,Fs1 ,v064
 .byte   W06
 .byte   N05
 .byte   W06
 .byte   N05
 .byte   W06
 .byte   N05
 .byte   W06
 .byte   PEND 
@  #09 @260   ----------------------------------------
Label_01134248:
 .byte   N23 ,Bn0 ,v080
 .byte   W24
 .byte   N23
 .byte   W12
 .byte   N02 ,Fs1 ,v064
 .byte   W03
 .byte   N02
 .byte   W03
 .byte   N02
 .byte   W03
 .byte   N02
 .byte   W03
 .byte   PEND 
Label_01134259:
 .byte   N23 ,Bn0 ,v080
 .byte   W12
 .byte   N05 ,Fs1 ,v064
 .byte   W06
 .byte   N05
 .byte   W06
 .byte   N23 ,Bn0 ,v080
 .byte   N05 ,Fs1 ,v064
 .byte   W06
 .byte   N05
 .byte   W06
 .byte   N02
 .byte   W03
 .byte   N02
 .byte   W03
 .byte   N02
 .byte   W03
 .byte   N02
 .byte   W03
 .byte   PEND 
@  #09 @261   ----------------------------------------
Label_01134275:
 .byte   N23 ,Bn0 ,v080
 .byte   N02 ,Fs1 ,v064
 .byte   W24
 .byte   N23 ,Bn0 ,v080
 .byte   W12
 .byte   N05 ,Fs1 ,v064
 .byte   W06
 .byte   N05
 .byte   W06
 .byte   PEND 
Label_01134287:
 .byte   N23 ,Bn0 ,v080
 .byte   N11 ,Fs1 ,v064
 .byte   W12
 .byte   N11
 .byte   W12
 .byte   N23 ,Bn0 ,v080
 .byte   N11 ,Fs1 ,v064
 .byte   W12
 .byte   N11
 .byte   W12
 .byte   PEND 
@  #09 @262   ----------------------------------------
 .byte   PATT
  .word Label_01134287
@  #09 @263   ----------------------------------------
 .byte   PATT
  .word Label_01134287
@  #09 @264   ----------------------------------------
 .byte   PATT
  .word Label_01134287
@  #09 @265   ----------------------------------------
 .byte   PATT
  .word Label_01134287
@  #09 @266   ----------------------------------------
 .byte   PATT
  .word Label_01134287
@  #09 @267   ----------------------------------------
 .byte   PATT
  .word Label_01134287
@  #09 @268   ----------------------------------------
 .byte   PATT
  .word Label_01134287
@  #09 @269   ----------------------------------------
Label_011342BD:
 .byte   N11 ,Bn0 ,v080
 .byte   N11 ,Fs1 ,v064
 .byte   W12
 .byte   Bn0 ,v080
 .byte   N11 ,Fs1 ,v064
 .byte   W12
 .byte   Bn0 ,v080
 .byte   N11 ,Fs1 ,v064
 .byte   W12
 .byte   Bn0 ,v080
 .byte   N11 ,Fs1 ,v064
 .byte   W12
 .byte   PEND 
Label_011342D7:
 .byte   N05 ,Bn0 ,v080
 .byte   N05 ,Fs1 ,v064
 .byte   W01
 .byte   W02
 .byte   W01
 .byte   W02
 .byte   Bn0 ,v080
 .byte   N05 ,Fs1 ,v068
 .byte   W01
 .byte   W02
 .byte   W01
 .byte   W02
 .byte   Bn0 ,v080
 .byte   N05 ,Fs1 ,v072
 .byte   W01
 .byte   W02
 .byte   W01
 .byte   W02
 .byte   Bn0 ,v080
 .byte   N05 ,Fs1 ,v076
 .byte   W01
 .byte   W02
 .byte   W01
 .byte   W02
 .byte   Bn0 ,v080
 .byte   N05 ,Fs1
 .byte   W01
 .byte   W02
 .byte   W01
 .byte   W02
 .byte   Bn0
 .byte   N05 ,Fs1 ,v084
 .byte   W01
 .byte   W02
 .byte   W01
 .byte   W02
 .byte   Bn0 ,v080
 .byte   N05 ,Fs1 ,v088
 .byte   W01
 .byte   W02
 .byte   W01
 .byte   W02
 .byte   Bn0 ,v080
 .byte   N05 ,Fs1 ,v092
 .byte   W01
 .byte   W02
 .byte   W01
 .byte   W02
 .byte   PEND 
@  #09 @270   ----------------------------------------
Label_0113431F:
 .byte   N02 ,An2 ,v016
 .byte   W02
 .byte   N02
 .byte   W03
 .byte   N02
 .byte   W03
 .byte   N02
 .byte   W03
 .byte   N02
 .byte   W03
 .byte   N02
 .byte   W03
 .byte   N02
 .byte   W03
 .byte   N02
 .byte   W03
 .byte   N02
 .byte   W03
 .byte   N02
 .byte   W03
 .byte   N02
 .byte   W03
 .byte   N02
 .byte   W03
 .byte   N02
 .byte   W03
 .byte   N02
 .byte   W03
 .byte   N02
 .byte   W03
 .byte   N02
 .byte   W03
 .byte   N02
 .byte   W01
 .byte   PEND 
Label_01134344:
 .byte   W02
 .byte   N02 ,An2 ,v016
 .byte   W03
 .byte   N02
 .byte   W03
 .byte   N02
 .byte   W03
 .byte   N02
 .byte   W03
 .byte   N02
 .byte   W03
 .byte   N02
 .byte   W03
 .byte   N02
 .byte   W03
 .byte   N02
 .byte   W03
 .byte   N02
 .byte   W03
 .byte   N02
 .byte   W03
 .byte   N02
 .byte   W03
 .byte   N02
 .byte   W03
 .byte   N02
 .byte   W03
 .byte   N02
 .byte   W03
 .byte   N02
 .byte   W04
 .byte   PEND 
@  #09 @271   ----------------------------------------
Label_01134366:
 .byte   N05 ,Fs1 ,v064
 .byte   W06
 .byte   N05
 .byte   W06
 .byte   N05
 .byte   W06
 .byte   N05
 .byte   W06
 .byte   N05
 .byte   W06
 .byte   N05
 .byte   W06
 .byte   N05
 .byte   W06
 .byte   N05
 .byte   W06
 .byte   PEND 
Label_01134379:
 .byte   N44 ,Bn0 ,v080
 .byte   N32 ,Dn1 ,v064
 .byte   N44 ,An2 ,v080
 .byte   W36
 .byte   N11 ,Dn1 ,v064
 .byte   W12
 .byte   PEND 
@  #09 @272   ----------------------------------------
Label_01134388:
 .byte   N32 ,Bn0 ,v080
 .byte   N32 ,Dn1 ,v064
 .byte   N11 ,Fs1
 .byte   N92 ,An2 ,v080
 .byte   W12
 .byte   N02 ,Fs1 ,v064
 .byte   W03
 .byte   N02
 .byte   W03
 .byte   N02
 .byte   W03
 .byte   N02
 .byte   W03
 .byte   N02
 .byte   W03
 .byte   N02
 .byte   W03
 .byte   N02
 .byte   W03
 .byte   N02
 .byte   W03
 .byte   N32 ,Bn0 ,v080
 .byte   N32 ,Dn1 ,v064
 .byte   N02 ,Fs1
 .byte   W03
 .byte   N02
 .byte   W03
 .byte   N02
 .byte   W03
 .byte   N02
 .byte   W03
 .byte   PEND 
Label_011343B6:
 .byte   N11 ,Fs1 ,v064
 .byte   W12
 .byte   N02
 .byte   W03
 .byte   N02
 .byte   W03
 .byte   N02
 .byte   W03
 .byte   N02
 .byte   W03
 .byte   N02
 .byte   W03
 .byte   N02
 .byte   W03
 .byte   N02
 .byte   W03
 .byte   N02
 .byte   W03
 .byte   N05 ,Dn1
 .byte   N02 ,Fs1
 .byte   W03
 .byte   N02
 .byte   W03
 .byte   N05 ,Dn1
 .byte   N02 ,Fs1
 .byte   W03
 .byte   N02
 .byte   W03
 .byte   PEND 
@  #09 @273   ----------------------------------------
 .byte   PATT
  .word Label_01134388
@  #09 @274   ----------------------------------------
 .byte   PATT
  .word Label_01133FA6
@  #09 @275   ----------------------------------------
Label_011343E3:
 .byte   N32 ,Bn0 ,v080
 .byte   N32 ,Dn1 ,v064
 .byte   N11 ,Fs1
 .byte   W12
 .byte   N02
 .byte   W03
 .byte   N02
 .byte   W03
 .byte   N02
 .byte   W03
 .byte   N02
 .byte   W03
 .byte   N02
 .byte   W03
 .byte   N02
 .byte   W03
 .byte   N02
 .byte   W03
 .byte   N02
 .byte   W03
 .byte   N32 ,Bn0 ,v080
 .byte   N32 ,Dn1 ,v064
 .byte   N02 ,Fs1
 .byte   W03
 .byte   N02
 .byte   W03
 .byte   N02
 .byte   W03
 .byte   N02
 .byte   W03
 .byte   PEND 
@  #09 @276   ----------------------------------------
 .byte   PATT
  .word Label_01133FEF
@  #09 @277   ----------------------------------------
 .byte   PATT
  .word Label_01134388
@  #09 @278   ----------------------------------------
 .byte   PATT
  .word Label_01133FA6
@  #09 @279   ----------------------------------------
 .byte   PATT
  .word Label_011343E3
@  #09 @280   ----------------------------------------
 .byte   PATT
  .word Label_01133FEF
@  #09 @281   ----------------------------------------
 .byte   PATT
  .word Label_01134388
@  #09 @282   ----------------------------------------
 .byte   PATT
  .word Label_01133FA6
@  #09 @283   ----------------------------------------
 .byte   PATT
  .word Label_011343E3
@  #09 @284   ----------------------------------------
 .byte   PATT
  .word Label_01133FEF
@  #09 @285   ----------------------------------------
 .byte   PATT
  .word Label_01134388
@  #09 @286   ----------------------------------------
 .byte   PATT
  .word Label_01133FA6
@  #09 @287   ----------------------------------------
 .byte   PATT
  .word Label_011343E3
@  #09 @288   ----------------------------------------
 .byte   PATT
  .word Label_01133FEF
@  #09 @289   ----------------------------------------
 .byte   PATT
  .word Label_01134388
@  #09 @290   ----------------------------------------
 .byte   PATT
  .word Label_01133FA6
@  #09 @291   ----------------------------------------
 .byte   PATT
  .word Label_011343E3
@  #09 @292   ----------------------------------------
 .byte   PATT
  .word Label_01133FEF
@  #09 @293   ----------------------------------------
 .byte   PATT
  .word Label_01134388
@  #09 @294   ----------------------------------------
 .byte   PATT
  .word Label_01133FA6
@  #09 @295   ----------------------------------------
 .byte   PATT
  .word Label_011343E3
@  #09 @296   ----------------------------------------
 .byte   PATT
  .word Label_01133FEF
@  #09 @297   ----------------------------------------
 .byte   PATT
  .word Label_01134388
@  #09 @298   ----------------------------------------
 .byte   PATT
  .word Label_01133FA6
@  #09 @299   ----------------------------------------
 .byte   PATT
  .word Label_011343E3
@  #09 @300   ----------------------------------------
 .byte   PATT
  .word Label_01133FEF
@  #09 @301   ----------------------------------------
Label_01134489:
 .byte   N92 ,Bn0 ,v080
 .byte   N32 ,Dn1 ,v064
 .byte   N23 ,Fs1
 .byte   W24
 .byte   N23
 .byte   W12
 .byte   N32 ,Dn1
 .byte   W12
 .byte   PEND 
Label_01134498:
 .byte   N23 ,Fs1 ,v064
 .byte   W24
 .byte   Dn1
 .byte   N23 ,Fs1
 .byte   W24
 .byte   PEND 
@  #09 @302   ----------------------------------------
 .byte   PATT
  .word Label_01134489
@  #09 @303   ----------------------------------------
Label_011344A6:
 .byte   N23 ,Fs1 ,v064
 .byte   W24
 .byte   N23
 .byte   W24
 .byte   PEND 
@  #09 @304   ----------------------------------------
 .byte   PATT
  .word Label_01134489
@  #09 @305   ----------------------------------------
 .byte   PATT
  .word Label_01134498
@  #09 @306   ----------------------------------------
 .byte   PATT
  .word Label_01134489
@  #09 @307   ----------------------------------------
 .byte   PATT
  .word Label_011344A6
@  #09 @308   ----------------------------------------
 .byte   PATT
  .word Label_01134489
@  #09 @309   ----------------------------------------
 .byte   PATT
  .word Label_01134498
@  #09 @310   ----------------------------------------
 .byte   PATT
  .word Label_01134489
@  #09 @311   ----------------------------------------
 .byte   PATT
  .word Label_011344A6
@  #09 @312   ----------------------------------------
 .byte   PATT
  .word Label_01134489
@  #09 @313   ----------------------------------------
 .byte   PATT
  .word Label_01134498
@  #09 @314   ----------------------------------------
 .byte   PATT
  .word Label_01134489
@  #09 @315   ----------------------------------------
 .byte   PATT
  .word Label_011344A6
@  #09 @316   ----------------------------------------
Label_011344E9:
 .byte   N92 ,Bn0 ,v080
 .byte   N32 ,Dn1 ,v064
 .byte   N23 ,Fs1
 .byte   N92 ,An2 ,v080
 .byte   W24
 .byte   N23 ,Fs1 ,v064
 .byte   W12
 .byte   N32 ,Dn1
 .byte   W12
 .byte   PEND 
@  #09 @317   ----------------------------------------
 .byte   PATT
  .word Label_01134498
@  #09 @318   ----------------------------------------
 .byte   PATT
  .word Label_01134489
@  #09 @319   ----------------------------------------
 .byte   N23 ,Fs1 ,v064
 .byte   W24
 .byte   N05 ,Dn1
 .byte   N23 ,Fs1
 .byte   N02 ,An2
 .byte   W03
 .byte   N02
 .byte   W03
 .byte   N05 ,Dn1
 .byte   N02 ,An2
 .byte   W03
 .byte   N02
 .byte   W03
 .byte   N05 ,Dn1
 .byte   N02 ,An2
 .byte   W03
 .byte   N02
 .byte   W03
 .byte   N05 ,Dn1
 .byte   N02 ,An2
 .byte   W03
 .byte   N02
 .byte   W03
 .byte   N23 ,Bn0 ,v080
 .byte   W48
@  #09 @320   ----------------------------------------
 .byte   PATT
  .word Label_01133444
@  #09 @321   ----------------------------------------
 .byte   PATT
  .word Label_0113344C
@  #09 @322   ----------------------------------------
 .byte   W48
@  #09 @323   ----------------------------------------
 .byte   PATT
  .word Label_01133458
@  #09 @324   ----------------------------------------
 .byte   PATT
  .word Label_01133444
@  #09 @325   ----------------------------------------
 .byte   PATT
  .word Label_0113344C
@  #09 @326   ----------------------------------------
 .byte   PATT
  .word Label_0113346C
@  #09 @327   ----------------------------------------
 .byte   N23 ,Bn0 ,v080
 .byte   N23 ,Dn1
 .byte   W48
@  #09 @328   ----------------------------------------
 .byte   PATT
  .word Label_01133444
@  #09 @329   ----------------------------------------
 .byte   PATT
  .word Label_0113344C
@  #09 @330   ----------------------------------------
 .byte   W48
@  #09 @331   ----------------------------------------
 .byte   PATT
  .word Label_01133491
@  #09 @332   ----------------------------------------
 .byte   PATT
  .word Label_0113349B
@  #09 @333   ----------------------------------------
 .byte   PATT
  .word Label_01133491
@  #09 @334   ----------------------------------------
 .byte   PATT
  .word Label_011334AB
@  #09 @335   ----------------------------------------
 .byte   GOTO
  .word Label_011334F0
@  #09 @336   ----------------------------------------
 .byte   PATT
  .word Label_011334F0
@  #09 @337   ----------------------------------------
 .byte   PATT
  .word Label_01133500
@  #09 @338   ----------------------------------------
 .byte   PATT
  .word Label_0113350C
@  #09 @339   ----------------------------------------
 .byte   PATT
  .word Label_01133500
@  #09 @340   ----------------------------------------
 .byte   PATT
  .word Label_0113350C
@  #09 @341   ----------------------------------------
 .byte   PATT
  .word Label_01133500
@  #09 @342   ----------------------------------------
 .byte   PATT
  .word Label_0113350C
@  #09 @343   ----------------------------------------
 .byte   PATT
  .word Label_01133500
@  #09 @344   ----------------------------------------
 .byte   PATT
  .word Label_0113350C
@  #09 @345   ----------------------------------------
 .byte   PATT
  .word Label_01133500
@  #09 @346   ----------------------------------------
 .byte   PATT
  .word Label_0113350C
@  #09 @347   ----------------------------------------
 .byte   PATT
  .word Label_01133500
@  #09 @348   ----------------------------------------
 .byte   PATT
  .word Label_0113350C
@  #09 @349   ----------------------------------------
 .byte   PATT
  .word Label_01133500
@  #09 @350   ----------------------------------------
 .byte   PATT
  .word Label_0113354E
@  #09 @351   ----------------------------------------
 .byte   PATT
  .word Label_0113358C
@  #09 @352   ----------------------------------------
 .byte   PATT
  .word Label_011335CD
@  #09 @353   ----------------------------------------
 .byte   PATT
  .word Label_011335E4
@  #09 @354   ----------------------------------------
 .byte   PATT
  .word Label_011335F5
@  #09 @355   ----------------------------------------
 .byte   PATT
  .word Label_01133604
@  #09 @356   ----------------------------------------
 .byte   PATT
  .word Label_011335CD
@  #09 @357   ----------------------------------------
 .byte   PATT
  .word Label_011335E4
@  #09 @358   ----------------------------------------
 .byte   PATT
  .word Label_011335F5
@  #09 @359   ----------------------------------------
 .byte   PATT
  .word Label_01133604
@  #09 @360   ----------------------------------------
 .byte   PATT
  .word Label_011335CD
@  #09 @361   ----------------------------------------
 .byte   PATT
  .word Label_011335E4
@  #09 @362   ----------------------------------------
 .byte   PATT
  .word Label_011335F5
@  #09 @363   ----------------------------------------
 .byte   PATT
  .word Label_01133604
@  #09 @364   ----------------------------------------
 .byte   PATT
  .word Label_011335CD
@  #09 @365   ----------------------------------------
 .byte   PATT
  .word Label_011335E4
@  #09 @366   ----------------------------------------
 .byte   PATT
  .word Label_011335F5
@  #09 @367   ----------------------------------------
 .byte   PATT
  .word Label_01133649
@  #09 @368   ----------------------------------------
 .byte   PATT
  .word Label_011335CD
@  #09 @369   ----------------------------------------
 .byte   PATT
  .word Label_011335E4
@  #09 @370   ----------------------------------------
 .byte   PATT
  .word Label_011335F5
@  #09 @371   ----------------------------------------
 .byte   PATT
  .word Label_01133649
@  #09 @372   ----------------------------------------
 .byte   PATT
  .word Label_011335CD
@  #09 @373   ----------------------------------------
 .byte   PATT
  .word Label_01133680
@  #09 @374   ----------------------------------------
 .byte   PATT
  .word Label_011335F5
@  #09 @375   ----------------------------------------
 .byte   PATT
  .word Label_01133649
@  #09 @376   ----------------------------------------
 .byte   PATT
  .word Label_011335CD
@  #09 @377   ----------------------------------------
 .byte   PATT
  .word Label_01133680
@  #09 @378   ----------------------------------------
 .byte   PATT
  .word Label_011335F5
@  #09 @379   ----------------------------------------
 .byte   PATT
  .word Label_01133649
@  #09 @380   ----------------------------------------
 .byte   PATT
  .word Label_011335CD
@  #09 @381   ----------------------------------------
 .byte   PATT
  .word Label_01133680
@  #09 @382   ----------------------------------------
 .byte   PATT
  .word Label_011336C1
@  #09 @383   ----------------------------------------
 .byte   PATT
  .word Label_0113370B
@  #09 @384   ----------------------------------------
 .byte   PATT
  .word Label_0113375B
@  #09 @385   ----------------------------------------
 .byte   PATT
  .word Label_011335E4
@  #09 @386   ----------------------------------------
 .byte   PATT
  .word Label_0113377A
@  #09 @387   ----------------------------------------
 .byte   PATT
  .word Label_01133604
@  #09 @388   ----------------------------------------
 .byte   PATT
  .word Label_0113375B
@  #09 @389   ----------------------------------------
 .byte   PATT
  .word Label_011335E4
@  #09 @390   ----------------------------------------
 .byte   PATT
  .word Label_0113377A
@  #09 @391   ----------------------------------------
 .byte   PATT
  .word Label_01133604
@  #09 @392   ----------------------------------------
 .byte   PATT
  .word Label_0113375B
@  #09 @393   ----------------------------------------
 .byte   PATT
  .word Label_011335E4
@  #09 @394   ----------------------------------------
 .byte   PATT
  .word Label_0113377A
@  #09 @395   ----------------------------------------
 .byte   PATT
  .word Label_01133604
@  #09 @396   ----------------------------------------
 .byte   PATT
  .word Label_0113375B
@  #09 @397   ----------------------------------------
 .byte   PATT
  .word Label_011335E4
@  #09 @398   ----------------------------------------
 .byte   PATT
  .word Label_0113377A
@  #09 @399   ----------------------------------------
 .byte   PATT
  .word Label_01133604
@  #09 @400   ----------------------------------------
 .byte   PATT
  .word Label_0113375B
@  #09 @401   ----------------------------------------
 .byte   PATT
  .word Label_01133680
@  #09 @402   ----------------------------------------
 .byte   PATT
  .word Label_0113377A
@  #09 @403   ----------------------------------------
 .byte   PATT
  .word Label_01133649
@  #09 @404   ----------------------------------------
 .byte   PATT
  .word Label_0113375B
@  #09 @405   ----------------------------------------
 .byte   PATT
  .word Label_01133680
@  #09 @406   ----------------------------------------
 .byte   PATT
  .word Label_0113377A
@  #09 @407   ----------------------------------------
 .byte   PATT
  .word Label_01133649
@  #09 @408   ----------------------------------------
 .byte   PATT
  .word Label_0113375B
@  #09 @409   ----------------------------------------
 .byte   PATT
  .word Label_01133680
@  #09 @410   ----------------------------------------
 .byte   PATT
  .word Label_0113377A
@  #09 @411   ----------------------------------------
 .byte   PATT
  .word Label_01133649
@  #09 @412   ----------------------------------------
 .byte   PATT
  .word Label_01133809
@  #09 @413   ----------------------------------------
 .byte   PATT
  .word Label_01133854
@  #09 @414   ----------------------------------------
 .byte   W48
 .byte   W48
@  #09 @415   ----------------------------------------
 .byte   PATT
  .word Label_011338BA
@  #09 @416   ----------------------------------------
 .byte   PATT
  .word Label_011338DE
@  #09 @417   ----------------------------------------
 .byte   PATT
  .word Label_011338F8
@  #09 @418   ----------------------------------------
 .byte   PATT
  .word Label_01133913
@  #09 @419   ----------------------------------------
 .byte   PATT
  .word Label_01133927
@  #09 @420   ----------------------------------------
 .byte   PATT
  .word Label_011338DE
@  #09 @421   ----------------------------------------
 .byte   PATT
  .word Label_011338F8
@  #09 @422   ----------------------------------------
 .byte   PATT
  .word Label_01133913
@  #09 @423   ----------------------------------------
 .byte   PATT
  .word Label_011338BA
@  #09 @424   ----------------------------------------
 .byte   PATT
  .word Label_011338DE
@  #09 @425   ----------------------------------------
 .byte   PATT
  .word Label_011338F8
@  #09 @426   ----------------------------------------
 .byte   PATT
  .word Label_01133913
@  #09 @427   ----------------------------------------
 .byte   PATT
  .word Label_01133927
@  #09 @428   ----------------------------------------
 .byte   PATT
  .word Label_011338DE
@  #09 @429   ----------------------------------------
 .byte   PATT
  .word Label_011338F8
@  #09 @430   ----------------------------------------
 .byte   PATT
  .word Label_01133980
@  #09 @431   ----------------------------------------
 .byte   PATT
  .word Label_011339C2
@  #09 @432   ----------------------------------------
 .byte   PATT
  .word Label_011338DE
@  #09 @433   ----------------------------------------
 .byte   PATT
  .word Label_011338F8
@  #09 @434   ----------------------------------------
 .byte   PATT
  .word Label_01133913
@  #09 @435   ----------------------------------------
 .byte   PATT
  .word Label_01133927
@  #09 @436   ----------------------------------------
 .byte   PATT
  .word Label_011338DE
@  #09 @437   ----------------------------------------
 .byte   PATT
  .word Label_011338F8
@  #09 @438   ----------------------------------------
 .byte   PATT
  .word Label_01133913
@  #09 @439   ----------------------------------------
 .byte   PATT
  .word Label_011338BA
@  #09 @440   ----------------------------------------
 .byte   PATT
  .word Label_011338DE
@  #09 @441   ----------------------------------------
 .byte   PATT
  .word Label_011338F8
@  #09 @442   ----------------------------------------
 .byte   PATT
  .word Label_01133913
@  #09 @443   ----------------------------------------
 .byte   PATT
  .word Label_01133927
@  #09 @444   ----------------------------------------
 .byte   PATT
  .word Label_011338DE
@  #09 @445   ----------------------------------------
 .byte   PATT
  .word Label_011338F8
@  #09 @446   ----------------------------------------
 .byte   PATT
  .word Label_01133980
@  #09 @447   ----------------------------------------
 .byte   PATT
  .word Label_01133A2E
@  #09 @448   ----------------------------------------
 .byte   PATT
  .word Label_01133A38
@  #09 @449   ----------------------------------------
 .byte   PATT
  .word Label_01133A40
@  #09 @450   ----------------------------------------
 .byte   PATT
  .word Label_01133A38
@  #09 @451   ----------------------------------------
 .byte   PATT
  .word Label_01133A2E
@  #09 @452   ----------------------------------------
 .byte   PATT
  .word Label_01133A38
@  #09 @453   ----------------------------------------
 .byte   PATT
  .word Label_01133A56
@  #09 @454   ----------------------------------------
 .byte   PATT
  .word Label_01133A5D
@  #09 @455   ----------------------------------------
 .byte   PATT
  .word Label_01133A2E
@  #09 @456   ----------------------------------------
 .byte   PATT
  .word Label_01133A38
@  #09 @457   ----------------------------------------
 .byte   PATT
  .word Label_01133A40
@  #09 @458   ----------------------------------------
 .byte   PATT
  .word Label_01133A38
@  #09 @459   ----------------------------------------
 .byte   PATT
  .word Label_01133A2E
@  #09 @460   ----------------------------------------
 .byte   PATT
  .word Label_01133A38
@  #09 @461   ----------------------------------------
 .byte   PATT
  .word Label_01133A89
@  #09 @462   ----------------------------------------
 .byte   PATT
  .word Label_01133ACB
@  #09 @463   ----------------------------------------
 .byte   PATT
  .word Label_01133A2E
@  #09 @464   ----------------------------------------
 .byte   PATT
  .word Label_01133A38
@  #09 @465   ----------------------------------------
 .byte   PATT
  .word Label_01133A40
@  #09 @466   ----------------------------------------
 .byte   PATT
  .word Label_01133A38
@  #09 @467   ----------------------------------------
 .byte   PATT
  .word Label_01133A2E
@  #09 @468   ----------------------------------------
 .byte   PATT
  .word Label_01133A38
@  #09 @469   ----------------------------------------
 .byte   PATT
  .word Label_01133A56
@  #09 @470   ----------------------------------------
 .byte   PATT
  .word Label_01133A5D
@  #09 @471   ----------------------------------------
 .byte   PATT
  .word Label_01133A2E
@  #09 @472   ----------------------------------------
 .byte   PATT
  .word Label_01133A38
@  #09 @473   ----------------------------------------
 .byte   PATT
  .word Label_01133A40
@  #09 @474   ----------------------------------------
 .byte   PATT
  .word Label_01133A38
@  #09 @475   ----------------------------------------
 .byte   PATT
  .word Label_01133A2E
@  #09 @476   ----------------------------------------
 .byte   PATT
  .word Label_01133A38
@  #09 @477   ----------------------------------------
 .byte   PATT
  .word Label_01133A89
@  #09 @478   ----------------------------------------
 .byte   PATT
  .word Label_01133ACB
@  #09 @479   ----------------------------------------
 .byte   PATT
  .word Label_01133B6A
@  #09 @480   ----------------------------------------
 .byte   PATT
  .word Label_01133B6A
@  #09 @481   ----------------------------------------
 .byte   PATT
  .word Label_01133B6A
@  #09 @482   ----------------------------------------
 .byte   PATT
  .word Label_01133B6A
@  #09 @483   ----------------------------------------
 .byte   PATT
  .word Label_01133B6A
@  #09 @484   ----------------------------------------
 .byte   PATT
  .word Label_01133B6A
@  #09 @485   ----------------------------------------
 .byte   PATT
  .word Label_01133B6A
@  #09 @486   ----------------------------------------
 .byte   PATT
  .word Label_01133B6A
@  #09 @487   ----------------------------------------
 .byte   PATT
  .word Label_01133B6A
@  #09 @488   ----------------------------------------
 .byte   PATT
  .word Label_01133B6A
@  #09 @489   ----------------------------------------
 .byte   PATT
  .word Label_01133B6A
@  #09 @490   ----------------------------------------
 .byte   PATT
  .word Label_01133B6A
@  #09 @491   ----------------------------------------
 .byte   PATT
  .word Label_01133B6A
@  #09 @492   ----------------------------------------
 .byte   PATT
  .word Label_01133B6A
@  #09 @493   ----------------------------------------
 .byte   PATT
  .word Label_01133BB2
@  #09 @494   ----------------------------------------
 .byte   PATT
  .word Label_01133BED
@  #09 @495   ----------------------------------------
 .byte   PATT
  .word Label_01133C27
@  #09 @496   ----------------------------------------
 .byte   PATT
  .word Label_01133C3F
@  #09 @497   ----------------------------------------
 .byte   PATT
  .word Label_01133C54
@  #09 @498   ----------------------------------------
 .byte   PATT
  .word Label_01133C6C
@  #09 @499   ----------------------------------------
 .byte   PATT
  .word Label_01133C86
@  #09 @500   ----------------------------------------
 .byte   PATT
  .word Label_01133C9E
@  #09 @501   ----------------------------------------
 .byte   PATT
  .word Label_01133CB3
@  #09 @502   ----------------------------------------
 .byte   PATT
  .word Label_01133CCF
@  #09 @503   ----------------------------------------
 .byte   PATT
  .word Label_01133CEB
@  #09 @504   ----------------------------------------
 .byte   PATT
  .word Label_01133D03
@  #09 @505   ----------------------------------------
 .byte   PATT
  .word Label_01133C54
@  #09 @506   ----------------------------------------
 .byte   PATT
  .word Label_01133C6C
@  #09 @507   ----------------------------------------
 .byte   PATT
  .word Label_01133C86
@  #09 @508   ----------------------------------------
 .byte   PATT
  .word Label_01133C9E
@  #09 @509   ----------------------------------------
 .byte   PATT
  .word Label_01133D29
@  #09 @510   ----------------------------------------
 .byte   PATT
  .word Label_01133D7D
@  #09 @511   ----------------------------------------
 .byte   PATT
  .word Label_01133DE7
@  #09 @512   ----------------------------------------
 .byte   PATT
  .word Label_01133DFA
@  #09 @513   ----------------------------------------
 .byte   PATT
  .word Label_01133E06
@  #09 @514   ----------------------------------------
 .byte   N44 ,Bn0 ,v080
 .byte   N44 ,An2
 .byte   W48
@  #09 @515   ----------------------------------------
 .byte   PATT
  .word Label_01133E13
@  #09 @516   ----------------------------------------
 .byte   W24
 .byte   N23 ,Dn1 ,v064
 .byte   W24
@  #09 @517   ----------------------------------------
 .byte   PATT
  .word Label_01133E13
@  #09 @518   ----------------------------------------
 .byte   W48
@  #09 @519   ----------------------------------------
 .byte   PATT
  .word Label_01133DE7
@  #09 @520   ----------------------------------------
 .byte   PATT
  .word Label_01133DFA
@  #09 @521   ----------------------------------------
 .byte   PATT
  .word Label_01133E06
@  #09 @522   ----------------------------------------
 .byte   N44 ,Bn0 ,v080
 .byte   N44 ,An2
 .byte   W48
@  #09 @523   ----------------------------------------
 .byte   PATT
  .word Label_01133E13
@  #09 @524   ----------------------------------------
 .byte   W24
 .byte   N23 ,Dn1 ,v064
 .byte   W24
@  #09 @525   ----------------------------------------
 .byte   PATT
  .word Label_01133E13
@  #09 @526   ----------------------------------------
 .byte   W48
@  #09 @527   ----------------------------------------
 .byte   PATT
  .word Label_01133E50
@  #09 @528   ----------------------------------------
 .byte   PATT
  .word Label_01133E79
@  #09 @529   ----------------------------------------
 .byte   PATT
  .word Label_01133E91
@  #09 @530   ----------------------------------------
 .byte   PATT
  .word Label_01133EA4
@  #09 @531   ----------------------------------------
 .byte   PATT
  .word Label_01133EBD
@  #09 @532   ----------------------------------------
 .byte   PATT
  .word Label_01133ED8
@  #09 @533   ----------------------------------------
 .byte   PATT
  .word Label_01133EBD
@  #09 @534   ----------------------------------------
 .byte   PATT
  .word Label_01133EED
@  #09 @535   ----------------------------------------
 .byte   PATT
  .word Label_01133EF8
@  #09 @536   ----------------------------------------
 .byte   PATT
  .word Label_01133E79
@  #09 @537   ----------------------------------------
 .byte   PATT
  .word Label_01133E91
@  #09 @538   ----------------------------------------
 .byte   PATT
  .word Label_01133F23
@  #09 @539   ----------------------------------------
 .byte   PATT
  .word Label_01133F31
@  #09 @540   ----------------------------------------
 .byte   PATT
  .word Label_01133F51
@  #09 @541   ----------------------------------------
 .byte   W48
 .byte   W48
@  #09 @542   ----------------------------------------
 .byte   PATT
  .word Label_01133F7A
@  #09 @543   ----------------------------------------
 .byte   PATT
  .word Label_01133FA6
@  #09 @544   ----------------------------------------
 .byte   PATT
  .word Label_01133FC6
@  #09 @545   ----------------------------------------
 .byte   PATT
  .word Label_01133FEF
@  #09 @546   ----------------------------------------
 .byte   PATT
  .word Label_01133FC6
@  #09 @547   ----------------------------------------
 .byte   PATT
  .word Label_01133FA6
@  #09 @548   ----------------------------------------
 .byte   PATT
  .word Label_01133FC6
@  #09 @549   ----------------------------------------
 .byte   PATT
  .word Label_01133FEF
@  #09 @550   ----------------------------------------
 .byte   PATT
  .word Label_01133F7A
@  #09 @551   ----------------------------------------
 .byte   PATT
  .word Label_01133FA6
@  #09 @552   ----------------------------------------
 .byte   PATT
  .word Label_01133FC6
@  #09 @553   ----------------------------------------
 .byte   PATT
  .word Label_01133FEF
@  #09 @554   ----------------------------------------
 .byte   PATT
  .word Label_01133FC6
@  #09 @555   ----------------------------------------
 .byte   PATT
  .word Label_01133FA6
@  #09 @556   ----------------------------------------
 .byte   PATT
  .word Label_01133FC6
@  #09 @557   ----------------------------------------
 .byte   PATT
  .word Label_01133FEF
@  #09 @558   ----------------------------------------
 .byte   PATT
  .word Label_01133F7A
@  #09 @559   ----------------------------------------
 .byte   PATT
  .word Label_01133FA6
@  #09 @560   ----------------------------------------
 .byte   PATT
  .word Label_01133FC6
@  #09 @561   ----------------------------------------
 .byte   PATT
  .word Label_01133FEF
@  #09 @562   ----------------------------------------
 .byte   PATT
  .word Label_01133FC6
@  #09 @563   ----------------------------------------
 .byte   PATT
  .word Label_01133FA6
@  #09 @564   ----------------------------------------
 .byte   PATT
  .word Label_01133FC6
@  #09 @565   ----------------------------------------
 .byte   PATT
  .word Label_01133FEF
@  #09 @566   ----------------------------------------
 .byte   PATT
  .word Label_01133FC6
@  #09 @567   ----------------------------------------
 .byte   PATT
  .word Label_01133FA6
@  #09 @568   ----------------------------------------
 .byte   PATT
  .word Label_01133FC6
@  #09 @569   ----------------------------------------
 .byte   PATT
  .word Label_01133FEF
@  #09 @570   ----------------------------------------
 .byte   PATT
  .word Label_01133F7A
@  #09 @571   ----------------------------------------
 .byte   PATT
  .word Label_01133FA6
@  #09 @572   ----------------------------------------
 .byte   PATT
  .word Label_0113408E
@  #09 @573   ----------------------------------------
 .byte   PATT
  .word Label_011340F3
@  #09 @574   ----------------------------------------
 .byte   PATT
  .word Label_01133E06
@  #09 @575   ----------------------------------------
 .byte   W24
 .byte   N23 ,Dn1 ,v064
 .byte   W24
@  #09 @576   ----------------------------------------
 .byte   PATT
  .word Label_01133E06
@  #09 @577   ----------------------------------------
 .byte   PATT
  .word Label_01133A38
@  #09 @578   ----------------------------------------
 .byte   PATT
  .word Label_01133E06
@  #09 @579   ----------------------------------------
 .byte   W24
 .byte   N23 ,Dn1 ,v064
 .byte   W24
@  #09 @580   ----------------------------------------
 .byte   PATT
  .word Label_01133E06
@  #09 @581   ----------------------------------------
 .byte   W36
 .byte   N11 ,Dn1 ,v064
 .byte   W12
@  #09 @582   ----------------------------------------
 .byte   PATT
  .word Label_01133E06
@  #09 @583   ----------------------------------------
 .byte   W24
 .byte   N23 ,Dn1 ,v064
 .byte   W24
@  #09 @584   ----------------------------------------
 .byte   PATT
  .word Label_01133E06
@  #09 @585   ----------------------------------------
 .byte   W48
@  #09 @586   ----------------------------------------
 .byte   PATT
  .word Label_01133E06
@  #09 @587   ----------------------------------------
 .byte   W24
 .byte   N23 ,Dn1 ,v064
 .byte   W24
@  #09 @588   ----------------------------------------
 .byte   PATT
  .word Label_01133E06
@  #09 @589   ----------------------------------------
 .byte   W48
@  #09 @590   ----------------------------------------
 .byte   PATT
  .word Label_0113419E
@  #09 @591   ----------------------------------------
 .byte   W24
 .byte   N23 ,Dn1 ,v064
 .byte   W24
@  #09 @592   ----------------------------------------
 .byte   PATT
  .word Label_01133E06
@  #09 @593   ----------------------------------------
 .byte   W48
@  #09 @594   ----------------------------------------
 .byte   PATT
  .word Label_011341B1
@  #09 @595   ----------------------------------------
 .byte   W24
 .byte   N23 ,Dn1 ,v064
 .byte   W24
@  #09 @596   ----------------------------------------
 .byte   PATT
  .word Label_01133E06
@  #09 @597   ----------------------------------------
 .byte   W48
@  #09 @598   ----------------------------------------
 .byte   PATT
  .word Label_011341B1
@  #09 @599   ----------------------------------------
 .byte   W24
 .byte   N23 ,Dn1 ,v064
 .byte   W24
@  #09 @600   ----------------------------------------
 .byte   PATT
  .word Label_01133E06
@  #09 @601   ----------------------------------------
 .byte   W48
@  #09 @602   ----------------------------------------
 .byte   PATT
  .word Label_011341B1
@  #09 @603   ----------------------------------------
 .byte   W24
 .byte   N23 ,Dn1 ,v064
 .byte   W24
@  #09 @604   ----------------------------------------
 .byte   PATT
  .word Label_01133E06
@  #09 @605   ----------------------------------------
 .byte   W48
@  #09 @606   ----------------------------------------
 .byte   PATT
  .word Label_011341B1
@  #09 @607   ----------------------------------------
 .byte   W24
 .byte   N23 ,Dn1 ,v064
 .byte   W24
@  #09 @608   ----------------------------------------
 .byte   PATT
  .word Label_011341EE
@  #09 @609   ----------------------------------------
 .byte   PATT
  .word Label_011341F6
@  #09 @610   ----------------------------------------
 .byte   W48
 .byte   W48
@  #09 @611   ----------------------------------------
 .byte   W48
 .byte   W48
@  #09 @612   ----------------------------------------
 .byte   W48
 .byte   W48
@  #09 @613   ----------------------------------------
 .byte   W48
 .byte   W48
@  #09 @614   ----------------------------------------
 .byte   W48
 .byte   W48
@  #09 @615   ----------------------------------------
 .byte   W48
 .byte   W48
@  #09 @616   ----------------------------------------
 .byte   W48
 .byte   W48
@  #09 @617   ----------------------------------------
 .byte   W48
 .byte   W48
@  #09 @618   ----------------------------------------
 .byte   PATT
  .word Label_01134230
@  #09 @619   ----------------------------------------
 .byte   PATT
  .word Label_01134248
@  #09 @620   ----------------------------------------
 .byte   PATT
  .word Label_01134259
@  #09 @621   ----------------------------------------
 .byte   PATT
  .word Label_01134275
@  #09 @622   ----------------------------------------
 .byte   PATT
  .word Label_01134287
@  #09 @623   ----------------------------------------
 .byte   PATT
  .word Label_01134287
@  #09 @624   ----------------------------------------
 .byte   PATT
  .word Label_01134287
@  #09 @625   ----------------------------------------
 .byte   PATT
  .word Label_01134287
@  #09 @626   ----------------------------------------
 .byte   PATT
  .word Label_01134287
@  #09 @627   ----------------------------------------
 .byte   PATT
  .word Label_01134287
@  #09 @628   ----------------------------------------
 .byte   PATT
  .word Label_01134287
@  #09 @629   ----------------------------------------
 .byte   PATT
  .word Label_01134287
@  #09 @630   ----------------------------------------
 .byte   PATT
  .word Label_011342BD
@  #09 @631   ----------------------------------------
 .byte   PATT
  .word Label_011342D7
@  #09 @632   ----------------------------------------
 .byte   PATT
  .word Label_0113431F
@  #09 @633   ----------------------------------------
 .byte   PATT
  .word Label_01134344
@  #09 @634   ----------------------------------------
 .byte   PATT
  .word Label_01134366
@  #09 @635   ----------------------------------------
 .byte   PATT
  .word Label_01134379
@  #09 @636   ----------------------------------------
 .byte   PATT
  .word Label_01134388
@  #09 @637   ----------------------------------------
 .byte   PATT
  .word Label_011343B6
@  #09 @638   ----------------------------------------
 .byte   PATT
  .word Label_01134388
@  #09 @639   ----------------------------------------
 .byte   PATT
  .word Label_01133FA6
@  #09 @640   ----------------------------------------
 .byte   PATT
  .word Label_011343E3
@  #09 @641   ----------------------------------------
 .byte   PATT
  .word Label_01133FEF
@  #09 @642   ----------------------------------------
 .byte   PATT
  .word Label_01134388
@  #09 @643   ----------------------------------------
 .byte   PATT
  .word Label_01133FA6
@  #09 @644   ----------------------------------------
 .byte   PATT
  .word Label_011343E3
@  #09 @645   ----------------------------------------
 .byte   PATT
  .word Label_01133FEF
@  #09 @646   ----------------------------------------
 .byte   PATT
  .word Label_01134388
@  #09 @647   ----------------------------------------
 .byte   PATT
  .word Label_01133FA6
@  #09 @648   ----------------------------------------
 .byte   PATT
  .word Label_011343E3
@  #09 @649   ----------------------------------------
 .byte   PATT
  .word Label_01133FEF
@  #09 @650   ----------------------------------------
 .byte   PATT
  .word Label_01134388
@  #09 @651   ----------------------------------------
 .byte   PATT
  .word Label_01133FA6
@  #09 @652   ----------------------------------------
 .byte   PATT
  .word Label_011343E3
@  #09 @653   ----------------------------------------
 .byte   PATT
  .word Label_01133FEF
@  #09 @654   ----------------------------------------
 .byte   PATT
  .word Label_01134388
@  #09 @655   ----------------------------------------
 .byte   PATT
  .word Label_01133FA6
@  #09 @656   ----------------------------------------
 .byte   PATT
  .word Label_011343E3
@  #09 @657   ----------------------------------------
 .byte   PATT
  .word Label_01133FEF
@  #09 @658   ----------------------------------------
 .byte   PATT
  .word Label_01134388
@  #09 @659   ----------------------------------------
 .byte   PATT
  .word Label_01133FA6
@  #09 @660   ----------------------------------------
 .byte   PATT
  .word Label_011343E3
@  #09 @661   ----------------------------------------
 .byte   PATT
  .word Label_01133FEF
@  #09 @662   ----------------------------------------
 .byte   PATT
  .word Label_01134388
@  #09 @663   ----------------------------------------
 .byte   PATT
  .word Label_01133FA6
@  #09 @664   ----------------------------------------
 .byte   PATT
  .word Label_011343E3
@  #09 @665   ----------------------------------------
 .byte   PATT
  .word Label_01133FEF
@  #09 @666   ----------------------------------------
 .byte   PATT
  .word Label_01134489
@  #09 @667   ----------------------------------------
 .byte   PATT
  .word Label_01134498
@  #09 @668   ----------------------------------------
 .byte   PATT
  .word Label_01134489
@  #09 @669   ----------------------------------------
 .byte   PATT
  .word Label_011344A6
@  #09 @670   ----------------------------------------
 .byte   PATT
  .word Label_01134489
@  #09 @671   ----------------------------------------
 .byte   PATT
  .word Label_01134498
@  #09 @672   ----------------------------------------
 .byte   PATT
  .word Label_01134489
@  #09 @673   ----------------------------------------
 .byte   PATT
  .word Label_011344A6
@  #09 @674   ----------------------------------------
 .byte   PATT
  .word Label_01134489
@  #09 @675   ----------------------------------------
 .byte   PATT
  .word Label_01134498
@  #09 @676   ----------------------------------------
 .byte   PATT
  .word Label_01134489
@  #09 @677   ----------------------------------------
 .byte   PATT
  .word Label_011344A6
@  #09 @678   ----------------------------------------
 .byte   PATT
  .word Label_01134489
@  #09 @679   ----------------------------------------
 .byte   PATT
  .word Label_01134498
@  #09 @680   ----------------------------------------
 .byte   PATT
  .word Label_01134489
@  #09 @681   ----------------------------------------
 .byte   PATT
  .word Label_011344A6
@  #09 @682   ----------------------------------------
 .byte   PATT
  .word Label_011344E9
@  #09 @683   ----------------------------------------
 .byte   PATT
  .word Label_01134498
@  #09 @684   ----------------------------------------
 .byte   PATT
  .word Label_01134489
@  #09 @685   ----------------------------------------
 .byte   N23 ,Fs1 ,v064
 .byte   W24
 .byte   N05 ,Dn1
 .byte   N23 ,Fs1
 .byte   N02 ,An2
 .byte   W03
 .byte   N02
 .byte   W03
 .byte   N05 ,Dn1
 .byte   N02 ,An2
 .byte   W03
 .byte   N02
 .byte   W03
 .byte   N05 ,Dn1
 .byte   N02 ,An2
 .byte   W03
 .byte   N02
 .byte   W03
 .byte   N05 ,Dn1
 .byte   N02 ,An2
 .byte   W03
 .byte   N02
 .byte   W02
 .byte   FINE

@**************** Track 10 (Midi-Chn.9) ****************@

.align 2, 0
song06_010:
@  #10 @000   ----------------------------------------
 .byte   KEYSH , song06_key+0
 .byte   VOICE , 46
 .byte   VOL , 47*song06_mvl/mxv
 .byte   PAN , c_v+0
 .byte   VOL , 47*song06_mvl/mxv
 .byte   PAN , c_v+0
 .byte   VOL , 47*song06_mvl/mxv
 .byte   PAN , c_v+18
 .byte   VOL , 47*song06_mvl/mxv
 .byte   PAN , c_v+0
 .byte   VOL , 47*song06_mvl/mxv
 .byte   PAN , c_v+0
 .byte   W48
 .byte   W48
@  #10 @001   ----------------------------------------
 .byte   W48
 .byte   W48
@  #10 @002   ----------------------------------------
 .byte   W48
 .byte   W48
@  #10 @003   ----------------------------------------
 .byte   W48
 .byte   W48
@  #10 @004   ----------------------------------------
 .byte   W48
 .byte   W48
@  #10 @005   ----------------------------------------
 .byte   W48
 .byte   W48
@  #10 @006   ----------------------------------------
 .byte   W48
 .byte   W48
@  #10 @007   ----------------------------------------
 .byte   W48
 .byte   W48
@  #10 @008   ----------------------------------------
Label_0112B638:
 .byte   W48
 .byte   W48
@  #10 @009   ----------------------------------------
 .byte   W48
 .byte   W48
@  #10 @010   ----------------------------------------
 .byte   W48
 .byte   W48
@  #10 @011   ----------------------------------------
 .byte   W48
 .byte   W48
@  #10 @012   ----------------------------------------
 .byte   W48
 .byte   W48
@  #10 @013   ----------------------------------------
 .byte   W48
 .byte   W48
@  #10 @014   ----------------------------------------
 .byte   W48
 .byte   W48
@  #10 @015   ----------------------------------------
 .byte   W48
 .byte   W48
@  #10 @016   ----------------------------------------
 .byte   W48
 .byte   W48
@  #10 @017   ----------------------------------------
 .byte   W48
 .byte   W48
@  #10 @018   ----------------------------------------
 .byte   W48
 .byte   W48
@  #10 @019   ----------------------------------------
 .byte   W48
 .byte   W48
@  #10 @020   ----------------------------------------
 .byte   W48
 .byte   W48
@  #10 @021   ----------------------------------------
 .byte   W48
 .byte   W48
@  #10 @022   ----------------------------------------
 .byte   W48
 .byte   W48
@  #10 @023   ----------------------------------------
 .byte   W48
 .byte   W48
@  #10 @024   ----------------------------------------
 .byte   W48
 .byte   W48
@  #10 @025   ----------------------------------------
 .byte   W48
 .byte   W48
@  #10 @026   ----------------------------------------
 .byte   W48
 .byte   W48
@  #10 @027   ----------------------------------------
 .byte   W48
 .byte   W48
@  #10 @028   ----------------------------------------
 .byte   W48
 .byte   W48
@  #10 @029   ----------------------------------------
 .byte   W48
 .byte   W48
@  #10 @030   ----------------------------------------
 .byte   W48
 .byte   W48
@  #10 @031   ----------------------------------------
 .byte   W48
 .byte   W48
@  #10 @032   ----------------------------------------
 .byte   W48
 .byte   W48
@  #10 @033   ----------------------------------------
 .byte   W48
 .byte   W48
@  #10 @034   ----------------------------------------
 .byte   W48
 .byte   W48
@  #10 @035   ----------------------------------------
 .byte   W48
 .byte   W48
@  #10 @036   ----------------------------------------
 .byte   W48
 .byte   W48
@  #10 @037   ----------------------------------------
 .byte   W48
 .byte   W48
@  #10 @038   ----------------------------------------
 .byte   W48
 .byte   W48
@  #10 @039   ----------------------------------------
 .byte   W48
 .byte   W48
@  #10 @040   ----------------------------------------
 .byte   W48
 .byte   W48
@  #10 @041   ----------------------------------------
 .byte   W48
 .byte   W48
@  #10 @042   ----------------------------------------
 .byte   W48
 .byte   W48
@  #10 @043   ----------------------------------------
 .byte   W48
 .byte   W48
@  #10 @044   ----------------------------------------
 .byte   W48
 .byte   W48
@  #10 @045   ----------------------------------------
 .byte   W48
 .byte   W48
@  #10 @046   ----------------------------------------
 .byte   W48
 .byte   W48
@  #10 @047   ----------------------------------------
 .byte   W48
 .byte   W48
@  #10 @048   ----------------------------------------
 .byte   W48
 .byte   W48
@  #10 @049   ----------------------------------------
 .byte   W48
 .byte   W48
@  #10 @050   ----------------------------------------
 .byte   W48
 .byte   W48
@  #10 @051   ----------------------------------------
 .byte   W48
 .byte   W48
@  #10 @052   ----------------------------------------
 .byte   W48
 .byte   W48
@  #10 @053   ----------------------------------------
 .byte   W48
 .byte   W48
@  #10 @054   ----------------------------------------
 .byte   W48
 .byte   W48
@  #10 @055   ----------------------------------------
 .byte   W48
 .byte   W48
@  #10 @056   ----------------------------------------
 .byte   W48
 .byte   W48
@  #10 @057   ----------------------------------------
 .byte   W48
 .byte   W48
@  #10 @058   ----------------------------------------
 .byte   W48
 .byte   W48
@  #10 @059   ----------------------------------------
 .byte   W48
 .byte   W48
@  #10 @060   ----------------------------------------
 .byte   W48
 .byte   W48
@  #10 @061   ----------------------------------------
 .byte   W48
 .byte   W48
@  #10 @062   ----------------------------------------
 .byte   W48
 .byte   W48
@  #10 @063   ----------------------------------------
 .byte   W48
 .byte   W48
@  #10 @064   ----------------------------------------
 .byte   W48
 .byte   W48
@  #10 @065   ----------------------------------------
 .byte   W48
 .byte   W48
@  #10 @066   ----------------------------------------
 .byte   W48
 .byte   W48
@  #10 @067   ----------------------------------------
 .byte   W48
 .byte   W48
@  #10 @068   ----------------------------------------
 .byte   W48
 .byte   W48
@  #10 @069   ----------------------------------------
 .byte   W48
 .byte   W48
@  #10 @070   ----------------------------------------
 .byte   W48
 .byte   W48
@  #10 @071   ----------------------------------------
 .byte   W48
 .byte   W48
@  #10 @072   ----------------------------------------
 .byte   W48
 .byte   W48
@  #10 @073   ----------------------------------------
 .byte   W48
 .byte   W48
@  #10 @074   ----------------------------------------
 .byte   W48
 .byte   W48
@  #10 @075   ----------------------------------------
 .byte   W48
 .byte   W48
@  #10 @076   ----------------------------------------
 .byte   W48
 .byte   W48
@  #10 @077   ----------------------------------------
 .byte   W48
 .byte   W48
@  #10 @078   ----------------------------------------
 .byte   W48
 .byte   W48
@  #10 @079   ----------------------------------------
 .byte   W48
 .byte   W48
@  #10 @080   ----------------------------------------
 .byte   W48
 .byte   W48
@  #10 @081   ----------------------------------------
 .byte   W48
 .byte   W48
@  #10 @082   ----------------------------------------
 .byte   W48
 .byte   W48
@  #10 @083   ----------------------------------------
 .byte   W48
 .byte   W48
@  #10 @084   ----------------------------------------
 .byte   W48
 .byte   W48
@  #10 @085   ----------------------------------------
 .byte   W48
 .byte   W48
@  #10 @086   ----------------------------------------
 .byte   W48
 .byte   W48
@  #10 @087   ----------------------------------------
 .byte   W48
 .byte   W48
@  #10 @088   ----------------------------------------
 .byte   W48
 .byte   W48
@  #10 @089   ----------------------------------------
 .byte   W48
 .byte   W48
@  #10 @090   ----------------------------------------
 .byte   W48
 .byte   W48
@  #10 @091   ----------------------------------------
 .byte   W48
 .byte   W48
@  #10 @092   ----------------------------------------
 .byte   W48
 .byte   W48
@  #10 @093   ----------------------------------------
 .byte   W48
 .byte   W48
@  #10 @094   ----------------------------------------
 .byte   W48
 .byte   W48
@  #10 @095   ----------------------------------------
 .byte   W48
 .byte   W48
@  #10 @096   ----------------------------------------
Label_0112B6E8:
 .byte   N32 ,Dn2 ,v080
 .byte   W36
 .byte   En2
 .byte   W12
 .byte   PEND 
 .byte   W24
 .byte   N68 ,Cn3
 .byte   W24
@  #10 @097   ----------------------------------------
 .byte   W48
 .byte   N44 ,Bn2
 .byte   W48
@  #10 @098   ----------------------------------------
Label_0112B6F7:
 .byte   N11 ,Gn2 ,v080
 .byte   W12
 .byte   Bn2
 .byte   W12
 .byte   Dn3
 .byte   W12
 .byte   Bn2
 .byte   W12
 .byte   PEND 
@  #10 @099   ----------------------------------------
 .byte   PATT
  .word Label_0112B6F7
@  #10 @100   ----------------------------------------
 .byte   PATT
  .word Label_0112B6F7
@  #10 @101   ----------------------------------------
 .byte   PATT
  .word Label_0112B6F7
@  #10 @102   ----------------------------------------
 .byte   PATT
  .word Label_0112B6E8
@  #10 @103   ----------------------------------------
Label_0112B716:
 .byte   W24
 .byte   TIE ,Bn2 ,v080
 .byte   W24
 .byte   PEND 
 .byte   W48
@  #10 @104   ----------------------------------------
 .byte   W44
 .byte   W03
 .byte   EOT
 .byte   W01
Label_0112B721:
 .byte   N11 ,Dn3 ,v080
 .byte   W12
 .byte   En2
 .byte   W12
 .byte   Gn2
 .byte   W12
 .byte   En2
 .byte   W12
 .byte   PEND 
@  #10 @105   ----------------------------------------
 .byte   PATT
  .word Label_0112B6F7
@  #10 @106   ----------------------------------------
 .byte   PATT
  .word Label_0112B6F7
@  #10 @107   ----------------------------------------
 .byte   PATT
  .word Label_0112B6F7
@  #10 @108   ----------------------------------------
Label_0112B73B:
 .byte   N11 ,Fn2 ,v064
 .byte   W12
 .byte   N11
 .byte   W12
 .byte   N11
 .byte   W12
 .byte   Gn2
 .byte   W12
 .byte   PEND 
Label_0112B746:
 .byte   N11 ,Gn2 ,v064
 .byte   W12
 .byte   N11
 .byte   W12
 .byte   N11
 .byte   W12
 .byte   N11
 .byte   W12
 .byte   PEND 
@  #10 @109   ----------------------------------------
Label_0112B751:
 .byte   N11 ,Gn2 ,v064
 .byte   W12
 .byte   N11
 .byte   W12
 .byte   N11
 .byte   W12
 .byte   Dn2
 .byte   W12
 .byte   PEND 
Label_0112B75C:
 .byte   N11 ,Dn2 ,v064
 .byte   W12
 .byte   N11
 .byte   W12
 .byte   En2
 .byte   W24
 .byte   PEND 
@  #10 @110   ----------------------------------------
 .byte   PATT
  .word Label_0112B751
@  #10 @111   ----------------------------------------
 .byte   PATT
  .word Label_0112B75C
@  #10 @112   ----------------------------------------
 .byte   PATT
  .word Label_0112B746
@  #10 @113   ----------------------------------------
 .byte   PATT
  .word Label_0112B746
@  #10 @114   ----------------------------------------
Label_0112B779:
 .byte   N11 ,An2 ,v064
 .byte   W12
 .byte   N11
 .byte   W12
 .byte   N11
 .byte   W12
 .byte   N11
 .byte   W12
 .byte   PEND 
Label_0112B784:
 .byte   N11 ,An2 ,v064
 .byte   W12
 .byte   N11
 .byte   W12
 .byte   Bn2
 .byte   W12
 .byte   N11
 .byte   W12
 .byte   PEND 
@  #10 @115   ----------------------------------------
Label_0112B78F:
 .byte   N11 ,Bn2 ,v064
 .byte   W12
 .byte   N11
 .byte   W12
 .byte   N11
 .byte   W12
 .byte   N11
 .byte   W12
 .byte   PEND 
@  #10 @116   ----------------------------------------
 .byte   PATT
  .word Label_0112B78F
@  #10 @117   ----------------------------------------
Label_0112B79F:
 .byte   N11 ,Gs2 ,v064
 .byte   W12
 .byte   N11
 .byte   W12
 .byte   N11
 .byte   W12
 .byte   N11
 .byte   W12
 .byte   PEND 
@  #10 @118   ----------------------------------------
 .byte   PATT
  .word Label_0112B79F
@  #10 @119   ----------------------------------------
 .byte   W48
Label_0112B7B0:
 .byte   N44 ,En2 ,v016
 .byte   W01
 .byte   W01
 .byte   W01
 .byte   W01
 .byte   W01
 .byte   W01
 .byte   W01
 .byte   W01
 .byte   W01
 .byte   W01
 .byte   W01
 .byte   W01
 .byte   W01
 .byte   W01
 .byte   W01
 .byte   W01
 .byte   W01
 .byte   W01
 .byte   W01
 .byte   W01
 .byte   W01
 .byte   W01
 .byte   W01
 .byte   W01
 .byte   W01
 .byte   W01
 .byte   W01
 .byte   W01
 .byte   W01
 .byte   W01
 .byte   W01
 .byte   W01
 .byte   W01
 .byte   W01
 .byte   W01
 .byte   W01
 .byte   W01
 .byte   W01
 .byte   W01
 .byte   W01
 .byte   W01
 .byte   W01
 .byte   W01
 .byte   W01
 .byte   W01
 .byte   W01
 .byte   W01
 .byte   W01
 .byte   PEND 
@  #10 @120   ----------------------------------------
Label_0112B7E4:
 .byte   N32 ,Fn2 ,v080
 .byte   W36
 .byte   N23
 .byte   W12
 .byte   PEND 
 .byte   W12
 .byte   N32 ,En2
 .byte   W36
@  #10 @121   ----------------------------------------
 .byte   N92 ,Gn2
 .byte   W48
 .byte   W48
@  #10 @122   ----------------------------------------
 .byte   An2
 .byte   W48
 .byte   W48
@  #10 @123   ----------------------------------------
 .byte   En2
 .byte   W48
 .byte   W48
@  #10 @124   ----------------------------------------
 .byte   Dn2
 .byte   W48
 .byte   W48
@  #10 @125   ----------------------------------------
 .byte   N44 ,En2
 .byte   W48
 .byte   Gs2
 .byte   W48
@  #10 @126   ----------------------------------------
 .byte   N92 ,An2
 .byte   W48
 .byte   W48
@  #10 @127   ----------------------------------------
Label_0112B805:
 .byte   N32 ,Gn2 ,v080
 .byte   W36
 .byte   N32
 .byte   W12
 .byte   PEND 
 .byte   W24
 .byte   N23 ,Fs2
 .byte   W24
@  #10 @128   ----------------------------------------
 .byte   PATT
  .word Label_0112B7E4
@  #10 @129   ----------------------------------------
 .byte   W12
 .byte   N32 ,Fn2 ,v080
 .byte   W36
 .byte   N92 ,Gn2
 .byte   W48
@  #10 @130   ----------------------------------------
 .byte   W48
 .byte   En2
 .byte   W48
@  #10 @131   ----------------------------------------
 .byte   W48
 .byte   N44 ,An2
 .byte   W48
@  #10 @132   ----------------------------------------
Label_0112B824:
 .byte   N23 ,Bn2 ,v080
 .byte   W24
 .byte   N11 ,An2
 .byte   W12
 .byte   Gn2
 .byte   W12
 .byte   PEND 
 .byte   N92 ,Dn2
 .byte   W48
@  #10 @133   ----------------------------------------
 .byte   W48
 .byte   En2
 .byte   W48
@  #10 @134   ----------------------------------------
 .byte   W48
 .byte   TIE ,An2
 .byte   W48
@  #10 @135   ----------------------------------------
 .byte   W48
 .byte   W48
@  #10 @136   ----------------------------------------
 .byte   W44
 .byte   W03
 .byte   EOT
 .byte   W01
 .byte   N44
 .byte   W48
@  #10 @137   ----------------------------------------
 .byte   En2
 .byte   W48
Label_0112B842:
 .byte   N32 ,Cn3 ,v080
 .byte   W36
 .byte   Dn3
 .byte   W12
 .byte   PEND 
@  #10 @138   ----------------------------------------
 .byte   W24
 .byte   N23 ,Dn2
 .byte   W24
 .byte   N44 ,Cn2
 .byte   W48
@  #10 @139   ----------------------------------------
 .byte   Bn1
 .byte   W48
 .byte   N92 ,Gn2
 .byte   W48
@  #10 @140   ----------------------------------------
 .byte   W48
 .byte   Fn2
 .byte   W48
@  #10 @141   ----------------------------------------
 .byte   W48
 .byte   N44 ,Bn2
 .byte   W48
@  #10 @142   ----------------------------------------
 .byte   Gs2
 .byte   W48
 .byte   N92 ,An2
 .byte   W48
@  #10 @143   ----------------------------------------
 .byte   W48
 .byte   Gn2
 .byte   W48
@  #10 @144   ----------------------------------------
 .byte   W48
 .byte   W48
@  #10 @145   ----------------------------------------
 .byte   W48
 .byte   W48
@  #10 @146   ----------------------------------------
 .byte   W48
 .byte   W48
@  #10 @147   ----------------------------------------
 .byte   W48
 .byte   W48
@  #10 @148   ----------------------------------------
 .byte   W48
 .byte   W48
@  #10 @149   ----------------------------------------
 .byte   W48
 .byte   W48
@  #10 @150   ----------------------------------------
 .byte   W48
 .byte   W48
@  #10 @151   ----------------------------------------
 .byte   W48
 .byte   W48
@  #10 @152   ----------------------------------------
 .byte   W48
 .byte   W48
@  #10 @153   ----------------------------------------
 .byte   W48
 .byte   W48
@  #10 @154   ----------------------------------------
 .byte   W48
 .byte   W48
@  #10 @155   ----------------------------------------
 .byte   W48
 .byte   W48
@  #10 @156   ----------------------------------------
 .byte   W48
 .byte   W48
@  #10 @157   ----------------------------------------
 .byte   W48
 .byte   W48
@  #10 @158   ----------------------------------------
 .byte   W48
 .byte   W48
@  #10 @159   ----------------------------------------
 .byte   W48
 .byte   W48
@  #10 @160   ----------------------------------------
 .byte   W48
 .byte   W48
@  #10 @161   ----------------------------------------
 .byte   W48
 .byte   W48
@  #10 @162   ----------------------------------------
 .byte   W48
 .byte   W48
@  #10 @163   ----------------------------------------
 .byte   W48
 .byte   W48
@  #10 @164   ----------------------------------------
 .byte   W48
 .byte   W48
@  #10 @165   ----------------------------------------
 .byte   W48
 .byte   W48
@  #10 @166   ----------------------------------------
 .byte   W48
 .byte   W48
@  #10 @167   ----------------------------------------
 .byte   W48
 .byte   W48
@  #10 @168   ----------------------------------------
 .byte   W48
 .byte   W48
@  #10 @169   ----------------------------------------
 .byte   W48
 .byte   W48
@  #10 @170   ----------------------------------------
 .byte   W48
 .byte   W48
@  #10 @171   ----------------------------------------
 .byte   W48
 .byte   W48
@  #10 @172   ----------------------------------------
 .byte   W48
 .byte   W48
@  #10 @173   ----------------------------------------
 .byte   W48
 .byte   W48
@  #10 @174   ----------------------------------------
 .byte   W48
 .byte   W48
@  #10 @175   ----------------------------------------
 .byte   W48
 .byte   W48
@  #10 @176   ----------------------------------------
 .byte   W48
 .byte   W48
@  #10 @177   ----------------------------------------
 .byte   W48
 .byte   W48
@  #10 @178   ----------------------------------------
 .byte   W48
 .byte   W48
@  #10 @179   ----------------------------------------
 .byte   W48
 .byte   W48
@  #10 @180   ----------------------------------------
 .byte   W48
 .byte   W48
@  #10 @181   ----------------------------------------
 .byte   W48
 .byte   W48
@  #10 @182   ----------------------------------------
 .byte   W48
 .byte   W48
@  #10 @183   ----------------------------------------
 .byte   W48
 .byte   W48
@  #10 @184   ----------------------------------------
 .byte   W48
 .byte   W48
@  #10 @185   ----------------------------------------
 .byte   W48
 .byte   W48
@  #10 @186   ----------------------------------------
 .byte   W48
 .byte   W48
@  #10 @187   ----------------------------------------
 .byte   W48
 .byte   W48
@  #10 @188   ----------------------------------------
 .byte   W48
 .byte   W48
@  #10 @189   ----------------------------------------
 .byte   W48
 .byte   W48
@  #10 @190   ----------------------------------------
 .byte   W48
 .byte   W48
@  #10 @191   ----------------------------------------
 .byte   W48
 .byte   W48
@  #10 @192   ----------------------------------------
 .byte   W48
 .byte   W48
@  #10 @193   ----------------------------------------
 .byte   W48
 .byte   W48
@  #10 @194   ----------------------------------------
 .byte   W48
 .byte   W48
@  #10 @195   ----------------------------------------
 .byte   W48
 .byte   W48
@  #10 @196   ----------------------------------------
 .byte   W48
 .byte   W48
@  #10 @197   ----------------------------------------
 .byte   W48
 .byte   W48
@  #10 @198   ----------------------------------------
 .byte   W48
 .byte   W48
@  #10 @199   ----------------------------------------
 .byte   W48
 .byte   W48
@  #10 @200   ----------------------------------------
 .byte   W48
 .byte   W48
@  #10 @201   ----------------------------------------
 .byte   W48
 .byte   W48
@  #10 @202   ----------------------------------------
 .byte   W48
 .byte   W48
@  #10 @203   ----------------------------------------
 .byte   W48
 .byte   W48
@  #10 @204   ----------------------------------------
 .byte   W48
 .byte   GOTO
  .word Label_0112B638
@  #10 @205   ----------------------------------------
 .byte   W48
 .byte   W48
@  #10 @206   ----------------------------------------
 .byte   W48
 .byte   W48
@  #10 @207   ----------------------------------------
 .byte   W48
 .byte   W48
@  #10 @208   ----------------------------------------
 .byte   W48
 .byte   W48
@  #10 @209   ----------------------------------------
 .byte   W48
 .byte   W48
@  #10 @210   ----------------------------------------
 .byte   W48
 .byte   W48
@  #10 @211   ----------------------------------------
 .byte   W48
 .byte   W48
@  #10 @212   ----------------------------------------
 .byte   W48
 .byte   W48
@  #10 @213   ----------------------------------------
 .byte   W48
 .byte   W48
@  #10 @214   ----------------------------------------
 .byte   W48
 .byte   W48
@  #10 @215   ----------------------------------------
 .byte   W48
 .byte   W48
@  #10 @216   ----------------------------------------
 .byte   W48
 .byte   W48
@  #10 @217   ----------------------------------------
 .byte   W48
 .byte   W48
@  #10 @218   ----------------------------------------
 .byte   W48
 .byte   W48
@  #10 @219   ----------------------------------------
 .byte   W48
 .byte   W48
@  #10 @220   ----------------------------------------
 .byte   W48
 .byte   W48
@  #10 @221   ----------------------------------------
 .byte   W48
 .byte   W48
@  #10 @222   ----------------------------------------
 .byte   W48
 .byte   W48
@  #10 @223   ----------------------------------------
 .byte   W48
 .byte   W48
@  #10 @224   ----------------------------------------
 .byte   W48
 .byte   W48
@  #10 @225   ----------------------------------------
 .byte   W48
 .byte   W48
@  #10 @226   ----------------------------------------
 .byte   W48
 .byte   W48
@  #10 @227   ----------------------------------------
 .byte   W48
 .byte   W48
@  #10 @228   ----------------------------------------
 .byte   W48
 .byte   W48
@  #10 @229   ----------------------------------------
 .byte   W48
 .byte   W48
@  #10 @230   ----------------------------------------
 .byte   W48
 .byte   W48
@  #10 @231   ----------------------------------------
 .byte   W48
 .byte   W48
@  #10 @232   ----------------------------------------
 .byte   W48
 .byte   W48
@  #10 @233   ----------------------------------------
 .byte   W48
 .byte   W48
@  #10 @234   ----------------------------------------
 .byte   W48
 .byte   W48
@  #10 @235   ----------------------------------------
 .byte   W48
 .byte   W48
@  #10 @236   ----------------------------------------
 .byte   W48
 .byte   W48
@  #10 @237   ----------------------------------------
 .byte   W48
 .byte   W48
@  #10 @238   ----------------------------------------
 .byte   W48
 .byte   W48
@  #10 @239   ----------------------------------------
 .byte   W48
 .byte   W48
@  #10 @240   ----------------------------------------
 .byte   W48
 .byte   W48
@  #10 @241   ----------------------------------------
 .byte   W48
 .byte   W48
@  #10 @242   ----------------------------------------
 .byte   W48
 .byte   W48
@  #10 @243   ----------------------------------------
 .byte   W48
 .byte   W48
@  #10 @244   ----------------------------------------
 .byte   W48
 .byte   W48
@  #10 @245   ----------------------------------------
 .byte   W48
 .byte   W48
@  #10 @246   ----------------------------------------
 .byte   W48
 .byte   W48
@  #10 @247   ----------------------------------------
 .byte   W48
 .byte   W48
@  #10 @248   ----------------------------------------
 .byte   W48
 .byte   W48
@  #10 @249   ----------------------------------------
 .byte   W48
 .byte   W48
@  #10 @250   ----------------------------------------
 .byte   W48
 .byte   W48
@  #10 @251   ----------------------------------------
 .byte   W48
 .byte   W48
@  #10 @252   ----------------------------------------
 .byte   W48
 .byte   W48
@  #10 @253   ----------------------------------------
 .byte   W48
 .byte   W48
@  #10 @254   ----------------------------------------
 .byte   W48
 .byte   W48
@  #10 @255   ----------------------------------------
 .byte   W48
 .byte   W48
@  #10 @256   ----------------------------------------
 .byte   W48
 .byte   W48
@  #10 @257   ----------------------------------------
 .byte   W48
 .byte   W48
@  #10 @258   ----------------------------------------
 .byte   W48
 .byte   W48
@  #10 @259   ----------------------------------------
 .byte   W48
 .byte   W48
@  #10 @260   ----------------------------------------
 .byte   W48
 .byte   W48
@  #10 @261   ----------------------------------------
 .byte   W48
 .byte   W48
@  #10 @262   ----------------------------------------
 .byte   W48
 .byte   W48
@  #10 @263   ----------------------------------------
 .byte   W48
 .byte   W48
@  #10 @264   ----------------------------------------
 .byte   W48
 .byte   W48
@  #10 @265   ----------------------------------------
 .byte   W48
 .byte   W48
@  #10 @266   ----------------------------------------
 .byte   W48
 .byte   W48
@  #10 @267   ----------------------------------------
 .byte   W48
 .byte   W48
@  #10 @268   ----------------------------------------
 .byte   W48
 .byte   W48
@  #10 @269   ----------------------------------------
 .byte   W48
 .byte   W48
@  #10 @270   ----------------------------------------
 .byte   W48
 .byte   W48
@  #10 @271   ----------------------------------------
 .byte   W48
 .byte   W48
@  #10 @272   ----------------------------------------
 .byte   W48
 .byte   W48
@  #10 @273   ----------------------------------------
 .byte   W48
 .byte   W48
@  #10 @274   ----------------------------------------
 .byte   W48
 .byte   W48
@  #10 @275   ----------------------------------------
 .byte   W48
 .byte   W48
@  #10 @276   ----------------------------------------
 .byte   W48
 .byte   W48
@  #10 @277   ----------------------------------------
 .byte   W48
 .byte   W48
@  #10 @278   ----------------------------------------
 .byte   W48
 .byte   W48
@  #10 @279   ----------------------------------------
 .byte   W48
 .byte   W48
@  #10 @280   ----------------------------------------
 .byte   W48
 .byte   W48
@  #10 @281   ----------------------------------------
 .byte   W48
 .byte   W48
@  #10 @282   ----------------------------------------
 .byte   W48
 .byte   W48
@  #10 @283   ----------------------------------------
 .byte   W48
 .byte   W48
@  #10 @284   ----------------------------------------
 .byte   W48
 .byte   W48
@  #10 @285   ----------------------------------------
 .byte   W48
 .byte   W48
@  #10 @286   ----------------------------------------
 .byte   W48
 .byte   W48
@  #10 @287   ----------------------------------------
 .byte   W48
 .byte   W48
@  #10 @288   ----------------------------------------
 .byte   W48
 .byte   W48
@  #10 @289   ----------------------------------------
 .byte   W48
 .byte   W48
@  #10 @290   ----------------------------------------
 .byte   W48
 .byte   W48
@  #10 @291   ----------------------------------------
 .byte   W48
 .byte   W48
@  #10 @292   ----------------------------------------
 .byte   W48
 .byte   W48
@  #10 @293   ----------------------------------------
 .byte   PATT
  .word Label_0112B6E8
@  #10 @294   ----------------------------------------
 .byte   W24
 .byte   N68 ,Cn3 ,v080
 .byte   W24
 .byte   W48
@  #10 @295   ----------------------------------------
 .byte   N44 ,Bn2
 .byte   W48
@  #10 @296   ----------------------------------------
 .byte   PATT
  .word Label_0112B6F7
@  #10 @297   ----------------------------------------
 .byte   PATT
  .word Label_0112B6F7
@  #10 @298   ----------------------------------------
 .byte   PATT
  .word Label_0112B6F7
@  #10 @299   ----------------------------------------
 .byte   PATT
  .word Label_0112B6F7
@  #10 @300   ----------------------------------------
 .byte   PATT
  .word Label_0112B6E8
@  #10 @301   ----------------------------------------
 .byte   PATT
  .word Label_0112B716
@  #10 @302   ----------------------------------------
 .byte   W48
 .byte   W44
 .byte   W03
 .byte   EOT
 .byte   Bn2
 .byte   W01
@  #10 @303   ----------------------------------------
 .byte   PATT
  .word Label_0112B721
@  #10 @304   ----------------------------------------
 .byte   PATT
  .word Label_0112B6F7
@  #10 @305   ----------------------------------------
 .byte   PATT
  .word Label_0112B6F7
@  #10 @306   ----------------------------------------
 .byte   PATT
  .word Label_0112B6F7
@  #10 @307   ----------------------------------------
 .byte   PATT
  .word Label_0112B73B
@  #10 @308   ----------------------------------------
 .byte   PATT
  .word Label_0112B746
@  #10 @309   ----------------------------------------
 .byte   PATT
  .word Label_0112B751
@  #10 @310   ----------------------------------------
 .byte   PATT
  .word Label_0112B75C
@  #10 @311   ----------------------------------------
 .byte   PATT
  .word Label_0112B751
@  #10 @312   ----------------------------------------
 .byte   PATT
  .word Label_0112B75C
@  #10 @313   ----------------------------------------
 .byte   PATT
  .word Label_0112B746
@  #10 @314   ----------------------------------------
 .byte   PATT
  .word Label_0112B746
@  #10 @315   ----------------------------------------
 .byte   PATT
  .word Label_0112B779
@  #10 @316   ----------------------------------------
 .byte   PATT
  .word Label_0112B784
@  #10 @317   ----------------------------------------
 .byte   PATT
  .word Label_0112B78F
@  #10 @318   ----------------------------------------
 .byte   PATT
  .word Label_0112B78F
@  #10 @319   ----------------------------------------
 .byte   PATT
  .word Label_0112B79F
@  #10 @320   ----------------------------------------
 .byte   PATT
  .word Label_0112B79F
@  #10 @321   ----------------------------------------
 .byte   W48
@  #10 @322   ----------------------------------------
 .byte   PATT
  .word Label_0112B7B0
@  #10 @323   ----------------------------------------
 .byte   PATT
  .word Label_0112B7E4
@  #10 @324   ----------------------------------------
 .byte   W12
 .byte   N32 ,En2 ,v080
 .byte   W36
 .byte   N92 ,Gn2
 .byte   W48
@  #10 @325   ----------------------------------------
 .byte   W48
 .byte   An2
 .byte   W48
@  #10 @326   ----------------------------------------
 .byte   W48
 .byte   En2
 .byte   W48
@  #10 @327   ----------------------------------------
 .byte   W48
 .byte   Dn2
 .byte   W48
@  #10 @328   ----------------------------------------
 .byte   W48
 .byte   N44 ,En2
 .byte   W48
@  #10 @329   ----------------------------------------
 .byte   Gs2
 .byte   W48
 .byte   N92 ,An2
 .byte   W48
@  #10 @330   ----------------------------------------
 .byte   W48
@  #10 @331   ----------------------------------------
 .byte   PATT
  .word Label_0112B805
@  #10 @332   ----------------------------------------
 .byte   W24
 .byte   N23 ,Fs2 ,v080
 .byte   W24
@  #10 @333   ----------------------------------------
 .byte   PATT
  .word Label_0112B7E4
@  #10 @334   ----------------------------------------
 .byte   W12
 .byte   N32 ,Fn2 ,v080
 .byte   W36
 .byte   N92 ,Gn2
 .byte   W48
@  #10 @335   ----------------------------------------
 .byte   W48
 .byte   En2
 .byte   W48
@  #10 @336   ----------------------------------------
 .byte   W48
 .byte   N44 ,An2
 .byte   W48
@  #10 @337   ----------------------------------------
 .byte   PATT
  .word Label_0112B824
@  #10 @338   ----------------------------------------
 .byte   N92 ,Dn2 ,v080
 .byte   W48
 .byte   W48
@  #10 @339   ----------------------------------------
 .byte   En2
 .byte   W48
 .byte   W48
@  #10 @340   ----------------------------------------
 .byte   TIE ,An2
 .byte   W48
 .byte   W48
@  #10 @341   ----------------------------------------
 .byte   W48
 .byte   W44
 .byte   W03
 .byte   EOT
 .byte   W01
@  #10 @342   ----------------------------------------
 .byte   N44
 .byte   W48
 .byte   En2
 .byte   W48
@  #10 @343   ----------------------------------------
 .byte   PATT
  .word Label_0112B842
@  #10 @344   ----------------------------------------
 .byte   W24
 .byte   N23 ,Dn2 ,v080
 .byte   W24
 .byte   N44 ,Cn2
 .byte   W48
@  #10 @345   ----------------------------------------
 .byte   Bn1
 .byte   W48
 .byte   N92 ,Gn2
 .byte   W48
@  #10 @346   ----------------------------------------
 .byte   W48
 .byte   Fn2
 .byte   W48
@  #10 @347   ----------------------------------------
 .byte   W48
 .byte   N44 ,Bn2
 .byte   W48
@  #10 @348   ----------------------------------------
 .byte   Gs2
 .byte   W48
 .byte   N92 ,An2
 .byte   W48
@  #10 @349   ----------------------------------------
 .byte   W48
 .byte   Gn2
 .byte   W48
@  #10 @350   ----------------------------------------
 .byte   W48
 .byte   W48
@  #10 @351   ----------------------------------------
 .byte   W48
 .byte   W48
@  #10 @352   ----------------------------------------
 .byte   W48
 .byte   W48
@  #10 @353   ----------------------------------------
 .byte   W48
 .byte   W48
@  #10 @354   ----------------------------------------
 .byte   W48
 .byte   W48
@  #10 @355   ----------------------------------------
 .byte   W48
 .byte   W48
@  #10 @356   ----------------------------------------
 .byte   W48
 .byte   W48
@  #10 @357   ----------------------------------------
 .byte   W48
 .byte   W48
@  #10 @358   ----------------------------------------
 .byte   W48
 .byte   W48
@  #10 @359   ----------------------------------------
 .byte   W48
 .byte   W48
@  #10 @360   ----------------------------------------
 .byte   W48
 .byte   W48
@  #10 @361   ----------------------------------------
 .byte   W48
 .byte   W48
@  #10 @362   ----------------------------------------
 .byte   W48
 .byte   W48
@  #10 @363   ----------------------------------------
 .byte   W48
 .byte   W48
@  #10 @364   ----------------------------------------
 .byte   W48
 .byte   W48
@  #10 @365   ----------------------------------------
 .byte   W48
 .byte   W48
@  #10 @366   ----------------------------------------
 .byte   W48
 .byte   W48
@  #10 @367   ----------------------------------------
 .byte   W48
 .byte   W48
@  #10 @368   ----------------------------------------
 .byte   W48
 .byte   W48
@  #10 @369   ----------------------------------------
 .byte   W48
 .byte   W48
@  #10 @370   ----------------------------------------
 .byte   W48
 .byte   W48
@  #10 @371   ----------------------------------------
 .byte   W48
 .byte   W48
@  #10 @372   ----------------------------------------
 .byte   W48
 .byte   W48
@  #10 @373   ----------------------------------------
 .byte   W48
 .byte   W48
@  #10 @374   ----------------------------------------
 .byte   W48
 .byte   W48
@  #10 @375   ----------------------------------------
 .byte   W48
 .byte   W48
@  #10 @376   ----------------------------------------
 .byte   W48
 .byte   W48
@  #10 @377   ----------------------------------------
 .byte   W48
 .byte   W48
@  #10 @378   ----------------------------------------
 .byte   W48
 .byte   W48
@  #10 @379   ----------------------------------------
 .byte   W48
 .byte   W48
@  #10 @380   ----------------------------------------
 .byte   W48
 .byte   W48
@  #10 @381   ----------------------------------------
 .byte   W48
 .byte   W48
@  #10 @382   ----------------------------------------
 .byte   W48
 .byte   W48
@  #10 @383   ----------------------------------------
 .byte   W48
 .byte   W48
@  #10 @384   ----------------------------------------
 .byte   W48
 .byte   W48
@  #10 @385   ----------------------------------------
 .byte   W48
 .byte   W48
@  #10 @386   ----------------------------------------
 .byte   W48
 .byte   W48
@  #10 @387   ----------------------------------------
 .byte   W48
 .byte   W48
@  #10 @388   ----------------------------------------
 .byte   W48
 .byte   W48
@  #10 @389   ----------------------------------------
 .byte   W48
 .byte   W48
@  #10 @390   ----------------------------------------
 .byte   W48
 .byte   W48
@  #10 @391   ----------------------------------------
 .byte   W48
 .byte   W48
@  #10 @392   ----------------------------------------
 .byte   W48
 .byte   W48
@  #10 @393   ----------------------------------------
 .byte   W48
 .byte   W48
@  #10 @394   ----------------------------------------
 .byte   W48
 .byte   W48
@  #10 @395   ----------------------------------------
 .byte   W48
 .byte   W48
@  #10 @396   ----------------------------------------
 .byte   W48
 .byte   W48
@  #10 @397   ----------------------------------------
 .byte   W48
 .byte   W48
@  #10 @398   ----------------------------------------
 .byte   W48
 .byte   W48
@  #10 @399   ----------------------------------------
 .byte   W48
 .byte   W48
@  #10 @400   ----------------------------------------
 .byte   W48
 .byte   W48
@  #10 @401   ----------------------------------------
 .byte   W48
 .byte   W48
@  #10 @402   ----------------------------------------
 .byte   W44
 .byte   W03
 .byte   FINE

@**************** Track 11 (Midi-Chn.10) ****************@

.align 2, 0
song06_011:
@  #11 @000   ----------------------------------------
 .byte   KEYSH , song06_key+0
 .byte   VOICE , 46
 .byte   PAN , c_v-5
 .byte   VOL , 47*song06_mvl/mxv
 .byte   Dn3 ,v062
 .byte   Dn3 ,v062
 .byte   Dn3 ,v062
 .byte   Dn3 ,v062
 .byte   VOL , 47*song06_mvl/mxv
 .byte   W24
 .byte   N23 ,Dn3 ,v080
 .byte   W24
 .byte   En3
 .byte   W24
 .byte   Bn2
 .byte   W24
@  #11 @001   ----------------------------------------
 .byte   N92 ,Dn3
 .byte   W48
 .byte   W48
@  #11 @002   ----------------------------------------
 .byte   W24
 .byte   N23 ,Cn3
 .byte   W24
Label_01134C53:
 .byte   N23 ,Dn3 ,v080
 .byte   W24
 .byte   Bn2
 .byte   W24
 .byte   PEND 
@  #11 @003   ----------------------------------------
 .byte   N92 ,Gn2
 .byte   W48
 .byte   W48
@  #11 @004   ----------------------------------------
 .byte   W24
 .byte   N23 ,Dn3
 .byte   W24
 .byte   En3
 .byte   W24
 .byte   Bn2
 .byte   W24
@  #11 @005   ----------------------------------------
 .byte   N44 ,Cn3
 .byte   W48
 .byte   Bn2
 .byte   W48
@  #11 @006   ----------------------------------------
 .byte   Dn3
 .byte   W48
 .byte   Cn3
 .byte   W48
@  #11 @007   ----------------------------------------
 .byte   N44
 .byte   W48
 .byte   N44
 .byte   W48
@  #11 @008   ----------------------------------------
Label_01134C73:
 .byte   W48
 .byte   W48
@  #11 @009   ----------------------------------------
 .byte   W48
 .byte   W48
@  #11 @010   ----------------------------------------
 .byte   W48
 .byte   W48
@  #11 @011   ----------------------------------------
 .byte   W48
 .byte   W48
@  #11 @012   ----------------------------------------
 .byte   W48
 .byte   W48
@  #11 @013   ----------------------------------------
 .byte   W48
 .byte   W48
@  #11 @014   ----------------------------------------
 .byte   W48
 .byte   W48
@  #11 @015   ----------------------------------------
 .byte   W48
 .byte   W48
@  #11 @016   ----------------------------------------
Label_01134C83:
 .byte   N92 ,Cn3 ,v036
 .byte   W06
 .byte   W03
 .byte   W03
 .byte   W03
 .byte   W03
 .byte   W03
 .byte   W03
 .byte   W03
 .byte   W03
 .byte   W03
 .byte   W03
 .byte   W03
 .byte   W03
 .byte   W03
 .byte   W03
 .byte   PEND 
Label_01134C96:
 .byte   W03
 .byte   W03
 .byte   W03
 .byte   W04
 .byte   W03
 .byte   W03
 .byte   W03
 .byte   W03
 .byte   W03
 .byte   W03
 .byte   W03
 .byte   W03
 .byte   W03
 .byte   W03
 .byte   W03
 .byte   W02
 .byte   PEND 
@  #11 @017   ----------------------------------------
 .byte   N92 ,Cn3 ,v064
 .byte   W48
 .byte   W48
@  #11 @018   ----------------------------------------
Label_01134CAC:
 .byte   TIE ,Cn3 ,v064
 .byte   W09
 .byte   W04
 .byte   W05
 .byte   W05
 .byte   W04
 .byte   W05
 .byte   W04
 .byte   W05
 .byte   W05
 .byte   W02
 .byte   PEND 
Label_01134CBA:
 .byte   W02
 .byte   W05
 .byte   W04
 .byte   W05
 .byte   W05
 .byte   W04
 .byte   W05
 .byte   W04
 .byte   W05
 .byte   W05
 .byte   W04
 .byte   PEND 
@  #11 @019   ----------------------------------------
Label_01134CC6:
 .byte   W05
 .byte   W04
 .byte   W05
 .byte   W05
 .byte   W04
 .byte   W05
 .byte   W04
 .byte   W05
 .byte   W05
 .byte   W04
 .byte   W01
 .byte   PEND 
 .byte   EOT
 .byte   Cn3
 .byte   W01
 .byte   W48
@  #11 @020   ----------------------------------------
Label_01134CD6:
 .byte   N92 ,An2 ,v036
 .byte   W06
 .byte   W03
 .byte   W03
 .byte   W03
 .byte   W03
 .byte   W03
 .byte   W03
 .byte   W03
 .byte   W03
 .byte   W03
 .byte   W03
 .byte   W03
 .byte   W03
 .byte   W03
 .byte   W03
 .byte   PEND 
@  #11 @021   ----------------------------------------
 .byte   PATT
  .word Label_01134C96
@  #11 @022   ----------------------------------------
 .byte   N92 ,Bn2 ,v064
 .byte   W48
 .byte   W48
@  #11 @023   ----------------------------------------
Label_01134CF3:
 .byte   TIE ,Bn2 ,v064
 .byte   W09
 .byte   W04
 .byte   W05
 .byte   W05
 .byte   W04
 .byte   W05
 .byte   W04
 .byte   W05
 .byte   W05
 .byte   W02
 .byte   PEND 
@  #11 @024   ----------------------------------------
 .byte   PATT
  .word Label_01134CBA
@  #11 @025   ----------------------------------------
 .byte   PATT
  .word Label_01134CC6
@  #11 @026   ----------------------------------------
 .byte   EOT
 .byte   Bn2
 .byte   W01
 .byte   W48
@  #11 @027   ----------------------------------------
 .byte   PATT
  .word Label_01134C83
@  #11 @028   ----------------------------------------
 .byte   PATT
  .word Label_01134C96
@  #11 @029   ----------------------------------------
 .byte   N92 ,Cn3 ,v064
 .byte   W48
 .byte   W48
@  #11 @030   ----------------------------------------
 .byte   PATT
  .word Label_01134CAC
@  #11 @031   ----------------------------------------
 .byte   PATT
  .word Label_01134CBA
@  #11 @032   ----------------------------------------
 .byte   PATT
  .word Label_01134CC6
@  #11 @033   ----------------------------------------
 .byte   EOT
 .byte   Cn3
 .byte   W01
 .byte   W48
@  #11 @034   ----------------------------------------
 .byte   PATT
  .word Label_01134CD6
@  #11 @035   ----------------------------------------
 .byte   PATT
  .word Label_01134C96
@  #11 @036   ----------------------------------------
 .byte   N92 ,Bn2 ,v064
 .byte   W48
 .byte   W48
@  #11 @037   ----------------------------------------
Label_01134D40:
 .byte   TIE ,Bn2 ,v064
 .byte   W09
 .byte   W10
 .byte   W09
 .byte   W10
 .byte   W10
 .byte   PEND 
Label_01134D49:
 .byte   W09
 .byte   W10
 .byte   W09
 .byte   W10
 .byte   W10
 .byte   PEND 
@  #11 @038   ----------------------------------------
Label_01134D4F:
 .byte   W09
 .byte   W10
 .byte   W09
 .byte   W10
 .byte   W09
 .byte   PEND 
 .byte   EOT
 .byte   Bn2
 .byte   W01
 .byte   W48
@  #11 @039   ----------------------------------------
 .byte   W24
 .byte   N11 ,En3 ,v080
 .byte   W24
 .byte   W12
 .byte   N11
 .byte   W36
@  #11 @040   ----------------------------------------
 .byte   W24
 .byte   N11
 .byte   W24
 .byte   W48
@  #11 @041   ----------------------------------------
 .byte   W24
 .byte   Cn3
 .byte   W24
 .byte   W12
 .byte   N11
 .byte   W36
@  #11 @042   ----------------------------------------
 .byte   W24
 .byte   N11
 .byte   W24
Label_01134D6E:
 .byte   N11 ,Bn2 ,v080
 .byte   W24
 .byte   An2
 .byte   W24
 .byte   PEND 
@  #11 @043   ----------------------------------------
 .byte   W24
 .byte   Cn3
 .byte   W24
 .byte   W12
 .byte   N11
 .byte   W36
@  #11 @044   ----------------------------------------
 .byte   W24
 .byte   N11
 .byte   W24
Label_01134D7E:
 .byte   N11 ,Dn3 ,v080
 .byte   W24
 .byte   N11
 .byte   W24
 .byte   PEND 
@  #11 @045   ----------------------------------------
 .byte   W24
 .byte   N11
 .byte   W24
 .byte   W12
 .byte   N11
 .byte   W36
@  #11 @046   ----------------------------------------
 .byte   W24
 .byte   N11
 .byte   W24
@  #11 @047   ----------------------------------------
 .byte   PATT
  .word Label_01134D7E
@  #11 @048   ----------------------------------------
 .byte   W24
 .byte   N11 ,En3 ,v080
 .byte   W24
 .byte   W12
 .byte   N11
 .byte   W36
@  #11 @049   ----------------------------------------
 .byte   W24
 .byte   N11
 .byte   W24
 .byte   N11
 .byte   W24
 .byte   N11
 .byte   W24
@  #11 @050   ----------------------------------------
 .byte   W24
 .byte   N11
 .byte   W24
 .byte   W12
 .byte   N11
 .byte   W36
@  #11 @051   ----------------------------------------
 .byte   W24
 .byte   N11
 .byte   W24
 .byte   N11
 .byte   W24
 .byte   N11
 .byte   W24
@  #11 @052   ----------------------------------------
 .byte   W24
 .byte   Cn3
 .byte   W24
 .byte   W12
 .byte   N11
 .byte   W36
@  #11 @053   ----------------------------------------
 .byte   W24
 .byte   N11
 .byte   W24
Label_01134DB8:
 .byte   N11 ,Cn3 ,v080
 .byte   W24
 .byte   N11
 .byte   W24
 .byte   PEND 
@  #11 @054   ----------------------------------------
 .byte   N92
 .byte   W48
 .byte   W48
@  #11 @055   ----------------------------------------
 .byte   W48
 .byte   W48
@  #11 @056   ----------------------------------------
Label_01134DC4:
 .byte   N11 ,Fn1 ,v064
 .byte   N11 ,Gn3 ,v080
 .byte   W12
 .byte   Fn1 ,v064
 .byte   N11 ,Cn3 ,v080
 .byte   W12
 .byte   An2
 .byte   W12
 .byte   Cn1 ,v064
 .byte   N11 ,Cn3 ,v080
 .byte   W12
 .byte   PEND 
Label_01134DDA:
 .byte   N11 ,Cn1 ,v064
 .byte   N11 ,Gn3 ,v080
 .byte   W12
 .byte   Fn1 ,v064
 .byte   N11 ,Cn3 ,v080
 .byte   W12
 .byte   An2
 .byte   W12
 .byte   Cn3
 .byte   W12
 .byte   PEND 
@  #11 @057   ----------------------------------------
Label_01134DEC:
 .byte   N11 ,Fn1 ,v064
 .byte   N11 ,Fn3 ,v080
 .byte   W12
 .byte   Fn1 ,v064
 .byte   N11 ,Cn3 ,v080
 .byte   W12
 .byte   An2
 .byte   W12
 .byte   Cn1 ,v064
 .byte   N11 ,Cn3 ,v080
 .byte   W12
 .byte   PEND 
Label_01134E02:
 .byte   N11 ,Cn1 ,v064
 .byte   N11 ,Fn3 ,v080
 .byte   W12
 .byte   Fn1 ,v064
 .byte   N11 ,Cn3 ,v080
 .byte   W12
 .byte   An2
 .byte   W12
 .byte   Cn3
 .byte   W12
 .byte   PEND 
@  #11 @058   ----------------------------------------
Label_01134E14:
 .byte   N11 ,Gn1 ,v064
 .byte   N11 ,Dn3 ,v080
 .byte   W12
 .byte   Gn1 ,v064
 .byte   N11 ,Gn2 ,v080
 .byte   W12
 .byte   Bn2
 .byte   W12
 .byte   Gn1 ,v064
 .byte   N11 ,Gn2 ,v080
 .byte   W12
 .byte   PEND 
Label_01134E2A:
 .byte   N11 ,Gn1 ,v064
 .byte   N11 ,Dn3 ,v080
 .byte   W12
 .byte   Gn1 ,v064
 .byte   N11 ,Gn2 ,v080
 .byte   W12
 .byte   Bn2
 .byte   W12
 .byte   Gn2
 .byte   W12
 .byte   PEND 
@  #11 @059   ----------------------------------------
Label_01134E3C:
 .byte   N11 ,Gn1 ,v064
 .byte   N11 ,Dn3 ,v080
 .byte   W12
 .byte   Gn1 ,v064
 .byte   N11 ,Gn2 ,v080
 .byte   W12
 .byte   Bn2
 .byte   W12
 .byte   Dn1 ,v064
 .byte   N11 ,Gn2 ,v080
 .byte   W12
 .byte   PEND 
Label_01134E52:
 .byte   N11 ,Dn1 ,v064
 .byte   N11 ,Dn3 ,v080
 .byte   W12
 .byte   Gn1 ,v064
 .byte   N11 ,Gn2 ,v080
 .byte   W12
 .byte   Bn2
 .byte   W12
 .byte   Gn2
 .byte   W12
 .byte   PEND 
@  #11 @060   ----------------------------------------
Label_01134E64:
 .byte   N11 ,An1 ,v064
 .byte   N11 ,Gn3 ,v080
 .byte   W12
 .byte   An1 ,v064
 .byte   N11 ,Cn3 ,v080
 .byte   W12
 .byte   Bn2
 .byte   W12
 .byte   An1 ,v064
 .byte   N11 ,Cn3 ,v080
 .byte   W12
 .byte   PEND 
Label_01134E7A:
 .byte   N11 ,An1 ,v064
 .byte   N11 ,Gn3 ,v080
 .byte   W12
 .byte   An1 ,v064
 .byte   N11 ,Cn3 ,v080
 .byte   W12
 .byte   Bn2
 .byte   W12
 .byte   Cn3
 .byte   W12
 .byte   PEND 
@  #11 @061   ----------------------------------------
Label_01134E8C:
 .byte   N11 ,An1 ,v064
 .byte   N11 ,Fn3 ,v080
 .byte   W12
 .byte   An1 ,v064
 .byte   N11 ,Cn3 ,v080
 .byte   W12
 .byte   Bn2
 .byte   W12
 .byte   An1 ,v064
 .byte   N11 ,Cn3 ,v080
 .byte   W12
 .byte   PEND 
Label_01134EA2:
 .byte   N11 ,An1 ,v064
 .byte   N11 ,Fn3 ,v080
 .byte   W12
 .byte   An1 ,v064
 .byte   N11 ,Cn3 ,v080
 .byte   W12
 .byte   Bn2
 .byte   W12
 .byte   Cn3
 .byte   W12
 .byte   PEND 
@  #11 @062   ----------------------------------------
Label_01134EB4:
 .byte   N11 ,An1 ,v064
 .byte   N11 ,Bn3 ,v080
 .byte   W12
 .byte   An1 ,v064
 .byte   N11 ,Gn3 ,v080
 .byte   W12
 .byte   Dn3
 .byte   W12
 .byte   An1 ,v064
 .byte   N11 ,Gn3 ,v080
 .byte   W12
 .byte   PEND 
Label_01134ECA:
 .byte   N11 ,An1 ,v064
 .byte   N11 ,Bn3 ,v080
 .byte   W12
 .byte   An1 ,v064
 .byte   N11 ,Gn3 ,v080
 .byte   W12
 .byte   Dn3
 .byte   W12
 .byte   Gn3
 .byte   W12
 .byte   PEND 
@  #11 @063   ----------------------------------------
Label_01134EDC:
 .byte   N11 ,An1 ,v064
 .byte   N11 ,Cn4 ,v080
 .byte   W12
 .byte   An1 ,v064
 .byte   N11 ,Gn3 ,v080
 .byte   W12
 .byte   Dn3
 .byte   W12
 .byte   An1 ,v064
 .byte   N11 ,Gn3 ,v080
 .byte   W12
 .byte   PEND 
Label_01134EF2:
 .byte   N11 ,An1 ,v064
 .byte   N11 ,Cn4 ,v080
 .byte   W12
 .byte   An1 ,v064
 .byte   N11 ,Gn3 ,v080
 .byte   W12
 .byte   Dn3
 .byte   W12
 .byte   Gn3
 .byte   W12
 .byte   PEND 
@  #11 @064   ----------------------------------------
Label_01134F04:
 .byte   N11 ,Fn1 ,v064
 .byte   N11 ,Dn4 ,v080
 .byte   W12
 .byte   Fn1 ,v064
 .byte   N11 ,En4 ,v080
 .byte   W12
 .byte   Bn3
 .byte   W12
 .byte   Cn1 ,v064
 .byte   N11 ,An3 ,v080
 .byte   W12
 .byte   PEND 
Label_01134F1A:
 .byte   N11 ,Cn1 ,v064
 .byte   N11 ,Gn3 ,v080
 .byte   W12
 .byte   Fn1 ,v064
 .byte   N11 ,En3 ,v080
 .byte   W12
 .byte   Cn3
 .byte   W12
 .byte   Gn2
 .byte   W12
 .byte   PEND 
@  #11 @065   ----------------------------------------
 .byte   PATT
  .word Label_01134F04
@  #11 @066   ----------------------------------------
 .byte   PATT
  .word Label_01134F1A
@  #11 @067   ----------------------------------------
Label_01134F36:
 .byte   N11 ,Gn1 ,v064
 .byte   N11 ,Dn4 ,v080
 .byte   W12
 .byte   Gn1 ,v064
 .byte   N11 ,En4 ,v080
 .byte   W12
 .byte   Bn3
 .byte   W12
 .byte   Dn1 ,v064
 .byte   N11 ,An3 ,v080
 .byte   W12
 .byte   PEND 
Label_01134F4C:
 .byte   N11 ,Dn1 ,v064
 .byte   N11 ,Gn3 ,v080
 .byte   W12
 .byte   Gn1 ,v064
 .byte   N11 ,En3 ,v080
 .byte   W12
 .byte   Cn3
 .byte   W12
 .byte   Gn2
 .byte   W12
 .byte   PEND 
@  #11 @068   ----------------------------------------
 .byte   PATT
  .word Label_01134F36
@  #11 @069   ----------------------------------------
 .byte   PATT
  .word Label_01134F4C
@  #11 @070   ----------------------------------------
Label_01134F68:
 .byte   N11 ,Dn1 ,v064
 .byte   N11 ,An3 ,v080
 .byte   W12
 .byte   Dn1 ,v064
 .byte   N11 ,Cn3 ,v080
 .byte   W12
 .byte   En3
 .byte   W12
 .byte   Dn1 ,v064
 .byte   N11 ,Cn3 ,v080
 .byte   W12
 .byte   PEND 
Label_01134F7E:
 .byte   N11 ,An3 ,v080
 .byte   W12
 .byte   Dn1 ,v064
 .byte   N11 ,Cn3 ,v080
 .byte   W12
 .byte   En3
 .byte   W12
 .byte   Cn3
 .byte   W12
 .byte   PEND 
@  #11 @071   ----------------------------------------
Label_01134F8D:
 .byte   N11 ,En1 ,v064
 .byte   N11 ,Gs3 ,v080
 .byte   W12
 .byte   En1 ,v064
 .byte   N11 ,Bn2 ,v080
 .byte   W12
 .byte   Dn3
 .byte   W12
 .byte   En1 ,v064
 .byte   N11 ,Bn2 ,v080
 .byte   W12
 .byte   PEND 
Label_01134FA3:
 .byte   N11 ,Gs3 ,v080
 .byte   W12
 .byte   En1 ,v064
 .byte   N11 ,Bn2 ,v080
 .byte   W12
 .byte   Dn3
 .byte   W12
 .byte   Bn2
 .byte   W12
 .byte   PEND 
@  #11 @072   ----------------------------------------
Label_01134FB2:
 .byte   N11 ,An1 ,v064
 .byte   N11 ,Bn3 ,v080
 .byte   W12
 .byte   An1 ,v064
 .byte   N11 ,Dn3 ,v080
 .byte   W12
 .byte   En3
 .byte   W12
 .byte   An1 ,v064
 .byte   N11 ,Dn3 ,v080
 .byte   W12
 .byte   PEND 
Label_01134FC8:
 .byte   N11 ,An3 ,v080
 .byte   W12
 .byte   An1 ,v064
 .byte   N11 ,Dn3 ,v080
 .byte   W12
 .byte   En3
 .byte   W12
 .byte   Dn3
 .byte   W12
 .byte   PEND 
@  #11 @073   ----------------------------------------
Label_01134FD7:
 .byte   N11 ,Gn1 ,v064
 .byte   N11 ,Gn3 ,v080
 .byte   W12
 .byte   Gn1 ,v064
 .byte   N11 ,Cn3 ,v080
 .byte   W12
 .byte   Bn2
 .byte   W12
 .byte   Gn1 ,v064
 .byte   N11 ,Cn3 ,v080
 .byte   W12
 .byte   PEND 
Label_01134FED:
 .byte   N11 ,Gn3 ,v080
 .byte   W12
 .byte   Gn1 ,v064
 .byte   N11 ,Cn3 ,v080
 .byte   W12
 .byte   Bn2
 .byte   W12
 .byte   Cn3
 .byte   W12
 .byte   PEND 
@  #11 @074   ----------------------------------------
Label_01134FFC:
 .byte   N11 ,Fn1 ,v080
 .byte   W24
 .byte   N11
 .byte   W24
 .byte   PEND 
@  #11 @075   ----------------------------------------
 .byte   PATT
  .word Label_01134FFC
@  #11 @076   ----------------------------------------
 .byte   PATT
  .word Label_01134FFC
@  #11 @077   ----------------------------------------
Label_0113500D:
 .byte   N11 ,Fn1 ,v080
 .byte   W24
 .byte   Cn1
 .byte   W12
 .byte   En1
 .byte   W12
 .byte   PEND 
@  #11 @078   ----------------------------------------
 .byte   PATT
  .word Label_01134FFC
@  #11 @079   ----------------------------------------
 .byte   PATT
  .word Label_01134FFC
@  #11 @080   ----------------------------------------
 .byte   PATT
  .word Label_01134FFC
@  #11 @081   ----------------------------------------
Label_01135025:
 .byte   N11 ,Fn1 ,v080
 .byte   W24
 .byte   Gn1
 .byte   W12
 .byte   Fn1
 .byte   W12
 .byte   PEND 
Label_0113502E:
 .byte   N11 ,En1 ,v080
 .byte   W24
 .byte   N11
 .byte   W24
 .byte   PEND 
@  #11 @082   ----------------------------------------
 .byte   PATT
  .word Label_0113502E
@  #11 @083   ----------------------------------------
 .byte   PATT
  .word Label_0113502E
@  #11 @084   ----------------------------------------
 .byte   PATT
  .word Label_0113502E
@  #11 @085   ----------------------------------------
Label_01135044:
 .byte   N11 ,An1 ,v080
 .byte   W24
 .byte   N11
 .byte   W24
 .byte   PEND 
@  #11 @086   ----------------------------------------
 .byte   PATT
  .word Label_01135044
@  #11 @087   ----------------------------------------
Label_01135050:
 .byte   N11 ,An1 ,v080
 .byte   W12
 .byte   Cn2
 .byte   W12
 .byte   Bn1
 .byte   W12
 .byte   Gn1
 .byte   W12
 .byte   PEND 
Label_0113505B:
 .byte   N11 ,Dn1 ,v080
 .byte   W12
 .byte   En1
 .byte   W12
 .byte   N05
 .byte   W06
 .byte   Dn1
 .byte   W06
 .byte   Cn1
 .byte   W06
 .byte   Bn0
 .byte   W06
 .byte   PEND 
@  #11 @088   ----------------------------------------
 .byte   PATT
  .word Label_01134FFC
@  #11 @089   ----------------------------------------
 .byte   PATT
  .word Label_01134FFC
@  #11 @090   ----------------------------------------
 .byte   PATT
  .word Label_01134FFC
@  #11 @091   ----------------------------------------
 .byte   PATT
  .word Label_0113500D
@  #11 @092   ----------------------------------------
 .byte   PATT
  .word Label_01134FFC
@  #11 @093   ----------------------------------------
 .byte   PATT
  .word Label_01134FFC
@  #11 @094   ----------------------------------------
 .byte   PATT
  .word Label_01134FFC
@  #11 @095   ----------------------------------------
 .byte   PATT
  .word Label_01135025
@  #11 @096   ----------------------------------------
 .byte   PATT
  .word Label_0113502E
@  #11 @097   ----------------------------------------
 .byte   PATT
  .word Label_0113502E
@  #11 @098   ----------------------------------------
 .byte   PATT
  .word Label_0113502E
@  #11 @099   ----------------------------------------
 .byte   PATT
  .word Label_0113502E
@  #11 @100   ----------------------------------------
 .byte   PATT
  .word Label_0113502E
@  #11 @101   ----------------------------------------
 .byte   PATT
  .word Label_0113502E
@  #11 @102   ----------------------------------------
 .byte   N92 ,En1 ,v080
 .byte   W48
 .byte   W48
@  #11 @103   ----------------------------------------
 .byte   W48
 .byte   W48
@  #11 @104   ----------------------------------------
 .byte   W48
 .byte   W48
@  #11 @105   ----------------------------------------
 .byte   W48
 .byte   W48
@  #11 @106   ----------------------------------------
 .byte   W48
 .byte   W48
@  #11 @107   ----------------------------------------
 .byte   W48
 .byte   W48
@  #11 @108   ----------------------------------------
 .byte   W48
 .byte   W48
@  #11 @109   ----------------------------------------
 .byte   W48
 .byte   W48
@  #11 @110   ----------------------------------------
 .byte   W48
 .byte   W48
@  #11 @111   ----------------------------------------
 .byte   W48
 .byte   W48
@  #11 @112   ----------------------------------------
 .byte   W48
 .byte   W48
@  #11 @113   ----------------------------------------
 .byte   W48
 .byte   W48
@  #11 @114   ----------------------------------------
 .byte   W48
 .byte   W48
@  #11 @115   ----------------------------------------
 .byte   W48
 .byte   W48
@  #11 @116   ----------------------------------------
 .byte   W48
 .byte   W48
@  #11 @117   ----------------------------------------
 .byte   W48
 .byte   W48
@  #11 @118   ----------------------------------------
 .byte   W48
 .byte   W48
@  #11 @119   ----------------------------------------
 .byte   W48
 .byte   W48
@  #11 @120   ----------------------------------------
 .byte   W48
 .byte   W48
@  #11 @121   ----------------------------------------
 .byte   W48
 .byte   W48
@  #11 @122   ----------------------------------------
 .byte   W48
 .byte   W48
@  #11 @123   ----------------------------------------
 .byte   W48
 .byte   W48
@  #11 @124   ----------------------------------------
 .byte   W48
 .byte   W48
@  #11 @125   ----------------------------------------
 .byte   W48
 .byte   W48
@  #11 @126   ----------------------------------------
 .byte   W48
 .byte   W48
@  #11 @127   ----------------------------------------
 .byte   W48
 .byte   W48
@  #11 @128   ----------------------------------------
 .byte   W48
 .byte   W48
@  #11 @129   ----------------------------------------
 .byte   W48
 .byte   W48
@  #11 @130   ----------------------------------------
 .byte   W48
 .byte   W48
@  #11 @131   ----------------------------------------
 .byte   W48
 .byte   W48
@  #11 @132   ----------------------------------------
 .byte   W48
 .byte   W48
@  #11 @133   ----------------------------------------
 .byte   W48
 .byte   W48
@  #11 @134   ----------------------------------------
 .byte   W48
 .byte   W48
@  #11 @135   ----------------------------------------
 .byte   W48
 .byte   W48
@  #11 @136   ----------------------------------------
 .byte   W48
 .byte   W48
@  #11 @137   ----------------------------------------
 .byte   W48
 .byte   W48
@  #11 @138   ----------------------------------------
 .byte   W48
 .byte   W48
@  #11 @139   ----------------------------------------
 .byte   W48
 .byte   W48
@  #11 @140   ----------------------------------------
 .byte   W48
 .byte   W48
@  #11 @141   ----------------------------------------
 .byte   W48
 .byte   W48
@  #11 @142   ----------------------------------------
 .byte   W48
 .byte   W48
@  #11 @143   ----------------------------------------
 .byte   W48
 .byte   W48
@  #11 @144   ----------------------------------------
 .byte   W48
 .byte   W48
@  #11 @145   ----------------------------------------
 .byte   W48
 .byte   W48
@  #11 @146   ----------------------------------------
 .byte   W48
 .byte   W48
@  #11 @147   ----------------------------------------
 .byte   W48
 .byte   W48
@  #11 @148   ----------------------------------------
 .byte   W48
 .byte   W48
@  #11 @149   ----------------------------------------
 .byte   W48
 .byte   W48
@  #11 @150   ----------------------------------------
 .byte   W48
 .byte   W48
@  #11 @151   ----------------------------------------
 .byte   W48
 .byte   W48
@  #11 @152   ----------------------------------------
 .byte   W48
 .byte   W48
@  #11 @153   ----------------------------------------
 .byte   W48
 .byte   W48
@  #11 @154   ----------------------------------------
 .byte   W48
 .byte   W48
@  #11 @155   ----------------------------------------
 .byte   W48
 .byte   W48
@  #11 @156   ----------------------------------------
 .byte   W48
 .byte   W48
@  #11 @157   ----------------------------------------
 .byte   W48
 .byte   W48
@  #11 @158   ----------------------------------------
 .byte   W48
 .byte   W48
@  #11 @159   ----------------------------------------
Label_01135125:
 .byte   W12
 .byte   N11 ,Bn2 ,v080
 .byte   W24
 .byte   N11
 .byte   W12
 .byte   PEND 
@  #11 @160   ----------------------------------------
 .byte   PATT
  .word Label_01135125
@  #11 @161   ----------------------------------------
 .byte   PATT
  .word Label_01135125
@  #11 @162   ----------------------------------------
 .byte   PATT
  .word Label_01135125
@  #11 @163   ----------------------------------------
 .byte   PATT
  .word Label_01135125
@  #11 @164   ----------------------------------------
 .byte   PATT
  .word Label_01135125
@  #11 @165   ----------------------------------------
 .byte   PATT
  .word Label_01135125
@  #11 @166   ----------------------------------------
 .byte   PATT
  .word Label_01135125
@  #11 @167   ----------------------------------------
 .byte   PATT
  .word Label_01135125
@  #11 @168   ----------------------------------------
 .byte   PATT
  .word Label_01135125
@  #11 @169   ----------------------------------------
 .byte   PATT
  .word Label_01135125
@  #11 @170   ----------------------------------------
 .byte   PATT
  .word Label_01135125
@  #11 @171   ----------------------------------------
 .byte   W48
 .byte   W48
@  #11 @172   ----------------------------------------
 .byte   W48
 .byte   W48
@  #11 @173   ----------------------------------------
 .byte   W48
 .byte   W48
@  #11 @174   ----------------------------------------
Label_0113516A:
 .byte   N32 ,Cs3 ,v096
 .byte   W36
 .byte   Ds3
 .byte   W12
 .byte   PEND 
 .byte   W24
 .byte   N23 ,Cn3
 .byte   W24
@  #11 @175   ----------------------------------------
 .byte   N92 ,Cs3
 .byte   W48
 .byte   W48
@  #11 @176   ----------------------------------------
 .byte   PATT
  .word Label_0113516A
@  #11 @177   ----------------------------------------
 .byte   W24
 .byte   N23 ,Cn3 ,v096
 .byte   W24
 .byte   N92 ,Gs2
 .byte   W48
@  #11 @178   ----------------------------------------
 .byte   W48
@  #11 @179   ----------------------------------------
 .byte   PATT
  .word Label_0113516A
@  #11 @180   ----------------------------------------
 .byte   W24
 .byte   N23 ,Cn3 ,v096
 .byte   W24
 .byte   N44 ,Cs3
 .byte   W48
@  #11 @181   ----------------------------------------
 .byte   Gs3
 .byte   W48
Label_01135196:
 .byte   N23 ,Gs3 ,v096
 .byte   W24
 .byte   Fs3
 .byte   W24
 .byte   PEND 
@  #11 @182   ----------------------------------------
Label_0113519D:
 .byte   N23 ,Fn3 ,v096
 .byte   W24
 .byte   N11 ,Ds3
 .byte   W12
 .byte   TIE ,Fn3
 .byte   W12
 .byte   PEND 
 .byte   W48
@  #11 @183   ----------------------------------------
 .byte   W44
 .byte   W03
 .byte   EOT
 .byte   W01
@  #11 @184   ----------------------------------------
 .byte   PATT
  .word Label_0113516A
@  #11 @185   ----------------------------------------
 .byte   W24
 .byte   N23 ,Cn3 ,v096
 .byte   W24
 .byte   N92 ,Cs3
 .byte   W48
@  #11 @186   ----------------------------------------
 .byte   W48
@  #11 @187   ----------------------------------------
 .byte   PATT
  .word Label_0113516A
@  #11 @188   ----------------------------------------
 .byte   W24
 .byte   N23 ,Cn3 ,v096
 .byte   W24
 .byte   N44 ,Gs2
 .byte   W48
@  #11 @189   ----------------------------------------
 .byte   Gs3
 .byte   W48
@  #11 @190   ----------------------------------------
 .byte   PATT
  .word Label_01135196
@  #11 @191   ----------------------------------------
Label_011351CF:
 .byte   N23 ,Fn3 ,v096
 .byte   W24
 .byte   Ds3
 .byte   W24
 .byte   PEND 
 .byte   N44 ,Cs3
 .byte   W48
@  #11 @192   ----------------------------------------
 .byte   Fn3
 .byte   W48
 .byte   Ds3
 .byte   W48
@  #11 @193   ----------------------------------------
 .byte   TIE ,Cs3
 .byte   W48
 .byte   W48
@  #11 @194   ----------------------------------------
 .byte   W44
 .byte   W03
 .byte   EOT
 .byte   W01
 .byte   W48
@  #11 @195   ----------------------------------------
 .byte   W48
 .byte   W48
@  #11 @196   ----------------------------------------
 .byte   W48
 .byte   W48
@  #11 @197   ----------------------------------------
 .byte   W48
 .byte   W48
@  #11 @198   ----------------------------------------
 .byte   W48
 .byte   W48
@  #11 @199   ----------------------------------------
 .byte   W48
 .byte   W48
@  #11 @200   ----------------------------------------
 .byte   W48
 .byte   W48
@  #11 @201   ----------------------------------------
 .byte   W48
 .byte   W48
@  #11 @202   ----------------------------------------
 .byte   W48
 .byte   W48
@  #11 @203   ----------------------------------------
 .byte   W48
 .byte   W48
@  #11 @204   ----------------------------------------
 .byte   W48
 .byte   W48
@  #11 @205   ----------------------------------------
 .byte   W48
 .byte   W48
@  #11 @206   ----------------------------------------
 .byte   W48
 .byte   W48
@  #11 @207   ----------------------------------------
 .byte   W48
 .byte   W48
@  #11 @208   ----------------------------------------
 .byte   W48
 .byte   W48
@  #11 @209   ----------------------------------------
 .byte   W48
 .byte   W48
@  #11 @210   ----------------------------------------
 .byte   W48
 .byte   W48
@  #11 @211   ----------------------------------------
 .byte   W48
 .byte   W48
@  #11 @212   ----------------------------------------
 .byte   W48
 .byte   W48
@  #11 @213   ----------------------------------------
 .byte   W48
 .byte   W48
@  #11 @214   ----------------------------------------
 .byte   W48
 .byte   W48
@  #11 @215   ----------------------------------------
 .byte   W48
 .byte   W48
@  #11 @216   ----------------------------------------
 .byte   W48
 .byte   W48
@  #11 @217   ----------------------------------------
 .byte   W48
 .byte   W48
@  #11 @218   ----------------------------------------
 .byte   W48
 .byte   W48
@  #11 @219   ----------------------------------------
 .byte   W48
 .byte   W48
@  #11 @220   ----------------------------------------
 .byte   W48
 .byte   W48
@  #11 @221   ----------------------------------------
 .byte   W48
 .byte   W24
 .byte   N23 ,Dn3 ,v080
 .byte   W24
@  #11 @222   ----------------------------------------
 .byte   En3
 .byte   W24
 .byte   Bn2
 .byte   W24
 .byte   N92 ,Dn3
 .byte   W48
@  #11 @223   ----------------------------------------
 .byte   W48
 .byte   W24
 .byte   N23 ,Cn3
 .byte   W24
@  #11 @224   ----------------------------------------
 .byte   PATT
  .word Label_01134C53
@  #11 @225   ----------------------------------------
 .byte   N92 ,Gn2 ,v080
 .byte   W48
 .byte   W48
@  #11 @226   ----------------------------------------
 .byte   W24
 .byte   N23 ,Dn3
 .byte   W24
 .byte   En3
 .byte   W24
 .byte   Bn2
 .byte   W24
@  #11 @227   ----------------------------------------
 .byte   N44 ,Cn3
 .byte   W48
 .byte   Bn2
 .byte   W48
@  #11 @228   ----------------------------------------
 .byte   Dn3
 .byte   W48
 .byte   Cn3
 .byte   W48
@  #11 @229   ----------------------------------------
 .byte   N44
 .byte   W48
 .byte   N44
 .byte   W48
@  #11 @230   ----------------------------------------
 .byte   GOTO
  .word Label_01134C73
@  #11 @231   ----------------------------------------
 .byte   W48
 .byte   W48
@  #11 @232   ----------------------------------------
 .byte   W48
 .byte   W48
@  #11 @233   ----------------------------------------
 .byte   W48
 .byte   W48
@  #11 @234   ----------------------------------------
 .byte   W48
 .byte   W48
@  #11 @235   ----------------------------------------
 .byte   W48
 .byte   W48
@  #11 @236   ----------------------------------------
 .byte   W48
 .byte   W48
@  #11 @237   ----------------------------------------
 .byte   W48
 .byte   W48
@  #11 @238   ----------------------------------------
 .byte   W48
 .byte   W48
@  #11 @239   ----------------------------------------
 .byte   PATT
  .word Label_01134C83
@  #11 @240   ----------------------------------------
 .byte   PATT
  .word Label_01134C96
@  #11 @241   ----------------------------------------
 .byte   N92 ,Cn3 ,v064
 .byte   W48
 .byte   W48
@  #11 @242   ----------------------------------------
 .byte   PATT
  .word Label_01134CAC
@  #11 @243   ----------------------------------------
 .byte   PATT
  .word Label_01134CBA
@  #11 @244   ----------------------------------------
 .byte   PATT
  .word Label_01134CC6
@  #11 @245   ----------------------------------------
 .byte   EOT
 .byte   Cn3
 .byte   W01
 .byte   W48
@  #11 @246   ----------------------------------------
 .byte   PATT
  .word Label_01134CD6
@  #11 @247   ----------------------------------------
 .byte   PATT
  .word Label_01134C96
@  #11 @248   ----------------------------------------
 .byte   N92 ,Bn2 ,v064
 .byte   W48
 .byte   W48
@  #11 @249   ----------------------------------------
 .byte   PATT
  .word Label_01134CF3
@  #11 @250   ----------------------------------------
 .byte   PATT
  .word Label_01134CBA
@  #11 @251   ----------------------------------------
 .byte   PATT
  .word Label_01134CC6
@  #11 @252   ----------------------------------------
 .byte   EOT
 .byte   Bn2
 .byte   W01
 .byte   W48
@  #11 @253   ----------------------------------------
 .byte   PATT
  .word Label_01134C83
@  #11 @254   ----------------------------------------
 .byte   PATT
  .word Label_01134C96
@  #11 @255   ----------------------------------------
 .byte   N92 ,Cn3 ,v064
 .byte   W48
 .byte   W48
@  #11 @256   ----------------------------------------
 .byte   PATT
  .word Label_01134CAC
@  #11 @257   ----------------------------------------
 .byte   PATT
  .word Label_01134CBA
@  #11 @258   ----------------------------------------
 .byte   PATT
  .word Label_01134CC6
@  #11 @259   ----------------------------------------
 .byte   EOT
 .byte   Cn3
 .byte   W01
 .byte   W48
@  #11 @260   ----------------------------------------
 .byte   PATT
  .word Label_01134CD6
@  #11 @261   ----------------------------------------
 .byte   PATT
  .word Label_01134C96
@  #11 @262   ----------------------------------------
 .byte   N92 ,Bn2 ,v064
 .byte   W48
 .byte   W48
@  #11 @263   ----------------------------------------
 .byte   PATT
  .word Label_01134D40
@  #11 @264   ----------------------------------------
 .byte   PATT
  .word Label_01134D49
@  #11 @265   ----------------------------------------
 .byte   PATT
  .word Label_01134D4F
@  #11 @266   ----------------------------------------
 .byte   EOT
 .byte   Bn2
 .byte   W01
 .byte   W48
 .byte   W24
 .byte   N11 ,En3 ,v080
 .byte   W24
@  #11 @267   ----------------------------------------
 .byte   W12
 .byte   N11
 .byte   W36
 .byte   W24
 .byte   N11
 .byte   W24
@  #11 @268   ----------------------------------------
 .byte   W48
 .byte   W24
 .byte   Cn3
 .byte   W24
@  #11 @269   ----------------------------------------
 .byte   W12
 .byte   N11
 .byte   W36
 .byte   W24
 .byte   N11
 .byte   W24
@  #11 @270   ----------------------------------------
 .byte   PATT
  .word Label_01134D6E
@  #11 @271   ----------------------------------------
 .byte   W24
 .byte   N11 ,Cn3 ,v080
 .byte   W24
 .byte   W12
 .byte   N11
 .byte   W36
@  #11 @272   ----------------------------------------
 .byte   W24
 .byte   N11
 .byte   W24
@  #11 @273   ----------------------------------------
 .byte   PATT
  .word Label_01134D7E
@  #11 @274   ----------------------------------------
 .byte   W24
 .byte   N11 ,Dn3 ,v080
 .byte   W24
 .byte   W12
 .byte   N11
 .byte   W36
@  #11 @275   ----------------------------------------
 .byte   W24
 .byte   N11
 .byte   W24
@  #11 @276   ----------------------------------------
 .byte   PATT
  .word Label_01134D7E
@  #11 @277   ----------------------------------------
 .byte   W24
 .byte   N11 ,En3 ,v080
 .byte   W24
 .byte   W12
 .byte   N11
 .byte   W36
@  #11 @278   ----------------------------------------
 .byte   W24
 .byte   N11
 .byte   W24
 .byte   N11
 .byte   W24
 .byte   N11
 .byte   W24
@  #11 @279   ----------------------------------------
 .byte   W24
 .byte   N11
 .byte   W24
 .byte   W12
 .byte   N11
 .byte   W36
@  #11 @280   ----------------------------------------
 .byte   W24
 .byte   N11
 .byte   W24
 .byte   N11
 .byte   W24
 .byte   N11
 .byte   W24
@  #11 @281   ----------------------------------------
 .byte   W24
 .byte   Cn3
 .byte   W24
 .byte   W12
 .byte   N11
 .byte   W36
@  #11 @282   ----------------------------------------
 .byte   W24
 .byte   N11
 .byte   W24
@  #11 @283   ----------------------------------------
 .byte   PATT
  .word Label_01134DB8
@  #11 @284   ----------------------------------------
 .byte   N92 ,Cn3 ,v080
 .byte   W48
 .byte   W48
@  #11 @285   ----------------------------------------
 .byte   W48
 .byte   W48
@  #11 @286   ----------------------------------------
 .byte   PATT
  .word Label_01134DC4
@  #11 @287   ----------------------------------------
 .byte   PATT
  .word Label_01134DDA
@  #11 @288   ----------------------------------------
 .byte   PATT
  .word Label_01134DEC
@  #11 @289   ----------------------------------------
 .byte   PATT
  .word Label_01134E02
@  #11 @290   ----------------------------------------
 .byte   PATT
  .word Label_01134E14
@  #11 @291   ----------------------------------------
 .byte   PATT
  .word Label_01134E2A
@  #11 @292   ----------------------------------------
 .byte   PATT
  .word Label_01134E3C
@  #11 @293   ----------------------------------------
 .byte   PATT
  .word Label_01134E52
@  #11 @294   ----------------------------------------
 .byte   PATT
  .word Label_01134E64
@  #11 @295   ----------------------------------------
 .byte   PATT
  .word Label_01134E7A
@  #11 @296   ----------------------------------------
 .byte   PATT
  .word Label_01134E8C
@  #11 @297   ----------------------------------------
 .byte   PATT
  .word Label_01134EA2
@  #11 @298   ----------------------------------------
 .byte   PATT
  .word Label_01134EB4
@  #11 @299   ----------------------------------------
 .byte   PATT
  .word Label_01134ECA
@  #11 @300   ----------------------------------------
 .byte   PATT
  .word Label_01134EDC
@  #11 @301   ----------------------------------------
 .byte   PATT
  .word Label_01134EF2
@  #11 @302   ----------------------------------------
 .byte   PATT
  .word Label_01134F04
@  #11 @303   ----------------------------------------
 .byte   PATT
  .word Label_01134F1A
@  #11 @304   ----------------------------------------
 .byte   PATT
  .word Label_01134F04
@  #11 @305   ----------------------------------------
 .byte   PATT
  .word Label_01134F1A
@  #11 @306   ----------------------------------------
 .byte   PATT
  .word Label_01134F36
@  #11 @307   ----------------------------------------
 .byte   PATT
  .word Label_01134F4C
@  #11 @308   ----------------------------------------
 .byte   PATT
  .word Label_01134F36
@  #11 @309   ----------------------------------------
 .byte   PATT
  .word Label_01134F4C
@  #11 @310   ----------------------------------------
 .byte   PATT
  .word Label_01134F68
@  #11 @311   ----------------------------------------
 .byte   PATT
  .word Label_01134F7E
@  #11 @312   ----------------------------------------
 .byte   PATT
  .word Label_01134F8D
@  #11 @313   ----------------------------------------
 .byte   PATT
  .word Label_01134FA3
@  #11 @314   ----------------------------------------
 .byte   PATT
  .word Label_01134FB2
@  #11 @315   ----------------------------------------
 .byte   PATT
  .word Label_01134FC8
@  #11 @316   ----------------------------------------
 .byte   PATT
  .word Label_01134FD7
@  #11 @317   ----------------------------------------
 .byte   PATT
  .word Label_01134FED
@  #11 @318   ----------------------------------------
 .byte   PATT
  .word Label_01134FFC
@  #11 @319   ----------------------------------------
 .byte   PATT
  .word Label_01134FFC
@  #11 @320   ----------------------------------------
 .byte   PATT
  .word Label_01134FFC
@  #11 @321   ----------------------------------------
 .byte   PATT
  .word Label_0113500D
@  #11 @322   ----------------------------------------
 .byte   PATT
  .word Label_01134FFC
@  #11 @323   ----------------------------------------
 .byte   PATT
  .word Label_01134FFC
@  #11 @324   ----------------------------------------
 .byte   PATT
  .word Label_01134FFC
@  #11 @325   ----------------------------------------
 .byte   PATT
  .word Label_01135025
@  #11 @326   ----------------------------------------
 .byte   PATT
  .word Label_0113502E
@  #11 @327   ----------------------------------------
 .byte   PATT
  .word Label_0113502E
@  #11 @328   ----------------------------------------
 .byte   PATT
  .word Label_0113502E
@  #11 @329   ----------------------------------------
 .byte   PATT
  .word Label_0113502E
@  #11 @330   ----------------------------------------
 .byte   PATT
  .word Label_01135044
@  #11 @331   ----------------------------------------
 .byte   PATT
  .word Label_01135044
@  #11 @332   ----------------------------------------
 .byte   PATT
  .word Label_01135050
@  #11 @333   ----------------------------------------
 .byte   PATT
  .word Label_0113505B
@  #11 @334   ----------------------------------------
 .byte   PATT
  .word Label_01134FFC
@  #11 @335   ----------------------------------------
 .byte   PATT
  .word Label_01134FFC
@  #11 @336   ----------------------------------------
 .byte   PATT
  .word Label_01134FFC
@  #11 @337   ----------------------------------------
 .byte   PATT
  .word Label_0113500D
@  #11 @338   ----------------------------------------
 .byte   PATT
  .word Label_01134FFC
@  #11 @339   ----------------------------------------
 .byte   PATT
  .word Label_01134FFC
@  #11 @340   ----------------------------------------
 .byte   PATT
  .word Label_01134FFC
@  #11 @341   ----------------------------------------
 .byte   PATT
  .word Label_01135025
@  #11 @342   ----------------------------------------
 .byte   PATT
  .word Label_0113502E
@  #11 @343   ----------------------------------------
 .byte   PATT
  .word Label_0113502E
@  #11 @344   ----------------------------------------
 .byte   PATT
  .word Label_0113502E
@  #11 @345   ----------------------------------------
 .byte   PATT
  .word Label_0113502E
@  #11 @346   ----------------------------------------
 .byte   PATT
  .word Label_0113502E
@  #11 @347   ----------------------------------------
 .byte   PATT
  .word Label_0113502E
@  #11 @348   ----------------------------------------
 .byte   N92 ,En1 ,v080
 .byte   W48
 .byte   W48
@  #11 @349   ----------------------------------------
 .byte   W48
 .byte   W48
@  #11 @350   ----------------------------------------
 .byte   W48
 .byte   W48
@  #11 @351   ----------------------------------------
 .byte   W48
 .byte   W48
@  #11 @352   ----------------------------------------
 .byte   W48
 .byte   W48
@  #11 @353   ----------------------------------------
 .byte   W48
 .byte   W48
@  #11 @354   ----------------------------------------
 .byte   W48
 .byte   W48
@  #11 @355   ----------------------------------------
 .byte   W48
 .byte   W48
@  #11 @356   ----------------------------------------
 .byte   W48
 .byte   W48
@  #11 @357   ----------------------------------------
 .byte   W48
 .byte   W48
@  #11 @358   ----------------------------------------
 .byte   W48
 .byte   W48
@  #11 @359   ----------------------------------------
 .byte   W48
 .byte   W48
@  #11 @360   ----------------------------------------
 .byte   W48
 .byte   W48
@  #11 @361   ----------------------------------------
 .byte   W48
 .byte   W48
@  #11 @362   ----------------------------------------
 .byte   W48
 .byte   W48
@  #11 @363   ----------------------------------------
 .byte   W48
 .byte   W48
@  #11 @364   ----------------------------------------
 .byte   W48
 .byte   W48
@  #11 @365   ----------------------------------------
 .byte   W48
 .byte   W48
@  #11 @366   ----------------------------------------
 .byte   W48
 .byte   W48
@  #11 @367   ----------------------------------------
 .byte   W48
 .byte   W48
@  #11 @368   ----------------------------------------
 .byte   W48
 .byte   W48
@  #11 @369   ----------------------------------------
 .byte   W48
 .byte   W48
@  #11 @370   ----------------------------------------
 .byte   W48
 .byte   W48
@  #11 @371   ----------------------------------------
 .byte   W48
 .byte   W48
@  #11 @372   ----------------------------------------
 .byte   W48
 .byte   W48
@  #11 @373   ----------------------------------------
 .byte   W48
 .byte   W48
@  #11 @374   ----------------------------------------
 .byte   W48
 .byte   W48
@  #11 @375   ----------------------------------------
 .byte   W48
 .byte   W48
@  #11 @376   ----------------------------------------
 .byte   W48
 .byte   W48
@  #11 @377   ----------------------------------------
 .byte   W48
 .byte   W48
@  #11 @378   ----------------------------------------
 .byte   W48
 .byte   W48
@  #11 @379   ----------------------------------------
 .byte   W48
 .byte   W48
@  #11 @380   ----------------------------------------
 .byte   W48
 .byte   W48
@  #11 @381   ----------------------------------------
 .byte   W48
 .byte   W48
@  #11 @382   ----------------------------------------
 .byte   W48
 .byte   W48
@  #11 @383   ----------------------------------------
 .byte   W48
 .byte   W48
@  #11 @384   ----------------------------------------
 .byte   W48
 .byte   W48
@  #11 @385   ----------------------------------------
 .byte   W48
 .byte   W48
@  #11 @386   ----------------------------------------
 .byte   W48
 .byte   W48
@  #11 @387   ----------------------------------------
 .byte   W48
 .byte   W48
@  #11 @388   ----------------------------------------
 .byte   W48
 .byte   W48
@  #11 @389   ----------------------------------------
 .byte   W48
 .byte   W48
@  #11 @390   ----------------------------------------
 .byte   W48
 .byte   W48
@  #11 @391   ----------------------------------------
 .byte   W48
 .byte   W48
@  #11 @392   ----------------------------------------
 .byte   W48
 .byte   W48
@  #11 @393   ----------------------------------------
 .byte   W48
 .byte   W48
@  #11 @394   ----------------------------------------
 .byte   W48
 .byte   W48
@  #11 @395   ----------------------------------------
 .byte   W48
 .byte   W48
@  #11 @396   ----------------------------------------
 .byte   W48
 .byte   W48
@  #11 @397   ----------------------------------------
 .byte   W48
 .byte   W48
@  #11 @398   ----------------------------------------
 .byte   W48
 .byte   W48
@  #11 @399   ----------------------------------------
 .byte   W48
 .byte   W48
@  #11 @400   ----------------------------------------
 .byte   W48
 .byte   W48
@  #11 @401   ----------------------------------------
 .byte   W48
 .byte   W48
@  #11 @402   ----------------------------------------
 .byte   W48
 .byte   W48
@  #11 @403   ----------------------------------------
 .byte   W48
 .byte   W48
@  #11 @404   ----------------------------------------
 .byte   W48
 .byte   W48
@  #11 @405   ----------------------------------------
 .byte   PATT
  .word Label_01135125
@  #11 @406   ----------------------------------------
 .byte   PATT
  .word Label_01135125
@  #11 @407   ----------------------------------------
 .byte   PATT
  .word Label_01135125
@  #11 @408   ----------------------------------------
 .byte   PATT
  .word Label_01135125
@  #11 @409   ----------------------------------------
 .byte   PATT
  .word Label_01135125
@  #11 @410   ----------------------------------------
 .byte   PATT
  .word Label_01135125
@  #11 @411   ----------------------------------------
 .byte   PATT
  .word Label_01135125
@  #11 @412   ----------------------------------------
 .byte   PATT
  .word Label_01135125
@  #11 @413   ----------------------------------------
 .byte   PATT
  .word Label_01135125
@  #11 @414   ----------------------------------------
 .byte   PATT
  .word Label_01135125
@  #11 @415   ----------------------------------------
 .byte   PATT
  .word Label_01135125
@  #11 @416   ----------------------------------------
 .byte   PATT
  .word Label_01135125
@  #11 @417   ----------------------------------------
 .byte   W48
 .byte   W48
@  #11 @418   ----------------------------------------
 .byte   W48
 .byte   W48
@  #11 @419   ----------------------------------------
 .byte   W48
 .byte   W48
@  #11 @420   ----------------------------------------
 .byte   PATT
  .word Label_0113516A
@  #11 @421   ----------------------------------------
 .byte   W24
 .byte   N23 ,Cn3 ,v096
 .byte   W24
 .byte   N92 ,Cs3
 .byte   W48
@  #11 @422   ----------------------------------------
 .byte   W48
@  #11 @423   ----------------------------------------
 .byte   PATT
  .word Label_0113516A
@  #11 @424   ----------------------------------------
 .byte   W24
 .byte   N23 ,Cn3 ,v096
 .byte   W24
 .byte   N92 ,Gs2
 .byte   W48
@  #11 @425   ----------------------------------------
 .byte   W48
@  #11 @426   ----------------------------------------
 .byte   PATT
  .word Label_0113516A
@  #11 @427   ----------------------------------------
 .byte   W24
 .byte   N23 ,Cn3 ,v096
 .byte   W24
 .byte   N44 ,Cs3
 .byte   W48
@  #11 @428   ----------------------------------------
 .byte   Gs3
 .byte   W48
@  #11 @429   ----------------------------------------
 .byte   PATT
  .word Label_01135196
@  #11 @430   ----------------------------------------
 .byte   PATT
  .word Label_0113519D
@  #11 @431   ----------------------------------------
 .byte   W48
 .byte   W44
 .byte   W03
 .byte   EOT
 .byte   Fn3
 .byte   W01
@  #11 @432   ----------------------------------------
 .byte   PATT
  .word Label_0113516A
@  #11 @433   ----------------------------------------
 .byte   W24
 .byte   N23 ,Cn3 ,v096
 .byte   W24
 .byte   N92 ,Cs3
 .byte   W48
@  #11 @434   ----------------------------------------
 .byte   W48
@  #11 @435   ----------------------------------------
 .byte   PATT
  .word Label_0113516A
@  #11 @436   ----------------------------------------
 .byte   W24
 .byte   N23 ,Cn3 ,v096
 .byte   W24
 .byte   N44 ,Gs2
 .byte   W48
@  #11 @437   ----------------------------------------
 .byte   Gs3
 .byte   W48
@  #11 @438   ----------------------------------------
 .byte   PATT
  .word Label_01135196
@  #11 @439   ----------------------------------------
 .byte   PATT
  .word Label_011351CF
@  #11 @440   ----------------------------------------
 .byte   N44 ,Cs3 ,v096
 .byte   W48
 .byte   Fn3
 .byte   W48
@  #11 @441   ----------------------------------------
 .byte   Ds3
 .byte   W48
 .byte   TIE ,Cs3
 .byte   W48
@  #11 @442   ----------------------------------------
 .byte   W48
 .byte   W44
 .byte   W03
 .byte   EOT
 .byte   W01
@  #11 @443   ----------------------------------------
 .byte   W48
 .byte   W48
@  #11 @444   ----------------------------------------
 .byte   W48
 .byte   W48
@  #11 @445   ----------------------------------------
 .byte   W48
 .byte   W48
@  #11 @446   ----------------------------------------
 .byte   W48
 .byte   W48
@  #11 @447   ----------------------------------------
 .byte   W48
 .byte   W48
@  #11 @448   ----------------------------------------
 .byte   W48
 .byte   W48
@  #11 @449   ----------------------------------------
 .byte   W48
 .byte   W48
@  #11 @450   ----------------------------------------
 .byte   W48
 .byte   W48
@  #11 @451   ----------------------------------------
 .byte   W48
 .byte   W48
@  #11 @452   ----------------------------------------
 .byte   W48
 .byte   W48
@  #11 @453   ----------------------------------------
 .byte   W48
 .byte   W48
@  #11 @454   ----------------------------------------
 .byte   W48
 .byte   W48
@  #11 @455   ----------------------------------------
 .byte   W48
 .byte   W48
@  #11 @456   ----------------------------------------
 .byte   W48
 .byte   W48
@  #11 @457   ----------------------------------------
 .byte   W48
 .byte   W48
@  #11 @458   ----------------------------------------
 .byte   W48
 .byte   W48
@  #11 @459   ----------------------------------------
 .byte   W48
 .byte   W48
@  #11 @460   ----------------------------------------
 .byte   W48
 .byte   W48
@  #11 @461   ----------------------------------------
 .byte   W48
 .byte   W48
@  #11 @462   ----------------------------------------
 .byte   W48
 .byte   W48
@  #11 @463   ----------------------------------------
 .byte   W48
 .byte   W48
@  #11 @464   ----------------------------------------
 .byte   W48
 .byte   W48
@  #11 @465   ----------------------------------------
 .byte   W48
 .byte   W48
@  #11 @466   ----------------------------------------
 .byte   W48
 .byte   W48
@  #11 @467   ----------------------------------------
 .byte   W48
 .byte   W48
@  #11 @468   ----------------------------------------
 .byte   W48
 .byte   W48
@  #11 @469   ----------------------------------------
 .byte   W48
 .byte   W44
 .byte   W03
 .byte   FINE

@**************** Track 12 (Midi-Chn.11) ****************@

.align 2, 0
song06_012:
@  #12 @000   ----------------------------------------
 .byte   KEYSH , song06_key+0
 .byte   VOICE , 110
 .byte   VOL , 47*song06_mvl/mxv
 .byte   PAN , c_v+0
 .byte   VOL , 47*song06_mvl/mxv
 .byte   PAN , c_v+0
 .byte   VOL , 47*song06_mvl/mxv
 .byte   PAN , c_v+0
 .byte   VOL , 47*song06_mvl/mxv
 .byte   PAN , c_v+0
 .byte   VOL , 47*song06_mvl/mxv
 .byte   PAN , c_v+0
 .byte   TIE ,An1 ,v064
 .byte   W48
 .byte   W48
@  #12 @001   ----------------------------------------
 .byte   W48
 .byte   W44
 .byte   W03
 .byte   EOT
 .byte   W01
@  #12 @002   ----------------------------------------
 .byte   TIE ,Fn1
 .byte   W48
 .byte   W48
@  #12 @003   ----------------------------------------
 .byte   W48
 .byte   W44
 .byte   W03
 .byte   EOT
 .byte   W01
@  #12 @004   ----------------------------------------
 .byte   N92 ,Dn1
 .byte   W48
 .byte   W48
@  #12 @005   ----------------------------------------
 .byte   En1
 .byte   W48
 .byte   W48
@  #12 @006   ----------------------------------------
 .byte   Fn1
 .byte   W48
 .byte   W48
@  #12 @007   ----------------------------------------
 .byte   Gn1
 .byte   W48
 .byte   W48
@  #12 @008   ----------------------------------------
Label_01135624:
 .byte   W48
 .byte   W48
@  #12 @009   ----------------------------------------
 .byte   W48
 .byte   W48
@  #12 @010   ----------------------------------------
 .byte   W48
 .byte   W48
@  #12 @011   ----------------------------------------
 .byte   W48
 .byte   W48
@  #12 @012   ----------------------------------------
 .byte   W48
 .byte   W48
@  #12 @013   ----------------------------------------
 .byte   W48
 .byte   W48
@  #12 @014   ----------------------------------------
 .byte   W48
 .byte   W48
@  #12 @015   ----------------------------------------
 .byte   W48
 .byte   W48
@  #12 @016   ----------------------------------------
 .byte   W48
 .byte   W48
@  #12 @017   ----------------------------------------
 .byte   W48
 .byte   W48
@  #12 @018   ----------------------------------------
 .byte   W48
 .byte   W48
@  #12 @019   ----------------------------------------
 .byte   W48
 .byte   W48
@  #12 @020   ----------------------------------------
 .byte   W48
 .byte   W48
@  #12 @021   ----------------------------------------
 .byte   W48
 .byte   W48
@  #12 @022   ----------------------------------------
 .byte   W48
 .byte   W48
@  #12 @023   ----------------------------------------
 .byte   W48
 .byte   W48
@  #12 @024   ----------------------------------------
 .byte   W48
 .byte   W48
@  #12 @025   ----------------------------------------
 .byte   W48
 .byte   W48
@  #12 @026   ----------------------------------------
 .byte   W48
 .byte   W48
@  #12 @027   ----------------------------------------
 .byte   W48
 .byte   W48
@  #12 @028   ----------------------------------------
 .byte   W48
 .byte   W48
@  #12 @029   ----------------------------------------
 .byte   W48
 .byte   W48
@  #12 @030   ----------------------------------------
 .byte   W48
 .byte   W48
@  #12 @031   ----------------------------------------
 .byte   W48
 .byte   W48
@  #12 @032   ----------------------------------------
 .byte   W48
 .byte   W48
@  #12 @033   ----------------------------------------
 .byte   W48
 .byte   W48
@  #12 @034   ----------------------------------------
 .byte   W48
 .byte   W48
@  #12 @035   ----------------------------------------
 .byte   W48
 .byte   W48
@  #12 @036   ----------------------------------------
 .byte   W48
 .byte   W48
@  #12 @037   ----------------------------------------
 .byte   W48
 .byte   W48
@  #12 @038   ----------------------------------------
 .byte   W48
 .byte   W48
@  #12 @039   ----------------------------------------
 .byte   W48
 .byte   W48
@  #12 @040   ----------------------------------------
 .byte   W48
 .byte   W48
@  #12 @041   ----------------------------------------
 .byte   W48
 .byte   W48
@  #12 @042   ----------------------------------------
 .byte   W48
 .byte   W48
@  #12 @043   ----------------------------------------
 .byte   W48
 .byte   W48
@  #12 @044   ----------------------------------------
 .byte   W48
 .byte   W48
@  #12 @045   ----------------------------------------
 .byte   W48
 .byte   W48
@  #12 @046   ----------------------------------------
 .byte   W48
 .byte   W48
@  #12 @047   ----------------------------------------
 .byte   W48
 .byte   W48
@  #12 @048   ----------------------------------------
Label_01135674:
 .byte   N11 ,An2 ,v080
 .byte   W12
 .byte   Fn2
 .byte   W24
 .byte   An2
 .byte   W12
 .byte   PEND 
@  #12 @049   ----------------------------------------
 .byte   PATT
  .word Label_01135674
@  #12 @050   ----------------------------------------
 .byte   PATT
  .word Label_01135674
@  #12 @051   ----------------------------------------
 .byte   PATT
  .word Label_01135674
@  #12 @052   ----------------------------------------
Label_0113568C:
 .byte   N11 ,Bn2 ,v080
 .byte   W12
 .byte   Gn2
 .byte   W24
 .byte   Bn2
 .byte   W12
 .byte   PEND 
@  #12 @053   ----------------------------------------
 .byte   PATT
  .word Label_0113568C
@  #12 @054   ----------------------------------------
 .byte   PATT
  .word Label_0113568C
@  #12 @055   ----------------------------------------
 .byte   PATT
  .word Label_0113568C
@  #12 @056   ----------------------------------------
Label_011356A4:
 .byte   N11 ,Cn3 ,v080
 .byte   W12
 .byte   Bn2
 .byte   W24
 .byte   Cn3
 .byte   W12
 .byte   PEND 
@  #12 @057   ----------------------------------------
 .byte   PATT
  .word Label_011356A4
@  #12 @058   ----------------------------------------
 .byte   PATT
  .word Label_011356A4
@  #12 @059   ----------------------------------------
 .byte   PATT
  .word Label_011356A4
@  #12 @060   ----------------------------------------
Label_011356BC:
 .byte   N11 ,Gn3 ,v080
 .byte   W12
 .byte   Gn2
 .byte   W12
 .byte   Dn3
 .byte   W12
 .byte   Gn2
 .byte   W12
 .byte   PEND 
@  #12 @061   ----------------------------------------
 .byte   PATT
  .word Label_011356BC
@  #12 @062   ----------------------------------------
 .byte   N44 ,Gn3 ,v080
 .byte   W48
Label_011356D0:
 .byte   N23 ,Fn3 ,v080
 .byte   W24
 .byte   En3
 .byte   W24
 .byte   PEND 
@  #12 @063   ----------------------------------------
Label_011356D7:
 .byte   N11 ,Dn3 ,v080
 .byte   W12
 .byte   N11
 .byte   W24
 .byte   N11
 .byte   W12
 .byte   PEND 
@  #12 @064   ----------------------------------------
 .byte   PATT
  .word Label_011356D7
@  #12 @065   ----------------------------------------
Label_011356E5:
 .byte   N11 ,En3 ,v080
 .byte   W12
 .byte   N11
 .byte   W24
 .byte   N11
 .byte   W12
 .byte   PEND 
@  #12 @066   ----------------------------------------
 .byte   PATT
  .word Label_011356E5
@  #12 @067   ----------------------------------------
Label_011356F3:
 .byte   N11 ,Dn2 ,v080
 .byte   W12
 .byte   Gn2
 .byte   W12
 .byte   Bn2
 .byte   W12
 .byte   Gn2
 .byte   W12
 .byte   PEND 
@  #12 @068   ----------------------------------------
 .byte   PATT
  .word Label_011356F3
@  #12 @069   ----------------------------------------
Label_01135703:
 .byte   N11 ,Dn2 ,v080
 .byte   W12
 .byte   Gn2
 .byte   W12
 .byte   Bn2
 .byte   W24
 .byte   PEND 
Label_0113570C:
 .byte   N23 ,Gn2 ,v080
 .byte   W24
 .byte   Bn2
 .byte   W24
 .byte   PEND 
@  #12 @070   ----------------------------------------
Label_01135713:
 .byte   N11 ,Cn3 ,v080
 .byte   W12
 .byte   N11
 .byte   W24
 .byte   N11
 .byte   W12
 .byte   PEND 
@  #12 @071   ----------------------------------------
 .byte   PATT
  .word Label_01135713
@  #12 @072   ----------------------------------------
Label_01135721:
 .byte   N11 ,Bn2 ,v080
 .byte   W12
 .byte   Gs2
 .byte   W24
 .byte   Bn2
 .byte   W12
 .byte   PEND 
@  #12 @073   ----------------------------------------
 .byte   PATT
  .word Label_01135721
@  #12 @074   ----------------------------------------
Label_0113572F:
 .byte   N11 ,Bn2 ,v080
 .byte   W12
 .byte   Gn2
 .byte   W12
 .byte   Dn2
 .byte   W12
 .byte   Gn2
 .byte   W12
 .byte   PEND 
Label_0113573A:
 .byte   N11 ,An2 ,v080
 .byte   W12
 .byte   Gn2
 .byte   W12
 .byte   Dn2
 .byte   W12
 .byte   Gn2
 .byte   W12
 .byte   PEND 
@  #12 @075   ----------------------------------------
Label_01135745:
 .byte   N11 ,Gn2 ,v080
 .byte   W12
 .byte   Dn2
 .byte   W12
 .byte   Gn2
 .byte   W12
 .byte   Dn2
 .byte   W12
 .byte   PEND 
@  #12 @076   ----------------------------------------
 .byte   PATT
  .word Label_01135745
@  #12 @077   ----------------------------------------
Label_01135755:
 .byte   N11 ,Fn2 ,v064
 .byte   W24
 .byte   N11
 .byte   W24
 .byte   PEND 
@  #12 @078   ----------------------------------------
 .byte   PATT
  .word Label_01135755
@  #12 @079   ----------------------------------------
 .byte   PATT
  .word Label_01135755
@  #12 @080   ----------------------------------------
Label_01135766:
 .byte   N11 ,Fn2 ,v064
 .byte   W24
 .byte   Cn2
 .byte   W12
 .byte   En2
 .byte   W12
 .byte   PEND 
@  #12 @081   ----------------------------------------
 .byte   PATT
  .word Label_01135755
@  #12 @082   ----------------------------------------
 .byte   PATT
  .word Label_01135755
@  #12 @083   ----------------------------------------
 .byte   PATT
  .word Label_01135755
@  #12 @084   ----------------------------------------
Label_0113577E:
 .byte   N11 ,Fn2 ,v064
 .byte   W24
 .byte   Gn2
 .byte   W12
 .byte   Fn2
 .byte   W12
 .byte   PEND 
Label_01135787:
 .byte   N11 ,En2 ,v064
 .byte   W24
 .byte   N11
 .byte   W24
 .byte   PEND 
@  #12 @085   ----------------------------------------
 .byte   PATT
  .word Label_01135787
@  #12 @086   ----------------------------------------
 .byte   PATT
  .word Label_01135787
@  #12 @087   ----------------------------------------
 .byte   PATT
  .word Label_01135787
@  #12 @088   ----------------------------------------
Label_0113579D:
 .byte   N11 ,An2 ,v064
 .byte   W24
 .byte   N11
 .byte   W24
 .byte   PEND 
@  #12 @089   ----------------------------------------
 .byte   PATT
  .word Label_0113579D
@  #12 @090   ----------------------------------------
Label_011357A9:
 .byte   N11 ,An2 ,v064
 .byte   W12
 .byte   Cn3
 .byte   W12
 .byte   Bn2
 .byte   W12
 .byte   Gn2
 .byte   W12
 .byte   PEND 
Label_011357B4:
 .byte   N11 ,Dn2 ,v064
 .byte   W12
 .byte   En2
 .byte   W12
 .byte   N05
 .byte   W06
 .byte   Dn2
 .byte   W06
 .byte   Cn2
 .byte   W06
 .byte   Bn1
 .byte   W06
 .byte   PEND 
@  #12 @091   ----------------------------------------
 .byte   PATT
  .word Label_01135755
@  #12 @092   ----------------------------------------
 .byte   PATT
  .word Label_01135755
@  #12 @093   ----------------------------------------
 .byte   PATT
  .word Label_01135755
@  #12 @094   ----------------------------------------
 .byte   PATT
  .word Label_01135766
@  #12 @095   ----------------------------------------
 .byte   PATT
  .word Label_01135755
@  #12 @096   ----------------------------------------
 .byte   PATT
  .word Label_01135755
@  #12 @097   ----------------------------------------
 .byte   PATT
  .word Label_01135755
@  #12 @098   ----------------------------------------
 .byte   PATT
  .word Label_0113577E
@  #12 @099   ----------------------------------------
 .byte   PATT
  .word Label_01135787
@  #12 @100   ----------------------------------------
 .byte   PATT
  .word Label_01135787
@  #12 @101   ----------------------------------------
 .byte   PATT
  .word Label_01135787
@  #12 @102   ----------------------------------------
 .byte   PATT
  .word Label_01135787
@  #12 @103   ----------------------------------------
 .byte   PATT
  .word Label_01135787
@  #12 @104   ----------------------------------------
 .byte   PATT
  .word Label_01135787
@  #12 @105   ----------------------------------------
 .byte   W48
 .byte   W48
@  #12 @106   ----------------------------------------
 .byte   W48
 .byte   W48
@  #12 @107   ----------------------------------------
 .byte   W48
 .byte   W48
@  #12 @108   ----------------------------------------
 .byte   W48
 .byte   W48
@  #12 @109   ----------------------------------------
 .byte   W48
 .byte   W48
@  #12 @110   ----------------------------------------
 .byte   W48
 .byte   W48
@  #12 @111   ----------------------------------------
 .byte   W48
 .byte   W48
@  #12 @112   ----------------------------------------
 .byte   W48
 .byte   W48
@  #12 @113   ----------------------------------------
 .byte   W48
 .byte   W48
@  #12 @114   ----------------------------------------
 .byte   W48
 .byte   W48
@  #12 @115   ----------------------------------------
 .byte   W48
 .byte   W48
@  #12 @116   ----------------------------------------
 .byte   W48
 .byte   W48
@  #12 @117   ----------------------------------------
 .byte   W48
 .byte   W48
@  #12 @118   ----------------------------------------
 .byte   W48
 .byte   W48
@  #12 @119   ----------------------------------------
 .byte   W48
 .byte   W48
@  #12 @120   ----------------------------------------
 .byte   W48
 .byte   W48
@  #12 @121   ----------------------------------------
 .byte   W48
 .byte   W48
@  #12 @122   ----------------------------------------
 .byte   W48
 .byte   W48
@  #12 @123   ----------------------------------------
 .byte   W48
 .byte   W48
@  #12 @124   ----------------------------------------
 .byte   W48
 .byte   W48
@  #12 @125   ----------------------------------------
 .byte   W48
 .byte   W48
@  #12 @126   ----------------------------------------
 .byte   W48
 .byte   W48
@  #12 @127   ----------------------------------------
 .byte   W48
 .byte   W48
@  #12 @128   ----------------------------------------
 .byte   W48
 .byte   W48
@  #12 @129   ----------------------------------------
 .byte   W48
 .byte   W48
@  #12 @130   ----------------------------------------
 .byte   W48
 .byte   W48
@  #12 @131   ----------------------------------------
 .byte   W48
 .byte   W48
@  #12 @132   ----------------------------------------
 .byte   W48
 .byte   W48
@  #12 @133   ----------------------------------------
 .byte   W48
 .byte   W48
@  #12 @134   ----------------------------------------
 .byte   W48
 .byte   W48
@  #12 @135   ----------------------------------------
 .byte   W48
 .byte   W48
@  #12 @136   ----------------------------------------
 .byte   W48
 .byte   W48
@  #12 @137   ----------------------------------------
 .byte   W48
 .byte   W48
@  #12 @138   ----------------------------------------
 .byte   W48
 .byte   W48
@  #12 @139   ----------------------------------------
 .byte   W48
 .byte   W48
@  #12 @140   ----------------------------------------
 .byte   W48
 .byte   W48
@  #12 @141   ----------------------------------------
 .byte   W48
 .byte   W48
@  #12 @142   ----------------------------------------
 .byte   W48
 .byte   W48
@  #12 @143   ----------------------------------------
 .byte   W48
 .byte   W48
@  #12 @144   ----------------------------------------
 .byte   W48
 .byte   W48
@  #12 @145   ----------------------------------------
 .byte   W48
 .byte   W48
@  #12 @146   ----------------------------------------
 .byte   W48
 .byte   W48
@  #12 @147   ----------------------------------------
 .byte   W48
 .byte   W48
@  #12 @148   ----------------------------------------
 .byte   W48
 .byte   W48
@  #12 @149   ----------------------------------------
 .byte   W48
 .byte   W48
@  #12 @150   ----------------------------------------
 .byte   W48
 .byte   W48
@  #12 @151   ----------------------------------------
 .byte   W48
 .byte   W48
@  #12 @152   ----------------------------------------
 .byte   W48
 .byte   W48
@  #12 @153   ----------------------------------------
 .byte   W48
 .byte   W48
@  #12 @154   ----------------------------------------
 .byte   W48
 .byte   W48
@  #12 @155   ----------------------------------------
 .byte   W48
 .byte   W48
@  #12 @156   ----------------------------------------
 .byte   W48
 .byte   W48
@  #12 @157   ----------------------------------------
 .byte   W48
 .byte   W48
@  #12 @158   ----------------------------------------
 .byte   W48
 .byte   W48
@  #12 @159   ----------------------------------------
 .byte   W48
 .byte   W48
@  #12 @160   ----------------------------------------
 .byte   W48
 .byte   W48
@  #12 @161   ----------------------------------------
 .byte   W48
 .byte   W48
@  #12 @162   ----------------------------------------
 .byte   W48
 .byte   W48
@  #12 @163   ----------------------------------------
 .byte   W48
 .byte   W48
@  #12 @164   ----------------------------------------
 .byte   W48
 .byte   W48
@  #12 @165   ----------------------------------------
 .byte   W48
 .byte   W48
@  #12 @166   ----------------------------------------
 .byte   W48
 .byte   W48
@  #12 @167   ----------------------------------------
 .byte   W48
 .byte   W48
@  #12 @168   ----------------------------------------
 .byte   W48
 .byte   W48
@  #12 @169   ----------------------------------------
 .byte   W48
 .byte   W48
@  #12 @170   ----------------------------------------
 .byte   W48
 .byte   W48
@  #12 @171   ----------------------------------------
 .byte   W48
 .byte   W48
@  #12 @172   ----------------------------------------
 .byte   W48
 .byte   W48
@  #12 @173   ----------------------------------------
 .byte   W48
 .byte   W48
@  #12 @174   ----------------------------------------
 .byte   W48
 .byte   W48
@  #12 @175   ----------------------------------------
 .byte   W48
 .byte   W48
@  #12 @176   ----------------------------------------
 .byte   W48
 .byte   W48
@  #12 @177   ----------------------------------------
 .byte   W48
 .byte   W48
@  #12 @178   ----------------------------------------
 .byte   W48
 .byte   W48
@  #12 @179   ----------------------------------------
 .byte   W48
 .byte   W48
@  #12 @180   ----------------------------------------
 .byte   W48
 .byte   W48
@  #12 @181   ----------------------------------------
 .byte   W48
 .byte   W48
@  #12 @182   ----------------------------------------
 .byte   W48
 .byte   W48
@  #12 @183   ----------------------------------------
 .byte   W48
 .byte   W48
@  #12 @184   ----------------------------------------
 .byte   W48
 .byte   W48
@  #12 @185   ----------------------------------------
 .byte   W48
 .byte   W48
@  #12 @186   ----------------------------------------
 .byte   W48
 .byte   W48
@  #12 @187   ----------------------------------------
 .byte   W48
 .byte   W48
@  #12 @188   ----------------------------------------
 .byte   W48
 .byte   W48
@  #12 @189   ----------------------------------------
 .byte   W48
 .byte   W48
@  #12 @190   ----------------------------------------
 .byte   W48
 .byte   W48
@  #12 @191   ----------------------------------------
 .byte   W48
 .byte   W48
@  #12 @192   ----------------------------------------
 .byte   W48
 .byte   W48
@  #12 @193   ----------------------------------------
 .byte   W48
 .byte   W48
@  #12 @194   ----------------------------------------
 .byte   W48
 .byte   W48
@  #12 @195   ----------------------------------------
 .byte   W48
 .byte   W48
@  #12 @196   ----------------------------------------
 .byte   W48
 .byte   W48
@  #12 @197   ----------------------------------------
 .byte   W48
 .byte   W48
@  #12 @198   ----------------------------------------
 .byte   W48
 .byte   W48
@  #12 @199   ----------------------------------------
 .byte   W48
 .byte   W48
@  #12 @200   ----------------------------------------
 .byte   W48
 .byte   W48
@  #12 @201   ----------------------------------------
 .byte   W48
 .byte   W48
@  #12 @202   ----------------------------------------
 .byte   W48
 .byte   W48
@  #12 @203   ----------------------------------------
 .byte   W48
 .byte   W48
@  #12 @204   ----------------------------------------
 .byte   W48
 .byte   W48
@  #12 @205   ----------------------------------------
 .byte   W48
 .byte   W48
@  #12 @206   ----------------------------------------
 .byte   W48
 .byte   W48
@  #12 @207   ----------------------------------------
 .byte   W48
 .byte   W48
@  #12 @208   ----------------------------------------
 .byte   W48
 .byte   W48
@  #12 @209   ----------------------------------------
 .byte   W48
 .byte   W48
@  #12 @210   ----------------------------------------
 .byte   W48
 .byte   W48
@  #12 @211   ----------------------------------------
 .byte   W48
 .byte   W48
@  #12 @212   ----------------------------------------
 .byte   W48
 .byte   W48
@  #12 @213   ----------------------------------------
 .byte   W48
 .byte   W48
@  #12 @214   ----------------------------------------
 .byte   TIE ,An1 ,v064
 .byte   W48
 .byte   W48
@  #12 @215   ----------------------------------------
 .byte   W48
 .byte   W44
 .byte   W03
 .byte   EOT
 .byte   W01
@  #12 @216   ----------------------------------------
 .byte   TIE ,Fn1
 .byte   W48
 .byte   W48
@  #12 @217   ----------------------------------------
 .byte   W48
 .byte   W44
 .byte   W03
 .byte   EOT
 .byte   W01
@  #12 @218   ----------------------------------------
 .byte   N92 ,Dn1
 .byte   W48
 .byte   W48
@  #12 @219   ----------------------------------------
 .byte   En1
 .byte   W48
 .byte   W48
@  #12 @220   ----------------------------------------
 .byte   Fn1
 .byte   W48
 .byte   W48
@  #12 @221   ----------------------------------------
 .byte   Gn1
 .byte   W48
 .byte   W48
@  #12 @222   ----------------------------------------
 .byte   GOTO
  .word Label_01135624
@  #12 @223   ----------------------------------------
 .byte   W48
 .byte   W48
@  #12 @224   ----------------------------------------
 .byte   W48
 .byte   W48
@  #12 @225   ----------------------------------------
 .byte   W48
 .byte   W48
@  #12 @226   ----------------------------------------
 .byte   W48
 .byte   W48
@  #12 @227   ----------------------------------------
 .byte   W48
 .byte   W48
@  #12 @228   ----------------------------------------
 .byte   W48
 .byte   W48
@  #12 @229   ----------------------------------------
 .byte   W48
 .byte   W48
@  #12 @230   ----------------------------------------
 .byte   W48
 .byte   W48
@  #12 @231   ----------------------------------------
 .byte   W48
 .byte   W48
@  #12 @232   ----------------------------------------
 .byte   W48
 .byte   W48
@  #12 @233   ----------------------------------------
 .byte   W48
 .byte   W48
@  #12 @234   ----------------------------------------
 .byte   W48
 .byte   W48
@  #12 @235   ----------------------------------------
 .byte   W48
 .byte   W48
@  #12 @236   ----------------------------------------
 .byte   W48
 .byte   W48
@  #12 @237   ----------------------------------------
 .byte   W48
 .byte   W48
@  #12 @238   ----------------------------------------
 .byte   W48
 .byte   W48
@  #12 @239   ----------------------------------------
 .byte   W48
 .byte   W48
@  #12 @240   ----------------------------------------
 .byte   W48
 .byte   W48
@  #12 @241   ----------------------------------------
 .byte   W48
 .byte   W48
@  #12 @242   ----------------------------------------
 .byte   W48
 .byte   W48
@  #12 @243   ----------------------------------------
 .byte   W48
 .byte   W48
@  #12 @244   ----------------------------------------
 .byte   W48
 .byte   W48
@  #12 @245   ----------------------------------------
 .byte   W48
 .byte   W48
@  #12 @246   ----------------------------------------
 .byte   W48
 .byte   W48
@  #12 @247   ----------------------------------------
 .byte   W48
 .byte   W48
@  #12 @248   ----------------------------------------
 .byte   W48
 .byte   W48
@  #12 @249   ----------------------------------------
 .byte   W48
 .byte   W48
@  #12 @250   ----------------------------------------
 .byte   W48
 .byte   W48
@  #12 @251   ----------------------------------------
 .byte   W48
 .byte   W48
@  #12 @252   ----------------------------------------
 .byte   W48
 .byte   W48
@  #12 @253   ----------------------------------------
 .byte   W48
 .byte   W48
@  #12 @254   ----------------------------------------
 .byte   W48
 .byte   W48
@  #12 @255   ----------------------------------------
 .byte   W48
 .byte   W48
@  #12 @256   ----------------------------------------
 .byte   W48
 .byte   W48
@  #12 @257   ----------------------------------------
 .byte   W48
 .byte   W48
@  #12 @258   ----------------------------------------
 .byte   W48
 .byte   W48
@  #12 @259   ----------------------------------------
 .byte   W48
 .byte   W48
@  #12 @260   ----------------------------------------
 .byte   W48
 .byte   W48
@  #12 @261   ----------------------------------------
 .byte   W48
 .byte   W48
@  #12 @262   ----------------------------------------
 .byte   W48
 .byte   W48
@  #12 @263   ----------------------------------------
 .byte   PATT
  .word Label_01135674
@  #12 @264   ----------------------------------------
 .byte   PATT
  .word Label_01135674
@  #12 @265   ----------------------------------------
 .byte   PATT
  .word Label_01135674
@  #12 @266   ----------------------------------------
 .byte   PATT
  .word Label_01135674
@  #12 @267   ----------------------------------------
 .byte   PATT
  .word Label_0113568C
@  #12 @268   ----------------------------------------
 .byte   PATT
  .word Label_0113568C
@  #12 @269   ----------------------------------------
 .byte   PATT
  .word Label_0113568C
@  #12 @270   ----------------------------------------
 .byte   PATT
  .word Label_0113568C
@  #12 @271   ----------------------------------------
 .byte   PATT
  .word Label_011356A4
@  #12 @272   ----------------------------------------
 .byte   PATT
  .word Label_011356A4
@  #12 @273   ----------------------------------------
 .byte   PATT
  .word Label_011356A4
@  #12 @274   ----------------------------------------
 .byte   PATT
  .word Label_011356A4
@  #12 @275   ----------------------------------------
 .byte   PATT
  .word Label_011356BC
@  #12 @276   ----------------------------------------
 .byte   PATT
  .word Label_011356BC
@  #12 @277   ----------------------------------------
 .byte   N44 ,Gn3 ,v080
 .byte   W48
@  #12 @278   ----------------------------------------
 .byte   PATT
  .word Label_011356D0
@  #12 @279   ----------------------------------------
 .byte   PATT
  .word Label_011356D7
@  #12 @280   ----------------------------------------
 .byte   PATT
  .word Label_011356D7
@  #12 @281   ----------------------------------------
 .byte   PATT
  .word Label_011356E5
@  #12 @282   ----------------------------------------
 .byte   PATT
  .word Label_011356E5
@  #12 @283   ----------------------------------------
 .byte   PATT
  .word Label_011356F3
@  #12 @284   ----------------------------------------
 .byte   PATT
  .word Label_011356F3
@  #12 @285   ----------------------------------------
 .byte   PATT
  .word Label_01135703
@  #12 @286   ----------------------------------------
 .byte   PATT
  .word Label_0113570C
@  #12 @287   ----------------------------------------
 .byte   PATT
  .word Label_01135713
@  #12 @288   ----------------------------------------
 .byte   PATT
  .word Label_01135713
@  #12 @289   ----------------------------------------
 .byte   PATT
  .word Label_01135721
@  #12 @290   ----------------------------------------
 .byte   PATT
  .word Label_01135721
@  #12 @291   ----------------------------------------
 .byte   PATT
  .word Label_0113572F
@  #12 @292   ----------------------------------------
 .byte   PATT
  .word Label_0113573A
@  #12 @293   ----------------------------------------
 .byte   PATT
  .word Label_01135745
@  #12 @294   ----------------------------------------
 .byte   PATT
  .word Label_01135745
@  #12 @295   ----------------------------------------
 .byte   PATT
  .word Label_01135755
@  #12 @296   ----------------------------------------
 .byte   PATT
  .word Label_01135755
@  #12 @297   ----------------------------------------
 .byte   PATT
  .word Label_01135755
@  #12 @298   ----------------------------------------
 .byte   PATT
  .word Label_01135766
@  #12 @299   ----------------------------------------
 .byte   PATT
  .word Label_01135755
@  #12 @300   ----------------------------------------
 .byte   PATT
  .word Label_01135755
@  #12 @301   ----------------------------------------
 .byte   PATT
  .word Label_01135755
@  #12 @302   ----------------------------------------
 .byte   PATT
  .word Label_0113577E
@  #12 @303   ----------------------------------------
 .byte   PATT
  .word Label_01135787
@  #12 @304   ----------------------------------------
 .byte   PATT
  .word Label_01135787
@  #12 @305   ----------------------------------------
 .byte   PATT
  .word Label_01135787
@  #12 @306   ----------------------------------------
 .byte   PATT
  .word Label_01135787
@  #12 @307   ----------------------------------------
 .byte   PATT
  .word Label_0113579D
@  #12 @308   ----------------------------------------
 .byte   PATT
  .word Label_0113579D
@  #12 @309   ----------------------------------------
 .byte   PATT
  .word Label_011357A9
@  #12 @310   ----------------------------------------
 .byte   PATT
  .word Label_011357B4
@  #12 @311   ----------------------------------------
 .byte   PATT
  .word Label_01135755
@  #12 @312   ----------------------------------------
 .byte   PATT
  .word Label_01135755
@  #12 @313   ----------------------------------------
 .byte   PATT
  .word Label_01135755
@  #12 @314   ----------------------------------------
 .byte   PATT
  .word Label_01135766
@  #12 @315   ----------------------------------------
 .byte   PATT
  .word Label_01135755
@  #12 @316   ----------------------------------------
 .byte   PATT
  .word Label_01135755
@  #12 @317   ----------------------------------------
 .byte   PATT
  .word Label_01135755
@  #12 @318   ----------------------------------------
 .byte   PATT
  .word Label_0113577E
@  #12 @319   ----------------------------------------
 .byte   PATT
  .word Label_01135787
@  #12 @320   ----------------------------------------
 .byte   PATT
  .word Label_01135787
@  #12 @321   ----------------------------------------
 .byte   PATT
  .word Label_01135787
@  #12 @322   ----------------------------------------
 .byte   PATT
  .word Label_01135787
@  #12 @323   ----------------------------------------
 .byte   PATT
  .word Label_01135787
@  #12 @324   ----------------------------------------
 .byte   PATT
  .word Label_01135787
@  #12 @325   ----------------------------------------
 .byte   W48
 .byte   W48
@  #12 @326   ----------------------------------------
 .byte   W48
 .byte   W48
@  #12 @327   ----------------------------------------
 .byte   W48
 .byte   W48
@  #12 @328   ----------------------------------------
 .byte   W48
 .byte   W48
@  #12 @329   ----------------------------------------
 .byte   W48
 .byte   W48
@  #12 @330   ----------------------------------------
 .byte   W48
 .byte   W48
@  #12 @331   ----------------------------------------
 .byte   W48
 .byte   W48
@  #12 @332   ----------------------------------------
 .byte   W48
 .byte   W48
@  #12 @333   ----------------------------------------
 .byte   W48
 .byte   W48
@  #12 @334   ----------------------------------------
 .byte   W48
 .byte   W48
@  #12 @335   ----------------------------------------
 .byte   W48
 .byte   W48
@  #12 @336   ----------------------------------------
 .byte   W48
 .byte   W48
@  #12 @337   ----------------------------------------
 .byte   W48
 .byte   W48
@  #12 @338   ----------------------------------------
 .byte   W48
 .byte   W48
@  #12 @339   ----------------------------------------
 .byte   W48
 .byte   W48
@  #12 @340   ----------------------------------------
 .byte   W48
 .byte   W48
@  #12 @341   ----------------------------------------
 .byte   W48
 .byte   W48
@  #12 @342   ----------------------------------------
 .byte   W48
 .byte   W48
@  #12 @343   ----------------------------------------
 .byte   W48
 .byte   W48
@  #12 @344   ----------------------------------------
 .byte   W48
 .byte   W48
@  #12 @345   ----------------------------------------
 .byte   W48
 .byte   W48
@  #12 @346   ----------------------------------------
 .byte   W48
 .byte   W48
@  #12 @347   ----------------------------------------
 .byte   W48
 .byte   W48
@  #12 @348   ----------------------------------------
 .byte   W48
 .byte   W48
@  #12 @349   ----------------------------------------
 .byte   W48
 .byte   W48
@  #12 @350   ----------------------------------------
 .byte   W48
 .byte   W48
@  #12 @351   ----------------------------------------
 .byte   W48
 .byte   W48
@  #12 @352   ----------------------------------------
 .byte   W48
 .byte   W48
@  #12 @353   ----------------------------------------
 .byte   W48
 .byte   W48
@  #12 @354   ----------------------------------------
 .byte   W48
 .byte   W48
@  #12 @355   ----------------------------------------
 .byte   W48
 .byte   W48
@  #12 @356   ----------------------------------------
 .byte   W48
 .byte   W48
@  #12 @357   ----------------------------------------
 .byte   W48
 .byte   W48
@  #12 @358   ----------------------------------------
 .byte   W48
 .byte   W48
@  #12 @359   ----------------------------------------
 .byte   W48
 .byte   W48
@  #12 @360   ----------------------------------------
 .byte   W48
 .byte   W48
@  #12 @361   ----------------------------------------
 .byte   W48
 .byte   W48
@  #12 @362   ----------------------------------------
 .byte   W48
 .byte   W48
@  #12 @363   ----------------------------------------
 .byte   W48
 .byte   W48
@  #12 @364   ----------------------------------------
 .byte   W48
 .byte   W48
@  #12 @365   ----------------------------------------
 .byte   W48
 .byte   W48
@  #12 @366   ----------------------------------------
 .byte   W48
 .byte   W48
@  #12 @367   ----------------------------------------
 .byte   W48
 .byte   W48
@  #12 @368   ----------------------------------------
 .byte   W48
 .byte   W48
@  #12 @369   ----------------------------------------
 .byte   W48
 .byte   W48
@  #12 @370   ----------------------------------------
 .byte   W48
 .byte   W48
@  #12 @371   ----------------------------------------
 .byte   W48
 .byte   W48
@  #12 @372   ----------------------------------------
 .byte   W48
 .byte   W48
@  #12 @373   ----------------------------------------
 .byte   W48
 .byte   W48
@  #12 @374   ----------------------------------------
 .byte   W48
 .byte   W48
@  #12 @375   ----------------------------------------
 .byte   W48
 .byte   W48
@  #12 @376   ----------------------------------------
 .byte   W48
 .byte   W48
@  #12 @377   ----------------------------------------
 .byte   W48
 .byte   W48
@  #12 @378   ----------------------------------------
 .byte   W48
 .byte   W48
@  #12 @379   ----------------------------------------
 .byte   W48
 .byte   W48
@  #12 @380   ----------------------------------------
 .byte   W48
 .byte   W48
@  #12 @381   ----------------------------------------
 .byte   W48
 .byte   W48
@  #12 @382   ----------------------------------------
 .byte   W48
 .byte   W48
@  #12 @383   ----------------------------------------
 .byte   W48
 .byte   W48
@  #12 @384   ----------------------------------------
 .byte   W48
 .byte   W48
@  #12 @385   ----------------------------------------
 .byte   W48
 .byte   W48
@  #12 @386   ----------------------------------------
 .byte   W48
 .byte   W48
@  #12 @387   ----------------------------------------
 .byte   W48
 .byte   W48
@  #12 @388   ----------------------------------------
 .byte   W48
 .byte   W48
@  #12 @389   ----------------------------------------
 .byte   W48
 .byte   W48
@  #12 @390   ----------------------------------------
 .byte   W48
 .byte   W48
@  #12 @391   ----------------------------------------
 .byte   W48
 .byte   W48
@  #12 @392   ----------------------------------------
 .byte   W48
 .byte   W48
@  #12 @393   ----------------------------------------
 .byte   W48
 .byte   W48
@  #12 @394   ----------------------------------------
 .byte   W48
 .byte   W48
@  #12 @395   ----------------------------------------
 .byte   W48
 .byte   W48
@  #12 @396   ----------------------------------------
 .byte   W48
 .byte   W48
@  #12 @397   ----------------------------------------
 .byte   W48
 .byte   W48
@  #12 @398   ----------------------------------------
 .byte   W48
 .byte   W48
@  #12 @399   ----------------------------------------
 .byte   W48
 .byte   W48
@  #12 @400   ----------------------------------------
 .byte   W48
 .byte   W48
@  #12 @401   ----------------------------------------
 .byte   W48
 .byte   W48
@  #12 @402   ----------------------------------------
 .byte   W48
 .byte   W48
@  #12 @403   ----------------------------------------
 .byte   W48
 .byte   W48
@  #12 @404   ----------------------------------------
 .byte   W48
 .byte   W48
@  #12 @405   ----------------------------------------
 .byte   W48
 .byte   W48
@  #12 @406   ----------------------------------------
 .byte   W48
 .byte   W48
@  #12 @407   ----------------------------------------
 .byte   W48
 .byte   W48
@  #12 @408   ----------------------------------------
 .byte   W48
 .byte   W48
@  #12 @409   ----------------------------------------
 .byte   W48
 .byte   W48
@  #12 @410   ----------------------------------------
 .byte   W48
 .byte   W48
@  #12 @411   ----------------------------------------
 .byte   W48
 .byte   W48
@  #12 @412   ----------------------------------------
 .byte   W48
 .byte   W48
@  #12 @413   ----------------------------------------
 .byte   W48
 .byte   W48
@  #12 @414   ----------------------------------------
 .byte   W48
 .byte   W48
@  #12 @415   ----------------------------------------
 .byte   W48
 .byte   W48
@  #12 @416   ----------------------------------------
 .byte   W48
 .byte   W48
@  #12 @417   ----------------------------------------
 .byte   W48
 .byte   W48
@  #12 @418   ----------------------------------------
 .byte   W48
 .byte   W48
@  #12 @419   ----------------------------------------
 .byte   W48
 .byte   W48
@  #12 @420   ----------------------------------------
 .byte   W48
 .byte   W48
@  #12 @421   ----------------------------------------
 .byte   W48
 .byte   W48
@  #12 @422   ----------------------------------------
 .byte   W48
 .byte   W48
@  #12 @423   ----------------------------------------
 .byte   W48
 .byte   W48
@  #12 @424   ----------------------------------------
 .byte   W48
 .byte   W48
@  #12 @425   ----------------------------------------
 .byte   W48
 .byte   W48
@  #12 @426   ----------------------------------------
 .byte   W48
 .byte   W48
@  #12 @427   ----------------------------------------
 .byte   W48
 .byte   W48
@  #12 @428   ----------------------------------------
 .byte   W48
 .byte   W48
@  #12 @429   ----------------------------------------
 .byte   W48
 .byte   W48
@  #12 @430   ----------------------------------------
 .byte   W48
 .byte   W48
@  #12 @431   ----------------------------------------
 .byte   W48
 .byte   W48
@  #12 @432   ----------------------------------------
 .byte   W48
 .byte   W48
@  #12 @433   ----------------------------------------
 .byte   W48
 .byte   W44
 .byte   W03
 .byte   FINE

@**************** Track 13 (Midi-Chn.12) ****************@

.align 2, 0
song06_013:
@  #13 @000   ----------------------------------------
 .byte   KEYSH , song06_key+0
 .byte   VOICE , 46
 .byte   VOL , 47*song06_mvl/mxv
 .byte   PAN , c_v+0
 .byte   VOL , 47*song06_mvl/mxv
 .byte   PAN , c_v+0
 .byte   VOL , 47*song06_mvl/mxv
 .byte   PAN , c_v+0
 .byte   VOL , 47*song06_mvl/mxv
 .byte   PAN , c_v+0
 .byte   VOL , 47*song06_mvl/mxv
 .byte   PAN , c_v+0
 .byte   W48
 .byte   W48
@  #13 @001   ----------------------------------------
 .byte   W48
 .byte   W48
@  #13 @002   ----------------------------------------
 .byte   W48
 .byte   W48
@  #13 @003   ----------------------------------------
 .byte   W48
 .byte   W48
@  #13 @004   ----------------------------------------
 .byte   W48
 .byte   W48
@  #13 @005   ----------------------------------------
 .byte   W48
 .byte   W48
@  #13 @006   ----------------------------------------
 .byte   W48
 .byte   W48
@  #13 @007   ----------------------------------------
 .byte   W48
 .byte   W48
@  #13 @008   ----------------------------------------
Label_01135B94:
 .byte   W48
 .byte   W48
@  #13 @009   ----------------------------------------
 .byte   W48
 .byte   W48
@  #13 @010   ----------------------------------------
 .byte   W48
 .byte   W48
@  #13 @011   ----------------------------------------
 .byte   W48
 .byte   W48
@  #13 @012   ----------------------------------------
 .byte   W48
 .byte   W48
@  #13 @013   ----------------------------------------
 .byte   W48
 .byte   W48
@  #13 @014   ----------------------------------------
 .byte   W48
 .byte   W48
@  #13 @015   ----------------------------------------
 .byte   W48
 .byte   W48
@  #13 @016   ----------------------------------------
 .byte   W48
 .byte   W48
@  #13 @017   ----------------------------------------
 .byte   W48
 .byte   W48
@  #13 @018   ----------------------------------------
 .byte   W48
 .byte   W48
@  #13 @019   ----------------------------------------
 .byte   W48
 .byte   W48
@  #13 @020   ----------------------------------------
 .byte   W48
 .byte   W48
@  #13 @021   ----------------------------------------
 .byte   W48
 .byte   W48
@  #13 @022   ----------------------------------------
 .byte   W48
 .byte   W48
@  #13 @023   ----------------------------------------
 .byte   W48
 .byte   W48
@  #13 @024   ----------------------------------------
 .byte   W48
 .byte   W48
@  #13 @025   ----------------------------------------
 .byte   W48
 .byte   W48
@  #13 @026   ----------------------------------------
 .byte   W48
 .byte   W48
@  #13 @027   ----------------------------------------
 .byte   W48
 .byte   W48
@  #13 @028   ----------------------------------------
 .byte   W48
 .byte   W48
@  #13 @029   ----------------------------------------
 .byte   W48
 .byte   W48
@  #13 @030   ----------------------------------------
 .byte   W48
 .byte   W48
@  #13 @031   ----------------------------------------
 .byte   W48
 .byte   W48
@  #13 @032   ----------------------------------------
 .byte   W48
 .byte   W48
@  #13 @033   ----------------------------------------
 .byte   W48
 .byte   W48
@  #13 @034   ----------------------------------------
 .byte   W48
 .byte   W48
@  #13 @035   ----------------------------------------
 .byte   W48
 .byte   W48
@  #13 @036   ----------------------------------------
 .byte   W48
 .byte   W48
@  #13 @037   ----------------------------------------
 .byte   W48
 .byte   W48
@  #13 @038   ----------------------------------------
 .byte   W48
 .byte   W48
@  #13 @039   ----------------------------------------
 .byte   W48
 .byte   W48
@  #13 @040   ----------------------------------------
 .byte   W48
 .byte   W48
@  #13 @041   ----------------------------------------
 .byte   W48
 .byte   W48
@  #13 @042   ----------------------------------------
 .byte   W48
 .byte   W48
@  #13 @043   ----------------------------------------
 .byte   W48
 .byte   W48
@  #13 @044   ----------------------------------------
 .byte   W48
 .byte   W48
@  #13 @045   ----------------------------------------
 .byte   W48
 .byte   W48
@  #13 @046   ----------------------------------------
 .byte   W48
 .byte   W48
@  #13 @047   ----------------------------------------
 .byte   W48
 .byte   W48
@  #13 @048   ----------------------------------------
 .byte   W48
 .byte   W48
@  #13 @049   ----------------------------------------
 .byte   W48
 .byte   W48
@  #13 @050   ----------------------------------------
 .byte   W48
 .byte   W48
@  #13 @051   ----------------------------------------
 .byte   W48
 .byte   W48
@  #13 @052   ----------------------------------------
 .byte   W48
 .byte   W48
@  #13 @053   ----------------------------------------
 .byte   W48
 .byte   W48
@  #13 @054   ----------------------------------------
 .byte   W48
 .byte   W48
@  #13 @055   ----------------------------------------
 .byte   W48
 .byte   W48
@  #13 @056   ----------------------------------------
 .byte   W48
 .byte   W48
@  #13 @057   ----------------------------------------
 .byte   W48
 .byte   W48
@  #13 @058   ----------------------------------------
 .byte   W48
 .byte   W48
@  #13 @059   ----------------------------------------
 .byte   W48
 .byte   W48
@  #13 @060   ----------------------------------------
 .byte   W48
 .byte   W48
@  #13 @061   ----------------------------------------
 .byte   W48
 .byte   W48
@  #13 @062   ----------------------------------------
 .byte   W48
 .byte   W48
@  #13 @063   ----------------------------------------
 .byte   W48
 .byte   W48
@  #13 @064   ----------------------------------------
 .byte   W48
 .byte   W48
@  #13 @065   ----------------------------------------
 .byte   W48
 .byte   W48
@  #13 @066   ----------------------------------------
 .byte   W48
 .byte   W48
@  #13 @067   ----------------------------------------
 .byte   W48
 .byte   W48
@  #13 @068   ----------------------------------------
 .byte   W48
 .byte   W48
@  #13 @069   ----------------------------------------
 .byte   W48
 .byte   W48
@  #13 @070   ----------------------------------------
 .byte   W48
 .byte   W48
@  #13 @071   ----------------------------------------
 .byte   W48
 .byte   W48
@  #13 @072   ----------------------------------------
 .byte   W48
 .byte   W48
@  #13 @073   ----------------------------------------
 .byte   W48
 .byte   W48
@  #13 @074   ----------------------------------------
 .byte   W48
 .byte   W48
@  #13 @075   ----------------------------------------
 .byte   W48
 .byte   W48
@  #13 @076   ----------------------------------------
 .byte   W48
 .byte   W48
@  #13 @077   ----------------------------------------
 .byte   W48
 .byte   W48
@  #13 @078   ----------------------------------------
 .byte   W48
 .byte   W48
@  #13 @079   ----------------------------------------
 .byte   W48
 .byte   W48
@  #13 @080   ----------------------------------------
 .byte   W48
 .byte   W48
@  #13 @081   ----------------------------------------
 .byte   W48
 .byte   W48
@  #13 @082   ----------------------------------------
 .byte   W48
 .byte   W48
@  #13 @083   ----------------------------------------
 .byte   W48
 .byte   W48
@  #13 @084   ----------------------------------------
 .byte   W48
 .byte   W48
@  #13 @085   ----------------------------------------
 .byte   W48
 .byte   W48
@  #13 @086   ----------------------------------------
 .byte   W48
 .byte   W48
@  #13 @087   ----------------------------------------
 .byte   W48
 .byte   W48
@  #13 @088   ----------------------------------------
 .byte   W48
 .byte   W48
@  #13 @089   ----------------------------------------
 .byte   W48
 .byte   W48
@  #13 @090   ----------------------------------------
 .byte   W48
 .byte   W48
@  #13 @091   ----------------------------------------
 .byte   W48
 .byte   W48
@  #13 @092   ----------------------------------------
 .byte   W48
 .byte   W48
@  #13 @093   ----------------------------------------
 .byte   W48
 .byte   W48
@  #13 @094   ----------------------------------------
 .byte   W48
 .byte   W48
@  #13 @095   ----------------------------------------
 .byte   W48
 .byte   W48
@  #13 @096   ----------------------------------------
Label_01135C44:
 .byte   N32 ,Fn3 ,v080
 .byte   W36
 .byte   En3
 .byte   W12
 .byte   PEND 
Label_01135C4B:
 .byte   W24
 .byte   TIE ,Gn3 ,v080
 .byte   W24
 .byte   PEND 
@  #13 @097   ----------------------------------------
 .byte   W48
 .byte   W48
@  #13 @098   ----------------------------------------
 .byte   W48
 .byte   W48
@  #13 @099   ----------------------------------------
 .byte   W48
 .byte   W44
 .byte   W03
 .byte   EOT
 .byte   W01
@  #13 @100   ----------------------------------------
 .byte   PATT
  .word Label_01135C44
@  #13 @101   ----------------------------------------
 .byte   W24
 .byte   TIE ,En3 ,v080
 .byte   W24
 .byte   W48
@  #13 @102   ----------------------------------------
 .byte   W48
 .byte   W48
@  #13 @103   ----------------------------------------
 .byte   W48
 .byte   W48
@  #13 @104   ----------------------------------------
 .byte   W44
 .byte   W03
 .byte   EOT
 .byte   W01
 .byte   W48
@  #13 @105   ----------------------------------------
 .byte   W48
 .byte   W48
@  #13 @106   ----------------------------------------
 .byte   W48
 .byte   W48
@  #13 @107   ----------------------------------------
 .byte   W48
 .byte   W48
@  #13 @108   ----------------------------------------
 .byte   W48
 .byte   W48
@  #13 @109   ----------------------------------------
 .byte   W48
 .byte   W48
@  #13 @110   ----------------------------------------
 .byte   W48
Label_01135C79:
 .byte   N11 ,Bn3 ,v064
 .byte   W12
 .byte   N11
 .byte   W12
 .byte   N11
 .byte   W12
 .byte   N11
 .byte   W12
 .byte   PEND 
@  #13 @111   ----------------------------------------
 .byte   PATT
  .word Label_01135C79
@  #13 @112   ----------------------------------------
 .byte   W48
Label_01135C8A:
 .byte   N44 ,Bn2 ,v016
 .byte   N44 ,Dn3
 .byte   W01
 .byte   W01
 .byte   W01
 .byte   W01
 .byte   W01
 .byte   W01
 .byte   W01
 .byte   W01
 .byte   W01
 .byte   W01
 .byte   W01
 .byte   W01
 .byte   W01
 .byte   W01
 .byte   W01
 .byte   W01
 .byte   W01
 .byte   W01
 .byte   W01
 .byte   W01
 .byte   W01
 .byte   W01
 .byte   W01
 .byte   W01
 .byte   W01
 .byte   W01
 .byte   W01
 .byte   W01
 .byte   W01
 .byte   W01
 .byte   W01
 .byte   W01
 .byte   W01
 .byte   W01
 .byte   W01
 .byte   W01
 .byte   W01
 .byte   W01
 .byte   W01
 .byte   W01
 .byte   W01
 .byte   W01
 .byte   W01
 .byte   W01
 .byte   W01
 .byte   W01
 .byte   W01
 .byte   W01
 .byte   PEND 
@  #13 @113   ----------------------------------------
 .byte   N32 ,En3 ,v080
 .byte   W36
 .byte   N11
 .byte   W12
 .byte   W12
 .byte   N32 ,Cn3
 .byte   W36
@  #13 @114   ----------------------------------------
Label_01135CCA:
 .byte   N32 ,Cn3 ,v080
 .byte   W36
 .byte   Dn3
 .byte   W12
 .byte   PEND 
 .byte   W24
 .byte   N23 ,Bn2
 .byte   W24
@  #13 @115   ----------------------------------------
Label_01135CD5:
 .byte   N32 ,Cn3 ,v080
 .byte   W36
 .byte   N11 ,Bn2
 .byte   W12
 .byte   PEND 
 .byte   W12
 .byte   N32
 .byte   W36
@  #13 @116   ----------------------------------------
Label_01135CE0:
 .byte   N32 ,Dn3 ,v080
 .byte   W36
 .byte   Cn3
 .byte   W12
 .byte   PEND 
 .byte   W24
 .byte   N23 ,Bn2
 .byte   W24
@  #13 @117   ----------------------------------------
 .byte   N44 ,An2
 .byte   W48
Label_01135CEE:
 .byte   N23 ,Gn3 ,v080
 .byte   W24
 .byte   Fn3
 .byte   W24
 .byte   PEND 
@  #13 @118   ----------------------------------------
 .byte   N44 ,Dn3
 .byte   W48
 .byte   Gs3
 .byte   W48
@  #13 @119   ----------------------------------------
Label_01135CFA:
 .byte   N32 ,Bn3 ,v080
 .byte   W36
 .byte   N56 ,An3
 .byte   W12
 .byte   PEND 
 .byte   W48
@  #13 @120   ----------------------------------------
Label_01135D03:
 .byte   N32 ,Gn3 ,v080
 .byte   W36
 .byte   Fn3
 .byte   W12
 .byte   PEND 
 .byte   W24
 .byte   N23 ,En3
 .byte   W24
@  #13 @121   ----------------------------------------
 .byte   N23
 .byte   W24
 .byte   Fn3
 .byte   W24
Label_01135D12:
 .byte   N32 ,An3 ,v080
 .byte   W36
 .byte   N44 ,Gn3
 .byte   W12
 .byte   PEND 
@  #13 @122   ----------------------------------------
 .byte   W36
 .byte   N32 ,Dn3
 .byte   W12
 .byte   W24
 .byte   N23 ,Gn3
 .byte   W24
@  #13 @123   ----------------------------------------
Label_01135D22:
 .byte   N32 ,Dn3 ,v080
 .byte   W36
 .byte   N80 ,Bn3
 .byte   W12
 .byte   PEND 
 .byte   W48
@  #13 @124   ----------------------------------------
 .byte   W24
 .byte   N68 ,Cn4
 .byte   W24
 .byte   W48
@  #13 @125   ----------------------------------------
 .byte   N44 ,Fn3
 .byte   W48
 .byte   An3
 .byte   W48
@  #13 @126   ----------------------------------------
 .byte   Gs3
 .byte   W48
 .byte   En3
 .byte   W48
@  #13 @127   ----------------------------------------
Label_01135D39:
 .byte   N32 ,Dn3 ,v080
 .byte   W36
 .byte   TIE ,Cn3
 .byte   W12
 .byte   PEND 
 .byte   W48
@  #13 @128   ----------------------------------------
 .byte   W48
 .byte   W44
 .byte   W03
 .byte   EOT
 .byte   W01
@  #13 @129   ----------------------------------------
 .byte   N44 ,An2
 .byte   W48
 .byte   En2
 .byte   W48
@  #13 @130   ----------------------------------------
 .byte   PATT
  .word Label_01135CCA
@  #13 @131   ----------------------------------------
 .byte   W24
 .byte   N23 ,Bn2 ,v080
 .byte   W24
 .byte   N44 ,Cn3
 .byte   W48
@  #13 @132   ----------------------------------------
 .byte   Bn2
 .byte   W48
@  #13 @133   ----------------------------------------
 .byte   PATT
  .word Label_01135CE0
@  #13 @134   ----------------------------------------
 .byte   W24
 .byte   N23 ,Bn2 ,v080
 .byte   W24
Label_01135D65:
 .byte   N23 ,An2 ,v080
 .byte   W24
 .byte   Cn3
 .byte   W24
 .byte   PEND 
@  #13 @135   ----------------------------------------
 .byte   N44 ,Gn3
 .byte   W48
Label_01135D6F:
 .byte   N23 ,Dn3 ,v080
 .byte   W24
 .byte   N07 ,En3
 .byte   W08
 .byte   Fn3
 .byte   W08
 .byte   Gn3
 .byte   W08
 .byte   PEND 
@  #13 @136   ----------------------------------------
 .byte   N44 ,Gs3
 .byte   W48
 .byte   Bn3
 .byte   W48
@  #13 @137   ----------------------------------------
 .byte   An3
 .byte   W48
@  #13 @138   ----------------------------------------
 .byte   PATT
  .word Label_01135D03
@  #13 @139   ----------------------------------------
 .byte   W24
 .byte   N23 ,En3 ,v080
 .byte   W24
 .byte   W48
@  #13 @140   ----------------------------------------
 .byte   W48
 .byte   W48
@  #13 @141   ----------------------------------------
 .byte   W48
 .byte   W48
@  #13 @142   ----------------------------------------
 .byte   W48
 .byte   W48
@  #13 @143   ----------------------------------------
 .byte   W48
 .byte   W48
@  #13 @144   ----------------------------------------
 .byte   W48
 .byte   W48
@  #13 @145   ----------------------------------------
 .byte   W48
 .byte   W48
@  #13 @146   ----------------------------------------
 .byte   W48
 .byte   W48
@  #13 @147   ----------------------------------------
 .byte   W48
 .byte   W48
@  #13 @148   ----------------------------------------
 .byte   W48
 .byte   W48
@  #13 @149   ----------------------------------------
 .byte   W48
 .byte   W48
@  #13 @150   ----------------------------------------
 .byte   W48
 .byte   W48
@  #13 @151   ----------------------------------------
 .byte   W48
 .byte   W48
@  #13 @152   ----------------------------------------
 .byte   W48
 .byte   W48
@  #13 @153   ----------------------------------------
 .byte   W48
 .byte   W48
@  #13 @154   ----------------------------------------
 .byte   W48
 .byte   W48
@  #13 @155   ----------------------------------------
 .byte   W48
 .byte   W48
@  #13 @156   ----------------------------------------
 .byte   W48
 .byte   W48
@  #13 @157   ----------------------------------------
 .byte   W48
 .byte   W48
@  #13 @158   ----------------------------------------
 .byte   W48
 .byte   W48
@  #13 @159   ----------------------------------------
 .byte   W48
 .byte   W48
@  #13 @160   ----------------------------------------
 .byte   W48
 .byte   W48
@  #13 @161   ----------------------------------------
 .byte   W48
 .byte   W48
@  #13 @162   ----------------------------------------
 .byte   W48
 .byte   W48
@  #13 @163   ----------------------------------------
 .byte   W48
 .byte   W48
@  #13 @164   ----------------------------------------
 .byte   W48
 .byte   W48
@  #13 @165   ----------------------------------------
 .byte   W48
 .byte   W48
@  #13 @166   ----------------------------------------
 .byte   W48
 .byte   W48
@  #13 @167   ----------------------------------------
 .byte   W48
 .byte   W48
@  #13 @168   ----------------------------------------
 .byte   W48
 .byte   W48
@  #13 @169   ----------------------------------------
 .byte   W48
 .byte   W48
@  #13 @170   ----------------------------------------
 .byte   W48
 .byte   W48
@  #13 @171   ----------------------------------------
 .byte   W48
 .byte   W48
@  #13 @172   ----------------------------------------
 .byte   W48
 .byte   W48
@  #13 @173   ----------------------------------------
 .byte   W48
 .byte   W48
@  #13 @174   ----------------------------------------
 .byte   W48
 .byte   W48
@  #13 @175   ----------------------------------------
 .byte   W48
 .byte   W48
@  #13 @176   ----------------------------------------
 .byte   W48
 .byte   W48
@  #13 @177   ----------------------------------------
 .byte   W48
 .byte   W48
@  #13 @178   ----------------------------------------
 .byte   W48
 .byte   W48
@  #13 @179   ----------------------------------------
 .byte   W48
 .byte   W48
@  #13 @180   ----------------------------------------
 .byte   W48
 .byte   W48
@  #13 @181   ----------------------------------------
 .byte   W48
 .byte   W48
@  #13 @182   ----------------------------------------
 .byte   W48
 .byte   W48
@  #13 @183   ----------------------------------------
 .byte   W48
 .byte   W48
@  #13 @184   ----------------------------------------
 .byte   W48
 .byte   W48
@  #13 @185   ----------------------------------------
 .byte   W48
 .byte   W48
@  #13 @186   ----------------------------------------
 .byte   W48
 .byte   W48
@  #13 @187   ----------------------------------------
 .byte   W48
 .byte   W48
@  #13 @188   ----------------------------------------
 .byte   W48
 .byte   W48
@  #13 @189   ----------------------------------------
 .byte   W48
 .byte   W48
@  #13 @190   ----------------------------------------
 .byte   W48
 .byte   W48
@  #13 @191   ----------------------------------------
 .byte   W48
 .byte   W48
@  #13 @192   ----------------------------------------
 .byte   W48
 .byte   W48
@  #13 @193   ----------------------------------------
 .byte   W48
 .byte   W48
@  #13 @194   ----------------------------------------
 .byte   W48
 .byte   W48
@  #13 @195   ----------------------------------------
 .byte   W48
 .byte   W48
@  #13 @196   ----------------------------------------
 .byte   W48
 .byte   W48
@  #13 @197   ----------------------------------------
 .byte   W48
 .byte   W48
@  #13 @198   ----------------------------------------
 .byte   W48
 .byte   W48
@  #13 @199   ----------------------------------------
 .byte   W48
 .byte   GOTO
  .word Label_01135B94
@  #13 @200   ----------------------------------------
 .byte   W48
 .byte   W48
@  #13 @201   ----------------------------------------
 .byte   W48
 .byte   W48
@  #13 @202   ----------------------------------------
 .byte   W48
 .byte   W48
@  #13 @203   ----------------------------------------
 .byte   W48
 .byte   W48
@  #13 @204   ----------------------------------------
 .byte   W48
 .byte   W48
@  #13 @205   ----------------------------------------
 .byte   W48
 .byte   W48
@  #13 @206   ----------------------------------------
 .byte   W48
 .byte   W48
@  #13 @207   ----------------------------------------
 .byte   W48
 .byte   W48
@  #13 @208   ----------------------------------------
 .byte   W48
 .byte   W48
@  #13 @209   ----------------------------------------
 .byte   W48
 .byte   W48
@  #13 @210   ----------------------------------------
 .byte   W48
 .byte   W48
@  #13 @211   ----------------------------------------
 .byte   W48
 .byte   W48
@  #13 @212   ----------------------------------------
 .byte   W48
 .byte   W48
@  #13 @213   ----------------------------------------
 .byte   W48
 .byte   W48
@  #13 @214   ----------------------------------------
 .byte   W48
 .byte   W48
@  #13 @215   ----------------------------------------
 .byte   W48
 .byte   W48
@  #13 @216   ----------------------------------------
 .byte   W48
 .byte   W48
@  #13 @217   ----------------------------------------
 .byte   W48
 .byte   W48
@  #13 @218   ----------------------------------------
 .byte   W48
 .byte   W48
@  #13 @219   ----------------------------------------
 .byte   W48
 .byte   W48
@  #13 @220   ----------------------------------------
 .byte   W48
 .byte   W48
@  #13 @221   ----------------------------------------
 .byte   W48
 .byte   W48
@  #13 @222   ----------------------------------------
 .byte   W48
 .byte   W48
@  #13 @223   ----------------------------------------
 .byte   W48
 .byte   W48
@  #13 @224   ----------------------------------------
 .byte   W48
 .byte   W48
@  #13 @225   ----------------------------------------
 .byte   W48
 .byte   W48
@  #13 @226   ----------------------------------------
 .byte   W48
 .byte   W48
@  #13 @227   ----------------------------------------
 .byte   W48
 .byte   W48
@  #13 @228   ----------------------------------------
 .byte   W48
 .byte   W48
@  #13 @229   ----------------------------------------
 .byte   W48
 .byte   W48
@  #13 @230   ----------------------------------------
 .byte   W48
 .byte   W48
@  #13 @231   ----------------------------------------
 .byte   W48
 .byte   W48
@  #13 @232   ----------------------------------------
 .byte   W48
 .byte   W48
@  #13 @233   ----------------------------------------
 .byte   W48
 .byte   W48
@  #13 @234   ----------------------------------------
 .byte   W48
 .byte   W48
@  #13 @235   ----------------------------------------
 .byte   W48
 .byte   W48
@  #13 @236   ----------------------------------------
 .byte   W48
 .byte   W48
@  #13 @237   ----------------------------------------
 .byte   W48
 .byte   W48
@  #13 @238   ----------------------------------------
 .byte   W48
 .byte   W48
@  #13 @239   ----------------------------------------
 .byte   W48
 .byte   W48
@  #13 @240   ----------------------------------------
 .byte   W48
 .byte   W48
@  #13 @241   ----------------------------------------
 .byte   W48
 .byte   W48
@  #13 @242   ----------------------------------------
 .byte   W48
 .byte   W48
@  #13 @243   ----------------------------------------
 .byte   W48
 .byte   W48
@  #13 @244   ----------------------------------------
 .byte   W48
 .byte   W48
@  #13 @245   ----------------------------------------
 .byte   W48
 .byte   W48
@  #13 @246   ----------------------------------------
 .byte   W48
 .byte   W48
@  #13 @247   ----------------------------------------
 .byte   W48
 .byte   W48
@  #13 @248   ----------------------------------------
 .byte   W48
 .byte   W48
@  #13 @249   ----------------------------------------
 .byte   W48
 .byte   W48
@  #13 @250   ----------------------------------------
 .byte   W48
 .byte   W48
@  #13 @251   ----------------------------------------
 .byte   W48
 .byte   W48
@  #13 @252   ----------------------------------------
 .byte   W48
 .byte   W48
@  #13 @253   ----------------------------------------
 .byte   W48
 .byte   W48
@  #13 @254   ----------------------------------------
 .byte   W48
 .byte   W48
@  #13 @255   ----------------------------------------
 .byte   W48
 .byte   W48
@  #13 @256   ----------------------------------------
 .byte   W48
 .byte   W48
@  #13 @257   ----------------------------------------
 .byte   W48
 .byte   W48
@  #13 @258   ----------------------------------------
 .byte   W48
 .byte   W48
@  #13 @259   ----------------------------------------
 .byte   W48
 .byte   W48
@  #13 @260   ----------------------------------------
 .byte   W48
 .byte   W48
@  #13 @261   ----------------------------------------
 .byte   W48
 .byte   W48
@  #13 @262   ----------------------------------------
 .byte   W48
 .byte   W48
@  #13 @263   ----------------------------------------
 .byte   W48
 .byte   W48
@  #13 @264   ----------------------------------------
 .byte   W48
 .byte   W48
@  #13 @265   ----------------------------------------
 .byte   W48
 .byte   W48
@  #13 @266   ----------------------------------------
 .byte   W48
 .byte   W48
@  #13 @267   ----------------------------------------
 .byte   W48
 .byte   W48
@  #13 @268   ----------------------------------------
 .byte   W48
 .byte   W48
@  #13 @269   ----------------------------------------
 .byte   W48
 .byte   W48
@  #13 @270   ----------------------------------------
 .byte   W48
 .byte   W48
@  #13 @271   ----------------------------------------
 .byte   W48
 .byte   W48
@  #13 @272   ----------------------------------------
 .byte   W48
 .byte   W48
@  #13 @273   ----------------------------------------
 .byte   W48
 .byte   W48
@  #13 @274   ----------------------------------------
 .byte   W48
 .byte   W48
@  #13 @275   ----------------------------------------
 .byte   W48
 .byte   W48
@  #13 @276   ----------------------------------------
 .byte   W48
 .byte   W48
@  #13 @277   ----------------------------------------
 .byte   W48
 .byte   W48
@  #13 @278   ----------------------------------------
 .byte   W48
 .byte   W48
@  #13 @279   ----------------------------------------
 .byte   W48
 .byte   W48
@  #13 @280   ----------------------------------------
 .byte   W48
 .byte   W48
@  #13 @281   ----------------------------------------
 .byte   W48
 .byte   W48
@  #13 @282   ----------------------------------------
 .byte   W48
 .byte   W48
@  #13 @283   ----------------------------------------
 .byte   W48
 .byte   W48
@  #13 @284   ----------------------------------------
 .byte   W48
 .byte   W48
@  #13 @285   ----------------------------------------
 .byte   W48
 .byte   W48
@  #13 @286   ----------------------------------------
 .byte   W48
 .byte   W48
@  #13 @287   ----------------------------------------
 .byte   W48
 .byte   W48
@  #13 @288   ----------------------------------------
 .byte   PATT
  .word Label_01135C44
@  #13 @289   ----------------------------------------
 .byte   PATT
  .word Label_01135C4B
@  #13 @290   ----------------------------------------
 .byte   W48
 .byte   W48
@  #13 @291   ----------------------------------------
 .byte   W48
 .byte   W48
@  #13 @292   ----------------------------------------
 .byte   W48
 .byte   W44
 .byte   W03
 .byte   EOT
 .byte   Gn3
 .byte   W01
@  #13 @293   ----------------------------------------
 .byte   PATT
  .word Label_01135C44
@  #13 @294   ----------------------------------------
 .byte   W24
 .byte   TIE ,En3 ,v080
 .byte   W24
 .byte   W48
@  #13 @295   ----------------------------------------
 .byte   W48
 .byte   W48
@  #13 @296   ----------------------------------------
 .byte   W48
 .byte   W48
@  #13 @297   ----------------------------------------
 .byte   W44
 .byte   W03
 .byte   EOT
 .byte   W01
 .byte   W48
@  #13 @298   ----------------------------------------
 .byte   W48
 .byte   W48
@  #13 @299   ----------------------------------------
 .byte   W48
 .byte   W48
@  #13 @300   ----------------------------------------
 .byte   W48
 .byte   W48
@  #13 @301   ----------------------------------------
 .byte   W48
 .byte   W48
@  #13 @302   ----------------------------------------
 .byte   W48
 .byte   W48
@  #13 @303   ----------------------------------------
 .byte   W48
@  #13 @304   ----------------------------------------
 .byte   PATT
  .word Label_01135C79
@  #13 @305   ----------------------------------------
 .byte   PATT
  .word Label_01135C79
@  #13 @306   ----------------------------------------
 .byte   W48
@  #13 @307   ----------------------------------------
 .byte   PATT
  .word Label_01135C8A
@  #13 @308   ----------------------------------------
 .byte   N32 ,En3 ,v080
 .byte   W36
 .byte   N11
 .byte   W12
 .byte   W12
 .byte   N32 ,Cn3
 .byte   W36
@  #13 @309   ----------------------------------------
 .byte   PATT
  .word Label_01135CCA
@  #13 @310   ----------------------------------------
 .byte   W24
 .byte   N23 ,Bn2 ,v080
 .byte   W24
@  #13 @311   ----------------------------------------
 .byte   PATT
  .word Label_01135CD5
@  #13 @312   ----------------------------------------
 .byte   W12
 .byte   N32 ,Bn2 ,v080
 .byte   W36
@  #13 @313   ----------------------------------------
 .byte   PATT
  .word Label_01135CE0
@  #13 @314   ----------------------------------------
 .byte   W24
 .byte   N23 ,Bn2 ,v080
 .byte   W24
 .byte   N44 ,An2
 .byte   W48
@  #13 @315   ----------------------------------------
 .byte   PATT
  .word Label_01135CEE
@  #13 @316   ----------------------------------------
 .byte   N44 ,Dn3 ,v080
 .byte   W48
 .byte   Gs3
 .byte   W48
@  #13 @317   ----------------------------------------
 .byte   PATT
  .word Label_01135CFA
@  #13 @318   ----------------------------------------
 .byte   W48
@  #13 @319   ----------------------------------------
 .byte   PATT
  .word Label_01135D03
@  #13 @320   ----------------------------------------
 .byte   W24
 .byte   N23 ,En3 ,v080
 .byte   W24
 .byte   N23
 .byte   W24
 .byte   Fn3
 .byte   W24
@  #13 @321   ----------------------------------------
 .byte   PATT
  .word Label_01135D12
@  #13 @322   ----------------------------------------
 .byte   W36
 .byte   N32 ,Dn3 ,v080
 .byte   W12
 .byte   W24
 .byte   N23 ,Gn3
 .byte   W24
@  #13 @323   ----------------------------------------
 .byte   PATT
  .word Label_01135D22
@  #13 @324   ----------------------------------------
 .byte   W48
 .byte   W24
 .byte   N68 ,Cn4 ,v080
 .byte   W24
@  #13 @325   ----------------------------------------
 .byte   W48
 .byte   N44 ,Fn3
 .byte   W48
@  #13 @326   ----------------------------------------
 .byte   An3
 .byte   W48
 .byte   Gs3
 .byte   W48
@  #13 @327   ----------------------------------------
 .byte   En3
 .byte   W48
@  #13 @328   ----------------------------------------
 .byte   PATT
  .word Label_01135D39
@  #13 @329   ----------------------------------------
 .byte   W48
 .byte   W48
@  #13 @330   ----------------------------------------
 .byte   W44
 .byte   W03
 .byte   EOT
 .byte   Cn3
 .byte   W01
 .byte   N44 ,An2 ,v080
 .byte   W48
@  #13 @331   ----------------------------------------
 .byte   En2
 .byte   W48
@  #13 @332   ----------------------------------------
 .byte   PATT
  .word Label_01135CCA
@  #13 @333   ----------------------------------------
 .byte   W24
 .byte   N23 ,Bn2 ,v080
 .byte   W24
 .byte   N44 ,Cn3
 .byte   W48
@  #13 @334   ----------------------------------------
 .byte   Bn2
 .byte   W48
@  #13 @335   ----------------------------------------
 .byte   PATT
  .word Label_01135CE0
@  #13 @336   ----------------------------------------
 .byte   W24
 .byte   N23 ,Bn2 ,v080
 .byte   W24
@  #13 @337   ----------------------------------------
 .byte   PATT
  .word Label_01135D65
@  #13 @338   ----------------------------------------
 .byte   N44 ,Gn3 ,v080
 .byte   W48
@  #13 @339   ----------------------------------------
 .byte   PATT
  .word Label_01135D6F
@  #13 @340   ----------------------------------------
 .byte   N44 ,Gs3 ,v080
 .byte   W48
 .byte   Bn3
 .byte   W48
@  #13 @341   ----------------------------------------
 .byte   An3
 .byte   W48
@  #13 @342   ----------------------------------------
 .byte   PATT
  .word Label_01135D03
@  #13 @343   ----------------------------------------
 .byte   W24
 .byte   N23 ,En3 ,v080
 .byte   W24
 .byte   W48
@  #13 @344   ----------------------------------------
 .byte   W48
 .byte   W48
@  #13 @345   ----------------------------------------
 .byte   W48
 .byte   W48
@  #13 @346   ----------------------------------------
 .byte   W48
 .byte   W48
@  #13 @347   ----------------------------------------
 .byte   W48
 .byte   W48
@  #13 @348   ----------------------------------------
 .byte   W48
 .byte   W48
@  #13 @349   ----------------------------------------
 .byte   W48
 .byte   W48
@  #13 @350   ----------------------------------------
 .byte   W48
 .byte   W48
@  #13 @351   ----------------------------------------
 .byte   W48
 .byte   W48
@  #13 @352   ----------------------------------------
 .byte   W48
 .byte   W48
@  #13 @353   ----------------------------------------
 .byte   W48
 .byte   W48
@  #13 @354   ----------------------------------------
 .byte   W48
 .byte   W48
@  #13 @355   ----------------------------------------
 .byte   W48
 .byte   W48
@  #13 @356   ----------------------------------------
 .byte   W48
 .byte   W48
@  #13 @357   ----------------------------------------
 .byte   W48
 .byte   W48
@  #13 @358   ----------------------------------------
 .byte   W48
 .byte   W48
@  #13 @359   ----------------------------------------
 .byte   W48
 .byte   W48
@  #13 @360   ----------------------------------------
 .byte   W48
 .byte   W48
@  #13 @361   ----------------------------------------
 .byte   W48
 .byte   W48
@  #13 @362   ----------------------------------------
 .byte   W48
 .byte   W48
@  #13 @363   ----------------------------------------
 .byte   W48
 .byte   W48
@  #13 @364   ----------------------------------------
 .byte   W48
 .byte   W48
@  #13 @365   ----------------------------------------
 .byte   W48
 .byte   W48
@  #13 @366   ----------------------------------------
 .byte   W48
 .byte   W48
@  #13 @367   ----------------------------------------
 .byte   W48
 .byte   W48
@  #13 @368   ----------------------------------------
 .byte   W48
 .byte   W48
@  #13 @369   ----------------------------------------
 .byte   W48
 .byte   W48
@  #13 @370   ----------------------------------------
 .byte   W48
 .byte   W48
@  #13 @371   ----------------------------------------
 .byte   W48
 .byte   W48
@  #13 @372   ----------------------------------------
 .byte   W48
 .byte   W48
@  #13 @373   ----------------------------------------
 .byte   W48
 .byte   W48
@  #13 @374   ----------------------------------------
 .byte   W48
 .byte   W48
@  #13 @375   ----------------------------------------
 .byte   W48
 .byte   W48
@  #13 @376   ----------------------------------------
 .byte   W48
 .byte   W48
@  #13 @377   ----------------------------------------
 .byte   W48
 .byte   W48
@  #13 @378   ----------------------------------------
 .byte   W48
 .byte   W48
@  #13 @379   ----------------------------------------
 .byte   W48
 .byte   W48
@  #13 @380   ----------------------------------------
 .byte   W48
 .byte   W48
@  #13 @381   ----------------------------------------
 .byte   W48
 .byte   W48
@  #13 @382   ----------------------------------------
 .byte   W48
 .byte   W48
@  #13 @383   ----------------------------------------
 .byte   W48
 .byte   W48
@  #13 @384   ----------------------------------------
 .byte   W48
 .byte   W48
@  #13 @385   ----------------------------------------
 .byte   W48
 .byte   W48
@  #13 @386   ----------------------------------------
 .byte   W48
 .byte   W48
@  #13 @387   ----------------------------------------
 .byte   W48
 .byte   W48
@  #13 @388   ----------------------------------------
 .byte   W48
 .byte   W48
@  #13 @389   ----------------------------------------
 .byte   W48
 .byte   W48
@  #13 @390   ----------------------------------------
 .byte   W48
 .byte   W48
@  #13 @391   ----------------------------------------
 .byte   W48
 .byte   W48
@  #13 @392   ----------------------------------------
 .byte   W48
 .byte   W48
@  #13 @393   ----------------------------------------
 .byte   W48
 .byte   W48
@  #13 @394   ----------------------------------------
 .byte   W48
 .byte   W48
@  #13 @395   ----------------------------------------
 .byte   W44
 .byte   W03
 .byte   FINE

@**************** Track 14 (Midi-Chn.13) ****************@

.align 2, 0
song06_014:
@  #14 @000   ----------------------------------------
 .byte   KEYSH , song06_key+0
 .byte   VOICE , 110
 .byte   VOL , 32*song06_mvl/mxv
 .byte   PAN , c_v+0
 .byte   VOL , 47*song06_mvl/mxv
 .byte   PAN , c_v+0
 .byte   VOL , 47*song06_mvl/mxv
 .byte   PAN , c_v+0
 .byte   VOL , 47*song06_mvl/mxv
 .byte   PAN , c_v+0
 .byte   VOL , 47*song06_mvl/mxv
 .byte   PAN , c_v+0
 .byte   W48
 .byte   W48
@  #14 @001   ----------------------------------------
 .byte   W48
 .byte   W48
@  #14 @002   ----------------------------------------
 .byte   W48
 .byte   W48
@  #14 @003   ----------------------------------------
 .byte   W48
 .byte   W48
@  #14 @004   ----------------------------------------
 .byte   W48
 .byte   W48
@  #14 @005   ----------------------------------------
 .byte   W48
 .byte   W48
@  #14 @006   ----------------------------------------
 .byte   W48
 .byte   W48
@  #14 @007   ----------------------------------------
 .byte   W48
 .byte   W48
@  #14 @008   ----------------------------------------
Label_01136048:
 .byte   W48
 .byte   W48
@  #14 @009   ----------------------------------------
 .byte   W48
 .byte   W48
@  #14 @010   ----------------------------------------
 .byte   W48
 .byte   W48
@  #14 @011   ----------------------------------------
 .byte   W48
 .byte   W48
@  #14 @012   ----------------------------------------
 .byte   W48
 .byte   W48
@  #14 @013   ----------------------------------------
 .byte   W48
 .byte   W48
@  #14 @014   ----------------------------------------
 .byte   W48
 .byte   W48
@  #14 @015   ----------------------------------------
 .byte   W48
 .byte   W48
@  #14 @016   ----------------------------------------
Label_01136058:
 .byte   N92 ,An2 ,v036
 .byte   W06
 .byte   W03
 .byte   W03
 .byte   W03
 .byte   W03
 .byte   W03
 .byte   W03
 .byte   W03
 .byte   W03
 .byte   W03
 .byte   W03
 .byte   W03
 .byte   W03
 .byte   W03
 .byte   W03
 .byte   PEND 
Label_0113606B:
 .byte   W03
 .byte   W03
 .byte   W03
 .byte   W04
 .byte   W03
 .byte   W03
 .byte   W03
 .byte   W03
 .byte   W03
 .byte   W03
 .byte   W03
 .byte   W03
 .byte   W03
 .byte   W03
 .byte   W03
 .byte   W02
 .byte   PEND 
@  #14 @017   ----------------------------------------
 .byte   N92 ,Gn2 ,v064
 .byte   W48
 .byte   W48
@  #14 @018   ----------------------------------------
Label_01136081:
 .byte   TIE ,Fn2 ,v064
 .byte   W09
 .byte   W04
 .byte   W05
 .byte   W05
 .byte   W04
 .byte   W05
 .byte   W04
 .byte   W05
 .byte   W05
 .byte   W02
 .byte   PEND 
Label_0113608F:
 .byte   W02
 .byte   W05
 .byte   W04
 .byte   W05
 .byte   W05
 .byte   W04
 .byte   W05
 .byte   W04
 .byte   W05
 .byte   W05
 .byte   W04
 .byte   PEND 
@  #14 @019   ----------------------------------------
Label_0113609B:
 .byte   W05
 .byte   W04
 .byte   W05
 .byte   W05
 .byte   W04
 .byte   W05
 .byte   W04
 .byte   W05
 .byte   W05
 .byte   W04
 .byte   W01
 .byte   PEND 
 .byte   EOT
 .byte   Fn2
 .byte   W01
 .byte   W48
@  #14 @020   ----------------------------------------
Label_011360AB:
 .byte   N44 ,Fn2 ,v036
 .byte   W06
 .byte   W03
 .byte   W03
 .byte   W03
 .byte   W03
 .byte   W03
 .byte   W03
 .byte   W03
 .byte   W03
 .byte   W03
 .byte   W03
 .byte   W03
 .byte   W03
 .byte   W03
 .byte   W03
 .byte   PEND 
Label_011360BE:
 .byte   N44 ,En2 ,v048
 .byte   W03
 .byte   W03
 .byte   W03
 .byte   W04
 .byte   W03
 .byte   W03
 .byte   W03
 .byte   W03
 .byte   W03
 .byte   W03
 .byte   W03
 .byte   W03
 .byte   W03
 .byte   W03
 .byte   W03
 .byte   W02
 .byte   PEND 
@  #14 @021   ----------------------------------------
 .byte   N92 ,Gn2 ,v064
 .byte   W48
 .byte   W48
@  #14 @022   ----------------------------------------
Label_011360D7:
 .byte   TIE ,Gn2 ,v064
 .byte   W09
 .byte   W04
 .byte   W05
 .byte   W05
 .byte   W04
 .byte   W05
 .byte   W04
 .byte   W05
 .byte   W05
 .byte   W02
 .byte   PEND 
@  #14 @023   ----------------------------------------
 .byte   PATT
  .word Label_0113608F
@  #14 @024   ----------------------------------------
 .byte   PATT
  .word Label_0113609B
@  #14 @025   ----------------------------------------
 .byte   EOT
 .byte   Gn2
 .byte   W01
 .byte   W48
@  #14 @026   ----------------------------------------
 .byte   PATT
  .word Label_01136058
@  #14 @027   ----------------------------------------
 .byte   PATT
  .word Label_0113606B
@  #14 @028   ----------------------------------------
 .byte   N92 ,Gn2 ,v064
 .byte   W48
 .byte   W48
@  #14 @029   ----------------------------------------
 .byte   PATT
  .word Label_01136081
@  #14 @030   ----------------------------------------
 .byte   PATT
  .word Label_0113608F
@  #14 @031   ----------------------------------------
 .byte   PATT
  .word Label_0113609B
@  #14 @032   ----------------------------------------
 .byte   EOT
 .byte   Fn2
 .byte   W01
 .byte   W48
@  #14 @033   ----------------------------------------
 .byte   PATT
  .word Label_011360AB
@  #14 @034   ----------------------------------------
 .byte   PATT
  .word Label_011360BE
@  #14 @035   ----------------------------------------
 .byte   N92 ,Gn2 ,v064
 .byte   W48
 .byte   W48
@  #14 @036   ----------------------------------------
Label_01136124:
 .byte   TIE ,Gn2 ,v064
 .byte   W09
 .byte   W10
 .byte   W09
 .byte   W10
 .byte   W10
 .byte   PEND 
Label_0113612D:
 .byte   W09
 .byte   W10
 .byte   W09
 .byte   W10
 .byte   W10
 .byte   PEND 
@  #14 @037   ----------------------------------------
Label_01136133:
 .byte   W09
 .byte   W10
 .byte   W09
 .byte   W10
 .byte   W09
 .byte   PEND 
 .byte   EOT
 .byte   Gn2
 .byte   W01
 .byte   W48
@  #14 @038   ----------------------------------------
 .byte   W24
 .byte   N11 ,An2 ,v080
 .byte   W24
 .byte   W12
 .byte   N11
 .byte   W36
@  #14 @039   ----------------------------------------
 .byte   W24
 .byte   Gn2
 .byte   W24
Label_01136148:
 .byte   N11 ,Dn2 ,v080
 .byte   W24
 .byte   N11
 .byte   W24
 .byte   PEND 
@  #14 @040   ----------------------------------------
Label_0113614F:
 .byte   W24
 .byte   N11 ,En2 ,v080
 .byte   N11 ,An2
 .byte   W24
 .byte   PEND 
Label_01136157:
 .byte   W12
 .byte   N11 ,En2 ,v080
 .byte   N11 ,An2
 .byte   W36
 .byte   PEND 
@  #14 @041   ----------------------------------------
 .byte   PATT
  .word Label_0113614F
@  #14 @042   ----------------------------------------
Label_01136164:
 .byte   N11 ,En2 ,v080
 .byte   N11 ,An2
 .byte   W24
 .byte   En2
 .byte   W24
 .byte   PEND 
Label_0113616D:
 .byte   W24
 .byte   N11 ,Dn2 ,v080
 .byte   N11 ,Fn2
 .byte   W24
 .byte   PEND 
@  #14 @043   ----------------------------------------
Label_01136175:
 .byte   W12
 .byte   N11 ,Dn2 ,v080
 .byte   N11 ,Fn2
 .byte   W36
 .byte   PEND 
@  #14 @044   ----------------------------------------
 .byte   PATT
  .word Label_0113616D
@  #14 @045   ----------------------------------------
Label_01136182:
 .byte   N11 ,Fn2 ,v080
 .byte   N11 ,Gn2
 .byte   W24
 .byte   Dn2
 .byte   N11 ,Gn2
 .byte   W24
 .byte   PEND 
Label_0113618D:
 .byte   W24
 .byte   N11 ,Gn2 ,v080
 .byte   N11 ,Bn2
 .byte   W24
 .byte   PEND 
@  #14 @046   ----------------------------------------
Label_01136195:
 .byte   W12
 .byte   N11 ,Gn2 ,v080
 .byte   N11 ,Bn2
 .byte   W36
 .byte   PEND 
@  #14 @047   ----------------------------------------
 .byte   PATT
  .word Label_0113618D
@  #14 @048   ----------------------------------------
Label_011361A2:
 .byte   N11 ,Gn2 ,v080
 .byte   N11 ,Bn2
 .byte   W24
 .byte   Gn2
 .byte   N11 ,Bn2
 .byte   W24
 .byte   PEND 
 .byte   W24
 .byte   An2
 .byte   W24
@  #14 @049   ----------------------------------------
 .byte   W12
 .byte   N11
 .byte   W36
 .byte   W24
 .byte   Gn2
 .byte   W24
@  #14 @050   ----------------------------------------
 .byte   PATT
  .word Label_01136148
@  #14 @051   ----------------------------------------
 .byte   PATT
  .word Label_0113614F
@  #14 @052   ----------------------------------------
 .byte   PATT
  .word Label_01136157
@  #14 @053   ----------------------------------------
 .byte   PATT
  .word Label_0113614F
@  #14 @054   ----------------------------------------
 .byte   PATT
  .word Label_01136164
@  #14 @055   ----------------------------------------
 .byte   PATT
  .word Label_0113616D
@  #14 @056   ----------------------------------------
 .byte   PATT
  .word Label_01136175
@  #14 @057   ----------------------------------------
 .byte   PATT
  .word Label_0113616D
@  #14 @058   ----------------------------------------
Label_011361DE:
 .byte   N11 ,Dn2 ,v080
 .byte   N11 ,Fn2
 .byte   W24
 .byte   Dn2
 .byte   N11 ,Fn2
 .byte   W24
 .byte   PEND 
 .byte   N92 ,Bn2
 .byte   W48
@  #14 @059   ----------------------------------------
 .byte   W48
 .byte   W48
@  #14 @060   ----------------------------------------
 .byte   W48
 .byte   W48
@  #14 @061   ----------------------------------------
 .byte   W48
 .byte   W48
@  #14 @062   ----------------------------------------
 .byte   W48
 .byte   W48
@  #14 @063   ----------------------------------------
 .byte   W48
 .byte   W48
@  #14 @064   ----------------------------------------
 .byte   W48
 .byte   W48
@  #14 @065   ----------------------------------------
 .byte   W48
 .byte   W48
@  #14 @066   ----------------------------------------
 .byte   W48
 .byte   W48
@  #14 @067   ----------------------------------------
 .byte   W48
 .byte   W48
@  #14 @068   ----------------------------------------
 .byte   W48
 .byte   W48
@  #14 @069   ----------------------------------------
 .byte   W48
 .byte   W48
@  #14 @070   ----------------------------------------
 .byte   W48
 .byte   W48
@  #14 @071   ----------------------------------------
 .byte   W48
 .byte   W48
@  #14 @072   ----------------------------------------
 .byte   W48
 .byte   W48
@  #14 @073   ----------------------------------------
 .byte   W48
 .byte   W48
@  #14 @074   ----------------------------------------
 .byte   W48
 .byte   W48
@  #14 @075   ----------------------------------------
 .byte   W48
 .byte   W48
@  #14 @076   ----------------------------------------
 .byte   W48
 .byte   W48
@  #14 @077   ----------------------------------------
 .byte   W48
 .byte   W48
@  #14 @078   ----------------------------------------
 .byte   W48
 .byte   W48
@  #14 @079   ----------------------------------------
 .byte   W48
 .byte   W48
@  #14 @080   ----------------------------------------
 .byte   W48
 .byte   W48
@  #14 @081   ----------------------------------------
 .byte   W48
 .byte   W48
@  #14 @082   ----------------------------------------
 .byte   W48
 .byte   W48
@  #14 @083   ----------------------------------------
 .byte   W48
 .byte   W48
@  #14 @084   ----------------------------------------
 .byte   W48
 .byte   W48
@  #14 @085   ----------------------------------------
 .byte   W48
 .byte   W48
@  #14 @086   ----------------------------------------
 .byte   W48
 .byte   W48
@  #14 @087   ----------------------------------------
 .byte   W48
 .byte   W48
@  #14 @088   ----------------------------------------
 .byte   W48
 .byte   W48
@  #14 @089   ----------------------------------------
 .byte   W48
 .byte   W48
@  #14 @090   ----------------------------------------
 .byte   W48
 .byte   W48
@  #14 @091   ----------------------------------------
 .byte   W48
 .byte   En2 ,v064
 .byte   W48
@  #14 @092   ----------------------------------------
 .byte   W48
 .byte   W48
@  #14 @093   ----------------------------------------
 .byte   W48
 .byte   W48
@  #14 @094   ----------------------------------------
 .byte   W48
 .byte   W48
@  #14 @095   ----------------------------------------
 .byte   W48
 .byte   W48
@  #14 @096   ----------------------------------------
 .byte   W48
 .byte   W48
@  #14 @097   ----------------------------------------
 .byte   W48
 .byte   W48
@  #14 @098   ----------------------------------------
 .byte   W48
 .byte   W48
@  #14 @099   ----------------------------------------
 .byte   W48
 .byte   W48
@  #14 @100   ----------------------------------------
 .byte   W48
 .byte   W48
@  #14 @101   ----------------------------------------
 .byte   W48
 .byte   W48
@  #14 @102   ----------------------------------------
 .byte   W48
 .byte   W48
@  #14 @103   ----------------------------------------
 .byte   W48
 .byte   W48
@  #14 @104   ----------------------------------------
 .byte   W48
 .byte   W48
@  #14 @105   ----------------------------------------
 .byte   W48
 .byte   W48
@  #14 @106   ----------------------------------------
 .byte   W48
 .byte   W48
@  #14 @107   ----------------------------------------
 .byte   W48
 .byte   W48
@  #14 @108   ----------------------------------------
 .byte   W48
 .byte   W48
@  #14 @109   ----------------------------------------
 .byte   W48
 .byte   W48
@  #14 @110   ----------------------------------------
 .byte   W48
 .byte   W48
@  #14 @111   ----------------------------------------
 .byte   W48
 .byte   W48
@  #14 @112   ----------------------------------------
 .byte   W48
 .byte   W48
@  #14 @113   ----------------------------------------
 .byte   W48
 .byte   W48
@  #14 @114   ----------------------------------------
 .byte   W48
 .byte   W48
@  #14 @115   ----------------------------------------
 .byte   W48
 .byte   W48
@  #14 @116   ----------------------------------------
 .byte   W48
 .byte   W48
@  #14 @117   ----------------------------------------
 .byte   W48
 .byte   W48
@  #14 @118   ----------------------------------------
 .byte   W48
 .byte   W48
@  #14 @119   ----------------------------------------
 .byte   W48
 .byte   W48
@  #14 @120   ----------------------------------------
 .byte   W48
 .byte   W48
@  #14 @121   ----------------------------------------
 .byte   W48
 .byte   W48
@  #14 @122   ----------------------------------------
 .byte   W48
 .byte   W48
@  #14 @123   ----------------------------------------
 .byte   W48
 .byte   W48
@  #14 @124   ----------------------------------------
 .byte   W48
 .byte   W48
@  #14 @125   ----------------------------------------
 .byte   W48
 .byte   W48
@  #14 @126   ----------------------------------------
 .byte   W48
 .byte   W48
@  #14 @127   ----------------------------------------
 .byte   W48
 .byte   W48
@  #14 @128   ----------------------------------------
 .byte   W48
 .byte   W48
@  #14 @129   ----------------------------------------
 .byte   W48
 .byte   W48
@  #14 @130   ----------------------------------------
 .byte   W48
 .byte   W48
@  #14 @131   ----------------------------------------
 .byte   W48
 .byte   W48
@  #14 @132   ----------------------------------------
 .byte   W48
 .byte   W48
@  #14 @133   ----------------------------------------
 .byte   W48
 .byte   W48
@  #14 @134   ----------------------------------------
 .byte   W48
 .byte   W48
@  #14 @135   ----------------------------------------
 .byte   W48
 .byte   W48
@  #14 @136   ----------------------------------------
 .byte   W48
 .byte   W48
@  #14 @137   ----------------------------------------
 .byte   W48
 .byte   W48
@  #14 @138   ----------------------------------------
 .byte   W48
 .byte   W48
@  #14 @139   ----------------------------------------
 .byte   W48
 .byte   W48
@  #14 @140   ----------------------------------------
 .byte   W48
 .byte   W48
@  #14 @141   ----------------------------------------
 .byte   W48
 .byte   W48
@  #14 @142   ----------------------------------------
 .byte   W48
 .byte   W48
@  #14 @143   ----------------------------------------
 .byte   W48
 .byte   W48
@  #14 @144   ----------------------------------------
 .byte   W48
 .byte   W48
@  #14 @145   ----------------------------------------
 .byte   W48
 .byte   W48
@  #14 @146   ----------------------------------------
 .byte   W48
 .byte   W48
@  #14 @147   ----------------------------------------
 .byte   W48
 .byte   W48
@  #14 @148   ----------------------------------------
 .byte   W48
 .byte   W48
@  #14 @149   ----------------------------------------
 .byte   W48
 .byte   W48
@  #14 @150   ----------------------------------------
 .byte   W48
 .byte   W48
@  #14 @151   ----------------------------------------
 .byte   W48
 .byte   W48
@  #14 @152   ----------------------------------------
 .byte   W48
 .byte   W48
@  #14 @153   ----------------------------------------
 .byte   W48
 .byte   W48
@  #14 @154   ----------------------------------------
 .byte   W48
 .byte   W48
@  #14 @155   ----------------------------------------
 .byte   W48
 .byte   W48
@  #14 @156   ----------------------------------------
 .byte   W48
 .byte   W48
@  #14 @157   ----------------------------------------
 .byte   W48
 .byte   W48
@  #14 @158   ----------------------------------------
 .byte   W48
 .byte   W48
@  #14 @159   ----------------------------------------
 .byte   W48
 .byte   W48
@  #14 @160   ----------------------------------------
 .byte   W48
 .byte   W48
@  #14 @161   ----------------------------------------
 .byte   W48
 .byte   W48
@  #14 @162   ----------------------------------------
 .byte   W48
 .byte   W48
@  #14 @163   ----------------------------------------
 .byte   W48
 .byte   W48
@  #14 @164   ----------------------------------------
 .byte   W48
 .byte   W48
@  #14 @165   ----------------------------------------
 .byte   W48
 .byte   W48
@  #14 @166   ----------------------------------------
 .byte   W48
 .byte   W48
@  #14 @167   ----------------------------------------
 .byte   W48
 .byte   W48
@  #14 @168   ----------------------------------------
 .byte   W48
 .byte   W48
@  #14 @169   ----------------------------------------
 .byte   W48
 .byte   W48
@  #14 @170   ----------------------------------------
 .byte   W48
 .byte   W48
@  #14 @171   ----------------------------------------
 .byte   W48
 .byte   W48
@  #14 @172   ----------------------------------------
 .byte   W48
 .byte   W48
@  #14 @173   ----------------------------------------
 .byte   W48
Label_011362D3:
 .byte   N68 ,Ds4 ,v016
 .byte   N68 ,Fs4
 .byte   W02
 .byte   W01
 .byte   W01
 .byte   W01
 .byte   W01
 .byte   W01
 .byte   W01
 .byte   W01
 .byte   W02
 .byte   W01
 .byte   W01
 .byte   W01
 .byte   W01
 .byte   W01
 .byte   W01
 .byte   W01
 .byte   W01
 .byte   W01
 .byte   W02
 .byte   W01
 .byte   W01
 .byte   W01
 .byte   W01
 .byte   W01
 .byte   W01
 .byte   W01
 .byte   W01
 .byte   W01
 .byte   W02
 .byte   W01
 .byte   W01
 .byte   W01
 .byte   W01
 .byte   W01
 .byte   W01
 .byte   W01
 .byte   W01
 .byte   W01
 .byte   W02
 .byte   W01
 .byte   W01
 .byte   W01
 .byte   W01
 .byte   PEND 
@  #14 @174   ----------------------------------------
Label_01136304:
 .byte   W01
 .byte   W02
 .byte   W01
 .byte   W01
 .byte   W02
 .byte   W01
 .byte   W01
 .byte   W01
 .byte   W01
 .byte   W01
 .byte   W01
 .byte   W01
 .byte   W01
 .byte   W01
 .byte   W02
 .byte   W01
 .byte   W01
 .byte   W01
 .byte   W01
 .byte   W01
 .byte   W24
 .byte   W01
 .byte   PEND 
 .byte   W48
@  #14 @175   ----------------------------------------
 .byte   W48
 .byte   W48
@  #14 @176   ----------------------------------------
 .byte   W48
 .byte   W48
@  #14 @177   ----------------------------------------
 .byte   W48
 .byte   W48
@  #14 @178   ----------------------------------------
 .byte   W48
 .byte   W48
@  #14 @179   ----------------------------------------
 .byte   W48
 .byte   W48
@  #14 @180   ----------------------------------------
 .byte   W48
 .byte   W48
@  #14 @181   ----------------------------------------
 .byte   W48
 .byte   W48
@  #14 @182   ----------------------------------------
 .byte   W48
 .byte   W48
@  #14 @183   ----------------------------------------
 .byte   W48
 .byte   W48
@  #14 @184   ----------------------------------------
 .byte   W48
 .byte   W48
@  #14 @185   ----------------------------------------
 .byte   W48
 .byte   W48
@  #14 @186   ----------------------------------------
 .byte   W48
 .byte   W48
@  #14 @187   ----------------------------------------
 .byte   W48
 .byte   W48
@  #14 @188   ----------------------------------------
 .byte   W48
 .byte   W48
@  #14 @189   ----------------------------------------
 .byte   W48
 .byte   W48
@  #14 @190   ----------------------------------------
 .byte   W48
 .byte   W48
@  #14 @191   ----------------------------------------
 .byte   W48
 .byte   W48
@  #14 @192   ----------------------------------------
 .byte   W48
 .byte   W48
@  #14 @193   ----------------------------------------
 .byte   W48
 .byte   W48
@  #14 @194   ----------------------------------------
 .byte   W48
 .byte   W48
@  #14 @195   ----------------------------------------
 .byte   W48
 .byte   W48
@  #14 @196   ----------------------------------------
 .byte   W48
 .byte   W48
@  #14 @197   ----------------------------------------
 .byte   W48
 .byte   W48
@  #14 @198   ----------------------------------------
 .byte   W48
 .byte   W48
@  #14 @199   ----------------------------------------
 .byte   W48
 .byte   W48
@  #14 @200   ----------------------------------------
 .byte   W48
 .byte   W48
@  #14 @201   ----------------------------------------
 .byte   W48
 .byte   W48
@  #14 @202   ----------------------------------------
 .byte   W48
 .byte   W48
@  #14 @203   ----------------------------------------
 .byte   W48
 .byte   W48
@  #14 @204   ----------------------------------------
 .byte   W48
 .byte   W48
@  #14 @205   ----------------------------------------
 .byte   W48
 .byte   W48
@  #14 @206   ----------------------------------------
 .byte   W48
 .byte   W48
@  #14 @207   ----------------------------------------
 .byte   W48
 .byte   W48
@  #14 @208   ----------------------------------------
 .byte   W48
 .byte   GOTO
  .word Label_01136048
@  #14 @209   ----------------------------------------
 .byte   W48
 .byte   W48
@  #14 @210   ----------------------------------------
 .byte   W48
 .byte   W48
@  #14 @211   ----------------------------------------
 .byte   W48
 .byte   W48
@  #14 @212   ----------------------------------------
 .byte   W48
 .byte   W48
@  #14 @213   ----------------------------------------
 .byte   W48
 .byte   W48
@  #14 @214   ----------------------------------------
 .byte   W48
 .byte   W48
@  #14 @215   ----------------------------------------
 .byte   W48
 .byte   W48
@  #14 @216   ----------------------------------------
 .byte   W48
 .byte   W48
@  #14 @217   ----------------------------------------
 .byte   PATT
  .word Label_01136058
@  #14 @218   ----------------------------------------
 .byte   PATT
  .word Label_0113606B
@  #14 @219   ----------------------------------------
 .byte   N92 ,Gn2 ,v064
 .byte   W48
 .byte   W48
@  #14 @220   ----------------------------------------
 .byte   PATT
  .word Label_01136081
@  #14 @221   ----------------------------------------
 .byte   PATT
  .word Label_0113608F
@  #14 @222   ----------------------------------------
 .byte   PATT
  .word Label_0113609B
@  #14 @223   ----------------------------------------
 .byte   EOT
 .byte   Fn2
 .byte   W01
 .byte   W48
@  #14 @224   ----------------------------------------
 .byte   PATT
  .word Label_011360AB
@  #14 @225   ----------------------------------------
 .byte   PATT
  .word Label_011360BE
@  #14 @226   ----------------------------------------
 .byte   N92 ,Gn2 ,v064
 .byte   W48
 .byte   W48
@  #14 @227   ----------------------------------------
 .byte   PATT
  .word Label_011360D7
@  #14 @228   ----------------------------------------
 .byte   PATT
  .word Label_0113608F
@  #14 @229   ----------------------------------------
 .byte   PATT
  .word Label_0113609B
@  #14 @230   ----------------------------------------
 .byte   EOT
 .byte   Gn2
 .byte   W01
 .byte   W48
@  #14 @231   ----------------------------------------
 .byte   PATT
  .word Label_01136058
@  #14 @232   ----------------------------------------
 .byte   PATT
  .word Label_0113606B
@  #14 @233   ----------------------------------------
 .byte   N92 ,Gn2 ,v064
 .byte   W48
 .byte   W48
@  #14 @234   ----------------------------------------
 .byte   PATT
  .word Label_01136081
@  #14 @235   ----------------------------------------
 .byte   PATT
  .word Label_0113608F
@  #14 @236   ----------------------------------------
 .byte   PATT
  .word Label_0113609B
@  #14 @237   ----------------------------------------
 .byte   EOT
 .byte   Fn2
 .byte   W01
 .byte   W48
@  #14 @238   ----------------------------------------
 .byte   PATT
  .word Label_011360AB
@  #14 @239   ----------------------------------------
 .byte   PATT
  .word Label_011360BE
@  #14 @240   ----------------------------------------
 .byte   N92 ,Gn2 ,v064
 .byte   W48
 .byte   W48
@  #14 @241   ----------------------------------------
 .byte   PATT
  .word Label_01136124
@  #14 @242   ----------------------------------------
 .byte   PATT
  .word Label_0113612D
@  #14 @243   ----------------------------------------
 .byte   PATT
  .word Label_01136133
@  #14 @244   ----------------------------------------
 .byte   EOT
 .byte   Gn2
 .byte   W01
 .byte   W48
 .byte   W24
 .byte   N11 ,An2 ,v080
 .byte   W24
@  #14 @245   ----------------------------------------
 .byte   W12
 .byte   N11
 .byte   W36
 .byte   W24
 .byte   Gn2
 .byte   W24
@  #14 @246   ----------------------------------------
 .byte   PATT
  .word Label_01136148
@  #14 @247   ----------------------------------------
 .byte   PATT
  .word Label_0113614F
@  #14 @248   ----------------------------------------
 .byte   PATT
  .word Label_01136157
@  #14 @249   ----------------------------------------
 .byte   PATT
  .word Label_0113614F
@  #14 @250   ----------------------------------------
 .byte   PATT
  .word Label_01136164
@  #14 @251   ----------------------------------------
 .byte   PATT
  .word Label_0113616D
@  #14 @252   ----------------------------------------
 .byte   PATT
  .word Label_01136175
@  #14 @253   ----------------------------------------
 .byte   PATT
  .word Label_0113616D
@  #14 @254   ----------------------------------------
 .byte   PATT
  .word Label_01136182
@  #14 @255   ----------------------------------------
 .byte   PATT
  .word Label_0113618D
@  #14 @256   ----------------------------------------
 .byte   PATT
  .word Label_01136195
@  #14 @257   ----------------------------------------
 .byte   PATT
  .word Label_0113618D
@  #14 @258   ----------------------------------------
 .byte   PATT
  .word Label_011361A2
@  #14 @259   ----------------------------------------
 .byte   W24
 .byte   N11 ,An2 ,v080
 .byte   W24
 .byte   W12
 .byte   N11
 .byte   W36
@  #14 @260   ----------------------------------------
 .byte   W24
 .byte   Gn2
 .byte   W24
@  #14 @261   ----------------------------------------
 .byte   PATT
  .word Label_01136148
@  #14 @262   ----------------------------------------
 .byte   PATT
  .word Label_0113614F
@  #14 @263   ----------------------------------------
 .byte   PATT
  .word Label_01136157
@  #14 @264   ----------------------------------------
 .byte   PATT
  .word Label_0113614F
@  #14 @265   ----------------------------------------
 .byte   PATT
  .word Label_01136164
@  #14 @266   ----------------------------------------
 .byte   PATT
  .word Label_0113616D
@  #14 @267   ----------------------------------------
 .byte   PATT
  .word Label_01136175
@  #14 @268   ----------------------------------------
 .byte   PATT
  .word Label_0113616D
@  #14 @269   ----------------------------------------
 .byte   PATT
  .word Label_011361DE
@  #14 @270   ----------------------------------------
 .byte   N92 ,Bn2 ,v080
 .byte   W48
 .byte   W48
@  #14 @271   ----------------------------------------
 .byte   W48
 .byte   W48
@  #14 @272   ----------------------------------------
 .byte   W48
 .byte   W48
@  #14 @273   ----------------------------------------
 .byte   W48
 .byte   W48
@  #14 @274   ----------------------------------------
 .byte   W48
 .byte   W48
@  #14 @275   ----------------------------------------
 .byte   W48
 .byte   W48
@  #14 @276   ----------------------------------------
 .byte   W48
 .byte   W48
@  #14 @277   ----------------------------------------
 .byte   W48
 .byte   W48
@  #14 @278   ----------------------------------------
 .byte   W48
 .byte   W48
@  #14 @279   ----------------------------------------
 .byte   W48
 .byte   W48
@  #14 @280   ----------------------------------------
 .byte   W48
 .byte   W48
@  #14 @281   ----------------------------------------
 .byte   W48
 .byte   W48
@  #14 @282   ----------------------------------------
 .byte   W48
 .byte   W48
@  #14 @283   ----------------------------------------
 .byte   W48
 .byte   W48
@  #14 @284   ----------------------------------------
 .byte   W48
 .byte   W48
@  #14 @285   ----------------------------------------
 .byte   W48
 .byte   W48
@  #14 @286   ----------------------------------------
 .byte   W48
 .byte   W48
@  #14 @287   ----------------------------------------
 .byte   W48
 .byte   W48
@  #14 @288   ----------------------------------------
 .byte   W48
 .byte   W48
@  #14 @289   ----------------------------------------
 .byte   W48
 .byte   W48
@  #14 @290   ----------------------------------------
 .byte   W48
 .byte   W48
@  #14 @291   ----------------------------------------
 .byte   W48
 .byte   W48
@  #14 @292   ----------------------------------------
 .byte   W48
 .byte   W48
@  #14 @293   ----------------------------------------
 .byte   W48
 .byte   W48
@  #14 @294   ----------------------------------------
 .byte   W48
 .byte   W48
@  #14 @295   ----------------------------------------
 .byte   W48
 .byte   W48
@  #14 @296   ----------------------------------------
 .byte   W48
 .byte   W48
@  #14 @297   ----------------------------------------
 .byte   W48
 .byte   W48
@  #14 @298   ----------------------------------------
 .byte   W48
 .byte   W48
@  #14 @299   ----------------------------------------
 .byte   W48
 .byte   W48
@  #14 @300   ----------------------------------------
 .byte   W48
 .byte   W48
@  #14 @301   ----------------------------------------
 .byte   W48
 .byte   W48
@  #14 @302   ----------------------------------------
 .byte   W48
 .byte   W48
@  #14 @303   ----------------------------------------
 .byte   En2 ,v064
 .byte   W48
 .byte   W48
@  #14 @304   ----------------------------------------
 .byte   W48
 .byte   W48
@  #14 @305   ----------------------------------------
 .byte   W48
 .byte   W48
@  #14 @306   ----------------------------------------
 .byte   W48
 .byte   W48
@  #14 @307   ----------------------------------------
 .byte   W48
 .byte   W48
@  #14 @308   ----------------------------------------
 .byte   W48
 .byte   W48
@  #14 @309   ----------------------------------------
 .byte   W48
 .byte   W48
@  #14 @310   ----------------------------------------
 .byte   W48
 .byte   W48
@  #14 @311   ----------------------------------------
 .byte   W48
 .byte   W48
@  #14 @312   ----------------------------------------
 .byte   W48
 .byte   W48
@  #14 @313   ----------------------------------------
 .byte   W48
 .byte   W48
@  #14 @314   ----------------------------------------
 .byte   W48
 .byte   W48
@  #14 @315   ----------------------------------------
 .byte   W48
 .byte   W48
@  #14 @316   ----------------------------------------
 .byte   W48
 .byte   W48
@  #14 @317   ----------------------------------------
 .byte   W48
 .byte   W48
@  #14 @318   ----------------------------------------
 .byte   W48
 .byte   W48
@  #14 @319   ----------------------------------------
 .byte   W48
 .byte   W48
@  #14 @320   ----------------------------------------
 .byte   W48
 .byte   W48
@  #14 @321   ----------------------------------------
 .byte   W48
 .byte   W48
@  #14 @322   ----------------------------------------
 .byte   W48
 .byte   W48
@  #14 @323   ----------------------------------------
 .byte   W48
 .byte   W48
@  #14 @324   ----------------------------------------
 .byte   W48
 .byte   W48
@  #14 @325   ----------------------------------------
 .byte   W48
 .byte   W48
@  #14 @326   ----------------------------------------
 .byte   W48
 .byte   W48
@  #14 @327   ----------------------------------------
 .byte   W48
 .byte   W48
@  #14 @328   ----------------------------------------
 .byte   W48
 .byte   W48
@  #14 @329   ----------------------------------------
 .byte   W48
 .byte   W48
@  #14 @330   ----------------------------------------
 .byte   W48
 .byte   W48
@  #14 @331   ----------------------------------------
 .byte   W48
 .byte   W48
@  #14 @332   ----------------------------------------
 .byte   W48
 .byte   W48
@  #14 @333   ----------------------------------------
 .byte   W48
 .byte   W48
@  #14 @334   ----------------------------------------
 .byte   W48
 .byte   W48
@  #14 @335   ----------------------------------------
 .byte   W48
 .byte   W48
@  #14 @336   ----------------------------------------
 .byte   W48
 .byte   W48
@  #14 @337   ----------------------------------------
 .byte   W48
 .byte   W48
@  #14 @338   ----------------------------------------
 .byte   W48
 .byte   W48
@  #14 @339   ----------------------------------------
 .byte   W48
 .byte   W48
@  #14 @340   ----------------------------------------
 .byte   W48
 .byte   W48
@  #14 @341   ----------------------------------------
 .byte   W48
 .byte   W48
@  #14 @342   ----------------------------------------
 .byte   W48
 .byte   W48
@  #14 @343   ----------------------------------------
 .byte   W48
 .byte   W48
@  #14 @344   ----------------------------------------
 .byte   W48
 .byte   W48
@  #14 @345   ----------------------------------------
 .byte   W48
 .byte   W48
@  #14 @346   ----------------------------------------
 .byte   W48
 .byte   W48
@  #14 @347   ----------------------------------------
 .byte   W48
 .byte   W48
@  #14 @348   ----------------------------------------
 .byte   W48
 .byte   W48
@  #14 @349   ----------------------------------------
 .byte   W48
 .byte   W48
@  #14 @350   ----------------------------------------
 .byte   W48
 .byte   W48
@  #14 @351   ----------------------------------------
 .byte   W48
 .byte   W48
@  #14 @352   ----------------------------------------
 .byte   W48
 .byte   W48
@  #14 @353   ----------------------------------------
 .byte   W48
 .byte   W48
@  #14 @354   ----------------------------------------
 .byte   W48
 .byte   W48
@  #14 @355   ----------------------------------------
 .byte   W48
 .byte   W48
@  #14 @356   ----------------------------------------
 .byte   W48
 .byte   W48
@  #14 @357   ----------------------------------------
 .byte   W48
 .byte   W48
@  #14 @358   ----------------------------------------
 .byte   W48
 .byte   W48
@  #14 @359   ----------------------------------------
 .byte   W48
 .byte   W48
@  #14 @360   ----------------------------------------
 .byte   W48
 .byte   W48
@  #14 @361   ----------------------------------------
 .byte   W48
 .byte   W48
@  #14 @362   ----------------------------------------
 .byte   W48
 .byte   W48
@  #14 @363   ----------------------------------------
 .byte   W48
 .byte   W48
@  #14 @364   ----------------------------------------
 .byte   W48
 .byte   W48
@  #14 @365   ----------------------------------------
 .byte   W48
 .byte   W48
@  #14 @366   ----------------------------------------
 .byte   W48
 .byte   W48
@  #14 @367   ----------------------------------------
 .byte   W48
 .byte   W48
@  #14 @368   ----------------------------------------
 .byte   W48
 .byte   W48
@  #14 @369   ----------------------------------------
 .byte   W48
 .byte   W48
@  #14 @370   ----------------------------------------
 .byte   W48
 .byte   W48
@  #14 @371   ----------------------------------------
 .byte   W48
 .byte   W48
@  #14 @372   ----------------------------------------
 .byte   W48
 .byte   W48
@  #14 @373   ----------------------------------------
 .byte   W48
 .byte   W48
@  #14 @374   ----------------------------------------
 .byte   W48
 .byte   W48
@  #14 @375   ----------------------------------------
 .byte   W48
 .byte   W48
@  #14 @376   ----------------------------------------
 .byte   W48
 .byte   W48
@  #14 @377   ----------------------------------------
 .byte   W48
 .byte   W48
@  #14 @378   ----------------------------------------
 .byte   W48
 .byte   W48
@  #14 @379   ----------------------------------------
 .byte   W48
 .byte   W48
@  #14 @380   ----------------------------------------
 .byte   W48
 .byte   W48
@  #14 @381   ----------------------------------------
 .byte   W48
 .byte   W48
@  #14 @382   ----------------------------------------
 .byte   W48
 .byte   W48
@  #14 @383   ----------------------------------------
 .byte   W48
 .byte   W48
@  #14 @384   ----------------------------------------
 .byte   W48
 .byte   W48
@  #14 @385   ----------------------------------------
 .byte   PATT
  .word Label_011362D3
@  #14 @386   ----------------------------------------
 .byte   PATT
  .word Label_01136304
@  #14 @387   ----------------------------------------
 .byte   W48
 .byte   W48
@  #14 @388   ----------------------------------------
 .byte   W48
 .byte   W48
@  #14 @389   ----------------------------------------
 .byte   W48
 .byte   W48
@  #14 @390   ----------------------------------------
 .byte   W48
 .byte   W48
@  #14 @391   ----------------------------------------
 .byte   W48
 .byte   W48
@  #14 @392   ----------------------------------------
 .byte   W48
 .byte   W48
@  #14 @393   ----------------------------------------
 .byte   W48
 .byte   W48
@  #14 @394   ----------------------------------------
 .byte   W48
 .byte   W48
@  #14 @395   ----------------------------------------
 .byte   W48
 .byte   W48
@  #14 @396   ----------------------------------------
 .byte   W48
 .byte   W48
@  #14 @397   ----------------------------------------
 .byte   W48
 .byte   W48
@  #14 @398   ----------------------------------------
 .byte   W48
 .byte   W48
@  #14 @399   ----------------------------------------
 .byte   W48
 .byte   W48
@  #14 @400   ----------------------------------------
 .byte   W48
 .byte   W48
@  #14 @401   ----------------------------------------
 .byte   W48
 .byte   W48
@  #14 @402   ----------------------------------------
 .byte   W48
 .byte   W48
@  #14 @403   ----------------------------------------
 .byte   W48
 .byte   W48
@  #14 @404   ----------------------------------------
 .byte   W48
 .byte   W48
@  #14 @405   ----------------------------------------
 .byte   W48
 .byte   W48
@  #14 @406   ----------------------------------------
 .byte   W48
 .byte   W48
@  #14 @407   ----------------------------------------
 .byte   W48
 .byte   W48
@  #14 @408   ----------------------------------------
 .byte   W48
 .byte   W48
@  #14 @409   ----------------------------------------
 .byte   W48
 .byte   W48
@  #14 @410   ----------------------------------------
 .byte   W48
 .byte   W48
@  #14 @411   ----------------------------------------
 .byte   W48
 .byte   W48
@  #14 @412   ----------------------------------------
 .byte   W48
 .byte   W44
 .byte   W03
 .byte   FINE

@**************** Track 15 (Midi-Chn.14) ****************@

.align 2, 0
song06_015:
@  #15 @000   ----------------------------------------
 .byte   KEYSH , song06_key+0
 .byte   VOICE , 49
 .byte   VOL , 67*song06_mvl/mxv
 .byte   PAN , c_v+0
 .byte   VOL , 67*song06_mvl/mxv
 .byte   PAN , c_v+0
 .byte   VOL , 67*song06_mvl/mxv
 .byte   PAN , c_v+0
 .byte   VOL , 67*song06_mvl/mxv
 .byte   PAN , c_v+0
 .byte   VOL , 67*song06_mvl/mxv
 .byte   PAN , c_v+0
 .byte   TIE ,An1 ,v080
 .byte   W48
 .byte   W48
@  #15 @001   ----------------------------------------
 .byte   W48
 .byte   W44
 .byte   W03
 .byte   EOT
 .byte   W01
@  #15 @002   ----------------------------------------
 .byte   TIE ,Fn1
 .byte   W48
 .byte   W48
@  #15 @003   ----------------------------------------
 .byte   W48
 .byte   W44
 .byte   W03
 .byte   EOT
 .byte   W01
@  #15 @004   ----------------------------------------
 .byte   N92 ,Dn1
 .byte   W48
 .byte   W48
@  #15 @005   ----------------------------------------
 .byte   En1
 .byte   W48
 .byte   W48
@  #15 @006   ----------------------------------------
 .byte   Fn1
 .byte   W48
 .byte   W48
@  #15 @007   ----------------------------------------
 .byte   Gn1
 .byte   W48
 .byte   W48
@  #15 @008   ----------------------------------------
Label_011365E4:
 .byte   W48
 .byte   W48
@  #15 @009   ----------------------------------------
 .byte   W48
 .byte   W48
@  #15 @010   ----------------------------------------
 .byte   W48
 .byte   W48
@  #15 @011   ----------------------------------------
 .byte   W48
 .byte   W48
@  #15 @012   ----------------------------------------
 .byte   W48
 .byte   W48
@  #15 @013   ----------------------------------------
 .byte   W48
 .byte   W48
@  #15 @014   ----------------------------------------
 .byte   W48
 .byte   W48
@  #15 @015   ----------------------------------------
 .byte   W48
 .byte   W48
@  #15 @016   ----------------------------------------
 .byte   W48
 .byte   W48
@  #15 @017   ----------------------------------------
 .byte   W48
 .byte   W48
@  #15 @018   ----------------------------------------
 .byte   W48
 .byte   W48
@  #15 @019   ----------------------------------------
 .byte   W48
 .byte   W48
@  #15 @020   ----------------------------------------
 .byte   W48
 .byte   W48
@  #15 @021   ----------------------------------------
 .byte   W48
 .byte   W48
@  #15 @022   ----------------------------------------
 .byte   W48
 .byte   W48
@  #15 @023   ----------------------------------------
 .byte   W48
 .byte   W48
@  #15 @024   ----------------------------------------
 .byte   W48
 .byte   W48
@  #15 @025   ----------------------------------------
 .byte   W48
 .byte   W48
@  #15 @026   ----------------------------------------
 .byte   W48
 .byte   W48
@  #15 @027   ----------------------------------------
 .byte   W48
 .byte   W48
@  #15 @028   ----------------------------------------
 .byte   W48
 .byte   W48
@  #15 @029   ----------------------------------------
 .byte   W48
 .byte   W48
@  #15 @030   ----------------------------------------
 .byte   W48
 .byte   W48
@  #15 @031   ----------------------------------------
 .byte   W48
 .byte   W48
@  #15 @032   ----------------------------------------
 .byte   W48
 .byte   W48
@  #15 @033   ----------------------------------------
 .byte   W48
 .byte   W48
@  #15 @034   ----------------------------------------
 .byte   W48
 .byte   W48
@  #15 @035   ----------------------------------------
 .byte   W48
 .byte   W48
@  #15 @036   ----------------------------------------
 .byte   W48
 .byte   W48
@  #15 @037   ----------------------------------------
 .byte   W48
 .byte   W48
@  #15 @038   ----------------------------------------
 .byte   W48
 .byte   W48
@  #15 @039   ----------------------------------------
 .byte   W48
 .byte   W48
@  #15 @040   ----------------------------------------
 .byte   W48
 .byte   W48
@  #15 @041   ----------------------------------------
 .byte   W48
 .byte   W48
@  #15 @042   ----------------------------------------
 .byte   W48
 .byte   W48
@  #15 @043   ----------------------------------------
 .byte   W48
 .byte   W48
@  #15 @044   ----------------------------------------
 .byte   W48
 .byte   W48
@  #15 @045   ----------------------------------------
 .byte   W48
 .byte   W48
@  #15 @046   ----------------------------------------
 .byte   W48
 .byte   W48
@  #15 @047   ----------------------------------------
 .byte   W48
 .byte   W48
@  #15 @048   ----------------------------------------
 .byte   W48
 .byte   W48
@  #15 @049   ----------------------------------------
 .byte   W48
 .byte   W48
@  #15 @050   ----------------------------------------
 .byte   W48
 .byte   W48
@  #15 @051   ----------------------------------------
 .byte   W48
 .byte   W48
@  #15 @052   ----------------------------------------
 .byte   W48
 .byte   W48
@  #15 @053   ----------------------------------------
 .byte   W48
 .byte   W48
@  #15 @054   ----------------------------------------
 .byte   W48
 .byte   W48
@  #15 @055   ----------------------------------------
 .byte   W48
 .byte   W48
@  #15 @056   ----------------------------------------
 .byte   W48
 .byte   W48
@  #15 @057   ----------------------------------------
 .byte   W48
 .byte   W48
@  #15 @058   ----------------------------------------
 .byte   W48
 .byte   W48
@  #15 @059   ----------------------------------------
 .byte   W48
 .byte   W48
@  #15 @060   ----------------------------------------
 .byte   W48
 .byte   W48
@  #15 @061   ----------------------------------------
 .byte   W48
 .byte   W48
@  #15 @062   ----------------------------------------
 .byte   W48
 .byte   W48
@  #15 @063   ----------------------------------------
 .byte   W48
 .byte   W48
@  #15 @064   ----------------------------------------
Label_01136654:
 .byte   N11 ,En3 ,v064
 .byte   W12
 .byte   An2
 .byte   W12
 .byte   Dn3
 .byte   W12
 .byte   An2
 .byte   W12
 .byte   PEND 
@  #15 @065   ----------------------------------------
 .byte   PATT
  .word Label_01136654
@  #15 @066   ----------------------------------------
 .byte   PATT
  .word Label_01136654
@  #15 @067   ----------------------------------------
 .byte   PATT
  .word Label_01136654
@  #15 @068   ----------------------------------------
Label_0113666E:
 .byte   N11 ,En3 ,v064
 .byte   W12
 .byte   Bn2
 .byte   W12
 .byte   Cn3
 .byte   W12
 .byte   An3
 .byte   W12
 .byte   PEND 
Label_01136679:
 .byte   N11 ,Cn3 ,v064
 .byte   W12
 .byte   Bn2
 .byte   W12
 .byte   Cn3
 .byte   W12
 .byte   Gn3
 .byte   W12
 .byte   PEND 
@  #15 @069   ----------------------------------------
Label_01136684:
 .byte   N11 ,Dn3 ,v064
 .byte   W12
 .byte   Bn2
 .byte   W12
 .byte   Cn3
 .byte   W12
 .byte   Gn3
 .byte   W12
 .byte   PEND 
@  #15 @070   ----------------------------------------
 .byte   PATT
  .word Label_01136684
@  #15 @071   ----------------------------------------
Label_01136694:
 .byte   N11 ,Dn3 ,v064
 .byte   W12
 .byte   Gn2
 .byte   W12
 .byte   Bn2
 .byte   W12
 .byte   Cn3
 .byte   W12
 .byte   PEND 
Label_0113669F:
 .byte   N11 ,Gn2 ,v064
 .byte   W12
 .byte   En2
 .byte   W12
 .byte   Bn2
 .byte   W12
 .byte   Cn3
 .byte   W12
 .byte   PEND 
@  #15 @072   ----------------------------------------
 .byte   PATT
  .word Label_0113669F
@  #15 @073   ----------------------------------------
 .byte   PATT
  .word Label_0113669F
@  #15 @074   ----------------------------------------
 .byte   PATT
  .word Label_01136694
@  #15 @075   ----------------------------------------
 .byte   PATT
  .word Label_0113669F
@  #15 @076   ----------------------------------------
Label_011366BE:
 .byte   N11 ,Gn2 ,v064
 .byte   W12
 .byte   Cn3
 .byte   W12
 .byte   Bn2
 .byte   W12
 .byte   Gn2
 .byte   W12
 .byte   PEND 
Label_011366C9:
 .byte   N11 ,En2 ,v064
 .byte   W12
 .byte   Gn2
 .byte   W12
 .byte   Bn2
 .byte   W12
 .byte   Gn2
 .byte   W12
 .byte   PEND 
@  #15 @077   ----------------------------------------
 .byte   PATT
  .word Label_01136654
@  #15 @078   ----------------------------------------
 .byte   PATT
  .word Label_01136654
@  #15 @079   ----------------------------------------
 .byte   PATT
  .word Label_01136654
@  #15 @080   ----------------------------------------
 .byte   PATT
  .word Label_01136654
@  #15 @081   ----------------------------------------
 .byte   PATT
  .word Label_0113666E
@  #15 @082   ----------------------------------------
 .byte   PATT
  .word Label_01136679
@  #15 @083   ----------------------------------------
 .byte   PATT
  .word Label_01136684
@  #15 @084   ----------------------------------------
 .byte   PATT
  .word Label_01136684
@  #15 @085   ----------------------------------------
 .byte   PATT
  .word Label_01136694
@  #15 @086   ----------------------------------------
 .byte   PATT
  .word Label_0113669F
@  #15 @087   ----------------------------------------
 .byte   PATT
  .word Label_0113669F
@  #15 @088   ----------------------------------------
 .byte   PATT
  .word Label_0113669F
@  #15 @089   ----------------------------------------
Label_01136710:
 .byte   N11 ,Cn3 ,v064
 .byte   W12
 .byte   En2
 .byte   W12
 .byte   Gs2
 .byte   W12
 .byte   Cn3
 .byte   W12
 .byte   PEND 
@  #15 @090   ----------------------------------------
 .byte   PATT
  .word Label_01136710
@  #15 @091   ----------------------------------------
 .byte   W48
 .byte   W48
@  #15 @092   ----------------------------------------
 .byte   N56 ,Cn3 ,v064
 .byte   W48
Label_01136726:
 .byte   W12
 .byte   N11 ,Bn2 ,v064
 .byte   W12
 .byte   An2
 .byte   W12
 .byte   Gn2
 .byte   W12
 .byte   PEND 
@  #15 @093   ----------------------------------------
 .byte   N56 ,An2
 .byte   W48
Label_01136733:
 .byte   W12
 .byte   N11 ,Gn2 ,v064
 .byte   W12
 .byte   Fn2
 .byte   W12
 .byte   En2
 .byte   W12
 .byte   PEND 
@  #15 @094   ----------------------------------------
Label_0113673D:
 .byte   N11 ,Dn2 ,v064
 .byte   W24
 .byte   En2
 .byte   W12
 .byte   TIE
 .byte   W12
 .byte   PEND 
 .byte   W48
@  #15 @095   ----------------------------------------
 .byte   W44
 .byte   W03
 .byte   EOT
 .byte   W01
Label_0113674B:
 .byte   W24
 .byte   N11 ,An2 ,v064
 .byte   W12
 .byte   Bn2
 .byte   W12
 .byte   PEND 
@  #15 @096   ----------------------------------------
 .byte   N56 ,Cn3
 .byte   W48
@  #15 @097   ----------------------------------------
 .byte   PATT
  .word Label_01136726
@  #15 @098   ----------------------------------------
 .byte   N56 ,An2 ,v064
 .byte   W48
Label_0113675F:
 .byte   W12
 .byte   N11 ,Bn2 ,v064
 .byte   W12
 .byte   Cn3
 .byte   W12
 .byte   Dn3
 .byte   W12
 .byte   PEND 
@  #15 @099   ----------------------------------------
Label_01136769:
 .byte   N23 ,Bn2 ,v064
 .byte   W24
 .byte   N11 ,Gn2
 .byte   W12
 .byte   TIE
 .byte   W12
 .byte   PEND 
 .byte   W48
@  #15 @100   ----------------------------------------
 .byte   W44
 .byte   W03
 .byte   EOT
 .byte   W01
Label_01136778:
 .byte   W12
 .byte   N11 ,An2 ,v064
 .byte   W12
 .byte   N11
 .byte   W12
 .byte   Bn2
 .byte   W12
 .byte   PEND 
@  #15 @101   ----------------------------------------
Label_01136782:
 .byte   N11 ,Fn3 ,v064
 .byte   W12
 .byte   N11
 .byte   W12
 .byte   N11
 .byte   W12
 .byte   N11
 .byte   W12
 .byte   PEND 
Label_0113678D:
 .byte   W12
 .byte   N11 ,Bn2 ,v064
 .byte   W12
 .byte   An2
 .byte   N11 ,Cn3
 .byte   N11 ,Fn3
 .byte   W12
 .byte   Gn2
 .byte   N11 ,Cn3
 .byte   N11 ,Fn3
 .byte   W12
 .byte   PEND 
@  #15 @102   ----------------------------------------
Label_0113679F:
 .byte   N56 ,An2 ,v064
 .byte   N11 ,Cn3
 .byte   N11 ,Fn3
 .byte   W12
 .byte   Cn3
 .byte   N11 ,Fn3
 .byte   W36
 .byte   PEND 
@  #15 @103   ----------------------------------------
 .byte   PATT
  .word Label_01136733
@  #15 @104   ----------------------------------------
Label_011367B1:
 .byte   N23 ,Dn2 ,v064
 .byte   N11 ,Bn2
 .byte   N11 ,Dn3
 .byte   W12
 .byte   Bn2
 .byte   N11 ,Dn3
 .byte   W12
 .byte   En2
 .byte   N11 ,Bn2
 .byte   N11 ,Dn3
 .byte   W12
 .byte   N23 ,En2
 .byte   N11 ,Bn2
 .byte   N11 ,Dn3
 .byte   W12
 .byte   PEND 
Label_011367CB:
 .byte   W12
 .byte   N11 ,Fn2 ,v064
 .byte   W12
 .byte   N68 ,Gn2
 .byte   N11 ,Cn3
 .byte   N11 ,En3
 .byte   W12
 .byte   Cn3
 .byte   N11 ,En3
 .byte   W12
 .byte   PEND 
@  #15 @105   ----------------------------------------
Label_011367DC:
 .byte   N11 ,Cn3 ,v064
 .byte   N11 ,En3
 .byte   W12
 .byte   Cn3
 .byte   N11 ,En3
 .byte   W36
 .byte   PEND 
Label_011367E7:
 .byte   W24
 .byte   N11 ,En2 ,v064
 .byte   W12
 .byte   Fn2
 .byte   W12
 .byte   PEND 
@  #15 @106   ----------------------------------------
Label_011367EF:
 .byte   N11 ,Fn2 ,v064
 .byte   N23 ,Gn2
 .byte   N11 ,Cn3
 .byte   W12
 .byte   Fn2
 .byte   N11 ,Cn3
 .byte   W12
 .byte   N11
 .byte   W12
 .byte   N11
 .byte   W12
 .byte   PEND 
Label_01136800:
 .byte   W12
 .byte   N11 ,En2 ,v064
 .byte   W12
 .byte   N68
 .byte   N11 ,Fn2
 .byte   N11 ,Cn3
 .byte   W12
 .byte   Fn2
 .byte   N11 ,Cn3
 .byte   W12
 .byte   PEND 
@  #15 @107   ----------------------------------------
Label_01136810:
 .byte   N11 ,Fn2 ,v064
 .byte   N11 ,Cn3
 .byte   W12
 .byte   Fn2
 .byte   N11 ,Cn3
 .byte   W36
 .byte   PEND 
 .byte   N44 ,Dn2
 .byte   W48
@  #15 @108   ----------------------------------------
Label_0113681E:
 .byte   N23 ,Dn2 ,v064
 .byte   N11 ,Gs2
 .byte   W12
 .byte   Bn2
 .byte   W12
 .byte   En2
 .byte   N11 ,Dn3
 .byte   W12
 .byte   TIE ,En2
 .byte   N11 ,Gs2
 .byte   W12
 .byte   PEND 
Label_01136830:
 .byte   N11 ,Dn3 ,v064
 .byte   W12
 .byte   Fn3
 .byte   W12
 .byte   Gs3
 .byte   W12
 .byte   Fn3
 .byte   W12
 .byte   PEND 
@  #15 @109   ----------------------------------------
Label_0113683B:
 .byte   N11 ,Dn4 ,v064
 .byte   W12
 .byte   Gs3
 .byte   W12
 .byte   Bn3
 .byte   W12
 .byte   Dn4
 .byte   W12
 .byte   PEND 
Label_01136846:
 .byte   N11 ,En4 ,v064
 .byte   W12
 .byte   Gs3
 .byte   W12
 .byte   N05
 .byte   W06
 .byte   Bn3
 .byte   W06
 .byte   Dn4
 .byte   W06
 .byte   En4
 .byte   W05
 .byte   PEND 
 .byte   EOT
 .byte   En2
 .byte   W01
@  #15 @110   ----------------------------------------
 .byte   W48
 .byte   W48
@  #15 @111   ----------------------------------------
 .byte   W48
 .byte   W48
@  #15 @112   ----------------------------------------
 .byte   W48
 .byte   W48
@  #15 @113   ----------------------------------------
 .byte   W48
 .byte   W48
@  #15 @114   ----------------------------------------
 .byte   W48
 .byte   W48
@  #15 @115   ----------------------------------------
 .byte   W48
 .byte   W48
@  #15 @116   ----------------------------------------
 .byte   W48
 .byte   W48
@  #15 @117   ----------------------------------------
 .byte   W48
 .byte   W48
@  #15 @118   ----------------------------------------
 .byte   W48
 .byte   W48
@  #15 @119   ----------------------------------------
 .byte   W48
 .byte   W48
@  #15 @120   ----------------------------------------
 .byte   W48
 .byte   W48
@  #15 @121   ----------------------------------------
 .byte   W48
 .byte   W48
@  #15 @122   ----------------------------------------
 .byte   W48
 .byte   W48
@  #15 @123   ----------------------------------------
 .byte   W48
 .byte   W48
@  #15 @124   ----------------------------------------
 .byte   W48
 .byte   W48
@  #15 @125   ----------------------------------------
 .byte   W48
 .byte   W48
@  #15 @126   ----------------------------------------
 .byte   W48
 .byte   W48
@  #15 @127   ----------------------------------------
 .byte   W48
 .byte   W48
@  #15 @128   ----------------------------------------
 .byte   W48
 .byte   W48
@  #15 @129   ----------------------------------------
 .byte   W48
 .byte   W48
@  #15 @130   ----------------------------------------
 .byte   W48
 .byte   W48
@  #15 @131   ----------------------------------------
 .byte   W48
 .byte   W48
@  #15 @132   ----------------------------------------
 .byte   W48
 .byte   W48
@  #15 @133   ----------------------------------------
 .byte   W48
 .byte   W48
@  #15 @134   ----------------------------------------
 .byte   W48
 .byte   W48
@  #15 @135   ----------------------------------------
 .byte   W48
 .byte   W48
@  #15 @136   ----------------------------------------
 .byte   W48
 .byte   W48
@  #15 @137   ----------------------------------------
 .byte   W48
 .byte   W48
@  #15 @138   ----------------------------------------
 .byte   W48
 .byte   W48
@  #15 @139   ----------------------------------------
 .byte   W48
 .byte   W48
@  #15 @140   ----------------------------------------
 .byte   W48
 .byte   W48
@  #15 @141   ----------------------------------------
 .byte   W48
 .byte   W48
@  #15 @142   ----------------------------------------
 .byte   W48
 .byte   W48
@  #15 @143   ----------------------------------------
 .byte   W48
 .byte   W48
@  #15 @144   ----------------------------------------
 .byte   W48
 .byte   W48
@  #15 @145   ----------------------------------------
 .byte   W48
 .byte   W48
@  #15 @146   ----------------------------------------
 .byte   W48
 .byte   W48
@  #15 @147   ----------------------------------------
 .byte   W48
 .byte   W48
@  #15 @148   ----------------------------------------
 .byte   W48
 .byte   W48
@  #15 @149   ----------------------------------------
 .byte   W48
 .byte   W48
@  #15 @150   ----------------------------------------
 .byte   W48
 .byte   W48
@  #15 @151   ----------------------------------------
 .byte   W48
 .byte   W48
@  #15 @152   ----------------------------------------
 .byte   W48
 .byte   W48
@  #15 @153   ----------------------------------------
 .byte   W48
 .byte   W48
@  #15 @154   ----------------------------------------
 .byte   W48
 .byte   W48
@  #15 @155   ----------------------------------------
 .byte   W48
 .byte   W48
@  #15 @156   ----------------------------------------
 .byte   W48
 .byte   W48
@  #15 @157   ----------------------------------------
 .byte   W48
 .byte   W48
@  #15 @158   ----------------------------------------
 .byte   W48
 .byte   W48
@  #15 @159   ----------------------------------------
 .byte   W48
 .byte   W48
@  #15 @160   ----------------------------------------
 .byte   W48
 .byte   W48
@  #15 @161   ----------------------------------------
 .byte   W48
 .byte   W48
@  #15 @162   ----------------------------------------
 .byte   W48
 .byte   W48
@  #15 @163   ----------------------------------------
 .byte   W48
 .byte   W48
@  #15 @164   ----------------------------------------
 .byte   W48
 .byte   W48
@  #15 @165   ----------------------------------------
 .byte   W48
 .byte   W48
@  #15 @166   ----------------------------------------
 .byte   W48
 .byte   W48
@  #15 @167   ----------------------------------------
 .byte   W48
 .byte   W48
@  #15 @168   ----------------------------------------
 .byte   W48
 .byte   W48
@  #15 @169   ----------------------------------------
 .byte   W48
 .byte   W48
@  #15 @170   ----------------------------------------
 .byte   W48
 .byte   W48
@  #15 @171   ----------------------------------------
 .byte   W48
 .byte   W48
@  #15 @172   ----------------------------------------
 .byte   W48
 .byte   W48
@  #15 @173   ----------------------------------------
 .byte   W48
 .byte   W48
@  #15 @174   ----------------------------------------
 .byte   W48
 .byte   W48
@  #15 @175   ----------------------------------------
 .byte   W48
 .byte   W48
@  #15 @176   ----------------------------------------
 .byte   W48
 .byte   N44 ,Cs3 ,v080
 .byte   W48
@  #15 @177   ----------------------------------------
Label_011368E1:
 .byte   N32 ,Cs3 ,v080
 .byte   W36
 .byte   Ds3
 .byte   W12
 .byte   PEND 
 .byte   W24
 .byte   N23 ,Cn3
 .byte   W24
@  #15 @178   ----------------------------------------
Label_011368EC:
 .byte   N32 ,Cs3 ,v080
 .byte   W36
 .byte   N11 ,Cn3
 .byte   W12
 .byte   PEND 
 .byte   W12
 .byte   N32
 .byte   W36
@  #15 @179   ----------------------------------------
Label_011368F7:
 .byte   N32 ,Ds3 ,v080
 .byte   W36
 .byte   Cs3
 .byte   W12
 .byte   PEND 
 .byte   W24
 .byte   N23 ,Cn3
 .byte   W24
@  #15 @180   ----------------------------------------
 .byte   N44 ,As2
 .byte   W48
Label_01136905:
 .byte   N23 ,Gs3 ,v080
 .byte   W24
 .byte   Fs3
 .byte   W24
 .byte   PEND 
@  #15 @181   ----------------------------------------
 .byte   N44 ,Ds3
 .byte   W48
 .byte   An3
 .byte   W48
@  #15 @182   ----------------------------------------
Label_01136911:
 .byte   N32 ,Cn4 ,v080
 .byte   W36
 .byte   N56 ,As3
 .byte   W12
 .byte   PEND 
 .byte   W48
@  #15 @183   ----------------------------------------
Label_0113691A:
 .byte   N32 ,Gs3 ,v080
 .byte   W36
 .byte   Fs3
 .byte   W12
 .byte   PEND 
 .byte   W24
 .byte   N23 ,Fn3
 .byte   W24
@  #15 @184   ----------------------------------------
Label_01136925:
 .byte   N23 ,Fn3 ,v080
 .byte   W24
 .byte   Fs3
 .byte   W24
 .byte   PEND 
Label_0113692C:
 .byte   N32 ,As3 ,v080
 .byte   W36
 .byte   N44 ,Gs3
 .byte   W12
 .byte   PEND 
@  #15 @185   ----------------------------------------
 .byte   W36
 .byte   N32 ,Ds3
 .byte   W12
 .byte   W24
 .byte   N23 ,Gs3
 .byte   W24
@  #15 @186   ----------------------------------------
Label_0113693C:
 .byte   N32 ,Ds3 ,v080
 .byte   W36
 .byte   N80 ,Cn4
 .byte   W12
 .byte   PEND 
 .byte   W48
@  #15 @187   ----------------------------------------
 .byte   W24
 .byte   N68 ,Cs4
 .byte   W24
 .byte   W48
@  #15 @188   ----------------------------------------
 .byte   N44 ,Fs3
 .byte   W48
 .byte   As3
 .byte   W48
@  #15 @189   ----------------------------------------
 .byte   An3
 .byte   W48
 .byte   Fn3
 .byte   W48
@  #15 @190   ----------------------------------------
Label_01136953:
 .byte   N32 ,Ds3 ,v080
 .byte   W36
 .byte   TIE ,Cs3
 .byte   W12
 .byte   PEND 
 .byte   W48
@  #15 @191   ----------------------------------------
 .byte   W48
 .byte   W44
 .byte   W03
 .byte   EOT
 .byte   W01
@  #15 @192   ----------------------------------------
Label_01136961:
 .byte   N11 ,Cs3 ,v060
 .byte   W03
 .byte   W01
 .byte   W01
 .byte   W19
 .byte   N11
 .byte   W03
 .byte   W01
 .byte   W01
 .byte   W19
 .byte   PEND 
@  #15 @193   ----------------------------------------
 .byte   PATT
  .word Label_01136961
@  #15 @194   ----------------------------------------
 .byte   PATT
  .word Label_01136961
@  #15 @195   ----------------------------------------
 .byte   PATT
  .word Label_01136961
@  #15 @196   ----------------------------------------
 .byte   PATT
  .word Label_01136961
@  #15 @197   ----------------------------------------
 .byte   PATT
  .word Label_01136961
@  #15 @198   ----------------------------------------
 .byte   PATT
  .word Label_01136961
@  #15 @199   ----------------------------------------
 .byte   PATT
  .word Label_01136961
@  #15 @200   ----------------------------------------
 .byte   PATT
  .word Label_01136961
@  #15 @201   ----------------------------------------
 .byte   PATT
  .word Label_01136961
@  #15 @202   ----------------------------------------
 .byte   PATT
  .word Label_01136961
@  #15 @203   ----------------------------------------
 .byte   PATT
  .word Label_01136961
@  #15 @204   ----------------------------------------
Label_011369A5:
 .byte   N11 ,Cn3 ,v060
 .byte   W03
 .byte   W01
 .byte   W01
 .byte   W19
 .byte   N11
 .byte   W03
 .byte   W01
 .byte   W01
 .byte   W19
 .byte   PEND 
@  #15 @205   ----------------------------------------
 .byte   PATT
  .word Label_011369A5
@  #15 @206   ----------------------------------------
 .byte   PATT
  .word Label_011369A5
@  #15 @207   ----------------------------------------
 .byte   PATT
  .word Label_011369A5
@  #15 @208   ----------------------------------------
Label_011369C1:
 .byte   N11 ,Dn3 ,v060
 .byte   W03
 .byte   W01
 .byte   W01
 .byte   W19
 .byte   N11
 .byte   W03
 .byte   W01
 .byte   W01
 .byte   W19
 .byte   PEND 
@  #15 @209   ----------------------------------------
 .byte   PATT
  .word Label_011369C1
@  #15 @210   ----------------------------------------
 .byte   PATT
  .word Label_011369C1
@  #15 @211   ----------------------------------------
 .byte   PATT
  .word Label_011369C1
@  #15 @212   ----------------------------------------
 .byte   TIE ,An1 ,v080
 .byte   W48
 .byte   W48
@  #15 @213   ----------------------------------------
 .byte   W48
 .byte   W44
 .byte   W03
 .byte   EOT
 .byte   W01
@  #15 @214   ----------------------------------------
 .byte   TIE ,Fn1
 .byte   W48
 .byte   W48
@  #15 @215   ----------------------------------------
 .byte   W48
 .byte   W44
 .byte   W03
 .byte   EOT
 .byte   W01
@  #15 @216   ----------------------------------------
 .byte   N92 ,Dn1
 .byte   W48
 .byte   W48
@  #15 @217   ----------------------------------------
 .byte   En1
 .byte   W48
 .byte   W48
@  #15 @218   ----------------------------------------
 .byte   Fn1
 .byte   W48
 .byte   W48
@  #15 @219   ----------------------------------------
 .byte   Gn1
 .byte   W48
 .byte   W48
@  #15 @220   ----------------------------------------
 .byte   GOTO
  .word Label_011365E4
@  #15 @221   ----------------------------------------
 .byte   W48
 .byte   W48
@  #15 @222   ----------------------------------------
 .byte   W48
 .byte   W48
@  #15 @223   ----------------------------------------
 .byte   W48
 .byte   W48
@  #15 @224   ----------------------------------------
 .byte   W48
 .byte   W48
@  #15 @225   ----------------------------------------
 .byte   W48
 .byte   W48
@  #15 @226   ----------------------------------------
 .byte   W48
 .byte   W48
@  #15 @227   ----------------------------------------
 .byte   W48
 .byte   W48
@  #15 @228   ----------------------------------------
 .byte   W48
 .byte   W48
@  #15 @229   ----------------------------------------
 .byte   W48
 .byte   W48
@  #15 @230   ----------------------------------------
 .byte   W48
 .byte   W48
@  #15 @231   ----------------------------------------
 .byte   W48
 .byte   W48
@  #15 @232   ----------------------------------------
 .byte   W48
 .byte   W48
@  #15 @233   ----------------------------------------
 .byte   W48
 .byte   W48
@  #15 @234   ----------------------------------------
 .byte   W48
 .byte   W48
@  #15 @235   ----------------------------------------
 .byte   W48
 .byte   W48
@  #15 @236   ----------------------------------------
 .byte   W48
 .byte   W48
@  #15 @237   ----------------------------------------
 .byte   W48
 .byte   W48
@  #15 @238   ----------------------------------------
 .byte   W48
 .byte   W48
@  #15 @239   ----------------------------------------
 .byte   W48
 .byte   W48
@  #15 @240   ----------------------------------------
 .byte   W48
 .byte   W48
@  #15 @241   ----------------------------------------
 .byte   W48
 .byte   W48
@  #15 @242   ----------------------------------------
 .byte   W48
 .byte   W48
@  #15 @243   ----------------------------------------
 .byte   W48
 .byte   W48
@  #15 @244   ----------------------------------------
 .byte   W48
 .byte   W48
@  #15 @245   ----------------------------------------
 .byte   W48
 .byte   W48
@  #15 @246   ----------------------------------------
 .byte   W48
 .byte   W48
@  #15 @247   ----------------------------------------
 .byte   W48
 .byte   W48
@  #15 @248   ----------------------------------------
 .byte   W48
 .byte   W48
@  #15 @249   ----------------------------------------
 .byte   W48
 .byte   W48
@  #15 @250   ----------------------------------------
 .byte   W48
 .byte   W48
@  #15 @251   ----------------------------------------
 .byte   W48
 .byte   W48
@  #15 @252   ----------------------------------------
 .byte   W48
 .byte   W48
@  #15 @253   ----------------------------------------
 .byte   W48
 .byte   W48
@  #15 @254   ----------------------------------------
 .byte   W48
 .byte   W48
@  #15 @255   ----------------------------------------
 .byte   W48
 .byte   W48
@  #15 @256   ----------------------------------------
 .byte   W48
 .byte   W48
@  #15 @257   ----------------------------------------
 .byte   W48
 .byte   W48
@  #15 @258   ----------------------------------------
 .byte   W48
 .byte   W48
@  #15 @259   ----------------------------------------
 .byte   W48
 .byte   W48
@  #15 @260   ----------------------------------------
 .byte   W48
 .byte   W48
@  #15 @261   ----------------------------------------
 .byte   W48
 .byte   W48
@  #15 @262   ----------------------------------------
 .byte   W48
 .byte   W48
@  #15 @263   ----------------------------------------
 .byte   W48
 .byte   W48
@  #15 @264   ----------------------------------------
 .byte   W48
 .byte   W48
@  #15 @265   ----------------------------------------
 .byte   W48
 .byte   W48
@  #15 @266   ----------------------------------------
 .byte   W48
 .byte   W48
@  #15 @267   ----------------------------------------
 .byte   W48
 .byte   W48
@  #15 @268   ----------------------------------------
 .byte   W48
 .byte   W48
@  #15 @269   ----------------------------------------
 .byte   W48
 .byte   W48
@  #15 @270   ----------------------------------------
 .byte   W48
 .byte   W48
@  #15 @271   ----------------------------------------
 .byte   W48
 .byte   W48
@  #15 @272   ----------------------------------------
 .byte   W48
 .byte   W48
@  #15 @273   ----------------------------------------
 .byte   W48
 .byte   W48
@  #15 @274   ----------------------------------------
 .byte   W48
 .byte   W48
@  #15 @275   ----------------------------------------
 .byte   W48
 .byte   W48
@  #15 @276   ----------------------------------------
 .byte   W48
 .byte   W48
@  #15 @277   ----------------------------------------
 .byte   PATT
  .word Label_01136654
@  #15 @278   ----------------------------------------
 .byte   PATT
  .word Label_01136654
@  #15 @279   ----------------------------------------
 .byte   PATT
  .word Label_01136654
@  #15 @280   ----------------------------------------
 .byte   PATT
  .word Label_01136654
@  #15 @281   ----------------------------------------
 .byte   PATT
  .word Label_0113666E
@  #15 @282   ----------------------------------------
 .byte   PATT
  .word Label_01136679
@  #15 @283   ----------------------------------------
 .byte   PATT
  .word Label_01136684
@  #15 @284   ----------------------------------------
 .byte   PATT
  .word Label_01136684
@  #15 @285   ----------------------------------------
 .byte   PATT
  .word Label_01136694
@  #15 @286   ----------------------------------------
 .byte   PATT
  .word Label_0113669F
@  #15 @287   ----------------------------------------
 .byte   PATT
  .word Label_0113669F
@  #15 @288   ----------------------------------------
 .byte   PATT
  .word Label_0113669F
@  #15 @289   ----------------------------------------
 .byte   PATT
  .word Label_01136694
@  #15 @290   ----------------------------------------
 .byte   PATT
  .word Label_0113669F
@  #15 @291   ----------------------------------------
 .byte   PATT
  .word Label_011366BE
@  #15 @292   ----------------------------------------
 .byte   PATT
  .word Label_011366C9
@  #15 @293   ----------------------------------------
 .byte   PATT
  .word Label_01136654
@  #15 @294   ----------------------------------------
 .byte   PATT
  .word Label_01136654
@  #15 @295   ----------------------------------------
 .byte   PATT
  .word Label_01136654
@  #15 @296   ----------------------------------------
 .byte   PATT
  .word Label_01136654
@  #15 @297   ----------------------------------------
 .byte   PATT
  .word Label_0113666E
@  #15 @298   ----------------------------------------
 .byte   PATT
  .word Label_01136679
@  #15 @299   ----------------------------------------
 .byte   PATT
  .word Label_01136684
@  #15 @300   ----------------------------------------
 .byte   PATT
  .word Label_01136684
@  #15 @301   ----------------------------------------
 .byte   PATT
  .word Label_01136694
@  #15 @302   ----------------------------------------
 .byte   PATT
  .word Label_0113669F
@  #15 @303   ----------------------------------------
 .byte   PATT
  .word Label_0113669F
@  #15 @304   ----------------------------------------
 .byte   PATT
  .word Label_0113669F
@  #15 @305   ----------------------------------------
 .byte   PATT
  .word Label_01136710
@  #15 @306   ----------------------------------------
 .byte   PATT
  .word Label_01136710
@  #15 @307   ----------------------------------------
 .byte   W48
 .byte   W48
@  #15 @308   ----------------------------------------
 .byte   N56 ,Cn3 ,v064
 .byte   W48
@  #15 @309   ----------------------------------------
 .byte   PATT
  .word Label_01136726
@  #15 @310   ----------------------------------------
 .byte   N56 ,An2 ,v064
 .byte   W48
@  #15 @311   ----------------------------------------
 .byte   PATT
  .word Label_01136733
@  #15 @312   ----------------------------------------
 .byte   PATT
  .word Label_0113673D
@  #15 @313   ----------------------------------------
 .byte   W48
 .byte   W44
 .byte   W03
 .byte   EOT
 .byte   En2
 .byte   W01
@  #15 @314   ----------------------------------------
 .byte   PATT
  .word Label_0113674B
@  #15 @315   ----------------------------------------
 .byte   N56 ,Cn3 ,v064
 .byte   W48
@  #15 @316   ----------------------------------------
 .byte   PATT
  .word Label_01136726
@  #15 @317   ----------------------------------------
 .byte   N56 ,An2 ,v064
 .byte   W48
@  #15 @318   ----------------------------------------
 .byte   PATT
  .word Label_0113675F
@  #15 @319   ----------------------------------------
 .byte   PATT
  .word Label_01136769
@  #15 @320   ----------------------------------------
 .byte   W48
 .byte   W44
 .byte   W03
 .byte   EOT
 .byte   Gn2
 .byte   W01
@  #15 @321   ----------------------------------------
 .byte   PATT
  .word Label_01136778
@  #15 @322   ----------------------------------------
 .byte   PATT
  .word Label_01136782
@  #15 @323   ----------------------------------------
 .byte   PATT
  .word Label_0113678D
@  #15 @324   ----------------------------------------
 .byte   PATT
  .word Label_0113679F
@  #15 @325   ----------------------------------------
 .byte   PATT
  .word Label_01136733
@  #15 @326   ----------------------------------------
 .byte   PATT
  .word Label_011367B1
@  #15 @327   ----------------------------------------
 .byte   PATT
  .word Label_011367CB
@  #15 @328   ----------------------------------------
 .byte   PATT
  .word Label_011367DC
@  #15 @329   ----------------------------------------
 .byte   PATT
  .word Label_011367E7
@  #15 @330   ----------------------------------------
 .byte   PATT
  .word Label_011367EF
@  #15 @331   ----------------------------------------
 .byte   PATT
  .word Label_01136800
@  #15 @332   ----------------------------------------
 .byte   PATT
  .word Label_01136810
@  #15 @333   ----------------------------------------
 .byte   N44 ,Dn2 ,v064
 .byte   W48
@  #15 @334   ----------------------------------------
 .byte   PATT
  .word Label_0113681E
@  #15 @335   ----------------------------------------
 .byte   PATT
  .word Label_01136830
@  #15 @336   ----------------------------------------
 .byte   PATT
  .word Label_0113683B
@  #15 @337   ----------------------------------------
 .byte   PATT
  .word Label_01136846
@  #15 @338   ----------------------------------------
 .byte   EOT
 .byte   En2
 .byte   W01
 .byte   W48
 .byte   W48
@  #15 @339   ----------------------------------------
 .byte   W48
 .byte   W48
@  #15 @340   ----------------------------------------
 .byte   W48
 .byte   W48
@  #15 @341   ----------------------------------------
 .byte   W48
 .byte   W48
@  #15 @342   ----------------------------------------
 .byte   W48
 .byte   W48
@  #15 @343   ----------------------------------------
 .byte   W48
 .byte   W48
@  #15 @344   ----------------------------------------
 .byte   W48
 .byte   W48
@  #15 @345   ----------------------------------------
 .byte   W48
 .byte   W48
@  #15 @346   ----------------------------------------
 .byte   W48
 .byte   W48
@  #15 @347   ----------------------------------------
 .byte   W48
 .byte   W48
@  #15 @348   ----------------------------------------
 .byte   W48
 .byte   W48
@  #15 @349   ----------------------------------------
 .byte   W48
 .byte   W48
@  #15 @350   ----------------------------------------
 .byte   W48
 .byte   W48
@  #15 @351   ----------------------------------------
 .byte   W48
 .byte   W48
@  #15 @352   ----------------------------------------
 .byte   W48
 .byte   W48
@  #15 @353   ----------------------------------------
 .byte   W48
 .byte   W48
@  #15 @354   ----------------------------------------
 .byte   W48
 .byte   W48
@  #15 @355   ----------------------------------------
 .byte   W48
 .byte   W48
@  #15 @356   ----------------------------------------
 .byte   W48
 .byte   W48
@  #15 @357   ----------------------------------------
 .byte   W48
 .byte   W48
@  #15 @358   ----------------------------------------
 .byte   W48
 .byte   W48
@  #15 @359   ----------------------------------------
 .byte   W48
 .byte   W48
@  #15 @360   ----------------------------------------
 .byte   W48
 .byte   W48
@  #15 @361   ----------------------------------------
 .byte   W48
 .byte   W48
@  #15 @362   ----------------------------------------
 .byte   W48
 .byte   W48
@  #15 @363   ----------------------------------------
 .byte   W48
 .byte   W48
@  #15 @364   ----------------------------------------
 .byte   W48
 .byte   W48
@  #15 @365   ----------------------------------------
 .byte   W48
 .byte   W48
@  #15 @366   ----------------------------------------
 .byte   W48
 .byte   W48
@  #15 @367   ----------------------------------------
 .byte   W48
 .byte   W48
@  #15 @368   ----------------------------------------
 .byte   W48
 .byte   W48
@  #15 @369   ----------------------------------------
 .byte   W48
 .byte   W48
@  #15 @370   ----------------------------------------
 .byte   W48
 .byte   W48
@  #15 @371   ----------------------------------------
 .byte   W48
 .byte   W48
@  #15 @372   ----------------------------------------
 .byte   W48
 .byte   W48
@  #15 @373   ----------------------------------------
 .byte   W48
 .byte   W48
@  #15 @374   ----------------------------------------
 .byte   W48
 .byte   W48
@  #15 @375   ----------------------------------------
 .byte   W48
 .byte   W48
@  #15 @376   ----------------------------------------
 .byte   W48
 .byte   W48
@  #15 @377   ----------------------------------------
 .byte   W48
 .byte   W48
@  #15 @378   ----------------------------------------
 .byte   W48
 .byte   W48
@  #15 @379   ----------------------------------------
 .byte   W48
 .byte   W48
@  #15 @380   ----------------------------------------
 .byte   W48
 .byte   W48
@  #15 @381   ----------------------------------------
 .byte   W48
 .byte   W48
@  #15 @382   ----------------------------------------
 .byte   W48
 .byte   W48
@  #15 @383   ----------------------------------------
 .byte   W48
 .byte   W48
@  #15 @384   ----------------------------------------
 .byte   W48
 .byte   W48
@  #15 @385   ----------------------------------------
 .byte   W48
 .byte   W48
@  #15 @386   ----------------------------------------
 .byte   W48
 .byte   W48
@  #15 @387   ----------------------------------------
 .byte   W48
 .byte   W48
@  #15 @388   ----------------------------------------
 .byte   W48
 .byte   W48
@  #15 @389   ----------------------------------------
 .byte   W48
 .byte   W48
@  #15 @390   ----------------------------------------
 .byte   W48
 .byte   W48
@  #15 @391   ----------------------------------------
 .byte   W48
 .byte   W48
@  #15 @392   ----------------------------------------
 .byte   W48
 .byte   W48
@  #15 @393   ----------------------------------------
 .byte   W48
 .byte   W48
@  #15 @394   ----------------------------------------
 .byte   W48
 .byte   W48
@  #15 @395   ----------------------------------------
 .byte   W48
 .byte   W48
@  #15 @396   ----------------------------------------
 .byte   W48
 .byte   W48
@  #15 @397   ----------------------------------------
 .byte   W48
 .byte   W48
@  #15 @398   ----------------------------------------
 .byte   W48
 .byte   W48
@  #15 @399   ----------------------------------------
 .byte   W48
 .byte   W48
@  #15 @400   ----------------------------------------
 .byte   W48
 .byte   W48
@  #15 @401   ----------------------------------------
 .byte   W48
 .byte   W48
@  #15 @402   ----------------------------------------
 .byte   W48
 .byte   W48
@  #15 @403   ----------------------------------------
 .byte   W48
 .byte   W48
@  #15 @404   ----------------------------------------
 .byte   W48
 .byte   N44 ,Cs3 ,v080
 .byte   W48
@  #15 @405   ----------------------------------------
 .byte   PATT
  .word Label_011368E1
@  #15 @406   ----------------------------------------
 .byte   W24
 .byte   N23 ,Cn3 ,v080
 .byte   W24
@  #15 @407   ----------------------------------------
 .byte   PATT
  .word Label_011368EC
@  #15 @408   ----------------------------------------
 .byte   W12
 .byte   N32 ,Cn3 ,v080
 .byte   W36
@  #15 @409   ----------------------------------------
 .byte   PATT
  .word Label_011368F7
@  #15 @410   ----------------------------------------
 .byte   W24
 .byte   N23 ,Cn3 ,v080
 .byte   W24
 .byte   N44 ,As2
 .byte   W48
@  #15 @411   ----------------------------------------
 .byte   PATT
  .word Label_01136905
@  #15 @412   ----------------------------------------
 .byte   N44 ,Ds3 ,v080
 .byte   W48
 .byte   An3
 .byte   W48
@  #15 @413   ----------------------------------------
 .byte   PATT
  .word Label_01136911
@  #15 @414   ----------------------------------------
 .byte   W48
@  #15 @415   ----------------------------------------
 .byte   PATT
  .word Label_0113691A
@  #15 @416   ----------------------------------------
 .byte   W24
 .byte   N23 ,Fn3 ,v080
 .byte   W24
@  #15 @417   ----------------------------------------
 .byte   PATT
  .word Label_01136925
@  #15 @418   ----------------------------------------
 .byte   PATT
  .word Label_0113692C
@  #15 @419   ----------------------------------------
 .byte   W36
 .byte   N32 ,Ds3 ,v080
 .byte   W12
 .byte   W24
 .byte   N23 ,Gs3
 .byte   W24
@  #15 @420   ----------------------------------------
 .byte   PATT
  .word Label_0113693C
@  #15 @421   ----------------------------------------
 .byte   W48
 .byte   W24
 .byte   N68 ,Cs4 ,v080
 .byte   W24
@  #15 @422   ----------------------------------------
 .byte   W48
 .byte   N44 ,Fs3
 .byte   W48
@  #15 @423   ----------------------------------------
 .byte   As3
 .byte   W48
 .byte   An3
 .byte   W48
@  #15 @424   ----------------------------------------
 .byte   Fn3
 .byte   W48
@  #15 @425   ----------------------------------------
 .byte   PATT
  .word Label_01136953
@  #15 @426   ----------------------------------------
 .byte   W48
 .byte   W48
@  #15 @427   ----------------------------------------
 .byte   W44
 .byte   W03
 .byte   EOT
 .byte   Cs3
 .byte   W01
@  #15 @428   ----------------------------------------
 .byte   PATT
  .word Label_01136961
@  #15 @429   ----------------------------------------
 .byte   PATT
  .word Label_01136961
@  #15 @430   ----------------------------------------
 .byte   PATT
  .word Label_01136961
@  #15 @431   ----------------------------------------
 .byte   PATT
  .word Label_01136961
@  #15 @432   ----------------------------------------
 .byte   PATT
  .word Label_01136961
@  #15 @433   ----------------------------------------
 .byte   PATT
  .word Label_01136961
@  #15 @434   ----------------------------------------
 .byte   PATT
  .word Label_01136961
@  #15 @435   ----------------------------------------
 .byte   PATT
  .word Label_01136961
@  #15 @436   ----------------------------------------
 .byte   PATT
  .word Label_01136961
@  #15 @437   ----------------------------------------
 .byte   PATT
  .word Label_01136961
@  #15 @438   ----------------------------------------
 .byte   PATT
  .word Label_01136961
@  #15 @439   ----------------------------------------
 .byte   PATT
  .word Label_01136961
@  #15 @440   ----------------------------------------
 .byte   PATT
  .word Label_011369A5
@  #15 @441   ----------------------------------------
 .byte   PATT
  .word Label_011369A5
@  #15 @442   ----------------------------------------
 .byte   PATT
  .word Label_011369A5
@  #15 @443   ----------------------------------------
 .byte   PATT
  .word Label_011369A5
@  #15 @444   ----------------------------------------
 .byte   PATT
  .word Label_011369C1
@  #15 @445   ----------------------------------------
 .byte   PATT
  .word Label_011369C1
@  #15 @446   ----------------------------------------
 .byte   PATT
  .word Label_011369C1
@  #15 @447   ----------------------------------------
 .byte   N11 ,Dn3 ,v060
 .byte   W03
 .byte   W01
 .byte   W01
 .byte   W19
 .byte   N11
 .byte   W03
 .byte   W01
 .byte   W01
 .byte   W18
 .byte   FINE

@******************************************************@
	.align	2

Song_TheApexOfTheWorld_SurfingKyogre:
	.byte	15	@ NumTrks
	.byte	0	@ NumBlks
	.byte	song06_pri	@ Priority
	.byte	song06_rev	@ Reverb.
    
	.word	song06_grp
    
	.word	song06_001
	.word	song06_002
	.word	song06_003
	.word	song06_004
	.word	song06_005
	.word	song06_006
	.word	song06_007
	.word	song06_008
	.word	song06_009
	.word	song06_010
	.word	song06_011
	.word	song06_012
	.word	song06_013
	.word	song06_014
	.word	song06_015

	.end
